<?xml version="1.0" encoding="UTF-8" standalone="no"?><svg xmlns="http://www.w3.org/2000/svg" xmlns:xlink="http://www.w3.org/1999/xlink" contentScriptType="application/ecmascript" contentStyleType="text/css" height="330px" preserveAspectRatio="none" style="width:867px;height:330px;background:#FFFFFF;" version="1.1" viewBox="0 0 867 330" width="867.6px" zoomAndPan="magnify"><defs><filter height="300%" id="f1rgpo1khju977" width="300%" x="-1" y="-1"><feGaussianBlur result="blurOut" stdDeviation="2.4"/><feColorMatrix in="blurOut" result="blurOut2" type="matrix" values="0 0 0 0 0 0 0 0 0 0 0 0 0 0 0 0 0 0 .4 0"/><feOffset dx="4.8" dy="4.8" in="blurOut2" result="blurOut3"/><feBlend in="SourceGraphic" in2="blurOut3" mode="normal"/></filter></defs><g><!--MD5=[02e4b9b7573f1156f41e60aa5b4e25a4]
class Company--><rect codeLine="5" fill="#FEFECE" filter="url(#f1rgpo1khju977)" height="64.6031" id="Company" style="stroke:#A80036;stroke-width:1.7999999999999998;" width="102" x="8.4" y="8.4"/><ellipse cx="26.4" cy="27.6" fill="#ADD1B2" rx="13.2" ry="13.2" style="stroke:#A80036;stroke-width:1.2;"/><path d="M28.8,23.4 Q29.0438,22.8 29.325,22.5 Q29.6063,22.2 29.925,22.2 Q30.4875,22.2 30.8438,22.5375 Q31.2,22.875 31.2,23.6625 L31.2,25.5375 Q31.2,26.325 30.8625,26.6625 Q30.525,27 30,27 Q29.5313,27 29.2313,26.7938 Q28.9313,26.5875 28.8,26.0438 Q28.7438,25.6688 28.5375,25.4625 Q28.1625,25.0687 27.4875,24.8438 Q26.8125,24.6 26.1375,24.6 Q25.2938,24.6 24.5813,24.9375 Q23.8875,25.275 23.3438,26.025 Q22.8,26.775 22.8,27.8063 L22.8,28.9125 Q22.8,30.15 23.8125,30.975 Q24.825,31.8 26.625,31.8 Q27.6937,31.8 28.4437,31.5563 Q28.875,31.425 29.3625,30.9938 Q29.6813,30.75 29.85,30.675 Q30.0187,30.6 30.225,30.6 Q30.6188,30.6 30.9,30.9188 Q31.2,31.2188 31.2,31.65 Q31.2,32.0625 30.7875,32.55 Q30.1875,33.2625 29.2313,33.6563 Q27.975,34.2 26.4375,34.2 Q24.6375,34.2 23.1937,33.4875 Q22.0313,32.925 21.2063,31.7062 Q20.4,30.4875 20.4,29.0438 L20.4,27.7313 Q20.4,26.2313 21.1125,24.9188 Q21.8438,23.6063 23.1,22.9125 Q24.375,22.2 25.8,22.2 Q26.6625,22.2 27.4125,22.5 Q28.1625,22.8 28.8,23.4 Z " fill="#000000"/><text fill="#000000" font-family="sans-serif" font-size="14.4" lengthAdjust="spacing" textLength="63.6" x="43.2" y="33.4922">Company</text><line style="stroke:#A80036;stroke-width:1.7999999999999998;" x1="9.6" x2="109.2" y1="46.8" y2="46.8"/><text fill="#000000" font-family="sans-serif" font-size="13.2" lengthAdjust="spacing" textLength="70.8" x="15.6" y="65.3027">-designation</text><!--MD5=[7421f545a0d8420c5bec41e74b387d9c]
class Employee--><rect codeLine="9" fill="#FEFECE" filter="url(#f1rgpo1khju977)" height="131.0156" id="Employee" style="stroke:#A80036;stroke-width:1.7999999999999998;" width="128.4" x="722.4" y="59.4"/><ellipse cx="751.2" cy="78.6" fill="#ADD1B2" rx="13.2" ry="13.2" style="stroke:#A80036;stroke-width:1.2;"/><path d="M753.6,74.4 Q753.8438,73.8 754.125,73.5 Q754.4063,73.2 754.725,73.2 Q755.2875,73.2 755.6438,73.5375 Q756,73.875 756,74.6625 L756,76.5375 Q756,77.325 755.6625,77.6625 Q755.325,78 754.8,78 Q754.3313,78 754.0313,77.7938 Q753.7312,77.5875 753.6,77.0438 Q753.5437,76.6688 753.3375,76.4625 Q752.9625,76.0688 752.2875,75.8438 Q751.6125,75.6 750.9375,75.6 Q750.0938,75.6 749.3813,75.9375 Q748.6875,76.275 748.1438,77.025 Q747.6,77.775 747.6,78.8062 L747.6,79.9125 Q747.6,81.15 748.6125,81.975 Q749.625,82.8 751.425,82.8 Q752.4938,82.8 753.2438,82.5562 Q753.675,82.425 754.1625,81.9937 Q754.4812,81.75 754.65,81.675 Q754.8188,81.6 755.025,81.6 Q755.4187,81.6 755.7,81.9188 Q756,82.2188 756,82.65 Q756,83.0625 755.5875,83.55 Q754.9875,84.2625 754.0313,84.6563 Q752.775,85.2 751.2375,85.2 Q749.4375,85.2 747.9938,84.4875 Q746.8313,83.925 746.0063,82.7063 Q745.2,81.4875 745.2,80.0438 L745.2,78.7313 Q745.2,77.2313 745.9125,75.9188 Q746.6438,74.6063 747.9,73.9125 Q749.175,73.2 750.6,73.2 Q751.4625,73.2 752.2125,73.5 Q752.9625,73.8 753.6,74.4 Z " fill="#000000"/><text fill="#000000" font-family="sans-serif" font-size="14.4" lengthAdjust="spacing" textLength="66" x="770.4" y="84.4922">Employee</text><line style="stroke:#A80036;stroke-width:1.7999999999999998;" x1="723.6" x2="849.6" y1="97.8" y2="97.8"/><text fill="#000000" font-family="sans-serif" font-size="13.2" lengthAdjust="spacing" textLength="14.4" x="729.6" y="116.3027">-id</text><text fill="#000000" font-family="sans-serif" font-size="13.2" lengthAdjust="spacing" textLength="36" x="729.6" y="132.9059">-name</text><text fill="#000000" font-family="sans-serif" font-size="13.2" lengthAdjust="spacing" textLength="85.2" x="729.6" y="149.509">-phoneNumber</text><text fill="#000000" font-family="sans-serif" font-size="13.2" lengthAdjust="spacing" textLength="33.6" x="729.6" y="166.1121">-email</text><text fill="#000000" font-family="sans-serif" font-size="13.2" lengthAdjust="spacing" textLength="114" x="729.6" y="182.7152">-citizenCardNumber</text><!--MD5=[03960189e81aa2c066c762ffabbee709]
class Receptionist--><rect codeLine="17" fill="#FEFECE" filter="url(#f1rgpo1khju977)" height="48" id="Receptionist" style="stroke:#A80036;stroke-width:1.7999999999999998;" width="121.2" x="528" y="100.8"/><ellipse cx="546" cy="120" fill="#ADD1B2" rx="13.2" ry="13.2" style="stroke:#A80036;stroke-width:1.2;"/><path d="M548.4,115.8 Q548.6438,115.2 548.925,114.9 Q549.2063,114.6 549.525,114.6 Q550.0875,114.6 550.4438,114.9375 Q550.8,115.275 550.8,116.0625 L550.8,117.9375 Q550.8,118.725 550.4625,119.0625 Q550.125,119.4 549.6,119.4 Q549.1313,119.4 548.8313,119.1938 Q548.5313,118.9875 548.4,118.4438 Q548.3438,118.0688 548.1375,117.8625 Q547.7625,117.4688 547.0875,117.2437 Q546.4125,117 545.7375,117 Q544.8938,117 544.1813,117.3375 Q543.4875,117.675 542.9438,118.425 Q542.4,119.175 542.4,120.2063 L542.4,121.3125 Q542.4,122.55 543.4125,123.375 Q544.425,124.2 546.225,124.2 Q547.2937,124.2 548.0437,123.9563 Q548.475,123.825 548.9625,123.3938 Q549.2813,123.15 549.45,123.075 Q549.6188,123 549.825,123 Q550.2188,123 550.5,123.3188 Q550.8,123.6187 550.8,124.05 Q550.8,124.4625 550.3875,124.95 Q549.7875,125.6625 548.8313,126.0562 Q547.575,126.6 546.0375,126.6 Q544.2375,126.6 542.7937,125.8875 Q541.6313,125.325 540.8063,124.1062 Q540,122.8875 540,121.4438 L540,120.1313 Q540,118.6313 540.7125,117.3188 Q541.4438,116.0063 542.7,115.3125 Q543.975,114.6 545.4,114.6 Q546.2625,114.6 547.0125,114.9 Q547.7625,115.2 548.4,115.8 Z " fill="#000000"/><text fill="#000000" font-family="sans-serif" font-size="14.4" lengthAdjust="spacing" textLength="82.8" x="562.8" y="125.8922">Receptionist</text><line style="stroke:#A80036;stroke-width:1.7999999999999998;" x1="529.2" x2="648" y1="139.2" y2="139.2"/><!--MD5=[72be06cc7ae02ccc98efe28a50e62246]
class SNSUser--><rect codeLine="20" fill="#FEFECE" filter="url(#f1rgpo1khju977)" height="164.2219" id="SNSUser" style="stroke:#A80036;stroke-width:1.7999999999999998;" width="128.4" x="236.4" y="125.4"/><ellipse cx="266.82" cy="144.6" fill="#ADD1B2" rx="13.2" ry="13.2" style="stroke:#A80036;stroke-width:1.2;"/><path d="M269.22,140.4 Q269.4638,139.8 269.745,139.5 Q270.0263,139.2 270.345,139.2 Q270.9075,139.2 271.2637,139.5375 Q271.62,139.875 271.62,140.6625 L271.62,142.5375 Q271.62,143.325 271.2825,143.6625 Q270.945,144 270.42,144 Q269.9512,144 269.6513,143.7938 Q269.3513,143.5875 269.22,143.0438 Q269.1638,142.6688 268.9575,142.4625 Q268.5825,142.0688 267.9075,141.8438 Q267.2325,141.6 266.5575,141.6 Q265.7138,141.6 265.0012,141.9375 Q264.3075,142.275 263.7637,143.025 Q263.22,143.775 263.22,144.8063 L263.22,145.9125 Q263.22,147.15 264.2325,147.975 Q265.245,148.8 267.045,148.8 Q268.1138,148.8 268.8638,148.5563 Q269.295,148.425 269.7825,147.9938 Q270.1013,147.75 270.27,147.675 Q270.4387,147.6 270.645,147.6 Q271.0388,147.6 271.32,147.9188 Q271.62,148.2188 271.62,148.65 Q271.62,149.0625 271.2075,149.55 Q270.6075,150.2625 269.6513,150.6563 Q268.395,151.2 266.8575,151.2 Q265.0575,151.2 263.6138,150.4875 Q262.4512,149.925 261.6262,148.7062 Q260.82,147.4875 260.82,146.0438 L260.82,144.7313 Q260.82,143.2313 261.5325,141.9188 Q262.2637,140.6063 263.52,139.9125 Q264.795,139.2 266.22,139.2 Q267.0825,139.2 267.8325,139.5 Q268.5825,139.8 269.22,140.4 Z " fill="#000000"/><text fill="#000000" font-family="sans-serif" font-size="14.4" lengthAdjust="spacing" textLength="62.4" x="286.38" y="150.4922">SNSUser</text><line style="stroke:#A80036;stroke-width:1.7999999999999998;" x1="237.6" x2="363.6" y1="163.8" y2="163.8"/><text fill="#000000" font-family="sans-serif" font-size="13.2" lengthAdjust="spacing" textLength="36" x="243.6" y="182.3027">-name</text><text fill="#000000" font-family="sans-serif" font-size="13.2" lengthAdjust="spacing" textLength="26.4" x="243.6" y="198.9059">-sex</text><text fill="#000000" font-family="sans-serif" font-size="13.2" lengthAdjust="spacing" textLength="85.2" x="243.6" y="215.509">-phoneNumber</text><text fill="#000000" font-family="sans-serif" font-size="13.2" lengthAdjust="spacing" textLength="33.6" x="243.6" y="232.1121">-email</text><text fill="#000000" font-family="sans-serif" font-size="13.2" lengthAdjust="spacing" textLength="56.4" x="243.6" y="248.7152">-birthDate</text><text fill="#000000" font-family="sans-serif" font-size="13.2" lengthAdjust="spacing" textLength="74.4" x="243.6" y="265.3184">-SNSNumber</text><text fill="#000000" font-family="sans-serif" font-size="13.2" lengthAdjust="spacing" textLength="114" x="243.6" y="281.9215">-citizenCardNumber</text><!--MD5=[0f39e4cb6f03951afbf6d14bd2505654]
class Address--><rect codeLine="30" fill="#FEFECE" filter="url(#f1rgpo1khju977)" height="197.4281" id="Address" style="stroke:#A80036;stroke-width:1.7999999999999998;" width="93.6" x="12.6" y="115.8"/><ellipse cx="30.6" cy="135" fill="#ADD1B2" rx="13.2" ry="13.2" style="stroke:#A80036;stroke-width:1.2;"/><path d="M33,130.8 Q33.2438,130.2 33.525,129.9 Q33.8063,129.6 34.125,129.6 Q34.6875,129.6 35.0437,129.9375 Q35.4,130.275 35.4,131.0625 L35.4,132.9375 Q35.4,133.725 35.0625,134.0625 Q34.725,134.4 34.2,134.4 Q33.7312,134.4 33.4313,134.1938 Q33.1313,133.9875 33,133.4438 Q32.9438,133.0688 32.7375,132.8625 Q32.3625,132.4688 31.6875,132.2438 Q31.0125,132 30.3375,132 Q29.4938,132 28.7813,132.3375 Q28.0875,132.675 27.5438,133.425 Q27,134.175 27,135.2062 L27,136.3125 Q27,137.55 28.0125,138.375 Q29.025,139.2 30.825,139.2 Q31.8937,139.2 32.6438,138.9562 Q33.075,138.825 33.5625,138.3937 Q33.8813,138.15 34.05,138.075 Q34.2188,138 34.425,138 Q34.8188,138 35.1,138.3188 Q35.4,138.6188 35.4,139.05 Q35.4,139.4625 34.9875,139.95 Q34.3875,140.6625 33.4313,141.0563 Q32.175,141.6 30.6375,141.6 Q28.8375,141.6 27.3938,140.8875 Q26.2313,140.325 25.4063,139.1063 Q24.6,137.8875 24.6,136.4438 L24.6,135.1313 Q24.6,133.6313 25.3125,132.3188 Q26.0438,131.0063 27.3,130.3125 Q28.575,129.6 30,129.6 Q30.8625,129.6 31.6125,129.9 Q32.3625,130.2 33,130.8 Z " fill="#000000"/><text fill="#000000" font-family="sans-serif" font-size="14.4" lengthAdjust="spacing" textLength="55.2" x="47.4" y="140.8922">Address</text><line style="stroke:#A80036;stroke-width:1.7999999999999998;" x1="13.8" x2="105" y1="154.2" y2="154.2"/><text fill="#000000" font-family="sans-serif" font-size="13.2" lengthAdjust="spacing" textLength="49.2" x="19.8" y="172.7027">-country</text><text fill="#000000" font-family="sans-serif" font-size="13.2" lengthAdjust="spacing" textLength="25.2" x="19.8" y="189.3059">-city</text><text fill="#000000" font-family="sans-serif" font-size="13.2" lengthAdjust="spacing" textLength="44.4" x="19.8" y="205.909">-county</text><text fill="#000000" font-family="sans-serif" font-size="13.2" lengthAdjust="spacing" textLength="40.8" x="19.8" y="222.5121">-parish</text><text fill="#000000" font-family="sans-serif" font-size="13.2" lengthAdjust="spacing" textLength="38.4" x="19.8" y="239.1152">-street</text><text fill="#000000" font-family="sans-serif" font-size="13.2" lengthAdjust="spacing" textLength="72" x="19.8" y="255.7184">-portNumber</text><text fill="#000000" font-family="sans-serif" font-size="13.2" lengthAdjust="spacing" textLength="69.6" x="19.8" y="272.3215">-postalCode</text><text fill="#000000" font-family="sans-serif" font-size="13.2" lengthAdjust="spacing" textLength="31.2" x="19.8" y="288.9246">-floor</text><text fill="#000000" font-family="sans-serif" font-size="13.2" lengthAdjust="spacing" textLength="73.2" x="19.8" y="305.5277">-observation</text><!--MD5=[33919b1e7c659d9871b4b7101ebf4f65]
link Address to SNSUser--><path codeLine="42" d="M106.644,213.408 C143.508,212.304 195.6,210.732 236.34,209.496 " fill="none" id="Address-SNSUser" style="stroke:#A80036;stroke-width:1.2;"/><polygon fill="#000000" points="151.8027,199.5918,162.7582,202.7897,162.5456,195.7395,151.8027,199.5918" style="stroke:#000000;stroke-width:1.2;"/><text fill="#000000" font-family="sans-serif" font-size="15.6" lengthAdjust="spacing" textLength="25.2" x="168.6" y="205.7941">has</text><text fill="#000000" font-family="sans-serif" font-size="15.6" lengthAdjust="spacing" textLength="8.4" x="115.8075" y="231.1527">1</text><text fill="#000000" font-family="sans-serif" font-size="15.6" lengthAdjust="spacing" textLength="8.4" x="218.3128" y="227.349">1</text><!--MD5=[1a8aa2b864b87f860d28abceaa28b7a5]
link Company to SNSUser--><path codeLine="43" d="M107.208,73.356 C143.988,99.048 195.684,135.156 236.196,163.452 " fill="none" id="Company-SNSUser" style="stroke:#A80036;stroke-width:1.2;"/><polygon fill="#000000" points="157.3189,96.0467,150.44,86.9401,146.401,92.7226,157.3189,96.0467" style="stroke:#000000;stroke-width:1.2;"/><text fill="#000000" font-family="sans-serif" font-size="15.6" lengthAdjust="spacing" textLength="36" x="163.2" y="98.9941">owns</text><text fill="#000000" font-family="sans-serif" font-size="15.6" lengthAdjust="spacing" textLength="8.4" x="108.3473" y="98.8394">1</text><text fill="#000000" font-family="sans-serif" font-size="15.6" lengthAdjust="spacing" textLength="6" x="220.7173" y="174.83">*</text><!--MD5=[16f546a69324f7e5c5bfce0193866057]
link Receptionist to Company--><path codeLine="44" d="M527.724,115.284 C423.012,98.592 208.104,64.32 110.64,48.78 " fill="none" id="Receptionist-Company" style="stroke:#A80036;stroke-width:1.2;"/><polygon fill="#000000" points="281.3252,59.9557,271.1618,54.7639,270.0511,61.7293,281.3252,59.9557" style="stroke:#000000;stroke-width:1.2;"/><text fill="#000000" font-family="sans-serif" font-size="15.6" lengthAdjust="spacing" textLength="44.4" x="286.2" y="65.3941">knows</text><text fill="#000000" font-family="sans-serif" font-size="15.6" lengthAdjust="spacing" textLength="6" x="512.3422" y="131.5215">*</text><text fill="#000000" font-family="sans-serif" font-size="15.6" lengthAdjust="spacing" textLength="8.4" x="120.1687" y="68.0489">1</text><!--MD5=[9c3cd67dac7b49ab3c0a1c71a5351391]
link SNSUser to Receptionist--><path codeLine="45" d="M364.824,189.324 C413.448,175.224 480.24,155.868 527.952,142.032 " fill="none" id="SNSUser-Receptionist" style="stroke:#A80036;stroke-width:1.2;"/><polygon fill="#000000" points="412.5627,141.3403,401.1559,140.9753,403.1198,147.7498,412.5627,141.3403" style="stroke:#000000;stroke-width:1.2;"/><text fill="#000000" font-family="sans-serif" font-size="15.6" lengthAdjust="spacing" textLength="73.2" x="417.6" y="149.3941">created by</text><text fill="#000000" font-family="sans-serif" font-size="15.6" lengthAdjust="spacing" textLength="6" x="374.2774" y="204.3403">*</text><text fill="#000000" font-family="sans-serif" font-size="15.6" lengthAdjust="spacing" textLength="8.4" x="510.0275" y="162.1981">1</text><!--MD5=[06bb7d2a85a007b79d10922b2d5e4cdd]
link Receptionist to Employee--><path codeLine="46" d="M649.548,124.8 C664.848,124.8 681.612,124.8 697.98,124.8 " fill="none" id="Receptionist-to-Employee" style="stroke:#A80036;stroke-width:1.2;"/><polygon fill="none" points="698.292,116.4,722.292,124.8,698.292,133.2,698.292,116.4" style="stroke:#A80036;stroke-width:1.2;"/><!--MD5=[bcd624ec08c1055391ec53f515b1199e]
@startuml
hide methods
left to right direction
skinparam classAttributeIconSize 0

class Company {
    -designation
}

class Employee {
    -id
    -name
    -phoneNumber
    -email
    -citizenCardNumber
}

class Receptionist {
}

class SNSUser {
    -name
    -sex
    -phoneNumber
    -email
    -birthDate
    -SNSNumber
    -citizenCardNumber
}

class Address {
    -country
    -city
    -county
    -parish
    -street
    -portNumber
    -postalCode
    -floor
    -observation
}

Address "1" - - "1" SNSUser : has <
Company "1" - - "*" SNSUser : owns >
Receptionist "*" - - "1" Company : knows <
SNSUser "*" - - "1" Receptionist: created by >
Receptionist - -|> Employee

@enduml

PlantUML version 1.2022.1(Tue Feb 01 18:19:58 GMT 2022)
(GPL source distribution)
Java Runtime: OpenJDK Runtime Environment
JVM: OpenJDK 64-Bit Server VM
Default Encoding: Cp1252
Language: pt
Country: PT
--></g></svg>