<?xml version="1.0" encoding="UTF-8" standalone="no"?><svg xmlns="http://www.w3.org/2000/svg" xmlns:xlink="http://www.w3.org/1999/xlink" contentStyleType="text/css" height="545px" preserveAspectRatio="none" style="width:592px;height:545px;background:#FFFFFF;" version="1.1" viewBox="0 0 592 545" width="592px" zoomAndPan="magnify"><defs/><g><rect height="27.6094" style="stroke:#00000000;stroke-width:1.0;fill:none;" width="228" x="183.75" y="10"/><text fill="#000000" font-family="sans-serif" font-size="14" font-weight="bold" lengthAdjust="spacing" text-decoration="underline" textLength="218" x="188.75" y="29.5332">SD_DOSE_MAPPER_TOLISTDTO</text><rect fill="#FFFFFF" height="347.1953" style="stroke:#181818;stroke-width:1.0;" width="10" x="130" y="126.1797"/><rect fill="#FFFFFF" height="35.3516" style="stroke:#181818;stroke-width:1.0;" width="10" x="135" y="310.4531"/><rect fill="#FFFFFF" height="30" style="stroke:#181818;stroke-width:1.0;" width="10" x="260" y="242.1016"/><rect fill="#FFFFFF" height="30" style="stroke:#181818;stroke-width:1.0;" width="10" x="370" y="406.0234"/><rect height="242.625" style="stroke:#000000;stroke-width:1.5;fill:none;" width="509" x="77.5" y="201.3984"/><line style="stroke:#181818;stroke-width:0.5;fill:none;stroke-dasharray:5.0,5.0;" x1="134.5" x2="134.5" y1="93.8281" y2="491.375"/><line style="stroke:#181818;stroke-width:0.5;fill:none;stroke-dasharray:5.0,5.0;" x1="264.5" x2="264.5" y1="93.8281" y2="491.375"/><line style="stroke:#181818;stroke-width:0.5;fill:none;stroke-dasharray:5.0,5.0;" x1="374.5" x2="374.5" y1="174.2891" y2="491.375"/><line style="stroke:#181818;stroke-width:0.5;fill:none;stroke-dasharray:5.0,5.0;" x1="465.5" x2="465.5" y1="93.8281" y2="491.375"/><line style="stroke:#181818;stroke-width:0.5;fill:none;stroke-dasharray:5.0,5.0;" x1="537.5" x2="537.5" y1="363.5625" y2="491.375"/><rect fill="#E2E2F0" height="49.2188" rx="2.5" ry="2.5" style="stroke:#181818;stroke-width:0.5;" width="95" x="87.5" y="43.6094"/><text fill="#000000" font-family="sans-serif" font-size="14" lengthAdjust="spacing" textLength="4" x="133" y="65.1426">:</text><text fill="#000000" font-family="sans-serif" font-size="14" lengthAdjust="spacing" textLength="81" x="94.5" y="82.752">DoseMapper</text><rect fill="#E2E2F0" height="49.2188" rx="2.5" ry="2.5" style="stroke:#181818;stroke-width:0.5;" width="95" x="87.5" y="490.375"/><text fill="#000000" font-family="sans-serif" font-size="14" lengthAdjust="spacing" textLength="4" x="133" y="511.9082">:</text><text fill="#000000" font-family="sans-serif" font-size="14" lengthAdjust="spacing" textLength="81" x="94.5" y="529.5176">DoseMapper</text><rect fill="#E2E2F0" height="49.2188" rx="2.5" ry="2.5" style="stroke:#181818;stroke-width:0.5;" width="85" x="222.5" y="43.6094"/><text fill="#000000" font-family="sans-serif" font-size="14" lengthAdjust="spacing" textLength="31" x="249.5" y="65.1426">listD:</text><text fill="#000000" font-family="sans-serif" font-size="14" lengthAdjust="spacing" textLength="71" x="229.5" y="82.752">List&lt;Dose&gt;</text><rect fill="#E2E2F0" height="49.2188" rx="2.5" ry="2.5" style="stroke:#181818;stroke-width:0.5;" width="85" x="222.5" y="490.375"/><text fill="#000000" font-family="sans-serif" font-size="14" lengthAdjust="spacing" textLength="31" x="249.5" y="511.9082">listD:</text><text fill="#000000" font-family="sans-serif" font-size="14" lengthAdjust="spacing" textLength="71" x="229.5" y="529.5176">List&lt;Dose&gt;</text><rect fill="#E2E2F0" height="49.2188" rx="2.5" ry="2.5" style="stroke:#181818;stroke-width:0.5;" width="115" x="317.5" y="490.375"/><text fill="#000000" font-family="sans-serif" font-size="14" lengthAdjust="spacing" textLength="53" x="348.5" y="511.9082">listDDto:</text><text fill="#000000" font-family="sans-serif" font-size="14" lengthAdjust="spacing" textLength="101" x="324.5" y="529.5176">List&lt;DoseDTO&gt;</text><rect fill="#E2E2F0" height="49.2188" rx="2.5" ry="2.5" style="stroke:#181818;stroke-width:0.5;" width="47" x="442.5" y="43.6094"/><text fill="#000000" font-family="sans-serif" font-size="14" lengthAdjust="spacing" textLength="12" x="460" y="65.1426">d:</text><text fill="#000000" font-family="sans-serif" font-size="14" lengthAdjust="spacing" textLength="33" x="449.5" y="82.752">Dose</text><rect fill="#E2E2F0" height="49.2188" rx="2.5" ry="2.5" style="stroke:#181818;stroke-width:0.5;" width="47" x="442.5" y="490.375"/><text fill="#000000" font-family="sans-serif" font-size="14" lengthAdjust="spacing" textLength="12" x="460" y="511.9082">d:</text><text fill="#000000" font-family="sans-serif" font-size="14" lengthAdjust="spacing" textLength="33" x="449.5" y="529.5176">Dose</text><rect fill="#E2E2F0" height="49.2188" rx="2.5" ry="2.5" style="stroke:#181818;stroke-width:0.5;" width="77" x="499.5" y="490.375"/><text fill="#000000" font-family="sans-serif" font-size="14" lengthAdjust="spacing" textLength="34" x="521" y="511.9082">dDto:</text><text fill="#000000" font-family="sans-serif" font-size="14" lengthAdjust="spacing" textLength="63" x="506.5" y="529.5176">DoseDTO</text><rect fill="#FFFFFF" height="347.1953" style="stroke:#181818;stroke-width:1.0;" width="10" x="130" y="126.1797"/><rect fill="#FFFFFF" height="35.3516" style="stroke:#181818;stroke-width:1.0;" width="10" x="135" y="310.4531"/><rect fill="#FFFFFF" height="30" style="stroke:#181818;stroke-width:1.0;" width="10" x="260" y="242.1016"/><rect fill="#FFFFFF" height="30" style="stroke:#181818;stroke-width:1.0;" width="10" x="370" y="406.0234"/><ellipse cx="7.5" cy="125.4297" fill="none" rx="4" ry="4" style="stroke:#181818;stroke-width:1.5;"/><polygon fill="#181818" points="118,122.1797,128,126.1797,118,130.1797,122,126.1797" style="stroke:#181818;stroke-width:1.0;"/><line style="stroke:#181818;stroke-width:1.0;" x1="12" x2="124" y1="126.1797" y2="126.1797"/><text fill="#000000" font-family="sans-serif" font-size="13" font-weight="bold" lengthAdjust="spacing" textLength="7" x="15" y="121.3232">1</text><text fill="#000000" font-family="sans-serif" font-size="13" lengthAdjust="spacing" textLength="92" x="26" y="121.3232">toListDTO(listD)</text><polygon fill="#181818" points="305.5,152.5313,315.5,156.5313,305.5,160.5313,309.5,156.5313" style="stroke:#181818;stroke-width:1.0;"/><line style="stroke:#181818;stroke-width:1.0;stroke-dasharray:2.0,2.0;" x1="140" x2="311.5" y1="156.5313" y2="156.5313"/><text fill="#000000" font-family="sans-serif" font-size="13" font-weight="bold" lengthAdjust="spacing" textLength="7" x="147" y="151.6748">2</text><text fill="#000000" font-family="sans-serif" font-size="13" lengthAdjust="spacing" textLength="44" x="158" y="151.6748">create()</text><rect fill="#E2E2F0" height="49.2188" rx="2.5" ry="2.5" style="stroke:#181818;stroke-width:0.5;" width="115" x="317.5" y="134.1797"/><text fill="#000000" font-family="sans-serif" font-size="14" lengthAdjust="spacing" textLength="53" x="348.5" y="155.7129">listDDto:</text><text fill="#000000" font-family="sans-serif" font-size="14" lengthAdjust="spacing" textLength="101" x="324.5" y="173.3223">List&lt;DoseDTO&gt;</text><path d="M77.5,201.3984 L150.5,201.3984 L150.5,209.75 L140.5,219.75 L77.5,219.75 L77.5,201.3984 " fill="#EEEEEE" style="stroke:#000000;stroke-width:1.5;"/><rect fill="none" height="242.625" style="stroke:#000000;stroke-width:1.5;" width="509" x="77.5" y="201.3984"/><text fill="#000000" font-family="sans-serif" font-size="13" font-weight="bold" lengthAdjust="spacing" textLength="28" x="92.5" y="215.8936">loop</text><text fill="#000000" font-family="sans-serif" font-size="11" font-weight="bold" lengthAdjust="spacing" textLength="127" x="165.5" y="214.8174">[foreach object in listD]</text><polygon fill="#181818" points="248,238.1016,258,242.1016,248,246.1016,252,242.1016" style="stroke:#181818;stroke-width:1.0;"/><line style="stroke:#181818;stroke-width:1.0;" x1="140" x2="254" y1="242.1016" y2="242.1016"/><text fill="#000000" font-family="sans-serif" font-size="13" font-weight="bold" lengthAdjust="spacing" textLength="7" x="147" y="237.2451">3</text><text fill="#000000" font-family="sans-serif" font-size="13" lengthAdjust="spacing" textLength="52" x="158" y="237.2451">d = get(i)</text><line style="stroke:#181818;stroke-width:1.0;" x1="140" x2="187" y1="297.4531" y2="297.4531"/><line style="stroke:#181818;stroke-width:1.0;" x1="187" x2="187" y1="297.4531" y2="310.4531"/><line style="stroke:#181818;stroke-width:1.0;" x1="146" x2="187" y1="310.4531" y2="310.4531"/><polygon fill="#181818" points="156,306.4531,146,310.4531,156,314.4531,152,310.4531" style="stroke:#181818;stroke-width:1.0;"/><text fill="#000000" font-family="sans-serif" font-size="13" font-weight="bold" lengthAdjust="spacing" textLength="7" x="152" y="292.5967">4</text><text fill="#000000" font-family="sans-serif" font-size="13" lengthAdjust="spacing" textLength="95" x="163" y="292.5967">dDto = toDTO(d)</text><polygon fill="#181818" points="487.5,341.8047,497.5,345.8047,487.5,349.8047,491.5,345.8047" style="stroke:#181818;stroke-width:1.0;"/><line style="stroke:#181818;stroke-width:1.0;stroke-dasharray:2.0,2.0;" x1="140" x2="493.5" y1="345.8047" y2="345.8047"/><text fill="#000000" font-family="sans-serif" font-size="13" font-weight="bold" lengthAdjust="spacing" textLength="7" x="147" y="340.9482">5</text><text fill="#000000" font-family="sans-serif" font-size="13" lengthAdjust="spacing" textLength="44" x="158" y="340.9482">create()</text><rect fill="#E2E2F0" height="49.2188" rx="2.5" ry="2.5" style="stroke:#181818;stroke-width:0.5;" width="77" x="499.5" y="323.4531"/><text fill="#000000" font-family="sans-serif" font-size="14" lengthAdjust="spacing" textLength="34" x="521" y="344.9863">dDto:</text><text fill="#000000" font-family="sans-serif" font-size="14" lengthAdjust="spacing" textLength="63" x="506.5" y="362.5957">DoseDTO</text><polygon fill="#181818" points="358,402.0234,368,406.0234,358,410.0234,362,406.0234" style="stroke:#181818;stroke-width:1.0;"/><line style="stroke:#181818;stroke-width:1.0;" x1="140" x2="364" y1="406.0234" y2="406.0234"/><text fill="#000000" font-family="sans-serif" font-size="13" font-weight="bold" lengthAdjust="spacing" textLength="7" x="147" y="401.167">6</text><text fill="#000000" font-family="sans-serif" font-size="13" lengthAdjust="spacing" textLength="56" x="158" y="401.167">add(dDto)</text><polygon fill="#181818" points="11,469.375,1,473.375,11,477.375,7,473.375" style="stroke:#181818;stroke-width:1.0;"/><line style="stroke:#181818;stroke-width:1.0;stroke-dasharray:2.0,2.0;" x1="5" x2="134" y1="473.375" y2="473.375"/><text fill="#000000" font-family="sans-serif" font-size="13" font-weight="bold" lengthAdjust="spacing" textLength="7" x="17" y="468.5186">7</text><text fill="#000000" font-family="sans-serif" font-size="13" lengthAdjust="spacing" textLength="46" x="28" y="468.5186">listDDto</text><!--MD5=[f400e9d9e2109f175f547d6ffae48f2d]
@startuml
autonumber

title
<u>SD_DOSE_MAPPER_TOLISTDTO</u>
end title

participant ":\nDoseMapper" as DM
participant "listD:\nList<Dose>" as LD
participant "listDDto:\nList<DoseDTO>" as LDD
participant "d:\nDose" as D
participant "dDto:\nDoseDTO" as DD

[o-> DM : toListDTO(listD)
activate DM
DM - -> LDD** : create()

loop foreach object in listD

DM -> LD : d = get(i)
activate LD
deactivate LD

DM -> DM : dDto = toDTO(d)
activate DM
DM - -> DD** : create()

deactivate DM

DM -> LDD : add(dDto)
activate LDD
deactivate LDD

end loop

<- - DM : listDDto
deactivate DM
@enduml

PlantUML version 1.2022.4(Sat Apr 09 14:29:17 BST 2022)
(GPL source distribution)
Java Runtime: OpenJDK Runtime Environment
JVM: OpenJDK 64-Bit Server VM
Default Encoding: Cp1252
Language: pt
Country: PT
--></g></svg>