<?xml version="1.0" encoding="UTF-8" standalone="no"?><svg xmlns="http://www.w3.org/2000/svg" xmlns:xlink="http://www.w3.org/1999/xlink" contentStyleType="text/css" height="1076px" preserveAspectRatio="none" style="width:1668px;height:1076px;background:#FFFFFF;" version="1.1" viewBox="0 0 1668 1076" width="1668.8px" zoomAndPan="magnify"><defs/><g><rect height="22.0875" style="stroke:#00000000;stroke-width:0.8000000000000002;fill:none;" width="93.6" x="789" y="8"/><text fill="#000000" font-family="sans-serif" font-size="11.2" font-weight="bold" lengthAdjust="spacing" text-decoration="underline" textLength="85.6" x="793" y="23.6266">SD_SELECT_VC</text><rect fill="#FFFFFF" height="175.0063" style="stroke:#181818;stroke-width:0.8000000000000002;" width="8" x="81.2" y="821.2"/><rect fill="#FFFFFF" height="898.4313" style="stroke:#181818;stroke-width:0.8000000000000002;" width="8" x="131.6" y="104.975"/><rect fill="#FFFFFF" height="650.1688" style="stroke:#181818;stroke-width:0.8000000000000002;" width="8" x="349.2" y="171.0313"/><rect fill="#FFFFFF" height="102.4438" style="stroke:#181818;stroke-width:0.8000000000000002;" width="8" x="349.2" y="845.4813"/><rect fill="#FFFFFF" height="24" style="stroke:#181818;stroke-width:0.8000000000000002;" width="8" x="349.2" y="972.2063"/><rect fill="#FFFFFF" height="581.325" style="stroke:#181818;stroke-width:0.8000000000000002;" width="8" x="560.4" y="195.3125"/><rect fill="#FFFFFF" height="48.2813" style="stroke:#181818;stroke-width:0.8000000000000002;" width="8" x="560.4" y="869.7625"/><rect fill="#FFFFFF" height="24" style="stroke:#181818;stroke-width:0.8000000000000002;" width="8" x="770" y="219.5938"/><rect fill="#FFFFFF" height="24" style="stroke:#181818;stroke-width:0.8000000000000002;" width="8" x="874.8" y="267.875"/><rect fill="#FFFFFF" height="24" style="stroke:#181818;stroke-width:0.8000000000000002;" width="8" x="874.8" y="894.0438"/><rect fill="#FFFFFF" height="436.2" style="stroke:#181818;stroke-width:0.8000000000000002;" width="8" x="1022.8" y="316.1563"/><rect fill="#FFFFFF" height="24" style="stroke:#181818;stroke-width:0.8000000000000002;" width="8" x="1172.4" y="408.8938"/><rect fill="#FFFFFF" height="24" style="stroke:#181818;stroke-width:0.8000000000000002;" width="8" x="1326.8" y="698.475"/><rect fill="#FFFFFF" height="24" style="stroke:#181818;stroke-width:0.8000000000000002;" width="8" x="1466" y="457.175"/><rect fill="#FFFFFF" height="24" style="stroke:#181818;stroke-width:0.8000000000000002;" width="8" x="1466" y="505.4563"/><rect fill="#FFFFFF" height="24" style="stroke:#181818;stroke-width:0.8000000000000002;" width="8" x="1466" y="553.7375"/><rect fill="#FFFFFF" height="24" style="stroke:#181818;stroke-width:0.8000000000000002;" width="8" x="1466" y="602.0188"/><rect height="352.5438" style="stroke:#000000;stroke-width:1.2000000000000002;fill:none;" width="718.4" x="946" y="376.3313"/><rect height="135.8063" style="stroke:#000000;stroke-width:1.2000000000000002;fill:none;" width="894" x="60" y="788.6375"/><line style="stroke:#181818;stroke-width:0.4000000000000001;fill:none;stroke-dasharray:5.0,5.0;" x1="84.8" x2="84.8" y1="96.975" y2="1010.6063"/><line style="stroke:#181818;stroke-width:0.4000000000000001;fill:none;stroke-dasharray:5.0,5.0;" x1="135.2" x2="135.2" y1="96.975" y2="1010.6063"/><line style="stroke:#181818;stroke-width:0.4000000000000001;fill:none;stroke-dasharray:5.0,5.0;" x1="352.8" x2="352.8" y1="137.0625" y2="1010.6063"/><line style="stroke:#181818;stroke-width:0.4000000000000001;fill:none;stroke-dasharray:5.0,5.0;" x1="564" x2="564" y1="96.975" y2="1010.6063"/><line style="stroke:#181818;stroke-width:0.4000000000000001;fill:none;stroke-dasharray:5.0,5.0;" x1="774" x2="774" y1="96.975" y2="1010.6063"/><line style="stroke:#181818;stroke-width:0.4000000000000001;fill:none;stroke-dasharray:5.0,5.0;" x1="878.8" x2="878.8" y1="96.975" y2="1010.6063"/><line style="stroke:#181818;stroke-width:0.4000000000000001;fill:none;stroke-dasharray:5.0,5.0;" x1="1026.8" x2="1026.8" y1="96.975" y2="1010.6063"/><line style="stroke:#181818;stroke-width:0.4000000000000001;fill:none;stroke-dasharray:5.0,5.0;" x1="1176.4" x2="1176.4" y1="96.975" y2="1010.6063"/><line style="stroke:#181818;stroke-width:0.4000000000000001;fill:none;stroke-dasharray:5.0,5.0;" x1="1330.8" x2="1330.8" y1="354.6438" y2="1010.6063"/><line style="stroke:#181818;stroke-width:0.4000000000000001;fill:none;stroke-dasharray:5.0,5.0;" x1="1470" x2="1470" y1="96.975" y2="1010.6063"/><line style="stroke:#181818;stroke-width:0.4000000000000001;fill:none;stroke-dasharray:5.0,5.0;" x1="1594" x2="1594" y1="664.5063" y2="1010.6063"/><text fill="#000000" font-family="sans-serif" font-size="11.2" lengthAdjust="spacing" textLength="29.6" x="68" y="94.5141">Nurse</text><ellipse cx="85.2" cy="41.6875" fill="#E2E2F0" rx="6.4" ry="6.4" style="stroke:#181818;stroke-width:0.4000000000000001;"/><path d="M85.2,48.0875 L85.2,69.6875 M74.8,54.4875 L95.6,54.4875 M85.2,69.6875 L74.8,81.6875 M85.2,69.6875 L95.6,81.6875 " fill="none" style="stroke:#181818;stroke-width:0.4000000000000001;"/><text fill="#000000" font-family="sans-serif" font-size="11.2" lengthAdjust="spacing" textLength="29.6" x="68" y="1021.4328">Nurse</text><ellipse cx="85.2" cy="1030.6938" fill="#E2E2F0" rx="6.4" ry="6.4" style="stroke:#181818;stroke-width:0.4000000000000001;"/><path d="M85.2,1037.0938 L85.2,1058.6938 M74.8,1043.4938 L95.6,1043.4938 M85.2,1058.6938 L74.8,1070.6938 M85.2,1058.6938 L95.6,1070.6938 " fill="none" style="stroke:#181818;stroke-width:0.4000000000000001;"/><rect fill="#E2E2F0" height="39.375" rx="2" ry="2" style="stroke:#181818;stroke-width:0.4000000000000001;" width="50.4" x="110.4" y="56.8"/><text fill="#000000" font-family="sans-serif" font-size="11.2" lengthAdjust="spacing" textLength="3.2" x="134" y="74.0266">:</text><text fill="#000000" font-family="sans-serif" font-size="11.2" lengthAdjust="spacing" textLength="39.2" x="116" y="88.1141">NurseUI</text><rect fill="#E2E2F0" height="39.375" rx="2" ry="2" style="stroke:#181818;stroke-width:0.4000000000000001;" width="50.4" x="110.4" y="1009.8063"/><text fill="#000000" font-family="sans-serif" font-size="11.2" lengthAdjust="spacing" textLength="3.2" x="134" y="1027.0328">:</text><text fill="#000000" font-family="sans-serif" font-size="11.2" lengthAdjust="spacing" textLength="39.2" x="116" y="1041.1203">NurseUI</text><rect fill="#E2E2F0" height="39.375" rx="2" ry="2" style="stroke:#181818;stroke-width:0.4000000000000001;" width="144.8" x="280.8" y="1009.8063"/><text fill="#000000" font-family="sans-serif" font-size="11.2" lengthAdjust="spacing" textLength="3.2" x="351.6" y="1027.0328">:</text><text fill="#000000" font-family="sans-serif" font-size="11.2" lengthAdjust="spacing" textLength="133.6" x="286.4" y="1041.1203">SelectVaccinationCenterUI</text><rect fill="#E2E2F0" height="39.375" rx="2" ry="2" style="stroke:#181818;stroke-width:0.4000000000000001;" width="184.8" x="472" y="56.8"/><text fill="#000000" font-family="sans-serif" font-size="11.2" lengthAdjust="spacing" textLength="3.2" x="562.8" y="74.0266">:</text><text fill="#000000" font-family="sans-serif" font-size="11.2" lengthAdjust="spacing" textLength="173.6" x="477.6" y="88.1141">SelectVaccinationCenterController</text><rect fill="#E2E2F0" height="39.375" rx="2" ry="2" style="stroke:#181818;stroke-width:0.4000000000000001;" width="184.8" x="472" y="1009.8063"/><text fill="#000000" font-family="sans-serif" font-size="11.2" lengthAdjust="spacing" textLength="3.2" x="562.8" y="1027.0328">:</text><text fill="#000000" font-family="sans-serif" font-size="11.2" lengthAdjust="spacing" textLength="173.6" x="477.6" y="1041.1203">SelectVaccinationCenterController</text><rect fill="#E2E2F0" height="39.375" rx="2" ry="2" style="stroke:#181818;stroke-width:0.4000000000000001;" width="59.2" x="744.4" y="56.8"/><text fill="#000000" font-family="sans-serif" font-size="11.2" lengthAdjust="spacing" textLength="3.2" x="772.4" y="74.0266">:</text><text fill="#000000" font-family="sans-serif" font-size="11.2" lengthAdjust="spacing" textLength="48" x="750" y="88.1141">Company</text><rect fill="#E2E2F0" height="39.375" rx="2" ry="2" style="stroke:#181818;stroke-width:0.4000000000000001;" width="59.2" x="744.4" y="1009.8063"/><text fill="#000000" font-family="sans-serif" font-size="11.2" lengthAdjust="spacing" textLength="3.2" x="772.4" y="1027.0328">:</text><text fill="#000000" font-family="sans-serif" font-size="11.2" lengthAdjust="spacing" textLength="48" x="750" y="1041.1203">Company</text><rect fill="#E2E2F0" height="39.375" rx="2" ry="2" style="stroke:#181818;stroke-width:0.4000000000000001;" width="134.4" x="811.6" y="56.8"/><text fill="#000000" font-family="sans-serif" font-size="11.2" lengthAdjust="spacing" textLength="41.6" x="858" y="74.0266">vcStore:</text><text fill="#000000" font-family="sans-serif" font-size="11.2" lengthAdjust="spacing" textLength="120" x="820.4" y="88.1141">VaccinationCenterStore</text><rect fill="#E2E2F0" height="39.375" rx="2" ry="2" style="stroke:#181818;stroke-width:0.4000000000000001;" width="134.4" x="811.6" y="1009.8063"/><text fill="#000000" font-family="sans-serif" font-size="11.2" lengthAdjust="spacing" textLength="41.6" x="858" y="1027.0328">vcStore:</text><text fill="#000000" font-family="sans-serif" font-size="11.2" lengthAdjust="spacing" textLength="120" x="820.4" y="1041.1203">VaccinationCenterStore</text><rect fill="#E2E2F0" height="39.375" rx="2" ry="2" style="stroke:#181818;stroke-width:0.4000000000000001;" width="145.6" x="954" y="56.8"/><text fill="#000000" font-family="sans-serif" font-size="11.2" lengthAdjust="spacing" textLength="52.8" x="1000.4" y="74.0266">vcMapper:</text><text fill="#000000" font-family="sans-serif" font-size="11.2" lengthAdjust="spacing" textLength="131.2" x="962.8" y="88.1141">VaccinationCenterMapper</text><rect fill="#E2E2F0" height="39.375" rx="2" ry="2" style="stroke:#181818;stroke-width:0.4000000000000001;" width="145.6" x="954" y="1009.8063"/><text fill="#000000" font-family="sans-serif" font-size="11.2" lengthAdjust="spacing" textLength="52.8" x="1000.4" y="1027.0328">vcMapper:</text><text fill="#000000" font-family="sans-serif" font-size="11.2" lengthAdjust="spacing" textLength="131.2" x="962.8" y="1041.1203">VaccinationCenterMapper</text><rect fill="#E2E2F0" height="39.375" rx="2" ry="2" style="stroke:#181818;stroke-width:0.4000000000000001;" width="137.6" x="1107.6" y="56.8"/><text fill="#000000" font-family="sans-serif" font-size="11.2" lengthAdjust="spacing" textLength="32" x="1160.4" y="74.0266">listVC:</text><text fill="#000000" font-family="sans-serif" font-size="11.2" lengthAdjust="spacing" textLength="123.2" x="1116.4" y="88.1141">List&lt;VaccinationCenter&gt;</text><rect fill="#E2E2F0" height="39.375" rx="2" ry="2" style="stroke:#181818;stroke-width:0.4000000000000001;" width="137.6" x="1107.6" y="1009.8063"/><text fill="#000000" font-family="sans-serif" font-size="11.2" lengthAdjust="spacing" textLength="32" x="1160.4" y="1027.0328">listVC:</text><text fill="#000000" font-family="sans-serif" font-size="11.2" lengthAdjust="spacing" textLength="123.2" x="1116.4" y="1041.1203">List&lt;VaccinationCenter&gt;</text><rect fill="#E2E2F0" height="39.375" rx="2" ry="2" style="stroke:#181818;stroke-width:0.4000000000000001;" width="155.2" x="1253.2" y="1009.8063"/><text fill="#000000" font-family="sans-serif" font-size="11.2" lengthAdjust="spacing" textLength="49.6" x="1306" y="1027.0328">listVCDto:</text><text fill="#000000" font-family="sans-serif" font-size="11.2" lengthAdjust="spacing" textLength="140.8" x="1262" y="1041.1203">List&lt;VaccinationCenterDto&gt;</text><rect fill="#E2E2F0" height="39.375" rx="2" ry="2" style="stroke:#181818;stroke-width:0.4000000000000001;" width="107.2" x="1416.4" y="56.8"/><text fill="#000000" font-family="sans-serif" font-size="11.2" lengthAdjust="spacing" textLength="14.4" x="1462.8" y="74.0266">vc:</text><text fill="#000000" font-family="sans-serif" font-size="11.2" lengthAdjust="spacing" textLength="92.8" x="1425.2" y="88.1141">VaccinationCenter</text><rect fill="#E2E2F0" height="39.375" rx="2" ry="2" style="stroke:#181818;stroke-width:0.4000000000000001;" width="107.2" x="1416.4" y="1009.8063"/><text fill="#000000" font-family="sans-serif" font-size="11.2" lengthAdjust="spacing" textLength="14.4" x="1462.8" y="1027.0328">vc:</text><text fill="#000000" font-family="sans-serif" font-size="11.2" lengthAdjust="spacing" textLength="92.8" x="1425.2" y="1041.1203">VaccinationCenter</text><rect fill="#E2E2F0" height="39.375" rx="2" ry="2" style="stroke:#181818;stroke-width:0.4000000000000001;" width="124.8" x="1531.6" y="1009.8063"/><text fill="#000000" font-family="sans-serif" font-size="11.2" lengthAdjust="spacing" textLength="32" x="1578" y="1027.0328">vcDto:</text><text fill="#000000" font-family="sans-serif" font-size="11.2" lengthAdjust="spacing" textLength="110.4" x="1540.4" y="1041.1203">VaccinationCenterDto</text><rect fill="#FFFFFF" height="175.0063" style="stroke:#181818;stroke-width:0.8000000000000002;" width="8" x="81.2" y="821.2"/><rect fill="#FFFFFF" height="898.4313" style="stroke:#181818;stroke-width:0.8000000000000002;" width="8" x="131.6" y="104.975"/><rect fill="#FFFFFF" height="650.1688" style="stroke:#181818;stroke-width:0.8000000000000002;" width="8" x="349.2" y="171.0313"/><rect fill="#FFFFFF" height="102.4438" style="stroke:#181818;stroke-width:0.8000000000000002;" width="8" x="349.2" y="845.4813"/><rect fill="#FFFFFF" height="24" style="stroke:#181818;stroke-width:0.8000000000000002;" width="8" x="349.2" y="972.2063"/><rect fill="#FFFFFF" height="581.325" style="stroke:#181818;stroke-width:0.8000000000000002;" width="8" x="560.4" y="195.3125"/><rect fill="#FFFFFF" height="48.2813" style="stroke:#181818;stroke-width:0.8000000000000002;" width="8" x="560.4" y="869.7625"/><rect fill="#FFFFFF" height="24" style="stroke:#181818;stroke-width:0.8000000000000002;" width="8" x="770" y="219.5938"/><rect fill="#FFFFFF" height="24" style="stroke:#181818;stroke-width:0.8000000000000002;" width="8" x="874.8" y="267.875"/><rect fill="#FFFFFF" height="24" style="stroke:#181818;stroke-width:0.8000000000000002;" width="8" x="874.8" y="894.0438"/><rect fill="#FFFFFF" height="436.2" style="stroke:#181818;stroke-width:0.8000000000000002;" width="8" x="1022.8" y="316.1563"/><rect fill="#FFFFFF" height="24" style="stroke:#181818;stroke-width:0.8000000000000002;" width="8" x="1172.4" y="408.8938"/><rect fill="#FFFFFF" height="24" style="stroke:#181818;stroke-width:0.8000000000000002;" width="8" x="1326.8" y="698.475"/><rect fill="#FFFFFF" height="24" style="stroke:#181818;stroke-width:0.8000000000000002;" width="8" x="1466" y="457.175"/><rect fill="#FFFFFF" height="24" style="stroke:#181818;stroke-width:0.8000000000000002;" width="8" x="1466" y="505.4563"/><rect fill="#FFFFFF" height="24" style="stroke:#181818;stroke-width:0.8000000000000002;" width="8" x="1466" y="553.7375"/><rect fill="#FFFFFF" height="24" style="stroke:#181818;stroke-width:0.8000000000000002;" width="8" x="1466" y="602.0188"/><polygon fill="#181818" points="271.2,119.6563,279.2,122.8563,271.2,126.0563,274.4,122.8563" style="stroke:#181818;stroke-width:0.8000000000000002;"/><line style="stroke:#181818;stroke-width:0.8000000000000002;" x1="139.6" x2="276" y1="122.8563" y2="122.8563"/><text fill="#000000" font-family="sans-serif" font-size="10.4" font-weight="bold" lengthAdjust="spacing" textLength="5.6" x="145.2" y="118.9711">1</text><text fill="#000000" font-family="sans-serif" font-size="10.4" lengthAdjust="spacing" textLength="35.2" x="154" y="118.9711">create()</text><rect fill="#E2E2F0" height="39.375" rx="2" ry="2" style="stroke:#181818;stroke-width:0.4000000000000001;" width="144.8" x="280.8" y="104.975"/><text fill="#000000" font-family="sans-serif" font-size="11.2" lengthAdjust="spacing" textLength="3.2" x="351.6" y="122.2016">:</text><text fill="#000000" font-family="sans-serif" font-size="11.2" lengthAdjust="spacing" textLength="133.6" x="286.4" y="136.2891">SelectVaccinationCenterUI</text><path d="M4,118.5219 L4,139.3219 L128,139.3219 L128,126.5219 L120,118.5219 L4,118.5219 " fill="#FEFFDD" style="stroke:#181818;stroke-width:0.4000000000000001;"/><path d="M120,118.5219 L120,126.5219 L128,126.5219 L120,118.5219 " fill="#FEFFDD" style="stroke:#181818;stroke-width:0.4000000000000001;"/><text fill="#000000" font-family="sans-serif" font-size="10.4" lengthAdjust="spacing" textLength="107.2" x="8.8" y="133.318">after a successed login</text><polygon fill="#181818" points="339.6,167.8313,347.6,171.0313,339.6,174.2313,342.8,171.0313" style="stroke:#181818;stroke-width:0.8000000000000002;"/><line style="stroke:#181818;stroke-width:0.8000000000000002;" x1="139.6" x2="344.4" y1="171.0313" y2="171.0313"/><text fill="#000000" font-family="sans-serif" font-size="10.4" font-weight="bold" lengthAdjust="spacing" textLength="5.6" x="145.2" y="167.1461">2</text><text fill="#000000" font-family="sans-serif" font-size="10.4" lengthAdjust="spacing" textLength="20.8" x="154" y="167.1461">run()</text><polygon fill="#181818" points="550.8,192.1125,558.8,195.3125,550.8,198.5125,554,195.3125" style="stroke:#181818;stroke-width:0.8000000000000002;"/><line style="stroke:#181818;stroke-width:0.8000000000000002;stroke-dasharray:2.0,2.0;" x1="357.2" x2="555.6" y1="195.3125" y2="195.3125"/><text fill="#000000" font-family="sans-serif" font-size="10.4" font-weight="bold" lengthAdjust="spacing" textLength="5.6" x="362.8" y="191.4273">3</text><text fill="#000000" font-family="sans-serif" font-size="10.4" lengthAdjust="spacing" textLength="179.2" x="371.6" y="191.4273">listVCDto = getVaccinationCenterList()</text><polygon fill="#181818" points="760.4,216.3938,768.4,219.5938,760.4,222.7938,763.6,219.5938" style="stroke:#181818;stroke-width:0.8000000000000002;"/><line style="stroke:#181818;stroke-width:0.8000000000000002;" x1="568.4" x2="765.2" y1="219.5938" y2="219.5938"/><text fill="#000000" font-family="sans-serif" font-size="10.4" font-weight="bold" lengthAdjust="spacing" textLength="5.6" x="574" y="215.7086">4</text><text fill="#000000" font-family="sans-serif" font-size="10.4" lengthAdjust="spacing" textLength="177.6" x="582.8" y="215.7086">vcStore = getVaccinationCenterStore()</text><polygon fill="#181818" points="865.2,264.675,873.2,267.875,865.2,271.075,868.4,267.875" style="stroke:#181818;stroke-width:0.8000000000000002;"/><line style="stroke:#181818;stroke-width:0.8000000000000002;" x1="568.4" x2="870" y1="267.875" y2="267.875"/><text fill="#000000" font-family="sans-serif" font-size="10.4" font-weight="bold" lengthAdjust="spacing" textLength="5.6" x="574" y="263.9898">5</text><text fill="#000000" font-family="sans-serif" font-size="10.4" lengthAdjust="spacing" textLength="163.2" x="582.8" y="263.9898">listVC = getVaccinationCenterList()</text><polygon fill="#181818" points="1013.2,312.9563,1021.2,316.1563,1013.2,319.3563,1016.4,316.1563" style="stroke:#181818;stroke-width:0.8000000000000002;"/><line style="stroke:#181818;stroke-width:0.8000000000000002;" x1="568.4" x2="1018" y1="316.1563" y2="316.1563"/><text fill="#000000" font-family="sans-serif" font-size="10.4" font-weight="bold" lengthAdjust="spacing" textLength="5.6" x="574" y="312.2711">6</text><text fill="#000000" font-family="sans-serif" font-size="10.4" lengthAdjust="spacing" textLength="133.6" x="582.8" y="312.2711">listVCDto = listVcDto(listVC)</text><polygon fill="#181818" points="1243.6,337.2375,1251.6,340.4375,1243.6,343.6375,1246.8,340.4375" style="stroke:#181818;stroke-width:0.8000000000000002;"/><line style="stroke:#181818;stroke-width:0.8000000000000002;stroke-dasharray:2.0,2.0;" x1="1030.8" x2="1248.4" y1="340.4375" y2="340.4375"/><text fill="#000000" font-family="sans-serif" font-size="10.4" font-weight="bold" lengthAdjust="spacing" textLength="5.6" x="1036.4" y="336.5523">7</text><text fill="#000000" font-family="sans-serif" font-size="10.4" lengthAdjust="spacing" textLength="35.2" x="1045.2" y="336.5523">create()</text><rect fill="#E2E2F0" height="39.375" rx="2" ry="2" style="stroke:#181818;stroke-width:0.4000000000000001;" width="155.2" x="1253.2" y="322.5563"/><text fill="#000000" font-family="sans-serif" font-size="11.2" lengthAdjust="spacing" textLength="49.6" x="1306" y="339.7828">listVCDto:</text><text fill="#000000" font-family="sans-serif" font-size="11.2" lengthAdjust="spacing" textLength="140.8" x="1262" y="353.8703">List&lt;VaccinationCenterDto&gt;</text><path d="M946,376.3313 L1004.4,376.3313 L1004.4,383.0125 L996.4,391.0125 L946,391.0125 L946,376.3313 " fill="#EEEEEE" style="stroke:#000000;stroke-width:1.2000000000000002;"/><rect fill="none" height="352.5438" style="stroke:#000000;stroke-width:1.2000000000000002;" width="718.4" x="946" y="376.3313"/><text fill="#000000" font-family="sans-serif" font-size="10.4" font-weight="bold" lengthAdjust="spacing" textLength="22.4" x="958" y="387.9273">loop</text><text fill="#000000" font-family="sans-serif" font-size="8.8" font-weight="bold" lengthAdjust="spacing" textLength="108.8" x="1016.4" y="387.0664">[foreach object in listCV]</text><polygon fill="#181818" points="1162.8,405.6938,1170.8,408.8938,1162.8,412.0938,1166,408.8938" style="stroke:#181818;stroke-width:0.8000000000000002;"/><line style="stroke:#181818;stroke-width:0.8000000000000002;" x1="1030.8" x2="1167.6" y1="408.8938" y2="408.8938"/><text fill="#000000" font-family="sans-serif" font-size="10.4" font-weight="bold" lengthAdjust="spacing" textLength="5.6" x="1036.4" y="405.0086">8</text><text fill="#000000" font-family="sans-serif" font-size="10.4" lengthAdjust="spacing" textLength="45.6" x="1045.2" y="405.0086">sv = get(i)</text><polygon fill="#181818" points="1456.4,453.975,1464.4,457.175,1456.4,460.375,1459.6,457.175" style="stroke:#181818;stroke-width:0.8000000000000002;"/><line style="stroke:#181818;stroke-width:0.8000000000000002;" x1="1030.8" x2="1461.2" y1="457.175" y2="457.175"/><text fill="#000000" font-family="sans-serif" font-size="10.4" font-weight="bold" lengthAdjust="spacing" textLength="5.6" x="1036.4" y="453.2898">9</text><text fill="#000000" font-family="sans-serif" font-size="10.4" lengthAdjust="spacing" textLength="49.6" x="1045.2" y="453.2898">id = getId()</text><polygon fill="#181818" points="1456.4,502.2563,1464.4,505.4563,1456.4,508.6563,1459.6,505.4563" style="stroke:#181818;stroke-width:0.8000000000000002;"/><line style="stroke:#181818;stroke-width:0.8000000000000002;" x1="1030.8" x2="1461.2" y1="505.4563" y2="505.4563"/><text fill="#000000" font-family="sans-serif" font-size="10.4" font-weight="bold" lengthAdjust="spacing" textLength="11.2" x="1036.4" y="501.5711">10</text><text fill="#000000" font-family="sans-serif" font-size="10.4" lengthAdjust="spacing" textLength="86.4" x="1050.8" y="501.5711">name = getName()</text><polygon fill="#181818" points="1456.4,550.5375,1464.4,553.7375,1456.4,556.9375,1459.6,553.7375" style="stroke:#181818;stroke-width:0.8000000000000002;"/><line style="stroke:#181818;stroke-width:0.8000000000000002;" x1="1030.8" x2="1461.2" y1="553.7375" y2="553.7375"/><text fill="#000000" font-family="sans-serif" font-size="10.4" font-weight="bold" lengthAdjust="spacing" textLength="11.2" x="1036.4" y="549.8523">11</text><text fill="#000000" font-family="sans-serif" font-size="10.4" lengthAdjust="spacing" textLength="163.2" x="1050.8" y="549.8523">phoneNumber = getPhoneNumber()</text><polygon fill="#181818" points="1456.4,598.8188,1464.4,602.0188,1456.4,605.2188,1459.6,602.0188" style="stroke:#181818;stroke-width:0.8000000000000002;"/><line style="stroke:#181818;stroke-width:0.8000000000000002;" x1="1030.8" x2="1461.2" y1="602.0188" y2="602.0188"/><text fill="#000000" font-family="sans-serif" font-size="10.4" font-weight="bold" lengthAdjust="spacing" textLength="11.2" x="1036.4" y="598.1336">12</text><text fill="#000000" font-family="sans-serif" font-size="10.4" lengthAdjust="spacing" textLength="84.8" x="1050.8" y="598.1336">email = getEmail()</text><polygon fill="#181818" points="1522,647.1,1530,650.3,1522,653.5,1525.2,650.3" style="stroke:#181818;stroke-width:0.8000000000000002;"/><line style="stroke:#181818;stroke-width:0.8000000000000002;stroke-dasharray:2.0,2.0;" x1="1030.8" x2="1526.8" y1="650.3" y2="650.3"/><text fill="#000000" font-family="sans-serif" font-size="10.4" font-weight="bold" lengthAdjust="spacing" textLength="11.2" x="1036.4" y="646.4148">13</text><text fill="#000000" font-family="sans-serif" font-size="10.4" lengthAdjust="spacing" textLength="176.8" x="1050.8" y="646.4148">create(id, name, phoneNumber, email)</text><rect fill="#E2E2F0" height="39.375" rx="2" ry="2" style="stroke:#181818;stroke-width:0.4000000000000001;" width="124.8" x="1531.6" y="632.4188"/><text fill="#000000" font-family="sans-serif" font-size="11.2" lengthAdjust="spacing" textLength="32" x="1578" y="649.6453">vcDto:</text><text fill="#000000" font-family="sans-serif" font-size="11.2" lengthAdjust="spacing" textLength="110.4" x="1540.4" y="663.7328">VaccinationCenterDto</text><polygon fill="#181818" points="1317.2,695.275,1325.2,698.475,1317.2,701.675,1320.4,698.475" style="stroke:#181818;stroke-width:0.8000000000000002;"/><line style="stroke:#181818;stroke-width:0.8000000000000002;" x1="1030.8" x2="1322" y1="698.475" y2="698.475"/><text fill="#000000" font-family="sans-serif" font-size="10.4" font-weight="bold" lengthAdjust="spacing" textLength="11.2" x="1036.4" y="694.5898">14</text><text fill="#000000" font-family="sans-serif" font-size="10.4" lengthAdjust="spacing" textLength="48.8" x="1050.8" y="694.5898">add(vcDto)</text><polygon fill="#181818" points="577.2,749.1563,569.2,752.3563,577.2,755.5563,574,752.3563" style="stroke:#181818;stroke-width:0.8000000000000002;"/><line style="stroke:#181818;stroke-width:0.8000000000000002;stroke-dasharray:2.0,2.0;" x1="572.4" x2="1026" y1="752.3563" y2="752.3563"/><text fill="#000000" font-family="sans-serif" font-size="10.4" font-weight="bold" lengthAdjust="spacing" textLength="11.2" x="582" y="748.4711">15</text><text fill="#000000" font-family="sans-serif" font-size="10.4" lengthAdjust="spacing" textLength="44" x="596.4" y="748.4711">listVCDto</text><polygon fill="#181818" points="366,773.4375,358,776.6375,366,779.8375,362.8,776.6375" style="stroke:#181818;stroke-width:0.8000000000000002;"/><line style="stroke:#181818;stroke-width:0.8000000000000002;stroke-dasharray:2.0,2.0;" x1="361.2" x2="563.6" y1="776.6375" y2="776.6375"/><text fill="#000000" font-family="sans-serif" font-size="10.4" font-weight="bold" lengthAdjust="spacing" textLength="11.2" x="370.8" y="772.7523">16</text><text fill="#000000" font-family="sans-serif" font-size="10.4" lengthAdjust="spacing" textLength="44" x="385.2" y="772.7523">listVCDto</text><path d="M60,788.6375 L118.4,788.6375 L118.4,795.3188 L110.4,803.3188 L60,803.3188 L60,788.6375 " fill="#EEEEEE" style="stroke:#000000;stroke-width:1.2000000000000002;"/><rect fill="none" height="135.8063" style="stroke:#000000;stroke-width:1.2000000000000002;" width="894" x="60" y="788.6375"/><text fill="#000000" font-family="sans-serif" font-size="10.4" font-weight="bold" lengthAdjust="spacing" textLength="22.4" x="72" y="800.2336">loop</text><text fill="#000000" font-family="sans-serif" font-size="8.8" font-weight="bold" lengthAdjust="spacing" textLength="231.2" x="130.4" y="799.3727">[while an existing vaccination center is not selected]</text><polygon fill="#181818" points="98,818,90,821.2,98,824.4,94.8,821.2" style="stroke:#181818;stroke-width:0.8000000000000002;"/><line style="stroke:#181818;stroke-width:0.8000000000000002;stroke-dasharray:2.0,2.0;" x1="93.2" x2="352.4" y1="821.2" y2="821.2"/><text fill="#000000" font-family="sans-serif" font-size="10.4" font-weight="bold" lengthAdjust="spacing" textLength="11.2" x="102.8" y="817.3148">17</text><text fill="#000000" font-family="sans-serif" font-size="10.4" lengthAdjust="spacing" textLength="230.4" x="117.2" y="817.3148">shows vaccination centers and asks to select one</text><polygon fill="#181818" points="339.6,842.2813,347.6,845.4813,339.6,848.6813,342.8,845.4813" style="stroke:#181818;stroke-width:0.8000000000000002;"/><line style="stroke:#181818;stroke-width:0.8000000000000002;" x1="89.2" x2="344.4" y1="845.4813" y2="845.4813"/><text fill="#000000" font-family="sans-serif" font-size="10.4" font-weight="bold" lengthAdjust="spacing" textLength="11.2" x="94.8" y="841.5961">18</text><text fill="#000000" font-family="sans-serif" font-size="10.4" lengthAdjust="spacing" textLength="134.4" x="109.2" y="841.5961">select one vaccination center</text><polygon fill="#181818" points="550.8,866.5625,558.8,869.7625,550.8,872.9625,554,869.7625" style="stroke:#181818;stroke-width:0.8000000000000002;"/><line style="stroke:#181818;stroke-width:0.8000000000000002;" x1="357.2" x2="555.6" y1="869.7625" y2="869.7625"/><text fill="#000000" font-family="sans-serif" font-size="10.4" font-weight="bold" lengthAdjust="spacing" textLength="11.2" x="362.8" y="865.8773">19</text><text fill="#000000" font-family="sans-serif" font-size="10.4" lengthAdjust="spacing" textLength="155.2" x="377.2" y="865.8773">b = existsVaccinationCenter(vcId)</text><polygon fill="#181818" points="865.2,890.8438,873.2,894.0438,865.2,897.2438,868.4,894.0438" style="stroke:#181818;stroke-width:0.8000000000000002;"/><line style="stroke:#181818;stroke-width:0.8000000000000002;" x1="568.4" x2="870" y1="894.0438" y2="894.0438"/><text fill="#000000" font-family="sans-serif" font-size="10.4" font-weight="bold" lengthAdjust="spacing" textLength="11.2" x="574" y="890.1586">20</text><text fill="#000000" font-family="sans-serif" font-size="10.4" lengthAdjust="spacing" textLength="155.2" x="588.4" y="890.1586">b = existsVaccinationCenter(vcId)</text><polygon fill="#181818" points="148.4,944.725,140.4,947.925,148.4,951.125,145.2,947.925" style="stroke:#181818;stroke-width:0.8000000000000002;"/><line style="stroke:#181818;stroke-width:0.8000000000000002;stroke-dasharray:2.0,2.0;" x1="143.6" x2="352.4" y1="947.925" y2="947.925"/><text fill="#000000" font-family="sans-serif" font-size="10.4" font-weight="bold" lengthAdjust="spacing" textLength="11.2" x="153.2" y="944.0398">21</text><text fill="#000000" font-family="sans-serif" font-size="10.4" lengthAdjust="spacing" textLength="3.2" x="167.6" y="944.0398"> </text><polygon fill="#181818" points="339.6,969.0063,347.6,972.2063,339.6,975.4063,342.8,972.2063" style="stroke:#181818;stroke-width:0.8000000000000002;"/><line style="stroke:#181818;stroke-width:0.8000000000000002;" x1="139.6" x2="344.4" y1="972.2063" y2="972.2063"/><text fill="#000000" font-family="sans-serif" font-size="10.4" font-weight="bold" lengthAdjust="spacing" textLength="11.2" x="145.2" y="968.3211">22</text><text fill="#000000" font-family="sans-serif" font-size="10.4" lengthAdjust="spacing" textLength="114.4" x="159.6" y="968.3211">vcId = getSelectedVCId()</text><!--MD5=[50203c159299d4574d1fe4fd27b7f53a]
@startuml
autonumber

title
<u>SD_SELECT_VC</u>
end title

actor "Nurse" as N

participant ":\nNurseUI" as AUI
participant ":\nSelectVaccinationCenterUI" as SVCUI
participant ":\nSelectVaccinationCenterController" as CTRL
participant ":\nCompany" as CMP
participant "vcStore:\n VaccinationCenterStore" as VCS
participant "vcMapper:\n VaccinationCenterMapper" as VCM
participant "listVC:\n List<VaccinationCenter>"  as LVC
participant "listVCDto:\n List<VaccinationCenterDto>"  as LVCD
participant "vc:\n VaccinationCenter" as VC
participant "vcDto:\n VaccinationCenterDto" as VCD

activate AUI
AUI -> SVCUI** : create()
note left: after a successed login
AUI -> SVCUI : run()

activate SVCUI
SVCUI - -> CTRL : listVCDto = getVaccinationCenterList()
activate CTRL
CTRL -> CMP : vcStore = getVaccinationCenterStore()
activate CMP
deactivate CMP

CTRL -> VCS : listVC = getVaccinationCenterList()
activate VCS
deactivate VCS
CTRL -> VCM : listVCDto = listVcDto(listVC)
activate VCM
VCM - -> LVCD** : create()

loop foreach object in listCV

VCM -> LVC : sv = get(i)
activate LVC
deactivate LVC

VCM -> VC : id = getId()
activate VC
deactivate VC

VCM -> VC : name = getName()
activate VC
deactivate VC

VCM -> VC : phoneNumber = getPhoneNumber()
activate VC
deactivate VC

VCM -> VC : email = getEmail()
activate VC
deactivate VC

VCM - -> VCD** : create(id, name, phoneNumber, email)

VCM -> LVCD : add(vcDto)
activate LVCD
deactivate LVCD

end loop
CTRL <- - VCM : listVCDto
deactivate VCM

SVCUI <- - CTRL : listVCDto
deactivate CTRL



loop while an existing vaccination center is not selected
SVCUI - -> N : shows vaccination centers and asks to select one
deactivate SVCUI
activate N

N -> SVCUI : select one vaccination center
activate SVCUI
SVCUI -> CTRL : b = existsVaccinationCenter(vcId)
activate CTRL

CTRL -> VCS : b = existsVaccinationCenter(vcId)
activate VCS
deactivate CTRL
deactivate VCS
end loop

SVCUI - -> AUI :
deactivate SVCUI

AUI -> SVCUI : vcId = getSelectedVCId()
activate SVCUI
deactivate N
deactivate SVCUI

@enduml

PlantUML version 1.2022.4(Sat Apr 09 14:29:17 BST 2022)
(GPL source distribution)
Java Runtime: OpenJDK Runtime Environment
JVM: OpenJDK 64-Bit Server VM
Default Encoding: Cp1252
Language: pt
Country: PT
--></g></svg>