<?xml version="1.0" encoding="UTF-8" standalone="no"?><svg xmlns="http://www.w3.org/2000/svg" xmlns:xlink="http://www.w3.org/1999/xlink" contentStyleType="text/css" height="545px" preserveAspectRatio="none" style="width:648px;height:545px;background:#FFFFFF;" version="1.1" viewBox="0 0 648 545" width="648px" zoomAndPan="magnify"><defs/><g><rect height="27.6094" style="stroke:#00000000;stroke-width:1.0;fill:none;" width="250" x="200.5" y="10"/><text fill="#000000" font-family="sans-serif" font-size="14" font-weight="bold" lengthAdjust="spacing" text-decoration="underline" textLength="240" x="205.5" y="29.5332">SD_VACCINE_MAPPER_TOLISTDTO</text><rect fill="#FFFFFF" height="347.1953" style="stroke:#181818;stroke-width:1.0;" width="10" x="130" y="126.1797"/><rect fill="#FFFFFF" height="35.3516" style="stroke:#181818;stroke-width:1.0;" width="10" x="135" y="310.4531"/><rect fill="#FFFFFF" height="30" style="stroke:#181818;stroke-width:1.0;" width="10" x="256" y="242.1016"/><rect fill="#FFFFFF" height="30" style="stroke:#181818;stroke-width:1.0;" width="10" x="383" y="406.0234"/><rect height="242.625" style="stroke:#000000;stroke-width:1.5;fill:none;" width="573" x="69" y="201.3984"/><line style="stroke:#181818;stroke-width:0.5;fill:none;stroke-dasharray:5.0,5.0;" x1="135" x2="135" y1="93.8281" y2="491.375"/><line style="stroke:#181818;stroke-width:0.5;fill:none;stroke-dasharray:5.0,5.0;" x1="261" x2="261" y1="93.8281" y2="491.375"/><line style="stroke:#181818;stroke-width:0.5;fill:none;stroke-dasharray:5.0,5.0;" x1="388" x2="388" y1="174.2891" y2="491.375"/><line style="stroke:#181818;stroke-width:0.5;fill:none;stroke-dasharray:5.0,5.0;" x1="496" x2="496" y1="93.8281" y2="491.375"/><line style="stroke:#181818;stroke-width:0.5;fill:none;stroke-dasharray:5.0,5.0;" x1="585" x2="585" y1="363.5625" y2="491.375"/><rect fill="#E2E2F0" height="49.2188" rx="2.5" ry="2.5" style="stroke:#181818;stroke-width:0.5;" width="112" x="79" y="43.6094"/><text fill="#000000" font-family="sans-serif" font-size="14" lengthAdjust="spacing" textLength="59" x="105.5" y="65.1426">vMapper:</text><text fill="#000000" font-family="sans-serif" font-size="14" lengthAdjust="spacing" textLength="98" x="86" y="82.752">VaccineMapper</text><rect fill="#E2E2F0" height="49.2188" rx="2.5" ry="2.5" style="stroke:#181818;stroke-width:0.5;" width="112" x="79" y="490.375"/><text fill="#000000" font-family="sans-serif" font-size="14" lengthAdjust="spacing" textLength="59" x="105.5" y="511.9082">vMapper:</text><text fill="#000000" font-family="sans-serif" font-size="14" lengthAdjust="spacing" textLength="98" x="86" y="529.5176">VaccineMapper</text><rect fill="#E2E2F0" height="49.2188" rx="2.5" ry="2.5" style="stroke:#181818;stroke-width:0.5;" width="102" x="210" y="43.6094"/><text fill="#000000" font-family="sans-serif" font-size="14" lengthAdjust="spacing" textLength="30" x="246" y="65.1426">listV:</text><text fill="#000000" font-family="sans-serif" font-size="14" lengthAdjust="spacing" textLength="88" x="217" y="82.752">List&lt;Vaccine&gt;</text><rect fill="#E2E2F0" height="49.2188" rx="2.5" ry="2.5" style="stroke:#181818;stroke-width:0.5;" width="102" x="210" y="490.375"/><text fill="#000000" font-family="sans-serif" font-size="14" lengthAdjust="spacing" textLength="30" x="246" y="511.9082">listV:</text><text fill="#000000" font-family="sans-serif" font-size="14" lengthAdjust="spacing" textLength="88" x="217" y="529.5176">List&lt;Vaccine&gt;</text><rect fill="#E2E2F0" height="49.2188" rx="2.5" ry="2.5" style="stroke:#181818;stroke-width:0.5;" width="132" x="322" y="490.375"/><text fill="#000000" font-family="sans-serif" font-size="14" lengthAdjust="spacing" textLength="52" x="362" y="511.9082">listVDto:</text><text fill="#000000" font-family="sans-serif" font-size="14" lengthAdjust="spacing" textLength="118" x="329" y="529.5176">List&lt;VaccineDTO&gt;</text><rect fill="#E2E2F0" height="49.2188" rx="2.5" ry="2.5" style="stroke:#181818;stroke-width:0.5;" width="64" x="464" y="43.6094"/><text fill="#000000" font-family="sans-serif" font-size="14" lengthAdjust="spacing" textLength="11" x="490.5" y="65.1426">v:</text><text fill="#000000" font-family="sans-serif" font-size="14" lengthAdjust="spacing" textLength="50" x="471" y="82.752">Vaccine</text><rect fill="#E2E2F0" height="49.2188" rx="2.5" ry="2.5" style="stroke:#181818;stroke-width:0.5;" width="64" x="464" y="490.375"/><text fill="#000000" font-family="sans-serif" font-size="14" lengthAdjust="spacing" textLength="11" x="490.5" y="511.9082">v:</text><text fill="#000000" font-family="sans-serif" font-size="14" lengthAdjust="spacing" textLength="50" x="471" y="529.5176">Vaccine</text><rect fill="#E2E2F0" height="49.2188" rx="2.5" ry="2.5" style="stroke:#181818;stroke-width:0.5;" width="94" x="538" y="490.375"/><text fill="#000000" font-family="sans-serif" font-size="14" lengthAdjust="spacing" textLength="33" x="568.5" y="511.9082">vDto:</text><text fill="#000000" font-family="sans-serif" font-size="14" lengthAdjust="spacing" textLength="80" x="545" y="529.5176">VaccineDTO</text><rect fill="#FFFFFF" height="347.1953" style="stroke:#181818;stroke-width:1.0;" width="10" x="130" y="126.1797"/><rect fill="#FFFFFF" height="35.3516" style="stroke:#181818;stroke-width:1.0;" width="10" x="135" y="310.4531"/><rect fill="#FFFFFF" height="30" style="stroke:#181818;stroke-width:1.0;" width="10" x="256" y="242.1016"/><rect fill="#FFFFFF" height="30" style="stroke:#181818;stroke-width:1.0;" width="10" x="383" y="406.0234"/><ellipse cx="7.5" cy="125.4297" fill="none" rx="4" ry="4" style="stroke:#181818;stroke-width:1.5;"/><polygon fill="#181818" points="118,122.1797,128,126.1797,118,130.1797,122,126.1797" style="stroke:#181818;stroke-width:1.0;"/><line style="stroke:#181818;stroke-width:1.0;" x1="12" x2="124" y1="126.1797" y2="126.1797"/><text fill="#000000" font-family="sans-serif" font-size="13" font-weight="bold" lengthAdjust="spacing" textLength="7" x="15" y="121.3232">1</text><text fill="#000000" font-family="sans-serif" font-size="13" lengthAdjust="spacing" textLength="92" x="26" y="121.3232">toListDTO(listV)</text><polygon fill="#181818" points="310,152.5313,320,156.5313,310,160.5313,314,156.5313" style="stroke:#181818;stroke-width:1.0;"/><line style="stroke:#181818;stroke-width:1.0;stroke-dasharray:2.0,2.0;" x1="140" x2="316" y1="156.5313" y2="156.5313"/><text fill="#000000" font-family="sans-serif" font-size="13" font-weight="bold" lengthAdjust="spacing" textLength="7" x="147" y="151.6748">2</text><text fill="#000000" font-family="sans-serif" font-size="13" lengthAdjust="spacing" textLength="44" x="158" y="151.6748">create()</text><rect fill="#E2E2F0" height="49.2188" rx="2.5" ry="2.5" style="stroke:#181818;stroke-width:0.5;" width="132" x="322" y="134.1797"/><text fill="#000000" font-family="sans-serif" font-size="14" lengthAdjust="spacing" textLength="52" x="362" y="155.7129">listVDto:</text><text fill="#000000" font-family="sans-serif" font-size="14" lengthAdjust="spacing" textLength="118" x="329" y="173.3223">List&lt;VaccineDTO&gt;</text><path d="M69,201.3984 L142,201.3984 L142,209.75 L132,219.75 L69,219.75 L69,201.3984 " fill="#EEEEEE" style="stroke:#000000;stroke-width:1.5;"/><rect fill="none" height="242.625" style="stroke:#000000;stroke-width:1.5;" width="573" x="69" y="201.3984"/><text fill="#000000" font-family="sans-serif" font-size="13" font-weight="bold" lengthAdjust="spacing" textLength="28" x="84" y="215.8936">loop</text><text fill="#000000" font-family="sans-serif" font-size="11" font-weight="bold" lengthAdjust="spacing" textLength="128" x="157" y="214.8174">[foreach object in listV]</text><polygon fill="#181818" points="244,238.1016,254,242.1016,244,246.1016,248,242.1016" style="stroke:#181818;stroke-width:1.0;"/><line style="stroke:#181818;stroke-width:1.0;" x1="140" x2="250" y1="242.1016" y2="242.1016"/><text fill="#000000" font-family="sans-serif" font-size="13" font-weight="bold" lengthAdjust="spacing" textLength="7" x="147" y="237.2451">3</text><text fill="#000000" font-family="sans-serif" font-size="13" lengthAdjust="spacing" textLength="50" x="158" y="237.2451">v = get(i)</text><line style="stroke:#181818;stroke-width:1.0;" x1="140" x2="187" y1="297.4531" y2="297.4531"/><line style="stroke:#181818;stroke-width:1.0;" x1="187" x2="187" y1="297.4531" y2="310.4531"/><line style="stroke:#181818;stroke-width:1.0;" x1="146" x2="187" y1="310.4531" y2="310.4531"/><polygon fill="#181818" points="156,306.4531,146,310.4531,156,314.4531,152,310.4531" style="stroke:#181818;stroke-width:1.0;"/><text fill="#000000" font-family="sans-serif" font-size="13" font-weight="bold" lengthAdjust="spacing" textLength="7" x="152" y="292.5967">4</text><text fill="#000000" font-family="sans-serif" font-size="13" lengthAdjust="spacing" textLength="91" x="163" y="292.5967">vDto = toDTO(v)</text><polygon fill="#181818" points="526,341.8047,536,345.8047,526,349.8047,530,345.8047" style="stroke:#181818;stroke-width:1.0;"/><line style="stroke:#181818;stroke-width:1.0;stroke-dasharray:2.0,2.0;" x1="140" x2="532" y1="345.8047" y2="345.8047"/><text fill="#000000" font-family="sans-serif" font-size="13" font-weight="bold" lengthAdjust="spacing" textLength="7" x="147" y="340.9482">5</text><text fill="#000000" font-family="sans-serif" font-size="13" lengthAdjust="spacing" textLength="44" x="158" y="340.9482">create()</text><rect fill="#E2E2F0" height="49.2188" rx="2.5" ry="2.5" style="stroke:#181818;stroke-width:0.5;" width="94" x="538" y="323.4531"/><text fill="#000000" font-family="sans-serif" font-size="14" lengthAdjust="spacing" textLength="33" x="568.5" y="344.9863">vDto:</text><text fill="#000000" font-family="sans-serif" font-size="14" lengthAdjust="spacing" textLength="80" x="545" y="362.5957">VaccineDTO</text><polygon fill="#181818" points="371,402.0234,381,406.0234,371,410.0234,375,406.0234" style="stroke:#181818;stroke-width:1.0;"/><line style="stroke:#181818;stroke-width:1.0;" x1="140" x2="377" y1="406.0234" y2="406.0234"/><text fill="#000000" font-family="sans-serif" font-size="13" font-weight="bold" lengthAdjust="spacing" textLength="7" x="147" y="401.167">6</text><text fill="#000000" font-family="sans-serif" font-size="13" lengthAdjust="spacing" textLength="54" x="158" y="401.167">add(vDto)</text><polygon fill="#181818" points="11,469.375,1,473.375,11,477.375,7,473.375" style="stroke:#181818;stroke-width:1.0;"/><line style="stroke:#181818;stroke-width:1.0;stroke-dasharray:2.0,2.0;" x1="5" x2="134" y1="473.375" y2="473.375"/><text fill="#000000" font-family="sans-serif" font-size="13" font-weight="bold" lengthAdjust="spacing" textLength="7" x="17" y="468.5186">7</text><text fill="#000000" font-family="sans-serif" font-size="13" lengthAdjust="spacing" textLength="46" x="28" y="468.5186">listVDto</text><!--MD5=[6364e0d589ae660f9d39ba29e9989cc0]
@startuml
autonumber

title
<u>SD_VACCINE_MAPPER_TOLISTDTO</u>
end title

participant "vMapper:\nVaccineMapper" as VM
participant ":\nVaccineMapper" as VM
participant "listV:\nList<Vaccine>" as LV
participant "listVDto:\nList<VaccineDTO>" as LVD
participant "v:\nVaccine" as V
participant "vDto:\nVaccineDTO" as VD

[o-> VM : toListDTO(listV)
activate VM
VM - -> LVD** : create()

loop foreach object in listV

VM -> LV : v = get(i)
activate LV
deactivate LV

VM -> VM : vDto = toDTO(v)
activate VM
VM - -> VD** : create()

deactivate VM

VM -> LVD : add(vDto)
activate LVD
deactivate LVD

end loop

<- - VM : listVDto
deactivate VM
@enduml

PlantUML version 1.2022.5(Sat Apr 30 11:55:52 BST 2022)
(GPL source distribution)
Java Runtime: OpenJDK Runtime Environment
JVM: OpenJDK 64-Bit Server VM
Default Encoding: Cp1252
Language: pt
Country: PT
--></g></svg>