<?xml version="1.0" encoding="UTF-8" standalone="no"?><svg xmlns="http://www.w3.org/2000/svg" xmlns:xlink="http://www.w3.org/1999/xlink" contentStyleType="text/css" height="487.2px" preserveAspectRatio="none" style="width:513px;height:487px;background:#FFFFFF;" version="1.1" viewBox="0 0 513 487" width="513.6px" zoomAndPan="magnify"><defs/><g><rect fill="#FFFFFF" height="333.5375" style="stroke:#181818;stroke-width:0.8000000000000002;" width="8" x="17.2" y="74.0875"/><rect fill="#FFFFFF" height="24.2813" style="stroke:#181818;stroke-width:0.8000000000000002;" width="8" x="479.6" y="91.9688"/><rect fill="#FFFFFF" height="24.2813" style="stroke:#181818;stroke-width:0.8000000000000002;" width="8" x="479.6" y="140.5313"/><rect fill="#FFFFFF" height="24.2813" style="stroke:#181818;stroke-width:0.8000000000000002;" width="8" x="479.6" y="189.0938"/><rect fill="#FFFFFF" height="24.2813" style="stroke:#181818;stroke-width:0.8000000000000002;" width="8" x="479.6" y="237.6563"/><rect fill="#FFFFFF" height="24.2813" style="stroke:#181818;stroke-width:0.8000000000000002;" width="8" x="479.6" y="286.2188"/><rect fill="#FFFFFF" height="24.2813" style="stroke:#181818;stroke-width:0.8000000000000002;" width="8" x="479.6" y="334.7813"/><rect fill="#FFFFFF" height="24.2813" style="stroke:#181818;stroke-width:0.8000000000000002;" width="8" x="479.6" y="383.3438"/><line style="stroke:#181818;stroke-width:0.4000000000000001;stroke-dasharray:5.0,5.0;" x1="20.8" x2="20.8" y1="66.0875" y2="422.025"/><line style="stroke:#181818;stroke-width:0.4000000000000001;stroke-dasharray:5.0,5.0;" x1="483.6" x2="483.6" y1="66.0875" y2="422.025"/><text fill="#000000" font-family="sans-serif" font-size="11.2" lengthAdjust="spacing" textLength="29.6" x="4" y="63.6266">Nurse</text><ellipse cx="21.2" cy="10.8" fill="#E2E2F0" rx="6.4" ry="6.4" style="stroke:#181818;stroke-width:0.4000000000000001;"/><path d="M21.2,17.2 L21.2,38.8 M10.8,23.6 L31.6,23.6 M21.2,38.8 L10.8,50.8 M21.2,38.8 L31.6,50.8 " fill="none" style="stroke:#181818;stroke-width:0.4000000000000001;"/><text fill="#000000" font-family="sans-serif" font-size="11.2" lengthAdjust="spacing" textLength="29.6" x="4" y="432.8516">Nurse</text><ellipse cx="21.2" cy="442.1125" fill="#E2E2F0" rx="6.4" ry="6.4" style="stroke:#181818;stroke-width:0.4000000000000001;"/><path d="M21.2,448.5125 L21.2,470.1125 M10.8,454.9125 L31.6,454.9125 M21.2,470.1125 L10.8,482.1125 M21.2,470.1125 L31.6,482.1125 " fill="none" style="stroke:#181818;stroke-width:0.4000000000000001;"/><rect fill="#E2E2F0" height="25.2875" rx="2" ry="2" style="stroke:#181818;stroke-width:0.4000000000000001;" width="51.2" x="458" y="40"/><text fill="#000000" font-family="sans-serif" font-size="11.2" lengthAdjust="spacing" textLength="40" x="463.6" y="57.2266">:System</text><rect fill="#E2E2F0" height="25.2875" rx="2" ry="2" style="stroke:#181818;stroke-width:0.4000000000000001;" width="51.2" x="458" y="421.225"/><text fill="#000000" font-family="sans-serif" font-size="11.2" lengthAdjust="spacing" textLength="40" x="463.6" y="438.4516">:System</text><rect fill="#FFFFFF" height="333.5375" style="stroke:#181818;stroke-width:0.8000000000000002;" width="8" x="17.2" y="74.0875"/><rect fill="#FFFFFF" height="24.2813" style="stroke:#181818;stroke-width:0.8000000000000002;" width="8" x="479.6" y="91.9688"/><rect fill="#FFFFFF" height="24.2813" style="stroke:#181818;stroke-width:0.8000000000000002;" width="8" x="479.6" y="140.5313"/><rect fill="#FFFFFF" height="24.2813" style="stroke:#181818;stroke-width:0.8000000000000002;" width="8" x="479.6" y="189.0938"/><rect fill="#FFFFFF" height="24.2813" style="stroke:#181818;stroke-width:0.8000000000000002;" width="8" x="479.6" y="237.6563"/><rect fill="#FFFFFF" height="24.2813" style="stroke:#181818;stroke-width:0.8000000000000002;" width="8" x="479.6" y="286.2188"/><rect fill="#FFFFFF" height="24.2813" style="stroke:#181818;stroke-width:0.8000000000000002;" width="8" x="479.6" y="334.7813"/><rect fill="#FFFFFF" height="24.2813" style="stroke:#181818;stroke-width:0.8000000000000002;" width="8" x="479.6" y="383.3438"/><polygon fill="#181818" points="470,88.7688,478,91.9688,470,95.1688,473.2,91.9688" style="stroke:#181818;stroke-width:0.8000000000000002;"/><line style="stroke:#181818;stroke-width:0.8000000000000002;" x1="25.2" x2="474.8" y1="91.9688" y2="91.9688"/><text fill="#000000" font-family="sans-serif" font-size="10.4" font-weight="bold" lengthAdjust="spacing" textLength="5.6" x="30.8" y="88.0836">1</text><text fill="#000000" font-family="sans-serif" font-size="10.4" lengthAdjust="spacing" textLength="270.4" x="39.6" y="88.0836">starts record the administration of a vaccine to a SNS user</text><polygon fill="#181818" points="34,113.05,26,116.25,34,119.45,30.8,116.25" style="stroke:#181818;stroke-width:0.8000000000000002;"/><line style="stroke:#181818;stroke-width:0.8000000000000002;stroke-dasharray:2.0,2.0;" x1="29.2" x2="482.8" y1="116.25" y2="116.25"/><text fill="#000000" font-family="sans-serif" font-size="10.4" font-weight="bold" lengthAdjust="spacing" textLength="5.6" x="38.8" y="112.3648">2</text><text fill="#000000" font-family="sans-serif" font-size="10.4" lengthAdjust="spacing" textLength="373.6" x="47.6" y="112.3648">show list of users that are in the center to take the vaccine and ask to select one</text><polygon fill="#181818" points="470,137.3313,478,140.5313,470,143.7313,473.2,140.5313" style="stroke:#181818;stroke-width:0.8000000000000002;"/><line style="stroke:#181818;stroke-width:0.8000000000000002;" x1="25.2" x2="474.8" y1="140.5313" y2="140.5313"/><text fill="#000000" font-family="sans-serif" font-size="10.4" font-weight="bold" lengthAdjust="spacing" textLength="5.6" x="30.8" y="136.6461">3</text><text fill="#000000" font-family="sans-serif" font-size="10.4" lengthAdjust="spacing" textLength="93.6" x="39.6" y="136.6461">select the SNS user</text><polygon fill="#181818" points="34,161.6125,26,164.8125,34,168.0125,30.8,164.8125" style="stroke:#181818;stroke-width:0.8000000000000002;"/><line style="stroke:#181818;stroke-width:0.8000000000000002;stroke-dasharray:2.0,2.0;" x1="29.2" x2="482.8" y1="164.8125" y2="164.8125"/><text fill="#000000" font-family="sans-serif" font-size="10.4" font-weight="bold" lengthAdjust="spacing" textLength="5.6" x="38.8" y="160.9273">4</text><text fill="#000000" font-family="sans-serif" font-size="10.4" lengthAdjust="spacing" textLength="84" x="47.6" y="160.9273">show the user info</text><polygon fill="#181818" points="470,185.8938,478,189.0938,470,192.2938,473.2,189.0938" style="stroke:#181818;stroke-width:0.8000000000000002;"/><line style="stroke:#181818;stroke-width:0.8000000000000002;" x1="25.2" x2="474.8" y1="189.0938" y2="189.0938"/><text fill="#000000" font-family="sans-serif" font-size="10.4" font-weight="bold" lengthAdjust="spacing" textLength="5.6" x="30.8" y="185.2086">5</text><text fill="#000000" font-family="sans-serif" font-size="10.4" lengthAdjust="spacing" textLength="225.6" x="39.6" y="185.2086">asks for a vaccine suggestion to be administered</text><polygon fill="#181818" points="34,210.175,26,213.375,34,216.575,30.8,213.375" style="stroke:#181818;stroke-width:0.8000000000000002;"/><line style="stroke:#181818;stroke-width:0.8000000000000002;stroke-dasharray:2.0,2.0;" x1="29.2" x2="482.8" y1="213.375" y2="213.375"/><text fill="#000000" font-family="sans-serif" font-size="10.4" font-weight="bold" lengthAdjust="spacing" textLength="5.6" x="38.8" y="209.4898">6</text><text fill="#000000" font-family="sans-serif" font-size="10.4" lengthAdjust="spacing" textLength="272.8" x="47.6" y="209.4898">shows the list of suggested vaccines and ask to select one</text><polygon fill="#181818" points="470,234.4563,478,237.6563,470,240.8563,473.2,237.6563" style="stroke:#181818;stroke-width:0.8000000000000002;"/><line style="stroke:#181818;stroke-width:0.8000000000000002;" x1="25.2" x2="474.8" y1="237.6563" y2="237.6563"/><text fill="#000000" font-family="sans-serif" font-size="10.4" font-weight="bold" lengthAdjust="spacing" textLength="5.6" x="30.8" y="233.7711">7</text><text fill="#000000" font-family="sans-serif" font-size="10.4" lengthAdjust="spacing" textLength="83.2" x="39.6" y="233.7711">select the vaccine</text><polygon fill="#181818" points="34,258.7375,26,261.9375,34,265.1375,30.8,261.9375" style="stroke:#181818;stroke-width:0.8000000000000002;"/><line style="stroke:#181818;stroke-width:0.8000000000000002;stroke-dasharray:2.0,2.0;" x1="29.2" x2="482.8" y1="261.9375" y2="261.9375"/><text fill="#000000" font-family="sans-serif" font-size="10.4" font-weight="bold" lengthAdjust="spacing" textLength="5.6" x="38.8" y="258.0523">8</text><text fill="#000000" font-family="sans-serif" font-size="10.4" lengthAdjust="spacing" textLength="361.6" x="47.6" y="258.0523">shows the list of suggested dose numbers to administer and ask to select one</text><polygon fill="#181818" points="470,283.0188,478,286.2188,470,289.4188,473.2,286.2188" style="stroke:#181818;stroke-width:0.8000000000000002;"/><line style="stroke:#181818;stroke-width:0.8000000000000002;" x1="25.2" x2="474.8" y1="286.2188" y2="286.2188"/><text fill="#000000" font-family="sans-serif" font-size="10.4" font-weight="bold" lengthAdjust="spacing" textLength="5.6" x="30.8" y="282.3336">9</text><text fill="#000000" font-family="sans-serif" font-size="10.4" lengthAdjust="spacing" textLength="200" x="39.6" y="282.3336">select the number of the administered dose</text><polygon fill="#181818" points="34,307.3,26,310.5,34,313.7,30.8,310.5" style="stroke:#181818;stroke-width:0.8000000000000002;"/><line style="stroke:#181818;stroke-width:0.8000000000000002;stroke-dasharray:2.0,2.0;" x1="29.2" x2="482.8" y1="310.5" y2="310.5"/><text fill="#000000" font-family="sans-serif" font-size="10.4" font-weight="bold" lengthAdjust="spacing" textLength="11.2" x="38.8" y="306.6148">10</text><text fill="#000000" font-family="sans-serif" font-size="10.4" lengthAdjust="spacing" textLength="261.6" x="53.2" y="306.6148">requests data for administration of a vaccine (lot number)</text><polygon fill="#181818" points="470,331.5813,478,334.7813,470,337.9813,473.2,334.7813" style="stroke:#181818;stroke-width:0.8000000000000002;"/><line style="stroke:#181818;stroke-width:0.8000000000000002;" x1="25.2" x2="474.8" y1="334.7813" y2="334.7813"/><text fill="#000000" font-family="sans-serif" font-size="10.4" font-weight="bold" lengthAdjust="spacing" textLength="11.2" x="30.8" y="330.8961">11</text><text fill="#000000" font-family="sans-serif" font-size="10.4" lengthAdjust="spacing" textLength="97.6" x="45.2" y="330.8961">types requested data</text><polygon fill="#181818" points="34,355.8625,26,359.0625,34,362.2625,30.8,359.0625" style="stroke:#181818;stroke-width:0.8000000000000002;"/><line style="stroke:#181818;stroke-width:0.8000000000000002;stroke-dasharray:2.0,2.0;" x1="29.2" x2="482.8" y1="359.0625" y2="359.0625"/><text fill="#000000" font-family="sans-serif" font-size="10.4" font-weight="bold" lengthAdjust="spacing" textLength="11.2" x="38.8" y="355.1773">12</text><text fill="#000000" font-family="sans-serif" font-size="10.4" lengthAdjust="spacing" textLength="188.8" x="53.2" y="355.1773">shows all data and requests confirmation</text><polygon fill="#181818" points="470,380.1438,478,383.3438,470,386.5438,473.2,383.3438" style="stroke:#181818;stroke-width:0.8000000000000002;"/><line style="stroke:#181818;stroke-width:0.8000000000000002;" x1="25.2" x2="474.8" y1="383.3438" y2="383.3438"/><text fill="#000000" font-family="sans-serif" font-size="10.4" font-weight="bold" lengthAdjust="spacing" textLength="11.2" x="30.8" y="379.4586">13</text><text fill="#000000" font-family="sans-serif" font-size="10.4" lengthAdjust="spacing" textLength="80" x="45.2" y="379.4586">confirms the data</text><polygon fill="#181818" points="30,404.425,22,407.625,30,410.825,26.8,407.625" style="stroke:#181818;stroke-width:0.8000000000000002;"/><line style="stroke:#181818;stroke-width:0.8000000000000002;stroke-dasharray:2.0,2.0;" x1="25.2" x2="482.8" y1="407.625" y2="407.625"/><text fill="#000000" font-family="sans-serif" font-size="10.4" font-weight="bold" lengthAdjust="spacing" textLength="11.2" x="34.8" y="403.7398">14</text><text fill="#000000" font-family="sans-serif" font-size="10.4" lengthAdjust="spacing" textLength="420.8" x="49.2" y="403.7398">informs operation success and sent SMS message informing the end of the recovery period</text><!--MD5=[5766813ea05f3b844ec9b364a671f6b0]
@startuml
autonumber
actor "Nurse" as N
participant ":System" as S

activate N
N -> S : starts record the administration of a vaccine to a SNS user
activate S
S - -> N : show list of users that are in the center to take the vaccine and ask to select one
deactivate S
N -> S : select the SNS user
activate S
S - -> N : show the user info
deactivate S
N -> S : asks for a vaccine suggestion to be administered
activate S
S - -> N : shows the list of suggested vaccines and ask to select one
deactivate S
N -> S : select the vaccine
activate S
S - -> N : shows the list of suggested dose numbers to administer and ask to select one
deactivate S
N -> S : select the number of the administered dose
activate S
S - -> N : requests data for administration of a vaccine (lot number)
deactivate S
N -> S : types requested data
activate S
S - -> N : shows all data and requests confirmation
deactivate S
N -> S : confirms the data
activate S
S - -> N : informs operation success and sent SMS message informing the end of the recovery period
deactivate S
deactivate N

@enduml

PlantUML version 1.2022.4(Sat Apr 09 14:29:17 BST 2022)
(GPL source distribution)
Java Runtime: OpenJDK Runtime Environment
JVM: OpenJDK 64-Bit Server VM
Default Encoding: Cp1252
Language: pt
Country: PT
--></g></svg>