<?xml version="1.0" encoding="UTF-8" standalone="no"?><svg xmlns="http://www.w3.org/2000/svg" xmlns:xlink="http://www.w3.org/1999/xlink" contentScriptType="application/ecmascript" contentStyleType="text/css" height="528px" preserveAspectRatio="none" style="width:744px;height:528px;background:#FFFFFF;" version="1.1" viewBox="0 0 744 528" width="744px" zoomAndPan="magnify"><defs><filter height="300%" id="f16hpt10kdfomm" width="300%" x="-1" y="-1"><feGaussianBlur result="blurOut" stdDeviation="2.0"/><feColorMatrix in="blurOut" result="blurOut2" type="matrix" values="0 0 0 0 0 0 0 0 0 0 0 0 0 0 0 0 0 0 .4 0"/><feOffset dx="4.0" dy="4.0" in="blurOut2" result="blurOut3"/><feBlend in="SourceGraphic" in2="blurOut3" mode="normal"/></filter></defs><g><!--MD5=[02e4b9b7573f1156f41e60aa5b4e25a4]
class Company--><rect codeLine="5" fill="#FEFECE" filter="url(#f16hpt10kdfomm)" height="53.8359" id="Company" style="stroke:#A80036;stroke-width:1.5;" width="85" x="31.5" y="44"/><ellipse cx="46.5" cy="60" fill="#ADD1B2" rx="11" ry="11" style="stroke:#A80036;stroke-width:1.0;"/><path d="M48.5,56.5 Q48.7031,56 48.9375,55.75 Q49.1719,55.5 49.4375,55.5 Q49.9063,55.5 50.2031,55.7813 Q50.5,56.0625 50.5,56.7188 L50.5,58.2813 Q50.5,58.9375 50.2188,59.2188 Q49.9375,59.5 49.5,59.5 Q49.1094,59.5 48.8594,59.3281 Q48.6094,59.1563 48.5,58.7031 Q48.4531,58.3906 48.2813,58.2188 Q47.9688,57.8906 47.4063,57.7031 Q46.8438,57.5 46.2813,57.5 Q45.5781,57.5 44.9844,57.7813 Q44.4063,58.0625 43.9531,58.6875 Q43.5,59.3125 43.5,60.1719 L43.5,61.0938 Q43.5,62.125 44.3438,62.8125 Q45.1875,63.5 46.6875,63.5 Q47.5781,63.5 48.2031,63.2969 Q48.5625,63.1875 48.9688,62.8281 Q49.2344,62.625 49.375,62.5625 Q49.5156,62.5 49.6875,62.5 Q50.0156,62.5 50.25,62.7656 Q50.5,63.0156 50.5,63.375 Q50.5,63.7188 50.1563,64.125 Q49.6563,64.7188 48.8594,65.0469 Q47.8125,65.5 46.5313,65.5 Q45.0313,65.5 43.8281,64.9063 Q42.8594,64.4375 42.1719,63.4219 Q41.5,62.4063 41.5,61.2031 L41.5,60.1094 Q41.5,58.8594 42.0938,57.7656 Q42.7031,56.6719 43.75,56.0938 Q44.8125,55.5 46,55.5 Q46.7188,55.5 47.3438,55.75 Q47.9688,56 48.5,56.5 Z " fill="#000000"/><text fill="#000000" font-family="sans-serif" font-size="12" lengthAdjust="spacing" textLength="53" x="60.5" y="64.9102">Company</text><line style="stroke:#A80036;stroke-width:1.5;" x1="32.5" x2="115.5" y1="76" y2="76"/><text fill="#000000" font-family="sans-serif" font-size="11" lengthAdjust="spacing" textLength="59" x="37.5" y="91.4189">-designation</text><!--MD5=[da547346deef918ea16944ba046651ef]
class Administrator--><rect codeLine="9" fill="#FEFECE" filter="url(#f16hpt10kdfomm)" height="40" id="Administrator" style="stroke:#A80036;stroke-width:1.5;" width="105" x="275.5" y="7"/><ellipse cx="290.5" cy="23" fill="#ADD1B2" rx="11" ry="11" style="stroke:#A80036;stroke-width:1.0;"/><path d="M292.5,19.5 Q292.7031,19 292.9375,18.75 Q293.1719,18.5 293.4375,18.5 Q293.9063,18.5 294.2031,18.7813 Q294.5,19.0625 294.5,19.7188 L294.5,21.2813 Q294.5,21.9375 294.2188,22.2188 Q293.9375,22.5 293.5,22.5 Q293.1094,22.5 292.8594,22.3281 Q292.6094,22.1563 292.5,21.7031 Q292.4531,21.3906 292.2813,21.2188 Q291.9688,20.8906 291.4063,20.7031 Q290.8438,20.5 290.2813,20.5 Q289.5781,20.5 288.9844,20.7813 Q288.4063,21.0625 287.9531,21.6875 Q287.5,22.3125 287.5,23.1719 L287.5,24.0938 Q287.5,25.125 288.3438,25.8125 Q289.1875,26.5 290.6875,26.5 Q291.5781,26.5 292.2031,26.2969 Q292.5625,26.1875 292.9688,25.8281 Q293.2344,25.625 293.375,25.5625 Q293.5156,25.5 293.6875,25.5 Q294.0156,25.5 294.25,25.7656 Q294.5,26.0156 294.5,26.375 Q294.5,26.7188 294.1563,27.125 Q293.6563,27.7188 292.8594,28.0469 Q291.8125,28.5 290.5313,28.5 Q289.0313,28.5 287.8281,27.9063 Q286.8594,27.4375 286.1719,26.4219 Q285.5,25.4063 285.5,24.2031 L285.5,23.1094 Q285.5,21.8594 286.0938,20.7656 Q286.7031,19.6719 287.75,19.0938 Q288.8125,18.5 290,18.5 Q290.7188,18.5 291.3438,18.75 Q291.9688,19 292.5,19.5 Z " fill="#000000"/><text fill="#000000" font-family="sans-serif" font-size="12" lengthAdjust="spacing" textLength="73" x="304.5" y="27.9102">Administrator</text><line style="stroke:#A80036;stroke-width:1.5;" x1="276.5" x2="379.5" y1="39" y2="39"/><!--MD5=[56872536300a053cf9fd13853ad6ab1e]
class CommunityMassVaccinationCenter--><rect codeLine="12" fill="#FEFECE" filter="url(#f16hpt10kdfomm)" height="136.8516" id="CommunityMassVaccinationCenter" style="stroke:#A80036;stroke-width:1.5;" width="225" x="505" y="184.5"/><ellipse cx="520" cy="200.5" fill="#ADD1B2" rx="11" ry="11" style="stroke:#A80036;stroke-width:1.0;"/><path d="M522,197 Q522.2031,196.5 522.4375,196.25 Q522.6719,196 522.9375,196 Q523.4063,196 523.7031,196.2813 Q524,196.5625 524,197.2188 L524,198.7813 Q524,199.4375 523.7188,199.7188 Q523.4375,200 523,200 Q522.6094,200 522.3594,199.8281 Q522.1094,199.6563 522,199.2031 Q521.9531,198.8906 521.7813,198.7188 Q521.4688,198.3906 520.9063,198.2031 Q520.3438,198 519.7813,198 Q519.0781,198 518.4844,198.2813 Q517.9063,198.5625 517.4531,199.1875 Q517,199.8125 517,200.6719 L517,201.5938 Q517,202.625 517.8438,203.3125 Q518.6875,204 520.1875,204 Q521.0781,204 521.7031,203.7969 Q522.0625,203.6875 522.4688,203.3281 Q522.7344,203.125 522.875,203.0625 Q523.0156,203 523.1875,203 Q523.5156,203 523.75,203.2656 Q524,203.5156 524,203.875 Q524,204.2188 523.6563,204.625 Q523.1563,205.2188 522.3594,205.5469 Q521.3125,206 520.0313,206 Q518.5313,206 517.3281,205.4063 Q516.3594,204.9375 515.6719,203.9219 Q515,202.9063 515,201.7031 L515,200.6094 Q515,199.3594 515.5938,198.2656 Q516.2031,197.1719 517.25,196.5938 Q518.3125,196 519.5,196 Q520.2188,196 520.8438,196.25 Q521.4688,196.5 522,197 Z " fill="#000000"/><text fill="#000000" font-family="sans-serif" font-size="12" lengthAdjust="spacing" textLength="193" x="534" y="205.4102">CommunityMassVaccinationCenter</text><line style="stroke:#A80036;stroke-width:1.5;" x1="506" x2="729" y1="216.5" y2="216.5"/><text fill="#000000" font-family="sans-serif" font-size="11" lengthAdjust="spacing" textLength="30" x="511" y="231.9189">-name</text><text fill="#000000" font-family="sans-serif" font-size="11" lengthAdjust="spacing" textLength="71" x="511" y="245.7549">-phoneNumber</text><text fill="#000000" font-family="sans-serif" font-size="11" lengthAdjust="spacing" textLength="28" x="511" y="259.5908">-email</text><text fill="#000000" font-family="sans-serif" font-size="11" lengthAdjust="spacing" textLength="57" x="511" y="273.4268">-faxNumber</text><text fill="#000000" font-family="sans-serif" font-size="11" lengthAdjust="spacing" textLength="43" x="511" y="287.2627">-website</text><text fill="#000000" font-family="sans-serif" font-size="11" lengthAdjust="spacing" textLength="61" x="511" y="301.0986">-slotDuration</text><text fill="#000000" font-family="sans-serif" font-size="11" lengthAdjust="spacing" textLength="82" x="511" y="314.9346">-slotVaccineLimit</text><!--MD5=[2d935fd2dd068a13da1ae531f9857c4f]
class CenterCoordinator--><rect codeLine="22" fill="#FEFECE" filter="url(#f16hpt10kdfomm)" height="40" id="CenterCoordinator" style="stroke:#A80036;stroke-width:1.5;" width="134" x="7" y="474"/><ellipse cx="22" cy="490" fill="#ADD1B2" rx="11" ry="11" style="stroke:#A80036;stroke-width:1.0;"/><path d="M24,486.5 Q24.2031,486 24.4375,485.75 Q24.6719,485.5 24.9375,485.5 Q25.4063,485.5 25.7031,485.7813 Q26,486.0625 26,486.7188 L26,488.2813 Q26,488.9375 25.7188,489.2188 Q25.4375,489.5 25,489.5 Q24.6094,489.5 24.3594,489.3281 Q24.1094,489.1563 24,488.7031 Q23.9531,488.3906 23.7813,488.2188 Q23.4688,487.8906 22.9063,487.7031 Q22.3438,487.5 21.7813,487.5 Q21.0781,487.5 20.4844,487.7813 Q19.9063,488.0625 19.4531,488.6875 Q19,489.3125 19,490.1719 L19,491.0938 Q19,492.125 19.8438,492.8125 Q20.6875,493.5 22.1875,493.5 Q23.0781,493.5 23.7031,493.2969 Q24.0625,493.1875 24.4688,492.8281 Q24.7344,492.625 24.875,492.5625 Q25.0156,492.5 25.1875,492.5 Q25.5156,492.5 25.75,492.7656 Q26,493.0156 26,493.375 Q26,493.7188 25.6563,494.125 Q25.1563,494.7188 24.3594,495.0469 Q23.3125,495.5 22.0313,495.5 Q20.5313,495.5 19.3281,494.9063 Q18.3594,494.4375 17.6719,493.4219 Q17,492.4063 17,491.2031 L17,490.1094 Q17,488.8594 17.5938,487.7656 Q18.2031,486.6719 19.25,486.0938 Q20.3125,485.5 21.5,485.5 Q22.2188,485.5 22.8438,485.75 Q23.4688,486 24,486.5 Z " fill="#000000"/><text fill="#000000" font-family="sans-serif" font-size="12" lengthAdjust="spacing" textLength="102" x="36" y="494.9102">CenterCoordinator</text><line style="stroke:#A80036;stroke-width:1.5;" x1="8" x2="140" y1="506" y2="506"/><!--MD5=[0f39e4cb6f03951afbf6d14bd2505654]
class Address--><rect codeLine="26" fill="#FEFECE" filter="url(#f16hpt10kdfomm)" height="164.5234" id="Address" style="stroke:#A80036;stroke-width:1.5;" width="78" x="289" y="170.5"/><ellipse cx="304" cy="186.5" fill="#ADD1B2" rx="11" ry="11" style="stroke:#A80036;stroke-width:1.0;"/><path d="M306,183 Q306.2031,182.5 306.4375,182.25 Q306.6719,182 306.9375,182 Q307.4063,182 307.7031,182.2813 Q308,182.5625 308,183.2188 L308,184.7813 Q308,185.4375 307.7188,185.7188 Q307.4375,186 307,186 Q306.6094,186 306.3594,185.8281 Q306.1094,185.6563 306,185.2031 Q305.9531,184.8906 305.7813,184.7188 Q305.4688,184.3906 304.9063,184.2031 Q304.3438,184 303.7813,184 Q303.0781,184 302.4844,184.2813 Q301.9063,184.5625 301.4531,185.1875 Q301,185.8125 301,186.6719 L301,187.5938 Q301,188.625 301.8438,189.3125 Q302.6875,190 304.1875,190 Q305.0781,190 305.7031,189.7969 Q306.0625,189.6875 306.4688,189.3281 Q306.7344,189.125 306.875,189.0625 Q307.0156,189 307.1875,189 Q307.5156,189 307.75,189.2656 Q308,189.5156 308,189.875 Q308,190.2188 307.6563,190.625 Q307.1563,191.2188 306.3594,191.5469 Q305.3125,192 304.0313,192 Q302.5313,192 301.3281,191.4063 Q300.3594,190.9375 299.6719,189.9219 Q299,188.9063 299,187.7031 L299,186.6094 Q299,185.3594 299.5938,184.2656 Q300.2031,183.1719 301.25,182.5938 Q302.3125,182 303.5,182 Q304.2188,182 304.8438,182.25 Q305.4688,182.5 306,183 Z " fill="#000000"/><text fill="#000000" font-family="sans-serif" font-size="12" lengthAdjust="spacing" textLength="46" x="318" y="191.4102">Address</text><line style="stroke:#A80036;stroke-width:1.5;" x1="290" x2="366" y1="202.5" y2="202.5"/><text fill="#000000" font-family="sans-serif" font-size="11" lengthAdjust="spacing" textLength="41" x="295" y="217.9189">-country</text><text fill="#000000" font-family="sans-serif" font-size="11" lengthAdjust="spacing" textLength="21" x="295" y="231.7549">-city</text><text fill="#000000" font-family="sans-serif" font-size="11" lengthAdjust="spacing" textLength="37" x="295" y="245.5908">-county</text><text fill="#000000" font-family="sans-serif" font-size="11" lengthAdjust="spacing" textLength="34" x="295" y="259.4268">-parish</text><text fill="#000000" font-family="sans-serif" font-size="11" lengthAdjust="spacing" textLength="32" x="295" y="273.2627">-street</text><text fill="#000000" font-family="sans-serif" font-size="11" lengthAdjust="spacing" textLength="60" x="295" y="287.0986">-portNumber</text><text fill="#000000" font-family="sans-serif" font-size="11" lengthAdjust="spacing" textLength="58" x="295" y="300.9346">-postalCode</text><text fill="#000000" font-family="sans-serif" font-size="11" lengthAdjust="spacing" textLength="26" x="295" y="314.7705">-floor</text><text fill="#000000" font-family="sans-serif" font-size="11" lengthAdjust="spacing" textLength="61" x="295" y="328.6064">-observation</text><!--MD5=[c680266cf9e454ca06c2d1bb8b683e6b]
class Schedule--><rect codeLine="38" fill="#FEFECE" filter="url(#f16hpt10kdfomm)" height="67.6719" id="Schedule" style="stroke:#A80036;stroke-width:1.5;" width="84" x="286" y="371"/><ellipse cx="301" cy="387" fill="#ADD1B2" rx="11" ry="11" style="stroke:#A80036;stroke-width:1.0;"/><path d="M303,383.5 Q303.2031,383 303.4375,382.75 Q303.6719,382.5 303.9375,382.5 Q304.4063,382.5 304.7031,382.7813 Q305,383.0625 305,383.7188 L305,385.2813 Q305,385.9375 304.7188,386.2188 Q304.4375,386.5 304,386.5 Q303.6094,386.5 303.3594,386.3281 Q303.1094,386.1563 303,385.7031 Q302.9531,385.3906 302.7813,385.2188 Q302.4688,384.8906 301.9063,384.7031 Q301.3438,384.5 300.7813,384.5 Q300.0781,384.5 299.4844,384.7813 Q298.9063,385.0625 298.4531,385.6875 Q298,386.3125 298,387.1719 L298,388.0938 Q298,389.125 298.8438,389.8125 Q299.6875,390.5 301.1875,390.5 Q302.0781,390.5 302.7031,390.2969 Q303.0625,390.1875 303.4688,389.8281 Q303.7344,389.625 303.875,389.5625 Q304.0156,389.5 304.1875,389.5 Q304.5156,389.5 304.75,389.7656 Q305,390.0156 305,390.375 Q305,390.7188 304.6563,391.125 Q304.1563,391.7188 303.3594,392.0469 Q302.3125,392.5 301.0313,392.5 Q299.5313,392.5 298.3281,391.9063 Q297.3594,391.4375 296.6719,390.4219 Q296,389.4063 296,388.2031 L296,387.1094 Q296,385.8594 296.5938,384.7656 Q297.2031,383.6719 298.25,383.0938 Q299.3125,382.5 300.5,382.5 Q301.2188,382.5 301.8438,382.75 Q302.4688,383 303,383.5 Z " fill="#000000"/><text fill="#000000" font-family="sans-serif" font-size="12" lengthAdjust="spacing" textLength="52" x="315" y="391.9102">Schedule</text><line style="stroke:#A80036;stroke-width:1.5;" x1="287" x2="369" y1="403" y2="403"/><text fill="#000000" font-family="sans-serif" font-size="11" lengthAdjust="spacing" textLength="71" x="292" y="418.4189">-openingHours</text><text fill="#000000" font-family="sans-serif" font-size="11" lengthAdjust="spacing" textLength="67" x="292" y="432.2549">-closingHours</text><!--MD5=[de60e6d4f424ae4d0522096f76a59010]
class VaccinationCenter--><rect fill="#FEFECE" filter="url(#f16hpt10kdfomm)" height="40" id="VaccinationCenter" style="stroke:#A80036;stroke-width:1.5;" width="132" x="262" y="474"/><ellipse cx="277" cy="490" fill="#ADD1B2" rx="11" ry="11" style="stroke:#A80036;stroke-width:1.0;"/><path d="M279,486.5 Q279.2031,486 279.4375,485.75 Q279.6719,485.5 279.9375,485.5 Q280.4063,485.5 280.7031,485.7813 Q281,486.0625 281,486.7188 L281,488.2813 Q281,488.9375 280.7188,489.2188 Q280.4375,489.5 280,489.5 Q279.6094,489.5 279.3594,489.3281 Q279.1094,489.1563 279,488.7031 Q278.9531,488.3906 278.7813,488.2188 Q278.4688,487.8906 277.9063,487.7031 Q277.3438,487.5 276.7813,487.5 Q276.0781,487.5 275.4844,487.7813 Q274.9063,488.0625 274.4531,488.6875 Q274,489.3125 274,490.1719 L274,491.0938 Q274,492.125 274.8438,492.8125 Q275.6875,493.5 277.1875,493.5 Q278.0781,493.5 278.7031,493.2969 Q279.0625,493.1875 279.4688,492.8281 Q279.7344,492.625 279.875,492.5625 Q280.0156,492.5 280.1875,492.5 Q280.5156,492.5 280.75,492.7656 Q281,493.0156 281,493.375 Q281,493.7188 280.6563,494.125 Q280.1563,494.7188 279.3594,495.0469 Q278.3125,495.5 277.0313,495.5 Q275.5313,495.5 274.3281,494.9063 Q273.3594,494.4375 272.6719,493.4219 Q272,492.4063 272,491.2031 L272,490.1094 Q272,488.8594 272.5938,487.7656 Q273.2031,486.6719 274.25,486.0938 Q275.3125,485.5 276.5,485.5 Q277.2188,485.5 277.8438,485.75 Q278.4688,486 279,486.5 Z " fill="#000000"/><text fill="#000000" font-family="sans-serif" font-size="12" lengthAdjust="spacing" textLength="100" x="291" y="494.9102">VaccinationCenter</text><line style="stroke:#A80036;stroke-width:1.5;" x1="263" x2="393" y1="506" y2="506"/><!--MD5=[ffd436ea6eb8453a38f4088016c22004]
link Administrator to CommunityMassVaccinationCenter--><path codeLine="43" d="M380.65,35.85 C410.21,42.73 446.89,54.49 475,74 C516.33,102.68 551.48,146.96 576.41,184.3 " fill="none" id="Administrator-CommunityMassVaccinationCenter" style="stroke:#A80036;stroke-width:1.0;"/><polygon fill="#000000" points="432.984,44.197,427.5527,36.3898,424.001,41.0733,432.984,44.197" style="stroke:#000000;stroke-width:1.0;"/><text fill="#000000" font-family="sans-serif" font-size="13" lengthAdjust="spacing" textLength="36" x="438" y="46.4951">create</text><text fill="#000000" font-family="sans-serif" font-size="13" lengthAdjust="spacing" textLength="7" x="388.5461" y="51.7394">1</text><text fill="#000000" font-family="sans-serif" font-size="13" lengthAdjust="spacing" textLength="5" x="566.6423" y="173.4334">*</text><!--MD5=[96c98fd8ea72b99bcaa2e061adb16a51]
link VaccinationCenter to CommunityMassVaccinationCenter--><path codeLine="44" d="M367.7,473.86 C376.58,468.73 385.81,462.97 394,457 C443.79,420.71 494.78,374.73 535.36,335.61 " fill="none" id="VaccinationCenter-to-CommunityMassVaccinationCenter" style="stroke:#A80036;stroke-width:1.0;"/><polygon fill="none" points="530.6,330.48,549.81,321.54,540.36,340.51,530.6,330.48" style="stroke:#A80036;stroke-width:1.0;"/><!--MD5=[d5cf03d886352995267197dc535618ec]
link CenterCoordinator to VaccinationCenter--><path codeLine="46" d="M141.21,494 C178.4,494 224.63,494 261.67,494 " fill="none" id="CenterCoordinator-VaccinationCenter" style="stroke:#A80036;stroke-width:1.0;"/><polygon fill="#000000" points="181,485.1758,171.9549,482.2369,171.9549,488.1147,181,485.1758" style="stroke:#000000;stroke-width:1.0;"/><text fill="#000000" font-family="sans-serif" font-size="13" lengthAdjust="spacing" textLength="46" x="185" y="490.4951">manage</text><text fill="#000000" font-family="sans-serif" font-size="13" lengthAdjust="spacing" textLength="7" x="148.9439" y="508.3893">1</text><text fill="#000000" font-family="sans-serif" font-size="13" lengthAdjust="spacing" textLength="7" x="247.0323" y="508.3893">1</text><!--MD5=[314e1519fccc53dfc07fe98510cad9ca]
link Schedule to CommunityMassVaccinationCenter--><path codeLine="48" d="M370.19,383.22 C405.36,364.63 457.62,337 504.96,311.97 " fill="none" id="Schedule-CommunityMassVaccinationCenter" style="stroke:#A80036;stroke-width:1.0;"/><polygon fill="#000000" points="432.0797,322.5127,441.4497,320.8834,438.7025,315.687,432.0797,322.5127" style="stroke:#000000;stroke-width:1.0;"/><text fill="#000000" font-family="sans-serif" font-size="13" lengthAdjust="spacing" textLength="21" x="445.5" y="325.4951">has</text><text fill="#000000" font-family="sans-serif" font-size="13" lengthAdjust="spacing" textLength="7" x="378.043" y="394.4051">1</text><text fill="#000000" font-family="sans-serif" font-size="13" lengthAdjust="spacing" textLength="7" x="490.1636" y="329.9815">1</text><!--MD5=[b055c355537cdfe856918575ff921f12]
link Address to CommunityMassVaccinationCenter--><path codeLine="51" d="M367.18,253 C402.31,253 456.19,253 504.89,253 " fill="none" id="Address-CommunityMassVaccinationCenter" style="stroke:#A80036;stroke-width:1.0;"/><polygon fill="#000000" points="431.5,244.1758,440.5451,247.1147,440.5451,241.2369,431.5,244.1758" style="stroke:#000000;stroke-width:1.0;"/><text fill="#000000" font-family="sans-serif" font-size="13" lengthAdjust="spacing" textLength="21" x="445.5" y="249.4951">has</text><text fill="#000000" font-family="sans-serif" font-size="13" lengthAdjust="spacing" textLength="7" x="375.0491" y="268.0465">1</text><text fill="#000000" font-family="sans-serif" font-size="13" lengthAdjust="spacing" textLength="7" x="490.0889" y="267.0494">1</text><!--MD5=[eaea43e34e45c5b9d20b595fc78f1f20]
link Company to Administrator--><path codeLine="53" d="M116.61,63.73 C160.09,56.14 228.37,44.22 275.29,36.03 " fill="none" id="Company-Administrator" style="stroke:#A80036;stroke-width:1.0;"/><polygon fill="#000000" points="185.4255,34.316,176.0098,32.9762,177.0206,38.7665,185.4255,34.316" style="stroke:#000000;stroke-width:1.0;"/><text fill="#000000" font-family="sans-serif" font-size="13" lengthAdjust="spacing" textLength="37" x="189.5" y="40.4951">knows</text><text fill="#000000" font-family="sans-serif" font-size="13" lengthAdjust="spacing" textLength="7" x="124.5352" y="58.6449">1</text><text fill="#000000" font-family="sans-serif" font-size="13" lengthAdjust="spacing" textLength="5" x="262.5261" y="51.9447">*</text><!--MD5=[8502a704dc9b381ea58589d3b3323a61]
link Company to CommunityMassVaccinationCenter--><path codeLine="54" d="M116.71,79.34 C178.29,92.18 296.73,118.92 394,153 C430.77,165.88 469.85,182.42 504.83,198.32 " fill="none" id="Company-CommunityMassVaccinationCenter" style="stroke:#A80036;stroke-width:1.0;"/><polygon fill="#000000" points="307.2804,106.6412,299.4939,101.1803,297.7712,106.8001,307.2804,106.6412" style="stroke:#000000;stroke-width:1.0;"/><text fill="#000000" font-family="sans-serif" font-size="13" lengthAdjust="spacing" textLength="46" x="311.5" y="110.4951">manage</text><text fill="#000000" font-family="sans-serif" font-size="13" lengthAdjust="spacing" textLength="7" x="124.3635" y="95.5841">1</text><text fill="#000000" font-family="sans-serif" font-size="13" lengthAdjust="spacing" textLength="5" x="492.092" y="208.6956">*</text><!--MD5=[fe46f0bdd56bbd431ae41b9cdd64f918]
@startuml
hide methods
left to right direction
skinparam classAttributeIconSize 0

class Company {
    -designation
}

class Administrator {
}

class CommunityMassVaccinationCenter {
    -name
    -phoneNumber
    -email
    -faxNumber
    -website
    -slotDuration
    -slotVaccineLimit
}

class CenterCoordinator {
}


class Address{
    -country
    -city
    -county
    -parish
    -street
    -portNumber
    -postalCode
    -floor
    -observation
}

class Schedule  {
    -openingHours
    -closingHours
}

Administrator "1" - - "*" CommunityMassVaccinationCenter : create >
VaccinationCenter - -|> CommunityMassVaccinationCenter

CenterCoordinator "1" - - "1" VaccinationCenter : manage >

Schedule "1" - - "1" CommunityMassVaccinationCenter : has <


Address "1" - - "1" CommunityMassVaccinationCenter : has <

Company "1" - - "*" Administrator : knows >
Company "1" - - "*" CommunityMassVaccinationCenter : manage >

@enduml

PlantUML version 1.2022.1(Tue Feb 01 18:19:58 GMT 2022)
(GPL source distribution)
Java Runtime: OpenJDK Runtime Environment
JVM: OpenJDK 64-Bit Server VM
Default Encoding: Cp1252
Language: pt
Country: PT
--></g></svg>