<?xml version="1.0" encoding="UTF-8" standalone="no"?><svg xmlns="http://www.w3.org/2000/svg" xmlns:xlink="http://www.w3.org/1999/xlink" contentScriptType="application/ecmascript" contentStyleType="text/css" height="525px" preserveAspectRatio="none" style="width:1446px;height:525px;background:#FFFFFF;" version="1.1" viewBox="0 0 1446 525" width="1446px" zoomAndPan="magnify"><defs><filter height="300%" id="fu4zo8n1e423y" width="300%" x="-1" y="-1"><feGaussianBlur result="blurOut" stdDeviation="2.0"/><feColorMatrix in="blurOut" result="blurOut2" type="matrix" values="0 0 0 0 0 0 0 0 0 0 0 0 0 0 0 0 0 0 .4 0"/><feOffset dx="4.0" dy="4.0" in="blurOut2" result="blurOut3"/><feBlend in="SourceGraphic" in2="blurOut3" mode="normal"/></filter></defs><g><!--MD5=[02e4b9b7573f1156f41e60aa5b4e25a4]
class Company--><rect codeLine="4" fill="#FEFECE" filter="url(#fu4zo8n1e423y)" height="75.6719" id="Company" style="stroke:#A80036;stroke-width:1.5;" width="131" x="679" y="227.5"/><ellipse cx="714.7" cy="243.5" fill="#ADD1B2" rx="11" ry="11" style="stroke:#A80036;stroke-width:1.0;"/><path d="M716.7,240 Q716.9031,239.5 717.1375,239.25 Q717.3719,239 717.6375,239 Q718.1063,239 718.4031,239.2813 Q718.7,239.5625 718.7,240.2188 L718.7,241.7813 Q718.7,242.4375 718.4188,242.7188 Q718.1375,243 717.7,243 Q717.3094,243 717.0594,242.8281 Q716.8094,242.6563 716.7,242.2031 Q716.6531,241.8906 716.4813,241.7188 Q716.1688,241.3906 715.6063,241.2031 Q715.0438,241 714.4813,241 Q713.7781,241 713.1844,241.2813 Q712.6063,241.5625 712.1531,242.1875 Q711.7,242.8125 711.7,243.6719 L711.7,244.5938 Q711.7,245.625 712.5438,246.3125 Q713.3875,247 714.8875,247 Q715.7781,247 716.4031,246.7969 Q716.7625,246.6875 717.1688,246.3281 Q717.4344,246.125 717.575,246.0625 Q717.7156,246 717.8875,246 Q718.2156,246 718.45,246.2656 Q718.7,246.5156 718.7,246.875 Q718.7,247.2188 718.3563,247.625 Q717.8563,248.2188 717.0594,248.5469 Q716.0125,249 714.7313,249 Q713.2313,249 712.0281,248.4063 Q711.0594,247.9375 710.3719,246.9219 Q709.7,245.9063 709.7,244.7031 L709.7,243.6094 Q709.7,242.3594 710.2938,241.2656 Q710.9031,240.1719 711.95,239.5938 Q713.0125,239 714.2,239 Q714.9188,239 715.5438,239.25 Q716.1688,239.5 716.7,240 Z " fill="#000000"/><text fill="#000000" font-family="sans-serif" font-size="12" lengthAdjust="spacing" textLength="53" x="733.3" y="248.4102">Company</text><line style="stroke:#A80036;stroke-width:1.5;" x1="680" x2="809" y1="259.5" y2="259.5"/><text fill="#000000" font-family="sans-serif" font-size="11" lengthAdjust="spacing" textLength="59" x="685" y="274.9189">-designation</text><text fill="#000000" font-family="sans-serif" font-size="11" lengthAdjust="spacing" textLength="119" x="685" y="288.7549">+getVaccineCenterStore</text><line style="stroke:#A80036;stroke-width:1.5;" x1="680" x2="809" y1="295.1719" y2="295.1719"/><!--MD5=[9501056ca3876c26dd5137ca5e3efea3]
class VaccinationCenter--><rect codeLine="9" fill="#FEFECE" filter="url(#fu4zo8n1e423y)" height="310.8828" id="VaccineCenter" style="stroke:#A80036;stroke-width:1.5;" width="242" x="946.5" y="201"/><ellipse cx="1023.25" cy="217" fill="#ADD1B2" rx="11" ry="11" style="stroke:#A80036;stroke-width:1.0;"/><path d="M1025.25,213.5 Q1025.4531,213 1025.6875,212.75 Q1025.9219,212.5 1026.1875,212.5 Q1026.6563,212.5 1026.9531,212.7813 Q1027.25,213.0625 1027.25,213.7188 L1027.25,215.2813 Q1027.25,215.9375 1026.9688,216.2188 Q1026.6875,216.5 1026.25,216.5 Q1025.8594,216.5 1025.6094,216.3281 Q1025.3594,216.1563 1025.25,215.7031 Q1025.2031,215.3906 1025.0313,215.2188 Q1024.7188,214.8906 1024.1563,214.7031 Q1023.5938,214.5 1023.0313,214.5 Q1022.3281,214.5 1021.7344,214.7813 Q1021.1563,215.0625 1020.7031,215.6875 Q1020.25,216.3125 1020.25,217.1719 L1020.25,218.0938 Q1020.25,219.125 1021.0938,219.8125 Q1021.9375,220.5 1023.4375,220.5 Q1024.3281,220.5 1024.9531,220.2969 Q1025.3125,220.1875 1025.7188,219.8281 Q1025.9844,219.625 1026.125,219.5625 Q1026.2656,219.5 1026.4375,219.5 Q1026.7656,219.5 1027,219.7656 Q1027.25,220.0156 1027.25,220.375 Q1027.25,220.7188 1026.9063,221.125 Q1026.4063,221.7188 1025.6094,222.0469 Q1024.5625,222.5 1023.2813,222.5 Q1021.7813,222.5 1020.5781,221.9063 Q1019.6094,221.4375 1018.9219,220.4219 Q1018.25,219.4063 1018.25,218.2031 L1018.25,217.1094 Q1018.25,215.8594 1018.8438,214.7656 Q1019.4531,213.6719 1020.5,213.0938 Q1021.5625,212.5 1022.75,212.5 Q1023.4688,212.5 1024.0938,212.75 Q1024.7188,213 1025.25,213.5 Z " fill="#000000"/><text fill="#000000" font-family="sans-serif" font-size="12" lengthAdjust="spacing" textLength="80" x="1043.75" y="221.9102">VaccineCenter</text><line style="stroke:#A80036;stroke-width:1.5;" x1="947.5" x2="1187.5" y1="233" y2="233"/><text fill="#000000" font-family="sans-serif" font-size="11" lengthAdjust="spacing" textLength="30" x="952.5" y="248.4189">-name</text><text fill="#000000" font-family="sans-serif" font-size="11" lengthAdjust="spacing" textLength="44" x="952.5" y="262.2549">-address</text><text fill="#000000" font-family="sans-serif" font-size="11" lengthAdjust="spacing" textLength="71" x="952.5" y="276.0908">-phoneNumber</text><text fill="#000000" font-family="sans-serif" font-size="11" lengthAdjust="spacing" textLength="28" x="952.5" y="289.9268">-email</text><text fill="#000000" font-family="sans-serif" font-size="11" lengthAdjust="spacing" textLength="57" x="952.5" y="303.7627">-faxNumber</text><text fill="#000000" font-family="sans-serif" font-size="11" lengthAdjust="spacing" textLength="43" x="952.5" y="317.5986">-website</text><text fill="#000000" font-family="sans-serif" font-size="11" lengthAdjust="spacing" textLength="71" x="952.5" y="331.4346">-openingHours</text><text fill="#000000" font-family="sans-serif" font-size="11" lengthAdjust="spacing" textLength="67" x="952.5" y="345.2705">-closingHours</text><text fill="#000000" font-family="sans-serif" font-size="11" lengthAdjust="spacing" textLength="61" x="952.5" y="359.1064">-slotDuration</text><text fill="#000000" font-family="sans-serif" font-size="11" lengthAdjust="spacing" textLength="82" x="952.5" y="372.9424">-slotVaccineLimit</text><line style="stroke:#A80036;stroke-width:1.5;" x1="947.5" x2="1187.5" y1="379.3594" y2="379.3594"/><text fill="#000000" font-family="sans-serif" font-size="11" lengthAdjust="spacing" textLength="230" x="952.5" y="394.7783">+VaccineCenter(name, address, phoneNumber,</text><text fill="#000000" font-family="sans-serif" font-size="11" lengthAdjust="spacing" textLength="204" x="955.5" y="408.6143">email, faxNumber, website, openingHours,</text><text fill="#000000" font-family="sans-serif" font-size="11" lengthAdjust="spacing" textLength="214" x="955.5" y="422.4502">closingHours, slotDuration, slotVaccineLimit)</text><text fill="#000000" font-family="sans-serif" font-size="11" lengthAdjust="spacing" textLength="94" x="952.5" y="436.2861">-checkName(name)</text><text fill="#000000" font-family="sans-serif" font-size="11" lengthAdjust="spacing" textLength="123" x="952.5" y="450.1221">-checkAddress(address)</text><text fill="#000000" font-family="sans-serif" font-size="11" lengthAdjust="spacing" textLength="175" x="952.5" y="463.958">-checkPhoneNumber(phoneNumber)</text><text fill="#000000" font-family="sans-serif" font-size="11" lengthAdjust="spacing" textLength="89" x="952.5" y="477.7939">-checkEmail(email)</text><text fill="#000000" font-family="sans-serif" font-size="11" lengthAdjust="spacing" textLength="149" x="952.5" y="491.6299">-checkFaxNumber(faxNumber)</text><text fill="#000000" font-family="sans-serif" font-size="11" lengthAdjust="spacing" textLength="119" x="952.5" y="505.4658">-checkWebsite(website)</text><!--MD5=[9f8be421555ef40f73d73ab9e5726964]
class RegisterVaccinationCenterUI--><rect codeLine="29" fill="#FEFECE" filter="url(#fu4zo8n1e423y)" height="48" id="RegisterVaccinationCenterUI" style="stroke:#A80036;stroke-width:1.5;" width="191" x="7" y="312.5"/><ellipse cx="22" cy="328.5" fill="#ADD1B2" rx="11" ry="11" style="stroke:#A80036;stroke-width:1.0;"/><path d="M24,325 Q24.2031,324.5 24.4375,324.25 Q24.6719,324 24.9375,324 Q25.4063,324 25.7031,324.2813 Q26,324.5625 26,325.2188 L26,326.7813 Q26,327.4375 25.7188,327.7188 Q25.4375,328 25,328 Q24.6094,328 24.3594,327.8281 Q24.1094,327.6563 24,327.2031 Q23.9531,326.8906 23.7813,326.7188 Q23.4688,326.3906 22.9063,326.2031 Q22.3438,326 21.7813,326 Q21.0781,326 20.4844,326.2813 Q19.9063,326.5625 19.4531,327.1875 Q19,327.8125 19,328.6719 L19,329.5938 Q19,330.625 19.8438,331.3125 Q20.6875,332 22.1875,332 Q23.0781,332 23.7031,331.7969 Q24.0625,331.6875 24.4688,331.3281 Q24.7344,331.125 24.875,331.0625 Q25.0156,331 25.1875,331 Q25.5156,331 25.75,331.2656 Q26,331.5156 26,331.875 Q26,332.2188 25.6563,332.625 Q25.1563,333.2188 24.3594,333.5469 Q23.3125,334 22.0313,334 Q20.5313,334 19.3281,333.4063 Q18.3594,332.9375 17.6719,331.9219 Q17,330.9063 17,329.7031 L17,328.6094 Q17,327.3594 17.5938,326.2656 Q18.2031,325.1719 19.25,324.5938 Q20.3125,324 21.5,324 Q22.2188,324 22.8438,324.25 Q23.4688,324.5 24,325 Z " fill="#000000"/><text fill="#000000" font-family="sans-serif" font-size="12" lengthAdjust="spacing" textLength="159" x="36" y="333.4102">RegisterVaccinationCenterUI</text><line style="stroke:#A80036;stroke-width:1.5;" x1="8" x2="197" y1="344.5" y2="344.5"/><line style="stroke:#A80036;stroke-width:1.5;" x1="8" x2="197" y1="352.5" y2="352.5"/><!--MD5=[839d5397894ca7c2829f7ab2dfdd9d6b]
class RegisterVaccinationCenterController--><rect codeLine="32" fill="#FEFECE" filter="url(#fu4zo8n1e423y)" height="144.8516" id="RegisterVaccinationCenterController" style="stroke:#A80036;stroke-width:1.5;" width="359" x="259" y="264"/><ellipse cx="333.75" cy="280" fill="#ADD1B2" rx="11" ry="11" style="stroke:#A80036;stroke-width:1.0;"/><path d="M335.75,276.5 Q335.9531,276 336.1875,275.75 Q336.4219,275.5 336.6875,275.5 Q337.1563,275.5 337.4531,275.7813 Q337.75,276.0625 337.75,276.7188 L337.75,278.2813 Q337.75,278.9375 337.4688,279.2188 Q337.1875,279.5 336.75,279.5 Q336.3594,279.5 336.1094,279.3281 Q335.8594,279.1563 335.75,278.7031 Q335.7031,278.3906 335.5313,278.2188 Q335.2188,277.8906 334.6563,277.7031 Q334.0938,277.5 333.5313,277.5 Q332.8281,277.5 332.2344,277.7813 Q331.6563,278.0625 331.2031,278.6875 Q330.75,279.3125 330.75,280.1719 L330.75,281.0938 Q330.75,282.125 331.5938,282.8125 Q332.4375,283.5 333.9375,283.5 Q334.8281,283.5 335.4531,283.2969 Q335.8125,283.1875 336.2188,282.8281 Q336.4844,282.625 336.625,282.5625 Q336.7656,282.5 336.9375,282.5 Q337.2656,282.5 337.5,282.7656 Q337.75,283.0156 337.75,283.375 Q337.75,283.7188 337.4063,284.125 Q336.9063,284.7188 336.1094,285.0469 Q335.0625,285.5 333.7813,285.5 Q332.2813,285.5 331.0781,284.9063 Q330.1094,284.4375 329.4219,283.4219 Q328.75,282.4063 328.75,281.2031 L328.75,280.1094 Q328.75,278.8594 329.3438,277.7656 Q329.9531,276.6719 331,276.0938 Q332.0625,275.5 333.25,275.5 Q333.9688,275.5 334.5938,275.75 Q335.2188,276 335.75,276.5 Z " fill="#000000"/><text fill="#000000" font-family="sans-serif" font-size="12" lengthAdjust="spacing" textLength="201" x="354.25" y="284.9102">RegisterVaccinationCenterController</text><line style="stroke:#A80036;stroke-width:1.5;" x1="260" x2="617" y1="296" y2="296"/><text fill="#000000" font-family="sans-serif" font-size="11" lengthAdjust="spacing" textLength="48" x="265" y="311.4189">-company</text><text fill="#000000" font-family="sans-serif" font-size="11" lengthAdjust="spacing" textLength="16" x="265" y="325.2549">-vc</text><text fill="#000000" font-family="sans-serif" font-size="11" lengthAdjust="spacing" textLength="29" x="265" y="339.0908">-store</text><line style="stroke:#A80036;stroke-width:1.5;" x1="260" x2="617" y1="345.5078" y2="345.5078"/><text fill="#000000" font-family="sans-serif" font-size="11" lengthAdjust="spacing" textLength="347" x="265" y="360.9268">+createVaccineCenter(name,address, phoneNumber, email, faxNumber,</text><text fill="#000000" font-family="sans-serif" font-size="11" lengthAdjust="spacing" textLength="332" x="265" y="374.7627">website, openingHours, closingHours, slotDuration, slotVaccineLimit)</text><text fill="#000000" font-family="sans-serif" font-size="11" lengthAdjust="spacing" textLength="209" x="265" y="388.5986">+createSchedule(hours, minutes, seconds)</text><text fill="#000000" font-family="sans-serif" font-size="11" lengthAdjust="spacing" textLength="110" x="265" y="402.4346">+saveVaccineCenter()</text><!--MD5=[f8249b525ef5fd0f85a96dfc61142191]
class VaccinationCenterStore--><rect codeLine="41" fill="#FEFECE" filter="url(#fu4zo8n1e423y)" height="158.6875" id="VaccineCenterStore" style="stroke:#A80036;stroke-width:1.5;" width="273" x="931" y="7"/><ellipse cx="1008.75" cy="23" fill="#ADD1B2" rx="11" ry="11" style="stroke:#A80036;stroke-width:1.0;"/><path d="M1010.75,19.5 Q1010.9531,19 1011.1875,18.75 Q1011.4219,18.5 1011.6875,18.5 Q1012.1563,18.5 1012.4531,18.7813 Q1012.75,19.0625 1012.75,19.7188 L1012.75,21.2813 Q1012.75,21.9375 1012.4688,22.2188 Q1012.1875,22.5 1011.75,22.5 Q1011.3594,22.5 1011.1094,22.3281 Q1010.8594,22.1563 1010.75,21.7031 Q1010.7031,21.3906 1010.5313,21.2188 Q1010.2188,20.8906 1009.6563,20.7031 Q1009.0938,20.5 1008.5313,20.5 Q1007.8281,20.5 1007.2344,20.7813 Q1006.6563,21.0625 1006.2031,21.6875 Q1005.75,22.3125 1005.75,23.1719 L1005.75,24.0938 Q1005.75,25.125 1006.5938,25.8125 Q1007.4375,26.5 1008.9375,26.5 Q1009.8281,26.5 1010.4531,26.2969 Q1010.8125,26.1875 1011.2188,25.8281 Q1011.4844,25.625 1011.625,25.5625 Q1011.7656,25.5 1011.9375,25.5 Q1012.2656,25.5 1012.5,25.7656 Q1012.75,26.0156 1012.75,26.375 Q1012.75,26.7188 1012.4063,27.125 Q1011.9063,27.7188 1011.1094,28.0469 Q1010.0625,28.5 1008.7813,28.5 Q1007.2813,28.5 1006.0781,27.9063 Q1005.1094,27.4375 1004.4219,26.4219 Q1003.75,25.4063 1003.75,24.2031 L1003.75,23.1094 Q1003.75,21.8594 1004.3438,20.7656 Q1004.9531,19.6719 1006,19.0938 Q1007.0625,18.5 1008.25,18.5 Q1008.9688,18.5 1009.5938,18.75 Q1010.2188,19 1010.75,19.5 Z " fill="#000000"/><text fill="#000000" font-family="sans-serif" font-size="12" lengthAdjust="spacing" textLength="109" x="1029.25" y="27.9102">VaccineCenterStore</text><line style="stroke:#A80036;stroke-width:1.5;" x1="932" x2="1203" y1="39" y2="39"/><text fill="#000000" font-family="sans-serif" font-size="11" lengthAdjust="spacing" textLength="91" x="937" y="54.4189">-vaccineCenterList</text><line style="stroke:#A80036;stroke-width:1.5;" x1="932" x2="1203" y1="60.8359" y2="60.8359"/><text fill="#000000" font-family="sans-serif" font-size="11" lengthAdjust="spacing" textLength="261" x="937" y="76.2549">+createVaccineCenter(name, address, phoneNumber,</text><text fill="#000000" font-family="sans-serif" font-size="11" lengthAdjust="spacing" textLength="204" x="940" y="90.0908">email, faxNumber, website, openingHours,</text><text fill="#000000" font-family="sans-serif" font-size="11" lengthAdjust="spacing" textLength="214" x="940" y="103.9268">closingHours, slotDuration, slotVaccineLimit)</text><text fill="#000000" font-family="sans-serif" font-size="11" lengthAdjust="spacing" textLength="209" x="937" y="117.7627">+createSchedule(hours, minutes, seconds)</text><text fill="#000000" font-family="sans-serif" font-size="11" lengthAdjust="spacing" textLength="135" x="937" y="131.5986">+validateVaccineCenter(vc)</text><text fill="#000000" font-family="sans-serif" font-size="11" lengthAdjust="spacing" textLength="122" x="937" y="145.4346">+saveVaccineCenter(vc)</text><text fill="#000000" font-family="sans-serif" font-size="11" lengthAdjust="spacing" textLength="114" x="937" y="159.2705">-addVaccineCenter(vc)</text><!--MD5=[2e42295458bb0bec21c9622a623eb29e]
class Time--><rect codeLine="50" fill="#FEFECE" filter="url(#fu4zo8n1e423y)" height="172.5234" id="Time" style="stroke:#A80036;stroke-width:1.5;" width="167" x="1265" y="270"/><ellipse cx="1330.25" cy="286" fill="#ADD1B2" rx="11" ry="11" style="stroke:#A80036;stroke-width:1.0;"/><path d="M1332.25,282.5 Q1332.4531,282 1332.6875,281.75 Q1332.9219,281.5 1333.1875,281.5 Q1333.6563,281.5 1333.9531,281.7813 Q1334.25,282.0625 1334.25,282.7188 L1334.25,284.2813 Q1334.25,284.9375 1333.9688,285.2188 Q1333.6875,285.5 1333.25,285.5 Q1332.8594,285.5 1332.6094,285.3281 Q1332.3594,285.1563 1332.25,284.7031 Q1332.2031,284.3906 1332.0313,284.2188 Q1331.7188,283.8906 1331.1563,283.7031 Q1330.5938,283.5 1330.0313,283.5 Q1329.3281,283.5 1328.7344,283.7813 Q1328.1563,284.0625 1327.7031,284.6875 Q1327.25,285.3125 1327.25,286.1719 L1327.25,287.0938 Q1327.25,288.125 1328.0938,288.8125 Q1328.9375,289.5 1330.4375,289.5 Q1331.3281,289.5 1331.9531,289.2969 Q1332.3125,289.1875 1332.7188,288.8281 Q1332.9844,288.625 1333.125,288.5625 Q1333.2656,288.5 1333.4375,288.5 Q1333.7656,288.5 1334,288.7656 Q1334.25,289.0156 1334.25,289.375 Q1334.25,289.7188 1333.9063,290.125 Q1333.4063,290.7188 1332.6094,291.0469 Q1331.5625,291.5 1330.2813,291.5 Q1328.7813,291.5 1327.5781,290.9063 Q1326.6094,290.4375 1325.9219,289.4219 Q1325.25,288.4063 1325.25,287.2031 L1325.25,286.1094 Q1325.25,284.8594 1325.8438,283.7656 Q1326.4531,282.6719 1327.5,282.0938 Q1328.5625,281.5 1329.75,281.5 Q1330.4688,281.5 1331.0938,281.75 Q1331.7188,282 1332.25,282.5 Z " fill="#000000"/><text fill="#000000" font-family="sans-serif" font-size="12" lengthAdjust="spacing" textLength="28" x="1350.75" y="290.9102">Time</text><line style="stroke:#A80036;stroke-width:1.5;" x1="1266" x2="1431" y1="302" y2="302"/><text fill="#000000" font-family="sans-serif" font-size="11" lengthAdjust="spacing" textLength="32" x="1271" y="317.4189">-hours</text><text fill="#000000" font-family="sans-serif" font-size="11" lengthAdjust="spacing" textLength="41" x="1271" y="331.2549">-minutes</text><text fill="#000000" font-family="sans-serif" font-size="11" lengthAdjust="spacing" textLength="46" x="1271" y="345.0908">-seconds</text><line style="stroke:#A80036;stroke-width:1.5;" x1="1266" x2="1431" y1="351.5078" y2="351.5078"/><text fill="#000000" font-family="sans-serif" font-size="11" lengthAdjust="spacing" textLength="155" x="1271" y="366.9268">+Time(hours, minutes, seconds)</text><text fill="#000000" font-family="sans-serif" font-size="11" lengthAdjust="spacing" textLength="98" x="1271" y="380.7627">-checkHours(hours)</text><text fill="#000000" font-family="sans-serif" font-size="11" lengthAdjust="spacing" textLength="115" x="1271" y="394.5986">-checkMinutes(minutes)</text><text fill="#000000" font-family="sans-serif" font-size="11" lengthAdjust="spacing" textLength="126" x="1271" y="408.4346">-checkSeconds(seconds)</text><text fill="#000000" font-family="sans-serif" font-size="11" lengthAdjust="spacing" textLength="51" x="1271" y="422.2705">+toString()</text><text fill="#000000" font-family="sans-serif" font-size="11" lengthAdjust="spacing" textLength="95" x="1271" y="436.1064">+toStringHHMMSS()</text><!--MD5=[3707ceef165f033caf0f720e17080648]
link RegisterVaccinationCenterUI to RegisterVaccinationCenterController--><path codeLine="63" d="M198.32,336.5 C215.77,336.5 234.52,336.5 253.58,336.5 " fill="none" id="RegisterVaccinationCenterUI-to-RegisterVaccinationCenterController" style="stroke:#A80036;stroke-width:1.0;stroke-dasharray:7.0,7.0;"/><polygon fill="#A80036" points="258.96,336.5,249.96,332.5,253.96,336.5,249.96,340.5,258.96,336.5" style="stroke:#A80036;stroke-width:1.0;"/><!--MD5=[c9c3cd8f1910cdf41012410901746d61]
link RegisterVaccinationCenterController to Company--><path codeLine="64" d="M618.1,294.79 C637.66,290.22 656.61,285.79 673.61,281.82 " fill="none" id="RegisterVaccinationCenterController-to-Company" style="stroke:#A80036;stroke-width:1.0;stroke-dasharray:7.0,7.0;"/><polygon fill="#A80036" points="678.82,280.61,669.1443,278.7714,673.9522,281.752,670.9715,286.5599,678.82,280.61" style="stroke:#A80036;stroke-width:1.0;"/><!--MD5=[4d82ca6d2f7fab3007df881617e3ae55]
link RegisterVaccinationCenterController to VaccinationCenter--><path codeLine="65" d="M618.33,342.2 C721.53,345.5 848.77,349.55 941.27,352.51 " fill="none" id="RegisterVaccinationCenterController-to-VaccineCenter" style="stroke:#A80036;stroke-width:1.0;stroke-dasharray:7.0,7.0;"/><polygon fill="#A80036" points="946.48,352.67,937.6101,348.3893,941.4825,352.5129,937.3588,356.3853,946.48,352.67" style="stroke:#A80036;stroke-width:1.0;"/><!--MD5=[74edb4145c9bd21babf4608079128122]
link Company to VaccinationCenter--><path codeLine="66" d="M810.07,283.81 C849.07,294.86 900,309.3 946.18,322.39 " fill="none" id="Company-VaccineCenter" style="stroke:#A80036;stroke-width:1.0;"/><polygon fill="#000000" points="849.8105,284.0393,841.9097,278.7451,840.3068,284.4002,849.8105,284.0393" style="stroke:#000000;stroke-width:1.0;"/><text fill="#000000" font-family="sans-serif" font-size="13" lengthAdjust="spacing" textLength="46" x="854" y="287.9951">manage</text><text fill="#000000" font-family="sans-serif" font-size="13" lengthAdjust="spacing" textLength="7" x="818.0562" y="300.3865">1</text><text fill="#000000" font-family="sans-serif" font-size="13" lengthAdjust="spacing" textLength="5" x="933.6347" y="334.3083">*</text><!--MD5=[c26f78c806406f100efb659cdcdabe5b]
link Company to VaccinationCenterStore--><path codeLine="67" d="M810.07,229.49 C844.77,210.15 888.91,185.53 930.75,162.2 " fill="none" id="Company-VaccineCenterStore" style="stroke:#A80036;stroke-width:1.0;"/><polygon fill="#000000" points="858.367,170.2408,849.0358,172.0789,851.8983,177.2126,858.367,170.2408" style="stroke:#000000;stroke-width:1.0;"/><text fill="#000000" font-family="sans-serif" font-size="13" lengthAdjust="spacing" textLength="28" x="863" y="177.9951">uses</text><text fill="#000000" font-family="sans-serif" font-size="13" lengthAdjust="spacing" textLength="7" x="818.0562" y="239.7858">1</text><text fill="#000000" font-family="sans-serif" font-size="13" lengthAdjust="spacing" textLength="7" x="916.0801" y="180.2906">1</text><!--MD5=[bbb47ac5b650740cb315a9ed3f3f7c90]
reverse link VaccinationCenter to Time--><path codeLine="68" d="M1202.14,356.5 C1223.55,356.5 1245.15,356.5 1264.91,356.5 " fill="none" id="VaccineCenter-backto-Time" style="stroke:#A80036;stroke-width:1.0;stroke-dasharray:7.0,7.0;"/><polygon fill="#A80036" points="1188.85,356.5,1194.85,360.5,1200.85,356.5,1194.85,352.5,1188.85,356.5" style="stroke:#A80036;stroke-width:1.0;"/><!--MD5=[510ed5d5cfbb75d35f160db13782a04d]
@startuml
skinparam classAttributeIconSize 0
left to right direction

class Company {
    -designation
    +getVaccineCenterStore
}

class VaccinationCenter {
    -name
    -address
    -phoneNumber
    -email
    -faxNumber
    -website
    -openingHours
    -closingHours
    -slotDuration
    -slotVaccineLimit
    +VaccinationCenter(name, address, phoneNumber,\n email, faxNumber, website, openingHours,\n closingHours, slotDuration, slotVaccineLimit)
    -checkName(name)
    -checkAddress(address)
    -checkPhoneNumber(phoneNumber)
    -checkEmail(email)
    -checkFaxNumber(faxNumber)
    -checkWebsite(website)
}

class RegisterVaccinationCenterUI {
}

class RegisterVaccinationCenterController {
   -company
   -vc
   -store
   +createVaccineCenter(name,address, phoneNumber, email, faxNumber,
      website, openingHours, closingHours, slotDuration, slotVaccineLimit)
   +createSchedule(hours, minutes, seconds)
   +saveVaccineCenter()
}
class VaccinationCenterStore {
    -vaccineCenterList
    +createVaccineCenter(name, address, phoneNumber,\n email, faxNumber, website, openingHours,\n closingHours, slotDuration, slotVaccineLimit)
    +createSchedule(hours, minutes, seconds)
    +validateVaccineCenter(vc)
    +saveVaccineCenter(vc)
    -addVaccineCenter(vc)
}

class Time{
-hours
-minutes
-seconds
+ Time(hours, minutes, seconds)
-checkHours(hours)
-checkMinutes(minutes)
-checkSeconds(seconds)
+toString()
+toStringHHMMSS()
}


RegisterVaccinationCenterUI ..> RegisterVaccinationCenterController
RegisterVaccinationCenterController ..> Company
RegisterVaccinationCenterController ..> VaccinationCenter
Company "1" - - "*" VaccinationCenter : manage >
Company "1" - - "1" VaccinationCenterStore : uses >
VaccinationCenter *.. Time
@enduml

PlantUML version 1.2022.1(Tue Feb 01 18:19:58 GMT 2022)
(GPL source distribution)
Java Runtime: OpenJDK Runtime Environment
JVM: OpenJDK 64-Bit Server VM
Default Encoding: Cp1252
Language: pt
Country: PT
--></g></svg>