<?xml version="1.0" encoding="UTF-8" standalone="no"?><svg xmlns="http://www.w3.org/2000/svg" xmlns:xlink="http://www.w3.org/1999/xlink" contentScriptType="application/ecmascript" contentStyleType="text/css" height="317.7px" preserveAspectRatio="none" style="width:859px;height:317px;background:#FFFFFF;" version="1.1" viewBox="0 0 859 317" width="859.5px" zoomAndPan="magnify"><defs><filter height="300%" id="f12vhe4t9ophsi" width="300%" x="-1" y="-1"><feGaussianBlur result="blurOut" stdDeviation="1.8"/><feColorMatrix in="blurOut" result="blurOut2" type="matrix" values="0 0 0 0 0 0 0 0 0 0 0 0 0 0 0 0 0 0 .4 0"/><feOffset dx="3.6" dy="3.6" in="blurOut2" result="blurOut3"/><feBlend in="SourceGraphic" in2="blurOut3" mode="normal"/></filter></defs><g><!--MD5=[02e4b9b7573f1156f41e60aa5b4e25a4]
class Company--><rect codeLine="5" fill="#FEFECE" filter="url(#f12vhe4t9ophsi)" height="48.4523" id="Company" style="stroke:#A80036;stroke-width:1.35;" width="76.5" x="27.45" y="22.8208"/><ellipse cx="40.95" cy="37.2208" fill="#ADD1B2" rx="9.9" ry="9.9" style="stroke:#A80036;stroke-width:0.9;"/><path d="M42.75,34.0708 Q42.9328,33.6208 43.1438,33.3958 Q43.3547,33.1708 43.5938,33.1708 Q44.0156,33.1708 44.2828,33.4239 Q44.55,33.6771 44.55,34.2677 L44.55,35.6739 Q44.55,36.2646 44.2969,36.5177 Q44.0438,36.7708 43.65,36.7708 Q43.2984,36.7708 43.0734,36.6161 Q42.8484,36.4614 42.75,36.0536 Q42.7078,35.7724 42.5531,35.6177 Q42.2719,35.3224 41.7656,35.1536 Q41.2594,34.9708 40.7531,34.9708 Q40.1203,34.9708 39.5859,35.2239 Q39.0656,35.4771 38.6578,36.0396 Q38.25,36.6021 38.25,37.3755 L38.25,38.2052 Q38.25,39.1333 39.0094,39.7521 Q39.7688,40.3708 41.1188,40.3708 Q41.9203,40.3708 42.4828,40.188 Q42.8063,40.0896 43.1719,39.7661 Q43.4109,39.5833 43.5375,39.5271 Q43.6641,39.4708 43.8188,39.4708 Q44.1141,39.4708 44.325,39.7099 Q44.55,39.9349 44.55,40.2583 Q44.55,40.5677 44.2406,40.9333 Q43.7906,41.4677 43.0734,41.763 Q42.1313,42.1708 40.9781,42.1708 Q39.6281,42.1708 38.5453,41.6364 Q37.6734,41.2146 37.0547,40.3005 Q36.45,39.3864 36.45,38.3036 L36.45,37.3192 Q36.45,36.1942 36.9844,35.2099 Q37.5328,34.2255 38.475,33.7052 Q39.4313,33.1708 40.5,33.1708 Q41.1469,33.1708 41.7094,33.3958 Q42.2719,33.6208 42.75,34.0708 Z " fill="#000000"/><text fill="#000000" font-family="sans-serif" font-size="10.8" lengthAdjust="spacing" textLength="47.7" x="53.55" y="41.6399">Company</text><line style="stroke:#A80036;stroke-width:1.35;" x1="28.35" x2="103.05" y1="51.6208" y2="51.6208"/><text fill="#000000" font-family="sans-serif" font-size="9.9" lengthAdjust="spacing" textLength="53.1" x="32.85" y="65.4979">-designation</text><!--MD5=[72be06cc7ae02ccc98efe28a50e62246]
class SNSUser--><rect codeLine="9" fill="#FEFECE" filter="url(#f12vhe4t9ophsi)" height="123.1664" id="SNSUser" style="stroke:#A80036;stroke-width:1.35;" width="96.3" x="234" y="34.0708"/><ellipse cx="256.815" cy="48.4708" fill="#ADD1B2" rx="9.9" ry="9.9" style="stroke:#A80036;stroke-width:0.9;"/><path d="M258.615,45.3208 Q258.7978,44.8708 259.0088,44.6458 Q259.2197,44.4208 259.4588,44.4208 Q259.8806,44.4208 260.1478,44.6739 Q260.415,44.9271 260.415,45.5177 L260.415,46.9239 Q260.415,47.5146 260.1619,47.7677 Q259.9088,48.0208 259.515,48.0208 Q259.1634,48.0208 258.9384,47.8661 Q258.7134,47.7114 258.615,47.3036 Q258.5728,47.0224 258.4181,46.8677 Q258.1369,46.5724 257.6306,46.4036 Q257.1244,46.2208 256.6181,46.2208 Q255.9853,46.2208 255.4509,46.4739 Q254.9306,46.7271 254.5228,47.2896 Q254.115,47.8521 254.115,48.6255 L254.115,49.4552 Q254.115,50.3833 254.8744,51.0021 Q255.6338,51.6208 256.9838,51.6208 Q257.7853,51.6208 258.3478,51.438 Q258.6713,51.3396 259.0369,51.0161 Q259.2759,50.8333 259.4025,50.7771 Q259.5291,50.7208 259.6838,50.7208 Q259.9791,50.7208 260.19,50.9599 Q260.415,51.1849 260.415,51.5083 Q260.415,51.8177 260.1056,52.1833 Q259.6556,52.7177 258.9384,53.013 Q257.9963,53.4208 256.8431,53.4208 Q255.4931,53.4208 254.4103,52.8864 Q253.5384,52.4646 252.9197,51.5505 Q252.315,50.6364 252.315,49.5536 L252.315,48.5692 Q252.315,47.4442 252.8494,46.4599 Q253.3978,45.4755 254.34,44.9552 Q255.2963,44.4208 256.365,44.4208 Q257.0119,44.4208 257.5744,44.6458 Q258.1369,44.8708 258.615,45.3208 Z " fill="#000000"/><text fill="#000000" font-family="sans-serif" font-size="10.8" lengthAdjust="spacing" textLength="46.8" x="271.485" y="52.8899">SNSUser</text><line style="stroke:#A80036;stroke-width:1.35;" x1="234.9" x2="329.4" y1="62.8708" y2="62.8708"/><text fill="#000000" font-family="sans-serif" font-size="9.9" lengthAdjust="spacing" textLength="27" x="239.4" y="76.7479">-name</text><text fill="#000000" font-family="sans-serif" font-size="9.9" lengthAdjust="spacing" textLength="19.8" x="239.4" y="89.2002">-sex</text><text fill="#000000" font-family="sans-serif" font-size="9.9" lengthAdjust="spacing" textLength="63.9" x="239.4" y="101.6525">-phoneNumber</text><text fill="#000000" font-family="sans-serif" font-size="9.9" lengthAdjust="spacing" textLength="25.2" x="239.4" y="114.1049">-email</text><text fill="#000000" font-family="sans-serif" font-size="9.9" lengthAdjust="spacing" textLength="42.3" x="239.4" y="126.5572">-birthDate</text><text fill="#000000" font-family="sans-serif" font-size="9.9" lengthAdjust="spacing" textLength="55.8" x="239.4" y="139.0096">-SNSNumber</text><text fill="#000000" font-family="sans-serif" font-size="9.9" lengthAdjust="spacing" textLength="85.5" x="239.4" y="151.4619">-citizenCardNumber</text><!--MD5=[8d21a970f1bd1e0e0584d0ecf91221be]
class ScheduleVaccine--><rect codeLine="19" fill="#FEFECE" filter="url(#f12vhe4t9ophsi)" height="60.9047" id="ScheduleVaccine" style="stroke:#A80036;stroke-width:1.35;" width="114.3" x="441.45" y="176.7208"/><ellipse cx="454.95" cy="191.1208" fill="#ADD1B2" rx="9.9" ry="9.9" style="stroke:#A80036;stroke-width:0.9;"/><path d="M456.75,187.9708 Q456.9328,187.5208 457.1438,187.2958 Q457.3547,187.0708 457.5938,187.0708 Q458.0156,187.0708 458.2828,187.3239 Q458.55,187.5771 458.55,188.1677 L458.55,189.5739 Q458.55,190.1646 458.2969,190.4177 Q458.0438,190.6708 457.65,190.6708 Q457.2984,190.6708 457.0734,190.5161 Q456.8484,190.3614 456.75,189.9536 Q456.7078,189.6724 456.5531,189.5177 Q456.2719,189.2224 455.7656,189.0536 Q455.2594,188.8708 454.7531,188.8708 Q454.1203,188.8708 453.5859,189.1239 Q453.0656,189.3771 452.6578,189.9396 Q452.25,190.5021 452.25,191.2755 L452.25,192.1052 Q452.25,193.0333 453.0094,193.6521 Q453.7688,194.2708 455.1188,194.2708 Q455.9203,194.2708 456.4828,194.088 Q456.8063,193.9896 457.1719,193.6661 Q457.4109,193.4833 457.5375,193.4271 Q457.6641,193.3708 457.8188,193.3708 Q458.1141,193.3708 458.325,193.6099 Q458.55,193.8349 458.55,194.1583 Q458.55,194.4677 458.2406,194.8333 Q457.7906,195.3677 457.0734,195.663 Q456.1313,196.0708 454.9781,196.0708 Q453.6281,196.0708 452.5453,195.5364 Q451.6734,195.1146 451.0547,194.2005 Q450.45,193.2864 450.45,192.2036 L450.45,191.2192 Q450.45,190.0942 450.9844,189.1099 Q451.5328,188.1255 452.475,187.6052 Q453.4313,187.0708 454.5,187.0708 Q455.1469,187.0708 455.7094,187.2958 Q456.2719,187.5208 456.75,187.9708 Z " fill="#000000"/><text fill="#000000" font-family="sans-serif" font-size="10.8" lengthAdjust="spacing" textLength="85.5" x="467.55" y="195.5399">ScheduleVaccine</text><line style="stroke:#A80036;stroke-width:1.35;" x1="442.35" x2="554.85" y1="205.5208" y2="205.5208"/><text fill="#000000" font-family="sans-serif" font-size="9.9" lengthAdjust="spacing" textLength="22.5" x="446.85" y="219.3979">-date</text><text fill="#000000" font-family="sans-serif" font-size="9.9" lengthAdjust="spacing" textLength="20.7" x="446.85" y="231.8502">-time</text><!--MD5=[56872536300a053cf9fd13853ad6ab1e]
class CommunityMassVaccinationCenter--><rect codeLine="25" fill="#FEFECE" filter="url(#f12vhe4t9ophsi)" height="123.1664" id="CommunityMassVaccinationCenter" style="stroke:#A80036;stroke-width:1.35;" width="202.5" x="644.4" y="75.4708"/><ellipse cx="657.9" cy="89.8708" fill="#ADD1B2" rx="9.9" ry="9.9" style="stroke:#A80036;stroke-width:0.9;"/><path d="M659.7,86.7208 Q659.8828,86.2708 660.0938,86.0458 Q660.3047,85.8208 660.5438,85.8208 Q660.9656,85.8208 661.2328,86.0739 Q661.5,86.3271 661.5,86.9177 L661.5,88.3239 Q661.5,88.9146 661.2469,89.1677 Q660.9938,89.4208 660.6,89.4208 Q660.2484,89.4208 660.0234,89.2661 Q659.7984,89.1114 659.7,88.7036 Q659.6578,88.4224 659.5031,88.2677 Q659.2219,87.9724 658.7156,87.8036 Q658.2094,87.6208 657.7031,87.6208 Q657.0703,87.6208 656.5359,87.8739 Q656.0156,88.1271 655.6078,88.6896 Q655.2,89.2521 655.2,90.0255 L655.2,90.8552 Q655.2,91.7833 655.9594,92.4021 Q656.7188,93.0208 658.0688,93.0208 Q658.8703,93.0208 659.4328,92.838 Q659.7563,92.7396 660.1219,92.4161 Q660.3609,92.2333 660.4875,92.1771 Q660.6141,92.1208 660.7688,92.1208 Q661.0641,92.1208 661.275,92.3599 Q661.5,92.5849 661.5,92.9083 Q661.5,93.2177 661.1906,93.5833 Q660.7406,94.1177 660.0234,94.413 Q659.0813,94.8208 657.9281,94.8208 Q656.5781,94.8208 655.4953,94.2864 Q654.6234,93.8646 654.0047,92.9505 Q653.4,92.0364 653.4,90.9536 L653.4,89.9692 Q653.4,88.8442 653.9344,87.8599 Q654.4828,86.8755 655.425,86.3552 Q656.3813,85.8208 657.45,85.8208 Q658.0969,85.8208 658.6594,86.0458 Q659.2219,86.2708 659.7,86.7208 Z " fill="#000000"/><text fill="#000000" font-family="sans-serif" font-size="10.8" lengthAdjust="spacing" textLength="173.7" x="670.5" y="94.2899">CommunityMassVaccinationCenter</text><line style="stroke:#A80036;stroke-width:1.35;" x1="645.3" x2="846" y1="104.2708" y2="104.2708"/><text fill="#000000" font-family="sans-serif" font-size="9.9" lengthAdjust="spacing" textLength="27" x="649.8" y="118.1479">-name</text><text fill="#000000" font-family="sans-serif" font-size="9.9" lengthAdjust="spacing" textLength="63.9" x="649.8" y="130.6002">-phoneNumber</text><text fill="#000000" font-family="sans-serif" font-size="9.9" lengthAdjust="spacing" textLength="25.2" x="649.8" y="143.0525">-email</text><text fill="#000000" font-family="sans-serif" font-size="9.9" lengthAdjust="spacing" textLength="51.3" x="649.8" y="155.5049">-faxNumber</text><text fill="#000000" font-family="sans-serif" font-size="9.9" lengthAdjust="spacing" textLength="38.7" x="649.8" y="167.9572">-website</text><text fill="#000000" font-family="sans-serif" font-size="9.9" lengthAdjust="spacing" textLength="54.9" x="649.8" y="180.4096">-slotDuration</text><text fill="#000000" font-family="sans-serif" font-size="9.9" lengthAdjust="spacing" textLength="73.8" x="649.8" y="192.8619">-slotVaccineLimit</text><!--MD5=[de60e6d4f424ae4d0522096f76a59010]
class VaccinationCenter--><rect codeLine="35" fill="#FEFECE" filter="url(#f12vhe4t9ophsi)" height="36" id="VaccinationCenter" style="stroke:#A80036;stroke-width:1.35;" width="118.8" x="439.2" y="269.4208"/><ellipse cx="452.7" cy="283.8208" fill="#ADD1B2" rx="9.9" ry="9.9" style="stroke:#A80036;stroke-width:0.9;"/><path d="M454.5,280.6708 Q454.6828,280.2208 454.8938,279.9958 Q455.1047,279.7708 455.3438,279.7708 Q455.7656,279.7708 456.0328,280.0239 Q456.3,280.2771 456.3,280.8677 L456.3,282.2739 Q456.3,282.8646 456.0469,283.1177 Q455.7938,283.3708 455.4,283.3708 Q455.0484,283.3708 454.8234,283.2161 Q454.5984,283.0614 454.5,282.6536 Q454.4578,282.3724 454.3031,282.2177 Q454.0219,281.9224 453.5156,281.7536 Q453.0094,281.5708 452.5031,281.5708 Q451.8703,281.5708 451.3359,281.8239 Q450.8156,282.0771 450.4078,282.6396 Q450,283.2021 450,283.9755 L450,284.8052 Q450,285.7333 450.7594,286.3521 Q451.5188,286.9708 452.8688,286.9708 Q453.6703,286.9708 454.2328,286.788 Q454.5563,286.6896 454.9219,286.3661 Q455.1609,286.1833 455.2875,286.1271 Q455.4141,286.0708 455.5688,286.0708 Q455.8641,286.0708 456.075,286.3099 Q456.3,286.5349 456.3,286.8583 Q456.3,287.1677 455.9906,287.5333 Q455.5406,288.0677 454.8234,288.363 Q453.8813,288.7708 452.7281,288.7708 Q451.3781,288.7708 450.2953,288.2364 Q449.4234,287.8146 448.8047,286.9005 Q448.2,285.9864 448.2,284.9036 L448.2,283.9192 Q448.2,282.7942 448.7344,281.8099 Q449.2828,280.8255 450.225,280.3052 Q451.1813,279.7708 452.25,279.7708 Q452.8969,279.7708 453.4594,279.9958 Q454.0219,280.2208 454.5,280.6708 Z " fill="#000000"/><text fill="#000000" font-family="sans-serif" font-size="10.8" lengthAdjust="spacing" textLength="90" x="465.3" y="288.2399">VaccinationCenter</text><line style="stroke:#A80036;stroke-width:1.35;" x1="440.1" x2="557.1" y1="298.2208" y2="298.2208"/><!--MD5=[a059576e163b46f56762f12600c49258]
class Nurse--><rect codeLine="39" fill="#FEFECE" filter="url(#f12vhe4t9ophsi)" height="36" id="Nurse" style="stroke:#A80036;stroke-width:1.35;" width="59.4" x="252.45" y="189.3208"/><ellipse cx="265.95" cy="203.7208" fill="#ADD1B2" rx="9.9" ry="9.9" style="stroke:#A80036;stroke-width:0.9;"/><path d="M267.75,200.5708 Q267.9328,200.1208 268.1438,199.8958 Q268.3547,199.6708 268.5938,199.6708 Q269.0156,199.6708 269.2828,199.9239 Q269.55,200.1771 269.55,200.7677 L269.55,202.1739 Q269.55,202.7646 269.2969,203.0177 Q269.0438,203.2708 268.65,203.2708 Q268.2984,203.2708 268.0734,203.1161 Q267.8484,202.9614 267.75,202.5536 Q267.7078,202.2724 267.5531,202.1177 Q267.2719,201.8224 266.7656,201.6536 Q266.2594,201.4708 265.7531,201.4708 Q265.1203,201.4708 264.5859,201.7239 Q264.0656,201.9771 263.6578,202.5396 Q263.25,203.1021 263.25,203.8755 L263.25,204.7052 Q263.25,205.6333 264.0094,206.2521 Q264.7688,206.8708 266.1188,206.8708 Q266.9203,206.8708 267.4828,206.688 Q267.8063,206.5896 268.1719,206.2661 Q268.4109,206.0833 268.5375,206.0271 Q268.6641,205.9708 268.8188,205.9708 Q269.1141,205.9708 269.325,206.2099 Q269.55,206.4349 269.55,206.7583 Q269.55,207.0677 269.2406,207.4333 Q268.7906,207.9677 268.0734,208.263 Q267.1313,208.6708 265.9781,208.6708 Q264.6281,208.6708 263.5453,208.1364 Q262.6734,207.7146 262.0547,206.8005 Q261.45,205.8864 261.45,204.8036 L261.45,203.8192 Q261.45,202.6942 261.9844,201.7099 Q262.5328,200.7255 263.475,200.2052 Q264.4313,199.6708 265.5,199.6708 Q266.1469,199.6708 266.7094,199.8958 Q267.2719,200.1208 267.75,200.5708 Z " fill="#000000"/><text fill="#000000" font-family="sans-serif" font-size="10.8" lengthAdjust="spacing" textLength="30.6" x="278.55" y="208.1399">Nurse</text><line style="stroke:#A80036;stroke-width:1.35;" x1="253.35" x2="310.95" y1="218.1208" y2="218.1208"/><!--MD5=[f037a2adb9b7ded7782c970d443a81c6]
class VaccinationQueue--><rect codeLine="42" fill="#FEFECE" filter="url(#f12vhe4t9ophsi)" height="73.357" id="VaccinationQueue" style="stroke:#A80036;stroke-width:1.35;" width="118.8" x="6.3" y="108.3208"/><ellipse cx="19.8" cy="122.7208" fill="#ADD1B2" rx="9.9" ry="9.9" style="stroke:#A80036;stroke-width:0.9;"/><path d="M21.6,119.5708 Q21.7828,119.1208 21.9938,118.8958 Q22.2047,118.6708 22.4438,118.6708 Q22.8656,118.6708 23.1328,118.9239 Q23.4,119.1771 23.4,119.7677 L23.4,121.1739 Q23.4,121.7646 23.1469,122.0177 Q22.8938,122.2708 22.5,122.2708 Q22.1484,122.2708 21.9234,122.1161 Q21.6984,121.9614 21.6,121.5536 Q21.5578,121.2724 21.4031,121.1177 Q21.1219,120.8224 20.6156,120.6536 Q20.1094,120.4708 19.6031,120.4708 Q18.9703,120.4708 18.4359,120.7239 Q17.9156,120.9771 17.5078,121.5396 Q17.1,122.1021 17.1,122.8755 L17.1,123.7052 Q17.1,124.6333 17.8594,125.2521 Q18.6188,125.8708 19.9688,125.8708 Q20.7703,125.8708 21.3328,125.688 Q21.6563,125.5896 22.0219,125.2661 Q22.2609,125.0833 22.3875,125.0271 Q22.5141,124.9708 22.6688,124.9708 Q22.9641,124.9708 23.175,125.2099 Q23.4,125.4349 23.4,125.7583 Q23.4,126.0677 23.0906,126.4333 Q22.6406,126.9677 21.9234,127.263 Q20.9813,127.6708 19.8281,127.6708 Q18.4781,127.6708 17.3953,127.1364 Q16.5234,126.7146 15.9047,125.8005 Q15.3,124.8864 15.3,123.8036 L15.3,122.8192 Q15.3,121.6942 15.8344,120.7099 Q16.3828,119.7255 17.325,119.2052 Q18.2813,118.6708 19.35,118.6708 Q19.9969,118.6708 20.5594,118.8958 Q21.1219,119.1208 21.6,119.5708 Z " fill="#000000"/><text fill="#000000" font-family="sans-serif" font-size="10.8" lengthAdjust="spacing" textLength="90" x="32.4" y="127.1399">VaccinationQueue</text><line style="stroke:#A80036;stroke-width:1.35;" x1="7.2" x2="124.2" y1="137.1208" y2="137.1208"/><text fill="#000000" font-family="sans-serif" font-size="9.9" lengthAdjust="spacing" textLength="22.5" x="11.7" y="150.9979">-date</text><text fill="#000000" font-family="sans-serif" font-size="9.9" lengthAdjust="spacing" textLength="45.9" x="11.7" y="163.4502">-entryTime</text><text fill="#000000" font-family="sans-serif" font-size="9.9" lengthAdjust="spacing" textLength="38.7" x="11.7" y="175.9025">-exitTime</text><!--MD5=[96c98fd8ea72b99bcaa2e061adb16a51]
link VaccinationCenter to CommunityMassVaccinationCenter--><path codeLine="48" d="M531.828,269.3398 C540.378,264.4708 549.576,259.1518 558,254.1208 C582.291,239.6038 608.139,223.7098 632.619,208.4368 " fill="none" id="VaccinationCenter-to-CommunityMassVaccinationCenter" style="stroke:#A80036;stroke-width:0.9;"/><polygon fill="none" points="629.46,202.9828,648.063,198.7798,636.147,213.6658,629.46,202.9828" style="stroke:#A80036;stroke-width:0.9;"/><!--MD5=[8502a704dc9b381ea58589d3b3323a61]
link Company to CommunityMassVaccinationCenter--><path codeLine="49" d="M104.256,38.7508 C138.033,31.6948 189.045,22.1638 234,18.3208 C379.134,5.9278 542.358,55.4278 644.373,94.2988 " fill="none" id="Company-CommunityMassVaccinationCenter" style="stroke:#A80036;stroke-width:0.9;"/><polygon fill="#000000" points="366.2764,14.4394,358.4491,10.9754,357.9079,16.2377,366.2764,14.4394" style="stroke:#000000;stroke-width:0.9;"/><text fill="#000000" font-family="sans-serif" font-size="11.7" lengthAdjust="spacing" textLength="41.4" x="369.9" y="18.7664">manage</text><text fill="#000000" font-family="sans-serif" font-size="11.7" lengthAdjust="spacing" textLength="6.3" x="111.1636" y="50.7411">1</text><text fill="#000000" font-family="sans-serif" font-size="11.7" lengthAdjust="spacing" textLength="4.5" x="632.5938" y="103.9556">*</text><!--MD5=[1a8aa2b864b87f860d28abceaa28b7a5]
link Company to SNSUser--><path codeLine="50" d="M103.986,55.5898 C140.022,63.7438 194.688,76.1188 233.775,84.9748 " fill="none" id="Company-SNSUser" style="stroke:#A80036;stroke-width:0.9;"/><polygon fill="#000000" points="168.1889,60.8727,160.8334,56.4954,159.6652,61.6548,168.1889,60.8727" style="stroke:#000000;stroke-width:0.9;"/><text fill="#000000" font-family="sans-serif" font-size="11.7" lengthAdjust="spacing" textLength="27" x="171.9" y="64.6664">owns</text><text fill="#000000" font-family="sans-serif" font-size="11.7" lengthAdjust="spacing" textLength="6.3" x="111.1078" y="70.4684">1</text><text fill="#000000" font-family="sans-serif" font-size="11.7" lengthAdjust="spacing" textLength="4.5" x="222.1559" y="96.6534">*</text><!--MD5=[2dea55a4e37a3d5d079c9926c23073ed]
link ScheduleVaccine to CommunityMassVaccinationCenter--><path codeLine="51" d="M555.768,191.2198 C581.994,183.7048 614.034,174.5338 644.211,165.8938 " fill="none" id="ScheduleVaccine-CommunityMassVaccinationCenter" style="stroke:#A80036;stroke-width:0.9;"/><polygon fill="#000000" points="585.1739,167.3178,593.7281,167.6196,592.2718,162.534,585.1739,167.3178" style="stroke:#000000;stroke-width:0.9;"/><text fill="#000000" font-family="sans-serif" font-size="11.7" lengthAdjust="spacing" textLength="18.9" x="597.6" y="170.8664">has</text><text fill="#000000" font-family="sans-serif" font-size="11.7" lengthAdjust="spacing" textLength="6.3" x="563.1193" y="202.3179">1</text><text fill="#000000" font-family="sans-serif" font-size="11.7" lengthAdjust="spacing" textLength="6.3" x="630.8839" y="180.4715">1</text><!--MD5=[793187b7806d1b433a4a4bb2266a99e8]
link Nurse to ScheduleVaccine--><path codeLine="52" d="M312.003,207.3208 C344.952,207.3208 399.591,207.3208 441.09,207.3208 " fill="none" id="Nurse-ScheduleVaccine" style="stroke:#A80036;stroke-width:0.9;"/><polygon fill="#000000" points="376.2,199.379,368.0594,196.734,368.0594,202.024,376.2,199.379" style="stroke:#000000;stroke-width:0.9;"/><text fill="#000000" font-family="sans-serif" font-size="11.7" lengthAdjust="spacing" textLength="21.6" x="379.8" y="204.1664">view</text><text fill="#000000" font-family="sans-serif" font-size="11.7" lengthAdjust="spacing" textLength="6.3" x="319.2224" y="221.076">1</text><text fill="#000000" font-family="sans-serif" font-size="11.7" lengthAdjust="spacing" textLength="4.5" x="429.6803" y="220.3343">*</text><!--MD5=[0ef16df5b5b7663f9d4f6f3874028fb1]
link Nurse to CommunityMassVaccinationCenter--><path codeLine="53" d="M311.886,197.9608 C325.611,193.5778 342.261,188.3578 357.3,183.9208 C393.507,173.2468 402.021,167.9458 439.2,161.4208 C507.078,149.5048 584.469,143.4298 644.382,140.3338 " fill="none" id="Nurse-CommunityMassVaccinationCenter" style="stroke:#A80036;stroke-width:0.9;"/><polygon fill="#000000" points="488.6339,137.4105,480.1612,136.1945,481.0646,141.4069,488.6339,137.4105" style="stroke:#000000;stroke-width:0.9;"/><text fill="#000000" font-family="sans-serif" font-size="11.7" lengthAdjust="spacing" textLength="24.3" x="492.3" y="142.9664">work</text><text fill="#000000" font-family="sans-serif" font-size="11.7" lengthAdjust="spacing" textLength="6.3" x="319.0798" y="192.1185">1</text><text fill="#000000" font-family="sans-serif" font-size="11.7" lengthAdjust="spacing" textLength="4.5" x="632.6034" y="153.2274">*</text><!--MD5=[bb41628a20dc1a86cb06cdc63edecf6e]
link VaccinationQueue to Nurse--><path codeLine="54" d="M125.253,162.1858 C166.464,174.1108 219.825,189.5458 252.243,198.9328 " fill="none" id="VaccinationQueue-Nurse" style="stroke:#A80036;stroke-width:0.9;"/><polygon fill="#000000" points="160.9227,163.7298,153.8381,158.9263,152.3677,164.0078,160.9227,163.7298" style="stroke:#000000;stroke-width:0.9;"/><text fill="#000000" font-family="sans-serif" font-size="11.7" lengthAdjust="spacing" textLength="41.4" x="164.7" y="167.2664">seen by</text><text fill="#000000" font-family="sans-serif" font-size="11.7" lengthAdjust="spacing" textLength="6.3" x="132.1111" y="177.016">1</text><text fill="#000000" font-family="sans-serif" font-size="11.7" lengthAdjust="spacing" textLength="18" x="227.3127" y="210.895">1..*</text><!--MD5=[d9b21ddca7c4cced7d721379358d0d7a]
link VaccinationQueue to SNSUser--><path codeLine="55" d="M125.253,131.6938 C159.39,123.8188 201.861,114.0268 233.865,106.6468 " fill="none" id="VaccinationQueue-SNSUser" style="stroke:#A80036;stroke-width:0.9;"/><polygon fill="#000000" points="169.9849,104.7678,161.4582,104.0197,162.6469,109.1745,169.9849,104.7678" style="stroke:#000000;stroke-width:0.9;"/><text fill="#000000" font-family="sans-serif" font-size="11.7" lengthAdjust="spacing" textLength="23.4" x="173.7" y="110.5664">have</text><text fill="#000000" font-family="sans-serif" font-size="11.7" lengthAdjust="spacing" textLength="6.3" x="132.1111" y="143.1889">1</text><text fill="#000000" font-family="sans-serif" font-size="11.7" lengthAdjust="spacing" textLength="4.5" x="222.2585" y="121.373">*</text><!--MD5=[07c8176f29721d709d57db6d01e51eeb]
@startuml
hide methods
left to right direction
skinparam classAttributeIconSize 0

class Company {
    -designation
}

class SNSUser {
    -name
    -sex
    -phoneNumber
    -email
    -birthDate
    -SNSNumber
    -citizenCardNumber
}

class ScheduleVaccine {
    -date
    -time
}


class CommunityMassVaccinationCenter {
    -name
    -phoneNumber
    -email
    -faxNumber
    -website
    -slotDuration
    -slotVaccineLimit
}

class VaccinationCenter {
}


class Nurse {
}

class VaccinationQueue {
    -date
    -entryTime
    -exitTime
}

VaccinationCenter - -|> CommunityMassVaccinationCenter
Company "1" - - "*" CommunityMassVaccinationCenter : manage >
Company "1" - - "*" SNSUser : owns >
ScheduleVaccine "1" - - "1" CommunityMassVaccinationCenter : has <
Nurse "1" - - "*" ScheduleVaccine : view >
Nurse "1"- - "*" CommunityMassVaccinationCenter : work >
VaccinationQueue "1" - - "1..*" Nurse : seen by >
VaccinationQueue "1" - - "*" SNSUser : have >
@enduml

PlantUML version 1.2022.1(Tue Feb 01 18:19:58 GMT 2022)
(GPL source distribution)
Java Runtime: OpenJDK Runtime Environment
JVM: OpenJDK 64-Bit Server VM
Default Encoding: Cp1252
Language: pt
Country: PT
--></g></svg>