<?xml version="1.0" encoding="UTF-8" standalone="no"?><svg xmlns="http://www.w3.org/2000/svg" xmlns:xlink="http://www.w3.org/1999/xlink" contentScriptType="application/ecmascript" contentStyleType="text/css" height="352px" preserveAspectRatio="none" style="width:1388px;height:352px;background:#FFFFFF;" version="1.1" viewBox="0 0 1388 352" width="1388px" zoomAndPan="magnify"><defs><filter height="300%" id="f10ltc8qothfjn" width="300%" x="-1" y="-1"><feGaussianBlur result="blurOut" stdDeviation="2.0"/><feColorMatrix in="blurOut" result="blurOut2" type="matrix" values="0 0 0 0 0 0 0 0 0 0 0 0 0 0 0 0 0 0 .4 0"/><feOffset dx="4.0" dy="4.0" in="blurOut2" result="blurOut3"/><feBlend in="SourceGraphic" in2="blurOut3" mode="normal"/></filter></defs><g><!--MD5=[1648e653497aaae0b857fb5a1aa684e5]
class ListEmployeeUI--><rect codeLine="4" fill="#FEFECE" filter="url(#f10ltc8qothfjn)" height="48" id="ListEmployeeUI" style="stroke:#A80036;stroke-width:1.5;" width="119" x="7" y="124"/><ellipse cx="22" cy="140" fill="#ADD1B2" rx="11" ry="11" style="stroke:#A80036;stroke-width:1.0;"/><path d="M24,136.5 Q24.2031,136 24.4375,135.75 Q24.6719,135.5 24.9375,135.5 Q25.4063,135.5 25.7031,135.7813 Q26,136.0625 26,136.7188 L26,138.2813 Q26,138.9375 25.7188,139.2188 Q25.4375,139.5 25,139.5 Q24.6094,139.5 24.3594,139.3281 Q24.1094,139.1563 24,138.7031 Q23.9531,138.3906 23.7813,138.2188 Q23.4688,137.8906 22.9063,137.7031 Q22.3438,137.5 21.7813,137.5 Q21.0781,137.5 20.4844,137.7813 Q19.9063,138.0625 19.4531,138.6875 Q19,139.3125 19,140.1719 L19,141.0938 Q19,142.125 19.8438,142.8125 Q20.6875,143.5 22.1875,143.5 Q23.0781,143.5 23.7031,143.2969 Q24.0625,143.1875 24.4688,142.8281 Q24.7344,142.625 24.875,142.5625 Q25.0156,142.5 25.1875,142.5 Q25.5156,142.5 25.75,142.7656 Q26,143.0156 26,143.375 Q26,143.7188 25.6563,144.125 Q25.1563,144.7188 24.3594,145.0469 Q23.3125,145.5 22.0313,145.5 Q20.5313,145.5 19.3281,144.9063 Q18.3594,144.4375 17.6719,143.4219 Q17,142.4063 17,141.2031 L17,140.1094 Q17,138.8594 17.5938,137.7656 Q18.2031,136.6719 19.25,136.0938 Q20.3125,135.5 21.5,135.5 Q22.2188,135.5 22.8438,135.75 Q23.4688,136 24,136.5 Z " fill="#000000"/><text fill="#000000" font-family="sans-serif" font-size="12" lengthAdjust="spacing" textLength="87" x="36" y="144.9102">ListEmployeeUI</text><line style="stroke:#A80036;stroke-width:1.5;" x1="8" x2="125" y1="156" y2="156"/><line style="stroke:#A80036;stroke-width:1.5;" x1="8" x2="125" y1="164" y2="164"/><!--MD5=[cedd4967a54d65e273403224efb15753]
class ListEmployeeController--><rect codeLine="7" fill="#FEFECE" filter="url(#f10ltc8qothfjn)" height="75.6719" id="ListEmployeeController" style="stroke:#A80036;stroke-width:1.5;" width="164" x="187" y="110"/><ellipse cx="203.35" cy="126" fill="#ADD1B2" rx="11" ry="11" style="stroke:#A80036;stroke-width:1.0;"/><path d="M205.35,122.5 Q205.5531,122 205.7875,121.75 Q206.0219,121.5 206.2875,121.5 Q206.7563,121.5 207.0531,121.7813 Q207.35,122.0625 207.35,122.7188 L207.35,124.2813 Q207.35,124.9375 207.0688,125.2188 Q206.7875,125.5 206.35,125.5 Q205.9594,125.5 205.7094,125.3281 Q205.4594,125.1563 205.35,124.7031 Q205.3031,124.3906 205.1313,124.2188 Q204.8188,123.8906 204.2563,123.7031 Q203.6938,123.5 203.1313,123.5 Q202.4281,123.5 201.8344,123.7813 Q201.2563,124.0625 200.8031,124.6875 Q200.35,125.3125 200.35,126.1719 L200.35,127.0938 Q200.35,128.125 201.1938,128.8125 Q202.0375,129.5 203.5375,129.5 Q204.4281,129.5 205.0531,129.2969 Q205.4125,129.1875 205.8188,128.8281 Q206.0844,128.625 206.225,128.5625 Q206.3656,128.5 206.5375,128.5 Q206.8656,128.5 207.1,128.7656 Q207.35,129.0156 207.35,129.375 Q207.35,129.7188 207.0063,130.125 Q206.5063,130.7188 205.7094,131.0469 Q204.6625,131.5 203.3813,131.5 Q201.8813,131.5 200.6781,130.9063 Q199.7094,130.4375 199.0219,129.4219 Q198.35,128.4063 198.35,127.2031 L198.35,126.1094 Q198.35,124.8594 198.9438,123.7656 Q199.5531,122.6719 200.6,122.0938 Q201.6625,121.5 202.85,121.5 Q203.5688,121.5 204.1938,121.75 Q204.8188,122 205.35,122.5 Z " fill="#000000"/><text fill="#000000" font-family="sans-serif" font-size="12" lengthAdjust="spacing" textLength="129" x="217.65" y="130.9102">ListEmployeeController</text><line style="stroke:#A80036;stroke-width:1.5;" x1="188" x2="350" y1="142" y2="142"/><line style="stroke:#A80036;stroke-width:1.5;" x1="188" x2="350" y1="150" y2="150"/><text fill="#000000" font-family="sans-serif" font-size="11" lengthAdjust="spacing" textLength="102" x="193" y="165.4189">+getEmployeeRoles()</text><text fill="#000000" font-family="sans-serif" font-size="11" lengthAdjust="spacing" textLength="152" x="193" y="179.2549">+getEmployeeListByRole(roleId)</text><!--MD5=[829fb52c07ade3ad64ef85b99d1fca10]
class EmployeeStore--><rect codeLine="12" fill="#FEFECE" filter="url(#f10ltc8qothfjn)" height="61.8359" id="EmployeeStore" style="stroke:#A80036;stroke-width:1.5;" width="154" x="666" y="130"/><ellipse cx="698.1" cy="146" fill="#ADD1B2" rx="11" ry="11" style="stroke:#A80036;stroke-width:1.0;"/><path d="M700.1,142.5 Q700.3031,142 700.5375,141.75 Q700.7719,141.5 701.0375,141.5 Q701.5063,141.5 701.8031,141.7813 Q702.1,142.0625 702.1,142.7188 L702.1,144.2813 Q702.1,144.9375 701.8188,145.2188 Q701.5375,145.5 701.1,145.5 Q700.7094,145.5 700.4594,145.3281 Q700.2094,145.1563 700.1,144.7031 Q700.0531,144.3906 699.8813,144.2188 Q699.5688,143.8906 699.0063,143.7031 Q698.4438,143.5 697.8813,143.5 Q697.1781,143.5 696.5844,143.7813 Q696.0063,144.0625 695.5531,144.6875 Q695.1,145.3125 695.1,146.1719 L695.1,147.0938 Q695.1,148.125 695.9438,148.8125 Q696.7875,149.5 698.2875,149.5 Q699.1781,149.5 699.8031,149.2969 Q700.1625,149.1875 700.5688,148.8281 Q700.8344,148.625 700.975,148.5625 Q701.1156,148.5 701.2875,148.5 Q701.6156,148.5 701.85,148.7656 Q702.1,149.0156 702.1,149.375 Q702.1,149.7188 701.7563,150.125 Q701.2563,150.7188 700.4594,151.0469 Q699.4125,151.5 698.1313,151.5 Q696.6313,151.5 695.4281,150.9063 Q694.4594,150.4375 693.7719,149.4219 Q693.1,148.4063 693.1,147.2031 L693.1,146.1094 Q693.1,144.8594 693.6938,143.7656 Q694.3031,142.6719 695.35,142.0938 Q696.4125,141.5 697.6,141.5 Q698.3188,141.5 698.9438,141.75 Q699.5688,142 700.1,142.5 Z " fill="#000000"/><text fill="#000000" font-family="sans-serif" font-size="12" lengthAdjust="spacing" textLength="84" x="715.9" y="150.9102">EmployeeStore</text><line style="stroke:#A80036;stroke-width:1.5;" x1="667" x2="819" y1="162" y2="162"/><line style="stroke:#A80036;stroke-width:1.5;" x1="667" x2="819" y1="170" y2="170"/><text fill="#000000" font-family="sans-serif" font-size="11" lengthAdjust="spacing" textLength="142" x="672" y="185.4189">+getEmployeesByRole(eRole)</text><!--MD5=[7421f545a0d8420c5bec41e74b387d9c]
class Employee--><rect codeLine="16" fill="#FEFECE" filter="url(#f10ltc8qothfjn)" height="131.0156" id="Employee" style="stroke:#A80036;stroke-width:1.5;" width="210" x="931" y="64.5"/><ellipse cx="1004.25" cy="80.5" fill="#ADD1B2" rx="11" ry="11" style="stroke:#A80036;stroke-width:1.0;"/><path d="M1006.25,77 Q1006.4531,76.5 1006.6875,76.25 Q1006.9219,76 1007.1875,76 Q1007.6563,76 1007.9531,76.2813 Q1008.25,76.5625 1008.25,77.2188 L1008.25,78.7813 Q1008.25,79.4375 1007.9688,79.7188 Q1007.6875,80 1007.25,80 Q1006.8594,80 1006.6094,79.8281 Q1006.3594,79.6563 1006.25,79.2031 Q1006.2031,78.8906 1006.0313,78.7188 Q1005.7188,78.3906 1005.1563,78.2031 Q1004.5938,78 1004.0313,78 Q1003.3281,78 1002.7344,78.2813 Q1002.1563,78.5625 1001.7031,79.1875 Q1001.25,79.8125 1001.25,80.6719 L1001.25,81.5938 Q1001.25,82.625 1002.0938,83.3125 Q1002.9375,84 1004.4375,84 Q1005.3281,84 1005.9531,83.7969 Q1006.3125,83.6875 1006.7188,83.3281 Q1006.9844,83.125 1007.125,83.0625 Q1007.2656,83 1007.4375,83 Q1007.7656,83 1008,83.2656 Q1008.25,83.5156 1008.25,83.875 Q1008.25,84.2188 1007.9063,84.625 Q1007.4063,85.2188 1006.6094,85.5469 Q1005.5625,86 1004.2813,86 Q1002.7813,86 1001.5781,85.4063 Q1000.6094,84.9375 999.9219,83.9219 Q999.25,82.9063 999.25,81.7031 L999.25,80.6094 Q999.25,79.3594 999.8438,78.2656 Q1000.4531,77.1719 1001.5,76.5938 Q1002.5625,76 1003.75,76 Q1004.4688,76 1005.0938,76.25 Q1005.7188,76.5 1006.25,77 Z " fill="#000000"/><text fill="#000000" font-family="sans-serif" font-size="12" lengthAdjust="spacing" textLength="55" x="1024.75" y="85.4102">Employee</text><line style="stroke:#A80036;stroke-width:1.5;" x1="932" x2="1140" y1="96.5" y2="96.5"/><text fill="#000000" font-family="sans-serif" font-size="11" lengthAdjust="spacing" textLength="12" x="937" y="111.9189">-id</text><text fill="#000000" font-family="sans-serif" font-size="11" lengthAdjust="spacing" textLength="30" x="937" y="125.7549">-name</text><text fill="#000000" font-family="sans-serif" font-size="11" lengthAdjust="spacing" textLength="71" x="937" y="139.5908">-phoneNumber</text><text fill="#000000" font-family="sans-serif" font-size="11" lengthAdjust="spacing" textLength="28" x="937" y="153.4268">-email</text><text fill="#000000" font-family="sans-serif" font-size="11" lengthAdjust="spacing" textLength="95" x="937" y="167.2627">-citizenCardNumber</text><line style="stroke:#A80036;stroke-width:1.5;" x1="932" x2="1140" y1="173.6797" y2="173.6797"/><text fill="#000000" font-family="sans-serif" font-size="11" lengthAdjust="spacing" textLength="198" x="937" y="189.0986">+compareRoleWithOtherEmployeeRole(e)</text><!--MD5=[65c16d01042ef55cd47b89011ddf5aca]
class EmployeeRoleStore--><rect codeLine="25" fill="#FEFECE" filter="url(#f10ltc8qothfjn)" height="75.6719" id="EmployeeRoleStore" style="stroke:#A80036;stroke-width:1.5;" width="142" x="672" y="227"/><ellipse cx="687" cy="243" fill="#ADD1B2" rx="11" ry="11" style="stroke:#A80036;stroke-width:1.0;"/><path d="M689,239.5 Q689.2031,239 689.4375,238.75 Q689.6719,238.5 689.9375,238.5 Q690.4063,238.5 690.7031,238.7813 Q691,239.0625 691,239.7188 L691,241.2813 Q691,241.9375 690.7188,242.2188 Q690.4375,242.5 690,242.5 Q689.6094,242.5 689.3594,242.3281 Q689.1094,242.1563 689,241.7031 Q688.9531,241.3906 688.7813,241.2188 Q688.4688,240.8906 687.9063,240.7031 Q687.3438,240.5 686.7813,240.5 Q686.0781,240.5 685.4844,240.7813 Q684.9063,241.0625 684.4531,241.6875 Q684,242.3125 684,243.1719 L684,244.0938 Q684,245.125 684.8438,245.8125 Q685.6875,246.5 687.1875,246.5 Q688.0781,246.5 688.7031,246.2969 Q689.0625,246.1875 689.4688,245.8281 Q689.7344,245.625 689.875,245.5625 Q690.0156,245.5 690.1875,245.5 Q690.5156,245.5 690.75,245.7656 Q691,246.0156 691,246.375 Q691,246.7188 690.6563,247.125 Q690.1563,247.7188 689.3594,248.0469 Q688.3125,248.5 687.0313,248.5 Q685.5313,248.5 684.3281,247.9063 Q683.3594,247.4375 682.6719,246.4219 Q682,245.4063 682,244.2031 L682,243.1094 Q682,241.8594 682.5938,240.7656 Q683.2031,239.6719 684.25,239.0938 Q685.3125,238.5 686.5,238.5 Q687.2188,238.5 687.8438,238.75 Q688.4688,239 689,239.5 Z " fill="#000000"/><text fill="#000000" font-family="sans-serif" font-size="12" lengthAdjust="spacing" textLength="110" x="701" y="247.9102">EmployeeRoleStore</text><line style="stroke:#A80036;stroke-width:1.5;" x1="673" x2="813" y1="259" y2="259"/><line style="stroke:#A80036;stroke-width:1.5;" x1="673" x2="813" y1="267" y2="267"/><text fill="#000000" font-family="sans-serif" font-size="11" lengthAdjust="spacing" textLength="102" x="678" y="282.4189">+getEmployeeRoles()</text><text fill="#000000" font-family="sans-serif" font-size="11" lengthAdjust="spacing" textLength="117" x="678" y="296.2549">+checkIfRoleExists(role)</text><!--MD5=[b5be973b5d3f2d8f249510587bb68e72]
class EmployeeRole--><rect codeLine="30" fill="#FEFECE" filter="url(#f10ltc8qothfjn)" height="89.5078" id="EmployeeRole" style="stroke:#A80036;stroke-width:1.5;" width="172" x="1202" y="85"/><ellipse cx="1243.55" cy="101" fill="#ADD1B2" rx="11" ry="11" style="stroke:#A80036;stroke-width:1.0;"/><path d="M1245.55,97.5 Q1245.7531,97 1245.9875,96.75 Q1246.2219,96.5 1246.4875,96.5 Q1246.9563,96.5 1247.2531,96.7813 Q1247.55,97.0625 1247.55,97.7188 L1247.55,99.2813 Q1247.55,99.9375 1247.2688,100.2188 Q1246.9875,100.5 1246.55,100.5 Q1246.1594,100.5 1245.9094,100.3281 Q1245.6594,100.1563 1245.55,99.7031 Q1245.5031,99.3906 1245.3313,99.2188 Q1245.0188,98.8906 1244.4563,98.7031 Q1243.8938,98.5 1243.3313,98.5 Q1242.6281,98.5 1242.0344,98.7813 Q1241.4563,99.0625 1241.0031,99.6875 Q1240.55,100.3125 1240.55,101.1719 L1240.55,102.0938 Q1240.55,103.125 1241.3938,103.8125 Q1242.2375,104.5 1243.7375,104.5 Q1244.6281,104.5 1245.2531,104.2969 Q1245.6125,104.1875 1246.0188,103.8281 Q1246.2844,103.625 1246.425,103.5625 Q1246.5656,103.5 1246.7375,103.5 Q1247.0656,103.5 1247.3,103.7656 Q1247.55,104.0156 1247.55,104.375 Q1247.55,104.7188 1247.2063,105.125 Q1246.7063,105.7188 1245.9094,106.0469 Q1244.8625,106.5 1243.5813,106.5 Q1242.0813,106.5 1240.8781,105.9063 Q1239.9094,105.4375 1239.2219,104.4219 Q1238.55,103.4063 1238.55,102.2031 L1238.55,101.1094 Q1238.55,99.8594 1239.1438,98.7656 Q1239.7531,97.6719 1240.8,97.0938 Q1241.8625,96.5 1243.05,96.5 Q1243.7688,96.5 1244.3938,96.75 Q1245.0188,97 1245.55,97.5 Z " fill="#000000"/><text fill="#000000" font-family="sans-serif" font-size="12" lengthAdjust="spacing" textLength="81" x="1263.45" y="105.9102">EmployeeRole</text><line style="stroke:#A80036;stroke-width:1.5;" x1="1203" x2="1373" y1="117" y2="117"/><text fill="#000000" font-family="sans-serif" font-size="11" lengthAdjust="spacing" textLength="12" x="1208" y="132.4189">-id</text><text fill="#000000" font-family="sans-serif" font-size="11" lengthAdjust="spacing" textLength="59" x="1208" y="146.2549">-designation</text><line style="stroke:#A80036;stroke-width:1.5;" x1="1203" x2="1373" y1="152.6719" y2="152.6719"/><text fill="#000000" font-family="sans-serif" font-size="11" lengthAdjust="spacing" textLength="160" x="1208" y="168.0908">+compareTo(otherEmployeeRole)</text><!--MD5=[02e4b9b7573f1156f41e60aa5b4e25a4]
class Company--><rect codeLine="36" fill="#FEFECE" filter="url(#f10ltc8qothfjn)" height="89.5078" id="Company" style="stroke:#A80036;stroke-width:1.5;" width="140" x="412" y="201"/><ellipse cx="451.75" cy="217" fill="#ADD1B2" rx="11" ry="11" style="stroke:#A80036;stroke-width:1.0;"/><path d="M453.75,213.5 Q453.9531,213 454.1875,212.75 Q454.4219,212.5 454.6875,212.5 Q455.1563,212.5 455.4531,212.7813 Q455.75,213.0625 455.75,213.7188 L455.75,215.2813 Q455.75,215.9375 455.4688,216.2188 Q455.1875,216.5 454.75,216.5 Q454.3594,216.5 454.1094,216.3281 Q453.8594,216.1563 453.75,215.7031 Q453.7031,215.3906 453.5313,215.2188 Q453.2188,214.8906 452.6563,214.7031 Q452.0938,214.5 451.5313,214.5 Q450.8281,214.5 450.2344,214.7813 Q449.6563,215.0625 449.2031,215.6875 Q448.75,216.3125 448.75,217.1719 L448.75,218.0938 Q448.75,219.125 449.5938,219.8125 Q450.4375,220.5 451.9375,220.5 Q452.8281,220.5 453.4531,220.2969 Q453.8125,220.1875 454.2188,219.8281 Q454.4844,219.625 454.625,219.5625 Q454.7656,219.5 454.9375,219.5 Q455.2656,219.5 455.5,219.7656 Q455.75,220.0156 455.75,220.375 Q455.75,220.7188 455.4063,221.125 Q454.9063,221.7188 454.1094,222.0469 Q453.0625,222.5 451.7813,222.5 Q450.2813,222.5 449.0781,221.9063 Q448.1094,221.4375 447.4219,220.4219 Q446.75,219.4063 446.75,218.2031 L446.75,217.1094 Q446.75,215.8594 447.3438,214.7656 Q447.9531,213.6719 449,213.0938 Q450.0625,212.5 451.25,212.5 Q451.9688,212.5 452.5938,212.75 Q453.2188,213 453.75,213.5 Z " fill="#000000"/><text fill="#000000" font-family="sans-serif" font-size="12" lengthAdjust="spacing" textLength="53" x="471.25" y="221.9102">Company</text><line style="stroke:#A80036;stroke-width:1.5;" x1="413" x2="551" y1="233" y2="233"/><text fill="#000000" font-family="sans-serif" font-size="11" lengthAdjust="spacing" textLength="59" x="418" y="248.4189">-designation</text><line style="stroke:#A80036;stroke-width:1.5;" x1="413" x2="551" y1="254.8359" y2="254.8359"/><text fill="#000000" font-family="sans-serif" font-size="11" lengthAdjust="spacing" textLength="101" x="418" y="270.2549">+getEmployeeStore()</text><text fill="#000000" font-family="sans-serif" font-size="11" lengthAdjust="spacing" textLength="128" x="418" y="284.0908">+getEmployeeRolesStore()</text><!--MD5=[1a586c3a4709423d02ac896cff2c39b6]
link ListEmployeeUI to ListEmployeeController--><path codeLine="42" d="M126.03,148 C143.36,148 162.71,148 181.41,148 " fill="none" id="ListEmployeeUI-to-ListEmployeeController" style="stroke:#A80036;stroke-width:1.0;stroke-dasharray:7.0,7.0;"/><polygon fill="#A80036" points="186.67,148,177.67,144,181.67,148,177.67,152,186.67,148" style="stroke:#A80036;stroke-width:1.0;"/><!--MD5=[fdf3f1dae370c95101789c1677ee20c5]
link ListEmployeeController to Company--><path codeLine="43" d="M351.28,185.75 C369.68,194.3 389.13,203.33 407.21,211.73 " fill="none" id="ListEmployeeController-to-Company" style="stroke:#A80036;stroke-width:1.0;stroke-dasharray:7.0,7.0;"/><polygon fill="#A80036" points="411.78,213.85,405.3172,206.4182,407.2494,211.7348,401.9328,213.6671,411.78,213.85" style="stroke:#A80036;stroke-width:1.0;"/><!--MD5=[696eb08729878f194587b3c9d74a7dc4]
link ListEmployeeController to EmployeeStore--><path codeLine="44" d="M351.14,150.24 C437.71,152.62 574.07,156.38 660.7,158.76 " fill="none" id="ListEmployeeController-to-EmployeeStore" style="stroke:#A80036;stroke-width:1.0;stroke-dasharray:7.0,7.0;"/><polygon fill="#A80036" points="665.82,158.9,656.9379,154.6446,660.822,158.7572,656.7094,162.6413,665.82,158.9" style="stroke:#A80036;stroke-width:1.0;"/><!--MD5=[3445064b1b77df7829934ecddd3250cd]
link ListEmployeeController to Employee--><path codeLine="45" d="M351.28,129.59 C361.25,127.79 371.33,126.2 381,125 C610.38,96.6 670.53,100.57 901,118 C909,118.61 917.27,119.27 925.59,119.95 " fill="none" id="ListEmployeeController-to-Employee" style="stroke:#A80036;stroke-width:1.0;stroke-dasharray:7.0,7.0;"/><polygon fill="#A80036" points="930.78,120.39,922.1433,115.6564,925.7973,119.9748,921.4789,123.6288,930.78,120.39" style="stroke:#A80036;stroke-width:1.0;"/><!--MD5=[cc9b31974d12db75b114f2b628bbff92]
link ListEmployeeController to EmployeeRoleStore--><path codeLine="46" d="M290.47,186.05 C313.94,225.21 356.46,283.93 412,309 C493.8,345.93 597.77,321.87 666.93,297.23 " fill="none" id="ListEmployeeController-to-EmployeeRoleStore" style="stroke:#A80036;stroke-width:1.0;stroke-dasharray:7.0,7.0;"/><polygon fill="#A80036" points="671.85,295.45,662.0261,294.7497,667.1481,297.1507,664.7472,302.2727,671.85,295.45" style="stroke:#A80036;stroke-width:1.0;"/><!--MD5=[5788882f1afa2c617b3b3c823c5f6026]
link ListEmployeeController to EmployeeRole--><path codeLine="47" d="M300.69,109.95 C338.33,67.89 406.38,6 481,6 C481,6 481,6 1037,6 C1108.25,6 1180.14,46.92 1228.42,81.75 " fill="none" id="ListEmployeeController-to-EmployeeRole" style="stroke:#A80036;stroke-width:1.0;stroke-dasharray:7.0,7.0;"/><polygon fill="#A80036" points="1232.73,84.88,1227.8076,76.3494,1228.6876,81.9374,1223.0996,82.8174,1232.73,84.88" style="stroke:#A80036;stroke-width:1.0;"/><!--MD5=[ce859576cba61219b3cb4d2d23fdcd81]
link Company to EmployeeStore--><path codeLine="48" d="M552.07,223.34 C585.49,212.37 625.83,199.13 660.73,187.67 " fill="none" id="Company-to-EmployeeStore" style="stroke:#A80036;stroke-width:1.0;"/><polygon fill="#A80036" points="665.84,186,656.0422,184.9982,661.0881,187.5554,658.5309,192.6013,665.84,186" style="stroke:#A80036;stroke-width:1.0;"/><polygon fill="#000000" points="591.7506,184.6163,582.2401,184.6451,584.0733,190.2297,591.7506,184.6163" style="stroke:#000000;stroke-width:1.0;"/><text fill="#000000" font-family="sans-serif" font-size="13" lengthAdjust="spacing" textLength="39" x="596" y="191.4951">adopts</text><text fill="#000000" font-family="sans-serif" font-size="13" lengthAdjust="spacing" textLength="7" x="560.1167" y="235.2778">1</text><text fill="#000000" font-family="sans-serif" font-size="13" lengthAdjust="spacing" textLength="7" x="650.9" y="202.7689">1</text><!--MD5=[c479b7b88d7c23e22ae76348c25bd117]
link Company to EmployeeRoleStore--><path codeLine="49" d="M552.23,251.7 C562.22,252.49 572.37,253.28 582,254 C609.59,256.07 639.87,258.18 666.6,260 " fill="none" id="Company-to-EmployeeRoleStore" style="stroke:#A80036;stroke-width:1.0;"/><polygon fill="#A80036" points="671.89,260.36,663.1856,255.752,666.9018,260.017,662.6368,263.7331,671.89,260.36" style="stroke:#A80036;stroke-width:1.0;"/><polygon fill="#000000" points="591.9869,245.5377,583.1782,241.9518,582.7528,247.8142,591.9869,245.5377" style="stroke:#000000;stroke-width:1.0;"/><text fill="#000000" font-family="sans-serif" font-size="13" lengthAdjust="spacing" textLength="39" x="596" y="250.4951">adopts</text><text fill="#000000" font-family="sans-serif" font-size="13" lengthAdjust="spacing" textLength="7" x="559.8334" y="266.6514">1</text><text fill="#000000" font-family="sans-serif" font-size="13" lengthAdjust="spacing" textLength="5" x="658.8389" y="274.2598">*</text><!--MD5=[2f3bac1bdf76f0b867b8cadb6fadb6bc]
link EmployeeStore to Employee--><path codeLine="50" d="M820.08,152.9 C852.34,149.46 890.55,145.39 925.74,141.64 " fill="none" id="EmployeeStore-to-Employee" style="stroke:#A80036;stroke-width:1.0;"/><polygon fill="#A80036" points="930.91,141.09,921.5375,138.064,925.938,141.6186,922.3833,146.0191,930.91,141.09" style="stroke:#A80036;stroke-width:1.0;"/><polygon fill="#000000" points="859.9718,134.6459,850.6663,132.6821,851.2891,138.5268,859.9718,134.6459" style="stroke:#000000;stroke-width:1.0;"/><text fill="#000000" font-family="sans-serif" font-size="13" lengthAdjust="spacing" textLength="36" x="864" y="140.4951">stores</text><text fill="#000000" font-family="sans-serif" font-size="13" lengthAdjust="spacing" textLength="7" x="828.0121" y="166.4107">1</text><text fill="#000000" font-family="sans-serif" font-size="13" lengthAdjust="spacing" textLength="5" x="918.0089" y="155.9994">*</text><!--MD5=[835b6358f61cd27f622dc321001e64f4]
link EmployeeRoleStore to EmployeeRole--><path codeLine="51" d="M814.08,269.67 C895.25,272.68 1031.81,270.28 1141,231 C1173.76,219.22 1206.03,198.17 1231.87,178.33 " fill="none" id="EmployeeRoleStore-to-EmployeeRole" style="stroke:#A80036;stroke-width:1.0;"/><polygon fill="#A80036" points="1235.97,175.15,1226.4077,177.5085,1232.0202,178.2158,1231.3129,183.8282,1235.97,175.15" style="stroke:#A80036;stroke-width:1.0;"/><polygon fill="#000000" points="1020.3846,221.1079,1010.9206,220.1686,1012.176,225.9108,1020.3846,221.1079" style="stroke:#000000;stroke-width:1.0;"/><text fill="#000000" font-family="sans-serif" font-size="13" lengthAdjust="spacing" textLength="36" x="1024.5" y="227.4951">stores</text><text fill="#000000" font-family="sans-serif" font-size="13" lengthAdjust="spacing" textLength="7" x="821.7711" y="284.5068">1</text><text fill="#000000" font-family="sans-serif" font-size="13" lengthAdjust="spacing" textLength="5" x="1223.6425" y="195.8438">*</text><!--MD5=[9a28c73d7dbe649487d8c1ea2b6a6a23]
reverse link Employee to EmployeeRole--><path codeLine="52" d="M1154.57,130 C1170.55,130 1186.69,130 1201.95,130 " fill="none" id="Employee-backto-EmployeeRole" style="stroke:#A80036;stroke-width:1.0;"/><polygon fill="none" points="1141.21,130,1147.21,134,1153.21,130,1147.21,126,1141.21,130" style="stroke:#A80036;stroke-width:1.0;"/><!--MD5=[ea903f1558bcf29f900dfa79017e969e]
@startuml
skinparam classAttributeIconSize 0
left to right direction

class ListEmployeeUI {
}

class ListEmployeeController {
    +getEmployeeRoles()
    +getEmployeeListByRole(roleId)
}

class EmployeeStore {
    +getEmployeesByRole(eRole)
}

class Employee {
    -id
    -name
    -phoneNumber
    -email
    -citizenCardNumber
    +compareRoleWithOtherEmployeeRole(e)
}

class EmployeeRoleStore {
    +getEmployeeRoles()
    +checkIfRoleExists(role)
}

class EmployeeRole {
    -id
    -designation
    +compareTo(otherEmployeeRole)
}

class Company {
    -designation
    +getEmployeeStore()
    +getEmployeeRolesStore()
}

ListEmployeeUI ..> ListEmployeeController
ListEmployeeController ..> Company
ListEmployeeController ..> EmployeeStore
ListEmployeeController ..> Employee
ListEmployeeController ..> EmployeeRoleStore
ListEmployeeController ..> EmployeeRole
Company "1" - -> "1" EmployeeStore : adopts >
Company "1" - -> "*" EmployeeRoleStore : adopts >
EmployeeStore "1" - -> "*" Employee : stores >
EmployeeRoleStore "1" - -> "*" EmployeeRole : stores >
Employee o- - EmployeeRole


@enduml

PlantUML version 1.2022.1(Tue Feb 01 18:19:58 GMT 2022)
(GPL source distribution)
Java Runtime: OpenJDK Runtime Environment
JVM: OpenJDK 64-Bit Server VM
Default Encoding: Cp1252
Language: pt
Country: PT
--></g></svg>