<?xml version="1.0" encoding="UTF-8" standalone="no"?><svg xmlns="http://www.w3.org/2000/svg" xmlns:xlink="http://www.w3.org/1999/xlink" contentScriptType="application/ecmascript" contentStyleType="text/css" height="211px" preserveAspectRatio="none" style="width:532px;height:211px;background:#FFFFFF;" version="1.1" viewBox="0 0 532 211" width="532px" zoomAndPan="magnify"><defs><filter height="300%" id="f1voibijmulxit" width="300%" x="-1" y="-1"><feGaussianBlur result="blurOut" stdDeviation="2.0"/><feColorMatrix in="blurOut" result="blurOut2" type="matrix" values="0 0 0 0 0 0 0 0 0 0 0 0 0 0 0 0 0 0 .4 0"/><feOffset dx="4.0" dy="4.0" in="blurOut2" result="blurOut3"/><feBlend in="SourceGraphic" in2="blurOut3" mode="normal"/></filter></defs><g><!--MD5=[02e4b9b7573f1156f41e60aa5b4e25a4]
class Company--><rect codeLine="5" fill="#FEFECE" filter="url(#f1voibijmulxit)" height="53.8359" id="Company" style="stroke:#A80036;stroke-width:1.5;" width="85" x="433" y="75"/><ellipse cx="448" cy="91" fill="#ADD1B2" rx="11" ry="11" style="stroke:#A80036;stroke-width:1.0;"/><path d="M450,87.5 Q450.2031,87 450.4375,86.75 Q450.6719,86.5 450.9375,86.5 Q451.4063,86.5 451.7031,86.7813 Q452,87.0625 452,87.7188 L452,89.2813 Q452,89.9375 451.7188,90.2188 Q451.4375,90.5 451,90.5 Q450.6094,90.5 450.3594,90.3281 Q450.1094,90.1563 450,89.7031 Q449.9531,89.3906 449.7813,89.2188 Q449.4688,88.8906 448.9063,88.7031 Q448.3438,88.5 447.7813,88.5 Q447.0781,88.5 446.4844,88.7813 Q445.9063,89.0625 445.4531,89.6875 Q445,90.3125 445,91.1719 L445,92.0938 Q445,93.125 445.8438,93.8125 Q446.6875,94.5 448.1875,94.5 Q449.0781,94.5 449.7031,94.2969 Q450.0625,94.1875 450.4688,93.8281 Q450.7344,93.625 450.875,93.5625 Q451.0156,93.5 451.1875,93.5 Q451.5156,93.5 451.75,93.7656 Q452,94.0156 452,94.375 Q452,94.7188 451.6563,95.125 Q451.1563,95.7188 450.3594,96.0469 Q449.3125,96.5 448.0313,96.5 Q446.5313,96.5 445.3281,95.9063 Q444.3594,95.4375 443.6719,94.4219 Q443,93.4063 443,92.2031 L443,91.1094 Q443,89.8594 443.5938,88.7656 Q444.2031,87.6719 445.25,87.0938 Q446.3125,86.5 447.5,86.5 Q448.2188,86.5 448.8438,86.75 Q449.4688,87 450,87.5 Z " fill="#000000"/><text fill="#000000" font-family="sans-serif" font-size="12" lengthAdjust="spacing" textLength="53" x="462" y="95.9102">Company</text><line style="stroke:#A80036;stroke-width:1.5;" x1="434" x2="517" y1="107" y2="107"/><text fill="#000000" font-family="sans-serif" font-size="11" lengthAdjust="spacing" textLength="59" x="439" y="122.4189">-designation</text><!--MD5=[7421f545a0d8420c5bec41e74b387d9c]
class Employee--><rect codeLine="9" fill="#FEFECE" filter="url(#f1voibijmulxit)" height="123.0156" id="Employee" style="stroke:#A80036;stroke-width:1.5;" width="107" x="202" y="40.5"/><ellipse cx="226" cy="56.5" fill="#ADD1B2" rx="11" ry="11" style="stroke:#A80036;stroke-width:1.0;"/><path d="M228,53 Q228.2031,52.5 228.4375,52.25 Q228.6719,52 228.9375,52 Q229.4063,52 229.7031,52.2813 Q230,52.5625 230,53.2188 L230,54.7813 Q230,55.4375 229.7188,55.7188 Q229.4375,56 229,56 Q228.6094,56 228.3594,55.8281 Q228.1094,55.6563 228,55.2031 Q227.9531,54.8906 227.7813,54.7188 Q227.4688,54.3906 226.9063,54.2031 Q226.3438,54 225.7813,54 Q225.0781,54 224.4844,54.2813 Q223.9063,54.5625 223.4531,55.1875 Q223,55.8125 223,56.6719 L223,57.5938 Q223,58.625 223.8438,59.3125 Q224.6875,60 226.1875,60 Q227.0781,60 227.7031,59.7969 Q228.0625,59.6875 228.4688,59.3281 Q228.7344,59.125 228.875,59.0625 Q229.0156,59 229.1875,59 Q229.5156,59 229.75,59.2656 Q230,59.5156 230,59.875 Q230,60.2188 229.6563,60.625 Q229.1563,61.2188 228.3594,61.5469 Q227.3125,62 226.0313,62 Q224.5313,62 223.3281,61.4063 Q222.3594,60.9375 221.6719,59.9219 Q221,58.9063 221,57.7031 L221,56.6094 Q221,55.3594 221.5938,54.2656 Q222.2031,53.1719 223.25,52.5938 Q224.3125,52 225.5,52 Q226.2188,52 226.8438,52.25 Q227.4688,52.5 228,53 Z " fill="#000000"/><text fill="#000000" font-family="sans-serif" font-size="12" lengthAdjust="spacing" textLength="55" x="242" y="61.4102">Employee</text><line style="stroke:#A80036;stroke-width:1.5;" x1="203" x2="308" y1="72.5" y2="72.5"/><text fill="#000000" font-family="sans-serif" font-size="11" lengthAdjust="spacing" textLength="12" x="208" y="87.9189">-id</text><text fill="#000000" font-family="sans-serif" font-size="11" lengthAdjust="spacing" textLength="30" x="208" y="101.7549">-name</text><text fill="#000000" font-family="sans-serif" font-size="11" lengthAdjust="spacing" textLength="71" x="208" y="115.5908">-phoneNumber</text><text fill="#000000" font-family="sans-serif" font-size="11" lengthAdjust="spacing" textLength="28" x="208" y="129.4268">-email</text><text fill="#000000" font-family="sans-serif" font-size="11" lengthAdjust="spacing" textLength="95" x="208" y="143.2627">-citizenCardNumber</text><text fill="#000000" font-family="sans-serif" font-size="11" lengthAdjust="spacing" textLength="22" x="208" y="157.0986">-role</text><!--MD5=[a059576e163b46f56762f12600c49258]
class Nurse--><rect codeLine="18" fill="#FEFECE" filter="url(#f1voibijmulxit)" height="40" id="Nurse" style="stroke:#A80036;stroke-width:1.5;" width="66" x="41" y="7"/><ellipse cx="56" cy="23" fill="#ADD1B2" rx="11" ry="11" style="stroke:#A80036;stroke-width:1.0;"/><path d="M58,19.5 Q58.2031,19 58.4375,18.75 Q58.6719,18.5 58.9375,18.5 Q59.4063,18.5 59.7031,18.7813 Q60,19.0625 60,19.7188 L60,21.2813 Q60,21.9375 59.7188,22.2188 Q59.4375,22.5 59,22.5 Q58.6094,22.5 58.3594,22.3281 Q58.1094,22.1563 58,21.7031 Q57.9531,21.3906 57.7813,21.2188 Q57.4688,20.8906 56.9063,20.7031 Q56.3438,20.5 55.7813,20.5 Q55.0781,20.5 54.4844,20.7813 Q53.9063,21.0625 53.4531,21.6875 Q53,22.3125 53,23.1719 L53,24.0938 Q53,25.125 53.8438,25.8125 Q54.6875,26.5 56.1875,26.5 Q57.0781,26.5 57.7031,26.2969 Q58.0625,26.1875 58.4688,25.8281 Q58.7344,25.625 58.875,25.5625 Q59.0156,25.5 59.1875,25.5 Q59.5156,25.5 59.75,25.7656 Q60,26.0156 60,26.375 Q60,26.7188 59.6563,27.125 Q59.1563,27.7188 58.3594,28.0469 Q57.3125,28.5 56.0313,28.5 Q54.5313,28.5 53.3281,27.9063 Q52.3594,27.4375 51.6719,26.4219 Q51,25.4063 51,24.2031 L51,23.1094 Q51,21.8594 51.5938,20.7656 Q52.2031,19.6719 53.25,19.0938 Q54.3125,18.5 55.5,18.5 Q56.2188,18.5 56.8438,18.75 Q57.4688,19 58,19.5 Z " fill="#000000"/><text fill="#000000" font-family="sans-serif" font-size="12" lengthAdjust="spacing" textLength="34" x="70" y="27.9102">Nurse</text><line style="stroke:#A80036;stroke-width:1.5;" x1="42" x2="106" y1="39" y2="39"/><!--MD5=[03960189e81aa2c066c762ffabbee709]
class Receptionist--><rect codeLine="21" fill="#FEFECE" filter="url(#f1voibijmulxit)" height="40" id="Receptionist" style="stroke:#A80036;stroke-width:1.5;" width="101" x="23.5" y="82"/><ellipse cx="38.5" cy="98" fill="#ADD1B2" rx="11" ry="11" style="stroke:#A80036;stroke-width:1.0;"/><path d="M40.5,94.5 Q40.7031,94 40.9375,93.75 Q41.1719,93.5 41.4375,93.5 Q41.9063,93.5 42.2031,93.7813 Q42.5,94.0625 42.5,94.7188 L42.5,96.2813 Q42.5,96.9375 42.2188,97.2188 Q41.9375,97.5 41.5,97.5 Q41.1094,97.5 40.8594,97.3281 Q40.6094,97.1563 40.5,96.7031 Q40.4531,96.3906 40.2813,96.2188 Q39.9688,95.8906 39.4063,95.7031 Q38.8438,95.5 38.2813,95.5 Q37.5781,95.5 36.9844,95.7813 Q36.4063,96.0625 35.9531,96.6875 Q35.5,97.3125 35.5,98.1719 L35.5,99.0938 Q35.5,100.125 36.3438,100.8125 Q37.1875,101.5 38.6875,101.5 Q39.5781,101.5 40.2031,101.2969 Q40.5625,101.1875 40.9688,100.8281 Q41.2344,100.625 41.375,100.5625 Q41.5156,100.5 41.6875,100.5 Q42.0156,100.5 42.25,100.7656 Q42.5,101.0156 42.5,101.375 Q42.5,101.7188 42.1563,102.125 Q41.6563,102.7188 40.8594,103.0469 Q39.8125,103.5 38.5313,103.5 Q37.0313,103.5 35.8281,102.9063 Q34.8594,102.4375 34.1719,101.4219 Q33.5,100.4063 33.5,99.2031 L33.5,98.1094 Q33.5,96.8594 34.0938,95.7656 Q34.7031,94.6719 35.75,94.0938 Q36.8125,93.5 38,93.5 Q38.7188,93.5 39.3438,93.75 Q39.9688,94 40.5,94.5 Z " fill="#000000"/><text fill="#000000" font-family="sans-serif" font-size="12" lengthAdjust="spacing" textLength="69" x="52.5" y="102.9102">Receptionist</text><line style="stroke:#A80036;stroke-width:1.5;" x1="24.5" x2="123.5" y1="114" y2="114"/><!--MD5=[2d935fd2dd068a13da1ae531f9857c4f]
class CenterCoordinator--><rect codeLine="24" fill="#FEFECE" filter="url(#f1voibijmulxit)" height="40" id="CenterCoordinator" style="stroke:#A80036;stroke-width:1.5;" width="134" x="7" y="157"/><ellipse cx="22" cy="173" fill="#ADD1B2" rx="11" ry="11" style="stroke:#A80036;stroke-width:1.0;"/><path d="M24,169.5 Q24.2031,169 24.4375,168.75 Q24.6719,168.5 24.9375,168.5 Q25.4063,168.5 25.7031,168.7813 Q26,169.0625 26,169.7188 L26,171.2813 Q26,171.9375 25.7188,172.2188 Q25.4375,172.5 25,172.5 Q24.6094,172.5 24.3594,172.3281 Q24.1094,172.1563 24,171.7031 Q23.9531,171.3906 23.7813,171.2188 Q23.4688,170.8906 22.9063,170.7031 Q22.3438,170.5 21.7813,170.5 Q21.0781,170.5 20.4844,170.7813 Q19.9063,171.0625 19.4531,171.6875 Q19,172.3125 19,173.1719 L19,174.0938 Q19,175.125 19.8438,175.8125 Q20.6875,176.5 22.1875,176.5 Q23.0781,176.5 23.7031,176.2969 Q24.0625,176.1875 24.4688,175.8281 Q24.7344,175.625 24.875,175.5625 Q25.0156,175.5 25.1875,175.5 Q25.5156,175.5 25.75,175.7656 Q26,176.0156 26,176.375 Q26,176.7188 25.6563,177.125 Q25.1563,177.7188 24.3594,178.0469 Q23.3125,178.5 22.0313,178.5 Q20.5313,178.5 19.3281,177.9063 Q18.3594,177.4375 17.6719,176.4219 Q17,175.4063 17,174.2031 L17,173.1094 Q17,171.8594 17.5938,170.7656 Q18.2031,169.6719 19.25,169.0938 Q20.3125,168.5 21.5,168.5 Q22.2188,168.5 22.8438,168.75 Q23.4688,169 24,169.5 Z " fill="#000000"/><text fill="#000000" font-family="sans-serif" font-size="12" lengthAdjust="spacing" textLength="102" x="36" y="177.9102">CenterCoordinator</text><line style="stroke:#A80036;stroke-width:1.5;" x1="8" x2="140" y1="189" y2="189"/><!--MD5=[738a6f70211648d778fec4b79664b2f5]
link CenterCoordinator to Employee--><path codeLine="28" d="M123.1,156.9 C141.61,149.17 163.16,140.16 183.39,131.71 " fill="none" id="CenterCoordinator-to-Employee" style="stroke:#A80036;stroke-width:1.0;"/><polygon fill="none" points="180.69,125.25,201.85,124,186.09,138.17,180.69,125.25" style="stroke:#A80036;stroke-width:1.0;"/><!--MD5=[411632688047b95e932f260c55f2de54]
link Nurse to Employee--><path codeLine="29" d="M107.09,40.41 C128.27,49.26 156.88,61.21 183.26,72.23 " fill="none" id="Nurse-to-Employee" style="stroke:#A80036;stroke-width:1.0;"/><polygon fill="none" points="186.18,65.87,201.93,80.04,180.78,78.78,186.18,65.87" style="stroke:#A80036;stroke-width:1.0;"/><!--MD5=[06bb7d2a85a007b79d10922b2d5e4cdd]
link Receptionist to Employee--><path codeLine="30" d="M124.52,102 C142.13,102 162.34,102 181.49,102 " fill="none" id="Receptionist-to-Employee" style="stroke:#A80036;stroke-width:1.0;"/><polygon fill="none" points="181.68,95,201.68,102,181.68,109,181.68,95" style="stroke:#A80036;stroke-width:1.0;"/><!--MD5=[d7ace9ce94145b54e26b24a174e1b7b9]
link Employee to Company--><path codeLine="33" d="M309.27,102 C347.2,102 397.64,102 432.77,102 " fill="none" id="Employee-Company" style="stroke:#A80036;stroke-width:1.0;"/><polygon fill="#000000" points="339,93.1758,348.0451,96.1147,348.0451,90.2369,339,93.1758" style="stroke:#000000;stroke-width:1.0;"/><text fill="#000000" font-family="sans-serif" font-size="13" lengthAdjust="spacing" textLength="49" x="353" y="98.4951">employs</text><text fill="#000000" font-family="sans-serif" font-size="13" lengthAdjust="spacing" textLength="5" x="316.8313" y="116.5927">*</text><text fill="#000000" font-family="sans-serif" font-size="13" lengthAdjust="spacing" textLength="7" x="418.1132" y="116.8628">1</text><!--MD5=[719da39ee81d62f231f4f0bdebae904f]
@startuml
hide methods
left to right direction
skinparam classAttributeIconSize 0

class Company {
    -designation
}

class Employee {
    -id
    -name
    -phoneNumber
    -email
    -citizenCardNumber
    -role
}

class Nurse {
}

class Receptionist {
}

class CenterCoordinator {
}

'- - - - - - - - - Generalization - - - - - - - - -
CenterCoordinator - -|> Employee
Nurse - -|> Employee
Receptionist - -|> Employee

'- - - - - - - - - - - - Relations - - - - - - - - - - - -
Employee "*" - - "1" Company : employs <

@enduml

@startuml
hide methods
left to right direction
skinparam classAttributeIconSize 0

class Company {
    -designation
}

class Employee {
    -id
    -name
    -phoneNumber
    -email
    -citizenCardNumber
    -role
}

class Nurse {
}

class Receptionist {
}

class CenterCoordinator {
}

CenterCoordinator - -|> Employee
Nurse - -|> Employee
Receptionist - -|> Employee

Employee "*" - - "1" Company : employs <

@enduml

PlantUML version 1.2022.1(Tue Feb 01 18:19:58 GMT 2022)
(GPL source distribution)
Java Runtime: OpenJDK Runtime Environment
JVM: OpenJDK 64-Bit Server VM
Default Encoding: Cp1252
Language: pt
Country: PT
--></g></svg>