<?xml version="1.0" encoding="UTF-8" standalone="no"?><svg xmlns="http://www.w3.org/2000/svg" xmlns:xlink="http://www.w3.org/1999/xlink" contentStyleType="text/css" height="805px" preserveAspectRatio="none" style="width:3109px;height:805px;background:#FFFFFF;" version="1.1" viewBox="0 0 3109 805" width="3109px" zoomAndPan="magnify"><defs/><g><rect fill="#FFFFFF" height="614.8359" style="stroke:#181818;stroke-width:1.0;" width="10" x="45" y="91.4883"/><rect fill="#FFFFFF" height="29.3105" style="stroke:#181818;stroke-width:1.0;" width="10" x="785" y="112.7988"/><rect fill="#FFFFFF" height="248.041" style="stroke:#181818;stroke-width:1.0;" width="10" x="785" y="171.4199"/><rect fill="#FFFFFF" height="257.5527" style="stroke:#181818;stroke-width:1.0;" width="10" x="785" y="448.7715"/><rect fill="#FFFFFF" height="189.4199" style="stroke:#181818;stroke-width:1.0;" width="10" x="1532" y="200.7305"/><rect fill="#FFFFFF" height="191.9316" style="stroke:#181818;stroke-width:1.0;" width="10" x="1532" y="478.082"/><rect fill="#FFFFFF" height="30" style="stroke:#181818;stroke-width:1.0;" width="10" x="1736" y="230.041"/><rect fill="#FFFFFF" height="29.3105" style="stroke:#181818;stroke-width:1.0;" width="10" x="2312" y="289.3516"/><rect fill="#FFFFFF" height="30" style="stroke:#181818;stroke-width:1.0;" width="10" x="2312" y="360.1504"/><rect fill="#FFFFFF" height="162.6211" style="stroke:#181818;stroke-width:1.0;" width="10" x="2312" y="507.3926"/><rect fill="#FFFFFF" height="28" style="stroke:#181818;stroke-width:1.0;" width="10" x="2317" y="544.7031"/><rect fill="#FFFFFF" height="28" style="stroke:#181818;stroke-width:1.0;" width="10" x="2317" y="642.0137"/><line style="stroke:#181818;stroke-width:0.5;stroke-dasharray:5.0,5.0;" x1="50" x2="50" y1="81.4883" y2="724.3242"/><line style="stroke:#181818;stroke-width:0.5;stroke-dasharray:5.0,5.0;" x1="789.5" x2="789.5" y1="81.4883" y2="724.3242"/><line style="stroke:#181818;stroke-width:0.5;stroke-dasharray:5.0,5.0;" x1="1536.5" x2="1536.5" y1="81.4883" y2="724.3242"/><line style="stroke:#181818;stroke-width:0.5;stroke-dasharray:5.0,5.0;" x1="1740.5" x2="1740.5" y1="81.4883" y2="724.3242"/><line style="stroke:#181818;stroke-width:0.5;stroke-dasharray:5.0,5.0;" x1="2317" x2="2317" y1="81.4883" y2="724.3242"/><line style="stroke:#181818;stroke-width:0.5;stroke-dasharray:5.0,5.0;" x1="3057" x2="3057" y1="328.0957" y2="724.3242"/><text fill="#000000" font-family="sans-serif" font-size="14" lengthAdjust="spacing" textLength="84" x="5" y="78.5352">Receptionist</text><ellipse cx="50" cy="13.5" fill="#E2E2F0" rx="8" ry="8" style="stroke:#181818;stroke-width:0.5;"/><path d="M50,21.5 L50,48.5 M37,29.5 L63,29.5 M50,48.5 L37,63.5 M50,48.5 L63,63.5 " fill="none" style="stroke:#181818;stroke-width:0.5;"/><text fill="#000000" font-family="sans-serif" font-size="14" lengthAdjust="spacing" textLength="84" x="5" y="736.8594">Receptionist</text><ellipse cx="50" cy="748.3125" fill="#E2E2F0" rx="8" ry="8" style="stroke:#181818;stroke-width:0.5;"/><path d="M50,756.3125 L50,783.3125 M37,764.3125 L63,764.3125 M50,783.3125 L37,798.3125 M50,783.3125 L63,798.3125 " fill="none" style="stroke:#181818;stroke-width:0.5;"/><rect fill="#E2E2F0" height="46.9766" rx="2.5" ry="2.5" style="stroke:#181818;stroke-width:0.5;" width="99" x="740.5" y="33.5117"/><text fill="#000000" font-family="sans-serif" font-size="14" lengthAdjust="spacing" textLength="81" x="747.5" y="54.0469">:SpecifyNew</text><text fill="#000000" font-family="sans-serif" font-size="14" lengthAdjust="spacing" textLength="71" x="756.5" y="70.5352">SNSUserUI</text><rect fill="#E2E2F0" height="46.9766" rx="2.5" ry="2.5" style="stroke:#181818;stroke-width:0.5;" width="99" x="740.5" y="723.3242"/><text fill="#000000" font-family="sans-serif" font-size="14" lengthAdjust="spacing" textLength="81" x="747.5" y="743.8594">:SpecifyNew</text><text fill="#000000" font-family="sans-serif" font-size="14" lengthAdjust="spacing" textLength="71" x="756.5" y="760.3477">SNSUserUI</text><rect fill="#E2E2F0" height="46.9766" rx="2.5" ry="2.5" style="stroke:#181818;stroke-width:0.5;" width="145" x="1464.5" y="33.5117"/><text fill="#000000" font-family="sans-serif" font-size="14" lengthAdjust="spacing" textLength="81" x="1494.5" y="54.0469">:SpecifyNew</text><text fill="#000000" font-family="sans-serif" font-size="14" lengthAdjust="spacing" textLength="127" x="1475.5" y="70.5352">SNSUserController</text><rect fill="#E2E2F0" height="46.9766" rx="2.5" ry="2.5" style="stroke:#181818;stroke-width:0.5;" width="145" x="1464.5" y="723.3242"/><text fill="#000000" font-family="sans-serif" font-size="14" lengthAdjust="spacing" textLength="81" x="1494.5" y="743.8594">:SpecifyNew</text><text fill="#000000" font-family="sans-serif" font-size="14" lengthAdjust="spacing" textLength="127" x="1475.5" y="760.3477">SNSUserController</text><rect fill="#E2E2F0" height="30.4883" rx="2.5" ry="2.5" style="stroke:#181818;stroke-width:0.5;" width="83" x="1699.5" y="50"/><text fill="#000000" font-family="sans-serif" font-size="14" lengthAdjust="spacing" textLength="69" x="1706.5" y="70.5352">:Company</text><rect fill="#E2E2F0" height="30.4883" rx="2.5" ry="2.5" style="stroke:#181818;stroke-width:0.5;" width="83" x="1699.5" y="723.3242"/><text fill="#000000" font-family="sans-serif" font-size="14" lengthAdjust="spacing" textLength="69" x="1706.5" y="743.8594">:Company</text><rect fill="#E2E2F0" height="30.4883" rx="2.5" ry="2.5" style="stroke:#181818;stroke-width:0.5;" width="150" x="2242" y="50"/><text fill="#000000" font-family="sans-serif" font-size="14" lengthAdjust="spacing" textLength="136" x="2249" y="70.5352">store: SNSUserStore</text><rect fill="#E2E2F0" height="30.4883" rx="2.5" ry="2.5" style="stroke:#181818;stroke-width:0.5;" width="150" x="2242" y="723.3242"/><text fill="#000000" font-family="sans-serif" font-size="14" lengthAdjust="spacing" textLength="136" x="2249" y="743.8594">store: SNSUserStore</text><rect fill="#E2E2F0" height="30.4883" rx="2.5" ry="2.5" style="stroke:#181818;stroke-width:0.5;" width="91" x="3012" y="723.3242"/><text fill="#000000" font-family="sans-serif" font-size="14" lengthAdjust="spacing" textLength="77" x="3019" y="743.8594">su:SNSUser</text><rect fill="#FFFFFF" height="614.8359" style="stroke:#181818;stroke-width:1.0;" width="10" x="45" y="91.4883"/><rect fill="#FFFFFF" height="29.3105" style="stroke:#181818;stroke-width:1.0;" width="10" x="785" y="112.7988"/><rect fill="#FFFFFF" height="248.041" style="stroke:#181818;stroke-width:1.0;" width="10" x="785" y="171.4199"/><rect fill="#FFFFFF" height="257.5527" style="stroke:#181818;stroke-width:1.0;" width="10" x="785" y="448.7715"/><rect fill="#FFFFFF" height="189.4199" style="stroke:#181818;stroke-width:1.0;" width="10" x="1532" y="200.7305"/><rect fill="#FFFFFF" height="191.9316" style="stroke:#181818;stroke-width:1.0;" width="10" x="1532" y="478.082"/><rect fill="#FFFFFF" height="30" style="stroke:#181818;stroke-width:1.0;" width="10" x="1736" y="230.041"/><rect fill="#FFFFFF" height="29.3105" style="stroke:#181818;stroke-width:1.0;" width="10" x="2312" y="289.3516"/><rect fill="#FFFFFF" height="30" style="stroke:#181818;stroke-width:1.0;" width="10" x="2312" y="360.1504"/><rect fill="#FFFFFF" height="162.6211" style="stroke:#181818;stroke-width:1.0;" width="10" x="2312" y="507.3926"/><rect fill="#FFFFFF" height="28" style="stroke:#181818;stroke-width:1.0;" width="10" x="2317" y="544.7031"/><rect fill="#FFFFFF" height="28" style="stroke:#181818;stroke-width:1.0;" width="10" x="2317" y="642.0137"/><polygon fill="#181818" points="773,108.7988,783,112.7988,773,116.7988,777,112.7988" style="stroke:#181818;stroke-width:1.0;"/><line style="stroke:#181818;stroke-width:1.0;" x1="55" x2="779" y1="112.7988" y2="112.7988"/><text fill="#000000" font-family="sans-serif" font-size="13" font-weight="bold" lengthAdjust="spacing" textLength="9" x="62" y="108.0566">1</text><text fill="#000000" font-family="sans-serif" font-size="13" lengthAdjust="spacing" textLength="205" x="75" y="108.0566">starts specifying a new SNS User</text><polygon fill="#181818" points="66,138.1094,56,142.1094,66,146.1094,62,142.1094" style="stroke:#181818;stroke-width:1.0;"/><line style="stroke:#181818;stroke-width:1.0;stroke-dasharray:2.0,2.0;" x1="60" x2="789" y1="142.1094" y2="142.1094"/><text fill="#000000" font-family="sans-serif" font-size="13" font-weight="bold" lengthAdjust="spacing" textLength="9" x="72" y="137.3672">2</text><text fill="#000000" font-family="sans-serif" font-size="13" lengthAdjust="spacing" textLength="693" x="85" y="137.3672">request data(name, adress, sex, phone number, e-mail, birth date, SNS User number and Citizen Card number)</text><polygon fill="#181818" points="773,167.4199,783,171.4199,773,175.4199,777,171.4199" style="stroke:#181818;stroke-width:1.0;"/><line style="stroke:#181818;stroke-width:1.0;" x1="55" x2="779" y1="171.4199" y2="171.4199"/><text fill="#000000" font-family="sans-serif" font-size="13" font-weight="bold" lengthAdjust="spacing" textLength="9" x="62" y="166.6777">3</text><text fill="#000000" font-family="sans-serif" font-size="13" lengthAdjust="spacing" textLength="131" x="75" y="166.6777">types requested data</text><polygon fill="#181818" points="1520,196.7305,1530,200.7305,1520,204.7305,1524,200.7305" style="stroke:#181818;stroke-width:1.0;"/><line style="stroke:#181818;stroke-width:1.0;" x1="795" x2="1526" y1="200.7305" y2="200.7305"/><text fill="#000000" font-family="sans-serif" font-size="13" font-weight="bold" lengthAdjust="spacing" textLength="9" x="802" y="195.9883">4</text><text fill="#000000" font-family="sans-serif" font-size="13" lengthAdjust="spacing" textLength="705" x="815" y="195.9883">createSNSUser(name, adress, sex, phone number, e-mail, birth date, SNS User number and Citizen Card number)</text><polygon fill="#181818" points="1724,226.041,1734,230.041,1724,234.041,1728,230.041" style="stroke:#181818;stroke-width:1.0;"/><line style="stroke:#181818;stroke-width:1.0;" x1="1542" x2="1730" y1="230.041" y2="230.041"/><text fill="#000000" font-family="sans-serif" font-size="13" font-weight="bold" lengthAdjust="spacing" textLength="9" x="1549" y="225.2988">5</text><text fill="#000000" font-family="sans-serif" font-size="13" lengthAdjust="spacing" textLength="162" x="1562" y="225.2988">store = getSNSUserStore()</text><polygon fill="#181818" points="2300,285.3516,2310,289.3516,2300,293.3516,2304,289.3516" style="stroke:#181818;stroke-width:1.0;"/><line style="stroke:#181818;stroke-width:1.0;" x1="1542" x2="2306" y1="289.3516" y2="289.3516"/><text fill="#000000" font-family="sans-serif" font-size="13" font-weight="bold" lengthAdjust="spacing" textLength="9" x="1549" y="284.6094">6</text><text fill="#000000" font-family="sans-serif" font-size="13" lengthAdjust="spacing" textLength="738" x="1562" y="284.6094">su = createSNSUser(name, adress, sex, phone number, e-mail, birth date, SNS User number and Citizen Card number)</text><polygon fill="#181818" points="3000,314.6621,3010,318.6621,3000,322.6621,3004,318.6621" style="stroke:#181818;stroke-width:1.0;"/><line style="stroke:#181818;stroke-width:1.0;stroke-dasharray:2.0,2.0;" x1="2317" x2="3006" y1="318.6621" y2="318.6621"/><text fill="#000000" font-family="sans-serif" font-size="13" font-weight="bold" lengthAdjust="spacing" textLength="9" x="2324" y="313.9199">7</text><text fill="#000000" font-family="sans-serif" font-size="13" lengthAdjust="spacing" textLength="653" x="2337" y="313.9199">create(name, adress, sex, phone number, e-mail, birth date, SNS User number and Citizen Card number)</text><rect fill="#E2E2F0" height="30.4883" rx="2.5" ry="2.5" style="stroke:#181818;stroke-width:0.5;" width="91" x="3012" y="297.3516"/><text fill="#000000" font-family="sans-serif" font-size="14" lengthAdjust="spacing" textLength="77" x="3019" y="317.8867">su:SNSUser</text><polygon fill="#181818" points="2300,356.1504,2310,360.1504,2300,364.1504,2304,360.1504" style="stroke:#181818;stroke-width:1.0;"/><line style="stroke:#181818;stroke-width:1.0;" x1="1542" x2="2306" y1="360.1504" y2="360.1504"/><text fill="#000000" font-family="sans-serif" font-size="13" font-weight="bold" lengthAdjust="spacing" textLength="9" x="1549" y="355.4082">8</text><text fill="#000000" font-family="sans-serif" font-size="13" lengthAdjust="spacing" textLength="124" x="1562" y="355.4082">validateSNSUser(su)</text><polygon fill="#181818" points="66,415.4609,56,419.4609,66,423.4609,62,419.4609" style="stroke:#181818;stroke-width:1.0;"/><line style="stroke:#181818;stroke-width:1.0;stroke-dasharray:2.0,2.0;" x1="60" x2="789" y1="419.4609" y2="419.4609"/><text fill="#000000" font-family="sans-serif" font-size="13" font-weight="bold" lengthAdjust="spacing" textLength="9" x="72" y="414.7188">9</text><text fill="#000000" font-family="sans-serif" font-size="13" lengthAdjust="spacing" textLength="276" x="85" y="414.7188">shows the data and requests a confirmation</text><polygon fill="#181818" points="773,444.7715,783,448.7715,773,452.7715,777,448.7715" style="stroke:#181818;stroke-width:1.0;"/><line style="stroke:#181818;stroke-width:1.0;" x1="55" x2="779" y1="448.7715" y2="448.7715"/><text fill="#000000" font-family="sans-serif" font-size="13" font-weight="bold" lengthAdjust="spacing" textLength="18" x="62" y="444.0293">10</text><text fill="#000000" font-family="sans-serif" font-size="13" lengthAdjust="spacing" textLength="111" x="84" y="444.0293">confirms the data</text><polygon fill="#181818" points="1520,474.082,1530,478.082,1520,482.082,1524,478.082" style="stroke:#181818;stroke-width:1.0;"/><line style="stroke:#181818;stroke-width:1.0;" x1="795" x2="1526" y1="478.082" y2="478.082"/><text fill="#000000" font-family="sans-serif" font-size="13" font-weight="bold" lengthAdjust="spacing" textLength="18" x="802" y="473.3398">11</text><text fill="#000000" font-family="sans-serif" font-size="13" lengthAdjust="spacing" textLength="88" x="824" y="473.3398">saveSNSUser()</text><polygon fill="#181818" points="2300,503.3926,2310,507.3926,2300,511.3926,2304,507.3926" style="stroke:#181818;stroke-width:1.0;"/><line style="stroke:#181818;stroke-width:1.0;" x1="1542" x2="2306" y1="507.3926" y2="507.3926"/><text fill="#000000" font-family="sans-serif" font-size="13" font-weight="bold" lengthAdjust="spacing" textLength="18" x="1549" y="502.6504">12</text><text fill="#000000" font-family="sans-serif" font-size="13" lengthAdjust="spacing" textLength="103" x="1571" y="502.6504">saveSNSUser(su)</text><line style="stroke:#181818;stroke-width:1.0;" x1="2327" x2="2369" y1="536.7031" y2="536.7031"/><line style="stroke:#181818;stroke-width:1.0;" x1="2369" x2="2369" y1="536.7031" y2="549.7031"/><line style="stroke:#181818;stroke-width:1.0;" x1="2328" x2="2369" y1="549.7031" y2="549.7031"/><polygon fill="#181818" points="2338,545.7031,2328,549.7031,2338,553.7031,2334,549.7031" style="stroke:#181818;stroke-width:1.0;"/><text fill="#000000" font-family="sans-serif" font-size="13" font-weight="bold" lengthAdjust="spacing" textLength="18" x="2334" y="531.9609">13</text><text fill="#000000" font-family="sans-serif" font-size="13" lengthAdjust="spacing" textLength="124" x="2356" y="531.9609">validateSNSUser(su)</text><line style="stroke:#181818;stroke-width:1.0;" x1="2327" x2="2369" y1="634.0137" y2="634.0137"/><line style="stroke:#181818;stroke-width:1.0;" x1="2369" x2="2369" y1="634.0137" y2="647.0137"/><line style="stroke:#181818;stroke-width:1.0;" x1="2328" x2="2369" y1="647.0137" y2="647.0137"/><polygon fill="#181818" points="2338,643.0137,2328,647.0137,2338,651.0137,2334,647.0137" style="stroke:#181818;stroke-width:1.0;"/><text fill="#000000" font-family="sans-serif" font-size="13" font-weight="bold" lengthAdjust="spacing" textLength="18" x="2334" y="629.2715">14</text><text fill="#000000" font-family="sans-serif" font-size="13" lengthAdjust="spacing" textLength="98" x="2356" y="629.2715">addSNSUser(su)</text><polygon fill="#181818" points="61,702.3242,51,706.3242,61,710.3242,57,706.3242" style="stroke:#181818;stroke-width:1.0;"/><line style="stroke:#181818;stroke-width:1.0;stroke-dasharray:2.0,2.0;" x1="55" x2="789" y1="706.3242" y2="706.3242"/><text fill="#000000" font-family="sans-serif" font-size="13" font-weight="bold" lengthAdjust="spacing" textLength="18" x="67" y="701.582">15</text><text fill="#000000" font-family="sans-serif" font-size="13" lengthAdjust="spacing" textLength="167" x="89" y="701.582">informs operation success</text><!--MD5=[f22c549f76225d2875ca9e63ffdf7d23]
@startuml
autonumber
actor "Receptionist" as receptionist

participant ":SpecifyNew \n SNSUserUI" as UI
participant ":SpecifyNew \n SNSUserController" as CTRL
participant ":Company" as CMP
participant "store: SNSUserStore" as SUS
participant "su:SNSUser" as SU

activate receptionist
receptionist -> UI : starts specifying a new SNS User
activate UI
UI - -> receptionist : request data(name, adress, sex, phone number, e-mail, birth date, SNS User number and Citizen Card number)
deactivate UI

receptionist -> UI : types requested data
activate UI

UI -> CTRL : createSNSUser(name, adress, sex, phone number, e-mail, birth date, SNS User number and Citizen Card number)
activate CTRL

CTRL -> CMP : store = getSNSUserStore()
activate CMP
deactivate CMP

CTRL -> SUS : su = createSNSUser(name, adress, sex, phone number, e-mail, birth date, SNS User number and Citizen Card number)
activate SUS
SUS - -> SU** : create(name, adress, sex, phone number, e-mail, birth date, SNS User number and Citizen Card number)
deactivate SUS

CTRL -> SUS : validateSNSUser(su)
activate SUS
deactivate SUS

deactivate CMP
deactivate CTRL

UI - -> receptionist : shows the data and requests a confirmation
deactivate UI

receptionist -> UI : confirms the data
activate UI
UI -> CTRL : saveSNSUser()
activate CTRL

CTRL -> SUS : saveSNSUser(su)
activate SUS

SUS -> SUS: validateSNSUser(su)
activate SUS
deactivate SUS
|||
SUS -> SUS: addSNSUser(su)
activate SUS
deactivate SUS

deactivate SUS
deactivate CTRL
UI - -> receptionist : informs operation success
deactivate UI
deactivate receptionist

@enduml

PlantUML version 1.2022.4(Sat Apr 09 14:29:17 WEST 2022)
(GPL source distribution)
Java Runtime: OpenJDK Runtime Environment
JVM: OpenJDK 64-Bit Server VM
Default Encoding: UTF-8
Language: pt
Country: PT
--></g></svg>