<?xml version="1.0" encoding="UTF-8" standalone="no"?><svg xmlns="http://www.w3.org/2000/svg" xmlns:xlink="http://www.w3.org/1999/xlink" contentScriptType="application/ecmascript" contentStyleType="text/css" height="315px" preserveAspectRatio="none" style="width:1790px;height:315px;background:#FFFFFF;" version="1.1" viewBox="0 0 1790 315" width="1790px" zoomAndPan="magnify"><defs><filter height="300%" id="f176izzrsjw0xb" width="300%" x="-1" y="-1"><feGaussianBlur result="blurOut" stdDeviation="2.0"/><feColorMatrix in="blurOut" result="blurOut2" type="matrix" values="0 0 0 0 0 0 0 0 0 0 0 0 0 0 0 0 0 0 .4 0"/><feOffset dx="4.0" dy="4.0" in="blurOut2" result="blurOut3"/><feBlend in="SourceGraphic" in2="blurOut3" mode="normal"/></filter></defs><g><!--MD5=[02e4b9b7573f1156f41e60aa5b4e25a4]
class Company--><rect codeLine="4" fill="#FEFECE" filter="url(#f176izzrsjw0xb)" height="75.6719" id="Company" style="stroke:#A80036;stroke-width:1.5;" width="109" x="871" y="126.5"/><ellipse cx="896.8" cy="142.5" fill="#ADD1B2" rx="11" ry="11" style="stroke:#A80036;stroke-width:1.0;"/><path d="M898.8,139 Q899.0031,138.5 899.2375,138.25 Q899.4719,138 899.7375,138 Q900.2063,138 900.5031,138.2813 Q900.8,138.5625 900.8,139.2188 L900.8,140.7813 Q900.8,141.4375 900.5188,141.7188 Q900.2375,142 899.8,142 Q899.4094,142 899.1594,141.8281 Q898.9094,141.6563 898.8,141.2031 Q898.7531,140.8906 898.5813,140.7188 Q898.2688,140.3906 897.7063,140.2031 Q897.1438,140 896.5813,140 Q895.8781,140 895.2844,140.2813 Q894.7063,140.5625 894.2531,141.1875 Q893.8,141.8125 893.8,142.6719 L893.8,143.5938 Q893.8,144.625 894.6438,145.3125 Q895.4875,146 896.9875,146 Q897.8781,146 898.5031,145.7969 Q898.8625,145.6875 899.2688,145.3281 Q899.5344,145.125 899.675,145.0625 Q899.8156,145 899.9875,145 Q900.3156,145 900.55,145.2656 Q900.8,145.5156 900.8,145.875 Q900.8,146.2188 900.4563,146.625 Q899.9563,147.2188 899.1594,147.5469 Q898.1125,148 896.8313,148 Q895.3313,148 894.1281,147.4063 Q893.1594,146.9375 892.4719,145.9219 Q891.8,144.9063 891.8,143.7031 L891.8,142.6094 Q891.8,141.3594 892.3938,140.2656 Q893.0031,139.1719 894.05,138.5938 Q895.1125,138 896.3,138 Q897.0188,138 897.6438,138.25 Q898.2688,138.5 898.8,139 Z " fill="#000000"/><text fill="#000000" font-family="sans-serif" font-size="12" lengthAdjust="spacing" textLength="53" x="913.2" y="147.4102">Company</text><line style="stroke:#A80036;stroke-width:1.5;" x1="872" x2="979" y1="158.5" y2="158.5"/><text fill="#000000" font-family="sans-serif" font-size="11" lengthAdjust="spacing" textLength="59" x="877" y="173.9189">-designation</text><line style="stroke:#A80036;stroke-width:1.5;" x1="872" x2="979" y1="180.3359" y2="180.3359"/><text fill="#000000" font-family="sans-serif" font-size="11" lengthAdjust="spacing" textLength="97" x="877" y="195.7549">-getSNSUserStore()</text><!--MD5=[72be06cc7ae02ccc98efe28a50e62246]
class SNSUser--><rect codeLine="9" fill="#FEFECE" filter="url(#f176izzrsjw0xb)" height="144.8516" id="SNSUser" style="stroke:#A80036;stroke-width:1.5;" width="551" x="1209.5" y="7"/><ellipse cx="1454.75" cy="23" fill="#ADD1B2" rx="11" ry="11" style="stroke:#A80036;stroke-width:1.0;"/><path d="M1456.75,19.5 Q1456.9531,19 1457.1875,18.75 Q1457.4219,18.5 1457.6875,18.5 Q1458.1563,18.5 1458.4531,18.7813 Q1458.75,19.0625 1458.75,19.7188 L1458.75,21.2813 Q1458.75,21.9375 1458.4688,22.2188 Q1458.1875,22.5 1457.75,22.5 Q1457.3594,22.5 1457.1094,22.3281 Q1456.8594,22.1563 1456.75,21.7031 Q1456.7031,21.3906 1456.5313,21.2188 Q1456.2188,20.8906 1455.6563,20.7031 Q1455.0938,20.5 1454.5313,20.5 Q1453.8281,20.5 1453.2344,20.7813 Q1452.6563,21.0625 1452.2031,21.6875 Q1451.75,22.3125 1451.75,23.1719 L1451.75,24.0938 Q1451.75,25.125 1452.5938,25.8125 Q1453.4375,26.5 1454.9375,26.5 Q1455.8281,26.5 1456.4531,26.2969 Q1456.8125,26.1875 1457.2188,25.8281 Q1457.4844,25.625 1457.625,25.5625 Q1457.7656,25.5 1457.9375,25.5 Q1458.2656,25.5 1458.5,25.7656 Q1458.75,26.0156 1458.75,26.375 Q1458.75,26.7188 1458.4063,27.125 Q1457.9063,27.7188 1457.1094,28.0469 Q1456.0625,28.5 1454.7813,28.5 Q1453.2813,28.5 1452.0781,27.9063 Q1451.1094,27.4375 1450.4219,26.4219 Q1449.75,25.4063 1449.75,24.2031 L1449.75,23.1094 Q1449.75,21.8594 1450.3438,20.7656 Q1450.9531,19.6719 1452,19.0938 Q1453.0625,18.5 1454.25,18.5 Q1454.9688,18.5 1455.5938,18.75 Q1456.2188,19 1456.75,19.5 Z " fill="#000000"/><text fill="#000000" font-family="sans-serif" font-size="12" lengthAdjust="spacing" textLength="52" x="1475.25" y="27.9102">SNSUser</text><line style="stroke:#A80036;stroke-width:1.5;" x1="1210.5" x2="1759.5" y1="39" y2="39"/><text fill="#000000" font-family="sans-serif" font-size="11" lengthAdjust="spacing" textLength="28" x="1215.5" y="54.4189">-code</text><text fill="#000000" font-family="sans-serif" font-size="11" lengthAdjust="spacing" textLength="57" x="1215.5" y="68.2549">-description</text><text fill="#000000" font-family="sans-serif" font-size="11" lengthAdjust="spacing" textLength="57" x="1215.5" y="82.0908">-technology</text><line style="stroke:#A80036;stroke-width:1.5;" x1="1210.5" x2="1759.5" y1="88.5078" y2="88.5078"/><text fill="#000000" font-family="sans-serif" font-size="11" lengthAdjust="spacing" textLength="539" x="1215.5" y="103.9268">+SNSUser(name, adress, sex, phone_number, e-mail, birth_date, SNS_User_number and Citizen_Card_number)</text><text fill="#000000" font-family="sans-serif" font-size="11" lengthAdjust="spacing" textLength="117" x="1215.5" y="117.7627">-checkCodeRules(code)</text><text fill="#000000" font-family="sans-serif" font-size="11" lengthAdjust="spacing" textLength="175" x="1215.5" y="131.5986">-checkDescriptionRules(description)</text><text fill="#000000" font-family="sans-serif" font-size="11" lengthAdjust="spacing" textLength="51" x="1215.5" y="145.4346">+toString()</text><!--MD5=[ae6ba23737f8c1cd6bbc80d538ee96c7]
class SpecifyNewSNSUserUI--><rect codeLine="19" fill="#FEFECE" filter="url(#f176izzrsjw0xb)" height="48" id="SpecifyNewSNSUserUI" style="stroke:#A80036;stroke-width:1.5;" width="160" x="7" y="140.5"/><ellipse cx="22" cy="156.5" fill="#ADD1B2" rx="11" ry="11" style="stroke:#A80036;stroke-width:1.0;"/><path d="M24,153 Q24.2031,152.5 24.4375,152.25 Q24.6719,152 24.9375,152 Q25.4063,152 25.7031,152.2813 Q26,152.5625 26,153.2188 L26,154.7813 Q26,155.4375 25.7188,155.7188 Q25.4375,156 25,156 Q24.6094,156 24.3594,155.8281 Q24.1094,155.6563 24,155.2031 Q23.9531,154.8906 23.7813,154.7188 Q23.4688,154.3906 22.9063,154.2031 Q22.3438,154 21.7813,154 Q21.0781,154 20.4844,154.2813 Q19.9063,154.5625 19.4531,155.1875 Q19,155.8125 19,156.6719 L19,157.5938 Q19,158.625 19.8438,159.3125 Q20.6875,160 22.1875,160 Q23.0781,160 23.7031,159.7969 Q24.0625,159.6875 24.4688,159.3281 Q24.7344,159.125 24.875,159.0625 Q25.0156,159 25.1875,159 Q25.5156,159 25.75,159.2656 Q26,159.5156 26,159.875 Q26,160.2188 25.6563,160.625 Q25.1563,161.2188 24.3594,161.5469 Q23.3125,162 22.0313,162 Q20.5313,162 19.3281,161.4063 Q18.3594,160.9375 17.6719,159.9219 Q17,158.9063 17,157.7031 L17,156.6094 Q17,155.3594 17.5938,154.2656 Q18.2031,153.1719 19.25,152.5938 Q20.3125,152 21.5,152 Q22.2188,152 22.8438,152.25 Q23.4688,152.5 24,153 Z " fill="#000000"/><text fill="#000000" font-family="sans-serif" font-size="12" lengthAdjust="spacing" textLength="128" x="36" y="161.4102">SpecifyNewSNSUserUI</text><line style="stroke:#A80036;stroke-width:1.5;" x1="8" x2="166" y1="172.5" y2="172.5"/><line style="stroke:#A80036;stroke-width:1.5;" x1="8" x2="166" y1="180.5" y2="180.5"/><!--MD5=[ef9007883e8308b904c8dd3f6418e3c0]
class SpecifyNewSNSUserController--><rect codeLine="22" fill="#FEFECE" filter="url(#f176izzrsjw0xb)" height="75.6719" id="SpecifyNewSNSUserController" style="stroke:#A80036;stroke-width:1.5;" width="582" x="228" y="126.5"/><ellipse cx="429.75" cy="142.5" fill="#ADD1B2" rx="11" ry="11" style="stroke:#A80036;stroke-width:1.0;"/><path d="M431.75,139 Q431.9531,138.5 432.1875,138.25 Q432.4219,138 432.6875,138 Q433.1563,138 433.4531,138.2813 Q433.75,138.5625 433.75,139.2188 L433.75,140.7813 Q433.75,141.4375 433.4688,141.7188 Q433.1875,142 432.75,142 Q432.3594,142 432.1094,141.8281 Q431.8594,141.6563 431.75,141.2031 Q431.7031,140.8906 431.5313,140.7188 Q431.2188,140.3906 430.6563,140.2031 Q430.0938,140 429.5313,140 Q428.8281,140 428.2344,140.2813 Q427.6563,140.5625 427.2031,141.1875 Q426.75,141.8125 426.75,142.6719 L426.75,143.5938 Q426.75,144.625 427.5938,145.3125 Q428.4375,146 429.9375,146 Q430.8281,146 431.4531,145.7969 Q431.8125,145.6875 432.2188,145.3281 Q432.4844,145.125 432.625,145.0625 Q432.7656,145 432.9375,145 Q433.2656,145 433.5,145.2656 Q433.75,145.5156 433.75,145.875 Q433.75,146.2188 433.4063,146.625 Q432.9063,147.2188 432.1094,147.5469 Q431.0625,148 429.7813,148 Q428.2813,148 427.0781,147.4063 Q426.1094,146.9375 425.4219,145.9219 Q424.75,144.9063 424.75,143.7031 L424.75,142.6094 Q424.75,141.3594 425.3438,140.2656 Q425.9531,139.1719 427,138.5938 Q428.0625,138 429.25,138 Q429.9688,138 430.5938,138.25 Q431.2188,138.5 431.75,139 Z " fill="#000000"/><text fill="#000000" font-family="sans-serif" font-size="12" lengthAdjust="spacing" textLength="170" x="450.25" y="147.4102">SpecifyNewSNSUserController</text><line style="stroke:#A80036;stroke-width:1.5;" x1="229" x2="809" y1="158.5" y2="158.5"/><line style="stroke:#A80036;stroke-width:1.5;" x1="229" x2="809" y1="166.5" y2="166.5"/><text fill="#000000" font-family="sans-serif" font-size="11" lengthAdjust="spacing" textLength="570" x="234" y="181.9189">+createSNSUser(name, adress, sex, phone_number, e-mail, birth_date, SNS_User_number and Citizen_Card_number)</text><text fill="#000000" font-family="sans-serif" font-size="11" lengthAdjust="spacing" textLength="82" x="234" y="195.7549">+saveSNSUser()</text><!--MD5=[a5ad3856b0c65e07b10297b4477b22bb]
class SNSUserStore--><rect codeLine="27" fill="#FEFECE" filter="url(#f176izzrsjw0xb)" height="103.3438" id="SNSUserStore" style="stroke:#A80036;stroke-width:1.5;" width="582" x="1194" y="198"/><ellipse cx="1440.25" cy="214" fill="#ADD1B2" rx="11" ry="11" style="stroke:#A80036;stroke-width:1.0;"/><path d="M1442.25,210.5 Q1442.4531,210 1442.6875,209.75 Q1442.9219,209.5 1443.1875,209.5 Q1443.6563,209.5 1443.9531,209.7813 Q1444.25,210.0625 1444.25,210.7188 L1444.25,212.2813 Q1444.25,212.9375 1443.9688,213.2188 Q1443.6875,213.5 1443.25,213.5 Q1442.8594,213.5 1442.6094,213.3281 Q1442.3594,213.1563 1442.25,212.7031 Q1442.2031,212.3906 1442.0313,212.2188 Q1441.7188,211.8906 1441.1563,211.7031 Q1440.5938,211.5 1440.0313,211.5 Q1439.3281,211.5 1438.7344,211.7813 Q1438.1563,212.0625 1437.7031,212.6875 Q1437.25,213.3125 1437.25,214.1719 L1437.25,215.0938 Q1437.25,216.125 1438.0938,216.8125 Q1438.9375,217.5 1440.4375,217.5 Q1441.3281,217.5 1441.9531,217.2969 Q1442.3125,217.1875 1442.7188,216.8281 Q1442.9844,216.625 1443.125,216.5625 Q1443.2656,216.5 1443.4375,216.5 Q1443.7656,216.5 1444,216.7656 Q1444.25,217.0156 1444.25,217.375 Q1444.25,217.7188 1443.9063,218.125 Q1443.4063,218.7188 1442.6094,219.0469 Q1441.5625,219.5 1440.2813,219.5 Q1438.7813,219.5 1437.5781,218.9063 Q1436.6094,218.4375 1435.9219,217.4219 Q1435.25,216.4063 1435.25,215.2031 L1435.25,214.1094 Q1435.25,212.8594 1435.8438,211.7656 Q1436.4531,210.6719 1437.5,210.0938 Q1438.5625,209.5 1439.75,209.5 Q1440.4688,209.5 1441.0938,209.75 Q1441.7188,210 1442.25,210.5 Z " fill="#000000"/><text fill="#000000" font-family="sans-serif" font-size="12" lengthAdjust="spacing" textLength="81" x="1460.75" y="218.9102">SNSUserStore</text><line style="stroke:#A80036;stroke-width:1.5;" x1="1195" x2="1775" y1="230" y2="230"/><line style="stroke:#A80036;stroke-width:1.5;" x1="1195" x2="1775" y1="238" y2="238"/><text fill="#000000" font-family="sans-serif" font-size="11" lengthAdjust="spacing" textLength="570" x="1200" y="253.4189">+createSNSUser(name, adress, sex, phone_number, e-mail, birth_date, SNS_User_number and Citizen_Card_number)</text><text fill="#000000" font-family="sans-serif" font-size="11" lengthAdjust="spacing" textLength="107" x="1200" y="267.2549">+validateSNSUser(su)</text><text fill="#000000" font-family="sans-serif" font-size="11" lengthAdjust="spacing" textLength="94" x="1200" y="281.0908">+saveSNSUser(su)</text><text fill="#000000" font-family="sans-serif" font-size="11" lengthAdjust="spacing" textLength="86" x="1200" y="294.9268">-addSNSUser(su)</text><!--MD5=[1a8aa2b864b87f860d28abceaa28b7a5]
link Company to SNSUser--><path codeLine="34" d="M980.21,156.31 C1033.25,148.22 1118.63,135.21 1204.15,122.17 " fill="none" id="Company-to-SNSUser" style="stroke:#A80036;stroke-width:1.0;"/><polygon fill="#A80036" points="1209.26,121.39,1199.7655,118.772,1204.3155,122.1331,1200.9544,126.6832,1209.26,121.39" style="stroke:#A80036;stroke-width:1.0;"/><polygon fill="#000000" points="1019.9429,120.9222,1010.5582,119.3801,1011.444,125.1908,1019.9429,120.9222" style="stroke:#000000;stroke-width:1.0;"/><text fill="#000000" font-family="sans-serif" font-size="13" lengthAdjust="spacing" textLength="139" x="1024" y="126.9951">promotes administration</text><text fill="#000000" font-family="sans-serif" font-size="13" lengthAdjust="spacing" textLength="7" x="988.032" y="169.8253">1</text><text fill="#000000" font-family="sans-serif" font-size="13" lengthAdjust="spacing" textLength="5" x="1196.8693" y="136.217">*</text><!--MD5=[1bd9080c7e199931e49bc5a1616681ac]
link Company to SNSUserStore--><path codeLine="35" d="M980.21,172.69 C1030.01,180.28 1108.31,192.22 1188.47,204.44 " fill="none" id="Company-to-SNSUserStore" style="stroke:#A80036;stroke-width:1.0;"/><polygon fill="#A80036" points="1193.76,205.25,1185.4694,199.9334,1188.8176,204.4929,1184.2581,207.8412,1193.76,205.25" style="stroke:#A80036;stroke-width:1.0;"/><polygon fill="#000000" points="1075.4429,170.4293,1066.9441,166.1608,1066.0582,171.9715,1075.4429,170.4293" style="stroke:#000000;stroke-width:1.0;"/><text fill="#000000" font-family="sans-serif" font-size="13" lengthAdjust="spacing" textLength="28" x="1079.5" y="174.9951">uses</text><text fill="#000000" font-family="sans-serif" font-size="13" lengthAdjust="spacing" textLength="7" x="988.032" y="188.4063">1</text><text fill="#000000" font-family="sans-serif" font-size="13" lengthAdjust="spacing" textLength="7" x="1178.931" y="217.7823">1</text><!--MD5=[f9cdac24711892c79830af13cc2031b7]
link SpecifyNewSNSUserController to Company--><path codeLine="36" d="M810.21,164.5 C830.49,164.5 849.31,164.5 865.58,164.5 " fill="none" id="SpecifyNewSNSUserController-to-Company" style="stroke:#A80036;stroke-width:1.0;stroke-dasharray:7.0,7.0;"/><polygon fill="#A80036" points="871,164.5,862,160.5,866,164.5,862,168.5,871,164.5" style="stroke:#A80036;stroke-width:1.0;"/><!--MD5=[6134efd207260bf120211f9f3ff9fab2]
link SpecifyNewSNSUserController to SNSUser--><path codeLine="37" d="M734.36,126.43 C779.38,119.52 826.65,113.07 871,108.5 C979.52,97.31 1099.3,90.43 1203.97,86.21 " fill="none" id="SpecifyNewSNSUserController-to-SNSUser" style="stroke:#A80036;stroke-width:1.0;stroke-dasharray:7.0,7.0;"/><polygon fill="#A80036" points="1209.26,86,1200.1069,82.364,1204.264,86.2004,1200.4276,90.3575,1209.26,86" style="stroke:#A80036;stroke-width:1.0;"/><!--MD5=[07503b16287ebcc82c1f3ea7d9da1778]
link SpecifyNewSNSUserUI to SpecifyNewSNSUserController--><path codeLine="38" d="M167.12,164.5 C184,164.5 202.78,164.5 222.62,164.5 " fill="none" id="SpecifyNewSNSUserUI-to-SpecifyNewSNSUserController" style="stroke:#A80036;stroke-width:1.0;stroke-dasharray:7.0,7.0;"/><polygon fill="#A80036" points="227.69,164.5,218.69,160.5,222.69,164.5,218.69,168.5,227.69,164.5" style="stroke:#A80036;stroke-width:1.0;"/><!--MD5=[d4a05fd00d8a645f4efadc9ca4772650]
link SpecifyNewSNSUserController to SNSUserStore--><path codeLine="39" d="M734.36,202.57 C779.38,209.48 826.65,215.93 871,220.5 C974.31,231.15 1087.82,237.9 1188.79,242.16 " fill="none" id="SpecifyNewSNSUserController-to-SNSUserStore" style="stroke:#A80036;stroke-width:1.0;stroke-dasharray:7.0,7.0;"/><polygon fill="#A80036" points="1193.89,242.38,1185.0695,237.9983,1188.8946,242.1659,1184.727,245.991,1193.89,242.38" style="stroke:#A80036;stroke-width:1.0;"/><!--MD5=[c47182fe2cf5807bc8f509abba39d8b9]
@startuml
skinparam classAttributeIconSize 0
left to right direction

class Company {
    -designation
    -getSNSUserStore()
}

class SNSUser {
    -code
    -description
    -technology
    +SNSUser(name, adress, sex, phone_number, e-mail, birth_date, SNS_User_number and Citizen_Card_number)
    -checkCodeRules(code)
    -checkDescriptionRules(description)
    +toString()
}

class SpecifyNewSNSUserUI {
}

class SpecifyNewSNSUserController {
    +createSNSUser(name, adress, sex, phone_number, e-mail, birth_date, SNS_User_number and Citizen_Card_number)
    +saveSNSUser()
}

class SNSUserStore {
    +createSNSUser(name, adress, sex, phone_number, e-mail, birth_date, SNS_User_number and Citizen_Card_number)
    +validateSNSUser(su)
    +saveSNSUser(su)
    -addSNSUser(su)
}

Company "1" - -> "*" SNSUser : promotes administration >
Company "1" - -> "1" SNSUserStore : uses >
SpecifyNewSNSUserController ..> Company
SpecifyNewSNSUserController ..> SNSUser
SpecifyNewSNSUserUI ..> SpecifyNewSNSUserController
SpecifyNewSNSUserController ..> SNSUserStore


@enduml

PlantUML version 1.2022.1(Tue Feb 01 18:19:58 GMT 2022)
(GPL source distribution)
Java Runtime: OpenJDK Runtime Environment
JVM: OpenJDK 64-Bit Server VM
Default Encoding: Cp1252
Language: pt
Country: PT
--></g></svg>