<?xml version="1.0" encoding="UTF-8" standalone="no"?><svg xmlns="http://www.w3.org/2000/svg" xmlns:xlink="http://www.w3.org/1999/xlink" contentStyleType="text/css" height="1309px" preserveAspectRatio="none" style="width:2306px;height:1309px;background:#FFFFFF;" version="1.1" viewBox="0 0 2306 1309" width="2306px" zoomAndPan="magnify"><defs/><g><rect fill="#FFFFFF" height="1117.1016" style="stroke:#181818;stroke-width:1.0;" width="10" x="59.5" y="92.6094"/><rect fill="#FFFFFF" height="30.3516" style="stroke:#181818;stroke-width:1.0;" width="10" x="422.5" y="114.9609"/><rect fill="#FFFFFF" height="448.3828" style="stroke:#181818;stroke-width:1.0;" width="10" x="422.5" y="175.6641"/><rect fill="#FFFFFF" height="555.3125" style="stroke:#181818;stroke-width:1.0;" width="10" x="422.5" y="654.3984"/><rect fill="#FFFFFF" height="363.3281" style="stroke:#181818;stroke-width:1.0;" width="10" x="609.5" y="206.0156"/><rect fill="#FFFFFF" height="495.6094" style="stroke:#181818;stroke-width:1.0;" width="10" x="609.5" y="684.75"/><rect fill="#FFFFFF" height="30" style="stroke:#181818;stroke-width:1.0;" width="10" x="812.5" y="715.1016"/><rect fill="#FFFFFF" height="189.9219" style="stroke:#181818;stroke-width:1.0;" width="10" x="907.5" y="271.7188"/><rect fill="#FFFFFF" height="30" style="stroke:#181818;stroke-width:1.0;" width="10" x="907.5" y="524.3438"/><rect fill="#FFFFFF" height="139.7031" style="stroke:#181818;stroke-width:1.0;" width="10" x="1234.5" y="321.9375"/><rect fill="#FFFFFF" height="28" style="stroke:#181818;stroke-width:1.0;" width="10" x="1239.5" y="360.2891"/><rect fill="#FFFFFF" height="28" style="stroke:#181818;stroke-width:1.0;" width="10" x="1239.5" y="433.6406"/><rect fill="#FFFFFF" height="157.1484" style="stroke:#181818;stroke-width:1.0;" width="10" x="1561.5" y="775.4531"/><rect fill="#FFFFFF" height="109.7031" style="stroke:#181818;stroke-width:1.0;" width="10" x="1561.5" y="1048.6563"/><rect fill="#FFFFFF" height="71.3516" style="stroke:#181818;stroke-width:1.0;" width="10" x="1566.5" y="1087.0078"/><rect fill="#FFFFFF" height="28" style="stroke:#181818;stroke-width:1.0;" width="10" x="1571.5" y="1130.3594"/><rect fill="#FFFFFF" height="126.7969" style="stroke:#181818;stroke-width:1.0;" width="10" x="1760.5" y="805.8047"/><rect fill="#FFFFFF" height="30" style="stroke:#181818;stroke-width:1.0;" width="10" x="2221.5" y="988.3047"/><rect height="348.3281" style="stroke:#000000;stroke-width:1.5;fill:none;" width="1044.5" x="527" y="221.0156"/><rect height="78.7031" style="stroke:#000000;stroke-width:1.5;fill:none;" width="428.5" x="537" y="483.6406"/><rect height="597.0156" style="stroke:#000000;stroke-width:1.5;fill:none;" width="2290.5" x="10" y="583.3438"/><rect height="225.7578" style="stroke:#000000;stroke-width:1.5;fill:none;" width="1753.5" x="537" y="947.6016"/><line style="stroke:#181818;stroke-width:0.5;fill:none;stroke-dasharray:5.0,5.0;" x1="64" x2="64" y1="82.6094" y2="1227.7109"/><line style="stroke:#181818;stroke-width:0.5;fill:none;stroke-dasharray:5.0,5.0;" x1="427" x2="427" y1="82.6094" y2="1227.7109"/><line style="stroke:#181818;stroke-width:0.5;fill:none;stroke-dasharray:5.0,5.0;" x1="614" x2="614" y1="82.6094" y2="1227.7109"/><line style="stroke:#181818;stroke-width:0.5;fill:none;stroke-dasharray:5.0,5.0;" x1="817.5" x2="817.5" y1="82.6094" y2="1227.7109"/><line style="stroke:#181818;stroke-width:0.5;fill:none;stroke-dasharray:5.0,5.0;" x1="912.5" x2="912.5" y1="279.4766" y2="1227.7109"/><line style="stroke:#181818;stroke-width:0.5;fill:none;stroke-dasharray:5.0,5.0;" x1="1239" x2="1239" y1="82.6094" y2="1227.7109"/><line style="stroke:#181818;stroke-width:0.5;fill:none;stroke-dasharray:5.0,5.0;" x1="1566.5" x2="1566.5" y1="82.6094" y2="1227.7109"/><line style="stroke:#181818;stroke-width:0.5;fill:none;stroke-dasharray:5.0,5.0;" x1="1765.5" x2="1765.5" y1="82.6094" y2="1227.7109"/><line style="stroke:#181818;stroke-width:0.5;fill:none;stroke-dasharray:5.0,5.0;" x1="1884.5" x2="1884.5" y1="82.6094" y2="1227.7109"/><line style="stroke:#181818;stroke-width:0.5;fill:none;stroke-dasharray:5.0,5.0;" x1="1979.5" x2="1979.5" y1="82.6094" y2="1227.7109"/><line style="stroke:#181818;stroke-width:0.5;fill:none;stroke-dasharray:5.0,5.0;" x1="2093.5" x2="2093.5" y1="82.6094" y2="1227.7109"/><line style="stroke:#181818;stroke-width:0.5;fill:none;stroke-dasharray:5.0,5.0;" x1="2226.5" x2="2226.5" y1="82.6094" y2="1227.7109"/><text fill="#000000" font-family="sans-serif" font-size="14" lengthAdjust="spacing" textLength="83" x="20" y="79.5332">Administrator</text><ellipse cx="64.5" cy="13.5" fill="#E2E2F0" rx="8" ry="8" style="stroke:#181818;stroke-width:0.5;"/><path d="M64.5,21.5 L64.5,48.5 M51.5,29.5 L77.5,29.5 M64.5,48.5 L51.5,63.5 M64.5,48.5 L77.5,63.5 " fill="none" style="stroke:#181818;stroke-width:0.5;"/><text fill="#000000" font-family="sans-serif" font-size="14" lengthAdjust="spacing" textLength="83" x="20" y="1241.2441">Administrator</text><ellipse cx="64.5" cy="1252.8203" fill="#E2E2F0" rx="8" ry="8" style="stroke:#181818;stroke-width:0.5;"/><path d="M64.5,1260.8203 L64.5,1287.8203 M51.5,1268.8203 L77.5,1268.8203 M64.5,1287.8203 L51.5,1302.8203 M64.5,1287.8203 L77.5,1302.8203 " fill="none" style="stroke:#181818;stroke-width:0.5;"/><rect fill="#E2E2F0" height="49.2188" rx="2.5" ry="2.5" style="stroke:#181818;stroke-width:0.5;" width="81" x="387" y="32.3906"/><text fill="#000000" font-family="sans-serif" font-size="14" lengthAdjust="spacing" textLength="4" x="425.5" y="53.9238">:</text><text fill="#000000" font-family="sans-serif" font-size="14" lengthAdjust="spacing" textLength="67" x="394" y="71.5332">LoadFileUI</text><rect fill="#E2E2F0" height="49.2188" rx="2.5" ry="2.5" style="stroke:#181818;stroke-width:0.5;" width="81" x="387" y="1226.7109"/><text fill="#000000" font-family="sans-serif" font-size="14" lengthAdjust="spacing" textLength="4" x="425.5" y="1248.2441">:</text><text fill="#000000" font-family="sans-serif" font-size="14" lengthAdjust="spacing" textLength="67" x="394" y="1265.8535">LoadFileUI</text><rect fill="#E2E2F0" height="49.2188" rx="2.5" ry="2.5" style="stroke:#181818;stroke-width:0.5;" width="135" x="547" y="32.3906"/><text fill="#000000" font-family="sans-serif" font-size="14" lengthAdjust="spacing" textLength="4" x="612.5" y="53.9238">:</text><text fill="#000000" font-family="sans-serif" font-size="14" lengthAdjust="spacing" textLength="117" x="554" y="71.5332">LoadFileController</text><rect fill="#E2E2F0" height="49.2188" rx="2.5" ry="2.5" style="stroke:#181818;stroke-width:0.5;" width="135" x="547" y="1226.7109"/><text fill="#000000" font-family="sans-serif" font-size="14" lengthAdjust="spacing" textLength="4" x="612.5" y="1248.2441">:</text><text fill="#000000" font-family="sans-serif" font-size="14" lengthAdjust="spacing" textLength="117" x="554" y="1265.8535">LoadFileController</text><rect fill="#E2E2F0" height="49.2188" rx="2.5" ry="2.5" style="stroke:#181818;stroke-width:0.5;" width="74" x="780.5" y="32.3906"/><text fill="#000000" font-family="sans-serif" font-size="14" lengthAdjust="spacing" textLength="4" x="815.5" y="53.9238">:</text><text fill="#000000" font-family="sans-serif" font-size="14" lengthAdjust="spacing" textLength="60" x="787.5" y="71.5332">Company</text><rect fill="#E2E2F0" height="49.2188" rx="2.5" ry="2.5" style="stroke:#181818;stroke-width:0.5;" width="74" x="780.5" y="1226.7109"/><text fill="#000000" font-family="sans-serif" font-size="14" lengthAdjust="spacing" textLength="4" x="815.5" y="1248.2441">:</text><text fill="#000000" font-family="sans-serif" font-size="14" lengthAdjust="spacing" textLength="60" x="787.5" y="1265.8535">Company</text><rect fill="#E2E2F0" height="49.2188" rx="2.5" ry="2.5" style="stroke:#181818;stroke-width:0.5;" width="86" x="869.5" y="1226.7109"/><text fill="#000000" font-family="sans-serif" font-size="14" lengthAdjust="spacing" textLength="57" x="884" y="1248.2441">fHandler:</text><text fill="#000000" font-family="sans-serif" font-size="14" lengthAdjust="spacing" textLength="72" x="876.5" y="1265.8535">FileHandler</text><rect fill="#E2E2F0" height="49.2188" rx="2.5" ry="2.5" style="stroke:#181818;stroke-width:0.5;" width="63" x="1208" y="32.3906"/><text fill="#000000" font-family="sans-serif" font-size="14" lengthAdjust="spacing" textLength="4" x="1237.5" y="53.9238">:</text><text fill="#000000" font-family="sans-serif" font-size="14" lengthAdjust="spacing" textLength="49" x="1215" y="71.5332">FileUtils</text><rect fill="#E2E2F0" height="49.2188" rx="2.5" ry="2.5" style="stroke:#181818;stroke-width:0.5;" width="63" x="1208" y="1226.7109"/><text fill="#000000" font-family="sans-serif" font-size="14" lengthAdjust="spacing" textLength="4" x="1237.5" y="1248.2441">:</text><text fill="#000000" font-family="sans-serif" font-size="14" lengthAdjust="spacing" textLength="49" x="1215" y="1265.8535">FileUtils</text><rect fill="#E2E2F0" height="49.2188" rx="2.5" ry="2.5" style="stroke:#181818;stroke-width:0.5;" width="104" x="1514.5" y="32.3906"/><text fill="#000000" font-family="sans-serif" font-size="14" lengthAdjust="spacing" textLength="36" x="1548.5" y="53.9238">store:</text><text fill="#000000" font-family="sans-serif" font-size="14" lengthAdjust="spacing" textLength="90" x="1521.5" y="71.5332">SNSUserStore</text><rect fill="#E2E2F0" height="49.2188" rx="2.5" ry="2.5" style="stroke:#181818;stroke-width:0.5;" width="104" x="1514.5" y="1226.7109"/><text fill="#000000" font-family="sans-serif" font-size="14" lengthAdjust="spacing" textLength="36" x="1548.5" y="1248.2441">store:</text><text fill="#000000" font-family="sans-serif" font-size="14" lengthAdjust="spacing" textLength="90" x="1521.5" y="1265.8535">SNSUserStore</text><rect fill="#E2E2F0" height="49.2188" rx="2.5" ry="2.5" style="stroke:#181818;stroke-width:0.5;" width="118" x="1706.5" y="32.3906"/><text fill="#000000" font-family="sans-serif" font-size="14" lengthAdjust="spacing" textLength="4" x="1763.5" y="53.9238">:</text><text fill="#000000" font-family="sans-serif" font-size="14" lengthAdjust="spacing" textLength="104" x="1713.5" y="71.5332">SNSUserMapper</text><rect fill="#E2E2F0" height="49.2188" rx="2.5" ry="2.5" style="stroke:#181818;stroke-width:0.5;" width="118" x="1706.5" y="1226.7109"/><text fill="#000000" font-family="sans-serif" font-size="14" lengthAdjust="spacing" textLength="4" x="1763.5" y="1248.2441">:</text><text fill="#000000" font-family="sans-serif" font-size="14" lengthAdjust="spacing" textLength="104" x="1713.5" y="1265.8535">SNSUserMapper</text><rect fill="#E2E2F0" height="49.2188" rx="2.5" ry="2.5" style="stroke:#181818;stroke-width:0.5;" width="100" x="1834.5" y="32.3906"/><text fill="#000000" font-family="sans-serif" font-size="14" lengthAdjust="spacing" textLength="24" x="1872.5" y="53.9238">dto:</text><text fill="#000000" font-family="sans-serif" font-size="14" lengthAdjust="spacing" textLength="86" x="1841.5" y="71.5332">SNSUserDTO</text><rect fill="#E2E2F0" height="49.2188" rx="2.5" ry="2.5" style="stroke:#181818;stroke-width:0.5;" width="100" x="1834.5" y="1226.7109"/><text fill="#000000" font-family="sans-serif" font-size="14" lengthAdjust="spacing" textLength="24" x="1872.5" y="1248.2441">dto:</text><text fill="#000000" font-family="sans-serif" font-size="14" lengthAdjust="spacing" textLength="86" x="1841.5" y="1265.8535">SNSUserDTO</text><rect fill="#E2E2F0" height="49.2188" rx="2.5" ry="2.5" style="stroke:#181818;stroke-width:0.5;" width="70" x="1944.5" y="32.3906"/><text fill="#000000" font-family="sans-serif" font-size="14" lengthAdjust="spacing" textLength="55" x="1952" y="53.9238">snsUser:</text><text fill="#000000" font-family="sans-serif" font-size="14" lengthAdjust="spacing" textLength="56" x="1951.5" y="71.5332">SNSUser</text><rect fill="#E2E2F0" height="49.2188" rx="2.5" ry="2.5" style="stroke:#181818;stroke-width:0.5;" width="70" x="1944.5" y="1226.7109"/><text fill="#000000" font-family="sans-serif" font-size="14" lengthAdjust="spacing" textLength="55" x="1952" y="1248.2441">snsUser:</text><text fill="#000000" font-family="sans-serif" font-size="14" lengthAdjust="spacing" textLength="56" x="1951.5" y="1265.8535">SNSUser</text><rect fill="#E2E2F0" height="49.2188" rx="2.5" ry="2.5" style="stroke:#181818;stroke-width:0.5;" width="138" x="2024.5" y="32.3906"/><text fill="#000000" font-family="sans-serif" font-size="14" lengthAdjust="spacing" textLength="47" x="2070" y="53.9238">lSUDto:</text><text fill="#000000" font-family="sans-serif" font-size="14" lengthAdjust="spacing" textLength="124" x="2031.5" y="71.5332">List&lt;SNSUserDTO&gt;</text><rect fill="#E2E2F0" height="49.2188" rx="2.5" ry="2.5" style="stroke:#181818;stroke-width:0.5;" width="138" x="2024.5" y="1226.7109"/><text fill="#000000" font-family="sans-serif" font-size="14" lengthAdjust="spacing" textLength="47" x="2070" y="1248.2441">lSUDto:</text><text fill="#000000" font-family="sans-serif" font-size="14" lengthAdjust="spacing" textLength="124" x="2031.5" y="1265.8535">List&lt;SNSUserDTO&gt;</text><rect fill="#E2E2F0" height="49.2188" rx="2.5" ry="2.5" style="stroke:#181818;stroke-width:0.5;" width="108" x="2172.5" y="32.3906"/><text fill="#000000" font-family="sans-serif" font-size="14" lengthAdjust="spacing" textLength="25" x="2214" y="53.9238">lSU:</text><text fill="#000000" font-family="sans-serif" font-size="14" lengthAdjust="spacing" textLength="94" x="2179.5" y="71.5332">List&lt;SNSUser&gt;</text><rect fill="#E2E2F0" height="49.2188" rx="2.5" ry="2.5" style="stroke:#181818;stroke-width:0.5;" width="108" x="2172.5" y="1226.7109"/><text fill="#000000" font-family="sans-serif" font-size="14" lengthAdjust="spacing" textLength="25" x="2214" y="1248.2441">lSU:</text><text fill="#000000" font-family="sans-serif" font-size="14" lengthAdjust="spacing" textLength="94" x="2179.5" y="1265.8535">List&lt;SNSUser&gt;</text><rect fill="#FFFFFF" height="1117.1016" style="stroke:#181818;stroke-width:1.0;" width="10" x="59.5" y="92.6094"/><rect fill="#FFFFFF" height="30.3516" style="stroke:#181818;stroke-width:1.0;" width="10" x="422.5" y="114.9609"/><rect fill="#FFFFFF" height="448.3828" style="stroke:#181818;stroke-width:1.0;" width="10" x="422.5" y="175.6641"/><rect fill="#FFFFFF" height="555.3125" style="stroke:#181818;stroke-width:1.0;" width="10" x="422.5" y="654.3984"/><rect fill="#FFFFFF" height="363.3281" style="stroke:#181818;stroke-width:1.0;" width="10" x="609.5" y="206.0156"/><rect fill="#FFFFFF" height="495.6094" style="stroke:#181818;stroke-width:1.0;" width="10" x="609.5" y="684.75"/><rect fill="#FFFFFF" height="30" style="stroke:#181818;stroke-width:1.0;" width="10" x="812.5" y="715.1016"/><rect fill="#FFFFFF" height="189.9219" style="stroke:#181818;stroke-width:1.0;" width="10" x="907.5" y="271.7188"/><rect fill="#FFFFFF" height="30" style="stroke:#181818;stroke-width:1.0;" width="10" x="907.5" y="524.3438"/><rect fill="#FFFFFF" height="139.7031" style="stroke:#181818;stroke-width:1.0;" width="10" x="1234.5" y="321.9375"/><rect fill="#FFFFFF" height="28" style="stroke:#181818;stroke-width:1.0;" width="10" x="1239.5" y="360.2891"/><rect fill="#FFFFFF" height="28" style="stroke:#181818;stroke-width:1.0;" width="10" x="1239.5" y="433.6406"/><rect fill="#FFFFFF" height="157.1484" style="stroke:#181818;stroke-width:1.0;" width="10" x="1561.5" y="775.4531"/><rect fill="#FFFFFF" height="109.7031" style="stroke:#181818;stroke-width:1.0;" width="10" x="1561.5" y="1048.6563"/><rect fill="#FFFFFF" height="71.3516" style="stroke:#181818;stroke-width:1.0;" width="10" x="1566.5" y="1087.0078"/><rect fill="#FFFFFF" height="28" style="stroke:#181818;stroke-width:1.0;" width="10" x="1571.5" y="1130.3594"/><rect fill="#FFFFFF" height="126.7969" style="stroke:#181818;stroke-width:1.0;" width="10" x="1760.5" y="805.8047"/><rect fill="#FFFFFF" height="30" style="stroke:#181818;stroke-width:1.0;" width="10" x="2221.5" y="988.3047"/><polygon fill="#181818" points="410.5,110.9609,420.5,114.9609,410.5,118.9609,414.5,114.9609" style="stroke:#181818;stroke-width:1.0;"/><line style="stroke:#181818;stroke-width:1.0;" x1="69.5" x2="416.5" y1="114.9609" y2="114.9609"/><text fill="#000000" font-family="sans-serif" font-size="13" font-weight="bold" lengthAdjust="spacing" textLength="7" x="76.5" y="110.1045">1</text><text fill="#000000" font-family="sans-serif" font-size="13" lengthAdjust="spacing" textLength="293" x="87.5" y="110.1045">start ordering to load a set of users from a CSV file</text><polygon fill="#181818" points="80.5,141.3125,70.5,145.3125,80.5,149.3125,76.5,145.3125" style="stroke:#181818;stroke-width:1.0;"/><line style="stroke:#181818;stroke-width:1.0;stroke-dasharray:2.0,2.0;" x1="74.5" x2="426.5" y1="145.3125" y2="145.3125"/><text fill="#000000" font-family="sans-serif" font-size="13" font-weight="bold" lengthAdjust="spacing" textLength="7" x="86.5" y="140.4561">2</text><text fill="#000000" font-family="sans-serif" font-size="13" lengthAdjust="spacing" textLength="270" x="97.5" y="140.4561">asks to insert the path of CSV file to be loaded</text><polygon fill="#181818" points="410.5,171.6641,420.5,175.6641,410.5,179.6641,414.5,175.6641" style="stroke:#181818;stroke-width:1.0;"/><line style="stroke:#181818;stroke-width:1.0;" x1="69.5" x2="416.5" y1="175.6641" y2="175.6641"/><text fill="#000000" font-family="sans-serif" font-size="13" font-weight="bold" lengthAdjust="spacing" textLength="7" x="76.5" y="170.8076">3</text><text fill="#000000" font-family="sans-serif" font-size="13" lengthAdjust="spacing" textLength="227" x="87.5" y="170.8076">insert the path for CSV file to be loaded</text><polygon fill="#181818" points="597.5,202.0156,607.5,206.0156,597.5,210.0156,601.5,206.0156" style="stroke:#181818;stroke-width:1.0;"/><line style="stroke:#181818;stroke-width:1.0;" x1="432.5" x2="603.5" y1="206.0156" y2="206.0156"/><text fill="#000000" font-family="sans-serif" font-size="13" font-weight="bold" lengthAdjust="spacing" textLength="7" x="439.5" y="201.1592">4</text><text fill="#000000" font-family="sans-serif" font-size="13" lengthAdjust="spacing" textLength="147" x="450.5" y="201.1592">getDataFromFile(filePath)</text><path d="M527,221.0156 L600,221.0156 L600,229.3672 L590,239.3672 L527,239.3672 L527,221.0156 " fill="#EEEEEE" style="stroke:#000000;stroke-width:1.5;"/><rect fill="none" height="348.3281" style="stroke:#000000;stroke-width:1.5;" width="1044.5" x="527" y="221.0156"/><text fill="#000000" font-family="sans-serif" font-size="13" font-weight="bold" lengthAdjust="spacing" textLength="28" x="542" y="235.5107">loop</text><text fill="#000000" font-family="sans-serif" font-size="11" font-weight="bold" lengthAdjust="spacing" textLength="137" x="615" y="234.4346">[every file type possible]</text><polygon fill="#181818" points="857.5,257.7188,867.5,261.7188,857.5,265.7188,861.5,261.7188" style="stroke:#181818;stroke-width:1.0;"/><line style="stroke:#181818;stroke-width:1.0;stroke-dasharray:2.0,2.0;" x1="619.5" x2="863.5" y1="261.7188" y2="261.7188"/><text fill="#000000" font-family="sans-serif" font-size="13" font-weight="bold" lengthAdjust="spacing" textLength="7" x="626.5" y="256.8623">5</text><text fill="#000000" font-family="sans-serif" font-size="13" lengthAdjust="spacing" textLength="215" x="637.5" y="256.8623">fHandler = createFileHandler(filePath)</text><rect fill="#E2E2F0" height="49.2188" rx="2.5" ry="2.5" style="stroke:#181818;stroke-width:0.5;" width="86" x="869.5" y="239.3672"/><text fill="#000000" font-family="sans-serif" font-size="14" lengthAdjust="spacing" textLength="57" x="884" y="260.9004">fHandler:</text><text fill="#000000" font-family="sans-serif" font-size="14" lengthAdjust="spacing" textLength="72" x="876.5" y="278.5098">FileHandler</text><polygon fill="#181818" points="1222.5,317.9375,1232.5,321.9375,1222.5,325.9375,1226.5,321.9375" style="stroke:#181818;stroke-width:1.0;"/><line style="stroke:#181818;stroke-width:1.0;" x1="917.5" x2="1228.5" y1="321.9375" y2="321.9375"/><text fill="#000000" font-family="sans-serif" font-size="13" font-weight="bold" lengthAdjust="spacing" textLength="7" x="924.5" y="317.0811">6</text><text fill="#000000" font-family="sans-serif" font-size="13" lengthAdjust="spacing" textLength="287" x="935.5" y="317.0811">message = validateFile(file, supportedExtensions)</text><line style="stroke:#181818;stroke-width:1.0;" x1="1249.5" x2="1291.5" y1="352.2891" y2="352.2891"/><line style="stroke:#181818;stroke-width:1.0;" x1="1291.5" x2="1291.5" y1="352.2891" y2="365.2891"/><line style="stroke:#181818;stroke-width:1.0;" x1="1250.5" x2="1291.5" y1="365.2891" y2="365.2891"/><polygon fill="#181818" points="1260.5,361.2891,1250.5,365.2891,1260.5,369.2891,1256.5,365.2891" style="stroke:#181818;stroke-width:1.0;"/><text fill="#000000" font-family="sans-serif" font-size="13" font-weight="bold" lengthAdjust="spacing" textLength="7" x="1256.5" y="347.4326">7</text><text fill="#000000" font-family="sans-serif" font-size="13" lengthAdjust="spacing" textLength="77" x="1267.5" y="347.4326">fileExists(file)</text><line style="stroke:#181818;stroke-width:1.0;" x1="1249.5" x2="1291.5" y1="425.6406" y2="425.6406"/><line style="stroke:#181818;stroke-width:1.0;" x1="1291.5" x2="1291.5" y1="425.6406" y2="438.6406"/><line style="stroke:#181818;stroke-width:1.0;" x1="1250.5" x2="1291.5" y1="438.6406" y2="438.6406"/><polygon fill="#181818" points="1260.5,434.6406,1250.5,438.6406,1260.5,442.6406,1256.5,438.6406" style="stroke:#181818;stroke-width:1.0;"/><text fill="#000000" font-family="sans-serif" font-size="13" font-weight="bold" lengthAdjust="spacing" textLength="7" x="1256.5" y="420.7842">8</text><text fill="#000000" font-family="sans-serif" font-size="13" lengthAdjust="spacing" textLength="292" x="1267.5" y="420.7842">hasSupportedExtension(file, supportedExtensions)</text><path d="M537,483.6406 L598,483.6406 L598,491.9922 L588,501.9922 L537,501.9922 L537,483.6406 " fill="#EEEEEE" style="stroke:#000000;stroke-width:1.5;"/><rect fill="none" height="78.7031" style="stroke:#000000;stroke-width:1.5;" width="428.5" x="537" y="483.6406"/><text fill="#000000" font-family="sans-serif" font-size="13" font-weight="bold" lengthAdjust="spacing" textLength="16" x="552" y="498.1357">alt</text><text fill="#000000" font-family="sans-serif" font-size="11" font-weight="bold" lengthAdjust="spacing" textLength="76" x="613" y="497.0596">[if file is valid]</text><polygon fill="#181818" points="895.5,520.3438,905.5,524.3438,895.5,528.3438,899.5,524.3438" style="stroke:#181818;stroke-width:1.0;"/><line style="stroke:#181818;stroke-width:1.0;" x1="619.5" x2="901.5" y1="524.3438" y2="524.3438"/><text fill="#000000" font-family="sans-serif" font-size="13" font-weight="bold" lengthAdjust="spacing" textLength="7" x="626.5" y="519.4873">9</text><text fill="#000000" font-family="sans-serif" font-size="13" lengthAdjust="spacing" textLength="211" x="637.5" y="519.4873">lSUDto = readDataToSNSUserDTO()</text><path d="M10,583.3438 L71,583.3438 L71,591.6953 L61,601.6953 L10,601.6953 L10,583.3438 " fill="#EEEEEE" style="stroke:#000000;stroke-width:1.5;"/><rect fill="none" height="597.0156" style="stroke:#000000;stroke-width:1.5;" width="2290.5" x="10" y="583.3438"/><text fill="#000000" font-family="sans-serif" font-size="13" font-weight="bold" lengthAdjust="spacing" textLength="16" x="25" y="597.8389">alt</text><text fill="#000000" font-family="sans-serif" font-size="11" font-weight="bold" lengthAdjust="spacing" textLength="76" x="86" y="596.7627">[if file is valid]</text><polygon fill="#181818" points="80.5,620.0469,70.5,624.0469,80.5,628.0469,76.5,624.0469" style="stroke:#181818;stroke-width:1.0;"/><line style="stroke:#181818;stroke-width:1.0;stroke-dasharray:2.0,2.0;" x1="74.5" x2="426.5" y1="624.0469" y2="624.0469"/><text fill="#000000" font-family="sans-serif" font-size="13" font-weight="bold" lengthAdjust="spacing" textLength="14" x="86.5" y="619.1904">10</text><text fill="#000000" font-family="sans-serif" font-size="13" lengthAdjust="spacing" textLength="311" x="104.5" y="619.1904">requests confirmation to start loading the specified file</text><polygon fill="#181818" points="410.5,650.3984,420.5,654.3984,410.5,658.3984,414.5,654.3984" style="stroke:#181818;stroke-width:1.0;"/><line style="stroke:#181818;stroke-width:1.0;" x1="69.5" x2="416.5" y1="654.3984" y2="654.3984"/><text fill="#000000" font-family="sans-serif" font-size="13" font-weight="bold" lengthAdjust="spacing" textLength="14" x="76.5" y="649.542">11</text><text fill="#000000" font-family="sans-serif" font-size="13" lengthAdjust="spacing" textLength="166" x="94.5" y="649.542">confirms the file to be loaded</text><polygon fill="#181818" points="597.5,680.75,607.5,684.75,597.5,688.75,601.5,684.75" style="stroke:#181818;stroke-width:1.0;"/><line style="stroke:#181818;stroke-width:1.0;" x1="432.5" x2="603.5" y1="684.75" y2="684.75"/><text fill="#000000" font-family="sans-serif" font-size="13" font-weight="bold" lengthAdjust="spacing" textLength="14" x="439.5" y="679.8936">12</text><text fill="#000000" font-family="sans-serif" font-size="13" lengthAdjust="spacing" textLength="134" x="457.5" y="679.8936">loadSNSUsers(lUSDto)</text><polygon fill="#181818" points="800.5,711.1016,810.5,715.1016,800.5,719.1016,804.5,715.1016" style="stroke:#181818;stroke-width:1.0;"/><line style="stroke:#181818;stroke-width:1.0;" x1="619.5" x2="806.5" y1="715.1016" y2="715.1016"/><text fill="#000000" font-family="sans-serif" font-size="13" font-weight="bold" lengthAdjust="spacing" textLength="14" x="626.5" y="710.2451">13</text><text fill="#000000" font-family="sans-serif" font-size="13" lengthAdjust="spacing" textLength="156" x="644.5" y="710.2451">store = getSNSUserStore()</text><polygon fill="#181818" points="1549.5,771.4531,1559.5,775.4531,1549.5,779.4531,1553.5,775.4531" style="stroke:#181818;stroke-width:1.0;"/><line style="stroke:#181818;stroke-width:1.0;" x1="619.5" x2="1555.5" y1="775.4531" y2="775.4531"/><text fill="#000000" font-family="sans-serif" font-size="13" font-weight="bold" lengthAdjust="spacing" textLength="14" x="626.5" y="770.5967">14</text><text fill="#000000" font-family="sans-serif" font-size="13" lengthAdjust="spacing" textLength="197" x="644.5" y="770.5967">lSU = lSUDtoToModelList(lSUDto)</text><polygon fill="#181818" points="1748.5,801.8047,1758.5,805.8047,1748.5,809.8047,1752.5,805.8047" style="stroke:#181818;stroke-width:1.0;"/><line style="stroke:#181818;stroke-width:1.0;" x1="1571.5" x2="1754.5" y1="805.8047" y2="805.8047"/><text fill="#000000" font-family="sans-serif" font-size="13" font-weight="bold" lengthAdjust="spacing" textLength="14" x="1578.5" y="800.9482">15</text><text fill="#000000" font-family="sans-serif" font-size="13" lengthAdjust="spacing" textLength="116" x="1596.5" y="800.9482">toModelList(lSUDto)</text><rect height="41.4453" style="stroke:#000000;stroke-width:1.5;fill:none;" width="218" x="1703.5" y="838.8047"/><path d="M1703.5,838.8047 L1765.5,838.8047 L1765.5,846.8047 L1755.5,856.8047 L1703.5,856.8047 L1703.5,838.8047 " fill="#EEEEEE" style="stroke:#000000;stroke-width:2.0;"/><text fill="#000000" font-family="sans-serif" font-size="13" font-weight="bold" lengthAdjust="spacing" textLength="17" x="1716.5" y="854.2998">ref</text><text fill="#000000" font-family="sans-serif" font-size="12" lengthAdjust="spacing" textLength="210" x="1707.5" y="873.2617">SD_SNSUserMapper_toModelList_list</text><polygon fill="#181818" points="1577.5,928.6016,1567.5,932.6016,1577.5,936.6016,1573.5,932.6016" style="stroke:#181818;stroke-width:1.0;"/><line style="stroke:#181818;stroke-width:1.0;stroke-dasharray:2.0,2.0;" x1="1571.5" x2="1764.5" y1="932.6016" y2="932.6016"/><text fill="#000000" font-family="sans-serif" font-size="13" font-weight="bold" lengthAdjust="spacing" textLength="14" x="1583.5" y="927.7451">16</text><text fill="#000000" font-family="sans-serif" font-size="13" lengthAdjust="spacing" textLength="21" x="1601.5" y="927.7451">lSU</text><path d="M537,947.6016 L610,947.6016 L610,955.9531 L600,965.9531 L537,965.9531 L537,947.6016 " fill="#EEEEEE" style="stroke:#000000;stroke-width:1.5;"/><rect fill="none" height="225.7578" style="stroke:#000000;stroke-width:1.5;" width="1753.5" x="537" y="947.6016"/><text fill="#000000" font-family="sans-serif" font-size="13" font-weight="bold" lengthAdjust="spacing" textLength="28" x="552" y="962.0967">loop</text><text fill="#000000" font-family="sans-serif" font-size="11" font-weight="bold" lengthAdjust="spacing" textLength="123" x="625" y="961.0205">[for each object in lSU]</text><polygon fill="#181818" points="2209.5,984.3047,2219.5,988.3047,2209.5,992.3047,2213.5,988.3047" style="stroke:#181818;stroke-width:1.0;"/><line style="stroke:#181818;stroke-width:1.0;" x1="619.5" x2="2215.5" y1="988.3047" y2="988.3047"/><text fill="#000000" font-family="sans-serif" font-size="13" font-weight="bold" lengthAdjust="spacing" textLength="14" x="626.5" y="983.4482">17</text><text fill="#000000" font-family="sans-serif" font-size="13" lengthAdjust="spacing" textLength="93" x="644.5" y="983.4482">snsUser = get(i)</text><polygon fill="#181818" points="1549.5,1044.6563,1559.5,1048.6563,1549.5,1052.6563,1553.5,1048.6563" style="stroke:#181818;stroke-width:1.0;"/><line style="stroke:#181818;stroke-width:1.0;" x1="619.5" x2="1555.5" y1="1048.6563" y2="1048.6563"/><text fill="#000000" font-family="sans-serif" font-size="13" font-weight="bold" lengthAdjust="spacing" textLength="14" x="626.5" y="1043.7998">18</text><text fill="#000000" font-family="sans-serif" font-size="13" lengthAdjust="spacing" textLength="136" x="644.5" y="1043.7998">saveSNSUser(snsUser)</text><line style="stroke:#181818;stroke-width:1.0;" x1="1571.5" x2="1618.5" y1="1074.0078" y2="1074.0078"/><line style="stroke:#181818;stroke-width:1.0;" x1="1618.5" x2="1618.5" y1="1074.0078" y2="1087.0078"/><line style="stroke:#181818;stroke-width:1.0;" x1="1577.5" x2="1618.5" y1="1087.0078" y2="1087.0078"/><polygon fill="#181818" points="1587.5,1083.0078,1577.5,1087.0078,1587.5,1091.0078,1583.5,1087.0078" style="stroke:#181818;stroke-width:1.0;"/><text fill="#000000" font-family="sans-serif" font-size="13" font-weight="bold" lengthAdjust="spacing" textLength="14" x="1583.5" y="1069.1514">19</text><text fill="#000000" font-family="sans-serif" font-size="13" lengthAdjust="spacing" textLength="153" x="1601.5" y="1069.1514">validateSNSUser(snsUser)</text><line style="stroke:#181818;stroke-width:1.0;" x1="1581.5" x2="1623.5" y1="1122.3594" y2="1122.3594"/><line style="stroke:#181818;stroke-width:1.0;" x1="1623.5" x2="1623.5" y1="1122.3594" y2="1135.3594"/><line style="stroke:#181818;stroke-width:1.0;" x1="1582.5" x2="1623.5" y1="1135.3594" y2="1135.3594"/><polygon fill="#181818" points="1592.5,1131.3594,1582.5,1135.3594,1592.5,1139.3594,1588.5,1135.3594" style="stroke:#181818;stroke-width:1.0;"/><text fill="#000000" font-family="sans-serif" font-size="13" font-weight="bold" lengthAdjust="spacing" textLength="14" x="1588.5" y="1117.5029">20</text><text fill="#000000" font-family="sans-serif" font-size="13" lengthAdjust="spacing" textLength="152" x="1606.5" y="1117.5029">checkDuplicates(snsUser)</text><polygon fill="#181818" points="75.5,1205.7109,65.5,1209.7109,75.5,1213.7109,71.5,1209.7109" style="stroke:#181818;stroke-width:1.0;"/><line style="stroke:#181818;stroke-width:1.0;stroke-dasharray:2.0,2.0;" x1="69.5" x2="426.5" y1="1209.7109" y2="1209.7109"/><text fill="#000000" font-family="sans-serif" font-size="13" font-weight="bold" lengthAdjust="spacing" textLength="14" x="81.5" y="1204.8545">21</text><text fill="#000000" font-family="sans-serif" font-size="13" lengthAdjust="spacing" textLength="152" x="99.5" y="1204.8545">informs operation success</text><!--MD5=[5c9160b1ab250d99f51d0098b989844c]
@startuml
autonumber
'hide footbox

actor "Administrator" as admin

participant ":\nLoadFileUI" as ui
participant ":\nLoadFileController " as controller
participant ":\nCompany" as company
participant "fHandler:\nFileHandler" as fileHandler
participant ":\nFileUtils" as fUtils
participant "store:\nSNSUserStore" as store
participant ":\nSNSUserMapper" as mapper
participant "dto:\nSNSUserDTO" as dto
participant "snsUser:\nSNSUser" as snsUser
participant "lSUDto:\nList<SNSUserDTO>" as lSUDto
participant "lSU:\nList<SNSUser>" as lSU

activate admin
admin -> ui : start ordering to load a set of users from a CSV file
activate ui
ui - -> admin : asks to insert the path of CSV file to be loaded
deactivate ui

admin -> ui : insert the path for CSV file to be loaded
activate ui

'Validate file (if file exists in the given path and check if it has a valid extension)
ui -> controller : getDataFromFile(filePath)
activate controller
loop every file type possible
    controller - -> fileHandler** : fHandler = createFileHandler(filePath)
    activate fileHandler
    fileHandler -> fUtils : message = validateFile(file, supportedExtensions)
    activate fUtils
    fUtils -> fUtils : fileExists(file)
    activate fUtils
    deactivate fUtils
    fUtils -> fUtils : hasSupportedExtension(file, supportedExtensions)
    activate fUtils
    deactivate fUtils
    deactivate fUtils
    deactivate fileHandler

    alt if file is valid
        controller -> fileHandler : lSUDto = readDataToSNSUserDTO()
        activate fileHandler
        deactivate fileHandler
    end
    deactivate controller
end

alt if file is valid
    ui - -> admin : requests confirmation to start loading the specified file
    deactivate ui

    admin -> ui : confirms the file to be loaded
    activate ui

    'Read the file and register the data
    ui -> controller : loadSNSUsers(lUSDto)
    activate controller

    controller -> company : store = getSNSUserStore()
    activate company
    deactivate company


    controller -> store : lSU = lSUDtoToModelList(lSUDto)
    activate store
    store -> mapper : toModelList(lSUDto)
    activate mapper
    'todo
    |||
    ref over mapper
        SD_SNSUserMapper_toModelList_list
    end ref
    |||
    mapper - -> store : lSU

    deactivate mapper
    deactivate store

    loop for each object in lSU
        controller -> lSU : snsUser = get(i)
        activate lSU
        deactivate lSU
        controller -> store : saveSNSUser(snsUser)
        activate store
        store -> store : validateSNSUser(snsUser)
        activate store
        store -> store : checkDuplicates(snsUser)
        activate store
        deactivate store
        deactivate store
        deactivate store
    end
    deactivate controller
end

ui - -> admin : informs operation success
deactivate ui

deactivate admin

@enduml

@startuml
autonumber

actor "Administrator" as admin

participant ":\nLoadFileUI" as ui
participant ":\nLoadFileController " as controller
participant ":\nCompany" as company
participant "fHandler:\nFileHandler" as fileHandler
participant ":\nFileUtils" as fUtils
participant "store:\nSNSUserStore" as store
participant ":\nSNSUserMapper" as mapper
participant "dto:\nSNSUserDTO" as dto
participant "snsUser:\nSNSUser" as snsUser
participant "lSUDto:\nList<SNSUserDTO>" as lSUDto
participant "lSU:\nList<SNSUser>" as lSU

activate admin
admin -> ui : start ordering to load a set of users from a CSV file
activate ui
ui - -> admin : asks to insert the path of CSV file to be loaded
deactivate ui

admin -> ui : insert the path for CSV file to be loaded
activate ui

ui -> controller : getDataFromFile(filePath)
activate controller
loop every file type possible
    controller - -> fileHandler** : fHandler = createFileHandler(filePath)
    activate fileHandler
    fileHandler -> fUtils : message = validateFile(file, supportedExtensions)
    activate fUtils
    fUtils -> fUtils : fileExists(file)
    activate fUtils
    deactivate fUtils
    fUtils -> fUtils : hasSupportedExtension(file, supportedExtensions)
    activate fUtils
    deactivate fUtils
    deactivate fUtils
    deactivate fileHandler

    alt if file is valid
        controller -> fileHandler : lSUDto = readDataToSNSUserDTO()
        activate fileHandler
        deactivate fileHandler
    end
    deactivate controller
end

alt if file is valid
    ui - -> admin : requests confirmation to start loading the specified file
    deactivate ui

    admin -> ui : confirms the file to be loaded
    activate ui

    ui -> controller : loadSNSUsers(lUSDto)
    activate controller

    controller -> company : store = getSNSUserStore()
    activate company
    deactivate company


    controller -> store : lSU = lSUDtoToModelList(lSUDto)
    activate store
    store -> mapper : toModelList(lSUDto)
    activate mapper
    |||
    ref over mapper
        SD_SNSUserMapper_toModelList_list
    end ref
    |||
    mapper - -> store : lSU

    deactivate mapper
    deactivate store

    loop for each object in lSU
        controller -> lSU : snsUser = get(i)
        activate lSU
        deactivate lSU
        controller -> store : saveSNSUser(snsUser)
        activate store
        store -> store : validateSNSUser(snsUser)
        activate store
        store -> store : checkDuplicates(snsUser)
        activate store
        deactivate store
        deactivate store
        deactivate store
    end
    deactivate controller
end

ui - -> admin : informs operation success
deactivate ui

deactivate admin

@enduml

PlantUML version 1.2022.4(Sat Apr 09 14:29:17 BST 2022)
(GPL source distribution)
Java Runtime: OpenJDK Runtime Environment
JVM: OpenJDK 64-Bit Server VM
Default Encoding: Cp1252
Language: pt
Country: PT
--></g></svg>