<?xml version="1.0" encoding="UTF-8" standalone="no"?><svg xmlns="http://www.w3.org/2000/svg" xmlns:xlink="http://www.w3.org/1999/xlink" contentScriptType="application/ecmascript" contentStyleType="text/css" height="235px" preserveAspectRatio="none" style="width:830px;height:235px;background:#FFFFFF;" version="1.1" viewBox="0 0 830 235" width="830px" zoomAndPan="magnify"><defs><filter height="300%" id="f2druqrbxzdiw" width="300%" x="-1" y="-1"><feGaussianBlur result="blurOut" stdDeviation="2.0"/><feColorMatrix in="blurOut" result="blurOut2" type="matrix" values="0 0 0 0 0 0 0 0 0 0 0 0 0 0 0 0 0 0 .4 0"/><feOffset dx="4.0" dy="4.0" in="blurOut2" result="blurOut3"/><feBlend in="SourceGraphic" in2="blurOut3" mode="normal"/></filter></defs><g><!--MD5=[02e4b9b7573f1156f41e60aa5b4e25a4]
class Company--><rect codeLine="5" fill="#FEFECE" filter="url(#f2druqrbxzdiw)" height="53.8359" id="Company" style="stroke:#A80036;stroke-width:1.5;" width="85" x="7" y="115"/><ellipse cx="22" cy="131" fill="#ADD1B2" rx="11" ry="11" style="stroke:#A80036;stroke-width:1.0;"/><path d="M24,127.5 Q24.2031,127 24.4375,126.75 Q24.6719,126.5 24.9375,126.5 Q25.4063,126.5 25.7031,126.7813 Q26,127.0625 26,127.7188 L26,129.2813 Q26,129.9375 25.7188,130.2188 Q25.4375,130.5 25,130.5 Q24.6094,130.5 24.3594,130.3281 Q24.1094,130.1563 24,129.7031 Q23.9531,129.3906 23.7813,129.2188 Q23.4688,128.8906 22.9063,128.7031 Q22.3438,128.5 21.7813,128.5 Q21.0781,128.5 20.4844,128.7813 Q19.9063,129.0625 19.4531,129.6875 Q19,130.3125 19,131.1719 L19,132.0938 Q19,133.125 19.8438,133.8125 Q20.6875,134.5 22.1875,134.5 Q23.0781,134.5 23.7031,134.2969 Q24.0625,134.1875 24.4688,133.8281 Q24.7344,133.625 24.875,133.5625 Q25.0156,133.5 25.1875,133.5 Q25.5156,133.5 25.75,133.7656 Q26,134.0156 26,134.375 Q26,134.7188 25.6563,135.125 Q25.1563,135.7188 24.3594,136.0469 Q23.3125,136.5 22.0313,136.5 Q20.5313,136.5 19.3281,135.9063 Q18.3594,135.4375 17.6719,134.4219 Q17,133.4063 17,132.2031 L17,131.1094 Q17,129.8594 17.5938,128.7656 Q18.2031,127.6719 19.25,127.0938 Q20.3125,126.5 21.5,126.5 Q22.2188,126.5 22.8438,126.75 Q23.4688,127 24,127.5 Z " fill="#000000"/><text fill="#000000" font-family="sans-serif" font-size="12" lengthAdjust="spacing" textLength="53" x="36" y="135.9102">Company</text><line style="stroke:#A80036;stroke-width:1.5;" x1="8" x2="91" y1="147" y2="147"/><text fill="#000000" font-family="sans-serif" font-size="11" lengthAdjust="spacing" textLength="59" x="13" y="162.4189">-designation</text><!--MD5=[da547346deef918ea16944ba046651ef]
class Administrator--><rect codeLine="9" fill="#FEFECE" filter="url(#f2druqrbxzdiw)" height="40" id="Administrator" style="stroke:#A80036;stroke-width:1.5;" width="105" x="711" y="181"/><ellipse cx="726" cy="197" fill="#ADD1B2" rx="11" ry="11" style="stroke:#A80036;stroke-width:1.0;"/><path d="M728,193.5 Q728.2031,193 728.4375,192.75 Q728.6719,192.5 728.9375,192.5 Q729.4063,192.5 729.7031,192.7813 Q730,193.0625 730,193.7188 L730,195.2813 Q730,195.9375 729.7188,196.2188 Q729.4375,196.5 729,196.5 Q728.6094,196.5 728.3594,196.3281 Q728.1094,196.1563 728,195.7031 Q727.9531,195.3906 727.7813,195.2188 Q727.4688,194.8906 726.9063,194.7031 Q726.3438,194.5 725.7813,194.5 Q725.0781,194.5 724.4844,194.7813 Q723.9063,195.0625 723.4531,195.6875 Q723,196.3125 723,197.1719 L723,198.0938 Q723,199.125 723.8438,199.8125 Q724.6875,200.5 726.1875,200.5 Q727.0781,200.5 727.7031,200.2969 Q728.0625,200.1875 728.4688,199.8281 Q728.7344,199.625 728.875,199.5625 Q729.0156,199.5 729.1875,199.5 Q729.5156,199.5 729.75,199.7656 Q730,200.0156 730,200.375 Q730,200.7188 729.6563,201.125 Q729.1563,201.7188 728.3594,202.0469 Q727.3125,202.5 726.0313,202.5 Q724.5313,202.5 723.3281,201.9063 Q722.3594,201.4375 721.6719,200.4219 Q721,199.4063 721,198.2031 L721,197.1094 Q721,195.8594 721.5938,194.7656 Q722.2031,193.6719 723.25,193.0938 Q724.3125,192.5 725.5,192.5 Q726.2188,192.5 726.8438,192.75 Q727.4688,193 728,193.5 Z " fill="#000000"/><text fill="#000000" font-family="sans-serif" font-size="12" lengthAdjust="spacing" textLength="73" x="740" y="201.9102">Administrator</text><line style="stroke:#A80036;stroke-width:1.5;" x1="712" x2="815" y1="213" y2="213"/><!--MD5=[19e445fc4d3b48519cbe33da05496394]
class Vaccine--><rect codeLine="12" fill="#FEFECE" filter="url(#f2druqrbxzdiw)" height="81.5078" id="Vaccine" style="stroke:#A80036;stroke-width:1.5;" width="75" x="247.5" y="7"/><ellipse cx="262.5" cy="23" fill="#ADD1B2" rx="11" ry="11" style="stroke:#A80036;stroke-width:1.0;"/><path d="M264.5,19.5 Q264.7031,19 264.9375,18.75 Q265.1719,18.5 265.4375,18.5 Q265.9063,18.5 266.2031,18.7813 Q266.5,19.0625 266.5,19.7188 L266.5,21.2813 Q266.5,21.9375 266.2188,22.2188 Q265.9375,22.5 265.5,22.5 Q265.1094,22.5 264.8594,22.3281 Q264.6094,22.1563 264.5,21.7031 Q264.4531,21.3906 264.2813,21.2188 Q263.9688,20.8906 263.4063,20.7031 Q262.8438,20.5 262.2813,20.5 Q261.5781,20.5 260.9844,20.7813 Q260.4063,21.0625 259.9531,21.6875 Q259.5,22.3125 259.5,23.1719 L259.5,24.0938 Q259.5,25.125 260.3438,25.8125 Q261.1875,26.5 262.6875,26.5 Q263.5781,26.5 264.2031,26.2969 Q264.5625,26.1875 264.9688,25.8281 Q265.2344,25.625 265.375,25.5625 Q265.5156,25.5 265.6875,25.5 Q266.0156,25.5 266.25,25.7656 Q266.5,26.0156 266.5,26.375 Q266.5,26.7188 266.1563,27.125 Q265.6563,27.7188 264.8594,28.0469 Q263.8125,28.5 262.5313,28.5 Q261.0313,28.5 259.8281,27.9063 Q258.8594,27.4375 258.1719,26.4219 Q257.5,25.4063 257.5,24.2031 L257.5,23.1094 Q257.5,21.8594 258.0938,20.7656 Q258.7031,19.6719 259.75,19.0938 Q260.8125,18.5 262,18.5 Q262.7188,18.5 263.3438,18.75 Q263.9688,19 264.5,19.5 Z " fill="#000000"/><text fill="#000000" font-family="sans-serif" font-size="12" lengthAdjust="spacing" textLength="43" x="276.5" y="27.9102">Vaccine</text><line style="stroke:#A80036;stroke-width:1.5;" x1="248.5" x2="321.5" y1="39" y2="39"/><text fill="#000000" font-family="sans-serif" font-size="11" lengthAdjust="spacing" textLength="12" x="253.5" y="54.4189">-id</text><text fill="#000000" font-family="sans-serif" font-size="11" lengthAdjust="spacing" textLength="30" x="253.5" y="68.2549">-name</text><text fill="#000000" font-family="sans-serif" font-size="11" lengthAdjust="spacing" textLength="32" x="253.5" y="82.0908">-brand</text><!--MD5=[0e501da62322464167c8ec4d233a6b7e]
class VaccineType--><rect codeLine="18" fill="#FEFECE" filter="url(#f2druqrbxzdiw)" height="81.5078" id="VaccineType" style="stroke:#A80036;stroke-width:1.5;" width="101" x="474" y="95"/><ellipse cx="489" cy="111" fill="#ADD1B2" rx="11" ry="11" style="stroke:#A80036;stroke-width:1.0;"/><path d="M491,107.5 Q491.2031,107 491.4375,106.75 Q491.6719,106.5 491.9375,106.5 Q492.4063,106.5 492.7031,106.7813 Q493,107.0625 493,107.7188 L493,109.2813 Q493,109.9375 492.7188,110.2188 Q492.4375,110.5 492,110.5 Q491.6094,110.5 491.3594,110.3281 Q491.1094,110.1563 491,109.7031 Q490.9531,109.3906 490.7813,109.2188 Q490.4688,108.8906 489.9063,108.7031 Q489.3438,108.5 488.7813,108.5 Q488.0781,108.5 487.4844,108.7813 Q486.9063,109.0625 486.4531,109.6875 Q486,110.3125 486,111.1719 L486,112.0938 Q486,113.125 486.8438,113.8125 Q487.6875,114.5 489.1875,114.5 Q490.0781,114.5 490.7031,114.2969 Q491.0625,114.1875 491.4688,113.8281 Q491.7344,113.625 491.875,113.5625 Q492.0156,113.5 492.1875,113.5 Q492.5156,113.5 492.75,113.7656 Q493,114.0156 493,114.375 Q493,114.7188 492.6563,115.125 Q492.1563,115.7188 491.3594,116.0469 Q490.3125,116.5 489.0313,116.5 Q487.5313,116.5 486.3281,115.9063 Q485.3594,115.4375 484.6719,114.4219 Q484,113.4063 484,112.2031 L484,111.1094 Q484,109.8594 484.5938,108.7656 Q485.2031,107.6719 486.25,107.0938 Q487.3125,106.5 488.5,106.5 Q489.2188,106.5 489.8438,106.75 Q490.4688,107 491,107.5 Z " fill="#000000"/><text fill="#000000" font-family="sans-serif" font-size="12" lengthAdjust="spacing" textLength="69" x="503" y="115.9102">VaccineType</text><line style="stroke:#A80036;stroke-width:1.5;" x1="475" x2="574" y1="127" y2="127"/><text fill="#000000" font-family="sans-serif" font-size="11" lengthAdjust="spacing" textLength="28" x="480" y="142.4189">-code</text><text fill="#000000" font-family="sans-serif" font-size="11" lengthAdjust="spacing" textLength="57" x="480" y="156.2549">-description</text><text fill="#000000" font-family="sans-serif" font-size="11" lengthAdjust="spacing" textLength="57" x="480" y="170.0908">-technology</text><!--MD5=[c29c8d42883934cbaf5793c72a334947]
link Company to Vaccine--><path codeLine="24" d="M92.25,125.19 C136.32,107.45 205.13,79.75 247.23,62.8 " fill="none" id="Company-Vaccine" style="stroke:#A80036;stroke-width:1.0;"/><polygon fill="#000000" points="131.6383,82.3086,122.15,82.9601,124.3451,88.4127,131.6383,82.3086" style="stroke:#000000;stroke-width:1.0;"/><text fill="#000000" font-family="sans-serif" font-size="13" lengthAdjust="spacing" textLength="41" x="136" y="89.4951">applies</text><text fill="#000000" font-family="sans-serif" font-size="13" lengthAdjust="spacing" textLength="7" x="99.9102" y="137.2687">1</text><text fill="#000000" font-family="sans-serif" font-size="13" lengthAdjust="spacing" textLength="5" x="234.5535" y="80.7218">*</text><!--MD5=[05986564e1c13a00611587b35563d868]
link Company to VaccineType--><path codeLine="25" d="M92.06,141.47 C179.08,140.37 380.11,137.82 473.78,136.63 " fill="none" id="Company-VaccineType" style="stroke:#A80036;stroke-width:1.0;"/><polygon fill="#000000" points="217.9996,130.1124,208.918,127.2884,208.9925,133.1658,217.9996,130.1124" style="stroke:#000000;stroke-width:1.0;"/><text fill="#000000" font-family="sans-serif" font-size="13" lengthAdjust="spacing" textLength="139" x="222" y="135.4951">promotes administration</text><text fill="#000000" font-family="sans-serif" font-size="13" lengthAdjust="spacing" textLength="7" x="99.9766" y="156.2933">1</text><text fill="#000000" font-family="sans-serif" font-size="13" lengthAdjust="spacing" textLength="5" x="460.9633" y="151.4546">*</text><!--MD5=[304db59a05c0da2cdffc3c882f2d9e9b]
link Administrator to Company--><path codeLine="26" d="M710.83,201.54 C653.04,201.76 556.69,201.02 474,195 C333.4,184.77 167.88,160.47 92.13,148.67 " fill="none" id="Administrator-Company" style="stroke:#A80036;stroke-width:1.0;"/><polygon fill="#000000" points="401.9818,178.6015,393.2198,174.9031,392.7194,180.7596,401.9818,178.6015" style="stroke:#000000;stroke-width:1.0;"/><text fill="#000000" font-family="sans-serif" font-size="13" lengthAdjust="spacing" textLength="37" x="406" y="183.4951">knows</text><text fill="#000000" font-family="sans-serif" font-size="13" lengthAdjust="spacing" textLength="5" x="698.0717" y="216.2608">*</text><text fill="#000000" font-family="sans-serif" font-size="13" lengthAdjust="spacing" textLength="7" x="100.0586" y="164.7308">1</text><!--MD5=[3568623adf67b2630dce9e60c05bd02a]
link Vaccine to VaccineType--><path codeLine="27" d="M322.59,61.56 C363.06,76.55 428.49,100.8 473.63,117.52 " fill="none" id="Vaccine-VaccineType" style="stroke:#A80036;stroke-width:1.0;"/><polygon fill="#000000" points="408.1885,82.9129,400.7279,77.0146,398.6858,82.5263,408.1885,82.9129" style="stroke:#000000;stroke-width:1.0;"/><text fill="#000000" font-family="sans-serif" font-size="13" lengthAdjust="spacing" textLength="24" x="412.5" y="86.4951">is of</text><text fill="#000000" font-family="sans-serif" font-size="13" lengthAdjust="spacing" textLength="5" x="330.4827" y="79.3828">*</text><text fill="#000000" font-family="sans-serif" font-size="13" lengthAdjust="spacing" textLength="7" x="458.9842" y="129.6007">1</text><!--MD5=[f0553939d664499c8c3e148c02d4348e]
link VaccineType to Administrator--><path codeLine="28" d="M575.18,149.63 C614.95,160.53 670.55,175.78 710.83,186.83 " fill="none" id="VaccineType-Administrator" style="stroke:#A80036;stroke-width:1.0;"/><polygon fill="#000000" points="614.822,151.4981,606.8762,146.2717,605.3217,151.9403,614.822,151.4981" style="stroke:#000000;stroke-width:1.0;"/><text fill="#000000" font-family="sans-serif" font-size="13" lengthAdjust="spacing" textLength="61" x="619" y="155.4951">created by</text><text fill="#000000" font-family="sans-serif" font-size="13" lengthAdjust="spacing" textLength="5" x="582.9908" y="166.364">*</text><text fill="#000000" font-family="sans-serif" font-size="13" lengthAdjust="spacing" textLength="7" x="695.9311" y="181.2322">1</text><!--MD5=[ad0ae7a3cf026c91830a88d801f2a533]
@startuml
hide methods
left to right direction
skinparam classAttributeIconSize 0

class Company {
    -designation
}

class Administrator {
}

class Vaccine {
    -id
    -name
    -brand
}

class VaccineType {
    -code
    -description
    -technology
}

Company "1" - - "*" Vaccine : applies >
Company "1" - - "*" VaccineType : promotes administration >
Administrator "*" - - "1" Company : knows <
Vaccine "*" - - "1" VaccineType : is of >
VaccineType "*" - - "1" Administrator : created by >

@enduml

PlantUML version 1.2022.1(Tue Feb 01 18:19:58 GMT 2022)
(GPL source distribution)
Java Runtime: OpenJDK Runtime Environment
JVM: OpenJDK 64-Bit Server VM
Default Encoding: Cp1252
Language: pt
Country: PT
--></g></svg>