<?xml version="1.0" encoding="UTF-8" standalone="no"?><svg xmlns="http://www.w3.org/2000/svg" xmlns:xlink="http://www.w3.org/1999/xlink" contentStyleType="text/css" height="503px" preserveAspectRatio="none" style="width:1012px;height:503px;background:#FFFFFF;" version="1.1" viewBox="0 0 1012 503" width="1012px" zoomAndPan="magnify"><defs/><g><!--MD5=[02e4b9b7573f1156f41e60aa5b4e25a4]
class Company--><g id="elem_Company"><rect codeLine="5" fill="#F1F1F1" height="57.6094" id="Company" rx="2.5" ry="2.5" style="stroke:#181818;stroke-width:0.5;" width="92" x="86.5" y="7"/><ellipse cx="101.5" cy="23" fill="#ADD1B2" rx="11" ry="11" style="stroke:#181818;stroke-width:1.0;"/><path d="M103.5,19.5 Q103.7031,19 103.9375,18.75 Q104.1719,18.5 104.4375,18.5 Q104.9063,18.5 105.2031,18.7813 Q105.5,19.0625 105.5,19.7188 L105.5,21.2813 Q105.5,21.9375 105.2188,22.2188 Q104.9375,22.5 104.5,22.5 Q104.1094,22.5 103.8594,22.3281 Q103.6094,22.1563 103.5,21.7031 Q103.4531,21.3906 103.2813,21.2188 Q102.9688,20.8906 102.4063,20.7031 Q101.8438,20.5 101.2813,20.5 Q100.5781,20.5 99.9844,20.7813 Q99.4063,21.0625 98.9531,21.6875 Q98.5,22.3125 98.5,23.1719 L98.5,24.0938 Q98.5,25.125 99.3438,25.8125 Q100.1875,26.5 101.6875,26.5 Q102.5781,26.5 103.2031,26.2969 Q103.5625,26.1875 103.9688,25.8281 Q104.2344,25.625 104.375,25.5625 Q104.5156,25.5 104.6875,25.5 Q105.0156,25.5 105.25,25.7656 Q105.5,26.0156 105.5,26.375 Q105.5,26.7188 105.1563,27.125 Q104.6563,27.7188 103.8594,28.0469 Q102.8125,28.5 101.5313,28.5 Q100.0313,28.5 98.8281,27.9063 Q97.8594,27.4375 97.1719,26.4219 Q96.5,25.4063 96.5,24.2031 L96.5,23.1094 Q96.5,21.8594 97.0938,20.7656 Q97.7031,19.6719 98.75,19.0938 Q99.8125,18.5 101,18.5 Q101.7188,18.5 102.3438,18.75 Q102.9688,19 103.5,19.5 Z " fill="#000000"/><text fill="#000000" font-family="sans-serif" font-size="14" lengthAdjust="spacing" textLength="60" x="115.5" y="28.7285">Company</text><line style="stroke:#181818;stroke-width:0.5;" x1="87.5" x2="177.5" y1="39" y2="39"/><text fill="#000000" font-family="sans-serif" font-size="14" lengthAdjust="spacing" textLength="78" x="92.5" y="57.5332">-designation</text></g><!--MD5=[72be06cc7ae02ccc98efe28a50e62246]
class SNSUser--><g id="elem_SNSUser"><rect codeLine="9" fill="#F1F1F1" height="163.2656" id="SNSUser" rx="2.5" ry="2.5" style="stroke:#181818;stroke-width:0.5;" width="136" x="365.5" y="110.5"/><ellipse cx="402.1" cy="126.5" fill="#ADD1B2" rx="11" ry="11" style="stroke:#181818;stroke-width:1.0;"/><path d="M404.1,123 Q404.3031,122.5 404.5375,122.25 Q404.7719,122 405.0375,122 Q405.5063,122 405.8031,122.2813 Q406.1,122.5625 406.1,123.2188 L406.1,124.7813 Q406.1,125.4375 405.8188,125.7188 Q405.5375,126 405.1,126 Q404.7094,126 404.4594,125.8281 Q404.2094,125.6563 404.1,125.2031 Q404.0531,124.8906 403.8813,124.7188 Q403.5688,124.3906 403.0063,124.2031 Q402.4438,124 401.8813,124 Q401.1781,124 400.5844,124.2813 Q400.0063,124.5625 399.5531,125.1875 Q399.1,125.8125 399.1,126.6719 L399.1,127.5938 Q399.1,128.625 399.9438,129.3125 Q400.7875,130 402.2875,130 Q403.1781,130 403.8031,129.7969 Q404.1625,129.6875 404.5688,129.3281 Q404.8344,129.125 404.975,129.0625 Q405.1156,129 405.2875,129 Q405.6156,129 405.85,129.2656 Q406.1,129.5156 406.1,129.875 Q406.1,130.2188 405.7563,130.625 Q405.2563,131.2188 404.4594,131.5469 Q403.4125,132 402.1313,132 Q400.6313,132 399.4281,131.4063 Q398.4594,130.9375 397.7719,129.9219 Q397.1,128.9063 397.1,127.7031 L397.1,126.6094 Q397.1,125.3594 397.6938,124.2656 Q398.3031,123.1719 399.35,122.5938 Q400.4125,122 401.6,122 Q402.3188,122 402.9438,122.25 Q403.5688,122.5 404.1,123 Z " fill="#000000"/><text fill="#000000" font-family="sans-serif" font-size="14" lengthAdjust="spacing" textLength="56" x="420.9" y="132.2285">SNSUser</text><line style="stroke:#181818;stroke-width:0.5;" x1="366.5" x2="500.5" y1="142.5" y2="142.5"/><text fill="#000000" font-family="sans-serif" font-size="14" lengthAdjust="spacing" textLength="40" x="371.5" y="161.0332">-name</text><text fill="#000000" font-family="sans-serif" font-size="14" lengthAdjust="spacing" textLength="26" x="371.5" y="178.6426">-sex</text><text fill="#000000" font-family="sans-serif" font-size="14" lengthAdjust="spacing" textLength="94" x="371.5" y="196.252">-phoneNumber</text><text fill="#000000" font-family="sans-serif" font-size="14" lengthAdjust="spacing" textLength="38" x="371.5" y="213.8613">-email</text><text fill="#000000" font-family="sans-serif" font-size="14" lengthAdjust="spacing" textLength="63" x="371.5" y="231.4707">-birthDate</text><text fill="#000000" font-family="sans-serif" font-size="14" lengthAdjust="spacing" textLength="81" x="371.5" y="249.0801">-SNSNumber</text><text fill="#000000" font-family="sans-serif" font-size="14" lengthAdjust="spacing" textLength="124" x="371.5" y="266.6895">-citizenCardNumber</text></g><!--MD5=[0f39e4cb6f03951afbf6d14bd2505654]
class Address--><g id="elem_Address"><rect codeLine="19" fill="#F1F1F1" height="198.4844" id="Address" rx="2.5" ry="2.5" style="stroke:#181818;stroke-width:0.5;" width="91" x="87" y="100"/><ellipse cx="105.15" cy="116" fill="#ADD1B2" rx="11" ry="11" style="stroke:#181818;stroke-width:1.0;"/><path d="M107.15,112.5 Q107.3531,112 107.5875,111.75 Q107.8219,111.5 108.0875,111.5 Q108.5563,111.5 108.8531,111.7813 Q109.15,112.0625 109.15,112.7188 L109.15,114.2813 Q109.15,114.9375 108.8688,115.2188 Q108.5875,115.5 108.15,115.5 Q107.7594,115.5 107.5094,115.3281 Q107.2594,115.1563 107.15,114.7031 Q107.1031,114.3906 106.9313,114.2188 Q106.6188,113.8906 106.0563,113.7031 Q105.4938,113.5 104.9313,113.5 Q104.2281,113.5 103.6344,113.7813 Q103.0563,114.0625 102.6031,114.6875 Q102.15,115.3125 102.15,116.1719 L102.15,117.0938 Q102.15,118.125 102.9938,118.8125 Q103.8375,119.5 105.3375,119.5 Q106.2281,119.5 106.8531,119.2969 Q107.2125,119.1875 107.6188,118.8281 Q107.8844,118.625 108.025,118.5625 Q108.1656,118.5 108.3375,118.5 Q108.6656,118.5 108.9,118.7656 Q109.15,119.0156 109.15,119.375 Q109.15,119.7188 108.8063,120.125 Q108.3063,120.7188 107.5094,121.0469 Q106.4625,121.5 105.1813,121.5 Q103.6813,121.5 102.4781,120.9063 Q101.5094,120.4375 100.8219,119.4219 Q100.15,118.4063 100.15,117.2031 L100.15,116.1094 Q100.15,114.8594 100.7438,113.7656 Q101.3531,112.6719 102.4,112.0938 Q103.4625,111.5 104.65,111.5 Q105.3688,111.5 105.9938,111.75 Q106.6188,112 107.15,112.5 Z " fill="#000000"/><text fill="#000000" font-family="sans-serif" font-size="14" lengthAdjust="spacing" textLength="52" x="119.85" y="121.7285">Address</text><line style="stroke:#181818;stroke-width:0.5;" x1="88" x2="177" y1="132" y2="132"/><text fill="#000000" font-family="sans-serif" font-size="14" lengthAdjust="spacing" textLength="52" x="93" y="150.5332">-country</text><text fill="#000000" font-family="sans-serif" font-size="14" lengthAdjust="spacing" textLength="26" x="93" y="168.1426">-city</text><text fill="#000000" font-family="sans-serif" font-size="14" lengthAdjust="spacing" textLength="47" x="93" y="185.752">-county</text><text fill="#000000" font-family="sans-serif" font-size="14" lengthAdjust="spacing" textLength="44" x="93" y="203.3613">-parish</text><text fill="#000000" font-family="sans-serif" font-size="14" lengthAdjust="spacing" textLength="41" x="93" y="220.9707">-street</text><text fill="#000000" font-family="sans-serif" font-size="14" lengthAdjust="spacing" textLength="79" x="93" y="238.5801">-portNumber</text><text fill="#000000" font-family="sans-serif" font-size="14" lengthAdjust="spacing" textLength="77" x="93" y="256.1895">-postalCode</text><text fill="#000000" font-family="sans-serif" font-size="14" lengthAdjust="spacing" textLength="33" x="93" y="273.7988">-floor</text><text fill="#000000" font-family="sans-serif" font-size="14" lengthAdjust="spacing" textLength="79" x="93" y="291.4082">-observation</text></g><!--MD5=[8d21a970f1bd1e0e0584d0ecf91221be]
class ScheduleVaccine--><g id="elem_ScheduleVaccine"><rect codeLine="31" fill="#F1F1F1" height="75.2188" id="ScheduleVaccine" rx="2.5" ry="2.5" style="stroke:#181818;stroke-width:0.5;" width="141" x="363" y="339.5"/><ellipse cx="378" cy="355.5" fill="#ADD1B2" rx="11" ry="11" style="stroke:#181818;stroke-width:1.0;"/><path d="M380,352 Q380.2031,351.5 380.4375,351.25 Q380.6719,351 380.9375,351 Q381.4063,351 381.7031,351.2813 Q382,351.5625 382,352.2188 L382,353.7813 Q382,354.4375 381.7188,354.7188 Q381.4375,355 381,355 Q380.6094,355 380.3594,354.8281 Q380.1094,354.6563 380,354.2031 Q379.9531,353.8906 379.7813,353.7188 Q379.4688,353.3906 378.9063,353.2031 Q378.3438,353 377.7813,353 Q377.0781,353 376.4844,353.2813 Q375.9063,353.5625 375.4531,354.1875 Q375,354.8125 375,355.6719 L375,356.5938 Q375,357.625 375.8438,358.3125 Q376.6875,359 378.1875,359 Q379.0781,359 379.7031,358.7969 Q380.0625,358.6875 380.4688,358.3281 Q380.7344,358.125 380.875,358.0625 Q381.0156,358 381.1875,358 Q381.5156,358 381.75,358.2656 Q382,358.5156 382,358.875 Q382,359.2188 381.6563,359.625 Q381.1563,360.2188 380.3594,360.5469 Q379.3125,361 378.0313,361 Q376.5313,361 375.3281,360.4063 Q374.3594,359.9375 373.6719,358.9219 Q373,357.9063 373,356.7031 L373,355.6094 Q373,354.3594 373.5938,353.2656 Q374.2031,352.1719 375.25,351.5938 Q376.3125,351 377.5,351 Q378.2188,351 378.8438,351.25 Q379.4688,351.5 380,352 Z " fill="#000000"/><text fill="#000000" font-family="sans-serif" font-size="14" lengthAdjust="spacing" textLength="109" x="392" y="361.2285">ScheduleVaccine</text><line style="stroke:#181818;stroke-width:0.5;" x1="364" x2="503" y1="371.5" y2="371.5"/><text fill="#000000" font-family="sans-serif" font-size="14" lengthAdjust="spacing" textLength="33" x="369" y="390.0332">-date</text><text fill="#000000" font-family="sans-serif" font-size="14" lengthAdjust="spacing" textLength="31" x="369" y="407.6426">-time</text></g><!--MD5=[56872536300a053cf9fd13853ad6ab1e]
class CommunityMassVaccinationCenter--><g id="elem_CommunityMassVaccinationCenter"><rect codeLine="36" fill="#F1F1F1" height="163.2656" id="CommunityMassVaccinationCenter" rx="2.5" ry="2.5" style="stroke:#181818;stroke-width:0.5;" width="251" x="7" y="333.5"/><ellipse cx="22" cy="349.5" fill="#ADD1B2" rx="11" ry="11" style="stroke:#181818;stroke-width:1.0;"/><path d="M24,346 Q24.2031,345.5 24.4375,345.25 Q24.6719,345 24.9375,345 Q25.4063,345 25.7031,345.2813 Q26,345.5625 26,346.2188 L26,347.7813 Q26,348.4375 25.7188,348.7188 Q25.4375,349 25,349 Q24.6094,349 24.3594,348.8281 Q24.1094,348.6563 24,348.2031 Q23.9531,347.8906 23.7813,347.7188 Q23.4688,347.3906 22.9063,347.2031 Q22.3438,347 21.7813,347 Q21.0781,347 20.4844,347.2813 Q19.9063,347.5625 19.4531,348.1875 Q19,348.8125 19,349.6719 L19,350.5938 Q19,351.625 19.8438,352.3125 Q20.6875,353 22.1875,353 Q23.0781,353 23.7031,352.7969 Q24.0625,352.6875 24.4688,352.3281 Q24.7344,352.125 24.875,352.0625 Q25.0156,352 25.1875,352 Q25.5156,352 25.75,352.2656 Q26,352.5156 26,352.875 Q26,353.2188 25.6563,353.625 Q25.1563,354.2188 24.3594,354.5469 Q23.3125,355 22.0313,355 Q20.5313,355 19.3281,354.4063 Q18.3594,353.9375 17.6719,352.9219 Q17,351.9063 17,350.7031 L17,349.6094 Q17,348.3594 17.5938,347.2656 Q18.2031,346.1719 19.25,345.5938 Q20.3125,345 21.5,345 Q22.2188,345 22.8438,345.25 Q23.4688,345.5 24,346 Z " fill="#000000"/><text fill="#000000" font-family="sans-serif" font-size="14" lengthAdjust="spacing" textLength="219" x="36" y="355.2285">CommunityMassVaccinationCenter</text><line style="stroke:#181818;stroke-width:0.5;" x1="8" x2="257" y1="365.5" y2="365.5"/><text fill="#000000" font-family="sans-serif" font-size="14" lengthAdjust="spacing" textLength="40" x="13" y="384.0332">-name</text><text fill="#000000" font-family="sans-serif" font-size="14" lengthAdjust="spacing" textLength="94" x="13" y="401.6426">-phoneNumber</text><text fill="#000000" font-family="sans-serif" font-size="14" lengthAdjust="spacing" textLength="38" x="13" y="419.252">-email</text><text fill="#000000" font-family="sans-serif" font-size="14" lengthAdjust="spacing" textLength="72" x="13" y="436.8613">-faxNumber</text><text fill="#000000" font-family="sans-serif" font-size="14" lengthAdjust="spacing" textLength="52" x="13" y="454.4707">-website</text><text fill="#000000" font-family="sans-serif" font-size="14" lengthAdjust="spacing" textLength="81" x="13" y="472.0801">-slotDuration</text><text fill="#000000" font-family="sans-serif" font-size="14" lengthAdjust="spacing" textLength="106" x="13" y="489.6895">-slotVaccineLimit</text></g><!--MD5=[0e501da62322464167c8ec4d233a6b7e]
class VaccineType--><g id="elem_VaccineType"><rect codeLine="46" fill="#F1F1F1" height="92.8281" id="VaccineType" rx="2.5" ry="2.5" style="stroke:#181818;stroke-width:0.5;" width="114" x="736" y="330.5"/><ellipse cx="751" cy="346.5" fill="#ADD1B2" rx="11" ry="11" style="stroke:#181818;stroke-width:1.0;"/><path d="M753,343 Q753.2031,342.5 753.4375,342.25 Q753.6719,342 753.9375,342 Q754.4063,342 754.7031,342.2813 Q755,342.5625 755,343.2188 L755,344.7813 Q755,345.4375 754.7188,345.7188 Q754.4375,346 754,346 Q753.6094,346 753.3594,345.8281 Q753.1094,345.6563 753,345.2031 Q752.9531,344.8906 752.7813,344.7188 Q752.4688,344.3906 751.9063,344.2031 Q751.3438,344 750.7813,344 Q750.0781,344 749.4844,344.2813 Q748.9063,344.5625 748.4531,345.1875 Q748,345.8125 748,346.6719 L748,347.5938 Q748,348.625 748.8438,349.3125 Q749.6875,350 751.1875,350 Q752.0781,350 752.7031,349.7969 Q753.0625,349.6875 753.4688,349.3281 Q753.7344,349.125 753.875,349.0625 Q754.0156,349 754.1875,349 Q754.5156,349 754.75,349.2656 Q755,349.5156 755,349.875 Q755,350.2188 754.6563,350.625 Q754.1563,351.2188 753.3594,351.5469 Q752.3125,352 751.0313,352 Q749.5313,352 748.3281,351.4063 Q747.3594,350.9375 746.6719,349.9219 Q746,348.9063 746,347.7031 L746,346.6094 Q746,345.3594 746.5938,344.2656 Q747.2031,343.1719 748.25,342.5938 Q749.3125,342 750.5,342 Q751.2188,342 751.8438,342.25 Q752.4688,342.5 753,343 Z " fill="#000000"/><text fill="#000000" font-family="sans-serif" font-size="14" lengthAdjust="spacing" textLength="82" x="765" y="352.2285">VaccineType</text><line style="stroke:#181818;stroke-width:0.5;" x1="737" x2="849" y1="362.5" y2="362.5"/><text fill="#000000" font-family="sans-serif" font-size="14" lengthAdjust="spacing" textLength="36" x="742" y="381.0332">-code</text><text fill="#000000" font-family="sans-serif" font-size="14" lengthAdjust="spacing" textLength="74" x="742" y="398.6426">-description</text><text fill="#000000" font-family="sans-serif" font-size="14" lengthAdjust="spacing" textLength="74" x="742" y="416.252">-technology</text></g><!--MD5=[7421f545a0d8420c5bec41e74b387d9c]
class Employee--><g id="elem_Employee"><rect fill="#F1F1F1" height="40" id="Employee" rx="2.5" ry="2.5" style="stroke:#181818;stroke-width:0.5;" width="94" x="911" y="98"/><ellipse cx="926" cy="114" fill="#ADD1B2" rx="11" ry="11" style="stroke:#181818;stroke-width:1.0;"/><path d="M928,110.5 Q928.2031,110 928.4375,109.75 Q928.6719,109.5 928.9375,109.5 Q929.4063,109.5 929.7031,109.7813 Q930,110.0625 930,110.7188 L930,112.2813 Q930,112.9375 929.7188,113.2188 Q929.4375,113.5 929,113.5 Q928.6094,113.5 928.3594,113.3281 Q928.1094,113.1563 928,112.7031 Q927.9531,112.3906 927.7813,112.2188 Q927.4688,111.8906 926.9063,111.7031 Q926.3438,111.5 925.7813,111.5 Q925.0781,111.5 924.4844,111.7813 Q923.9063,112.0625 923.4531,112.6875 Q923,113.3125 923,114.1719 L923,115.0938 Q923,116.125 923.8438,116.8125 Q924.6875,117.5 926.1875,117.5 Q927.0781,117.5 927.7031,117.2969 Q928.0625,117.1875 928.4688,116.8281 Q928.7344,116.625 928.875,116.5625 Q929.0156,116.5 929.1875,116.5 Q929.5156,116.5 929.75,116.7656 Q930,117.0156 930,117.375 Q930,117.7188 929.6563,118.125 Q929.1563,118.7188 928.3594,119.0469 Q927.3125,119.5 926.0313,119.5 Q924.5313,119.5 923.3281,118.9063 Q922.3594,118.4375 921.6719,117.4219 Q921,116.4063 921,115.2031 L921,114.1094 Q921,112.8594 921.5938,111.7656 Q922.2031,110.6719 923.25,110.0938 Q924.3125,109.5 925.5,109.5 Q926.2188,109.5 926.8438,109.75 Q927.4688,110 928,110.5 Z " fill="#000000"/><text fill="#000000" font-family="sans-serif" font-size="14" lengthAdjust="spacing" textLength="62" x="940" y="119.7285">Employee</text><line style="stroke:#181818;stroke-width:0.5;" x1="912" x2="1004" y1="130" y2="130"/></g><!--MD5=[03960189e81aa2c066c762ffabbee709]
class Receptionist--><g id="elem_Receptionist"><rect fill="#F1F1F1" height="40" id="Receptionist" rx="2.5" ry="2.5" style="stroke:#181818;stroke-width:0.5;" width="110" x="738" y="172"/><ellipse cx="753" cy="188" fill="#ADD1B2" rx="11" ry="11" style="stroke:#181818;stroke-width:1.0;"/><path d="M755,184.5 Q755.2031,184 755.4375,183.75 Q755.6719,183.5 755.9375,183.5 Q756.4063,183.5 756.7031,183.7813 Q757,184.0625 757,184.7188 L757,186.2813 Q757,186.9375 756.7188,187.2188 Q756.4375,187.5 756,187.5 Q755.6094,187.5 755.3594,187.3281 Q755.1094,187.1563 755,186.7031 Q754.9531,186.3906 754.7813,186.2188 Q754.4688,185.8906 753.9063,185.7031 Q753.3438,185.5 752.7813,185.5 Q752.0781,185.5 751.4844,185.7813 Q750.9063,186.0625 750.4531,186.6875 Q750,187.3125 750,188.1719 L750,189.0938 Q750,190.125 750.8438,190.8125 Q751.6875,191.5 753.1875,191.5 Q754.0781,191.5 754.7031,191.2969 Q755.0625,191.1875 755.4688,190.8281 Q755.7344,190.625 755.875,190.5625 Q756.0156,190.5 756.1875,190.5 Q756.5156,190.5 756.75,190.7656 Q757,191.0156 757,191.375 Q757,191.7188 756.6563,192.125 Q756.1563,192.7188 755.3594,193.0469 Q754.3125,193.5 753.0313,193.5 Q751.5313,193.5 750.3281,192.9063 Q749.3594,192.4375 748.6719,191.4219 Q748,190.4063 748,189.2031 L748,188.1094 Q748,186.8594 748.5938,185.7656 Q749.2031,184.6719 750.25,184.0938 Q751.3125,183.5 752.5,183.5 Q753.2188,183.5 753.8438,183.75 Q754.4688,184 755,184.5 Z " fill="#000000"/><text fill="#000000" font-family="sans-serif" font-size="14" lengthAdjust="spacing" textLength="78" x="767" y="193.7285">Receptionist</text><line style="stroke:#181818;stroke-width:0.5;" x1="739" x2="847" y1="204" y2="204"/></g><!--MD5=[1a8aa2b864b87f860d28abceaa28b7a5]
link Company to SNSUser--><g id="link_Company_SNSUser"><path codeLine="52" d="M178.52,50.1 C202.61,58.26 232.48,69.41 258,82 C294.78,100.14 333.56,124.06 365.2,144.95 " fill="none" id="Company-SNSUser" style="stroke:#181818;stroke-width:1.0;"/><polygon fill="#000000" points="297.4576,94.4406,290.725,87.7233,288.0625,92.9636,297.4576,94.4406" style="stroke:#000000;stroke-width:1.0;"/><text fill="#000000" font-family="sans-serif" font-size="13" lengthAdjust="spacing" textLength="30" x="302" y="97.4951">owns</text><text fill="#000000" font-family="sans-serif" font-size="13" lengthAdjust="spacing" textLength="7" x="186.4123" y="67.1764">1</text><text fill="#000000" font-family="sans-serif" font-size="13" lengthAdjust="spacing" textLength="5" x="352.4563" y="154.1787">*</text></g><!--MD5=[d7ace9ce94145b54e26b24a174e1b7b9]
link Employee to Company--><g id="link_Employee_Company"><path codeLine="53" d="M910.88,113.41 C766.15,99 322.05,54.77 178.65,40.5 " fill="none" id="Employee-Company" style="stroke:#181818;stroke-width:1.0;"/><polygon fill="#000000" points="603.9754,68.6712,595.266,64.8505,594.6836,70.6994,603.9754,68.6712" style="stroke:#000000;stroke-width:1.0;"/><text fill="#000000" font-family="sans-serif" font-size="13" lengthAdjust="spacing" textLength="37" x="608" y="73.4951">knows</text><text fill="#000000" font-family="sans-serif" font-size="13" lengthAdjust="spacing" textLength="5" x="897.9718" y="127.4766">*</text><text fill="#000000" font-family="sans-serif" font-size="13" lengthAdjust="spacing" textLength="7" x="186.563" y="37.4964">1</text></g><!--MD5=[33919b1e7c659d9871b4b7101ebf4f65]
link Address to SNSUser--><g id="link_Address_SNSUser"><path codeLine="54" d="M178.26,197.95 C227.79,196.79 308.13,194.91 365.24,193.57 " fill="none" id="Address-SNSUser" style="stroke:#181818;stroke-width:1.0;"/><polygon fill="#000000" points="292.5014,186.2929,301.6128,189.0192,301.4752,183.1429,292.5014,186.2929" style="stroke:#000000;stroke-width:1.0;"/><text fill="#000000" font-family="sans-serif" font-size="13" lengthAdjust="spacing" textLength="21" x="306.5" y="191.4951">has</text><text fill="#000000" font-family="sans-serif" font-size="13" lengthAdjust="spacing" textLength="7" x="186.1108" y="212.5422">1</text><text fill="#000000" font-family="sans-serif" font-size="13" lengthAdjust="spacing" textLength="7" x="350.3913" y="208.1165">1</text></g><!--MD5=[06bb7d2a85a007b79d10922b2d5e4cdd]
link Receptionist to Employee--><g id="link_Receptionist_Employee"><path codeLine="55" d="M838.11,171.97 C855.41,164.12 875.59,154.96 894.36,146.44 " fill="none" id="Receptionist-to-Employee" style="stroke:#181818;stroke-width:1.0;"/><polygon fill="none" points="891.75,139.94,912.85,138.04,897.54,152.68,891.75,139.94" style="stroke:#181818;stroke-width:1.0;"/></g><!--MD5=[0da899dde0fedca21db9f32aae5dda86]
link ScheduleVaccine to Receptionist--><g id="link_ScheduleVaccine_Receptionist"><path codeLine="56" d="M504.28,340.89 C578.65,302.4 693.72,242.86 753.3,212.03 " fill="none" id="ScheduleVaccine-Receptionist" style="stroke:#181818;stroke-width:1.0;"/><polygon fill="#000000" points="584.4407,224.8779,575.0567,226.4247,577.7581,231.645,584.4407,224.8779" style="stroke:#000000;stroke-width:1.0;"/><text fill="#000000" font-family="sans-serif" font-size="13" lengthAdjust="spacing" textLength="75" x="589" y="232.4951">requested by</text><text fill="#000000" font-family="sans-serif" font-size="13" lengthAdjust="spacing" textLength="5" x="511.837" y="351.4931">*</text><text fill="#000000" font-family="sans-serif" font-size="13" lengthAdjust="spacing" textLength="7" x="734.15" y="233.458">1</text></g><!--MD5=[9c3cd67dac7b49ab3c0a1c71a5351391]
link SNSUser to Receptionist--><g id="link_SNSUser_Receptionist"><path codeLine="57" d="M501.74,192 C570.11,192 674.71,192 737.9,192 " fill="none" id="SNSUser-Receptionist" style="stroke:#181818;stroke-width:1.0;"/><polygon fill="#000000" points="544,183.1758,534.9549,180.2369,534.9549,186.1147,544,183.1758" style="stroke:#000000;stroke-width:1.0;"/><text fill="#000000" font-family="sans-serif" font-size="13" lengthAdjust="spacing" textLength="157" x="548" y="188.4951">asks to schedule a vaccine</text><text fill="#000000" font-family="sans-serif" font-size="13" lengthAdjust="spacing" textLength="7" x="509.5866" y="206.3748">1</text><text fill="#000000" font-family="sans-serif" font-size="13" lengthAdjust="spacing" textLength="7" x="723.0256" y="206.5937">1</text></g><!--MD5=[c91d0d3af4e168e7880d03e0edfe422a]
link CommunityMassVaccinationCenter to ScheduleVaccine--><g id="link_CommunityMassVaccinationCenter_ScheduleVaccine"><path codeLine="58" d="M258.14,399.16 C293.87,394.62 331.55,389.83 362.71,385.87 " fill="none" id="CommunityMassVaccinationCenter-ScheduleVaccine" style="stroke:#181818;stroke-width:1.0;"/><polygon fill="#000000" points="302.4601,380.5454,293.1167,378.7703,293.8577,384.6013,302.4601,380.5454" style="stroke:#000000;stroke-width:1.0;"/><text fill="#000000" font-family="sans-serif" font-size="13" lengthAdjust="spacing" textLength="21" x="306.5" y="386.4951">has</text><text fill="#000000" font-family="sans-serif" font-size="13" lengthAdjust="spacing" textLength="5" x="265.9485" y="412.18">*</text><text fill="#000000" font-family="sans-serif" font-size="13" lengthAdjust="spacing" textLength="5" x="350.152" y="401.1117">*</text></g><!--MD5=[b6f342dd84fd94becfb65fe9e3b69293]
link ScheduleVaccine to VaccineType--><g id="link_ScheduleVaccine_VaccineType"><path codeLine="59" d="M504.28,377 C571.94,377 673.3,377 735.9,377 " fill="none" id="ScheduleVaccine-VaccineType" style="stroke:#181818;stroke-width:1.0;"/><polygon fill="#000000" points="596,368.1758,586.9549,365.2369,586.9549,371.1147,596,368.1758" style="stroke:#000000;stroke-width:1.0;"/><text fill="#000000" font-family="sans-serif" font-size="13" lengthAdjust="spacing" textLength="53" x="600" y="373.4951">for taking</text><text fill="#000000" font-family="sans-serif" font-size="13" lengthAdjust="spacing" textLength="5" x="511.837" y="391.327">*</text><text fill="#000000" font-family="sans-serif" font-size="13" lengthAdjust="spacing" textLength="7" x="721.1356" y="391.5536">1</text></g><!--MD5=[8f78fca08f443639c65f747352fb26f4]
@startuml
hide methods
left to right direction
skinparam classAttributeIconSize 0

class Company {
  -designation
}

class SNSUser {
    -name
    -sex
    -phoneNumber
    -email
    -birthDate
    -SNSNumber
    -citizenCardNumber
}

class Address {
    -country
    -city
    -county
    -parish
    -street
    -portNumber
    -postalCode
    -floor
    -observation
}

class ScheduleVaccine {
    -date
    -time
}

class CommunityMassVaccinationCenter {
    -name
    -phoneNumber
    -email
    -faxNumber
    -website
    -slotDuration
    -slotVaccineLimit
}

class VaccineType {
    -code
    -description
    -technology
}

Company "1" - - "*" SNSUser : owns >
Employee "*" - - "1" Company : knows <
Address "1" - - "1" SNSUser : has <
Receptionist - -|> Employee
ScheduleVaccine "*" - - "1" Receptionist : requested by >
SNSUser "1" - - "1" Receptionist : asks to schedule a vaccine >
CommunityMassVaccinationCenter "*" - - "*" ScheduleVaccine : has >
ScheduleVaccine "*" - - "1" VaccineType : for taking >

@enduml

PlantUML version 1.2022.5(Sat Apr 30 11:55:52 BST 2022)
(GPL source distribution)
Java Runtime: OpenJDK Runtime Environment
JVM: OpenJDK 64-Bit Server VM
Default Encoding: Cp1252
Language: pt
Country: PT
--></g></svg>