<?xml version="1.0" encoding="UTF-8" standalone="no"?><svg xmlns="http://www.w3.org/2000/svg" xmlns:xlink="http://www.w3.org/1999/xlink" contentScriptType="application/ecmascript" contentStyleType="text/css" height="1597px" preserveAspectRatio="none" style="width:3762px;height:1597px;background:#FFFFFF;" version="1.1" viewBox="0 0 3762 1597" width="3762px" zoomAndPan="magnify"><defs><filter height="300%" id="f1m9zni4wqiwpk" width="300%" x="-1" y="-1"><feGaussianBlur result="blurOut" stdDeviation="2.0"/><feColorMatrix in="blurOut" result="blurOut2" type="matrix" values="0 0 0 0 0 0 0 0 0 0 0 0 0 0 0 0 0 0 .4 0"/><feOffset dx="4.0" dy="4.0" in="blurOut2" result="blurOut3"/><feBlend in="SourceGraphic" in2="blurOut3" mode="normal"/></filter></defs><g><!--MD5=[02e4b9b7573f1156f41e60aa5b4e25a4]
class Company--><rect codeLine="6" fill="#FEFECE" filter="url(#f1m9zni4wqiwpk)" height="53.8359" id="Company" style="stroke:#A80036;stroke-width:1.5;" width="85" x="306.5" y="467.3564"/><ellipse cx="321.5" cy="483.3564" fill="#ADD1B2" rx="11" ry="11" style="stroke:#A80036;stroke-width:1.0;"/><path d="M323.5,479.8564 Q323.7031,479.3564 323.9375,479.1064 Q324.1719,478.8564 324.4375,478.8564 Q324.9063,478.8564 325.2031,479.1377 Q325.5,479.4189 325.5,480.0752 L325.5,481.6377 Q325.5,482.2939 325.2188,482.5752 Q324.9375,482.8564 324.5,482.8564 Q324.1094,482.8564 323.8594,482.6846 Q323.6094,482.5127 323.5,482.0596 Q323.4531,481.7471 323.2813,481.5752 Q322.9688,481.2471 322.4063,481.0596 Q321.8438,480.8564 321.2813,480.8564 Q320.5781,480.8564 319.9844,481.1377 Q319.4063,481.4189 318.9531,482.0439 Q318.5,482.6689 318.5,483.5283 L318.5,484.4502 Q318.5,485.4814 319.3438,486.1689 Q320.1875,486.8564 321.6875,486.8564 Q322.5781,486.8564 323.2031,486.6533 Q323.5625,486.5439 323.9688,486.1846 Q324.2344,485.9814 324.375,485.9189 Q324.5156,485.8564 324.6875,485.8564 Q325.0156,485.8564 325.25,486.1221 Q325.5,486.3721 325.5,486.7314 Q325.5,487.0752 325.1563,487.4814 Q324.6563,488.0752 323.8594,488.4033 Q322.8125,488.8564 321.5313,488.8564 Q320.0313,488.8564 318.8281,488.2627 Q317.8594,487.7939 317.1719,486.7783 Q316.5,485.7627 316.5,484.5596 L316.5,483.4658 Q316.5,482.2158 317.0938,481.1221 Q317.7031,480.0283 318.75,479.4502 Q319.8125,478.8564 321,478.8564 Q321.7188,478.8564 322.3438,479.1064 Q322.9688,479.3564 323.5,479.8564 Z " fill="#000000"/><text fill="#000000" font-family="sans-serif" font-size="12" lengthAdjust="spacing" textLength="53" x="335.5" y="488.2666">Company</text><line style="stroke:#A80036;stroke-width:1.5;" x1="307.5" x2="390.5" y1="499.3564" y2="499.3564"/><text fill="#000000" font-family="sans-serif" font-size="11" lengthAdjust="spacing" textLength="59" x="312.5" y="514.7754">-designation</text><!--MD5=[72be06cc7ae02ccc98efe28a50e62246]
class SNSUser--><rect codeLine="10" fill="#FEFECE" filter="url(#f1m9zni4wqiwpk)" height="81.5078" id="SNSUser" style="stroke:#A80036;stroke-width:1.5;" width="84" x="574" y="1216.3564"/><ellipse cx="589" cy="1232.3564" fill="#ADD1B2" rx="11" ry="11" style="stroke:#A80036;stroke-width:1.0;"/><path d="M591,1228.8564 Q591.2031,1228.3564 591.4375,1228.1064 Q591.6719,1227.8564 591.9375,1227.8564 Q592.4063,1227.8564 592.7031,1228.1377 Q593,1228.4189 593,1229.0752 L593,1230.6377 Q593,1231.2939 592.7188,1231.5752 Q592.4375,1231.8564 592,1231.8564 Q591.6094,1231.8564 591.3594,1231.6846 Q591.1094,1231.5127 591,1231.0596 Q590.9531,1230.7471 590.7813,1230.5752 Q590.4688,1230.2471 589.9063,1230.0596 Q589.3438,1229.8564 588.7813,1229.8564 Q588.0781,1229.8564 587.4844,1230.1377 Q586.9063,1230.4189 586.4531,1231.0439 Q586,1231.6689 586,1232.5283 L586,1233.4502 Q586,1234.4814 586.8438,1235.1689 Q587.6875,1235.8564 589.1875,1235.8564 Q590.0781,1235.8564 590.7031,1235.6533 Q591.0625,1235.5439 591.4688,1235.1846 Q591.7344,1234.9814 591.875,1234.9189 Q592.0156,1234.8564 592.1875,1234.8564 Q592.5156,1234.8564 592.75,1235.1221 Q593,1235.3721 593,1235.7314 Q593,1236.0752 592.6563,1236.4814 Q592.1563,1237.0752 591.3594,1237.4033 Q590.3125,1237.8564 589.0313,1237.8564 Q587.5313,1237.8564 586.3281,1237.2627 Q585.3594,1236.7939 584.6719,1235.7783 Q584,1234.7627 584,1233.5596 L584,1232.4658 Q584,1231.2158 584.5938,1230.1221 Q585.2031,1229.0283 586.25,1228.4502 Q587.3125,1227.8564 588.5,1227.8564 Q589.2188,1227.8564 589.8438,1228.1064 Q590.4688,1228.3564 591,1228.8564 Z " fill="#000000"/><text fill="#000000" font-family="sans-serif" font-size="12" lengthAdjust="spacing" textLength="52" x="603" y="1237.2666">SNSUser</text><line style="stroke:#A80036;stroke-width:1.5;" x1="575" x2="657" y1="1248.3564" y2="1248.3564"/><text fill="#000000" font-family="sans-serif" font-size="11" lengthAdjust="spacing" textLength="30" x="580" y="1263.7754">-name</text><text fill="#000000" font-family="sans-serif" font-size="11" lengthAdjust="spacing" textLength="47" x="580" y="1277.6113">-birthDate</text><text fill="#000000" font-family="sans-serif" font-size="11" lengthAdjust="spacing" textLength="62" x="580" y="1291.4473">-SNSNumber</text><!--MD5=[19e445fc4d3b48519cbe33da05496394]
class Vaccine--><rect codeLine="16" fill="#FEFECE" filter="url(#f1m9zni4wqiwpk)" height="67.6719" id="Vaccine" style="stroke:#A80036;stroke-width:1.5;" width="78" x="2814.5" y="1463.3564"/><ellipse cx="2830.85" cy="1479.3564" fill="#ADD1B2" rx="11" ry="11" style="stroke:#A80036;stroke-width:1.0;"/><path d="M2832.85,1475.8564 Q2833.0531,1475.3564 2833.2875,1475.1064 Q2833.5219,1474.8564 2833.7875,1474.8564 Q2834.2563,1474.8564 2834.5531,1475.1377 Q2834.85,1475.4189 2834.85,1476.0752 L2834.85,1477.6377 Q2834.85,1478.2939 2834.5688,1478.5752 Q2834.2875,1478.8564 2833.85,1478.8564 Q2833.4594,1478.8564 2833.2094,1478.6846 Q2832.9594,1478.5127 2832.85,1478.0596 Q2832.8031,1477.7471 2832.6313,1477.5752 Q2832.3188,1477.2471 2831.7563,1477.0596 Q2831.1938,1476.8564 2830.6313,1476.8564 Q2829.9281,1476.8564 2829.3344,1477.1377 Q2828.7563,1477.4189 2828.3031,1478.0439 Q2827.85,1478.6689 2827.85,1479.5283 L2827.85,1480.4502 Q2827.85,1481.4814 2828.6938,1482.1689 Q2829.5375,1482.8564 2831.0375,1482.8564 Q2831.9281,1482.8564 2832.5531,1482.6533 Q2832.9125,1482.5439 2833.3188,1482.1846 Q2833.5844,1481.9814 2833.725,1481.9189 Q2833.8656,1481.8564 2834.0375,1481.8564 Q2834.3656,1481.8564 2834.6,1482.1221 Q2834.85,1482.3721 2834.85,1482.7314 Q2834.85,1483.0752 2834.5063,1483.4814 Q2834.0063,1484.0752 2833.2094,1484.4033 Q2832.1625,1484.8564 2830.8813,1484.8564 Q2829.3813,1484.8564 2828.1781,1484.2627 Q2827.2094,1483.7939 2826.5219,1482.7783 Q2825.85,1481.7627 2825.85,1480.5596 L2825.85,1479.4658 Q2825.85,1478.2158 2826.4438,1477.1221 Q2827.0531,1476.0283 2828.1,1475.4502 Q2829.1625,1474.8564 2830.35,1474.8564 Q2831.0688,1474.8564 2831.6938,1475.1064 Q2832.3188,1475.3564 2832.85,1475.8564 Z " fill="#000000"/><text fill="#000000" font-family="sans-serif" font-size="12" lengthAdjust="spacing" textLength="43" x="2845.15" y="1484.2666">Vaccine</text><line style="stroke:#A80036;stroke-width:1.5;" x1="2815.5" x2="2891.5" y1="1495.3564" y2="1495.3564"/><text fill="#000000" font-family="sans-serif" font-size="11" lengthAdjust="spacing" textLength="30" x="2820.5" y="1510.7754">-name</text><text fill="#000000" font-family="sans-serif" font-size="11" lengthAdjust="spacing" textLength="66" x="2820.5" y="1524.6113">-vaccineType</text><!--MD5=[0e501da62322464167c8ec4d233a6b7e]
class VaccineType--><rect codeLine="21" fill="#FEFECE" filter="url(#f1m9zni4wqiwpk)" height="81.5078" id="VaccineType" style="stroke:#A80036;stroke-width:1.5;" width="101" x="3647" y="312.3564"/><ellipse cx="3662" cy="328.3564" fill="#ADD1B2" rx="11" ry="11" style="stroke:#A80036;stroke-width:1.0;"/><path d="M3664,324.8564 Q3664.2031,324.3564 3664.4375,324.1064 Q3664.6719,323.8564 3664.9375,323.8564 Q3665.4063,323.8564 3665.7031,324.1377 Q3666,324.4189 3666,325.0752 L3666,326.6377 Q3666,327.2939 3665.7188,327.5752 Q3665.4375,327.8564 3665,327.8564 Q3664.6094,327.8564 3664.3594,327.6846 Q3664.1094,327.5127 3664,327.0596 Q3663.9531,326.7471 3663.7813,326.5752 Q3663.4688,326.2471 3662.9063,326.0596 Q3662.3438,325.8564 3661.7813,325.8564 Q3661.0781,325.8564 3660.4844,326.1377 Q3659.9063,326.4189 3659.4531,327.0439 Q3659,327.6689 3659,328.5283 L3659,329.4502 Q3659,330.4814 3659.8438,331.1689 Q3660.6875,331.8564 3662.1875,331.8564 Q3663.0781,331.8564 3663.7031,331.6533 Q3664.0625,331.5439 3664.4688,331.1846 Q3664.7344,330.9814 3664.875,330.9189 Q3665.0156,330.8564 3665.1875,330.8564 Q3665.5156,330.8564 3665.75,331.1221 Q3666,331.3721 3666,331.7314 Q3666,332.0752 3665.6563,332.4814 Q3665.1563,333.0752 3664.3594,333.4033 Q3663.3125,333.8564 3662.0313,333.8564 Q3660.5313,333.8564 3659.3281,333.2627 Q3658.3594,332.7939 3657.6719,331.7783 Q3657,330.7627 3657,329.5596 L3657,328.4658 Q3657,327.2158 3657.5938,326.1221 Q3658.2031,325.0283 3659.25,324.4502 Q3660.3125,323.8564 3661.5,323.8564 Q3662.2188,323.8564 3662.8438,324.1064 Q3663.4688,324.3564 3664,324.8564 Z " fill="#000000"/><text fill="#000000" font-family="sans-serif" font-size="12" lengthAdjust="spacing" textLength="69" x="3676" y="333.2666">VaccineType</text><line style="stroke:#A80036;stroke-width:1.5;" x1="3648" x2="3747" y1="344.3564" y2="344.3564"/><text fill="#000000" font-family="sans-serif" font-size="11" lengthAdjust="spacing" textLength="28" x="3653" y="359.7754">-code</text><text fill="#000000" font-family="sans-serif" font-size="11" lengthAdjust="spacing" textLength="69" x="3653" y="373.6113">-diseaseName</text><text fill="#000000" font-family="sans-serif" font-size="11" lengthAdjust="spacing" textLength="34" x="3653" y="387.4473">-whoId</text><!--MD5=[bce2e27bff2624beb42c13a2b3fd5573]
class VacineAdministration--><rect codeLine="27" fill="#FEFECE" filter="url(#f1m9zni4wqiwpk)" height="81.5078" id="VacineAdministration" style="stroke:#A80036;stroke-width:1.5;" width="148" x="2482" y="1384.3564"/><ellipse cx="2497" cy="1400.3564" fill="#ADD1B2" rx="11" ry="11" style="stroke:#A80036;stroke-width:1.0;"/><path d="M2499,1396.8564 Q2499.2031,1396.3564 2499.4375,1396.1064 Q2499.6719,1395.8564 2499.9375,1395.8564 Q2500.4063,1395.8564 2500.7031,1396.1377 Q2501,1396.4189 2501,1397.0752 L2501,1398.6377 Q2501,1399.2939 2500.7188,1399.5752 Q2500.4375,1399.8564 2500,1399.8564 Q2499.6094,1399.8564 2499.3594,1399.6846 Q2499.1094,1399.5127 2499,1399.0596 Q2498.9531,1398.7471 2498.7813,1398.5752 Q2498.4688,1398.2471 2497.9063,1398.0596 Q2497.3438,1397.8564 2496.7813,1397.8564 Q2496.0781,1397.8564 2495.4844,1398.1377 Q2494.9063,1398.4189 2494.4531,1399.0439 Q2494,1399.6689 2494,1400.5283 L2494,1401.4502 Q2494,1402.4814 2494.8438,1403.1689 Q2495.6875,1403.8564 2497.1875,1403.8564 Q2498.0781,1403.8564 2498.7031,1403.6533 Q2499.0625,1403.5439 2499.4688,1403.1846 Q2499.7344,1402.9814 2499.875,1402.9189 Q2500.0156,1402.8564 2500.1875,1402.8564 Q2500.5156,1402.8564 2500.75,1403.1221 Q2501,1403.3721 2501,1403.7314 Q2501,1404.0752 2500.6563,1404.4814 Q2500.1563,1405.0752 2499.3594,1405.4033 Q2498.3125,1405.8564 2497.0313,1405.8564 Q2495.5313,1405.8564 2494.3281,1405.2627 Q2493.3594,1404.7939 2492.6719,1403.7783 Q2492,1402.7627 2492,1401.5596 L2492,1400.4658 Q2492,1399.2158 2492.5938,1398.1221 Q2493.2031,1397.0283 2494.25,1396.4502 Q2495.3125,1395.8564 2496.5,1395.8564 Q2497.2188,1395.8564 2497.8438,1396.1064 Q2498.4688,1396.3564 2499,1396.8564 Z " fill="#000000"/><text fill="#000000" font-family="sans-serif" font-size="12" lengthAdjust="spacing" textLength="116" x="2511" y="1405.2666">VacineAdministration</text><line style="stroke:#A80036;stroke-width:1.5;" x1="2483" x2="2629" y1="1416.3564" y2="1416.3564"/><text fill="#000000" font-family="sans-serif" font-size="11" lengthAdjust="spacing" textLength="66" x="2488" y="1431.7754">-vaccineType</text><text fill="#000000" font-family="sans-serif" font-size="11" lengthAdjust="spacing" textLength="69" x="2488" y="1445.6113">-vaccineName</text><text fill="#000000" font-family="sans-serif" font-size="11" lengthAdjust="spacing" textLength="52" x="2488" y="1459.4473">-lotNumber</text><!--MD5=[cd4ce1c0d44638ff9f42448de30e6b92]
class VaccineSchedule--><rect codeLine="33" fill="#FEFECE" filter="url(#f1m9zni4wqiwpk)" height="109.1797" id="VaccineSchedule" style="stroke:#A80036;stroke-width:1.5;" width="127" x="2790" y="1149.8564"/><ellipse cx="2805" cy="1165.8564" fill="#ADD1B2" rx="11" ry="11" style="stroke:#A80036;stroke-width:1.0;"/><path d="M2807,1162.3564 Q2807.2031,1161.8564 2807.4375,1161.6064 Q2807.6719,1161.3564 2807.9375,1161.3564 Q2808.4063,1161.3564 2808.7031,1161.6377 Q2809,1161.9189 2809,1162.5752 L2809,1164.1377 Q2809,1164.7939 2808.7188,1165.0752 Q2808.4375,1165.3564 2808,1165.3564 Q2807.6094,1165.3564 2807.3594,1165.1846 Q2807.1094,1165.0127 2807,1164.5596 Q2806.9531,1164.2471 2806.7813,1164.0752 Q2806.4688,1163.7471 2805.9063,1163.5596 Q2805.3438,1163.3564 2804.7813,1163.3564 Q2804.0781,1163.3564 2803.4844,1163.6377 Q2802.9063,1163.9189 2802.4531,1164.5439 Q2802,1165.1689 2802,1166.0283 L2802,1166.9502 Q2802,1167.9814 2802.8438,1168.6689 Q2803.6875,1169.3564 2805.1875,1169.3564 Q2806.0781,1169.3564 2806.7031,1169.1533 Q2807.0625,1169.0439 2807.4688,1168.6846 Q2807.7344,1168.4814 2807.875,1168.4189 Q2808.0156,1168.3564 2808.1875,1168.3564 Q2808.5156,1168.3564 2808.75,1168.6221 Q2809,1168.8721 2809,1169.2314 Q2809,1169.5752 2808.6563,1169.9814 Q2808.1563,1170.5752 2807.3594,1170.9033 Q2806.3125,1171.3564 2805.0313,1171.3564 Q2803.5313,1171.3564 2802.3281,1170.7627 Q2801.3594,1170.2939 2800.6719,1169.2783 Q2800,1168.2627 2800,1167.0596 L2800,1165.9658 Q2800,1164.7158 2800.5938,1163.6221 Q2801.2031,1162.5283 2802.25,1161.9502 Q2803.3125,1161.3564 2804.5,1161.3564 Q2805.2188,1161.3564 2805.8438,1161.6064 Q2806.4688,1161.8564 2807,1162.3564 Z " fill="#000000"/><text fill="#000000" font-family="sans-serif" font-size="12" lengthAdjust="spacing" textLength="95" x="2819" y="1170.7666">VaccineSchedule</text><line style="stroke:#A80036;stroke-width:1.5;" x1="2791" x2="2916" y1="1181.8564" y2="1181.8564"/><text fill="#000000" font-family="sans-serif" font-size="11" lengthAdjust="spacing" textLength="85" x="2796" y="1197.2754">-SNSUserNumber</text><text fill="#000000" font-family="sans-serif" font-size="11" lengthAdjust="spacing" textLength="91" x="2796" y="1211.1113">-vaccinationCenter</text><text fill="#000000" font-family="sans-serif" font-size="11" lengthAdjust="spacing" textLength="25" x="2796" y="1224.9473">-date</text><text fill="#000000" font-family="sans-serif" font-size="11" lengthAdjust="spacing" textLength="23" x="2796" y="1238.7832">-time</text><text fill="#000000" font-family="sans-serif" font-size="11" lengthAdjust="spacing" textLength="66" x="2796" y="1252.6191">-vaccineType</text><!--MD5=[1db03e903fe0a044a2ca0dcbef10799a]
class HealthCareCenter--><rect codeLine="41" fill="#FEFECE" filter="url(#f1m9zni4wqiwpk)" height="178.3594" id="HealthCareCenter" style="stroke:#A80036;stroke-width:1.5;" width="132" x="3355" y="387.3564"/><ellipse cx="3370" cy="403.3564" fill="#ADD1B2" rx="11" ry="11" style="stroke:#A80036;stroke-width:1.0;"/><path d="M3372,399.8564 Q3372.2031,399.3564 3372.4375,399.1064 Q3372.6719,398.8564 3372.9375,398.8564 Q3373.4063,398.8564 3373.7031,399.1377 Q3374,399.4189 3374,400.0752 L3374,401.6377 Q3374,402.2939 3373.7188,402.5752 Q3373.4375,402.8564 3373,402.8564 Q3372.6094,402.8564 3372.3594,402.6846 Q3372.1094,402.5127 3372,402.0596 Q3371.9531,401.7471 3371.7813,401.5752 Q3371.4688,401.2471 3370.9063,401.0596 Q3370.3438,400.8564 3369.7813,400.8564 Q3369.0781,400.8564 3368.4844,401.1377 Q3367.9063,401.4189 3367.4531,402.0439 Q3367,402.6689 3367,403.5283 L3367,404.4502 Q3367,405.4814 3367.8438,406.1689 Q3368.6875,406.8564 3370.1875,406.8564 Q3371.0781,406.8564 3371.7031,406.6533 Q3372.0625,406.5439 3372.4688,406.1846 Q3372.7344,405.9814 3372.875,405.9189 Q3373.0156,405.8564 3373.1875,405.8564 Q3373.5156,405.8564 3373.75,406.1221 Q3374,406.3721 3374,406.7314 Q3374,407.0752 3373.6563,407.4814 Q3373.1563,408.0752 3372.3594,408.4033 Q3371.3125,408.8564 3370.0313,408.8564 Q3368.5313,408.8564 3367.3281,408.2627 Q3366.3594,407.7939 3365.6719,406.7783 Q3365,405.7627 3365,404.5596 L3365,403.4658 Q3365,402.2158 3365.5938,401.1221 Q3366.2031,400.0283 3367.25,399.4502 Q3368.3125,398.8564 3369.5,398.8564 Q3370.2188,398.8564 3370.8438,399.1064 Q3371.4688,399.3564 3372,399.8564 Z " fill="#000000"/><text fill="#000000" font-family="sans-serif" font-size="12" lengthAdjust="spacing" textLength="100" x="3384" y="408.2666">HealthCareCenter</text><line style="stroke:#A80036;stroke-width:1.5;" x1="3356" x2="3486" y1="419.3564" y2="419.3564"/><text fill="#000000" font-family="sans-serif" font-size="11" lengthAdjust="spacing" textLength="30" x="3361" y="434.7754">-name</text><text fill="#000000" font-family="sans-serif" font-size="11" lengthAdjust="spacing" textLength="44" x="3361" y="448.6113">-address</text><text fill="#000000" font-family="sans-serif" font-size="11" lengthAdjust="spacing" textLength="71" x="3361" y="462.4473">-phoneNumber</text><text fill="#000000" font-family="sans-serif" font-size="11" lengthAdjust="spacing" textLength="28" x="3361" y="476.2832">-email</text><text fill="#000000" font-family="sans-serif" font-size="11" lengthAdjust="spacing" textLength="57" x="3361" y="490.1191">-faxNumber</text><text fill="#000000" font-family="sans-serif" font-size="11" lengthAdjust="spacing" textLength="43" x="3361" y="503.9551">-website</text><text fill="#000000" font-family="sans-serif" font-size="11" lengthAdjust="spacing" textLength="71" x="3361" y="517.791">-openingHours</text><text fill="#000000" font-family="sans-serif" font-size="11" lengthAdjust="spacing" textLength="67" x="3361" y="531.627">-closingHours</text><text fill="#000000" font-family="sans-serif" font-size="11" lengthAdjust="spacing" textLength="61" x="3361" y="545.4629">-slotDuration</text><text fill="#000000" font-family="sans-serif" font-size="11" lengthAdjust="spacing" textLength="82" x="3361" y="559.2988">-slotVaccineLimit</text><!--MD5=[56872536300a053cf9fd13853ad6ab1e]
class CommunityMassVaccinationCenter--><rect codeLine="54" fill="#FEFECE" filter="url(#f1m9zni4wqiwpk)" height="178.3594" id="CommunityMassVaccinationCenter" style="stroke:#A80036;stroke-width:1.5;" width="225" x="1460" y="507.3564"/><ellipse cx="1475" cy="523.3564" fill="#ADD1B2" rx="11" ry="11" style="stroke:#A80036;stroke-width:1.0;"/><path d="M1477,519.8564 Q1477.2031,519.3564 1477.4375,519.1064 Q1477.6719,518.8564 1477.9375,518.8564 Q1478.4063,518.8564 1478.7031,519.1377 Q1479,519.4189 1479,520.0752 L1479,521.6377 Q1479,522.2939 1478.7188,522.5752 Q1478.4375,522.8564 1478,522.8564 Q1477.6094,522.8564 1477.3594,522.6846 Q1477.1094,522.5127 1477,522.0596 Q1476.9531,521.7471 1476.7813,521.5752 Q1476.4688,521.2471 1475.9063,521.0596 Q1475.3438,520.8564 1474.7813,520.8564 Q1474.0781,520.8564 1473.4844,521.1377 Q1472.9063,521.4189 1472.4531,522.0439 Q1472,522.6689 1472,523.5283 L1472,524.4502 Q1472,525.4814 1472.8438,526.1689 Q1473.6875,526.8564 1475.1875,526.8564 Q1476.0781,526.8564 1476.7031,526.6533 Q1477.0625,526.5439 1477.4688,526.1846 Q1477.7344,525.9814 1477.875,525.9189 Q1478.0156,525.8564 1478.1875,525.8564 Q1478.5156,525.8564 1478.75,526.1221 Q1479,526.3721 1479,526.7314 Q1479,527.0752 1478.6563,527.4814 Q1478.1563,528.0752 1477.3594,528.4033 Q1476.3125,528.8564 1475.0313,528.8564 Q1473.5313,528.8564 1472.3281,528.2627 Q1471.3594,527.7939 1470.6719,526.7783 Q1470,525.7627 1470,524.5596 L1470,523.4658 Q1470,522.2158 1470.5938,521.1221 Q1471.2031,520.0283 1472.25,519.4502 Q1473.3125,518.8564 1474.5,518.8564 Q1475.2188,518.8564 1475.8438,519.1064 Q1476.4688,519.3564 1477,519.8564 Z " fill="#000000"/><text fill="#000000" font-family="sans-serif" font-size="12" lengthAdjust="spacing" textLength="193" x="1489" y="528.2666">CommunityMassVaccinationCenter</text><line style="stroke:#A80036;stroke-width:1.5;" x1="1461" x2="1684" y1="539.3564" y2="539.3564"/><text fill="#000000" font-family="sans-serif" font-size="11" lengthAdjust="spacing" textLength="30" x="1466" y="554.7754">-name</text><text fill="#000000" font-family="sans-serif" font-size="11" lengthAdjust="spacing" textLength="44" x="1466" y="568.6113">-address</text><text fill="#000000" font-family="sans-serif" font-size="11" lengthAdjust="spacing" textLength="71" x="1466" y="582.4473">-phoneNumber</text><text fill="#000000" font-family="sans-serif" font-size="11" lengthAdjust="spacing" textLength="28" x="1466" y="596.2832">-email</text><text fill="#000000" font-family="sans-serif" font-size="11" lengthAdjust="spacing" textLength="57" x="1466" y="610.1191">-faxNumber</text><text fill="#000000" font-family="sans-serif" font-size="11" lengthAdjust="spacing" textLength="43" x="1466" y="623.9551">-website</text><text fill="#000000" font-family="sans-serif" font-size="11" lengthAdjust="spacing" textLength="71" x="1466" y="637.791">-openingHours</text><text fill="#000000" font-family="sans-serif" font-size="11" lengthAdjust="spacing" textLength="67" x="1466" y="651.627">-closingHours</text><text fill="#000000" font-family="sans-serif" font-size="11" lengthAdjust="spacing" textLength="61" x="1466" y="665.4629">-slotDuration</text><text fill="#000000" font-family="sans-serif" font-size="11" lengthAdjust="spacing" textLength="82" x="1466" y="679.2988">-slotVaccineLimit</text><!--MD5=[da547346deef918ea16944ba046651ef]
class Administrator--><rect codeLine="67" fill="#FEFECE" filter="url(#f1m9zni4wqiwpk)" height="40" id="Administrator" style="stroke:#A80036;stroke-width:1.5;" width="105" x="794" y="718.3564"/><ellipse cx="809" cy="734.3564" fill="#ADD1B2" rx="11" ry="11" style="stroke:#A80036;stroke-width:1.0;"/><path d="M811,730.8564 Q811.2031,730.3564 811.4375,730.1064 Q811.6719,729.8564 811.9375,729.8564 Q812.4063,729.8564 812.7031,730.1377 Q813,730.4189 813,731.0752 L813,732.6377 Q813,733.2939 812.7188,733.5752 Q812.4375,733.8564 812,733.8564 Q811.6094,733.8564 811.3594,733.6846 Q811.1094,733.5127 811,733.0596 Q810.9531,732.7471 810.7813,732.5752 Q810.4688,732.2471 809.9063,732.0596 Q809.3438,731.8564 808.7813,731.8564 Q808.0781,731.8564 807.4844,732.1377 Q806.9063,732.4189 806.4531,733.0439 Q806,733.6689 806,734.5283 L806,735.4502 Q806,736.4814 806.8438,737.1689 Q807.6875,737.8564 809.1875,737.8564 Q810.0781,737.8564 810.7031,737.6533 Q811.0625,737.5439 811.4688,737.1846 Q811.7344,736.9814 811.875,736.9189 Q812.0156,736.8564 812.1875,736.8564 Q812.5156,736.8564 812.75,737.1221 Q813,737.3721 813,737.7314 Q813,738.0752 812.6563,738.4814 Q812.1563,739.0752 811.3594,739.4033 Q810.3125,739.8564 809.0313,739.8564 Q807.5313,739.8564 806.3281,739.2627 Q805.3594,738.7939 804.6719,737.7783 Q804,736.7627 804,735.5596 L804,734.4658 Q804,733.2158 804.5938,732.1221 Q805.2031,731.0283 806.25,730.4502 Q807.3125,729.8564 808.5,729.8564 Q809.2188,729.8564 809.8438,730.1064 Q810.4688,730.3564 811,730.8564 Z " fill="#000000"/><text fill="#000000" font-family="sans-serif" font-size="12" lengthAdjust="spacing" textLength="73" x="823" y="739.2666">Administrator</text><line style="stroke:#A80036;stroke-width:1.5;" x1="795" x2="898" y1="750.3564" y2="750.3564"/><!--MD5=[a059576e163b46f56762f12600c49258]
class Nurse--><rect codeLine="70" fill="#FEFECE" filter="url(#f1m9zni4wqiwpk)" height="53.8359" id="Nurse" style="stroke:#A80036;stroke-width:1.5;" width="66" x="2213" y="891.3564"/><ellipse cx="2228" cy="907.3564" fill="#ADD1B2" rx="11" ry="11" style="stroke:#A80036;stroke-width:1.0;"/><path d="M2230,903.8564 Q2230.2031,903.3564 2230.4375,903.1064 Q2230.6719,902.8564 2230.9375,902.8564 Q2231.4063,902.8564 2231.7031,903.1377 Q2232,903.4189 2232,904.0752 L2232,905.6377 Q2232,906.2939 2231.7188,906.5752 Q2231.4375,906.8564 2231,906.8564 Q2230.6094,906.8564 2230.3594,906.6846 Q2230.1094,906.5127 2230,906.0596 Q2229.9531,905.7471 2229.7813,905.5752 Q2229.4688,905.2471 2228.9063,905.0596 Q2228.3438,904.8564 2227.7813,904.8564 Q2227.0781,904.8564 2226.4844,905.1377 Q2225.9063,905.4189 2225.4531,906.0439 Q2225,906.6689 2225,907.5283 L2225,908.4502 Q2225,909.4814 2225.8438,910.1689 Q2226.6875,910.8564 2228.1875,910.8564 Q2229.0781,910.8564 2229.7031,910.6533 Q2230.0625,910.5439 2230.4688,910.1846 Q2230.7344,909.9814 2230.875,909.9189 Q2231.0156,909.8564 2231.1875,909.8564 Q2231.5156,909.8564 2231.75,910.1221 Q2232,910.3721 2232,910.7314 Q2232,911.0752 2231.6563,911.4814 Q2231.1563,912.0752 2230.3594,912.4033 Q2229.3125,912.8564 2228.0313,912.8564 Q2226.5313,912.8564 2225.3281,912.2627 Q2224.3594,911.7939 2223.6719,910.7783 Q2223,909.7627 2223,908.5596 L2223,907.4658 Q2223,906.2158 2223.5938,905.1221 Q2224.2031,904.0283 2225.25,903.4502 Q2226.3125,902.8564 2227.5,902.8564 Q2228.2188,902.8564 2228.8438,903.1064 Q2229.4688,903.3564 2230,903.8564 Z " fill="#000000"/><text fill="#000000" font-family="sans-serif" font-size="12" lengthAdjust="spacing" textLength="34" x="2242" y="912.2666">Nurse</text><line style="stroke:#A80036;stroke-width:1.5;" x1="2214" x2="2278" y1="923.3564" y2="923.3564"/><text fill="#000000" font-family="sans-serif" font-size="11" lengthAdjust="spacing" textLength="30" x="2219" y="938.7754">-name</text><!--MD5=[03960189e81aa2c066c762ffabbee709]
class Receptionist--><rect codeLine="74" fill="#FEFECE" filter="url(#f1m9zni4wqiwpk)" height="53.8359" id="Receptionist" style="stroke:#A80036;stroke-width:1.5;" width="101" x="3096.5" y="449.3564"/><ellipse cx="3111.5" cy="465.3564" fill="#ADD1B2" rx="11" ry="11" style="stroke:#A80036;stroke-width:1.0;"/><path d="M3113.5,461.8564 Q3113.7031,461.3564 3113.9375,461.1064 Q3114.1719,460.8564 3114.4375,460.8564 Q3114.9063,460.8564 3115.2031,461.1377 Q3115.5,461.4189 3115.5,462.0752 L3115.5,463.6377 Q3115.5,464.2939 3115.2188,464.5752 Q3114.9375,464.8564 3114.5,464.8564 Q3114.1094,464.8564 3113.8594,464.6846 Q3113.6094,464.5127 3113.5,464.0596 Q3113.4531,463.7471 3113.2813,463.5752 Q3112.9688,463.2471 3112.4063,463.0596 Q3111.8438,462.8564 3111.2813,462.8564 Q3110.5781,462.8564 3109.9844,463.1377 Q3109.4063,463.4189 3108.9531,464.0439 Q3108.5,464.6689 3108.5,465.5283 L3108.5,466.4502 Q3108.5,467.4814 3109.3438,468.1689 Q3110.1875,468.8564 3111.6875,468.8564 Q3112.5781,468.8564 3113.2031,468.6533 Q3113.5625,468.5439 3113.9688,468.1846 Q3114.2344,467.9814 3114.375,467.9189 Q3114.5156,467.8564 3114.6875,467.8564 Q3115.0156,467.8564 3115.25,468.1221 Q3115.5,468.3721 3115.5,468.7314 Q3115.5,469.0752 3115.1563,469.4814 Q3114.6563,470.0752 3113.8594,470.4033 Q3112.8125,470.8564 3111.5313,470.8564 Q3110.0313,470.8564 3108.8281,470.2627 Q3107.8594,469.7939 3107.1719,468.7783 Q3106.5,467.7627 3106.5,466.5596 L3106.5,465.4658 Q3106.5,464.2158 3107.0938,463.1221 Q3107.7031,462.0283 3108.75,461.4502 Q3109.8125,460.8564 3111,460.8564 Q3111.7188,460.8564 3112.3438,461.1064 Q3112.9688,461.3564 3113.5,461.8564 Z " fill="#000000"/><text fill="#000000" font-family="sans-serif" font-size="12" lengthAdjust="spacing" textLength="69" x="3125.5" y="470.2666">Receptionist</text><line style="stroke:#A80036;stroke-width:1.5;" x1="3097.5" x2="3196.5" y1="481.3564" y2="481.3564"/><text fill="#000000" font-family="sans-serif" font-size="11" lengthAdjust="spacing" textLength="30" x="3102.5" y="496.7754">-name</text><!--MD5=[2d935fd2dd068a13da1ae531f9857c4f]
class CenterCoordinator--><rect codeLine="78" fill="#FEFECE" filter="url(#f1m9zni4wqiwpk)" height="53.8359" id="CenterCoordinator" style="stroke:#A80036;stroke-width:1.5;" width="134" x="1195" y="711.3564"/><ellipse cx="1210" cy="727.3564" fill="#ADD1B2" rx="11" ry="11" style="stroke:#A80036;stroke-width:1.0;"/><path d="M1212,723.8564 Q1212.2031,723.3564 1212.4375,723.1064 Q1212.6719,722.8564 1212.9375,722.8564 Q1213.4063,722.8564 1213.7031,723.1377 Q1214,723.4189 1214,724.0752 L1214,725.6377 Q1214,726.2939 1213.7188,726.5752 Q1213.4375,726.8564 1213,726.8564 Q1212.6094,726.8564 1212.3594,726.6846 Q1212.1094,726.5127 1212,726.0596 Q1211.9531,725.7471 1211.7813,725.5752 Q1211.4688,725.2471 1210.9063,725.0596 Q1210.3438,724.8564 1209.7813,724.8564 Q1209.0781,724.8564 1208.4844,725.1377 Q1207.9063,725.4189 1207.4531,726.0439 Q1207,726.6689 1207,727.5283 L1207,728.4502 Q1207,729.4814 1207.8438,730.1689 Q1208.6875,730.8564 1210.1875,730.8564 Q1211.0781,730.8564 1211.7031,730.6533 Q1212.0625,730.5439 1212.4688,730.1846 Q1212.7344,729.9814 1212.875,729.9189 Q1213.0156,729.8564 1213.1875,729.8564 Q1213.5156,729.8564 1213.75,730.1221 Q1214,730.3721 1214,730.7314 Q1214,731.0752 1213.6563,731.4814 Q1213.1563,732.0752 1212.3594,732.4033 Q1211.3125,732.8564 1210.0313,732.8564 Q1208.5313,732.8564 1207.3281,732.2627 Q1206.3594,731.7939 1205.6719,730.7783 Q1205,729.7627 1205,728.5596 L1205,727.4658 Q1205,726.2158 1205.5938,725.1221 Q1206.2031,724.0283 1207.25,723.4502 Q1208.3125,722.8564 1209.5,722.8564 Q1210.2188,722.8564 1210.8438,723.1064 Q1211.4688,723.3564 1212,723.8564 Z " fill="#000000"/><text fill="#000000" font-family="sans-serif" font-size="12" lengthAdjust="spacing" textLength="102" x="1224" y="732.2666">CenterCoordinator</text><line style="stroke:#A80036;stroke-width:1.5;" x1="1196" x2="1328" y1="743.3564" y2="743.3564"/><text fill="#000000" font-family="sans-serif" font-size="11" lengthAdjust="spacing" textLength="30" x="1201" y="758.7754">-name</text><!--MD5=[f082b347be438956eae752ed2dcedd8d]
class VaccinationCertificate--><rect codeLine="82" fill="#FEFECE" filter="url(#f1m9zni4wqiwpk)" height="40" id="VaccinationCertificate" style="stroke:#A80036;stroke-width:1.5;" width="150" x="274" y="1336.3564"/><ellipse cx="289" cy="1352.3564" fill="#ADD1B2" rx="11" ry="11" style="stroke:#A80036;stroke-width:1.0;"/><path d="M291,1348.8564 Q291.2031,1348.3564 291.4375,1348.1064 Q291.6719,1347.8564 291.9375,1347.8564 Q292.4063,1347.8564 292.7031,1348.1377 Q293,1348.4189 293,1349.0752 L293,1350.6377 Q293,1351.2939 292.7188,1351.5752 Q292.4375,1351.8564 292,1351.8564 Q291.6094,1351.8564 291.3594,1351.6846 Q291.1094,1351.5127 291,1351.0596 Q290.9531,1350.7471 290.7813,1350.5752 Q290.4688,1350.2471 289.9063,1350.0596 Q289.3438,1349.8564 288.7813,1349.8564 Q288.0781,1349.8564 287.4844,1350.1377 Q286.9063,1350.4189 286.4531,1351.0439 Q286,1351.6689 286,1352.5283 L286,1353.4502 Q286,1354.4814 286.8438,1355.1689 Q287.6875,1355.8564 289.1875,1355.8564 Q290.0781,1355.8564 290.7031,1355.6533 Q291.0625,1355.5439 291.4688,1355.1846 Q291.7344,1354.9814 291.875,1354.9189 Q292.0156,1354.8564 292.1875,1354.8564 Q292.5156,1354.8564 292.75,1355.1221 Q293,1355.3721 293,1355.7314 Q293,1356.0752 292.6563,1356.4814 Q292.1563,1357.0752 291.3594,1357.4033 Q290.3125,1357.8564 289.0313,1357.8564 Q287.5313,1357.8564 286.3281,1357.2627 Q285.3594,1356.7939 284.6719,1355.7783 Q284,1354.7627 284,1353.5596 L284,1352.4658 Q284,1351.2158 284.5938,1350.1221 Q285.2031,1349.0283 286.25,1348.4502 Q287.3125,1347.8564 288.5,1347.8564 Q289.2188,1347.8564 289.8438,1348.1064 Q290.4688,1348.3564 291,1348.8564 Z " fill="#000000"/><text fill="#000000" font-family="sans-serif" font-size="12" lengthAdjust="spacing" textLength="118" x="303" y="1357.2666">VaccinationCertificate</text><line style="stroke:#A80036;stroke-width:1.5;" x1="275" x2="423" y1="1368.3564" y2="1368.3564"/><!--MD5=[605056f3b750e89e8a7ae3805405579b]
class AdverseReactions--><rect codeLine="85" fill="#FEFECE" filter="url(#f1m9zni4wqiwpk)" height="67.6719" id="AdverseReactions" style="stroke:#A80036;stroke-width:1.5;" width="132" x="2490" y="1086.3564"/><ellipse cx="2505" cy="1102.3564" fill="#ADD1B2" rx="11" ry="11" style="stroke:#A80036;stroke-width:1.0;"/><path d="M2507,1098.8564 Q2507.2031,1098.3564 2507.4375,1098.1064 Q2507.6719,1097.8564 2507.9375,1097.8564 Q2508.4063,1097.8564 2508.7031,1098.1377 Q2509,1098.4189 2509,1099.0752 L2509,1100.6377 Q2509,1101.2939 2508.7188,1101.5752 Q2508.4375,1101.8564 2508,1101.8564 Q2507.6094,1101.8564 2507.3594,1101.6846 Q2507.1094,1101.5127 2507,1101.0596 Q2506.9531,1100.7471 2506.7813,1100.5752 Q2506.4688,1100.2471 2505.9063,1100.0596 Q2505.3438,1099.8564 2504.7813,1099.8564 Q2504.0781,1099.8564 2503.4844,1100.1377 Q2502.9063,1100.4189 2502.4531,1101.0439 Q2502,1101.6689 2502,1102.5283 L2502,1103.4502 Q2502,1104.4814 2502.8438,1105.1689 Q2503.6875,1105.8564 2505.1875,1105.8564 Q2506.0781,1105.8564 2506.7031,1105.6533 Q2507.0625,1105.5439 2507.4688,1105.1846 Q2507.7344,1104.9814 2507.875,1104.9189 Q2508.0156,1104.8564 2508.1875,1104.8564 Q2508.5156,1104.8564 2508.75,1105.1221 Q2509,1105.3721 2509,1105.7314 Q2509,1106.0752 2508.6563,1106.4814 Q2508.1563,1107.0752 2507.3594,1107.4033 Q2506.3125,1107.8564 2505.0313,1107.8564 Q2503.5313,1107.8564 2502.3281,1107.2627 Q2501.3594,1106.7939 2500.6719,1105.7783 Q2500,1104.7627 2500,1103.5596 L2500,1102.4658 Q2500,1101.2158 2500.5938,1100.1221 Q2501.2031,1099.0283 2502.25,1098.4502 Q2503.3125,1097.8564 2504.5,1097.8564 Q2505.2188,1097.8564 2505.8438,1098.1064 Q2506.4688,1098.3564 2507,1098.8564 Z " fill="#000000"/><text fill="#000000" font-family="sans-serif" font-size="12" lengthAdjust="spacing" textLength="100" x="2519" y="1107.2666">AdverseReactions</text><line style="stroke:#A80036;stroke-width:1.5;" x1="2491" x2="2621" y1="1118.3564" y2="1118.3564"/><text fill="#000000" font-family="sans-serif" font-size="11" lengthAdjust="spacing" textLength="48" x="2496" y="1133.7754">-SNSUser</text><text fill="#000000" font-family="sans-serif" font-size="11" lengthAdjust="spacing" textLength="49" x="2496" y="1147.6113">-reactions</text><!--MD5=[a49be0631541eb2706fb1c6d7300c5bd]
class VaccinationProgram--><rect codeLine="90" fill="#FEFECE" filter="url(#f1m9zni4wqiwpk)" height="40" id="VaccinationProgram" style="stroke:#A80036;stroke-width:1.5;" width="143" x="7" y="474.3564"/><ellipse cx="22" cy="490.3564" fill="#ADD1B2" rx="11" ry="11" style="stroke:#A80036;stroke-width:1.0;"/><path d="M24,486.8564 Q24.2031,486.3564 24.4375,486.1064 Q24.6719,485.8564 24.9375,485.8564 Q25.4063,485.8564 25.7031,486.1377 Q26,486.4189 26,487.0752 L26,488.6377 Q26,489.2939 25.7188,489.5752 Q25.4375,489.8564 25,489.8564 Q24.6094,489.8564 24.3594,489.6846 Q24.1094,489.5127 24,489.0596 Q23.9531,488.7471 23.7813,488.5752 Q23.4688,488.2471 22.9063,488.0596 Q22.3438,487.8564 21.7813,487.8564 Q21.0781,487.8564 20.4844,488.1377 Q19.9063,488.4189 19.4531,489.0439 Q19,489.6689 19,490.5283 L19,491.4502 Q19,492.4814 19.8438,493.1689 Q20.6875,493.8564 22.1875,493.8564 Q23.0781,493.8564 23.7031,493.6533 Q24.0625,493.5439 24.4688,493.1846 Q24.7344,492.9814 24.875,492.9189 Q25.0156,492.8564 25.1875,492.8564 Q25.5156,492.8564 25.75,493.1221 Q26,493.3721 26,493.7314 Q26,494.0752 25.6563,494.4814 Q25.1563,495.0752 24.3594,495.4033 Q23.3125,495.8564 22.0313,495.8564 Q20.5313,495.8564 19.3281,495.2627 Q18.3594,494.7939 17.6719,493.7783 Q17,492.7627 17,491.5596 L17,490.4658 Q17,489.2158 17.5938,488.1221 Q18.2031,487.0283 19.25,486.4502 Q20.3125,485.8564 21.5,485.8564 Q22.2188,485.8564 22.8438,486.1064 Q23.4688,486.3564 24,486.8564 Z " fill="#000000"/><text fill="#000000" font-family="sans-serif" font-size="12" lengthAdjust="spacing" textLength="111" x="36" y="495.2666">VaccinationProgram</text><line style="stroke:#A80036;stroke-width:1.5;" x1="8" x2="149" y1="506.3564" y2="506.3564"/><!--MD5=[f00dbe8c0302c6aec2cb26b3c659c8fc]
class Report--><rect codeLine="93" fill="#FEFECE" filter="url(#f1m9zni4wqiwpk)" height="40" id="Report" style="stroke:#A80036;stroke-width:1.5;" width="69" x="1866.5" y="827.3564"/><ellipse cx="1881.5" cy="843.3564" fill="#ADD1B2" rx="11" ry="11" style="stroke:#A80036;stroke-width:1.0;"/><path d="M1883.5,839.8564 Q1883.7031,839.3564 1883.9375,839.1064 Q1884.1719,838.8564 1884.4375,838.8564 Q1884.9063,838.8564 1885.2031,839.1377 Q1885.5,839.4189 1885.5,840.0752 L1885.5,841.6377 Q1885.5,842.2939 1885.2188,842.5752 Q1884.9375,842.8564 1884.5,842.8564 Q1884.1094,842.8564 1883.8594,842.6846 Q1883.6094,842.5127 1883.5,842.0596 Q1883.4531,841.7471 1883.2813,841.5752 Q1882.9688,841.2471 1882.4063,841.0596 Q1881.8438,840.8564 1881.2813,840.8564 Q1880.5781,840.8564 1879.9844,841.1377 Q1879.4063,841.4189 1878.9531,842.0439 Q1878.5,842.6689 1878.5,843.5283 L1878.5,844.4502 Q1878.5,845.4814 1879.3438,846.1689 Q1880.1875,846.8564 1881.6875,846.8564 Q1882.5781,846.8564 1883.2031,846.6533 Q1883.5625,846.5439 1883.9688,846.1846 Q1884.2344,845.9814 1884.375,845.9189 Q1884.5156,845.8564 1884.6875,845.8564 Q1885.0156,845.8564 1885.25,846.1221 Q1885.5,846.3721 1885.5,846.7314 Q1885.5,847.0752 1885.1563,847.4814 Q1884.6563,848.0752 1883.8594,848.4033 Q1882.8125,848.8564 1881.5313,848.8564 Q1880.0313,848.8564 1878.8281,848.2627 Q1877.8594,847.7939 1877.1719,846.7783 Q1876.5,845.7627 1876.5,844.5596 L1876.5,843.4658 Q1876.5,842.2158 1877.0938,841.1221 Q1877.7031,840.0283 1878.75,839.4502 Q1879.8125,838.8564 1881,838.8564 Q1881.7188,838.8564 1882.3438,839.1064 Q1882.9688,839.3564 1883.5,839.8564 Z " fill="#000000"/><text fill="#000000" font-family="sans-serif" font-size="12" lengthAdjust="spacing" textLength="37" x="1895.5" y="848.2666">Report</text><line style="stroke:#A80036;stroke-width:1.5;" x1="1867.5" x2="1934.5" y1="859.3564" y2="859.3564"/><!--MD5=[c09248da7d83ce2a682491ec6c2c8d5c]
class DailyPerformance--><rect codeLine="96" fill="#FEFECE" filter="url(#f1m9zni4wqiwpk)" height="40" id="DailyPerformance" style="stroke:#A80036;stroke-width:1.5;" width="130" x="2181" y="578.3564"/><ellipse cx="2196" cy="594.3564" fill="#ADD1B2" rx="11" ry="11" style="stroke:#A80036;stroke-width:1.0;"/><path d="M2198,590.8564 Q2198.2031,590.3564 2198.4375,590.1064 Q2198.6719,589.8564 2198.9375,589.8564 Q2199.4063,589.8564 2199.7031,590.1377 Q2200,590.4189 2200,591.0752 L2200,592.6377 Q2200,593.2939 2199.7188,593.5752 Q2199.4375,593.8564 2199,593.8564 Q2198.6094,593.8564 2198.3594,593.6846 Q2198.1094,593.5127 2198,593.0596 Q2197.9531,592.7471 2197.7813,592.5752 Q2197.4688,592.2471 2196.9063,592.0596 Q2196.3438,591.8564 2195.7813,591.8564 Q2195.0781,591.8564 2194.4844,592.1377 Q2193.9063,592.4189 2193.4531,593.0439 Q2193,593.6689 2193,594.5283 L2193,595.4502 Q2193,596.4814 2193.8438,597.1689 Q2194.6875,597.8564 2196.1875,597.8564 Q2197.0781,597.8564 2197.7031,597.6533 Q2198.0625,597.5439 2198.4688,597.1846 Q2198.7344,596.9814 2198.875,596.9189 Q2199.0156,596.8564 2199.1875,596.8564 Q2199.5156,596.8564 2199.75,597.1221 Q2200,597.3721 2200,597.7314 Q2200,598.0752 2199.6563,598.4814 Q2199.1563,599.0752 2198.3594,599.4033 Q2197.3125,599.8564 2196.0313,599.8564 Q2194.5313,599.8564 2193.3281,599.2627 Q2192.3594,598.7939 2191.6719,597.7783 Q2191,596.7627 2191,595.5596 L2191,594.4658 Q2191,593.2158 2191.5938,592.1221 Q2192.2031,591.0283 2193.25,590.4502 Q2194.3125,589.8564 2195.5,589.8564 Q2196.2188,589.8564 2196.8438,590.1064 Q2197.4688,590.3564 2198,590.8564 Z " fill="#000000"/><text fill="#000000" font-family="sans-serif" font-size="12" lengthAdjust="spacing" textLength="98" x="2210" y="599.2666">DailyPerformance</text><line style="stroke:#A80036;stroke-width:1.5;" x1="2182" x2="2310" y1="610.3564" y2="610.3564"/><!--MD5=[a2530d24bafc45bb45314d96545aa194]
class AdministrationProcess--><rect codeLine="99" fill="#FEFECE" filter="url(#f1m9zni4wqiwpk)" height="95.3438" id="AdministrationProcess" style="stroke:#A80036;stroke-width:1.5;" width="160" x="3067" y="1348.8564"/><ellipse cx="3083.35" cy="1364.8564" fill="#ADD1B2" rx="11" ry="11" style="stroke:#A80036;stroke-width:1.0;"/><path d="M3085.35,1361.3564 Q3085.5531,1360.8564 3085.7875,1360.6064 Q3086.0219,1360.3564 3086.2875,1360.3564 Q3086.7563,1360.3564 3087.0531,1360.6377 Q3087.35,1360.9189 3087.35,1361.5752 L3087.35,1363.1377 Q3087.35,1363.7939 3087.0688,1364.0752 Q3086.7875,1364.3564 3086.35,1364.3564 Q3085.9594,1364.3564 3085.7094,1364.1846 Q3085.4594,1364.0127 3085.35,1363.5596 Q3085.3031,1363.2471 3085.1313,1363.0752 Q3084.8188,1362.7471 3084.2563,1362.5596 Q3083.6938,1362.3564 3083.1313,1362.3564 Q3082.4281,1362.3564 3081.8344,1362.6377 Q3081.2563,1362.9189 3080.8031,1363.5439 Q3080.35,1364.1689 3080.35,1365.0283 L3080.35,1365.9502 Q3080.35,1366.9814 3081.1938,1367.6689 Q3082.0375,1368.3564 3083.5375,1368.3564 Q3084.4281,1368.3564 3085.0531,1368.1533 Q3085.4125,1368.0439 3085.8188,1367.6846 Q3086.0844,1367.4814 3086.225,1367.4189 Q3086.3656,1367.3564 3086.5375,1367.3564 Q3086.8656,1367.3564 3087.1,1367.6221 Q3087.35,1367.8721 3087.35,1368.2314 Q3087.35,1368.5752 3087.0063,1368.9814 Q3086.5063,1369.5752 3085.7094,1369.9033 Q3084.6625,1370.3564 3083.3813,1370.3564 Q3081.8813,1370.3564 3080.6781,1369.7627 Q3079.7094,1369.2939 3079.0219,1368.2783 Q3078.35,1367.2627 3078.35,1366.0596 L3078.35,1364.9658 Q3078.35,1363.7158 3078.9438,1362.6221 Q3079.5531,1361.5283 3080.6,1360.9502 Q3081.6625,1360.3564 3082.85,1360.3564 Q3083.5688,1360.3564 3084.1938,1360.6064 Q3084.8188,1360.8564 3085.35,1361.3564 Z " fill="#000000"/><text fill="#000000" font-family="sans-serif" font-size="12" lengthAdjust="spacing" textLength="125" x="3097.65" y="1369.7666">AdministrationProcess</text><line style="stroke:#A80036;stroke-width:1.5;" x1="3068" x2="3226" y1="1380.8564" y2="1380.8564"/><text fill="#000000" font-family="sans-serif" font-size="11" lengthAdjust="spacing" textLength="65" x="3073" y="1396.2754">-doseNumber</text><text fill="#000000" font-family="sans-serif" font-size="11" lengthAdjust="spacing" textLength="52" x="3073" y="1410.1113">-ageGroup</text><text fill="#000000" font-family="sans-serif" font-size="11" lengthAdjust="spacing" textLength="40" x="3073" y="1423.9473">-dosage</text><text fill="#000000" font-family="sans-serif" font-size="11" lengthAdjust="spacing" textLength="148" x="3073" y="1437.7832">-timeIntervalBetweenLastDose</text><!--MD5=[f037a2adb9b7ded7782c970d443a81c6]
class VaccinationQueue--><rect codeLine="106" fill="#FEFECE" filter="url(#f1m9zni4wqiwpk)" height="95.3438" id="VaccinationQueue" style="stroke:#A80036;stroke-width:1.5;" width="132" x="1835" y="449.8564"/><ellipse cx="1850" cy="465.8564" fill="#ADD1B2" rx="11" ry="11" style="stroke:#A80036;stroke-width:1.0;"/><path d="M1852,462.3564 Q1852.2031,461.8564 1852.4375,461.6064 Q1852.6719,461.3564 1852.9375,461.3564 Q1853.4063,461.3564 1853.7031,461.6377 Q1854,461.9189 1854,462.5752 L1854,464.1377 Q1854,464.7939 1853.7188,465.0752 Q1853.4375,465.3564 1853,465.3564 Q1852.6094,465.3564 1852.3594,465.1846 Q1852.1094,465.0127 1852,464.5596 Q1851.9531,464.2471 1851.7813,464.0752 Q1851.4688,463.7471 1850.9063,463.5596 Q1850.3438,463.3564 1849.7813,463.3564 Q1849.0781,463.3564 1848.4844,463.6377 Q1847.9063,463.9189 1847.4531,464.5439 Q1847,465.1689 1847,466.0283 L1847,466.9502 Q1847,467.9814 1847.8438,468.6689 Q1848.6875,469.3564 1850.1875,469.3564 Q1851.0781,469.3564 1851.7031,469.1533 Q1852.0625,469.0439 1852.4688,468.6846 Q1852.7344,468.4814 1852.875,468.4189 Q1853.0156,468.3564 1853.1875,468.3564 Q1853.5156,468.3564 1853.75,468.6221 Q1854,468.8721 1854,469.2314 Q1854,469.5752 1853.6563,469.9814 Q1853.1563,470.5752 1852.3594,470.9033 Q1851.3125,471.3564 1850.0313,471.3564 Q1848.5313,471.3564 1847.3281,470.7627 Q1846.3594,470.2939 1845.6719,469.2783 Q1845,468.2627 1845,467.0596 L1845,465.9658 Q1845,464.7158 1845.5938,463.6221 Q1846.2031,462.5283 1847.25,461.9502 Q1848.3125,461.3564 1849.5,461.3564 Q1850.2188,461.3564 1850.8438,461.6064 Q1851.4688,461.8564 1852,462.3564 Z " fill="#000000"/><text fill="#000000" font-family="sans-serif" font-size="12" lengthAdjust="spacing" textLength="100" x="1864" y="470.7666">VaccinationQueue</text><line style="stroke:#A80036;stroke-width:1.5;" x1="1836" x2="1966" y1="481.8564" y2="481.8564"/><text fill="#000000" font-family="sans-serif" font-size="11" lengthAdjust="spacing" textLength="48" x="1841" y="497.2754">-SNSUser</text><text fill="#000000" font-family="sans-serif" font-size="11" lengthAdjust="spacing" textLength="25" x="1841" y="511.1113">-date</text><text fill="#000000" font-family="sans-serif" font-size="11" lengthAdjust="spacing" textLength="51" x="1841" y="524.9473">-entryTime</text><text fill="#000000" font-family="sans-serif" font-size="11" lengthAdjust="spacing" textLength="43" x="1841" y="538.7832">-exitTime</text><!--MD5=[bea5b0d46523efab5ea1c1d339f396f0]
class Message--><rect codeLine="113" fill="#FEFECE" filter="url(#f1m9zni4wqiwpk)" height="67.6719" id="Message" style="stroke:#A80036;stroke-width:1.5;" width="83" x="805" y="1345.3564"/><ellipse cx="820" cy="1361.3564" fill="#ADD1B2" rx="11" ry="11" style="stroke:#A80036;stroke-width:1.0;"/><path d="M822,1357.8564 Q822.2031,1357.3564 822.4375,1357.1064 Q822.6719,1356.8564 822.9375,1356.8564 Q823.4063,1356.8564 823.7031,1357.1377 Q824,1357.4189 824,1358.0752 L824,1359.6377 Q824,1360.2939 823.7188,1360.5752 Q823.4375,1360.8564 823,1360.8564 Q822.6094,1360.8564 822.3594,1360.6846 Q822.1094,1360.5127 822,1360.0596 Q821.9531,1359.7471 821.7813,1359.5752 Q821.4688,1359.2471 820.9063,1359.0596 Q820.3438,1358.8564 819.7813,1358.8564 Q819.0781,1358.8564 818.4844,1359.1377 Q817.9063,1359.4189 817.4531,1360.0439 Q817,1360.6689 817,1361.5283 L817,1362.4502 Q817,1363.4814 817.8438,1364.1689 Q818.6875,1364.8564 820.1875,1364.8564 Q821.0781,1364.8564 821.7031,1364.6533 Q822.0625,1364.5439 822.4688,1364.1846 Q822.7344,1363.9814 822.875,1363.9189 Q823.0156,1363.8564 823.1875,1363.8564 Q823.5156,1363.8564 823.75,1364.1221 Q824,1364.3721 824,1364.7314 Q824,1365.0752 823.6563,1365.4814 Q823.1563,1366.0752 822.3594,1366.4033 Q821.3125,1366.8564 820.0313,1366.8564 Q818.5313,1366.8564 817.3281,1366.2627 Q816.3594,1365.7939 815.6719,1364.7783 Q815,1363.7627 815,1362.5596 L815,1361.4658 Q815,1360.2158 815.5938,1359.1221 Q816.2031,1358.0283 817.25,1357.4502 Q818.3125,1356.8564 819.5,1356.8564 Q820.2188,1356.8564 820.8438,1357.1064 Q821.4688,1357.3564 822,1357.8564 Z " fill="#000000"/><text fill="#000000" font-family="sans-serif" font-size="12" lengthAdjust="spacing" textLength="51" x="834" y="1366.2666">Message</text><line style="stroke:#A80036;stroke-width:1.5;" x1="806" x2="887" y1="1377.3564" y2="1377.3564"/><text fill="#000000" font-family="sans-serif" font-size="11" lengthAdjust="spacing" textLength="57" x="811" y="1392.7754">-information</text><text fill="#000000" font-family="sans-serif" font-size="11" lengthAdjust="spacing" textLength="25" x="811" y="1406.6113">-type</text><!--MD5=[107cfa23aa516ff83d0cf17a6f9fe7ba]
class VaccineAdministration--><rect fill="#FEFECE" filter="url(#f1m9zni4wqiwpk)" height="40" id="VaccineAdministration" style="stroke:#A80036;stroke-width:1.5;" width="154" x="1185" y="1416.3564"/><ellipse cx="1200" cy="1432.3564" fill="#ADD1B2" rx="11" ry="11" style="stroke:#A80036;stroke-width:1.0;"/><path d="M1202,1428.8564 Q1202.2031,1428.3564 1202.4375,1428.1064 Q1202.6719,1427.8564 1202.9375,1427.8564 Q1203.4063,1427.8564 1203.7031,1428.1377 Q1204,1428.4189 1204,1429.0752 L1204,1430.6377 Q1204,1431.2939 1203.7188,1431.5752 Q1203.4375,1431.8564 1203,1431.8564 Q1202.6094,1431.8564 1202.3594,1431.6846 Q1202.1094,1431.5127 1202,1431.0596 Q1201.9531,1430.7471 1201.7813,1430.5752 Q1201.4688,1430.2471 1200.9063,1430.0596 Q1200.3438,1429.8564 1199.7813,1429.8564 Q1199.0781,1429.8564 1198.4844,1430.1377 Q1197.9063,1430.4189 1197.4531,1431.0439 Q1197,1431.6689 1197,1432.5283 L1197,1433.4502 Q1197,1434.4814 1197.8438,1435.1689 Q1198.6875,1435.8564 1200.1875,1435.8564 Q1201.0781,1435.8564 1201.7031,1435.6533 Q1202.0625,1435.5439 1202.4688,1435.1846 Q1202.7344,1434.9814 1202.875,1434.9189 Q1203.0156,1434.8564 1203.1875,1434.8564 Q1203.5156,1434.8564 1203.75,1435.1221 Q1204,1435.3721 1204,1435.7314 Q1204,1436.0752 1203.6563,1436.4814 Q1203.1563,1437.0752 1202.3594,1437.4033 Q1201.3125,1437.8564 1200.0313,1437.8564 Q1198.5313,1437.8564 1197.3281,1437.2627 Q1196.3594,1436.7939 1195.6719,1435.7783 Q1195,1434.7627 1195,1433.5596 L1195,1432.4658 Q1195,1431.2158 1195.5938,1430.1221 Q1196.2031,1429.0283 1197.25,1428.4502 Q1198.3125,1427.8564 1199.5,1427.8564 Q1200.2188,1427.8564 1200.8438,1428.1064 Q1201.4688,1428.3564 1202,1428.8564 Z " fill="#000000"/><text fill="#000000" font-family="sans-serif" font-size="12" lengthAdjust="spacing" textLength="122" x="1214" y="1437.2666">VaccineAdministration</text><line style="stroke:#A80036;stroke-width:1.5;" x1="1186" x2="1338" y1="1448.3564" y2="1448.3564"/><!--MD5=[e7c2f1214fae8a9df196b8270f12b77f]
link Administrator to CenterCoordinator--><path codeLine="118" d="M899.03,738.3564 C973.83,738.3564 1112.51,738.3564 1194.79,738.3564 " fill="none" id="Administrator-CenterCoordinator" style="stroke:#A80036;stroke-width:1.0;"/><polygon fill="#000000" points="1026.5,729.5322,1017.4549,726.5933,1017.4549,732.4712,1026.5,729.5322" style="stroke:#000000;stroke-width:1.0;"/><text fill="#000000" font-family="sans-serif" font-size="13" lengthAdjust="spacing" textLength="36" x="1030.5" y="734.8516">create</text><text fill="#000000" font-family="sans-serif" font-size="13" lengthAdjust="spacing" textLength="7" x="906.9092" y="748.4388">1</text><text fill="#000000" font-family="sans-serif" font-size="13" lengthAdjust="spacing" textLength="5" x="1182.1655" y="752.7548">*</text><!--MD5=[ffd436ea6eb8453a38f4088016c22004]
link Administrator to CommunityMassVaccinationCenter--><path codeLine="119" d="M899.38,720.6964 C909.16,717.6864 919.34,714.7564 929,712.3564 C1112.97,666.6064 1330.8,631.1264 1459.71,612.0164 " fill="none" id="Administrator-CommunityMassVaccinationCenter" style="stroke:#A80036;stroke-width:1.0;"/><polygon fill="#000000" points="1246.4085,620.5802,1236.9693,619.4173,1238.0885,625.1876,1246.4085,620.5802" style="stroke:#000000;stroke-width:1.0;"/><text fill="#000000" font-family="sans-serif" font-size="13" lengthAdjust="spacing" textLength="36" x="1250.5" y="626.8516">create</text><text fill="#000000" font-family="sans-serif" font-size="13" lengthAdjust="spacing" textLength="7" x="906.9561" y="732.9171">1</text><text fill="#000000" font-family="sans-serif" font-size="13" lengthAdjust="spacing" textLength="5" x="1446.964" y="627.101">*</text><!--MD5=[e2ddcc32583ff1a2f6fdd8d9fe473f71]
link Administrator to Nurse--><path codeLine="120" d="M899.24,749.8964 C1004.36,772.9264 1250.68,824.8464 1460,853.3564 C1625.74,875.9264 1668.3,871.5364 1835,885.3564 C1975.73,897.0264 2143.69,910.3564 2212.84,915.8164 " fill="none" id="Administrator-Nurse" style="stroke:#A80036;stroke-width:1.0;"/><polygon fill="#000000" points="1556.9606,845.1588,1548.3551,841.1096,1547.6185,846.9411,1556.9606,845.1588" style="stroke:#000000;stroke-width:1.0;"/><text fill="#000000" font-family="sans-serif" font-size="13" lengthAdjust="spacing" textLength="36" x="1561" y="849.8516">create</text><text fill="#000000" font-family="sans-serif" font-size="13" lengthAdjust="spacing" textLength="7" x="907.1488" y="766.1641">1</text><text fill="#000000" font-family="sans-serif" font-size="13" lengthAdjust="spacing" textLength="5" x="2200.0394" y="930.5623">*</text><!--MD5=[d19048e0d201a425b8ba02c142b1ebd0]
link CenterCoordinator to DailyPerformance--><path codeLine="122" d="M1329.22,742.2364 C1492.93,751.4464 1907.74,772.4564 1967,752.3564 C1982.91,746.9564 1982.86,738.4264 1997,729.3564 C2065.87,685.2064 2151.15,642.5864 2201.65,618.5064 " fill="none" id="CenterCoordinator-DailyPerformance" style="stroke:#A80036;stroke-width:1.0;"/><polygon fill="#000000" points="1738.9505,748.8301,1729.5823,747.1904,1730.4077,753.01,1738.9505,748.8301" style="stroke:#000000;stroke-width:1.0;"/><text fill="#000000" font-family="sans-serif" font-size="13" lengthAdjust="spacing" textLength="47" x="1743" y="754.8516">evaluate</text><text fill="#000000" font-family="sans-serif" font-size="13" lengthAdjust="spacing" textLength="7" x="1336.955" y="748.1841">1</text><text fill="#000000" font-family="sans-serif" font-size="13" lengthAdjust="spacing" textLength="20" x="2166.3641" y="639.9682">0..*</text><!--MD5=[c0e5ad50a2b6f78d67c9ec501d1860d0]
link CenterCoordinator to Report--><path codeLine="123" d="M1329.05,755.0464 C1342.26,758.2464 1356.05,761.4864 1369,764.3564 C1442.6,780.6564 1644.37,822.5964 1715,832.3564 C1767.67,839.6364 1829.3,843.7564 1866.46,845.7764 " fill="none" id="CenterCoordinator-Report" style="stroke:#A80036;stroke-width:1.0;"/><polygon fill="#000000" points="1549.9302,776.3646,1541.5006,771.9609,1540.5221,777.7567,1549.9302,776.3646" style="stroke:#000000;stroke-width:1.0;"/><text fill="#000000" font-family="sans-serif" font-size="13" lengthAdjust="spacing" textLength="50" x="1554" y="780.8516">generate</text><text fill="#000000" font-family="sans-serif" font-size="13" lengthAdjust="spacing" textLength="7" x="1337.2073" y="771.4262">1</text><text fill="#000000" font-family="sans-serif" font-size="13" lengthAdjust="spacing" textLength="20" x="1838.5263" y="860.4464">0..*</text><!--MD5=[d3df84ca029fbacbbd2123c2919c54f0]
link CenterCoordinator to CommunityMassVaccinationCenter--><path codeLine="124" d="M1329.3,715.3364 C1360.31,703.9664 1397.48,689.4664 1430,674.3564 C1439.79,669.8064 1449.84,664.8564 1459.85,659.7464 " fill="none" id="CenterCoordinator-CommunityMassVaccinationCenter" style="stroke:#A80036;stroke-width:1.0;"/><polygon fill="#000000" points="1378.6003,663.5734,1369.1269,664.413,1371.4297,669.821,1378.6003,663.5734" style="stroke:#000000;stroke-width:1.0;"/><text fill="#000000" font-family="sans-serif" font-size="13" lengthAdjust="spacing" textLength="46" x="1383" y="670.8516">manage</text><text fill="#000000" font-family="sans-serif" font-size="13" lengthAdjust="spacing" textLength="7" x="1337.0438" y="727.2169">1</text><text fill="#000000" font-family="sans-serif" font-size="13" lengthAdjust="spacing" textLength="7" x="1445.0462" y="678.0378">1</text><!--MD5=[e31506ead07e447928ba83a08bf6c149]
link CommunityMassVaccinationCenter to DailyPerformance--><path codeLine="126" d="M1685.14,596.6864 C1826.85,597.1064 2066.61,597.8264 2180.81,598.1664 " fill="none" id="CommunityMassVaccinationCenter-DailyPerformance" style="stroke:#A80036;stroke-width:1.0;"/><polygon fill="#000000" points="1893,587.5472,1883.9637,584.5812,1883.9462,590.4591,1893,587.5472" style="stroke:#000000;stroke-width:1.0;"/><text fill="#000000" font-family="sans-serif" font-size="13" lengthAdjust="spacing" textLength="21" x="1897" y="592.8516">has</text><text fill="#000000" font-family="sans-serif" font-size="13" lengthAdjust="spacing" textLength="7" x="1692.9432" y="610.741">1</text><text fill="#000000" font-family="sans-serif" font-size="13" lengthAdjust="spacing" textLength="20" x="2153.056" y="612.4851">0..*</text><!--MD5=[e0cf35d60250673f189818fe4a876648]
link CommunityMassVaccinationCenter to Report--><path codeLine="127" d="M1616.86,685.5164 C1640.64,725.7764 1673.74,770.6464 1715,799.3564 C1739.38,816.3164 1820.11,833.0264 1866.47,841.5464 " fill="none" id="CommunityMassVaccinationCenter-Report" style="stroke:#A80036;stroke-width:1.0;"/><polygon fill="#000000" points="1751.2398,793.1825,1745.1277,785.896,1742.0121,790.8802,1751.2398,793.1825" style="stroke:#000000;stroke-width:1.0;"/><text fill="#000000" font-family="sans-serif" font-size="13" lengthAdjust="spacing" textLength="21" x="1756" y="795.8516">has</text><text fill="#000000" font-family="sans-serif" font-size="13" lengthAdjust="spacing" textLength="7" x="1613.3714" y="707.3609">1</text><text fill="#000000" font-family="sans-serif" font-size="13" lengthAdjust="spacing" textLength="20" x="1838.5381" y="836.613">0..*</text><!--MD5=[3f29a51da9f639eee0a312cae15defb1]
link CommunityMassVaccinationCenter to VaccinationQueue--><path codeLine="128" d="M1685.41,562.4264 C1735.25,547.3164 1792.2,530.0464 1834.9,517.0964 " fill="none" id="CommunityMassVaccinationCenter-VaccinationQueue" style="stroke:#A80036;stroke-width:1.0;"/><polygon fill="#000000" points="1751.7849,516.0813,1742.2761,515.8936,1743.9818,521.5185,1751.7849,516.0813" style="stroke:#000000;stroke-width:1.0;"/><text fill="#000000" font-family="sans-serif" font-size="13" lengthAdjust="spacing" textLength="21" x="1756" y="522.8516">has</text><text fill="#000000" font-family="sans-serif" font-size="13" lengthAdjust="spacing" textLength="7" x="1692.8675" y="574.2602">1</text><text fill="#000000" font-family="sans-serif" font-size="13" lengthAdjust="spacing" textLength="7" x="1819.8525" y="533.7995">1</text><!--MD5=[eaea43e34e45c5b9d20b595fc78f1f20]
link Company to Administrator--><path codeLine="130" d="M391.82,514.9464 C485.61,561.1364 711.8,672.5164 804.66,718.2464 " fill="none" id="Company-Administrator" style="stroke:#A80036;stroke-width:1.0;"/><polygon fill="#000000" points="599.4856,600.7411,592.6694,594.1086,590.0727,599.3818,599.4856,600.7411" style="stroke:#000000;stroke-width:1.0;"/><text fill="#000000" font-family="sans-serif" font-size="13" lengthAdjust="spacing" textLength="37" x="604" y="603.8516">knows</text><text fill="#000000" font-family="sans-serif" font-size="13" lengthAdjust="spacing" textLength="7" x="399.4917" y="533.2195">1</text><text fill="#000000" font-family="sans-serif" font-size="13" lengthAdjust="spacing" textLength="5" x="786.6351" y="707.5359">*</text><!--MD5=[8502a704dc9b381ea58589d3b3323a61]
link Company to CommunityMassVaccinationCenter--><path codeLine="131" d="M391.94,473.0764 C443.19,449.0764 533.22,413.3564 615,413.3564 C615,413.3564 615,413.3564 1043,413.3564 C1193.5,413.3564 1355.5,480.4464 1459.9,533.3764 " fill="none" id="Company-CommunityMassVaccinationCenter" style="stroke:#A80036;stroke-width:1.0;"/><polygon fill="#000000" points="825.992,404.8141,817.127,401.3699,816.7957,407.2384,825.992,404.8141" style="stroke:#000000;stroke-width:1.0;"/><text fill="#000000" font-family="sans-serif" font-size="13" lengthAdjust="spacing" textLength="46" x="830" y="409.8516">manage</text><text fill="#000000" font-family="sans-serif" font-size="13" lengthAdjust="spacing" textLength="7" x="399.6316" y="484.4148">1</text><text fill="#000000" font-family="sans-serif" font-size="13" lengthAdjust="spacing" textLength="5" x="1447.1667" y="543.1773">*</text><!--MD5=[1a8aa2b864b87f860d28abceaa28b7a5]
link Company to SNSUser--><path codeLine="132" d="M359.43,521.5164 C399.12,635.7964 552.75,1078.1264 600.65,1216.0464 " fill="none" id="Company-SNSUser" style="stroke:#A80036;stroke-width:1.0;"/><polygon fill="#000000" points="483.1404,803.2555,482.9491,793.7468,477.3966,795.6753,483.1404,803.2555" style="stroke:#000000;stroke-width:1.0;"/><text fill="#000000" font-family="sans-serif" font-size="13" lengthAdjust="spacing" textLength="30" x="490.5" y="803.8516">owns</text><text fill="#000000" font-family="sans-serif" font-size="13" lengthAdjust="spacing" textLength="7" x="353.9459" y="542.7592">1</text><text fill="#000000" font-family="sans-serif" font-size="13" lengthAdjust="spacing" textLength="5" x="592.6936" y="1205.4445">*</text><!--MD5=[c29c8d42883934cbaf5793c72a334947]
link Company to Vaccine--><path codeLine="133" d="M350.56,521.4464 C354.78,690.2264 387.92,1590.3564 615,1590.3564 C615,1590.3564 615,1590.3564 2557,1590.3564 C2653,1590.3564 2758.79,1545.1464 2814.05,1517.7664 " fill="none" id="Company-Vaccine" style="stroke:#A80036;stroke-width:1.0;"/><polygon fill="#000000" points="1554.1353,1583.4069,1546.8519,1577.2911,1544.6481,1582.7401,1554.1353,1583.4069" style="stroke:#000000;stroke-width:1.0;"/><text fill="#000000" font-family="sans-serif" font-size="13" lengthAdjust="spacing" textLength="41" x="1558.5" y="1586.8516">applies</text><text fill="#000000" font-family="sans-serif" font-size="13" lengthAdjust="spacing" textLength="7" x="343.1356" y="542.6739">1</text><text fill="#000000" font-family="sans-serif" font-size="13" lengthAdjust="spacing" textLength="5" x="2801.5777" y="1536.3826">*</text><!--MD5=[ea2d64bbbbe00d2248a4dcf3ad4479be]
link HealthCareCenter to VaccineType--><path codeLine="135" d="M3487.05,447.2064 C3536.04,425.2564 3602.19,395.6164 3646.94,375.5664 " fill="none" id="HealthCareCenter-VaccineType" style="stroke:#A80036;stroke-width:1.0;"/><polygon fill="#000000" points="3526.5629,379.4878,3517.1068,380.5042,3519.5102,385.8682,3526.5629,379.4878" style="stroke:#000000;stroke-width:1.0;"/><text fill="#000000" font-family="sans-serif" font-size="13" lengthAdjust="spacing" textLength="85" x="3531" y="386.8516">can administer</text><text fill="#000000" font-family="sans-serif" font-size="13" lengthAdjust="spacing" textLength="5" x="3494.9761" y="458.2556">*</text><text fill="#000000" font-family="sans-serif" font-size="13" lengthAdjust="spacing" textLength="5" x="3634.1468" y="393.5606">*</text><!--MD5=[597bc56c88c5a732a1016385f4f1581e]
link HealthCareCenter to Administrator--><path codeLine="136" d="M3394.39,565.3664 C3379.17,607.0164 3356.57,655.2664 3325,691.3564 C3291.37,729.7964 3272.76,728.6864 3227,751.3564 C2971.93,877.7364 2909.55,929.6164 2630,983.3564 C2250.71,1056.2764 2147.24,991.3564 1761,991.3564 C1261,991.3564 1261,991.3564 1261,991.3564 C1083,991.3564 916.88,818.6664 864.5,758.6364 " fill="none" id="HealthCareCenter-Administrator" style="stroke:#A80036;stroke-width:1.0;"/><polygon fill="#000000" points="2230.4855,1004.1514,2221.2428,1001.91,2221.6905,1007.7707,2230.4855,1004.1514" style="stroke:#000000;stroke-width:1.0;"/><text fill="#000000" font-family="sans-serif" font-size="13" lengthAdjust="spacing" textLength="36" x="2234.5" y="1009.8516">create</text><text fill="#000000" font-family="sans-serif" font-size="13" lengthAdjust="spacing" textLength="5" x="3386.8884" y="587.198">*</text><text fill="#000000" font-family="sans-serif" font-size="13" lengthAdjust="spacing" textLength="7" x="861.3969" y="779.7791">1</text><!--MD5=[daa6eaffaa7eccfc7b7fa54c829ed345]
link HealthCareCenter to Company--><path codeLine="137" d="M3354.94,434.1964 C3240.22,362.3564 2992.07,218.1264 2760,157.3564 C2329.66,44.6664 2205.85,95.3564 1761,95.3564 C615,95.3564 615,95.3564 615,95.3564 C436,95.3564 370.67,377.4364 354.4,467.2464 " fill="none" id="HealthCareCenter-Company" style="stroke:#A80036;stroke-width:1.0;"/><polygon fill="#000000" points="1880.4997,83.4772,1871.4228,80.638,1871.4875,86.5155,1880.4997,83.4772" style="stroke:#000000;stroke-width:1.0;"/><text fill="#000000" font-family="sans-serif" font-size="13" lengthAdjust="spacing" textLength="46" x="1884.5" y="88.8516">manage</text><text fill="#000000" font-family="sans-serif" font-size="13" lengthAdjust="spacing" textLength="5" x="3342.0128" y="443.7414">*</text><text fill="#000000" font-family="sans-serif" font-size="13" lengthAdjust="spacing" textLength="7" x="356.4581" y="456.682">1</text><!--MD5=[d77d6dece85a69312c4a2c96307edcc3]
link HealthCareCenter to Nurse--><path codeLine="138" d="M3370.45,565.5464 C3323.47,636.9964 3245.63,725.3564 3148,725.3564 C2555,725.3564 2555,725.3564 2555,725.3564 C2431.63,725.3564 2317.07,837.9164 2269.81,891.1164 " fill="none" id="HealthCareCenter-Nurse" style="stroke:#A80036;stroke-width:1.0;"/><polygon fill="#000000" points="2842.2946,715.114,2832.7874,714.8614,2834.4547,720.4978,2842.2946,715.114" style="stroke:#000000;stroke-width:1.0;"/><text fill="#000000" font-family="sans-serif" font-size="13" lengthAdjust="spacing" textLength="27" x="2846.5" y="721.8516">work</text><text fill="#000000" font-family="sans-serif" font-size="13" lengthAdjust="spacing" textLength="5" x="3361.0568" y="587.0898">*</text><text fill="#000000" font-family="sans-serif" font-size="13" lengthAdjust="spacing" textLength="7" x="2267.5067" y="880.5219">1</text><!--MD5=[6b2cf5a15780d37cf4a0a9239a052fb4]
link Message to VaccineAdministration--><path codeLine="140" d="M888.41,1395.5864 C901.22,1400.0764 915.54,1404.4964 929,1407.3564 C1015.45,1425.6964 1116.94,1432.4764 1184.74,1434.9564 " fill="none" id="Message-VaccineAdministration" style="stroke:#A80036;stroke-width:1.0;"/><polygon fill="#000000" points="938.9564,1399.1907,930.3772,1395.0862,929.6031,1400.9128,938.9564,1399.1907" style="stroke:#000000;stroke-width:1.0;"/><text fill="#000000" font-family="sans-serif" font-size="13" lengthAdjust="spacing" textLength="211" x="943" y="1403.8516">is issued within a period of time after</text><text fill="#000000" font-family="sans-serif" font-size="13" lengthAdjust="spacing" textLength="22" x="895.8505" y="1412.5367">0..1</text><text fill="#000000" font-family="sans-serif" font-size="13" lengthAdjust="spacing" textLength="7" x="1170.0426" y="1449.0974">1</text><!--MD5=[1f66c670bcc322f8893bb01f7ad0aed1]
link Message to VaccineSchedule--><path codeLine="141" d="M888.27,1376.7364 C962.42,1372.1964 1124.32,1363.3564 1261,1363.3564 C1261,1363.3564 1261,1363.3564 2075,1363.3564 C2228.18,1363.3564 2620.05,1348.6264 2760,1286.3564 C2774.9,1279.7264 2789.11,1269.8064 2801.72,1259.1364 " fill="none" id="Message-VaccineSchedule" style="stroke:#A80036;stroke-width:1.0;"/><polygon fill="#000000" points="1872.9906,1354.2255,1863.7822,1351.847,1864.1428,1357.7138,1872.9906,1354.2255" style="stroke:#000000;stroke-width:1.0;"/><text fill="#000000" font-family="sans-serif" font-size="13" lengthAdjust="spacing" textLength="61" x="1877" y="1359.8516">emitted on</text><text fill="#000000" font-family="sans-serif" font-size="13" lengthAdjust="spacing" textLength="22" x="896.0206" y="1391.0717">0..1</text><text fill="#000000" font-family="sans-serif" font-size="13" lengthAdjust="spacing" textLength="7" x="2787.6372" y="1280.6863">1</text><!--MD5=[caf5296180bfac063f712c0c7ef40853]
link Nurse to VaccineSchedule--><path codeLine="143" d="M2279.25,920.8464 C2320.49,924.8364 2393.57,934.6764 2452,957.3564 C2580.7,1007.3164 2714.02,1098.9564 2789.77,1155.4764 " fill="none" id="Nurse-VaccineSchedule" style="stroke:#A80036;stroke-width:1.0;"/><polygon fill="#000000" points="2546.0432,963.6202,2539.0518,957.1726,2536.5972,962.5134,2546.0432,963.6202" style="stroke:#000000;stroke-width:1.0;"/><text fill="#000000" font-family="sans-serif" font-size="13" lengthAdjust="spacing" textLength="24" x="2550.5" y="966.8516">view</text><text fill="#000000" font-family="sans-serif" font-size="13" lengthAdjust="spacing" textLength="7" x="2286.8297" y="936.5583">1</text><text fill="#000000" font-family="sans-serif" font-size="13" lengthAdjust="spacing" textLength="5" x="2777.1122" y="1164.2547">*</text><!--MD5=[95c6a4c232b9987cda7fb042eccfe7e5]
link Nurse to AdverseReactions--><path codeLine="144" d="M2279.09,939.4064 C2332.25,974.2664 2439.04,1044.3064 2503.05,1086.2864 " fill="none" id="Nurse-AdverseReactions" style="stroke:#A80036;stroke-width:1.0;"/><polygon fill="#000000" points="2376.681,977.2743,2370.7292,969.8563,2367.5057,974.7714,2376.681,977.2743" style="stroke:#000000;stroke-width:1.0;"/><text fill="#000000" font-family="sans-serif" font-size="13" lengthAdjust="spacing" textLength="43" x="2381.5" y="979.8516">register</text><text fill="#000000" font-family="sans-serif" font-size="13" lengthAdjust="spacing" textLength="7" x="2285.7754" y="966.4564">1</text><text fill="#000000" font-family="sans-serif" font-size="13" lengthAdjust="spacing" textLength="5" x="2487.1333" y="1075.5659">*</text><!--MD5=[0ef16df5b5b7663f9d4f6f3874028fb1]
link Nurse to CommunityMassVaccinationCenter--><path codeLine="145" d="M2212.77,902.9064 C2118.82,857.8564 1841.96,725.0864 1685.14,649.8864 " fill="none" id="Nurse-CommunityMassVaccinationCenter" style="stroke:#A80036;stroke-width:1.0;"/><polygon fill="#000000" points="1880.4916,713.3703,1887.3766,719.9313,1889.9182,714.6313,1880.4916,713.3703" style="stroke:#000000;stroke-width:1.0;"/><text fill="#000000" font-family="sans-serif" font-size="13" lengthAdjust="spacing" textLength="27" x="1894" y="720.8516">work</text><text fill="#000000" font-family="sans-serif" font-size="13" lengthAdjust="spacing" textLength="7" x="2198.1944" y="895.6182">1</text><text fill="#000000" font-family="sans-serif" font-size="13" lengthAdjust="spacing" textLength="5" x="1692.876" y="667.5153">*</text><!--MD5=[60edf0de2c21aac5761a3783903744d0]
link Nurse to VacineAdministration--><path codeLine="146" d="M2279.29,943.3064 C2290.64,953.4464 2302.63,965.9364 2311,979.3564 C2334.43,1016.9264 2322.68,1034.0464 2341,1074.3564 C2394.83,1192.7664 2480.48,1320.4764 2525.35,1384.2264 " fill="none" id="Nurse-VacineAdministration" style="stroke:#A80036;stroke-width:1.0;"/><polygon fill="#000000" points="2348.4366,1069.8984,2346.5951,1060.5678,2341.4624,1063.4321,2348.4366,1069.8984" style="stroke:#000000;stroke-width:1.0;"/><text fill="#000000" font-family="sans-serif" font-size="13" lengthAdjust="spacing" textLength="96" x="2355" y="1070.8516">view and register</text><text fill="#000000" font-family="sans-serif" font-size="13" lengthAdjust="spacing" textLength="7" x="2286.8779" y="963.6507">1</text><text fill="#000000" font-family="sans-serif" font-size="13" lengthAdjust="spacing" textLength="5" x="2514.6523" y="1373.3499">*</text><!--MD5=[68f756bc59cba637d4ff36002d7ff302]
link Receptionist to Administrator--><path codeLine="148" d="M3117,449.1364 C3050.69,389.8564 2880.57,254.3564 2711,254.3564 C1759,254.3564 1759,254.3564 1759,254.3564 C1540.39,254.3564 1535.83,415.2464 1339,510.3564 C1164.16,594.8464 1094.05,559.0364 929,661.3564 C903.85,676.9464 879.84,701.1664 864.47,718.2764 " fill="none" id="Receptionist-Administrator" style="stroke:#A80036;stroke-width:1.0;"/><polygon fill="#000000" points="2036.0353,246.1254,2045.3652,247.9705,2044.6678,242.1341,2036.0353,246.1254" style="stroke:#000000;stroke-width:1.0;"/><text fill="#000000" font-family="sans-serif" font-size="13" lengthAdjust="spacing" textLength="61" x="2050" y="250.8516">created by</text><text fill="#000000" font-family="sans-serif" font-size="13" lengthAdjust="spacing" textLength="5" x="3104.4844" y="438.5466">*</text><text fill="#000000" font-family="sans-serif" font-size="13" lengthAdjust="spacing" textLength="7" x="861.7206" y="707.5747">1</text><!--MD5=[a107f497ebdb6fa60e16f0035ef62d40]
link Receptionist to VaccinationQueue--><path codeLine="149" d="M3096.5,478.8164 C3038.52,481.4764 2939.56,485.3564 2854.5,485.3564 C2245,485.3564 2245,485.3564 2245,485.3564 C2148.17,485.3564 2036.07,490.1964 1967.09,493.7264 " fill="none" id="Receptionist-VaccinationQueue" style="stroke:#A80036;stroke-width:1.0;"/><polygon fill="#000000" points="2525.5004,476.5982,2534.5835,479.4175,2534.5059,473.5402,2525.5004,476.5982" style="stroke:#000000;stroke-width:1.0;"/><text fill="#000000" font-family="sans-serif" font-size="13" lengthAdjust="spacing" textLength="46" x="2539.5" y="481.8516">manage</text><text fill="#000000" font-family="sans-serif" font-size="13" lengthAdjust="spacing" textLength="7" x="3081.5688" y="493.8857">1</text><text fill="#000000" font-family="sans-serif" font-size="13" lengthAdjust="spacing" textLength="7" x="1975.1363" y="507.7273">1</text><!--MD5=[e891864ca8a226c4e0c61b8ea8caa18b]
link Receptionist to CommunityMassVaccinationCenter--><path codeLine="150" d="M3096.35,464.6264 C2920.47,425.1764 2312.03,306.5964 1835,432.3564 C1780.72,446.6664 1727.08,476.7264 1682.64,507.2464 " fill="none" id="Receptionist-CommunityMassVaccinationCenter" style="stroke:#A80036;stroke-width:1.0;"/><polygon fill="#000000" points="2375.5023,367.6829,2384.6318,370.3479,2384.4547,364.4727,2375.5023,367.6829" style="stroke:#000000;stroke-width:1.0;"/><text fill="#000000" font-family="sans-serif" font-size="13" lengthAdjust="spacing" textLength="27" x="2389.5" y="372.8516">work</text><text fill="#000000" font-family="sans-serif" font-size="13" lengthAdjust="spacing" textLength="7" x="3081.3967" y="477.6116">1</text><text fill="#000000" font-family="sans-serif" font-size="13" lengthAdjust="spacing" textLength="5" x="1686.8903" y="496.3958">*</text><!--MD5=[08f289302771f061754fcf7b491c15ac]
link Receptionist to HealthCareCenter--><path codeLine="151" d="M3197.57,476.3564 C3241.7,476.3564 3306.56,476.3564 3354.87,476.3564 " fill="none" id="Receptionist-HealthCareCenter" style="stroke:#A80036;stroke-width:1.0;"/><polygon fill="#000000" points="3280,467.5322,3270.9549,464.5933,3270.9549,470.4712,3280,467.5322" style="stroke:#000000;stroke-width:1.0;"/><text fill="#000000" font-family="sans-serif" font-size="13" lengthAdjust="spacing" textLength="27" x="3284" y="472.8516">work</text><text fill="#000000" font-family="sans-serif" font-size="13" lengthAdjust="spacing" textLength="7" x="3205.5115" y="491.0644">1</text><text fill="#000000" font-family="sans-serif" font-size="13" lengthAdjust="spacing" textLength="5" x="3341.9347" y="490.7761">*</text><!--MD5=[e1b31b4421367865ccc85f858463f729]
link SNSUser to Administrator--><path codeLine="153" d="M658.34,1222.9264 C667.81,1215.7264 678.03,1208.4764 688,1202.3564 C719.85,1182.7964 741.13,1195.9264 764,1166.3564 C814.67,1100.8364 838.29,834.1964 844.06,758.4864 " fill="none" id="SNSUser-Administrator" style="stroke:#A80036;stroke-width:1.0;"/><polygon fill="#000000" points="694.8565,1152.8897,688.7692,1160.1969,694.2269,1162.3794,694.8565,1152.8897" style="stroke:#000000;stroke-width:1.0;"/><text fill="#000000" font-family="sans-serif" font-size="13" lengthAdjust="spacing" textLength="61" x="702" y="1162.8516">created by</text><text fill="#000000" font-family="sans-serif" font-size="13" lengthAdjust="spacing" textLength="5" x="666.0469" y="1231.9514">*</text><text fill="#000000" font-family="sans-serif" font-size="13" lengthAdjust="spacing" textLength="7" x="835.3894" y="779.9426">1</text><!--MD5=[d0c1d6a50447aab3792dee1306b11166]
link SNSUser to AdverseReactions--><path codeLine="154" d="M658.18,1255.4164 C823.01,1247.5264 1451.12,1216.3864 1967,1176.3564 C2157.16,1161.5964 2381.4,1138.7264 2489.81,1127.3164 " fill="none" id="SNSUser-AdverseReactions" style="stroke:#A80036;stroke-width:1.0;"/><polygon fill="#000000" points="1561.9878,1187.1834,1552.7597,1184.8827,1553.1698,1190.7462,1561.9878,1187.1834" style="stroke:#000000;stroke-width:1.0;"/><text fill="#000000" font-family="sans-serif" font-size="13" lengthAdjust="spacing" textLength="26" x="1566" y="1192.8516">have</text><text fill="#000000" font-family="sans-serif" font-size="13" lengthAdjust="spacing" textLength="7" x="666.0312" y="1251.2756">1</text><text fill="#000000" font-family="sans-serif" font-size="13" lengthAdjust="spacing" textLength="20" x="2461.9529" y="1142.3894">0..*</text><!--MD5=[5a594f0a9ba95c766b00ef0665427c24]
link SNSUser to Message--><path codeLine="155" d="M646.13,1298.4164 C657.75,1312.2164 672.15,1326.5764 688,1336.3564 C723.95,1358.5264 771.4,1369.4564 804.8,1374.7164 " fill="none" id="SNSUser-Message" style="stroke:#A80036;stroke-width:1.0;"/><polygon fill="#000000" points="708.0061,1329.6991,701.1281,1323.1306,698.5809,1328.4278,708.0061,1329.6991" style="stroke:#000000;stroke-width:1.0;"/><text fill="#000000" font-family="sans-serif" font-size="13" lengthAdjust="spacing" textLength="40" x="712.5" y="1332.8516">receive</text><text fill="#000000" font-family="sans-serif" font-size="13" lengthAdjust="spacing" textLength="7" x="643.2077" y="1319.4885">1</text><text fill="#000000" font-family="sans-serif" font-size="13" lengthAdjust="spacing" textLength="20" x="776.8834" y="1388.7781">0..*</text><!--MD5=[af39a9728ae42892cc1cca452613b5da]
link VaccinationCertificate to Nurse--><path codeLine="157" d="M367.68,1336.2864 C387.27,1314.8764 420.54,1280.8464 454,1257.3564 C549.16,1190.5364 575.21,1168.6164 688,1140.3564 C1239.61,1002.1464 1425.41,1278.6964 1967,1105.3564 C2069.76,1072.4664 2169.57,989.0564 2216.74,945.6064 " fill="none" id="VaccinationCertificate-Nurse" style="stroke:#A80036;stroke-width:1.0;"/><polygon fill="#000000" points="1226.892,1103.4986,1217.4347,1102.493,1218.6498,1108.2439,1226.892,1103.4986" style="stroke:#000000;stroke-width:1.0;"/><text fill="#000000" font-family="sans-serif" font-size="13" lengthAdjust="spacing" textLength="75" x="1231" y="1109.8516">requested by</text><text fill="#000000" font-family="sans-serif" font-size="13" lengthAdjust="spacing" textLength="5" x="367.4329" y="1325.5876">*</text><text fill="#000000" font-family="sans-serif" font-size="13" lengthAdjust="spacing" textLength="7" x="2202.5737" y="966.8689">1</text><!--MD5=[55c2b57e221811e461a463566085415f]
link VaccinationCertificate to SNSUser--><path codeLine="158" d="M403.63,1336.3264 C453.84,1317.5664 527.81,1289.9264 573.61,1272.8164 " fill="none" id="VaccinationCertificate-SNSUser" style="stroke:#A80036;stroke-width:1.0;"/><polygon fill="#000000" points="463.6837,1272.7822,454.1821,1273.195,456.2394,1278.701,463.6837,1272.7822" style="stroke:#000000;stroke-width:1.0;"/><text fill="#000000" font-family="sans-serif" font-size="13" lengthAdjust="spacing" textLength="75" x="468" y="1279.8516">requested by</text><text fill="#000000" font-family="sans-serif" font-size="13" lengthAdjust="spacing" textLength="5" x="413.9432" y="1325.6394">*</text><text fill="#000000" font-family="sans-serif" font-size="13" lengthAdjust="spacing" textLength="7" x="559.0095" y="1290.267">1</text><!--MD5=[5383a7aadca222ed629f270daff99c09]
link VaccinationProgram to Company--><path codeLine="160" d="M150.05,494.3564 C199.77,494.3564 264.66,494.3564 306.34,494.3564 " fill="none" id="VaccinationProgram-Company" style="stroke:#A80036;stroke-width:1.0;"/><polygon fill="#000000" points="180,485.5322,189.0451,488.4712,189.0451,482.5933,180,485.5322" style="stroke:#000000;stroke-width:1.0;"/><text fill="#000000" font-family="sans-serif" font-size="13" lengthAdjust="spacing" textLength="49" x="194" y="490.8516">contains</text><text fill="#000000" font-family="sans-serif" font-size="13" lengthAdjust="spacing" textLength="20" x="158.0776" y="508.6564">0..*</text><text fill="#000000" font-family="sans-serif" font-size="13" lengthAdjust="spacing" textLength="7" x="291.4062" y="509.2709">1</text><!--MD5=[d9b21ddca7c4cced7d721379358d0d7a]
link VaccinationQueue to SNSUser--><path codeLine="162" d="M1834.96,474.7164 C1670.43,421.6864 1229.43,306.2564 929,476.3564 C655.51,631.2064 621.35,1077.8064 617.41,1216.0564 " fill="none" id="VaccinationQueue-SNSUser" style="stroke:#A80036;stroke-width:1.0;"/><polygon fill="#000000" points="1242.2294,381.1325,1251.4834,378.9388,1248.4266,373.9183,1242.2294,381.1325" style="stroke:#000000;stroke-width:1.0;"/><text fill="#000000" font-family="sans-serif" font-size="13" lengthAdjust="spacing" textLength="26" x="1255.5" y="383.8516">have</text><text fill="#000000" font-family="sans-serif" font-size="13" lengthAdjust="spacing" textLength="7" x="1819.9194" y="486.5193">1</text><text fill="#000000" font-family="sans-serif" font-size="13" lengthAdjust="spacing" textLength="20" x="619.2998" y="1205.4561">0..*</text><!--MD5=[bb41628a20dc1a86cb06cdc63edecf6e]
link VaccinationQueue to Nurse--><path codeLine="163" d="M1943.31,544.9264 C1951.18,554.0264 1959.35,563.4764 1967,572.3564 C2049.08,667.6564 2073.38,688.3964 2151,787.3564 C2178.47,822.3764 2208.08,864.4264 2226.57,891.2664 " fill="none" id="VaccinationQueue-Nurse" style="stroke:#A80036;stroke-width:1.0;"/><polygon fill="#000000" points="2051.6655,603.4026,2048.214,594.5404,2043.6641,598.2616,2051.6655,603.4026" style="stroke:#000000;stroke-width:1.0;"/><text fill="#000000" font-family="sans-serif" font-size="13" lengthAdjust="spacing" textLength="46" x="2057.5" y="604.8516">seen by</text><text fill="#000000" font-family="sans-serif" font-size="13" lengthAdjust="spacing" textLength="7" x="1942.0102" y="566.584">1</text><text fill="#000000" font-family="sans-serif" font-size="13" lengthAdjust="spacing" textLength="20" x="2224.3893" y="880.7066">1..*</text><!--MD5=[de243bd303a36b6c4c54686b73a54873]
link VaccinationQueue to DailyPerformance--><path codeLine="164" d="M1967.01,519.7664 C1977.02,523.0664 1987.27,526.3664 1997,529.3564 C2005.98,532.1164 2110.28,561.0564 2180.73,580.5664 " fill="none" id="VaccinationQueue-DailyPerformance" style="stroke:#A80036;stroke-width:1.0;"/><polygon fill="#000000" points="2040.1908,519.1641,2048.0865,524.4658,2049.6949,518.8123,2040.1908,519.1641" style="stroke:#000000;stroke-width:1.0;"/><text fill="#000000" font-family="sans-serif" font-size="13" lengthAdjust="spacing" textLength="53" x="2054" y="525.8516">based on</text><text fill="#000000" font-family="sans-serif" font-size="13" lengthAdjust="spacing" textLength="7" x="1975.0471" y="536.7782">1</text><text fill="#000000" font-family="sans-serif" font-size="13" lengthAdjust="spacing" textLength="5" x="2167.8941" y="592.9499">*</text><!--MD5=[c3dd7d5a27b29f54641ada6fcfd9df12]
link Vaccine to Administrator--><path codeLine="166" d="M2814.47,1502.0264 C2746.26,1509.1064 2599.29,1518.3764 2482,1484.3564 C2125.4,1380.9264 2132.3,1062.3564 1761,1062.3564 C1261,1062.3564 1261,1062.3564 1261,1062.3564 C1112.1,1062.3564 1041.86,1114.4964 929,1017.3564 C888.75,982.7064 859.59,816.4064 850.49,758.3764 " fill="none" id="Vaccine-Administrator" style="stroke:#A80036;stroke-width:1.0;"/><polygon fill="#000000" points="1863.324,1055.7617,1870.7423,1061.7131,1872.8237,1056.2161,1863.324,1055.7617" style="stroke:#000000;stroke-width:1.0;"/><text fill="#000000" font-family="sans-serif" font-size="13" lengthAdjust="spacing" textLength="61" x="1877" y="1062.8516">created by</text><text fill="#000000" font-family="sans-serif" font-size="13" lengthAdjust="spacing" textLength="5" x="2801.5533" y="1518.0016">*</text><text fill="#000000" font-family="sans-serif" font-size="13" lengthAdjust="spacing" textLength="7" x="852.5966" y="779.8016">1</text><!--MD5=[3568623adf67b2630dce9e60c05bd02a]
link Vaccine to VaccineType--><path codeLine="167" d="M2892.63,1504.5364 C2964.61,1515.9164 3122.65,1530.3064 3227,1461.3564 C3613.08,1206.2464 3682.54,563.1164 3694.25,394.4064 " fill="none" id="Vaccine-VaccineType" style="stroke:#A80036;stroke-width:1.0;"/><polygon fill="#000000" points="3279.4271,1371.4786,3271.7492,1377.0912,3276.5146,1380.5322,3279.4271,1371.4786" style="stroke:#000000;stroke-width:1.0;"/><text fill="#000000" font-family="sans-serif" font-size="13" lengthAdjust="spacing" textLength="24" x="3285.5" y="1380.8516">is of</text><text fill="#000000" font-family="sans-serif" font-size="13" lengthAdjust="spacing" textLength="5" x="2900.5657" y="1520.99">*</text><text fill="#000000" font-family="sans-serif" font-size="13" lengthAdjust="spacing" textLength="7" x="3686.2164" y="415.4769">1</text><!--MD5=[a98252b7739f22b1ddec3651c1c3aaea]
link Vaccine to AdministrationProcess--><path codeLine="168" d="M2892.61,1484.1564 C2936.67,1468.8864 3010.38,1443.3464 3066.97,1423.7364 " fill="none" id="Vaccine-AdministrationProcess" style="stroke:#A80036;stroke-width:1.0;"/><polygon fill="#000000" points="2983.7244,1423.8951,2974.2156,1424.0798,2976.1402,1429.6336,2983.7244,1423.8951" style="stroke:#000000;stroke-width:1.0;"/><text fill="#000000" font-family="sans-serif" font-size="13" lengthAdjust="spacing" textLength="21" x="2988" y="1430.8516">has</text><text fill="#000000" font-family="sans-serif" font-size="13" lengthAdjust="spacing" textLength="7" x="2900.4662" y="1496.7555">1</text><text fill="#000000" font-family="sans-serif" font-size="13" lengthAdjust="spacing" textLength="20" x="3038.9517" y="1440.3829">1..*</text><!--MD5=[b50e805441a2e23b26400b5687923e53]
link VaccineSchedule to Receptionist--><path codeLine="170" d="M2876.41,1149.6364 C2934.73,1003.9764 3092.25,610.5864 3135.11,503.5564 " fill="none" id="VaccineSchedule-Receptionist" style="stroke:#A80036;stroke-width:1.0;"/><polygon fill="#000000" points="2953.8586,739.8905,2947.768,747.195,2953.2247,749.3799,2953.8586,739.8905" style="stroke:#000000;stroke-width:1.0;"/><text fill="#000000" font-family="sans-serif" font-size="13" lengthAdjust="spacing" textLength="75" x="2961" y="749.8516">requested by</text><text fill="#000000" font-family="sans-serif" font-size="13" lengthAdjust="spacing" textLength="5" x="2874.025" y="1139.1066">*</text><text fill="#000000" font-family="sans-serif" font-size="13" lengthAdjust="spacing" textLength="7" x="3124.7434" y="524.808">1</text><!--MD5=[8e51fd2526d7ed1449c2aa4f1c32bf49]
link VaccineSchedule to SNSUser--><path codeLine="171" d="M2789.78,1216.3164 C2657.97,1240.3764 2342.27,1292.3564 2075,1292.3564 C845.5,1292.3564 845.5,1292.3564 845.5,1292.3564 C779.48,1292.3564 703.96,1277.9064 658.4,1267.5764 " fill="none" id="VaccineSchedule-SNSUser" style="stroke:#A80036;stroke-width:1.0;"/><polygon fill="#000000" points="1715.0014,1283.6524,1724.1146,1286.373,1723.9733,1280.4969,1715.0014,1283.6524" style="stroke:#000000;stroke-width:1.0;"/><text fill="#000000" font-family="sans-serif" font-size="13" lengthAdjust="spacing" textLength="75" x="1729" y="1288.8516">requested by</text><text fill="#000000" font-family="sans-serif" font-size="13" lengthAdjust="spacing" textLength="5" x="2777.1233" y="1232.1294">*</text><text fill="#000000" font-family="sans-serif" font-size="13" lengthAdjust="spacing" textLength="7" x="666.0022" y="1284.1591">1</text><!--MD5=[0627282f411ece888f894017ff17802b]
link VaccineSchedule to VaccineType--><path codeLine="172" d="M2917.28,1188.0864 C3014.44,1160.2764 3202.76,1095.5364 3325,984.3564 C3519.67,807.2964 3642.42,504.0164 3682.28,394.3964 " fill="none" id="VaccineSchedule-VaccineType" style="stroke:#A80036;stroke-width:1.0;"/><polygon fill="#000000" points="3265.4699,971.9322,3257.0768,976.4052,3261.3088,980.4842,3265.4699,971.9322" style="stroke:#000000;stroke-width:1.0;"/><text fill="#000000" font-family="sans-serif" font-size="13" lengthAdjust="spacing" textLength="53" x="3271" y="980.8516">for taking</text><text fill="#000000" font-family="sans-serif" font-size="13" lengthAdjust="spacing" textLength="5" x="2924.9436" y="1200.6353">*</text><text fill="#000000" font-family="sans-serif" font-size="13" lengthAdjust="spacing" textLength="7" x="3672.4135" y="415.4654">1</text><!--MD5=[f0553939d664499c8c3e148c02d4348e]
link VaccineType to Administrator--><path codeLine="174" d="M3660.07,312.2064 C3611.3,261.8964 3519.54,183.3564 3422,183.3564 C1759,183.3564 1759,183.3564 1759,183.3564 C1613.19,183.3564 1586.66,246.1264 1460,318.3564 C1402.91,350.9164 1396,370.6364 1339,403.3564 C1165.15,503.1664 1076.05,455.1164 929,591.3564 C889.83,627.6464 865.01,687.1764 854.05,718.1664 " fill="none" id="VaccineType-Administrator" style="stroke:#A80036;stroke-width:1.0;"/><polygon fill="#000000" points="2358.5515,175.2481,2367.9242,176.8617,2367.0826,171.0444,2358.5515,175.2481" style="stroke:#000000;stroke-width:1.0;"/><text fill="#000000" font-family="sans-serif" font-size="13" lengthAdjust="spacing" textLength="61" x="2372.5" y="179.8516">created by</text><text fill="#000000" font-family="sans-serif" font-size="13" lengthAdjust="spacing" textLength="5" x="3648.4566" y="301.631">*</text><text fill="#000000" font-family="sans-serif" font-size="13" lengthAdjust="spacing" textLength="7" x="848.2397" y="707.4324">1</text><!--MD5=[f558e7d7143b2496643cfca392b63012]
link VaccineType to Company--><path codeLine="175" d="M3683.98,312.3564 C3654.21,224.1564 3570.4,24.3564 3422,24.3564 C615,24.3564 615,24.3564 615,24.3564 C410.32,24.3564 361.99,366.7464 352.22,467.0564 " fill="none" id="VaccineType-Company" style="stroke:#A80036;stroke-width:1.0;"/><polygon fill="#000000" points="2006.9946,15.3003,1997.823,12.7841,1998.0956,18.6556,2006.9946,15.3003" style="stroke:#000000;stroke-width:1.0;"/><text fill="#000000" font-family="sans-serif" font-size="13" lengthAdjust="spacing" textLength="139" x="2011" y="20.8516">promotes administration</text><text fill="#000000" font-family="sans-serif" font-size="13" lengthAdjust="spacing" textLength="5" x="3676.2266" y="301.5022">*</text><text fill="#000000" font-family="sans-serif" font-size="13" lengthAdjust="spacing" textLength="7" x="345.1553" y="456.4481">1</text><!--MD5=[cb079fdcbc1526187bfe8d9c06fb315e]
link VaccineType to CommunityMassVaccinationCenter--><path codeLine="176" d="M3646.57,345.1864 C3591.67,336.9164 3500.8,325.3564 3422,325.3564 C2073,325.3564 2073,325.3564 2073,325.3564 C2071.28,325.3564 1782.84,390.4664 1715,437.3564 C1687.34,456.4764 1661.46,482.0964 1639.6,507.1764 " fill="none" id="VaccineType-CommunityMassVaccinationCenter" style="stroke:#A80036;stroke-width:1.0;"/><polygon fill="#000000" points="2669.9838,316.13,2660.7316,313.9283,2661.2045,319.7871,2669.9838,316.13" style="stroke:#000000;stroke-width:1.0;"/><text fill="#000000" font-family="sans-serif" font-size="13" lengthAdjust="spacing" textLength="85" x="2674" y="321.8516">can administer</text><text fill="#000000" font-family="sans-serif" font-size="13" lengthAdjust="spacing" textLength="7" x="3631.9158" y="358.717">1</text><text fill="#000000" font-family="sans-serif" font-size="13" lengthAdjust="spacing" textLength="5" x="1639.9497" y="496.6235">*</text><!--MD5=[ae208bc3f43d714587f2702524e6445f]
link VacineAdministration to SNSUser--><path codeLine="178" d="M2481.81,1432.6364 C2276.92,1451.9964 1680.19,1501.5064 1185,1474.3564 C1010.44,1464.7864 960.75,1483.8764 794,1431.3564 C742.78,1415.2264 726.88,1410.3964 688,1373.3564 C665.77,1352.1864 647.81,1322.6064 635.52,1298.6064 " fill="none" id="VacineAdministration-SNSUser" style="stroke:#A80036;stroke-width:1.0;"/><polygon fill="#000000" points="1519.0131,1470.1702,1527.8217,1473.7563,1528.2473,1467.8939,1519.0131,1470.1702" style="stroke:#000000;stroke-width:1.0;"/><text fill="#000000" font-family="sans-serif" font-size="13" lengthAdjust="spacing" textLength="92" x="1533" y="1475.8516">administered on</text><text fill="#000000" font-family="sans-serif" font-size="13" lengthAdjust="spacing" textLength="5" x="2468.9013" y="1447.7508">*</text><text fill="#000000" font-family="sans-serif" font-size="13" lengthAdjust="spacing" textLength="7" x="630.8729" y="1319.3971">1</text><!--MD5=[a90c832aa0c289fe3c72c619e9e8dc82]
link VacineAdministration to Vaccine--><path codeLine="179" d="M2630.04,1443.1564 C2688.33,1457.3564 2767.65,1476.6864 2814.14,1488.0064 " fill="none" id="VacineAdministration-Vaccine" style="stroke:#A80036;stroke-width:1.0;"/><polygon fill="#000000" points="2707.3579,1442.7157,2699.2655,1437.7194,2697.8742,1443.4302,2707.3579,1442.7157" style="stroke:#000000;stroke-width:1.0;"/><text fill="#000000" font-family="sans-serif" font-size="13" lengthAdjust="spacing" textLength="10" x="2711.5" y="1446.8516">of</text><text fill="#000000" font-family="sans-serif" font-size="13" lengthAdjust="spacing" textLength="5" x="2637.9332" y="1459.3557">*</text><text fill="#000000" font-family="sans-serif" font-size="13" lengthAdjust="spacing" textLength="7" x="2799.5056" y="1482.4716">1</text><!--MD5=[9c8f0ae773c6ea67c11ba8c650ca6d13]
link VacineAdministration to VaccineSchedule--><path codeLine="180" d="M2630.45,1421.7364 C2672.1,1416.3764 2723.1,1403.8864 2760,1375.3564 C2797.65,1346.2464 2821.89,1297.3264 2836.06,1259.2564 " fill="none" id="VacineAdministration-VaccineSchedule" style="stroke:#A80036;stroke-width:1.0;"/><polygon fill="#000000" points="2690.423,1363.4322,2681.5041,1366.7344,2685.1484,1371.3461,2690.423,1363.4322" style="stroke:#000000;stroke-width:1.0;"/><text fill="#000000" font-family="sans-serif" font-size="13" lengthAdjust="spacing" textLength="42" x="2695.5" y="1371.8516">fulfilling</text><text fill="#000000" font-family="sans-serif" font-size="13" lengthAdjust="spacing" textLength="22" x="2638.0604" y="1435.6592">0..1</text><text fill="#000000" font-family="sans-serif" font-size="13" lengthAdjust="spacing" textLength="22" x="2810.5939" y="1280.428">0..1</text><!--MD5=[23dc300f42fe8749883da26e3f5d7f2d]
@startuml

hide methods
left to right direction
skinparam classAttributeIconSize 0

class Company {
    -designation
}

class SNSUser {
    -name
    -birthDate
    -SNSNumber
}

class Vaccine {
    -name
    -vaccineType
}

class VaccineType {
    -code
    -diseaseName
    -whoId
}

class VacineAdministration {
    -vaccineType
    -vaccineName
    -lotNumber
}

class VaccineSchedule {
    -SNSUserNumber
    -vaccinationCenter
    -date
    -time
    -vaccineType
}

class HealthCareCenter {
    -name
    -address
    -phoneNumber
    -email
    -faxNumber
    -website
    -openingHours
    -closingHours
    -slotDuration
    -slotVaccineLimit
}

class CommunityMassVaccinationCenter {
    -name
    -address
    -phoneNumber
    -email
    -faxNumber
    -website
    -openingHours
    -closingHours
    -slotDuration
    -slotVaccineLimit
}

class Administrator {
}

class Nurse {
    -name
}

class Receptionist {
    -name
}

class CenterCoordinator {
    -name
}

class VaccinationCertificate {
}

class AdverseReactions {
    -SNSUser
    -reactions
}

class VaccinationProgram {
}

class Report {
}

class DailyPerformance {
}

class AdministrationProcess {
    -doseNumber
    -ageGroup
    -dosage
    -timeIntervalBetweenLastDose
}

class VaccinationQueue {
    -SNSUser
    -date
    -entryTime
    -exitTime
}

class Message {
    -information
    -type
}

Administrator "1" - - "*" CenterCoordinator : create >
Administrator "1" - - "*" CommunityMassVaccinationCenter : create >
Administrator "1" - - "*" Nurse : create >

CenterCoordinator "1" - - "0..*" DailyPerformance : evaluate >
CenterCoordinator "1" - - "0..*" Report : generate >
CenterCoordinator "1" - - "1" CommunityMassVaccinationCenter : manage >

CommunityMassVaccinationCenter "1" - - "0..*" DailyPerformance : has >
CommunityMassVaccinationCenter "1" - - "0..*" Report : has >
CommunityMassVaccinationCenter "1" - - "1" VaccinationQueue : has >

Company "1" - - "*" Administrator : knows >
Company "1" - - "*" CommunityMassVaccinationCenter : manage >
Company "1" - - "*" SNSUser : owns >
Company "1" - - "*" Vaccine : applies >

HealthCareCenter "*" - - "*" VaccineType : can administer >
HealthCareCenter "*" - - "1" Administrator : create <
HealthCareCenter "*" - - "1" Company : manage <
HealthCareCenter "*" - - "1" Nurse : work <

Message "0..1" - - "1" VaccineAdministration : is issued within a period of time after >
Message "0..1" - - "1" VaccineSchedule : emitted on >

Nurse "1" - - "*" VaccineSchedule : view >
Nurse "1"- - "*" AdverseReactions : register >
Nurse "1"- - "*" CommunityMassVaccinationCenter : work >
Nurse "1"- - "*" VacineAdministration : view and register >

Receptionist "*" - - "1" Administrator: created by >
Receptionist "1" - - "1" VaccinationQueue : manage >
Receptionist "1"- - "*" CommunityMassVaccinationCenter : work >
Receptionist "1"- - "*" HealthCareCenter : work >

SNSUser "*" - - "1" Administrator: created by >
SNSUser "1" - - "0..*" AdverseReactions : have >
SNSUser "1" - - "0..*" Message : receive >

VaccinationCertificate "*" - - "1" Nurse : requested by >
VaccinationCertificate "*" - - "1" SNSUser : requested by >

VaccinationProgram "0..*" - - "1" Company : contains <

VaccinationQueue "1" - - "0..*" SNSUser : have >
VaccinationQueue "1" - - "1..*" Nurse : seen by >
VaccinationQueue "1" - - "*" DailyPerformance : based on <

Vaccine "*" - - "1" Administrator: created by >
Vaccine "*" - - "1" VaccineType : is of >
Vaccine "1" - - "1..*" AdministrationProcess : has >

VaccineSchedule "*" - - "1" Receptionist : requested by >
VaccineSchedule "*" - - "1" SNSUser : requested by >
VaccineSchedule "*" - - "1" VaccineType : for taking >

VaccineType "*" - - "1" Administrator: created by >
VaccineType "*" - - "1" Company : promotes administration <
VaccineType "1" - - "*" CommunityMassVaccinationCenter : can administer <

VacineAdministration "*" - - "1" SNSUser : administered on >
VacineAdministration "*" - - "1" Vaccine : of >
VacineAdministration "0..1" - - "0..1" VaccineSchedule : fulfilling >

@enduml

PlantUML version 1.2022.1(Tue Feb 01 18:19:58 GMT 2022)
(GPL source distribution)
Java Runtime: OpenJDK Runtime Environment
JVM: OpenJDK 64-Bit Server VM
Default Encoding: Cp1252
Language: pt
Country: PT
--></g></svg>