<?xml version="1.0" encoding="UTF-8" standalone="no"?><svg xmlns="http://www.w3.org/2000/svg" xmlns:xlink="http://www.w3.org/1999/xlink" contentStyleType="text/css" height="381px" preserveAspectRatio="none" style="width:548px;height:381px;background:#FFFFFF;" version="1.1" viewBox="0 0 548 381" width="548px" zoomAndPan="magnify"><defs/><g><rect height="27.6094" style="stroke:#00000000;stroke-width:1.0;fill:none;" width="261" x="145.25" y="10"/><text fill="#000000" font-family="sans-serif" font-size="14" font-weight="bold" lengthAdjust="spacing" text-decoration="underline" textLength="251" x="150.25" y="29.5332">SD_Read_Legacy_System_Data_File</text><rect fill="#FFFFFF" height="183.2734" style="stroke:#181818;stroke-width:1.0;" width="10" x="162" y="126.1797"/><rect fill="#FFFFFF" height="30" style="stroke:#181818;stroke-width:1.0;" width="10" x="501.5" y="242.1016"/><rect height="78.7031" style="stroke:#000000;stroke-width:1.5;fill:none;" width="462" x="80.5" y="201.3984"/><line style="stroke:#181818;stroke-width:0.5;fill:none;stroke-dasharray:5.0,5.0;" x1="166.5" x2="166.5" y1="93.8281" y2="327.4531"/><line style="stroke:#181818;stroke-width:0.5;fill:none;stroke-dasharray:5.0,5.0;" x1="312.5" x2="312.5" y1="93.8281" y2="327.4531"/><line style="stroke:#181818;stroke-width:0.5;fill:none;stroke-dasharray:5.0,5.0;" x1="425.5" x2="425.5" y1="174.2891" y2="327.4531"/><line style="stroke:#181818;stroke-width:0.5;fill:none;stroke-dasharray:5.0,5.0;" x1="506.5" x2="506.5" y1="93.8281" y2="327.4531"/><rect fill="#E2E2F0" height="49.2188" rx="2.5" ry="2.5" style="stroke:#181818;stroke-width:0.5;" width="153" x="90.5" y="43.6094"/><text fill="#000000" font-family="sans-serif" font-size="14" lengthAdjust="spacing" textLength="4" x="165" y="65.1426">:</text><text fill="#000000" font-family="sans-serif" font-size="14" lengthAdjust="spacing" textLength="139" x="97.5" y="82.752">LegacySysFileReader</text><rect fill="#E2E2F0" height="49.2188" rx="2.5" ry="2.5" style="stroke:#181818;stroke-width:0.5;" width="153" x="90.5" y="326.4531"/><text fill="#000000" font-family="sans-serif" font-size="14" lengthAdjust="spacing" textLength="4" x="165" y="347.9863">:</text><text fill="#000000" font-family="sans-serif" font-size="14" lengthAdjust="spacing" textLength="139" x="97.5" y="365.5957">LegacySysFileReader</text><rect fill="#E2E2F0" height="49.2188" rx="2.5" ry="2.5" style="stroke:#181818;stroke-width:0.5;" width="118" x="253.5" y="43.6094"/><text fill="#000000" font-family="sans-serif" font-size="14" lengthAdjust="spacing" textLength="4" x="310.5" y="65.1426">:</text><text fill="#000000" font-family="sans-serif" font-size="14" lengthAdjust="spacing" textLength="104" x="260.5" y="82.752">SNSUserMapper</text><rect fill="#E2E2F0" height="49.2188" rx="2.5" ry="2.5" style="stroke:#181818;stroke-width:0.5;" width="118" x="253.5" y="326.4531"/><text fill="#000000" font-family="sans-serif" font-size="14" lengthAdjust="spacing" textLength="4" x="310.5" y="347.9863">:</text><text fill="#000000" font-family="sans-serif" font-size="14" lengthAdjust="spacing" textLength="104" x="260.5" y="365.5957">SNSUserMapper</text><rect fill="#E2E2F0" height="49.2188" rx="2.5" ry="2.5" style="stroke:#181818;stroke-width:0.5;" width="89" x="381.5" y="326.4531"/><text fill="#000000" font-family="sans-serif" font-size="14" lengthAdjust="spacing" textLength="52" x="400" y="347.9863">fileData:</text><text fill="#000000" font-family="sans-serif" font-size="14" lengthAdjust="spacing" textLength="75" x="388.5" y="365.5957">List&lt;String&gt;</text><rect fill="#E2E2F0" height="31.6094" rx="2.5" ry="2.5" style="stroke:#181818;stroke-width:0.5;" width="52" x="480.5" y="61.2188"/><text fill="#000000" font-family="sans-serif" font-size="14" lengthAdjust="spacing" textLength="38" x="487.5" y="82.752">sUList</text><rect fill="#E2E2F0" height="31.6094" rx="2.5" ry="2.5" style="stroke:#181818;stroke-width:0.5;" width="52" x="480.5" y="326.4531"/><text fill="#000000" font-family="sans-serif" font-size="14" lengthAdjust="spacing" textLength="38" x="487.5" y="347.9863">sUList</text><rect fill="#FFFFFF" height="183.2734" style="stroke:#181818;stroke-width:1.0;" width="10" x="162" y="126.1797"/><rect fill="#FFFFFF" height="30" style="stroke:#181818;stroke-width:1.0;" width="10" x="501.5" y="242.1016"/><ellipse cx="7.5" cy="125.4297" fill="none" rx="4" ry="4" style="stroke:#181818;stroke-width:1.5;"/><polygon fill="#181818" points="150,122.1797,160,126.1797,150,130.1797,154,126.1797" style="stroke:#181818;stroke-width:1.0;"/><line style="stroke:#181818;stroke-width:1.0;" x1="12" x2="156" y1="126.1797" y2="126.1797"/><text fill="#000000" font-family="sans-serif" font-size="13" font-weight="bold" lengthAdjust="spacing" textLength="7" x="15" y="121.3232">1</text><text fill="#000000" font-family="sans-serif" font-size="13" lengthAdjust="spacing" textLength="124" x="26" y="121.3232">readFileData(filePath)</text><polygon fill="#181818" points="369.5,152.5313,379.5,156.5313,369.5,160.5313,373.5,156.5313" style="stroke:#181818;stroke-width:1.0;"/><line style="stroke:#181818;stroke-width:1.0;stroke-dasharray:2.0,2.0;" x1="172" x2="375.5" y1="156.5313" y2="156.5313"/><text fill="#000000" font-family="sans-serif" font-size="13" font-weight="bold" lengthAdjust="spacing" textLength="7" x="179" y="151.6748">2</text><text fill="#000000" font-family="sans-serif" font-size="13" lengthAdjust="spacing" textLength="44" x="190" y="151.6748">create()</text><rect fill="#E2E2F0" height="49.2188" rx="2.5" ry="2.5" style="stroke:#181818;stroke-width:0.5;" width="89" x="381.5" y="134.1797"/><text fill="#000000" font-family="sans-serif" font-size="14" lengthAdjust="spacing" textLength="52" x="400" y="155.7129">fileData:</text><text fill="#000000" font-family="sans-serif" font-size="14" lengthAdjust="spacing" textLength="75" x="388.5" y="173.3223">List&lt;String&gt;</text><path d="M80.5,201.3984 L153.5,201.3984 L153.5,209.75 L143.5,219.75 L80.5,219.75 L80.5,201.3984 " fill="#EEEEEE" style="stroke:#000000;stroke-width:1.5;"/><rect fill="none" height="78.7031" style="stroke:#000000;stroke-width:1.5;" width="462" x="80.5" y="201.3984"/><text fill="#000000" font-family="sans-serif" font-size="13" font-weight="bold" lengthAdjust="spacing" textLength="28" x="95.5" y="215.8936">loop</text><text fill="#000000" font-family="sans-serif" font-size="11" font-weight="bold" lengthAdjust="spacing" textLength="127" x="168.5" y="214.8174">[foreach line in the file]</text><polygon fill="#181818" points="489.5,238.1016,499.5,242.1016,489.5,246.1016,493.5,242.1016" style="stroke:#181818;stroke-width:1.0;"/><line style="stroke:#181818;stroke-width:1.0;" x1="172" x2="495.5" y1="242.1016" y2="242.1016"/><text fill="#000000" font-family="sans-serif" font-size="13" font-weight="bold" lengthAdjust="spacing" textLength="7" x="179" y="237.2451">3</text><text fill="#000000" font-family="sans-serif" font-size="13" lengthAdjust="spacing" textLength="61" x="190" y="237.2451">sU = get(i)</text><polygon fill="#181818" points="11,305.4531,1,309.4531,11,313.4531,7,309.4531" style="stroke:#181818;stroke-width:1.0;"/><line style="stroke:#181818;stroke-width:1.0;stroke-dasharray:2.0,2.0;" x1="5" x2="166" y1="309.4531" y2="309.4531"/><text fill="#000000" font-family="sans-serif" font-size="13" font-weight="bold" lengthAdjust="spacing" textLength="7" x="17" y="304.5967">4</text><text fill="#000000" font-family="sans-serif" font-size="13" lengthAdjust="spacing" textLength="43" x="28" y="304.5967">fileData</text><!--MD5=[f65a1cde59d96372053c39e653cc49b3]
@startuml
autonumber

title
<u>SD_Read_Legacy_System_Data_File</u>
end title

participant ":\nLegacySysFileReader" as lSFReader
participant ":\nSNSUserMapper" as sUMapper
participant "fileData:\nList<String>" as fileData

[o-> lSFReader : readFileData(filePath)
activate lSFReader
    lSFReader - -> fileData** : create()

    loop foreach line in the file

        lSFReader -> sUList : sU = get(i)
        activate sUList
        deactivate sUList

    end loop

    <- - lSFReader : fileData
deactivate lSFReader
@enduml

PlantUML version 1.2022.5(Sat Apr 30 11:55:52 BST 2022)
(GPL source distribution)
Java Runtime: OpenJDK Runtime Environment
JVM: OpenJDK 64-Bit Server VM
Default Encoding: Cp1252
Language: pt
Country: PT
--></g></svg>