<?xml version="1.0" encoding="UTF-8" standalone="no"?><svg xmlns="http://www.w3.org/2000/svg" xmlns:xlink="http://www.w3.org/1999/xlink" contentStyleType="text/css" height="545px" preserveAspectRatio="none" style="width:702px;height:545px;background:#FFFFFF;" version="1.1" viewBox="0 0 702 545" width="702px" zoomAndPan="magnify"><defs/><g><rect height="27.6094" style="stroke:#00000000;stroke-width:1.0;fill:none;" width="236" x="234.5" y="10"/><text fill="#000000" font-family="sans-serif" font-size="14" font-weight="bold" lengthAdjust="spacing" text-decoration="underline" textLength="226" x="239.5" y="29.5332">SD_SNSUser_Mapper_toListDTO</text><rect fill="#FFFFFF" height="347.1953" style="stroke:#181818;stroke-width:1.0;" width="10" x="141" y="126.1797"/><rect fill="#FFFFFF" height="35.3516" style="stroke:#181818;stroke-width:1.0;" width="10" x="146" y="310.4531"/><rect fill="#FFFFFF" height="30" style="stroke:#181818;stroke-width:1.0;" width="10" x="289" y="242.1016"/><rect fill="#FFFFFF" height="30" style="stroke:#181818;stroke-width:1.0;" width="10" x="422" y="406.0234"/><rect height="242.625" style="stroke:#000000;stroke-width:1.5;fill:none;" width="619" x="77" y="201.3984"/><line style="stroke:#181818;stroke-width:0.5;fill:none;stroke-dasharray:5.0,5.0;" x1="146" x2="146" y1="93.8281" y2="491.375"/><line style="stroke:#181818;stroke-width:0.5;fill:none;stroke-dasharray:5.0,5.0;" x1="294" x2="294" y1="93.8281" y2="491.375"/><line style="stroke:#181818;stroke-width:0.5;fill:none;stroke-dasharray:5.0,5.0;" x1="427" x2="427" y1="174.2891" y2="491.375"/><line style="stroke:#181818;stroke-width:0.5;fill:none;stroke-dasharray:5.0,5.0;" x1="541" x2="541" y1="93.8281" y2="491.375"/><line style="stroke:#181818;stroke-width:0.5;fill:none;stroke-dasharray:5.0,5.0;" x1="636" x2="636" y1="363.5625" y2="491.375"/><rect fill="#E2E2F0" height="49.2188" rx="2.5" ry="2.5" style="stroke:#181818;stroke-width:0.5;" width="118" x="87" y="43.6094"/><text fill="#000000" font-family="sans-serif" font-size="14" lengthAdjust="spacing" textLength="4" x="144" y="65.1426">:</text><text fill="#000000" font-family="sans-serif" font-size="14" lengthAdjust="spacing" textLength="104" x="94" y="82.752">SNSUserMapper</text><rect fill="#E2E2F0" height="49.2188" rx="2.5" ry="2.5" style="stroke:#181818;stroke-width:0.5;" width="118" x="87" y="490.375"/><text fill="#000000" font-family="sans-serif" font-size="14" lengthAdjust="spacing" textLength="4" x="144" y="511.9082">:</text><text fill="#000000" font-family="sans-serif" font-size="14" lengthAdjust="spacing" textLength="104" x="94" y="529.5176">SNSUserMapper</text><rect fill="#E2E2F0" height="49.2188" rx="2.5" ry="2.5" style="stroke:#181818;stroke-width:0.5;" width="108" x="240" y="43.6094"/><text fill="#000000" font-family="sans-serif" font-size="14" lengthAdjust="spacing" textLength="42" x="273" y="65.1426">sUList:</text><text fill="#000000" font-family="sans-serif" font-size="14" lengthAdjust="spacing" textLength="94" x="247" y="82.752">List&lt;SNSUser&gt;</text><rect fill="#E2E2F0" height="49.2188" rx="2.5" ry="2.5" style="stroke:#181818;stroke-width:0.5;" width="108" x="240" y="490.375"/><text fill="#000000" font-family="sans-serif" font-size="14" lengthAdjust="spacing" textLength="42" x="273" y="511.9082">sUList:</text><text fill="#000000" font-family="sans-serif" font-size="14" lengthAdjust="spacing" textLength="94" x="247" y="529.5176">List&lt;SNSUser&gt;</text><rect fill="#E2E2F0" height="49.2188" rx="2.5" ry="2.5" style="stroke:#181818;stroke-width:0.5;" width="138" x="358" y="490.375"/><text fill="#000000" font-family="sans-serif" font-size="14" lengthAdjust="spacing" textLength="64" x="395" y="511.9082">sUListDto:</text><text fill="#000000" font-family="sans-serif" font-size="14" lengthAdjust="spacing" textLength="124" x="365" y="529.5176">List&lt;SNSUserDTO&gt;</text><rect fill="#E2E2F0" height="49.2188" rx="2.5" ry="2.5" style="stroke:#181818;stroke-width:0.5;" width="70" x="506" y="43.6094"/><text fill="#000000" font-family="sans-serif" font-size="14" lengthAdjust="spacing" textLength="20" x="531" y="65.1426">sU:</text><text fill="#000000" font-family="sans-serif" font-size="14" lengthAdjust="spacing" textLength="56" x="513" y="82.752">SNSUser</text><rect fill="#E2E2F0" height="49.2188" rx="2.5" ry="2.5" style="stroke:#181818;stroke-width:0.5;" width="70" x="506" y="490.375"/><text fill="#000000" font-family="sans-serif" font-size="14" lengthAdjust="spacing" textLength="20" x="531" y="511.9082">sU:</text><text fill="#000000" font-family="sans-serif" font-size="14" lengthAdjust="spacing" textLength="56" x="513" y="529.5176">SNSUser</text><rect fill="#E2E2F0" height="49.2188" rx="2.5" ry="2.5" style="stroke:#181818;stroke-width:0.5;" width="100" x="586" y="490.375"/><text fill="#000000" font-family="sans-serif" font-size="14" lengthAdjust="spacing" textLength="42" x="615" y="511.9082">sUDto:</text><text fill="#000000" font-family="sans-serif" font-size="14" lengthAdjust="spacing" textLength="86" x="593" y="529.5176">SNSUserDTO</text><rect fill="#FFFFFF" height="347.1953" style="stroke:#181818;stroke-width:1.0;" width="10" x="141" y="126.1797"/><rect fill="#FFFFFF" height="35.3516" style="stroke:#181818;stroke-width:1.0;" width="10" x="146" y="310.4531"/><rect fill="#FFFFFF" height="30" style="stroke:#181818;stroke-width:1.0;" width="10" x="289" y="242.1016"/><rect fill="#FFFFFF" height="30" style="stroke:#181818;stroke-width:1.0;" width="10" x="422" y="406.0234"/><ellipse cx="7.5" cy="125.4297" fill="none" rx="4" ry="4" style="stroke:#181818;stroke-width:1.5;"/><polygon fill="#181818" points="129,122.1797,139,126.1797,129,130.1797,133,126.1797" style="stroke:#181818;stroke-width:1.0;"/><line style="stroke:#181818;stroke-width:1.0;" x1="12" x2="135" y1="126.1797" y2="126.1797"/><text fill="#000000" font-family="sans-serif" font-size="13" font-weight="bold" lengthAdjust="spacing" textLength="7" x="15" y="121.3232">1</text><text fill="#000000" font-family="sans-serif" font-size="13" lengthAdjust="spacing" textLength="103" x="26" y="121.3232">toListDTO(sUList)</text><polygon fill="#181818" points="346,152.5313,356,156.5313,346,160.5313,350,156.5313" style="stroke:#181818;stroke-width:1.0;"/><line style="stroke:#181818;stroke-width:1.0;stroke-dasharray:2.0,2.0;" x1="151" x2="352" y1="156.5313" y2="156.5313"/><text fill="#000000" font-family="sans-serif" font-size="13" font-weight="bold" lengthAdjust="spacing" textLength="7" x="158" y="151.6748">2</text><text fill="#000000" font-family="sans-serif" font-size="13" lengthAdjust="spacing" textLength="44" x="169" y="151.6748">create()</text><rect fill="#E2E2F0" height="49.2188" rx="2.5" ry="2.5" style="stroke:#181818;stroke-width:0.5;" width="138" x="358" y="134.1797"/><text fill="#000000" font-family="sans-serif" font-size="14" lengthAdjust="spacing" textLength="64" x="395" y="155.7129">sUListDto:</text><text fill="#000000" font-family="sans-serif" font-size="14" lengthAdjust="spacing" textLength="124" x="365" y="173.3223">List&lt;SNSUserDTO&gt;</text><path d="M77,201.3984 L150,201.3984 L150,209.75 L140,219.75 L77,219.75 L77,201.3984 " fill="#EEEEEE" style="stroke:#000000;stroke-width:1.5;"/><rect fill="none" height="242.625" style="stroke:#000000;stroke-width:1.5;" width="619" x="77" y="201.3984"/><text fill="#000000" font-family="sans-serif" font-size="13" font-weight="bold" lengthAdjust="spacing" textLength="28" x="92" y="215.8936">loop</text><text fill="#000000" font-family="sans-serif" font-size="11" font-weight="bold" lengthAdjust="spacing" textLength="138" x="165" y="214.8174">[foreach object in sUList]</text><polygon fill="#181818" points="277,238.1016,287,242.1016,277,246.1016,281,242.1016" style="stroke:#181818;stroke-width:1.0;"/><line style="stroke:#181818;stroke-width:1.0;" x1="151" x2="283" y1="242.1016" y2="242.1016"/><text fill="#000000" font-family="sans-serif" font-size="13" font-weight="bold" lengthAdjust="spacing" textLength="7" x="158" y="237.2451">3</text><text fill="#000000" font-family="sans-serif" font-size="13" lengthAdjust="spacing" textLength="61" x="169" y="237.2451">sU = get(i)</text><line style="stroke:#181818;stroke-width:1.0;" x1="151" x2="198" y1="297.4531" y2="297.4531"/><line style="stroke:#181818;stroke-width:1.0;" x1="198" x2="198" y1="297.4531" y2="310.4531"/><line style="stroke:#181818;stroke-width:1.0;" x1="157" x2="198" y1="310.4531" y2="310.4531"/><polygon fill="#181818" points="167,306.4531,157,310.4531,167,314.4531,163,310.4531" style="stroke:#181818;stroke-width:1.0;"/><text fill="#000000" font-family="sans-serif" font-size="13" font-weight="bold" lengthAdjust="spacing" textLength="7" x="163" y="292.5967">4</text><text fill="#000000" font-family="sans-serif" font-size="13" lengthAdjust="spacing" textLength="113" x="174" y="292.5967">sUDto = toDTO(sU)</text><polygon fill="#181818" points="574,341.8047,584,345.8047,574,349.8047,578,345.8047" style="stroke:#181818;stroke-width:1.0;"/><line style="stroke:#181818;stroke-width:1.0;stroke-dasharray:2.0,2.0;" x1="151" x2="580" y1="345.8047" y2="345.8047"/><text fill="#000000" font-family="sans-serif" font-size="13" font-weight="bold" lengthAdjust="spacing" textLength="7" x="158" y="340.9482">5</text><text fill="#000000" font-family="sans-serif" font-size="13" lengthAdjust="spacing" textLength="44" x="169" y="340.9482">create()</text><rect fill="#E2E2F0" height="49.2188" rx="2.5" ry="2.5" style="stroke:#181818;stroke-width:0.5;" width="100" x="586" y="323.4531"/><text fill="#000000" font-family="sans-serif" font-size="14" lengthAdjust="spacing" textLength="42" x="615" y="344.9863">sUDto:</text><text fill="#000000" font-family="sans-serif" font-size="14" lengthAdjust="spacing" textLength="86" x="593" y="362.5957">SNSUserDTO</text><polygon fill="#181818" points="410,402.0234,420,406.0234,410,410.0234,414,406.0234" style="stroke:#181818;stroke-width:1.0;"/><line style="stroke:#181818;stroke-width:1.0;" x1="151" x2="416" y1="406.0234" y2="406.0234"/><text fill="#000000" font-family="sans-serif" font-size="13" font-weight="bold" lengthAdjust="spacing" textLength="7" x="158" y="401.167">6</text><text fill="#000000" font-family="sans-serif" font-size="13" lengthAdjust="spacing" textLength="65" x="169" y="401.167">add(sUDto)</text><polygon fill="#181818" points="11,469.375,1,473.375,11,477.375,7,473.375" style="stroke:#181818;stroke-width:1.0;"/><line style="stroke:#181818;stroke-width:1.0;stroke-dasharray:2.0,2.0;" x1="5" x2="145" y1="473.375" y2="473.375"/><text fill="#000000" font-family="sans-serif" font-size="13" font-weight="bold" lengthAdjust="spacing" textLength="7" x="17" y="468.5186">7</text><text fill="#000000" font-family="sans-serif" font-size="13" lengthAdjust="spacing" textLength="57" x="28" y="468.5186">sUListDto</text><!--MD5=[cc7118302188673661f7c46e5dad3be1]
@startuml
autonumber

title
<u>SD_SNSUser_Mapper_toListDTO</u>
end title

participant ":\nSNSUserMapper" as sUMapper
participant "sUList:\nList<SNSUser>" as sUList
participant "sUListDto:\nList<SNSUserDTO>" as sUListDto
participant "sU:\nSNSUser" as sU
participant "sUDto:\nSNSUserDTO" as sUDto

[o-> sUMapper : toListDTO(sUList)
activate sUMapper
    sUMapper - -> sUListDto** : create()

    loop foreach object in sUList

        sUMapper -> sUList : sU = get(i)
        activate sUList
        deactivate sUList

        sUMapper -> sUMapper : sUDto = toDTO(sU)
        activate sUMapper
            sUMapper - -> sUDto** : create()
        deactivate sUMapper

        sUMapper -> sUListDto : add(sUDto)
        activate sUListDto
        deactivate sUListDto

    end loop

    <- - sUMapper : sUListDto
deactivate sUMapper
@enduml

PlantUML version 1.2022.5(Sat Apr 30 11:55:52 BST 2022)
(GPL source distribution)
Java Runtime: OpenJDK Runtime Environment
JVM: OpenJDK 64-Bit Server VM
Default Encoding: Cp1252
Language: pt
Country: PT
--></g></svg>