<?xml version="1.0" encoding="UTF-8" standalone="no"?><svg xmlns="http://www.w3.org/2000/svg" xmlns:xlink="http://www.w3.org/1999/xlink" contentStyleType="text/css" height="846px" preserveAspectRatio="none" style="width:3386px;height:846px;background:#FFFFFF;" version="1.1" viewBox="0 0 3386 846" width="3386px" zoomAndPan="magnify"><defs/><g><!--MD5=[02e4b9b7573f1156f41e60aa5b4e25a4]
class Company--><g id="elem_Company"><rect codeLine="5" fill="#F1F1F1" height="57.6094" id="Company" rx="2.5" ry="2.5" style="stroke:#181818;stroke-width:0.5;" width="92" x="493.5" y="244.3564"/><ellipse cx="508.5" cy="260.3564" fill="#ADD1B2" rx="11" ry="11" style="stroke:#181818;stroke-width:1.0;"/><path d="M510.5,256.8564 Q510.7031,256.3564 510.9375,256.1064 Q511.1719,255.8564 511.4375,255.8564 Q511.9063,255.8564 512.2031,256.1377 Q512.5,256.4189 512.5,257.0752 L512.5,258.6377 Q512.5,259.2939 512.2188,259.5752 Q511.9375,259.8564 511.5,259.8564 Q511.1094,259.8564 510.8594,259.6846 Q510.6094,259.5127 510.5,259.0596 Q510.4531,258.7471 510.2813,258.5752 Q509.9688,258.2471 509.4063,258.0596 Q508.8438,257.8564 508.2813,257.8564 Q507.5781,257.8564 506.9844,258.1377 Q506.4063,258.4189 505.9531,259.0439 Q505.5,259.6689 505.5,260.5283 L505.5,261.4502 Q505.5,262.4814 506.3438,263.1689 Q507.1875,263.8564 508.6875,263.8564 Q509.5781,263.8564 510.2031,263.6533 Q510.5625,263.5439 510.9688,263.1846 Q511.2344,262.9814 511.375,262.9189 Q511.5156,262.8564 511.6875,262.8564 Q512.0156,262.8564 512.25,263.1221 Q512.5,263.3721 512.5,263.7314 Q512.5,264.0752 512.1563,264.4814 Q511.6563,265.0752 510.8594,265.4033 Q509.8125,265.8564 508.5313,265.8564 Q507.0313,265.8564 505.8281,265.2627 Q504.8594,264.7939 504.1719,263.7783 Q503.5,262.7627 503.5,261.5596 L503.5,260.4658 Q503.5,259.2158 504.0938,258.1221 Q504.7031,257.0283 505.75,256.4502 Q506.8125,255.8564 508,255.8564 Q508.7188,255.8564 509.3438,256.1064 Q509.9688,256.3564 510.5,256.8564 Z " fill="#000000"/><text fill="#000000" font-family="sans-serif" font-size="14" lengthAdjust="spacing" textLength="60" x="522.5" y="266.085">Company</text><line style="stroke:#181818;stroke-width:0.5;" x1="494.5" x2="584.5" y1="276.3564" y2="276.3564"/><text fill="#000000" font-family="sans-serif" font-size="14" lengthAdjust="spacing" textLength="78" x="499.5" y="294.8896">-designation</text></g><!--MD5=[2d935fd2dd068a13da1ae531f9857c4f]
class CenterCoordinator--><g id="elem_CenterCoordinator"><rect codeLine="9" fill="#F1F1F1" height="40" id="CenterCoordinator" rx="2.5" ry="2.5" style="stroke:#181818;stroke-width:0.5;" width="150" x="7" y="647.3564"/><ellipse cx="22" cy="663.3564" fill="#ADD1B2" rx="11" ry="11" style="stroke:#181818;stroke-width:1.0;"/><path d="M24,659.8564 Q24.2031,659.3564 24.4375,659.1064 Q24.6719,658.8564 24.9375,658.8564 Q25.4063,658.8564 25.7031,659.1377 Q26,659.4189 26,660.0752 L26,661.6377 Q26,662.2939 25.7188,662.5752 Q25.4375,662.8564 25,662.8564 Q24.6094,662.8564 24.3594,662.6846 Q24.1094,662.5127 24,662.0596 Q23.9531,661.7471 23.7813,661.5752 Q23.4688,661.2471 22.9063,661.0596 Q22.3438,660.8564 21.7813,660.8564 Q21.0781,660.8564 20.4844,661.1377 Q19.9063,661.4189 19.4531,662.0439 Q19,662.6689 19,663.5283 L19,664.4502 Q19,665.4814 19.8438,666.1689 Q20.6875,666.8564 22.1875,666.8564 Q23.0781,666.8564 23.7031,666.6533 Q24.0625,666.5439 24.4688,666.1846 Q24.7344,665.9814 24.875,665.9189 Q25.0156,665.8564 25.1875,665.8564 Q25.5156,665.8564 25.75,666.1221 Q26,666.3721 26,666.7314 Q26,667.0752 25.6563,667.4814 Q25.1563,668.0752 24.3594,668.4033 Q23.3125,668.8564 22.0313,668.8564 Q20.5313,668.8564 19.3281,668.2627 Q18.3594,667.7939 17.6719,666.7783 Q17,665.7627 17,664.5596 L17,663.4658 Q17,662.2158 17.5938,661.1221 Q18.2031,660.0283 19.25,659.4502 Q20.3125,658.8564 21.5,658.8564 Q22.2188,658.8564 22.8438,659.1064 Q23.4688,659.3564 24,659.8564 Z " fill="#000000"/><text fill="#000000" font-family="sans-serif" font-size="14" lengthAdjust="spacing" textLength="118" x="36" y="669.085">CenterCoordinator</text><line style="stroke:#181818;stroke-width:0.5;" x1="8" x2="156" y1="679.3564" y2="679.3564"/></g><!--MD5=[7421f545a0d8420c5bec41e74b387d9c]
class Employee--><g id="elem_Employee"><rect codeLine="12" fill="#F1F1F1" height="145.6563" id="Employee" rx="2.5" ry="2.5" style="stroke:#181818;stroke-width:0.5;" width="136" x="218" y="367.3564"/><ellipse cx="251.9" cy="383.3564" fill="#ADD1B2" rx="11" ry="11" style="stroke:#181818;stroke-width:1.0;"/><path d="M253.9,379.8564 Q254.1031,379.3564 254.3375,379.1064 Q254.5719,378.8564 254.8375,378.8564 Q255.3063,378.8564 255.6031,379.1377 Q255.9,379.4189 255.9,380.0752 L255.9,381.6377 Q255.9,382.2939 255.6188,382.5752 Q255.3375,382.8564 254.9,382.8564 Q254.5094,382.8564 254.2594,382.6846 Q254.0094,382.5127 253.9,382.0596 Q253.8531,381.7471 253.6813,381.5752 Q253.3688,381.2471 252.8063,381.0596 Q252.2438,380.8564 251.6813,380.8564 Q250.9781,380.8564 250.3844,381.1377 Q249.8063,381.4189 249.3531,382.0439 Q248.9,382.6689 248.9,383.5283 L248.9,384.4502 Q248.9,385.4814 249.7438,386.1689 Q250.5875,386.8564 252.0875,386.8564 Q252.9781,386.8564 253.6031,386.6533 Q253.9625,386.5439 254.3688,386.1846 Q254.6344,385.9814 254.775,385.9189 Q254.9156,385.8564 255.0875,385.8564 Q255.4156,385.8564 255.65,386.1221 Q255.9,386.3721 255.9,386.7314 Q255.9,387.0752 255.5563,387.4814 Q255.0563,388.0752 254.2594,388.4033 Q253.2125,388.8564 251.9313,388.8564 Q250.4313,388.8564 249.2281,388.2627 Q248.2594,387.7939 247.5719,386.7783 Q246.9,385.7627 246.9,384.5596 L246.9,383.4658 Q246.9,382.2158 247.4938,381.1221 Q248.1031,380.0283 249.15,379.4502 Q250.2125,378.8564 251.4,378.8564 Q252.1188,378.8564 252.7438,379.1064 Q253.3688,379.3564 253.9,379.8564 Z " fill="#000000"/><text fill="#000000" font-family="sans-serif" font-size="14" lengthAdjust="spacing" textLength="62" x="270.1" y="389.085">Employee</text><line style="stroke:#181818;stroke-width:0.5;" x1="219" x2="353" y1="399.3564" y2="399.3564"/><text fill="#000000" font-family="sans-serif" font-size="14" lengthAdjust="spacing" textLength="16" x="224" y="417.8896">-id</text><text fill="#000000" font-family="sans-serif" font-size="14" lengthAdjust="spacing" textLength="40" x="224" y="435.499">-name</text><text fill="#000000" font-family="sans-serif" font-size="14" lengthAdjust="spacing" textLength="56" x="224" y="453.1084">-address</text><text fill="#000000" font-family="sans-serif" font-size="14" lengthAdjust="spacing" textLength="94" x="224" y="470.7178">-phoneNumber</text><text fill="#000000" font-family="sans-serif" font-size="14" lengthAdjust="spacing" textLength="124" x="224" y="488.3271">-citizenCardNumber</text><text fill="#000000" font-family="sans-serif" font-size="14" lengthAdjust="spacing" textLength="29" x="224" y="505.9365">-role</text></g><!--MD5=[b5be973b5d3f2d8f249510587bb68e72]
class EmployeeRole--><g id="elem_EmployeeRole"><rect codeLine="21" fill="#F1F1F1" height="75.2188" id="EmployeeRole" rx="2.5" ry="2.5" style="stroke:#181818;stroke-width:0.5;" width="123" x="478" y="402.8564"/><ellipse cx="493" cy="418.8564" fill="#ADD1B2" rx="11" ry="11" style="stroke:#181818;stroke-width:1.0;"/><path d="M495,415.3564 Q495.2031,414.8564 495.4375,414.6064 Q495.6719,414.3564 495.9375,414.3564 Q496.4063,414.3564 496.7031,414.6377 Q497,414.9189 497,415.5752 L497,417.1377 Q497,417.7939 496.7188,418.0752 Q496.4375,418.3564 496,418.3564 Q495.6094,418.3564 495.3594,418.1846 Q495.1094,418.0127 495,417.5596 Q494.9531,417.2471 494.7813,417.0752 Q494.4688,416.7471 493.9063,416.5596 Q493.3438,416.3564 492.7813,416.3564 Q492.0781,416.3564 491.4844,416.6377 Q490.9063,416.9189 490.4531,417.5439 Q490,418.1689 490,419.0283 L490,419.9502 Q490,420.9814 490.8438,421.6689 Q491.6875,422.3564 493.1875,422.3564 Q494.0781,422.3564 494.7031,422.1533 Q495.0625,422.0439 495.4688,421.6846 Q495.7344,421.4814 495.875,421.4189 Q496.0156,421.3564 496.1875,421.3564 Q496.5156,421.3564 496.75,421.6221 Q497,421.8721 497,422.2314 Q497,422.5752 496.6563,422.9814 Q496.1563,423.5752 495.3594,423.9033 Q494.3125,424.3564 493.0313,424.3564 Q491.5313,424.3564 490.3281,423.7627 Q489.3594,423.2939 488.6719,422.2783 Q488,421.2627 488,420.0596 L488,418.9658 Q488,417.7158 488.5938,416.6221 Q489.2031,415.5283 490.25,414.9502 Q491.3125,414.3564 492.5,414.3564 Q493.2188,414.3564 493.8438,414.6064 Q494.4688,414.8564 495,415.3564 Z " fill="#000000"/><text fill="#000000" font-family="sans-serif" font-size="14" lengthAdjust="spacing" textLength="91" x="507" y="424.585">EmployeeRole</text><line style="stroke:#181818;stroke-width:0.5;" x1="479" x2="600" y1="434.8564" y2="434.8564"/><text fill="#000000" font-family="sans-serif" font-size="14" lengthAdjust="spacing" textLength="16" x="484" y="453.3896">-id</text><text fill="#000000" font-family="sans-serif" font-size="14" lengthAdjust="spacing" textLength="78" x="484" y="470.999">-designation</text></g><!--MD5=[72be06cc7ae02ccc98efe28a50e62246]
class SNSUser--><g id="elem_SNSUser"><rect codeLine="26" fill="#F1F1F1" height="180.875" id="SNSUser" rx="2.5" ry="2.5" style="stroke:#181818;stroke-width:0.5;" width="136" x="3243" y="105.8564"/><ellipse cx="3279.6" cy="121.8564" fill="#ADD1B2" rx="11" ry="11" style="stroke:#181818;stroke-width:1.0;"/><path d="M3281.6,118.3564 Q3281.8031,117.8564 3282.0375,117.6064 Q3282.2719,117.3564 3282.5375,117.3564 Q3283.0063,117.3564 3283.3031,117.6377 Q3283.6,117.9189 3283.6,118.5752 L3283.6,120.1377 Q3283.6,120.7939 3283.3188,121.0752 Q3283.0375,121.3564 3282.6,121.3564 Q3282.2094,121.3564 3281.9594,121.1846 Q3281.7094,121.0127 3281.6,120.5596 Q3281.5531,120.2471 3281.3813,120.0752 Q3281.0688,119.7471 3280.5063,119.5596 Q3279.9438,119.3564 3279.3813,119.3564 Q3278.6781,119.3564 3278.0844,119.6377 Q3277.5063,119.9189 3277.0531,120.5439 Q3276.6,121.1689 3276.6,122.0283 L3276.6,122.9502 Q3276.6,123.9814 3277.4438,124.6689 Q3278.2875,125.3564 3279.7875,125.3564 Q3280.6781,125.3564 3281.3031,125.1533 Q3281.6625,125.0439 3282.0688,124.6846 Q3282.3344,124.4814 3282.475,124.4189 Q3282.6156,124.3564 3282.7875,124.3564 Q3283.1156,124.3564 3283.35,124.6221 Q3283.6,124.8721 3283.6,125.2314 Q3283.6,125.5752 3283.2563,125.9814 Q3282.7563,126.5752 3281.9594,126.9033 Q3280.9125,127.3564 3279.6313,127.3564 Q3278.1313,127.3564 3276.9281,126.7627 Q3275.9594,126.2939 3275.2719,125.2783 Q3274.6,124.2627 3274.6,123.0596 L3274.6,121.9658 Q3274.6,120.7158 3275.1938,119.6221 Q3275.8031,118.5283 3276.85,117.9502 Q3277.9125,117.3564 3279.1,117.3564 Q3279.8188,117.3564 3280.4438,117.6064 Q3281.0688,117.8564 3281.6,118.3564 Z " fill="#000000"/><text fill="#000000" font-family="sans-serif" font-size="14" lengthAdjust="spacing" textLength="56" x="3298.4" y="127.585">SNSUser</text><line style="stroke:#181818;stroke-width:0.5;" x1="3244" x2="3378" y1="137.8564" y2="137.8564"/><text fill="#000000" font-family="sans-serif" font-size="14" lengthAdjust="spacing" textLength="40" x="3249" y="156.3896">-name</text><text fill="#000000" font-family="sans-serif" font-size="14" lengthAdjust="spacing" textLength="26" x="3249" y="173.999">-sex</text><text fill="#000000" font-family="sans-serif" font-size="14" lengthAdjust="spacing" textLength="94" x="3249" y="191.6084">-phoneNumber</text><text fill="#000000" font-family="sans-serif" font-size="14" lengthAdjust="spacing" textLength="38" x="3249" y="209.2178">-email</text><text fill="#000000" font-family="sans-serif" font-size="14" lengthAdjust="spacing" textLength="56" x="3249" y="226.8271">-address</text><text fill="#000000" font-family="sans-serif" font-size="14" lengthAdjust="spacing" textLength="63" x="3249" y="244.4365">-birthDate</text><text fill="#000000" font-family="sans-serif" font-size="14" lengthAdjust="spacing" textLength="81" x="3249" y="262.0459">-SNSNumber</text><text fill="#000000" font-family="sans-serif" font-size="14" lengthAdjust="spacing" textLength="124" x="3249" y="279.6553">-citizenCardNumber</text></g><!--MD5=[de60e6d4f424ae4d0522096f76a59010]
class VaccinationCenter--><g id="elem_VaccinationCenter"><rect codeLine="37" fill="#F1F1F1" height="145.6563" id="VaccinationCenter" rx="2.5" ry="2.5" style="stroke:#181818;stroke-width:0.5;" width="148" x="2770" y="365.3564"/><ellipse cx="2785" cy="381.3564" fill="#ADD1B2" rx="11" ry="11" style="stroke:#181818;stroke-width:1.0;"/><path d="M2787,377.8564 Q2787.2031,377.3564 2787.4375,377.1064 Q2787.6719,376.8564 2787.9375,376.8564 Q2788.4063,376.8564 2788.7031,377.1377 Q2789,377.4189 2789,378.0752 L2789,379.6377 Q2789,380.2939 2788.7188,380.5752 Q2788.4375,380.8564 2788,380.8564 Q2787.6094,380.8564 2787.3594,380.6846 Q2787.1094,380.5127 2787,380.0596 Q2786.9531,379.7471 2786.7813,379.5752 Q2786.4688,379.2471 2785.9063,379.0596 Q2785.3438,378.8564 2784.7813,378.8564 Q2784.0781,378.8564 2783.4844,379.1377 Q2782.9063,379.4189 2782.4531,380.0439 Q2782,380.6689 2782,381.5283 L2782,382.4502 Q2782,383.4814 2782.8438,384.1689 Q2783.6875,384.8564 2785.1875,384.8564 Q2786.0781,384.8564 2786.7031,384.6533 Q2787.0625,384.5439 2787.4688,384.1846 Q2787.7344,383.9814 2787.875,383.9189 Q2788.0156,383.8564 2788.1875,383.8564 Q2788.5156,383.8564 2788.75,384.1221 Q2789,384.3721 2789,384.7314 Q2789,385.0752 2788.6563,385.4814 Q2788.1563,386.0752 2787.3594,386.4033 Q2786.3125,386.8564 2785.0313,386.8564 Q2783.5313,386.8564 2782.3281,386.2627 Q2781.3594,385.7939 2780.6719,384.7783 Q2780,383.7627 2780,382.5596 L2780,381.4658 Q2780,380.2158 2780.5938,379.1221 Q2781.2031,378.0283 2782.25,377.4502 Q2783.3125,376.8564 2784.5,376.8564 Q2785.2188,376.8564 2785.8438,377.1064 Q2786.4688,377.3564 2787,377.8564 Z " fill="#000000"/><text fill="#000000" font-family="sans-serif" font-size="14" lengthAdjust="spacing" textLength="116" x="2799" y="387.085">VaccinationCenter</text><line style="stroke:#181818;stroke-width:0.5;" x1="2771" x2="2917" y1="397.3564" y2="397.3564"/><text fill="#000000" font-family="sans-serif" font-size="14" lengthAdjust="spacing" textLength="40" x="2776" y="415.8896">-name</text><text fill="#000000" font-family="sans-serif" font-size="14" lengthAdjust="spacing" textLength="94" x="2776" y="433.499">-phoneNumber</text><text fill="#000000" font-family="sans-serif" font-size="14" lengthAdjust="spacing" textLength="38" x="2776" y="451.1084">-email</text><text fill="#000000" font-family="sans-serif" font-size="14" lengthAdjust="spacing" textLength="56" x="2776" y="468.7178">-address</text><text fill="#000000" font-family="sans-serif" font-size="14" lengthAdjust="spacing" textLength="72" x="2776" y="486.3271">-faxNumber</text><text fill="#000000" font-family="sans-serif" font-size="14" lengthAdjust="spacing" textLength="52" x="2776" y="503.9365">-website</text></g><!--MD5=[56872536300a053cf9fd13853ad6ab1e]
class CommunityMassVaccinationCenter--><g id="elem_CommunityMassVaccinationCenter"><rect codeLine="46" fill="#F1F1F1" height="40" id="CommunityMassVaccinationCenter" rx="2.5" ry="2.5" style="stroke:#181818;stroke-width:0.5;" width="251" x="2458" y="493.3564"/><ellipse cx="2473" cy="509.3564" fill="#ADD1B2" rx="11" ry="11" style="stroke:#181818;stroke-width:1.0;"/><path d="M2475,505.8564 Q2475.2031,505.3564 2475.4375,505.1064 Q2475.6719,504.8564 2475.9375,504.8564 Q2476.4063,504.8564 2476.7031,505.1377 Q2477,505.4189 2477,506.0752 L2477,507.6377 Q2477,508.2939 2476.7188,508.5752 Q2476.4375,508.8564 2476,508.8564 Q2475.6094,508.8564 2475.3594,508.6846 Q2475.1094,508.5127 2475,508.0596 Q2474.9531,507.7471 2474.7813,507.5752 Q2474.4688,507.2471 2473.9063,507.0596 Q2473.3438,506.8564 2472.7813,506.8564 Q2472.0781,506.8564 2471.4844,507.1377 Q2470.9063,507.4189 2470.4531,508.0439 Q2470,508.6689 2470,509.5283 L2470,510.4502 Q2470,511.4814 2470.8438,512.1689 Q2471.6875,512.8564 2473.1875,512.8564 Q2474.0781,512.8564 2474.7031,512.6533 Q2475.0625,512.5439 2475.4688,512.1846 Q2475.7344,511.9814 2475.875,511.9189 Q2476.0156,511.8564 2476.1875,511.8564 Q2476.5156,511.8564 2476.75,512.1221 Q2477,512.3721 2477,512.7314 Q2477,513.0752 2476.6563,513.4814 Q2476.1563,514.0752 2475.3594,514.4033 Q2474.3125,514.8564 2473.0313,514.8564 Q2471.5313,514.8564 2470.3281,514.2627 Q2469.3594,513.7939 2468.6719,512.7783 Q2468,511.7627 2468,510.5596 L2468,509.4658 Q2468,508.2158 2468.5938,507.1221 Q2469.2031,506.0283 2470.25,505.4502 Q2471.3125,504.8564 2472.5,504.8564 Q2473.2188,504.8564 2473.8438,505.1064 Q2474.4688,505.3564 2475,505.8564 Z " fill="#000000"/><text fill="#000000" font-family="sans-serif" font-size="14" lengthAdjust="spacing" textLength="219" x="2487" y="515.085">CommunityMassVaccinationCenter</text><line style="stroke:#181818;stroke-width:0.5;" x1="2459" x2="2708" y1="525.3564" y2="525.3564"/></g><!--MD5=[1db03e903fe0a044a2ca0dcbef10799a]
class HealthCareCenter--><g id="elem_HealthCareCenter"><rect codeLine="49" fill="#F1F1F1" height="40" id="HealthCareCenter" rx="2.5" ry="2.5" style="stroke:#181818;stroke-width:0.5;" width="146" x="1810.5" y="675.3564"/><ellipse cx="1825.5" cy="691.3564" fill="#ADD1B2" rx="11" ry="11" style="stroke:#181818;stroke-width:1.0;"/><path d="M1827.5,687.8564 Q1827.7031,687.3564 1827.9375,687.1064 Q1828.1719,686.8564 1828.4375,686.8564 Q1828.9063,686.8564 1829.2031,687.1377 Q1829.5,687.4189 1829.5,688.0752 L1829.5,689.6377 Q1829.5,690.2939 1829.2188,690.5752 Q1828.9375,690.8564 1828.5,690.8564 Q1828.1094,690.8564 1827.8594,690.6846 Q1827.6094,690.5127 1827.5,690.0596 Q1827.4531,689.7471 1827.2813,689.5752 Q1826.9688,689.2471 1826.4063,689.0596 Q1825.8438,688.8564 1825.2813,688.8564 Q1824.5781,688.8564 1823.9844,689.1377 Q1823.4063,689.4189 1822.9531,690.0439 Q1822.5,690.6689 1822.5,691.5283 L1822.5,692.4502 Q1822.5,693.4814 1823.3438,694.1689 Q1824.1875,694.8564 1825.6875,694.8564 Q1826.5781,694.8564 1827.2031,694.6533 Q1827.5625,694.5439 1827.9688,694.1846 Q1828.2344,693.9814 1828.375,693.9189 Q1828.5156,693.8564 1828.6875,693.8564 Q1829.0156,693.8564 1829.25,694.1221 Q1829.5,694.3721 1829.5,694.7314 Q1829.5,695.0752 1829.1563,695.4814 Q1828.6563,696.0752 1827.8594,696.4033 Q1826.8125,696.8564 1825.5313,696.8564 Q1824.0313,696.8564 1822.8281,696.2627 Q1821.8594,695.7939 1821.1719,694.7783 Q1820.5,693.7627 1820.5,692.5596 L1820.5,691.4658 Q1820.5,690.2158 1821.0938,689.1221 Q1821.7031,688.0283 1822.75,687.4502 Q1823.8125,686.8564 1825,686.8564 Q1825.7188,686.8564 1826.3438,687.1064 Q1826.9688,687.3564 1827.5,687.8564 Z " fill="#000000"/><text fill="#000000" font-family="sans-serif" font-size="14" lengthAdjust="spacing" textLength="114" x="1839.5" y="697.085">HealthCareCenter</text><line style="stroke:#181818;stroke-width:0.5;" x1="1811.5" x2="1955.5" y1="707.3564" y2="707.3564"/></g><!--MD5=[8d21a970f1bd1e0e0584d0ecf91221be]
class ScheduleVaccine--><g id="elem_ScheduleVaccine"><rect codeLine="52" fill="#F1F1F1" height="75.2188" id="ScheduleVaccine" rx="2.5" ry="2.5" style="stroke:#181818;stroke-width:0.5;" width="141" x="1813" y="421.8564"/><ellipse cx="1828" cy="437.8564" fill="#ADD1B2" rx="11" ry="11" style="stroke:#181818;stroke-width:1.0;"/><path d="M1830,434.3564 Q1830.2031,433.8564 1830.4375,433.6064 Q1830.6719,433.3564 1830.9375,433.3564 Q1831.4063,433.3564 1831.7031,433.6377 Q1832,433.9189 1832,434.5752 L1832,436.1377 Q1832,436.7939 1831.7188,437.0752 Q1831.4375,437.3564 1831,437.3564 Q1830.6094,437.3564 1830.3594,437.1846 Q1830.1094,437.0127 1830,436.5596 Q1829.9531,436.2471 1829.7813,436.0752 Q1829.4688,435.7471 1828.9063,435.5596 Q1828.3438,435.3564 1827.7813,435.3564 Q1827.0781,435.3564 1826.4844,435.6377 Q1825.9063,435.9189 1825.4531,436.5439 Q1825,437.1689 1825,438.0283 L1825,438.9502 Q1825,439.9814 1825.8438,440.6689 Q1826.6875,441.3564 1828.1875,441.3564 Q1829.0781,441.3564 1829.7031,441.1533 Q1830.0625,441.0439 1830.4688,440.6846 Q1830.7344,440.4814 1830.875,440.4189 Q1831.0156,440.3564 1831.1875,440.3564 Q1831.5156,440.3564 1831.75,440.6221 Q1832,440.8721 1832,441.2314 Q1832,441.5752 1831.6563,441.9814 Q1831.1563,442.5752 1830.3594,442.9033 Q1829.3125,443.3564 1828.0313,443.3564 Q1826.5313,443.3564 1825.3281,442.7627 Q1824.3594,442.2939 1823.6719,441.2783 Q1823,440.2627 1823,439.0596 L1823,437.9658 Q1823,436.7158 1823.5938,435.6221 Q1824.2031,434.5283 1825.25,433.9502 Q1826.3125,433.3564 1827.5,433.3564 Q1828.2188,433.3564 1828.8438,433.6064 Q1829.4688,433.8564 1830,434.3564 Z " fill="#000000"/><text fill="#000000" font-family="sans-serif" font-size="14" lengthAdjust="spacing" textLength="109" x="1842" y="443.585">ScheduleVaccine</text><line style="stroke:#181818;stroke-width:0.5;" x1="1814" x2="1953" y1="453.8564" y2="453.8564"/><text fill="#000000" font-family="sans-serif" font-size="14" lengthAdjust="spacing" textLength="33" x="1819" y="472.3896">-date</text><text fill="#000000" font-family="sans-serif" font-size="14" lengthAdjust="spacing" textLength="31" x="1819" y="489.999">-time</text></g><!--MD5=[e083d63eedcc0b42302f10a27278e39e]
class ArrivalSNSUser--><g id="elem_ArrivalSNSUser"><rect codeLine="57" fill="#F1F1F1" height="75.2188" id="ArrivalSNSUser" rx="2.5" ry="2.5" style="stroke:#181818;stroke-width:0.5;" width="128" x="3014" y="400.8564"/><ellipse cx="3029" cy="416.8564" fill="#ADD1B2" rx="11" ry="11" style="stroke:#181818;stroke-width:1.0;"/><path d="M3031,413.3564 Q3031.2031,412.8564 3031.4375,412.6064 Q3031.6719,412.3564 3031.9375,412.3564 Q3032.4063,412.3564 3032.7031,412.6377 Q3033,412.9189 3033,413.5752 L3033,415.1377 Q3033,415.7939 3032.7188,416.0752 Q3032.4375,416.3564 3032,416.3564 Q3031.6094,416.3564 3031.3594,416.1846 Q3031.1094,416.0127 3031,415.5596 Q3030.9531,415.2471 3030.7813,415.0752 Q3030.4688,414.7471 3029.9063,414.5596 Q3029.3438,414.3564 3028.7813,414.3564 Q3028.0781,414.3564 3027.4844,414.6377 Q3026.9063,414.9189 3026.4531,415.5439 Q3026,416.1689 3026,417.0283 L3026,417.9502 Q3026,418.9814 3026.8438,419.6689 Q3027.6875,420.3564 3029.1875,420.3564 Q3030.0781,420.3564 3030.7031,420.1533 Q3031.0625,420.0439 3031.4688,419.6846 Q3031.7344,419.4814 3031.875,419.4189 Q3032.0156,419.3564 3032.1875,419.3564 Q3032.5156,419.3564 3032.75,419.6221 Q3033,419.8721 3033,420.2314 Q3033,420.5752 3032.6563,420.9814 Q3032.1563,421.5752 3031.3594,421.9033 Q3030.3125,422.3564 3029.0313,422.3564 Q3027.5313,422.3564 3026.3281,421.7627 Q3025.3594,421.2939 3024.6719,420.2783 Q3024,419.2627 3024,418.0596 L3024,416.9658 Q3024,415.7158 3024.5938,414.6221 Q3025.2031,413.5283 3026.25,412.9502 Q3027.3125,412.3564 3028.5,412.3564 Q3029.2188,412.3564 3029.8438,412.6064 Q3030.4688,412.8564 3031,413.3564 Z " fill="#000000"/><text fill="#000000" font-family="sans-serif" font-size="14" lengthAdjust="spacing" textLength="96" x="3043" y="422.585">ArrivalSNSUser</text><line style="stroke:#181818;stroke-width:0.5;" x1="3015" x2="3141" y1="432.8564" y2="432.8564"/><text fill="#000000" font-family="sans-serif" font-size="14" lengthAdjust="spacing" textLength="33" x="3020" y="451.3896">-date</text><text fill="#000000" font-family="sans-serif" font-size="14" lengthAdjust="spacing" textLength="31" x="3020" y="468.999">-time</text></g><!--MD5=[107cfa23aa516ff83d0cf17a6f9fe7ba]
class VaccineAdministration--><g id="elem_VaccineAdministration"><rect codeLine="62" fill="#F1F1F1" height="128.0469" id="VaccineAdministration" rx="2.5" ry="2.5" style="stroke:#181818;stroke-width:0.5;" width="171" x="744" y="302.3564"/><ellipse cx="759" cy="318.3564" fill="#ADD1B2" rx="11" ry="11" style="stroke:#181818;stroke-width:1.0;"/><path d="M761,314.8564 Q761.2031,314.3564 761.4375,314.1064 Q761.6719,313.8564 761.9375,313.8564 Q762.4063,313.8564 762.7031,314.1377 Q763,314.4189 763,315.0752 L763,316.6377 Q763,317.2939 762.7188,317.5752 Q762.4375,317.8564 762,317.8564 Q761.6094,317.8564 761.3594,317.6846 Q761.1094,317.5127 761,317.0596 Q760.9531,316.7471 760.7813,316.5752 Q760.4688,316.2471 759.9063,316.0596 Q759.3438,315.8564 758.7813,315.8564 Q758.0781,315.8564 757.4844,316.1377 Q756.9063,316.4189 756.4531,317.0439 Q756,317.6689 756,318.5283 L756,319.4502 Q756,320.4814 756.8438,321.1689 Q757.6875,321.8564 759.1875,321.8564 Q760.0781,321.8564 760.7031,321.6533 Q761.0625,321.5439 761.4688,321.1846 Q761.7344,320.9814 761.875,320.9189 Q762.0156,320.8564 762.1875,320.8564 Q762.5156,320.8564 762.75,321.1221 Q763,321.3721 763,321.7314 Q763,322.0752 762.6563,322.4814 Q762.1563,323.0752 761.3594,323.4033 Q760.3125,323.8564 759.0313,323.8564 Q757.5313,323.8564 756.3281,323.2627 Q755.3594,322.7939 754.6719,321.7783 Q754,320.7627 754,319.5596 L754,318.4658 Q754,317.2158 754.5938,316.1221 Q755.2031,315.0283 756.25,314.4502 Q757.3125,313.8564 758.5,313.8564 Q759.2188,313.8564 759.8438,314.1064 Q760.4688,314.3564 761,314.8564 Z " fill="#000000"/><text fill="#000000" font-family="sans-serif" font-size="14" lengthAdjust="spacing" textLength="139" x="773" y="324.085">VaccineAdministration</text><line style="stroke:#181818;stroke-width:0.5;" x1="745" x2="914" y1="334.3564" y2="334.3564"/><text fill="#000000" font-family="sans-serif" font-size="14" lengthAdjust="spacing" textLength="69" x="750" y="352.8896">-lotNumber</text><text fill="#000000" font-family="sans-serif" font-size="14" lengthAdjust="spacing" textLength="123" x="750" y="370.499">-administrationDate</text><text fill="#000000" font-family="sans-serif" font-size="14" lengthAdjust="spacing" textLength="124" x="750" y="388.1084">-administrationTime</text><text fill="#000000" font-family="sans-serif" font-size="14" lengthAdjust="spacing" textLength="80" x="750" y="405.7178">-leavingDate</text><text fill="#000000" font-family="sans-serif" font-size="14" lengthAdjust="spacing" textLength="81" x="750" y="423.3271">-leavingTime</text></g><!--MD5=[0e501da62322464167c8ec4d233a6b7e]
class VaccineType--><g id="elem_VaccineType"><rect codeLine="70" fill="#F1F1F1" height="92.8281" id="VaccineType" rx="2.5" ry="2.5" style="stroke:#181818;stroke-width:0.5;" width="114" x="2145" y="466.8564"/><ellipse cx="2160" cy="482.8564" fill="#ADD1B2" rx="11" ry="11" style="stroke:#181818;stroke-width:1.0;"/><path d="M2162,479.3564 Q2162.2031,478.8564 2162.4375,478.6064 Q2162.6719,478.3564 2162.9375,478.3564 Q2163.4063,478.3564 2163.7031,478.6377 Q2164,478.9189 2164,479.5752 L2164,481.1377 Q2164,481.7939 2163.7188,482.0752 Q2163.4375,482.3564 2163,482.3564 Q2162.6094,482.3564 2162.3594,482.1846 Q2162.1094,482.0127 2162,481.5596 Q2161.9531,481.2471 2161.7813,481.0752 Q2161.4688,480.7471 2160.9063,480.5596 Q2160.3438,480.3564 2159.7813,480.3564 Q2159.0781,480.3564 2158.4844,480.6377 Q2157.9063,480.9189 2157.4531,481.5439 Q2157,482.1689 2157,483.0283 L2157,483.9502 Q2157,484.9814 2157.8438,485.6689 Q2158.6875,486.3564 2160.1875,486.3564 Q2161.0781,486.3564 2161.7031,486.1533 Q2162.0625,486.0439 2162.4688,485.6846 Q2162.7344,485.4814 2162.875,485.4189 Q2163.0156,485.3564 2163.1875,485.3564 Q2163.5156,485.3564 2163.75,485.6221 Q2164,485.8721 2164,486.2314 Q2164,486.5752 2163.6563,486.9814 Q2163.1563,487.5752 2162.3594,487.9033 Q2161.3125,488.3564 2160.0313,488.3564 Q2158.5313,488.3564 2157.3281,487.7627 Q2156.3594,487.2939 2155.6719,486.2783 Q2155,485.2627 2155,484.0596 L2155,482.9658 Q2155,481.7158 2155.5938,480.6221 Q2156.2031,479.5283 2157.25,478.9502 Q2158.3125,478.3564 2159.5,478.3564 Q2160.2188,478.3564 2160.8438,478.6064 Q2161.4688,478.8564 2162,479.3564 Z " fill="#000000"/><text fill="#000000" font-family="sans-serif" font-size="14" lengthAdjust="spacing" textLength="82" x="2174" y="488.585">VaccineType</text><line style="stroke:#181818;stroke-width:0.5;" x1="2146" x2="2258" y1="498.8564" y2="498.8564"/><text fill="#000000" font-family="sans-serif" font-size="14" lengthAdjust="spacing" textLength="36" x="2151" y="517.3896">-code</text><text fill="#000000" font-family="sans-serif" font-size="14" lengthAdjust="spacing" textLength="74" x="2151" y="534.999">-description</text><text fill="#000000" font-family="sans-serif" font-size="14" lengthAdjust="spacing" textLength="74" x="2151" y="552.6084">-technology</text></g><!--MD5=[19e445fc4d3b48519cbe33da05496394]
class Vaccine--><g id="elem_Vaccine"><rect codeLine="76" fill="#F1F1F1" height="92.8281" id="Vaccine" rx="2.5" ry="2.5" style="stroke:#181818;stroke-width:0.5;" width="82" x="1110.5" y="432.8564"/><ellipse cx="1125.5" cy="448.8564" fill="#ADD1B2" rx="11" ry="11" style="stroke:#181818;stroke-width:1.0;"/><path d="M1127.5,445.3564 Q1127.7031,444.8564 1127.9375,444.6064 Q1128.1719,444.3564 1128.4375,444.3564 Q1128.9063,444.3564 1129.2031,444.6377 Q1129.5,444.9189 1129.5,445.5752 L1129.5,447.1377 Q1129.5,447.7939 1129.2188,448.0752 Q1128.9375,448.3564 1128.5,448.3564 Q1128.1094,448.3564 1127.8594,448.1846 Q1127.6094,448.0127 1127.5,447.5596 Q1127.4531,447.2471 1127.2813,447.0752 Q1126.9688,446.7471 1126.4063,446.5596 Q1125.8438,446.3564 1125.2813,446.3564 Q1124.5781,446.3564 1123.9844,446.6377 Q1123.4063,446.9189 1122.9531,447.5439 Q1122.5,448.1689 1122.5,449.0283 L1122.5,449.9502 Q1122.5,450.9814 1123.3438,451.6689 Q1124.1875,452.3564 1125.6875,452.3564 Q1126.5781,452.3564 1127.2031,452.1533 Q1127.5625,452.0439 1127.9688,451.6846 Q1128.2344,451.4814 1128.375,451.4189 Q1128.5156,451.3564 1128.6875,451.3564 Q1129.0156,451.3564 1129.25,451.6221 Q1129.5,451.8721 1129.5,452.2314 Q1129.5,452.5752 1129.1563,452.9814 Q1128.6563,453.5752 1127.8594,453.9033 Q1126.8125,454.3564 1125.5313,454.3564 Q1124.0313,454.3564 1122.8281,453.7627 Q1121.8594,453.2939 1121.1719,452.2783 Q1120.5,451.2627 1120.5,450.0596 L1120.5,448.9658 Q1120.5,447.7158 1121.0938,446.6221 Q1121.7031,445.5283 1122.75,444.9502 Q1123.8125,444.3564 1125,444.3564 Q1125.7188,444.3564 1126.3438,444.6064 Q1126.9688,444.8564 1127.5,445.3564 Z " fill="#000000"/><text fill="#000000" font-family="sans-serif" font-size="14" lengthAdjust="spacing" textLength="50" x="1139.5" y="454.585">Vaccine</text><line style="stroke:#181818;stroke-width:0.5;" x1="1111.5" x2="1191.5" y1="464.8564" y2="464.8564"/><text fill="#000000" font-family="sans-serif" font-size="14" lengthAdjust="spacing" textLength="16" x="1116.5" y="483.3896">-id</text><text fill="#000000" font-family="sans-serif" font-size="14" lengthAdjust="spacing" textLength="40" x="1116.5" y="500.999">-name</text><text fill="#000000" font-family="sans-serif" font-size="14" lengthAdjust="spacing" textLength="42" x="1116.5" y="518.6084">-brand</text></g><!--MD5=[03e3bb7aef77bf14822eb3fb6d15ab17]
class Dose--><g id="elem_Dose"><rect codeLine="82" fill="#F1F1F1" height="92.8281" id="Dose" rx="2.5" ry="2.5" style="stroke:#181818;stroke-width:0.5;" width="203" x="1782" y="292.8564"/><ellipse cx="1862.75" cy="308.8564" fill="#ADD1B2" rx="11" ry="11" style="stroke:#181818;stroke-width:1.0;"/><path d="M1864.75,305.3564 Q1864.9531,304.8564 1865.1875,304.6064 Q1865.4219,304.3564 1865.6875,304.3564 Q1866.1563,304.3564 1866.4531,304.6377 Q1866.75,304.9189 1866.75,305.5752 L1866.75,307.1377 Q1866.75,307.7939 1866.4688,308.0752 Q1866.1875,308.3564 1865.75,308.3564 Q1865.3594,308.3564 1865.1094,308.1846 Q1864.8594,308.0127 1864.75,307.5596 Q1864.7031,307.2471 1864.5313,307.0752 Q1864.2188,306.7471 1863.6563,306.5596 Q1863.0938,306.3564 1862.5313,306.3564 Q1861.8281,306.3564 1861.2344,306.6377 Q1860.6563,306.9189 1860.2031,307.5439 Q1859.75,308.1689 1859.75,309.0283 L1859.75,309.9502 Q1859.75,310.9814 1860.5938,311.6689 Q1861.4375,312.3564 1862.9375,312.3564 Q1863.8281,312.3564 1864.4531,312.1533 Q1864.8125,312.0439 1865.2188,311.6846 Q1865.4844,311.4814 1865.625,311.4189 Q1865.7656,311.3564 1865.9375,311.3564 Q1866.2656,311.3564 1866.5,311.6221 Q1866.75,311.8721 1866.75,312.2314 Q1866.75,312.5752 1866.4063,312.9814 Q1865.9063,313.5752 1865.1094,313.9033 Q1864.0625,314.3564 1862.7813,314.3564 Q1861.2813,314.3564 1860.0781,313.7627 Q1859.1094,313.2939 1858.4219,312.2783 Q1857.75,311.2627 1857.75,310.0596 L1857.75,308.9658 Q1857.75,307.7158 1858.3438,306.6221 Q1858.9531,305.5283 1860,304.9502 Q1861.0625,304.3564 1862.25,304.3564 Q1862.9688,304.3564 1863.5938,304.6064 Q1864.2188,304.8564 1864.75,305.3564 Z " fill="#000000"/><text fill="#000000" font-family="sans-serif" font-size="14" lengthAdjust="spacing" textLength="33" x="1883.25" y="314.585">Dose</text><line style="stroke:#181818;stroke-width:0.5;" x1="1783" x2="1984" y1="324.8564" y2="324.8564"/><text fill="#000000" font-family="sans-serif" font-size="14" lengthAdjust="spacing" textLength="85" x="1788" y="343.3896">-doseNumber</text><text fill="#000000" font-family="sans-serif" font-size="14" lengthAdjust="spacing" textLength="52" x="1788" y="360.999">-dosage</text><text fill="#000000" font-family="sans-serif" font-size="14" lengthAdjust="spacing" textLength="191" x="1788" y="378.6084">-timeIntervalBetweenLastDose</text></g><!--MD5=[c59c99efa75f30327e326596f335a568]
class AgeGroup--><g id="elem_AgeGroup"><rect codeLine="88" fill="#F1F1F1" height="92.8281" id="AgeGroup" rx="2.5" ry="2.5" style="stroke:#181818;stroke-width:0.5;" width="137" x="1441" y="432.8564"/><ellipse cx="1474" cy="448.8564" fill="#ADD1B2" rx="11" ry="11" style="stroke:#181818;stroke-width:1.0;"/><path d="M1476,445.3564 Q1476.2031,444.8564 1476.4375,444.6064 Q1476.6719,444.3564 1476.9375,444.3564 Q1477.4063,444.3564 1477.7031,444.6377 Q1478,444.9189 1478,445.5752 L1478,447.1377 Q1478,447.7939 1477.7188,448.0752 Q1477.4375,448.3564 1477,448.3564 Q1476.6094,448.3564 1476.3594,448.1846 Q1476.1094,448.0127 1476,447.5596 Q1475.9531,447.2471 1475.7813,447.0752 Q1475.4688,446.7471 1474.9063,446.5596 Q1474.3438,446.3564 1473.7813,446.3564 Q1473.0781,446.3564 1472.4844,446.6377 Q1471.9063,446.9189 1471.4531,447.5439 Q1471,448.1689 1471,449.0283 L1471,449.9502 Q1471,450.9814 1471.8438,451.6689 Q1472.6875,452.3564 1474.1875,452.3564 Q1475.0781,452.3564 1475.7031,452.1533 Q1476.0625,452.0439 1476.4688,451.6846 Q1476.7344,451.4814 1476.875,451.4189 Q1477.0156,451.3564 1477.1875,451.3564 Q1477.5156,451.3564 1477.75,451.6221 Q1478,451.8721 1478,452.2314 Q1478,452.5752 1477.6563,452.9814 Q1477.1563,453.5752 1476.3594,453.9033 Q1475.3125,454.3564 1474.0313,454.3564 Q1472.5313,454.3564 1471.3281,453.7627 Q1470.3594,453.2939 1469.6719,452.2783 Q1469,451.2627 1469,450.0596 L1469,448.9658 Q1469,447.7158 1469.5938,446.6221 Q1470.2031,445.5283 1471.25,444.9502 Q1472.3125,444.3564 1473.5,444.3564 Q1474.2188,444.3564 1474.8438,444.6064 Q1475.4688,444.8564 1476,445.3564 Z " fill="#000000"/><text fill="#000000" font-family="sans-serif" font-size="14" lengthAdjust="spacing" textLength="65" x="1492" y="454.585">AgeGroup</text><line style="stroke:#181818;stroke-width:0.5;" x1="1442" x2="1577" y1="464.8564" y2="464.8564"/><text fill="#000000" font-family="sans-serif" font-size="14" lengthAdjust="spacing" textLength="52" x="1447" y="483.3896">-minAge</text><text fill="#000000" font-family="sans-serif" font-size="14" lengthAdjust="spacing" textLength="55" x="1447" y="500.999">-maxAge</text><text fill="#000000" font-family="sans-serif" font-size="14" lengthAdjust="spacing" textLength="125" x="1447" y="518.6084">-dosesAdministered</text></g><!--MD5=[89d6316c85ecda9cf6a19027a6c24626]
class LegacySystemFile--><g id="elem_LegacySystemFile"><rect codeLine="94" fill="#F1F1F1" height="40" id="LegacySystemFile" rx="2.5" ry="2.5" style="stroke:#181818;stroke-width:0.5;" width="147" x="1436" y="737.3564"/><ellipse cx="1451" cy="753.3564" fill="#ADD1B2" rx="11" ry="11" style="stroke:#181818;stroke-width:1.0;"/><path d="M1453,749.8564 Q1453.2031,749.3564 1453.4375,749.1064 Q1453.6719,748.8564 1453.9375,748.8564 Q1454.4063,748.8564 1454.7031,749.1377 Q1455,749.4189 1455,750.0752 L1455,751.6377 Q1455,752.2939 1454.7188,752.5752 Q1454.4375,752.8564 1454,752.8564 Q1453.6094,752.8564 1453.3594,752.6846 Q1453.1094,752.5127 1453,752.0596 Q1452.9531,751.7471 1452.7813,751.5752 Q1452.4688,751.2471 1451.9063,751.0596 Q1451.3438,750.8564 1450.7813,750.8564 Q1450.0781,750.8564 1449.4844,751.1377 Q1448.9063,751.4189 1448.4531,752.0439 Q1448,752.6689 1448,753.5283 L1448,754.4502 Q1448,755.4814 1448.8438,756.1689 Q1449.6875,756.8564 1451.1875,756.8564 Q1452.0781,756.8564 1452.7031,756.6533 Q1453.0625,756.5439 1453.4688,756.1846 Q1453.7344,755.9814 1453.875,755.9189 Q1454.0156,755.8564 1454.1875,755.8564 Q1454.5156,755.8564 1454.75,756.1221 Q1455,756.3721 1455,756.7314 Q1455,757.0752 1454.6563,757.4814 Q1454.1563,758.0752 1453.3594,758.4033 Q1452.3125,758.8564 1451.0313,758.8564 Q1449.5313,758.8564 1448.3281,758.2627 Q1447.3594,757.7939 1446.6719,756.7783 Q1446,755.7627 1446,754.5596 L1446,753.4658 Q1446,752.2158 1446.5938,751.1221 Q1447.2031,750.0283 1448.25,749.4502 Q1449.3125,748.8564 1450.5,748.8564 Q1451.2188,748.8564 1451.8438,749.1064 Q1452.4688,749.3564 1453,749.8564 Z " fill="#000000"/><text fill="#000000" font-family="sans-serif" font-size="14" lengthAdjust="spacing" textLength="115" x="1465" y="759.085">LegacySystemFile</text><line style="stroke:#181818;stroke-width:0.5;" x1="1437" x2="1582" y1="769.3564" y2="769.3564"/></g><!--MD5=[75b5a37a06e4e6946ca761c67713760b]
class SortAlgorithm--><g id="elem_SortAlgorithm"><rect codeLine="97" fill="#F1F1F1" height="40" id="SortAlgorithm" rx="2.5" ry="2.5" style="stroke:#181818;stroke-width:0.5;" width="117" x="1093" y="737.3564"/><ellipse cx="1108" cy="753.3564" fill="#ADD1B2" rx="11" ry="11" style="stroke:#181818;stroke-width:1.0;"/><path d="M1110,749.8564 Q1110.2031,749.3564 1110.4375,749.1064 Q1110.6719,748.8564 1110.9375,748.8564 Q1111.4063,748.8564 1111.7031,749.1377 Q1112,749.4189 1112,750.0752 L1112,751.6377 Q1112,752.2939 1111.7188,752.5752 Q1111.4375,752.8564 1111,752.8564 Q1110.6094,752.8564 1110.3594,752.6846 Q1110.1094,752.5127 1110,752.0596 Q1109.9531,751.7471 1109.7813,751.5752 Q1109.4688,751.2471 1108.9063,751.0596 Q1108.3438,750.8564 1107.7813,750.8564 Q1107.0781,750.8564 1106.4844,751.1377 Q1105.9063,751.4189 1105.4531,752.0439 Q1105,752.6689 1105,753.5283 L1105,754.4502 Q1105,755.4814 1105.8438,756.1689 Q1106.6875,756.8564 1108.1875,756.8564 Q1109.0781,756.8564 1109.7031,756.6533 Q1110.0625,756.5439 1110.4688,756.1846 Q1110.7344,755.9814 1110.875,755.9189 Q1111.0156,755.8564 1111.1875,755.8564 Q1111.5156,755.8564 1111.75,756.1221 Q1112,756.3721 1112,756.7314 Q1112,757.0752 1111.6563,757.4814 Q1111.1563,758.0752 1110.3594,758.4033 Q1109.3125,758.8564 1108.0313,758.8564 Q1106.5313,758.8564 1105.3281,758.2627 Q1104.3594,757.7939 1103.6719,756.7783 Q1103,755.7627 1103,754.5596 L1103,753.4658 Q1103,752.2158 1103.5938,751.1221 Q1104.2031,750.0283 1105.25,749.4502 Q1106.3125,748.8564 1107.5,748.8564 Q1108.2188,748.8564 1108.8438,749.1064 Q1109.4688,749.3564 1110,749.8564 Z " fill="#000000"/><text fill="#000000" font-family="sans-serif" font-size="14" lengthAdjust="spacing" textLength="85" x="1122" y="759.085">SortAlgorithm</text><line style="stroke:#181818;stroke-width:0.5;" x1="1094" x2="1209" y1="769.3564" y2="769.3564"/></g><!--MD5=[8333063a69905134c8a7f249aa9d629e]
link CommunityMassVaccinationCenter to VaccinationCenter--><g id="link_CommunityMassVaccinationCenter_VaccinationCenter"><path codeLine="102" d="M2653.43,493.3564 C2683.16,484.7364 2718.37,474.5164 2750.33,465.2464 " fill="none" id="CommunityMassVaccinationCenter-to-VaccinationCenter" style="stroke:#181818;stroke-width:1.0;"/><polygon fill="none" points="2748.58,458.4664,2769.73,459.6164,2752.48,471.9064,2748.58,458.4664" style="stroke:#181818;stroke-width:1.0;"/></g><!--MD5=[98987725eaf233391716763c4133cca1]
link HealthCareCenter to VaccinationCenter--><g id="link_HealthCareCenter_VaccinationCenter"><path codeLine="103" d="M1956.54,697.7464 C2106.37,699.6164 2458.41,687.7264 2709,550.3564 C2724.36,541.9364 2739.61,531.6164 2754.01,520.6764 " fill="none" id="HealthCareCenter-to-VaccinationCenter" style="stroke:#181818;stroke-width:1.0;"/><polygon fill="none" points="2749.85,515.0464,2769.88,508.1364,2758.53,526.0264,2749.85,515.0464" style="stroke:#181818;stroke-width:1.0;"/></g><!--MD5=[738a6f70211648d778fec4b79664b2f5]
link CenterCoordinator to Employee--><g id="link_CenterCoordinator_Employee"><path codeLine="104" d="M100.93,647.2164 C124.64,620.5664 167.94,571.9064 206.59,528.4664 " fill="none" id="CenterCoordinator-to-Employee" style="stroke:#181818;stroke-width:1.0;"/><polygon fill="none" points="201.51,523.6564,220.03,513.3664,211.97,532.9564,201.51,523.6564" style="stroke:#181818;stroke-width:1.0;"/></g><!--MD5=[a9e6824fad0c7c16d6f9705016e58ddd]
link AgeGroup to Dose--><g id="link_AgeGroup_Dose"><path codeLine="110" d="M1578.3,453.8364 C1635.2,432.4264 1717.29,401.5364 1781.86,377.2364 " fill="none" id="AgeGroup-Dose" style="stroke:#181818;stroke-width:1.0;"/><polygon fill="#000000" points="1674.1796,378.7713,1664.679,379.2062,1666.7492,384.7075,1674.1796,378.7713" style="stroke:#000000;stroke-width:1.0;"/><text fill="#000000" font-family="sans-serif" font-size="13" lengthAdjust="spacing" textLength="21" x="1678.5" y="385.8516">has</text><text fill="#000000" font-family="sans-serif" font-size="13" lengthAdjust="spacing" textLength="7" x="1586.2078" y="465.4439">1</text><text fill="#000000" font-family="sans-serif" font-size="13" lengthAdjust="spacing" textLength="20" x="1754.0103" y="393.9759">1..*</text></g><!--MD5=[dfe12d1da88f5125c95fc076c41c121d]
link ArrivalSNSUser to SNSUser--><g id="link_ArrivalSNSUser_SNSUser"><path codeLine="111" d="M3114.84,400.8064 C3148.93,365.0964 3201.07,310.4764 3242.88,266.6664 " fill="none" id="ArrivalSNSUser-SNSUser" style="stroke:#181818;stroke-width:1.0;"/><polygon fill="#000000" points="3180.4523,290.9154,3172.0811,295.4291,3176.3329,299.4875,3180.4523,290.9154" style="stroke:#000000;stroke-width:1.0;"/><text fill="#000000" font-family="sans-serif" font-size="13" lengthAdjust="spacing" textLength="26" x="3186" y="299.8516">have</text><text fill="#000000" font-family="sans-serif" font-size="13" lengthAdjust="spacing" textLength="7" x="3113.9871" y="389.9155">1</text><text fill="#000000" font-family="sans-serif" font-size="13" lengthAdjust="spacing" textLength="5" x="3230.1559" y="288.7528">*</text></g><!--MD5=[d3df84ca029fbacbbd2123c2919c54f0]
link CenterCoordinator to CommunityMassVaccinationCenter--><g id="link_CenterCoordinator_CommunityMassVaccinationCenter"><path codeLine="113" d="M157.35,667.3564 C195.51,667.3564 242.74,667.3564 285,667.3564 C285,667.3564 285,667.3564 1510.5,667.3564 C1883.02,667.3564 2321.02,575.1164 2500.02,533.4064 " fill="none" id="CenterCoordinator-CommunityMassVaccinationCenter" style="stroke:#181818;stroke-width:1.0;"/><polygon fill="#000000" points="1130.9918,658.2468,1121.7937,655.829,1122.1293,661.6973,1130.9918,658.2468" style="stroke:#000000;stroke-width:1.0;"/><text fill="#000000" font-family="sans-serif" font-size="13" lengthAdjust="spacing" textLength="46" x="1135" y="663.8516">manage</text><text fill="#000000" font-family="sans-serif" font-size="13" lengthAdjust="spacing" textLength="7" x="165.1118" y="681.6564">1</text><text fill="#000000" font-family="sans-serif" font-size="13" lengthAdjust="spacing" textLength="7" x="2468.5569" y="554.8401">1</text></g><!--MD5=[316168f270284dd77f875e06fbc6fb97]
link CenterCoordinator to LegacySystemFile--><g id="link_CenterCoordinator_LegacySystemFile"><path codeLine="114" d="M95.04,687.6664 C122.64,731.3664 195.1,830.3564 285,830.3564 C285,830.3564 285,830.3564 1152.5,830.3564 C1258.34,830.3564 1378.33,799.0164 1448.48,777.3964 " fill="none" id="CenterCoordinator-LegacySystemFile" style="stroke:#181818;stroke-width:1.0;"/><polygon fill="#000000" points="631.011,821.2015,639.8418,824.7323,640.2306,818.8673,631.011,821.2015" style="stroke:#000000;stroke-width:1.0;"/><text fill="#000000" font-family="sans-serif" font-size="13" lengthAdjust="spacing" textLength="68" x="645" y="826.8516">imported by</text><text fill="#000000" font-family="sans-serif" font-size="13" lengthAdjust="spacing" textLength="7" x="90.6039" y="708.8171">1</text><text fill="#000000" font-family="sans-serif" font-size="13" lengthAdjust="spacing" textLength="5" x="1425.615" y="798.8273">*</text></g><!--MD5=[1a8aa2b864b87f860d28abceaa28b7a5]
link Company to SNSUser--><g id="link_Company_SNSUser"><path codeLine="116" d="M552.95,244.3364 C567.74,212.5964 595.02,161.7864 631,128.3564 C703.67,60.8264 729.3,24.3564 828.5,24.3564 C828.5,24.3564 828.5,24.3564 3079,24.3564 C3143.25,24.3564 3201.2,67.6964 3242.99,110.8564 " fill="none" id="Company-SNSUser" style="stroke:#181818;stroke-width:1.0;"/><polygon fill="#000000" points="2052.4939,15.2844,2043.3142,12.7974,2043.6055,18.668,2052.4939,15.2844" style="stroke:#000000;stroke-width:1.0;"/><text fill="#000000" font-family="sans-serif" font-size="13" lengthAdjust="spacing" textLength="30" x="2056.5" y="20.8516">owns</text><text fill="#000000" font-family="sans-serif" font-size="13" lengthAdjust="spacing" textLength="7" x="548.2509" y="233.3565">1</text><text fill="#000000" font-family="sans-serif" font-size="13" lengthAdjust="spacing" textLength="5" x="3229.8373" y="115.4182">*</text></g><!--MD5=[eebe9b198877275d05dd12630ed9e401]
link Company to VaccinationCenter--><g id="link_Company_VaccinationCenter"><path codeLine="117" d="M565.79,243.9664 C612.27,193.4064 716.82,95.3564 828.5,95.3564 C828.5,95.3564 828.5,95.3564 2584.5,95.3564 C2718.53,95.3564 2791.79,264.4564 2823.53,365.1964 " fill="none" id="Company-VaccinationCenter" style="stroke:#181818;stroke-width:1.0;"/><polygon fill="#000000" points="1661.9928,86.8003,1653.1183,83.3806,1652.8032,89.25,1661.9928,86.8003" style="stroke:#000000;stroke-width:1.0;"/><text fill="#000000" font-family="sans-serif" font-size="13" lengthAdjust="spacing" textLength="46" x="1666" y="91.8516">manage</text><text fill="#000000" font-family="sans-serif" font-size="13" lengthAdjust="spacing" textLength="7" x="563.7753" y="233.3637">1</text><text fill="#000000" font-family="sans-serif" font-size="13" lengthAdjust="spacing" textLength="5" x="2816.1612" y="354.3578">*</text></g><!--MD5=[c29c8d42883934cbaf5793c72a334947]
link Company to Vaccine--><g id="link_Company_Vaccine"><path codeLine="118" d="M560.43,302.5764 C592.85,347.2664 661.75,431.0264 744,465.3564 C869.12,517.5764 1035.22,499.3364 1110.44,486.9564 " fill="none" id="Company-Vaccine" style="stroke:#181818;stroke-width:1.0;"/><polygon fill="#000000" points="811.2407,458.1215,803.5988,452.46,801.7306,458.033,811.2407,458.1215" style="stroke:#000000;stroke-width:1.0;"/><text fill="#000000" font-family="sans-serif" font-size="13" lengthAdjust="spacing" textLength="41" x="815.5" y="461.8516">applies</text><text fill="#000000" font-family="sans-serif" font-size="13" lengthAdjust="spacing" textLength="7" x="556.8615" y="323.4723">1</text><text fill="#000000" font-family="sans-serif" font-size="13" lengthAdjust="spacing" textLength="5" x="1097.4086" y="503.3761">*</text></g><!--MD5=[ddd910a488776a510fa57bf44fb01dce]
link Company to VaccineAdministration--><g id="link_Company_VaccineAdministration"><path codeLine="119" d="M585.82,287.9864 C628.03,301.6264 692.05,322.2964 743.74,338.9864 " fill="none" id="Company-VaccineAdministration" style="stroke:#181818;stroke-width:1.0;"/><polygon fill="#000000" points="654.258,297.0688,646.5539,291.4924,644.7475,297.0858,654.258,297.0688" style="stroke:#000000;stroke-width:1.0;"/><text fill="#000000" font-family="sans-serif" font-size="13" lengthAdjust="spacing" textLength="41" x="658.5" y="300.8516">applies</text><text fill="#000000" font-family="sans-serif" font-size="13" lengthAdjust="spacing" textLength="7" x="593.4487" y="305.0036">1</text><text fill="#000000" font-family="sans-serif" font-size="13" lengthAdjust="spacing" textLength="5" x="730.8793" y="350.77">*</text></g><!--MD5=[d7ace9ce94145b54e26b24a174e1b7b9]
link Employee to Company--><g id="link_Employee_Company"><path codeLine="121" d="M354.07,395.8264 C398.59,366.2564 455.78,328.2864 494.58,302.5164 " fill="none" id="Employee-Company" style="stroke:#181818;stroke-width:1.0;"/><polygon fill="#000000" points="384.8348,331.2983,393.9956,328.7427,390.7439,323.8462,384.8348,331.2983" style="stroke:#000000;stroke-width:1.0;"/><text fill="#000000" font-family="sans-serif" font-size="13" lengthAdjust="spacing" textLength="49" x="398" y="333.8516">employs</text><text fill="#000000" font-family="sans-serif" font-size="13" lengthAdjust="spacing" textLength="5" x="361.7886" y="405.3641">*</text><text fill="#000000" font-family="sans-serif" font-size="13" lengthAdjust="spacing" textLength="7" x="478.3499" y="323.1659">1</text></g><!--MD5=[ea2d64bbbbe00d2248a4dcf3ad4479be]
link HealthCareCenter to VaccineType--><g id="link_HealthCareCenter_VaccineType"><path codeLine="123" d="M1946.2,675.3264 C1994.41,658.1264 2061.92,630.5464 2115,595.3564 C2130.13,585.3264 2145.02,572.4964 2158.05,559.9864 " fill="none" id="HealthCareCenter-VaccineType" style="stroke:#181818;stroke-width:1.0;"/><polygon fill="#000000" points="2024.3913,584.1414,2015.042,585.8853,2017.8526,591.0476,2024.3913,584.1414" style="stroke:#000000;stroke-width:1.0;"/><text fill="#000000" font-family="sans-serif" font-size="13" lengthAdjust="spacing" textLength="85" x="2029" y="591.8516">can administer</text><text fill="#000000" font-family="sans-serif" font-size="13" lengthAdjust="spacing" textLength="7" x="1956.59" y="664.6394">1</text><text fill="#000000" font-family="sans-serif" font-size="13" lengthAdjust="spacing" textLength="5" x="2146.518" y="581.2007">*</text></g><!--MD5=[1c5b95f90a26d77f1a7d899efd185139]
link LegacySystemFile to ScheduleVaccine--><g id="link_LegacySystemFile_ScheduleVaccine"><path codeLine="125" d="M1552.92,737.2264 C1603.38,712.1264 1688.74,665.9264 1752,612.3564 C1792.76,577.8364 1831.42,529.9264 1855.92,496.9664 " fill="none" id="LegacySystemFile-ScheduleVaccine" style="stroke:#181818;stroke-width:1.0;"/><polygon fill="#000000" points="1621.9178,600.4257,1613.0044,603.7427,1616.6564,608.3483,1621.9178,600.4257" style="stroke:#000000;stroke-width:1.0;"/><text fill="#000000" font-family="sans-serif" font-size="13" lengthAdjust="spacing" textLength="124" x="1627" y="608.8516">has information about</text><text fill="#000000" font-family="sans-serif" font-size="13" lengthAdjust="spacing" textLength="5" x="1559.9403" y="726.51">*</text><text fill="#000000" font-family="sans-serif" font-size="13" lengthAdjust="spacing" textLength="5" x="1845.562" y="518.5977">*</text></g><!--MD5=[a0f34695a0d75a94fb719cc049a48661]
link LegacySystemFile to ArrivalSNSUser--><g id="link_LegacySystemFile_ArrivalSNSUser"><path codeLine="126" d="M1583.19,760.7764 C1658.16,764.0064 1778.48,768.3564 1882.5,768.3564 C1882.5,768.3564 1882.5,768.3564 2845,768.3564 C2986.64,768.3564 3049.28,562.3864 3069.34,475.8864 " fill="none" id="LegacySystemFile-ArrivalSNSUser" style="stroke:#181818;stroke-width:1.0;"/><polygon fill="#000000" points="2298.9106,758.5909,2289.4739,757.4074,2290.5806,763.1802,2298.9106,758.5909" style="stroke:#000000;stroke-width:1.0;"/><text fill="#000000" font-family="sans-serif" font-size="13" lengthAdjust="spacing" textLength="124" x="2303" y="764.8516">has information about</text><text fill="#000000" font-family="sans-serif" font-size="13" lengthAdjust="spacing" textLength="5" x="1591.0471" y="775.4674">*</text><text fill="#000000" font-family="sans-serif" font-size="13" lengthAdjust="spacing" textLength="5" x="3062.3521" y="497.5034">*</text></g><!--MD5=[e75ef20be59447d54792db0ab0acdb24]
link LegacySystemFile to VaccineAdministration--><g id="link_LegacySystemFile_VaccineAdministration"><path codeLine="127" d="M1435.95,738.6864 C1362.53,719.5864 1258.72,691.9364 1251,686.3564 C1231.52,672.2764 1238.55,657.7864 1221,641.3564 C1168.97,592.6364 1142.04,599.7664 1082,561.3564 C1019.16,521.1464 1003.85,510.2164 945,464.3564 C940.2,460.6164 923.78,446.6564 904.81,430.4064 " fill="none" id="LegacySystemFile-VaccineAdministration" style="stroke:#181818;stroke-width:1.0;"/><polygon fill="#000000" points="1082.6756,550.0223,1089.0232,557.1046,1091.9738,552.021,1082.6756,550.0223" style="stroke:#000000;stroke-width:1.0;"/><text fill="#000000" font-family="sans-serif" font-size="13" lengthAdjust="spacing" textLength="124" x="1096" y="557.8516">has information about</text><text fill="#000000" font-family="sans-serif" font-size="13" lengthAdjust="spacing" textLength="5" x="1423.1073" y="751.0993">*</text><text fill="#000000" font-family="sans-serif" font-size="13" lengthAdjust="spacing" textLength="5" x="907.7736" y="451.7987">*</text></g><!--MD5=[b75017f745453d82492be0430c858855]
link LegacySystemFile to SNSUser--><g id="link_LegacySystemFile_SNSUser"><path codeLine="128" d="M1565.75,777.4164 C1637.68,801.6964 1767.76,839.3564 1882.5,839.3564 C1882.5,839.3564 1882.5,839.3564 3079,839.3564 C3194.95,839.3564 3268.52,464.3664 3296.82,287.1164 " fill="none" id="LegacySystemFile-SNSUser" style="stroke:#181818;stroke-width:1.0;"/><polygon fill="#000000" points="2567.3108,829.1697,2557.8071,828.8069,2559.4089,834.4623,2567.3108,829.1697" style="stroke:#000000;stroke-width:1.0;"/><text fill="#000000" font-family="sans-serif" font-size="13" lengthAdjust="spacing" textLength="37" x="2571.5" y="835.8516">knows</text><text fill="#000000" font-family="sans-serif" font-size="13" lengthAdjust="spacing" textLength="5" x="1575.8672" y="798.8529">*</text><text fill="#000000" font-family="sans-serif" font-size="13" lengthAdjust="spacing" textLength="5" x="3290.5429" y="308.1911">*</text></g><!--MD5=[fbf6bd42d9db68b6db10d37fc00bacb0]
link ScheduleVaccine to VaccinationCenter--><g id="link_ScheduleVaccine_VaccinationCenter"><path codeLine="130" d="M1954.14,456.2564 C2006.6,454.0264 2080.3,451.1064 2145,449.3564 C2372.92,443.1864 2642.79,440.1464 2769.88,438.9664 " fill="none" id="ScheduleVaccine-VaccinationCenter" style="stroke:#181818;stroke-width:1.0;"/><polygon fill="#000000" points="2340.5011,435.6382,2349.6065,438.3848,2349.4819,432.5082,2340.5011,435.6382" style="stroke:#000000;stroke-width:1.0;"/><text fill="#000000" font-family="sans-serif" font-size="13" lengthAdjust="spacing" textLength="21" x="2354.5" y="440.8516">has</text><text fill="#000000" font-family="sans-serif" font-size="13" lengthAdjust="spacing" textLength="5" x="1962.1397" y="452.5448">*</text><text fill="#000000" font-family="sans-serif" font-size="13" lengthAdjust="spacing" textLength="7" x="2754.8754" y="453.3853">1</text></g><!--MD5=[b6f342dd84fd94becfb65fe9e3b69293]
link ScheduleVaccine to VaccineType--><g id="link_ScheduleVaccine_VaccineType"><path codeLine="131" d="M1954.35,471.2764 C2011.6,481.0464 2091.58,494.6864 2144.77,503.7664 " fill="none" id="ScheduleVaccine-VaccineType" style="stroke:#181818;stroke-width:1.0;"/><polygon fill="#000000" points="2040.9288,475.3732,2032.5068,470.9548,2031.5182,476.7489,2040.9288,475.3732" style="stroke:#000000;stroke-width:1.0;"/><text fill="#000000" font-family="sans-serif" font-size="13" lengthAdjust="spacing" textLength="53" x="2045" y="479.8516">for taking</text><text fill="#000000" font-family="sans-serif" font-size="13" lengthAdjust="spacing" textLength="5" x="1961.9142" y="486.8327">*</text><text fill="#000000" font-family="sans-serif" font-size="13" lengthAdjust="spacing" textLength="7" x="2129.989" y="517.0914">1</text></g><!--MD5=[f6a1a341a13002cb75b434daa3925f23]
link SortAlgorithm to LegacySystemFile--><g id="link_SortAlgorithm_LegacySystemFile"><path codeLine="133" d="M1210.09,757.3564 C1271.59,757.3564 1369.18,757.3564 1435.9,757.3564 " fill="none" id="SortAlgorithm-LegacySystemFile" style="stroke:#181818;stroke-width:1.0;"/><polygon fill="#000000" points="1261,748.5322,1251.9549,745.5933,1251.9549,751.4712,1261,748.5322" style="stroke:#000000;stroke-width:1.0;"/><text fill="#000000" font-family="sans-serif" font-size="13" lengthAdjust="spacing" textLength="140" x="1265" y="753.8516">sort the information from</text><text fill="#000000" font-family="sans-serif" font-size="13" lengthAdjust="spacing" textLength="7" x="1218.0453" y="771.8991">1</text><text fill="#000000" font-family="sans-serif" font-size="13" lengthAdjust="spacing" textLength="5" x="1423.0522" y="771.6947">*</text></g><!--MD5=[b642d3dcd838b142a59054da7986f07e]
link Vaccine to AgeGroup--><g id="link_Vaccine_AgeGroup"><path codeLine="135" d="M1192.65,479.3564 C1252.93,479.3564 1367.56,479.3564 1440.89,479.3564 " fill="none" id="Vaccine-AgeGroup" style="stroke:#181818;stroke-width:1.0;"/><polygon fill="#000000" points="1299,470.5322,1289.9549,467.5933,1289.9549,473.4712,1299,470.5322" style="stroke:#000000;stroke-width:1.0;"/><text fill="#000000" font-family="sans-serif" font-size="13" lengthAdjust="spacing" textLength="64" x="1303" y="475.8516">constituted</text><text fill="#000000" font-family="sans-serif" font-size="13" lengthAdjust="spacing" textLength="7" x="1200.6033" y="475.4732">1</text><text fill="#000000" font-family="sans-serif" font-size="13" lengthAdjust="spacing" textLength="20" x="1412.7833" y="493.7036">1..*</text></g><!--MD5=[fca1f18a452ae0c7cd260d88933ff796]
link Vaccine to LegacySystemFile--><g id="link_Vaccine_LegacySystemFile"><path codeLine="136" d="M1192.69,518.7364 C1202.57,529.4664 1212.69,541.4364 1221,553.3564 C1237.82,577.4964 1229.72,592.0364 1251,612.3564 C1305.67,664.5564 1340.7,644.2764 1406,682.3564 C1434.19,698.7964 1464.04,721.2964 1484.22,737.3564 " fill="none" id="Vaccine-LegacySystemFile" style="stroke:#181818;stroke-width:1.0;"/><polygon fill="#000000" points="1259.9998,600.5325,1265.473,608.3103,1268.9994,603.6078,1259.9998,600.5325" style="stroke:#000000;stroke-width:1.0;"/><text fill="#000000" font-family="sans-serif" font-size="13" lengthAdjust="spacing" textLength="124" x="1273" y="608.8516">has information about</text><text fill="#000000" font-family="sans-serif" font-size="13" lengthAdjust="spacing" textLength="5" x="1200.4723" y="540.7177">*</text><text fill="#000000" font-family="sans-serif" font-size="13" lengthAdjust="spacing" textLength="5" x="1470.7124" y="726.3304">*</text></g><!--MD5=[3568623adf67b2630dce9e60c05bd02a]
link Vaccine to VaccineType--><g id="link_Vaccine_VaccineType"><path codeLine="137" d="M1192.86,491.4464 C1247.41,507.1064 1347.99,533.5464 1436,543.3564 C1699.86,572.7664 2017.71,538.0164 2144.65,521.3264 " fill="none" id="Vaccine-VaccineType" style="stroke:#181818;stroke-width:1.0;"/><polygon fill="#000000" points="1672.9975,545.6891,1664.0491,542.4678,1663.8647,548.3428,1672.9975,545.6891" style="stroke:#000000;stroke-width:1.0;"/><text fill="#000000" font-family="sans-serif" font-size="13" lengthAdjust="spacing" textLength="24" x="1677" y="550.8516">is of</text><text fill="#000000" font-family="sans-serif" font-size="13" lengthAdjust="spacing" textLength="5" x="1200.3984" y="508.4395">*</text><text fill="#000000" font-family="sans-serif" font-size="13" lengthAdjust="spacing" textLength="7" x="2129.8536" y="536.9013">1</text></g><!--MD5=[951a07871a6512bd4f8e62baa1d062ce]
link VaccineAdministration to SNSUser--><g id="link_VaccineAdministration_SNSUser"><path codeLine="139" d="M888.37,302.2464 C947.81,243.7464 1046.17,166.3564 1150.5,166.3564 C1150.5,166.3564 1150.5,166.3564 3079,166.3564 C3134.51,166.3564 3196.89,174.9764 3242.83,182.9764 " fill="none" id="VaccineAdministration-SNSUser" style="stroke:#181818;stroke-width:1.0;"/><polygon fill="#000000" points="2158.4936,157.2793,2149.3114,154.8017,2149.6088,160.672,2158.4936,157.2793" style="stroke:#000000;stroke-width:1.0;"/><text fill="#000000" font-family="sans-serif" font-size="13" lengthAdjust="spacing" textLength="92" x="2162.5" y="162.8516">administered on</text><text fill="#000000" font-family="sans-serif" font-size="13" lengthAdjust="spacing" textLength="5" x="889.8878" y="291.4215">*</text><text fill="#000000" font-family="sans-serif" font-size="13" lengthAdjust="spacing" textLength="7" x="3227.9911" y="195.9092">1</text></g><!--MD5=[d96ee281cdb1021d3c4ed227c45512e2]
link VaccineAdministration to Vaccine--><g id="link_VaccineAdministration_Vaccine"><path codeLine="140" d="M915.02,410.7264 C925,415.2764 935.14,419.6064 945,423.3564 C1000.98,444.6864 1068.4,461.4464 1110.37,470.8764 " fill="none" id="VaccineAdministration-Vaccine" style="stroke:#181818;stroke-width:1.0;"/><polygon fill="#000000" points="945.2214,413.0609,953.0011,418.5314,954.7308,412.9138,945.2214,413.0609" style="stroke:#000000;stroke-width:1.0;"/><text fill="#000000" font-family="sans-serif" font-size="13" lengthAdjust="spacing" textLength="92" x="959" y="419.8516">is administrated</text><text fill="#000000" font-family="sans-serif" font-size="13" lengthAdjust="spacing" textLength="5" x="923.1343" y="429.0635">*</text><text fill="#000000" font-family="sans-serif" font-size="13" lengthAdjust="spacing" textLength="7" x="1095.4203" y="484.3327">1</text></g><!--MD5=[fdd7b1c8335b33574692999e8b7bcd0e]
link VaccineAdministration to Dose--><g id="link_VaccineAdministration_Dose"><path codeLine="141" d="M915.14,355.8064 C925.19,354.8264 935.32,353.9764 945,353.3564 C1249.18,333.8664 1609.95,335.3964 1781.79,337.6264 " fill="none" id="VaccineAdministration-Dose" style="stroke:#181818;stroke-width:1.0;"/><polygon fill="#000000" points="1320.4989,329.4274,1311.3942,326.6788,1311.5174,332.5553,1320.4989,329.4274" style="stroke:#000000;stroke-width:1.0;"/><text fill="#000000" font-family="sans-serif" font-size="13" lengthAdjust="spacing" textLength="21" x="1324.5" y="334.8516">has</text><text fill="#000000" font-family="sans-serif" font-size="13" lengthAdjust="spacing" textLength="5" x="922.99" y="351.663">*</text><text fill="#000000" font-family="sans-serif" font-size="13" lengthAdjust="spacing" textLength="7" x="1767.0636" y="351.6012">1</text></g><!--MD5=[48f0bb9211042db49f944cf8ab8d6ff6]
link VaccineAdministration to ScheduleVaccine--><g id="link_VaccineAdministration_ScheduleVaccine"><path codeLine="142" d="M915.18,365.4864 C1111.81,364.1364 1594.49,364.7964 1752,401.3564 C1772.41,406.0964 1793.56,414.0264 1812.74,422.5164 " fill="none" id="VaccineAdministration-ScheduleVaccine" style="stroke:#181818;stroke-width:1.0;"/><polygon fill="#000000" points="1309.9899,358.8493,1301.1494,355.3427,1300.7767,361.2087,1309.9899,358.8493" style="stroke:#000000;stroke-width:1.0;"/><text fill="#000000" font-family="sans-serif" font-size="13" lengthAdjust="spacing" textLength="42" x="1314" y="363.8516">fulfilling</text><text fill="#000000" font-family="sans-serif" font-size="13" lengthAdjust="spacing" textLength="7" x="923.1226" y="379.6301">1</text><text fill="#000000" font-family="sans-serif" font-size="13" lengthAdjust="spacing" textLength="7" x="1798.0819" y="433.0443">1</text></g><!--MD5=[cb079fdcbc1526187bfe8d9c06fb315e]
link VaccineType to CommunityMassVaccinationCenter--><g id="link_VaccineType_CommunityMassVaccinationCenter"><path codeLine="144" d="M2259.41,513.3564 C2311.54,513.3564 2390.83,513.3564 2457.82,513.3564 " fill="none" id="VaccineType-CommunityMassVaccinationCenter" style="stroke:#181818;stroke-width:1.0;"/><polygon fill="#000000" points="2315,504.5322,2305.9549,501.5933,2305.9549,507.4712,2315,504.5322" style="stroke:#000000;stroke-width:1.0;"/><text fill="#000000" font-family="sans-serif" font-size="13" lengthAdjust="spacing" textLength="92" x="2319" y="509.8516">administered by</text><text fill="#000000" font-family="sans-serif" font-size="13" lengthAdjust="spacing" textLength="7" x="2266.8334" y="527.8585">1</text><text fill="#000000" font-family="sans-serif" font-size="13" lengthAdjust="spacing" textLength="5" x="2445.009" y="527.3498">*</text></g><!--MD5=[f558e7d7143b2496643cfca392b63012]
link VaccineType to Company--><g id="link_VaccineType_Company"><path codeLine="145" d="M2175.81,466.8464 C2129.42,388.1864 2022.47,237.3564 1884.5,237.3564 C828.5,237.3564 828.5,237.3564 828.5,237.3564 C742.08,237.3564 642.2,253.5164 585.67,264.1764 " fill="none" id="VaccineType-Company" style="stroke:#181818;stroke-width:1.0;"/><polygon fill="#000000" points="1261.4599,229.1644,1252.8589,225.1055,1252.1158,230.9361,1261.4599,229.1644" style="stroke:#000000;stroke-width:1.0;"/><text fill="#000000" font-family="sans-serif" font-size="13" lengthAdjust="spacing" textLength="139" x="1265.5" y="233.8516">promotes administration</text><text fill="#000000" font-family="sans-serif" font-size="13" lengthAdjust="spacing" textLength="5" x="2166.4168" y="456.0348">*</text><text fill="#000000" font-family="sans-serif" font-size="13" lengthAdjust="spacing" textLength="7" x="593.5862" y="277.5426">1</text></g><!--MD5=[5601d55443ed78de9e09f3c2d8a99274]
link VaccinationCenter to ArrivalSNSUser--><g id="link_VaccinationCenter_ArrivalSNSUser"><path codeLine="146" d="M2918.09,438.3564 C2948.77,438.3564 2984.11,438.3564 3013.67,438.3564 " fill="none" id="VaccinationCenter-ArrivalSNSUser" style="stroke:#181818;stroke-width:1.0;"/><polygon fill="#000000" points="2958,429.5322,2948.9549,426.5933,2948.9549,432.4712,2958,429.5322" style="stroke:#000000;stroke-width:1.0;"/><text fill="#000000" font-family="sans-serif" font-size="13" lengthAdjust="spacing" textLength="21" x="2962" y="434.8516">has</text><text fill="#000000" font-family="sans-serif" font-size="13" lengthAdjust="spacing" textLength="7" x="2926.0915" y="452.7124">1</text><text fill="#000000" font-family="sans-serif" font-size="13" lengthAdjust="spacing" textLength="5" x="3000.9428" y="452.7842">*</text></g><!--MD5=[9a28c73d7dbe649487d8c1ea2b6a6a23]
reverse link Employee to EmployeeRole--><g id="link_Employee_EmployeeRole"><path codeLine="152" d="M367.46,440.3564 C403.19,440.3564 444.55,440.3564 477.64,440.3564 " fill="none" id="Employee-backto-EmployeeRole" style="stroke:#181818;stroke-width:1.0;"/><polygon fill="none" points="354.07,440.3564,360.07,444.3564,366.07,440.3564,360.07,436.3564,354.07,440.3564" style="stroke:#181818;stroke-width:1.0;"/></g><!--MD5=[a256def524536db3afc32e8d43d87246]
@startuml
hide methods
left to right direction
skinparam classAttributeIconSize 0

class Company {
    -designation
}

class CenterCoordinator {
}

class Employee {
    -id
    -name
    -address
    -phoneNumber
    -citizenCardNumber
    -role
}

class EmployeeRole {
    -id
    -designation
}

class SNSUser {
    -name
    -sex
    -phoneNumber
    -email
    -address
    -birthDate
    -SNSNumber
    -citizenCardNumber
}

class VaccinationCenter {
    -name
    -phoneNumber
    -email
    -address
    -faxNumber
    -website
}

class CommunityMassVaccinationCenter {
}

class HealthCareCenter {
}

class ScheduleVaccine {
    -date
    -time
}

class ArrivalSNSUser {
    -date
    -time
}

class VaccineAdministration {
    -lotNumber
    -administrationDate
    -administrationTime
    -leavingDate
    -leavingTime
}

class VaccineType {
    -code
    -description
    -technology
}

class Vaccine {
    -id
    -name
    -brand
}

class Dose {
    -doseNumber
    -dosage
    -timeIntervalBetweenLastDose
}

class AgeGroup {
    -minAge
    -maxAge
    -dosesAdministered
}

class LegacySystemFile {
}

class SortAlgorithm {
}

'- - - - - Generalization - - - - -

CommunityMassVaccinationCenter - -|> VaccinationCenter
HealthCareCenter - -|> VaccinationCenter
CenterCoordinator - -|> Employee

'- - - - - - - - - - - - - - - - - - - - - - - - - -

'- - - - - - - - Relations - - - - - - - -

AgeGroup "1" - - "1..*" Dose : has >
ArrivalSNSUser "1" - - "*" SNSUser : have >

CenterCoordinator "1" - - "1" CommunityMassVaccinationCenter : manage >
CenterCoordinator "1" - - "*" LegacySystemFile : imported by <

Company "1" - - "*" SNSUser : owns >
Company "1" - - "*" VaccinationCenter : manage >
Company "1" - - "*" Vaccine : applies >
Company "1" - - "*" VaccineAdministration : applies >

Employee "*" - - "1" Company : employs <

HealthCareCenter "1" - - "*" VaccineType : can administer >

LegacySystemFile "*" - - "*" ScheduleVaccine : has information about >
LegacySystemFile "*" - - "*" ArrivalSNSUser : has information about >
LegacySystemFile "*" - - "*" VaccineAdministration : has information about >
LegacySystemFile "*" - - "*" SNSUser : knows >

ScheduleVaccine "*" - - "1" VaccinationCenter : has <
ScheduleVaccine "*" - - "1" VaccineType : for taking >

SortAlgorithm "1" - - "*" LegacySystemFile : sort the information from >

Vaccine "1" - - "1..*" AgeGroup : constituted >
Vaccine "*" - - "*" LegacySystemFile : has information about <
Vaccine "*" - - "1" VaccineType : is of >

VaccineAdministration "*" - - "1" SNSUser : administered on >
VaccineAdministration "*" - - "1" Vaccine : is administrated <
VaccineAdministration "*" - - "1" Dose : has >
VaccineAdministration "1" - - "1" ScheduleVaccine : fulfilling >

VaccineType "1" - - "*" CommunityMassVaccinationCenter : administered by >
VaccineType "*" - - "1" Company : promotes administration <
VaccinationCenter "1" - - "*" ArrivalSNSUser : has >

'- - - - - - - - - - - - - - - - - - - - - - - - - -

'- - - - - - - Aggregation - - - - - -

Employee o- - EmployeeRole

'- - - - - - - - - - - - - - - - - - - - - - - - - -

@enduml

@startuml
hide methods
left to right direction
skinparam classAttributeIconSize 0

class Company {
    -designation
}

class CenterCoordinator {
}

class Employee {
    -id
    -name
    -address
    -phoneNumber
    -citizenCardNumber
    -role
}

class EmployeeRole {
    -id
    -designation
}

class SNSUser {
    -name
    -sex
    -phoneNumber
    -email
    -address
    -birthDate
    -SNSNumber
    -citizenCardNumber
}

class VaccinationCenter {
    -name
    -phoneNumber
    -email
    -address
    -faxNumber
    -website
}

class CommunityMassVaccinationCenter {
}

class HealthCareCenter {
}

class ScheduleVaccine {
    -date
    -time
}

class ArrivalSNSUser {
    -date
    -time
}

class VaccineAdministration {
    -lotNumber
    -administrationDate
    -administrationTime
    -leavingDate
    -leavingTime
}

class VaccineType {
    -code
    -description
    -technology
}

class Vaccine {
    -id
    -name
    -brand
}

class Dose {
    -doseNumber
    -dosage
    -timeIntervalBetweenLastDose
}

class AgeGroup {
    -minAge
    -maxAge
    -dosesAdministered
}

class LegacySystemFile {
}

class SortAlgorithm {
}


CommunityMassVaccinationCenter - -|> VaccinationCenter
HealthCareCenter - -|> VaccinationCenter
CenterCoordinator - -|> Employee



AgeGroup "1" - - "1..*" Dose : has >
ArrivalSNSUser "1" - - "*" SNSUser : have >

CenterCoordinator "1" - - "1" CommunityMassVaccinationCenter : manage >
CenterCoordinator "1" - - "*" LegacySystemFile : imported by <

Company "1" - - "*" SNSUser : owns >
Company "1" - - "*" VaccinationCenter : manage >
Company "1" - - "*" Vaccine : applies >
Company "1" - - "*" VaccineAdministration : applies >

Employee "*" - - "1" Company : employs <

HealthCareCenter "1" - - "*" VaccineType : can administer >

LegacySystemFile "*" - - "*" ScheduleVaccine : has information about >
LegacySystemFile "*" - - "*" ArrivalSNSUser : has information about >
LegacySystemFile "*" - - "*" VaccineAdministration : has information about >
LegacySystemFile "*" - - "*" SNSUser : knows >

ScheduleVaccine "*" - - "1" VaccinationCenter : has <
ScheduleVaccine "*" - - "1" VaccineType : for taking >

SortAlgorithm "1" - - "*" LegacySystemFile : sort the information from >

Vaccine "1" - - "1..*" AgeGroup : constituted >
Vaccine "*" - - "*" LegacySystemFile : has information about <
Vaccine "*" - - "1" VaccineType : is of >

VaccineAdministration "*" - - "1" SNSUser : administered on >
VaccineAdministration "*" - - "1" Vaccine : is administrated <
VaccineAdministration "*" - - "1" Dose : has >
VaccineAdministration "1" - - "1" ScheduleVaccine : fulfilling >

VaccineType "1" - - "*" CommunityMassVaccinationCenter : administered by >
VaccineType "*" - - "1" Company : promotes administration <
VaccinationCenter "1" - - "*" ArrivalSNSUser : has >



Employee o- - EmployeeRole


@enduml

PlantUML version 1.2022.5(Sat Apr 30 11:55:52 BST 2022)
(GPL source distribution)
Java Runtime: OpenJDK Runtime Environment
JVM: OpenJDK 64-Bit Server VM
Default Encoding: Cp1252
Language: pt
Country: PT
--></g></svg>