<?xml version="1.0" encoding="UTF-8" standalone="no"?><svg xmlns="http://www.w3.org/2000/svg" xmlns:xlink="http://www.w3.org/1999/xlink" contentStyleType="text/css" height="581px" preserveAspectRatio="none" style="width:779px;height:581px;background:#FFFFFF;" version="1.1" viewBox="0 0 779 581" width="779px" zoomAndPan="magnify"><defs/><g><rect fill="#FFFFFF" height="389.2734" style="stroke:#181818;stroke-width:1.0;" width="10" x="64" y="92.6094"/><rect fill="#FFFFFF" height="30.3516" style="stroke:#181818;stroke-width:1.0;" width="10" x="603" y="114.9609"/><rect fill="#FFFFFF" height="49.7031" style="stroke:#181818;stroke-width:1.0;" width="10" x="603" y="175.6641"/><rect fill="#FFFFFF" height="49.7031" style="stroke:#181818;stroke-width:1.0;" width="10" x="603" y="275.0703"/><rect fill="#FFFFFF" height="46.7031" style="stroke:#181818;stroke-width:1.0;" width="10" x="603" y="374.4766"/><rect fill="#FFFFFF" height="30.3516" style="stroke:#181818;stroke-width:1.0;" width="10" x="603" y="451.5313"/><line style="stroke:#181818;stroke-width:0.5;stroke-dasharray:5.0,5.0;" x1="69" x2="69" y1="82.6094" y2="499.8828"/><line style="stroke:#181818;stroke-width:0.5;stroke-dasharray:5.0,5.0;" x1="608" x2="608" y1="82.6094" y2="499.8828"/><text fill="#000000" font-family="sans-serif" font-size="14" lengthAdjust="spacing" textLength="122" x="5" y="79.5332">Center Coordinator</text><ellipse cx="69" cy="13.5" fill="#E2E2F0" rx="8" ry="8" style="stroke:#181818;stroke-width:0.5;"/><path d="M69,21.5 L69,48.5 M56,29.5 L82,29.5 M69,48.5 L56,63.5 M69,48.5 L82,63.5 " fill="none" style="stroke:#181818;stroke-width:0.5;"/><text fill="#000000" font-family="sans-serif" font-size="14" lengthAdjust="spacing" textLength="122" x="5" y="513.416">Center Coordinator</text><ellipse cx="69" cy="524.9922" fill="#E2E2F0" rx="8" ry="8" style="stroke:#181818;stroke-width:0.5;"/><path d="M69,532.9922 L69,559.9922 M56,540.9922 L82,540.9922 M69,559.9922 L56,574.9922 M69,559.9922 L82,574.9922 " fill="none" style="stroke:#181818;stroke-width:0.5;"/><rect fill="#E2E2F0" height="31.6094" rx="2.5" ry="2.5" style="stroke:#181818;stroke-width:0.5;" width="64" x="576" y="50"/><text fill="#000000" font-family="sans-serif" font-size="14" lengthAdjust="spacing" textLength="50" x="583" y="71.5332">:System</text><rect fill="#E2E2F0" height="31.6094" rx="2.5" ry="2.5" style="stroke:#181818;stroke-width:0.5;" width="64" x="576" y="498.8828"/><text fill="#000000" font-family="sans-serif" font-size="14" lengthAdjust="spacing" textLength="50" x="583" y="520.416">:System</text><rect fill="#FFFFFF" height="389.2734" style="stroke:#181818;stroke-width:1.0;" width="10" x="64" y="92.6094"/><rect fill="#FFFFFF" height="30.3516" style="stroke:#181818;stroke-width:1.0;" width="10" x="603" y="114.9609"/><rect fill="#FFFFFF" height="49.7031" style="stroke:#181818;stroke-width:1.0;" width="10" x="603" y="175.6641"/><rect fill="#FFFFFF" height="49.7031" style="stroke:#181818;stroke-width:1.0;" width="10" x="603" y="275.0703"/><rect fill="#FFFFFF" height="46.7031" style="stroke:#181818;stroke-width:1.0;" width="10" x="603" y="374.4766"/><rect fill="#FFFFFF" height="30.3516" style="stroke:#181818;stroke-width:1.0;" width="10" x="603" y="451.5313"/><polygon fill="#181818" points="591,110.9609,601,114.9609,591,118.9609,595,114.9609" style="stroke:#181818;stroke-width:1.0;"/><line style="stroke:#181818;stroke-width:1.0;" x1="74" x2="597" y1="114.9609" y2="114.9609"/><text fill="#000000" font-family="sans-serif" font-size="13" font-weight="bold" lengthAdjust="spacing" textLength="7" x="81" y="110.1045">1</text><text fill="#000000" font-family="sans-serif" font-size="13" lengthAdjust="spacing" textLength="373" x="92" y="110.1045">start asking to import data present in a file from a legacy system</text><polygon fill="#181818" points="85,141.3125,75,145.3125,85,149.3125,81,145.3125" style="stroke:#181818;stroke-width:1.0;"/><line style="stroke:#181818;stroke-width:1.0;stroke-dasharray:2.0,2.0;" x1="79" x2="607" y1="145.3125" y2="145.3125"/><text fill="#000000" font-family="sans-serif" font-size="13" font-weight="bold" lengthAdjust="spacing" textLength="7" x="91" y="140.4561">2</text><text fill="#000000" font-family="sans-serif" font-size="13" lengthAdjust="spacing" textLength="273" x="102" y="140.4561">asks to insert the path of the file to be imported</text><polygon fill="#181818" points="591,171.6641,601,175.6641,591,179.6641,595,175.6641" style="stroke:#181818;stroke-width:1.0;"/><line style="stroke:#181818;stroke-width:1.0;" x1="74" x2="597" y1="175.6641" y2="175.6641"/><text fill="#000000" font-family="sans-serif" font-size="13" font-weight="bold" lengthAdjust="spacing" textLength="7" x="81" y="170.8076">3</text><text fill="#000000" font-family="sans-serif" font-size="13" lengthAdjust="spacing" textLength="140" x="92" y="170.8076">insert the path to the file</text><polygon fill="#181818" points="85,221.3672,75,225.3672,85,229.3672,81,225.3672" style="stroke:#181818;stroke-width:1.0;"/><line style="stroke:#181818;stroke-width:1.0;stroke-dasharray:2.0,2.0;" x1="79" x2="607" y1="225.3672" y2="225.3672"/><text fill="#000000" font-family="sans-serif" font-size="13" font-weight="bold" lengthAdjust="spacing" textLength="7" x="91" y="220.5107">4</text><text fill="#000000" font-family="sans-serif" font-size="13" lengthAdjust="spacing" textLength="444" x="102" y="220.5107">show the actual list of data to be imported and asks to select the sort criteria</text><path d="M618,188.6641 L618,247.6641 L772,247.6641 L772,198.6641 L762,188.6641 L618,188.6641 " fill="#FEFFDD" style="stroke:#181818;stroke-width:0.5;"/><path d="M762,188.6641 L762,198.6641 L772,198.6641 L762,188.6641 " fill="#FEFFDD" style="stroke:#181818;stroke-width:0.5;"/><text fill="#000000" font-family="sans-serif" font-size="13" lengthAdjust="spacing" textLength="21" x="624" y="207.1592">The</text><text fill="#000000" font-family="sans-serif" font-size="13" font-weight="bold" lengthAdjust="spacing" textLength="72" x="649" y="207.1592">sort criteria</text><text fill="#000000" font-family="sans-serif" font-size="13" lengthAdjust="spacing" textLength="32" x="725" y="207.1592">is the</text><text fill="#000000" font-family="sans-serif" font-size="13" lengthAdjust="spacing" textLength="125" x="624" y="223.5107">data field used to sort</text><text fill="#000000" font-family="sans-serif" font-size="13" lengthAdjust="spacing" textLength="102" x="624" y="239.8623">all the information</text><polygon fill="#181818" points="591,271.0703,601,275.0703,591,279.0703,595,275.0703" style="stroke:#181818;stroke-width:1.0;"/><line style="stroke:#181818;stroke-width:1.0;" x1="74" x2="597" y1="275.0703" y2="275.0703"/><text fill="#000000" font-family="sans-serif" font-size="13" font-weight="bold" lengthAdjust="spacing" textLength="7" x="81" y="270.2139">5</text><text fill="#000000" font-family="sans-serif" font-size="13" lengthAdjust="spacing" textLength="133" x="92" y="270.2139">selects the sort criteria</text><polygon fill="#181818" points="85,320.7734,75,324.7734,85,328.7734,81,324.7734" style="stroke:#181818;stroke-width:1.0;"/><line style="stroke:#181818;stroke-width:1.0;stroke-dasharray:2.0,2.0;" x1="79" x2="607" y1="324.7734" y2="324.7734"/><text fill="#000000" font-family="sans-serif" font-size="13" font-weight="bold" lengthAdjust="spacing" textLength="7" x="91" y="319.917">6</text><text fill="#000000" font-family="sans-serif" font-size="13" lengthAdjust="spacing" textLength="449" x="102" y="319.917">show the data ordered by the chosen criteria and asks to select the sort order</text><path d="M618,288.0703 L618,347.0703 L761,347.0703 L761,298.0703 L751,288.0703 L618,288.0703 " fill="#FEFFDD" style="stroke:#181818;stroke-width:0.5;"/><path d="M751,288.0703 L751,298.0703 L761,298.0703 L751,288.0703 " fill="#FEFFDD" style="stroke:#181818;stroke-width:0.5;"/><text fill="#000000" font-family="sans-serif" font-size="13" lengthAdjust="spacing" textLength="21" x="624" y="306.5654">The</text><text fill="#000000" font-family="sans-serif" font-size="13" font-weight="bold" lengthAdjust="spacing" textLength="61" x="649" y="306.5654">sort order</text><text fill="#000000" font-family="sans-serif" font-size="13" lengthAdjust="spacing" textLength="32" x="714" y="306.5654">refers</text><text fill="#000000" font-family="sans-serif" font-size="13" lengthAdjust="spacing" textLength="111" x="624" y="322.917">to the ascending or</text><text fill="#000000" font-family="sans-serif" font-size="13" lengthAdjust="spacing" textLength="99" x="624" y="339.2686">descending order</text><polygon fill="#181818" points="591,370.4766,601,374.4766,591,378.4766,595,374.4766" style="stroke:#181818;stroke-width:1.0;"/><line style="stroke:#181818;stroke-width:1.0;" x1="74" x2="597" y1="374.4766" y2="374.4766"/><text fill="#000000" font-family="sans-serif" font-size="13" font-weight="bold" lengthAdjust="spacing" textLength="7" x="81" y="369.6201">7</text><text fill="#000000" font-family="sans-serif" font-size="13" lengthAdjust="spacing" textLength="123" x="92" y="369.6201">selects the sort order</text><polygon fill="#181818" points="85,417.1797,75,421.1797,85,425.1797,81,421.1797" style="stroke:#181818;stroke-width:1.0;"/><line style="stroke:#181818;stroke-width:1.0;stroke-dasharray:2.0,2.0;" x1="79" x2="607" y1="421.1797" y2="421.1797"/><text fill="#000000" font-family="sans-serif" font-size="13" font-weight="bold" lengthAdjust="spacing" textLength="7" x="91" y="408.1475">8</text><text fill="#000000" font-family="sans-serif" font-size="13" lengthAdjust="spacing" textLength="494" x="102" y="399.9717">show the chosen file path, the sort criteria, the sort order, and the data to be imported</text><text fill="#000000" font-family="sans-serif" font-size="13" lengthAdjust="spacing" textLength="365" x="106" y="416.3232">ordered by the chosen criteria and order, and asks confirmation</text><polygon fill="#181818" points="591,447.5313,601,451.5313,591,455.5313,595,451.5313" style="stroke:#181818;stroke-width:1.0;"/><line style="stroke:#181818;stroke-width:1.0;" x1="74" x2="597" y1="451.5313" y2="451.5313"/><text fill="#000000" font-family="sans-serif" font-size="13" font-weight="bold" lengthAdjust="spacing" textLength="7" x="81" y="446.6748">9</text><text fill="#000000" font-family="sans-serif" font-size="13" lengthAdjust="spacing" textLength="187" x="92" y="446.6748">confirms the data to be imported</text><polygon fill="#181818" points="80,477.8828,70,481.8828,80,485.8828,76,481.8828" style="stroke:#181818;stroke-width:1.0;"/><line style="stroke:#181818;stroke-width:1.0;stroke-dasharray:2.0,2.0;" x1="74" x2="607" y1="481.8828" y2="481.8828"/><text fill="#000000" font-family="sans-serif" font-size="13" font-weight="bold" lengthAdjust="spacing" textLength="14" x="86" y="477.0264">10</text><text fill="#000000" font-family="sans-serif" font-size="13" lengthAdjust="spacing" textLength="152" x="104" y="477.0264">informs operation success</text><!--MD5=[813e5a893e6d7e8644152b2d2677b413]
@startuml
autonumber
actor "Center Coordinator" as cc
participant ":System" as sys

activate cc
    cc -> sys : start asking to import data present in a file from a legacy system

    activate sys
        sys - -> cc : asks to insert the path of the file to be imported
    deactivate sys

    cc -> sys : insert the path to the file

    activate sys
        sys - -> cc : show the actual list of data to be imported and asks to select the sort criteria

        note right
        The **sort criteria** is the
        data field used to sort
        all the information
        end note
    deactivate sys

    cc -> sys : selects the sort criteria

    activate sys
        sys - -> cc : show the data ordered by the chosen criteria and asks to select the sort order
        note right
        The **sort order** refers
        to the ascending or
        descending order
        end note
    deactivate sys

    cc -> sys : selects the sort order

    activate sys
        sys - -> cc : show the chosen file path, the sort criteria, the sort order, and the data to be imported\n ordered by the chosen criteria and order, and asks confirmation
    deactivate sys

    cc -> sys : confirms the data to be imported
    activate sys
        sys - -> cc : informs operation success
    deactivate sys

deactivate cc

@enduml

PlantUML version 1.2022.5(Sat Apr 30 11:55:52 BST 2022)
(GPL source distribution)
Java Runtime: OpenJDK Runtime Environment
JVM: OpenJDK 64-Bit Server VM
Default Encoding: Cp1252
Language: pt
Country: PT
--></g></svg>