<?xml version="1.0" encoding="UTF-8" standalone="no"?><svg xmlns="http://www.w3.org/2000/svg" xmlns:xlink="http://www.w3.org/1999/xlink" contentScriptType="application/ecmascript" contentStyleType="text/css" height="701px" preserveAspectRatio="none" style="width:661px;height:701px;background:#FFFFFF;" version="1.1" viewBox="0 0 661 701" width="661px" zoomAndPan="magnify"><defs><filter height="300%" id="fa8jh6vpq7u2q" width="300%" x="-1" y="-1"><feGaussianBlur result="blurOut" stdDeviation="2.0"/><feColorMatrix in="blurOut" result="blurOut2" type="matrix" values="0 0 0 0 0 0 0 0 0 0 0 0 0 0 0 0 0 0 .4 0"/><feOffset dx="4.0" dy="4.0" in="blurOut2" result="blurOut3"/><feBlend in="SourceGraphic" in2="blurOut3" mode="normal"/></filter></defs><g><rect fill="#FFFFFF" filter="url(#fa8jh6vpq7u2q)" height="497.9766" style="stroke:#A80036;stroke-width:1.0;" width="10" x="69.5" y="99.6094"/><rect fill="#FFFFFF" filter="url(#fa8jh6vpq7u2q)" height="30.3516" style="stroke:#A80036;stroke-width:1.0;" width="10" x="588.5" y="121.9609"/><rect fill="#FFFFFF" filter="url(#fa8jh6vpq7u2q)" height="30.3516" style="stroke:#A80036;stroke-width:1.0;" width="10" x="588.5" y="182.6641"/><rect fill="#FFFFFF" filter="url(#fa8jh6vpq7u2q)" height="30.3516" style="stroke:#A80036;stroke-width:1.0;" width="10" x="588.5" y="243.3672"/><rect fill="#FFFFFF" filter="url(#fa8jh6vpq7u2q)" height="55.7031" style="stroke:#A80036;stroke-width:1.0;" width="10" x="588.5" y="304.0703"/><rect fill="#FFFFFF" filter="url(#fa8jh6vpq7u2q)" height="72.0547" style="stroke:#A80036;stroke-width:1.0;" width="10" x="588.5" y="390.125"/><rect fill="#FFFFFF" filter="url(#fa8jh6vpq7u2q)" height="44.3516" style="stroke:#A80036;stroke-width:1.0;" width="10" x="588.5" y="492.5313"/><rect fill="#FFFFFF" filter="url(#fa8jh6vpq7u2q)" height="30.3516" style="stroke:#A80036;stroke-width:1.0;" width="10" x="588.5" y="567.2344"/><rect fill="#FFFFFF" filter="url(#fa8jh6vpq7u2q)" height="188.4609" style="stroke:#000000;stroke-width:2.0;" width="637.5" x="10" y="319.0703"/><rect fill="#FFFFFF" filter="url(#fa8jh6vpq7u2q)" height="95.4063" style="stroke:#000000;stroke-width:2.0;" width="617.5" x="20" y="405.125"/><line style="stroke:#A80036;stroke-width:1.0;stroke-dasharray:5.0,5.0;" x1="74" x2="74" y1="89.6094" y2="615.5859"/><line style="stroke:#A80036;stroke-width:1.0;stroke-dasharray:5.0,5.0;" x1="593.5" x2="593.5" y1="89.6094" y2="615.5859"/><text fill="#000000" font-family="sans-serif" font-size="14" lengthAdjust="spacing" textLength="83" x="30" y="86.5332">Administrator</text><ellipse cx="74.5" cy="15" fill="#FEFECE" filter="url(#fa8jh6vpq7u2q)" rx="8" ry="8" style="stroke:#A80036;stroke-width:2.0;"/><path d="M74.5,23 L74.5,50 M61.5,31 L87.5,31 M74.5,50 L61.5,65 M74.5,50 L87.5,65 " fill="none" filter="url(#fa8jh6vpq7u2q)" style="stroke:#A80036;stroke-width:2.0;"/><text fill="#000000" font-family="sans-serif" font-size="14" lengthAdjust="spacing" textLength="83" x="30" y="629.1191">Administrator</text><ellipse cx="74.5" cy="642.1953" fill="#FEFECE" filter="url(#fa8jh6vpq7u2q)" rx="8" ry="8" style="stroke:#A80036;stroke-width:2.0;"/><path d="M74.5,650.1953 L74.5,677.1953 M61.5,658.1953 L87.5,658.1953 M74.5,677.1953 L61.5,692.1953 M74.5,677.1953 L87.5,692.1953 " fill="none" filter="url(#fa8jh6vpq7u2q)" style="stroke:#A80036;stroke-width:2.0;"/><rect fill="#FEFECE" filter="url(#fa8jh6vpq7u2q)" height="31.6094" style="stroke:#A80036;stroke-width:1.5;" width="64" x="559.5" y="53"/><text fill="#000000" font-family="sans-serif" font-size="14" lengthAdjust="spacing" textLength="50" x="566.5" y="74.5332">:System</text><rect fill="#FEFECE" filter="url(#fa8jh6vpq7u2q)" height="31.6094" style="stroke:#A80036;stroke-width:1.5;" width="64" x="559.5" y="614.5859"/><text fill="#000000" font-family="sans-serif" font-size="14" lengthAdjust="spacing" textLength="50" x="566.5" y="636.1191">:System</text><rect fill="#FFFFFF" filter="url(#fa8jh6vpq7u2q)" height="497.9766" style="stroke:#A80036;stroke-width:1.0;" width="10" x="69.5" y="99.6094"/><rect fill="#FFFFFF" filter="url(#fa8jh6vpq7u2q)" height="30.3516" style="stroke:#A80036;stroke-width:1.0;" width="10" x="588.5" y="121.9609"/><rect fill="#FFFFFF" filter="url(#fa8jh6vpq7u2q)" height="30.3516" style="stroke:#A80036;stroke-width:1.0;" width="10" x="588.5" y="182.6641"/><rect fill="#FFFFFF" filter="url(#fa8jh6vpq7u2q)" height="30.3516" style="stroke:#A80036;stroke-width:1.0;" width="10" x="588.5" y="243.3672"/><rect fill="#FFFFFF" filter="url(#fa8jh6vpq7u2q)" height="55.7031" style="stroke:#A80036;stroke-width:1.0;" width="10" x="588.5" y="304.0703"/><rect fill="#FFFFFF" filter="url(#fa8jh6vpq7u2q)" height="72.0547" style="stroke:#A80036;stroke-width:1.0;" width="10" x="588.5" y="390.125"/><rect fill="#FFFFFF" filter="url(#fa8jh6vpq7u2q)" height="44.3516" style="stroke:#A80036;stroke-width:1.0;" width="10" x="588.5" y="492.5313"/><rect fill="#FFFFFF" filter="url(#fa8jh6vpq7u2q)" height="30.3516" style="stroke:#A80036;stroke-width:1.0;" width="10" x="588.5" y="567.2344"/><polygon fill="#A80036" points="576.5,117.9609,586.5,121.9609,576.5,125.9609,580.5,121.9609" style="stroke:#A80036;stroke-width:1.0;"/><line style="stroke:#A80036;stroke-width:1.0;" x1="79.5" x2="582.5" y1="121.9609" y2="121.9609"/><text fill="#000000" font-family="sans-serif" font-size="13" font-weight="bold" lengthAdjust="spacing" textLength="7" x="86.5" y="117.1045">1</text><text fill="#000000" font-family="sans-serif" font-size="13" lengthAdjust="spacing" textLength="346" x="97.5" y="117.1045">asks to create a new vaccine and its administration process</text><polygon fill="#A80036" points="90.5,148.3125,80.5,152.3125,90.5,156.3125,86.5,152.3125" style="stroke:#A80036;stroke-width:1.0;"/><line style="stroke:#A80036;stroke-width:1.0;stroke-dasharray:2.0,2.0;" x1="84.5" x2="592.5" y1="152.3125" y2="152.3125"/><text fill="#000000" font-family="sans-serif" font-size="13" font-weight="bold" lengthAdjust="spacing" textLength="7" x="96.5" y="147.4561">2</text><text fill="#000000" font-family="sans-serif" font-size="13" lengthAdjust="spacing" textLength="250" x="107.5" y="147.4561">requests data for the vaccine (name, brand)</text><polygon fill="#A80036" points="576.5,178.6641,586.5,182.6641,576.5,186.6641,580.5,182.6641" style="stroke:#A80036;stroke-width:1.0;"/><line style="stroke:#A80036;stroke-width:1.0;" x1="79.5" x2="582.5" y1="182.6641" y2="182.6641"/><text fill="#000000" font-family="sans-serif" font-size="13" font-weight="bold" lengthAdjust="spacing" textLength="7" x="86.5" y="177.8076">3</text><text fill="#000000" font-family="sans-serif" font-size="13" lengthAdjust="spacing" textLength="122" x="97.5" y="177.8076">types requested data</text><polygon fill="#A80036" points="90.5,209.0156,80.5,213.0156,90.5,217.0156,86.5,213.0156" style="stroke:#A80036;stroke-width:1.0;"/><line style="stroke:#A80036;stroke-width:1.0;stroke-dasharray:2.0,2.0;" x1="84.5" x2="592.5" y1="213.0156" y2="213.0156"/><text fill="#000000" font-family="sans-serif" font-size="13" font-weight="bold" lengthAdjust="spacing" textLength="7" x="96.5" y="208.1592">4</text><text fill="#000000" font-family="sans-serif" font-size="13" lengthAdjust="spacing" textLength="263" x="107.5" y="208.1592">shows vaccine type list and ask to select one</text><polygon fill="#A80036" points="576.5,239.3672,586.5,243.3672,576.5,247.3672,580.5,243.3672" style="stroke:#A80036;stroke-width:1.0;"/><line style="stroke:#A80036;stroke-width:1.0;" x1="79.5" x2="582.5" y1="243.3672" y2="243.3672"/><text fill="#000000" font-family="sans-serif" font-size="13" font-weight="bold" lengthAdjust="spacing" textLength="7" x="86.5" y="238.5107">5</text><text fill="#000000" font-family="sans-serif" font-size="13" lengthAdjust="spacing" textLength="129" x="97.5" y="238.5107">selects a vaccine type</text><polygon fill="#A80036" points="90.5,269.7188,80.5,273.7188,90.5,277.7188,86.5,273.7188" style="stroke:#A80036;stroke-width:1.0;"/><line style="stroke:#A80036;stroke-width:1.0;stroke-dasharray:2.0,2.0;" x1="84.5" x2="592.5" y1="273.7188" y2="273.7188"/><text fill="#000000" font-family="sans-serif" font-size="13" font-weight="bold" lengthAdjust="spacing" textLength="7" x="96.5" y="268.8623">6</text><text fill="#000000" font-family="sans-serif" font-size="13" lengthAdjust="spacing" textLength="179" x="107.5" y="268.8623">requests number of age groups</text><polygon fill="#A80036" points="576.5,300.0703,586.5,304.0703,576.5,308.0703,580.5,304.0703" style="stroke:#A80036;stroke-width:1.0;"/><line style="stroke:#A80036;stroke-width:1.0;" x1="79.5" x2="582.5" y1="304.0703" y2="304.0703"/><text fill="#000000" font-family="sans-serif" font-size="13" font-weight="bold" lengthAdjust="spacing" textLength="7" x="86.5" y="299.2139">7</text><text fill="#000000" font-family="sans-serif" font-size="13" lengthAdjust="spacing" textLength="122" x="97.5" y="299.2139">types requested data</text><path d="M10,319.0703 L83,319.0703 L83,327.0703 L73,337.0703 L10,337.0703 L10,319.0703 " fill="#EEEEEE" style="stroke:#000000;stroke-width:1.0;"/><rect fill="none" height="188.4609" style="stroke:#000000;stroke-width:2.0;" width="637.5" x="10" y="319.0703"/><text fill="#000000" font-family="sans-serif" font-size="13" font-weight="bold" lengthAdjust="spacing" textLength="28" x="25" y="333.5654">loop</text><polygon fill="#A80036" points="90.5,355.7734,80.5,359.7734,90.5,363.7734,86.5,359.7734" style="stroke:#A80036;stroke-width:1.0;"/><line style="stroke:#A80036;stroke-width:1.0;stroke-dasharray:2.0,2.0;" x1="84.5" x2="592.5" y1="359.7734" y2="359.7734"/><text fill="#000000" font-family="sans-serif" font-size="13" font-weight="bold" lengthAdjust="spacing" textLength="7" x="96.5" y="354.917">8</text><text fill="#000000" font-family="sans-serif" font-size="13" lengthAdjust="spacing" textLength="474" x="107.5" y="354.917">requests data for age group (minimum age, maximum age, doses to administered)</text><polygon fill="#A80036" points="576.5,386.125,586.5,390.125,576.5,394.125,580.5,390.125" style="stroke:#A80036;stroke-width:1.0;"/><line style="stroke:#A80036;stroke-width:1.0;" x1="79.5" x2="582.5" y1="390.125" y2="390.125"/><text fill="#000000" font-family="sans-serif" font-size="13" font-weight="bold" lengthAdjust="spacing" textLength="7" x="86.5" y="385.2686">9</text><text fill="#000000" font-family="sans-serif" font-size="13" lengthAdjust="spacing" textLength="122" x="97.5" y="385.2686">types requested data</text><path d="M20,405.125 L93,405.125 L93,413.125 L83,423.125 L20,423.125 L20,405.125 " fill="#EEEEEE" style="stroke:#000000;stroke-width:1.0;"/><rect fill="none" height="95.4063" style="stroke:#000000;stroke-width:2.0;" width="617.5" x="20" y="405.125"/><text fill="#000000" font-family="sans-serif" font-size="13" font-weight="bold" lengthAdjust="spacing" textLength="28" x="35" y="419.6201">loop</text><polygon fill="#A80036" points="90.5,458.1797,80.5,462.1797,90.5,466.1797,86.5,462.1797" style="stroke:#A80036;stroke-width:1.0;"/><line style="stroke:#A80036;stroke-width:1.0;stroke-dasharray:2.0,2.0;" x1="84.5" x2="592.5" y1="462.1797" y2="462.1797"/><text fill="#000000" font-family="sans-serif" font-size="13" font-weight="bold" lengthAdjust="spacing" textLength="14" x="96.5" y="449.1475">10</text><text fill="#000000" font-family="sans-serif" font-size="13" lengthAdjust="spacing" textLength="395" x="114.5" y="440.9717">requests data for the administration process (dose number,  dosage,</text><text fill="#000000" font-family="sans-serif" font-size="13" lengthAdjust="spacing" textLength="182" x="114.5" y="457.3232">time interval between last dose)</text><polygon fill="#A80036" points="576.5,488.5313,586.5,492.5313,576.5,496.5313,580.5,492.5313" style="stroke:#A80036;stroke-width:1.0;"/><line style="stroke:#A80036;stroke-width:1.0;" x1="79.5" x2="582.5" y1="492.5313" y2="492.5313"/><text fill="#000000" font-family="sans-serif" font-size="13" font-weight="bold" lengthAdjust="spacing" textLength="14" x="86.5" y="487.6748">11</text><text fill="#000000" font-family="sans-serif" font-size="13" lengthAdjust="spacing" textLength="122" x="104.5" y="487.6748">types requested data</text><polygon fill="#A80036" points="90.5,532.8828,80.5,536.8828,90.5,540.8828,86.5,536.8828" style="stroke:#A80036;stroke-width:1.0;"/><line style="stroke:#A80036;stroke-width:1.0;stroke-dasharray:2.0,2.0;" x1="84.5" x2="592.5" y1="536.8828" y2="536.8828"/><text fill="#000000" font-family="sans-serif" font-size="13" font-weight="bold" lengthAdjust="spacing" textLength="14" x="96.5" y="532.0264">12</text><text fill="#000000" font-family="sans-serif" font-size="13" lengthAdjust="spacing" textLength="236" x="114.5" y="532.0264">shows all data and requests confirmation</text><polygon fill="#A80036" points="576.5,563.2344,586.5,567.2344,576.5,571.2344,580.5,567.2344" style="stroke:#A80036;stroke-width:1.0;"/><line style="stroke:#A80036;stroke-width:1.0;" x1="79.5" x2="582.5" y1="567.2344" y2="567.2344"/><text fill="#000000" font-family="sans-serif" font-size="13" font-weight="bold" lengthAdjust="spacing" textLength="14" x="86.5" y="562.3779">13</text><text fill="#000000" font-family="sans-serif" font-size="13" lengthAdjust="spacing" textLength="100" x="104.5" y="562.3779">confirms the data</text><polygon fill="#A80036" points="85.5,593.5859,75.5,597.5859,85.5,601.5859,81.5,597.5859" style="stroke:#A80036;stroke-width:1.0;"/><line style="stroke:#A80036;stroke-width:1.0;stroke-dasharray:2.0,2.0;" x1="79.5" x2="592.5" y1="597.5859" y2="597.5859"/><text fill="#000000" font-family="sans-serif" font-size="13" font-weight="bold" lengthAdjust="spacing" textLength="14" x="91.5" y="592.7295">14</text><text fill="#000000" font-family="sans-serif" font-size="13" lengthAdjust="spacing" textLength="152" x="109.5" y="592.7295">informs operation success</text><!--MD5=[f661cfd827954cc8fdc0c85586601558]
@startuml
autonumber
actor "Administrator" as Admin

activate Admin
Admin -> ":System" : asks to create a new vaccine and its administration process
activate ":System"
":System" - -> Admin : requests data for the vaccine (name, brand)
deactivate ":System"
Admin -> ":System" : types requested data
activate ":System"

":System" - -> Admin : shows vaccine type list and ask to select one
deactivate ":System"
Admin -> ":System" : selects a vaccine type
activate ":System"

":System" - -> Admin : requests number of age groups
deactivate ":System"
Admin -> ":System" : types requested data
activate ":System"

loop
":System" - -> Admin : requests data for age group (minimum age, maximum age, doses to administered)
deactivate ":System"
Admin -> ":System" : types requested data
activate ":System"

loop
":System" - -> Admin : requests data for the administration process (dose number,  dosage, \ntime interval between last dose)
deactivate ":System"
Admin -> ":System" : types requested data
activate ":System"
end
end

":System" - -> Admin : shows all data and requests confirmation
deactivate ":System"
Admin -> ":System" : confirms the data
activate ":System"
":System" - -> Admin : informs operation success
deactivate ":System"

deactivate Admin

@enduml

PlantUML version 1.2022.1(Tue Feb 01 18:19:58 GMT 2022)
(GPL source distribution)
Java Runtime: OpenJDK Runtime Environment
JVM: OpenJDK 64-Bit Server VM
Default Encoding: Cp1252
Language: pt
Country: PT
--></g></svg>