<?xml version="1.0" encoding="UTF-8" standalone="no"?><svg xmlns="http://www.w3.org/2000/svg" xmlns:xlink="http://www.w3.org/1999/xlink" contentScriptType="application/ecmascript" contentStyleType="text/css" height="296px" preserveAspectRatio="none" style="width:880px;height:296px;background:#FFFFFF;" version="1.1" viewBox="0 0 880 296" width="880px" zoomAndPan="magnify"><defs><filter height="300%" id="f174pa0kytinfu" width="300%" x="-1" y="-1"><feGaussianBlur result="blurOut" stdDeviation="2.0"/><feColorMatrix in="blurOut" result="blurOut2" type="matrix" values="0 0 0 0 0 0 0 0 0 0 0 0 0 0 0 0 0 0 .4 0"/><feOffset dx="4.0" dy="4.0" in="blurOut2" result="blurOut3"/><feBlend in="SourceGraphic" in2="blurOut3" mode="normal"/></filter></defs><g><!--MD5=[02e4b9b7573f1156f41e60aa5b4e25a4]
class Company--><rect codeLine="5" fill="#FEFECE" filter="url(#f174pa0kytinfu)" height="53.8359" id="Company" style="stroke:#A80036;stroke-width:1.5;" width="85" x="7" y="132"/><ellipse cx="22" cy="148" fill="#ADD1B2" rx="11" ry="11" style="stroke:#A80036;stroke-width:1.0;"/><path d="M24,144.5 Q24.2031,144 24.4375,143.75 Q24.6719,143.5 24.9375,143.5 Q25.4063,143.5 25.7031,143.7813 Q26,144.0625 26,144.7188 L26,146.2813 Q26,146.9375 25.7188,147.2188 Q25.4375,147.5 25,147.5 Q24.6094,147.5 24.3594,147.3281 Q24.1094,147.1563 24,146.7031 Q23.9531,146.3906 23.7813,146.2188 Q23.4688,145.8906 22.9063,145.7031 Q22.3438,145.5 21.7813,145.5 Q21.0781,145.5 20.4844,145.7813 Q19.9063,146.0625 19.4531,146.6875 Q19,147.3125 19,148.1719 L19,149.0938 Q19,150.125 19.8438,150.8125 Q20.6875,151.5 22.1875,151.5 Q23.0781,151.5 23.7031,151.2969 Q24.0625,151.1875 24.4688,150.8281 Q24.7344,150.625 24.875,150.5625 Q25.0156,150.5 25.1875,150.5 Q25.5156,150.5 25.75,150.7656 Q26,151.0156 26,151.375 Q26,151.7188 25.6563,152.125 Q25.1563,152.7188 24.3594,153.0469 Q23.3125,153.5 22.0313,153.5 Q20.5313,153.5 19.3281,152.9063 Q18.3594,152.4375 17.6719,151.4219 Q17,150.4063 17,149.2031 L17,148.1094 Q17,146.8594 17.5938,145.7656 Q18.2031,144.6719 19.25,144.0938 Q20.3125,143.5 21.5,143.5 Q22.2188,143.5 22.8438,143.75 Q23.4688,144 24,144.5 Z " fill="#000000"/><text fill="#000000" font-family="sans-serif" font-size="12" lengthAdjust="spacing" textLength="53" x="36" y="152.9102">Company</text><line style="stroke:#A80036;stroke-width:1.5;" x1="8" x2="91" y1="164" y2="164"/><text fill="#000000" font-family="sans-serif" font-size="11" lengthAdjust="spacing" textLength="59" x="13" y="179.4189">-designation</text><!--MD5=[19e445fc4d3b48519cbe33da05496394]
class Vaccine--><rect codeLine="9" fill="#FEFECE" filter="url(#f174pa0kytinfu)" height="81.5078" id="Vaccine" style="stroke:#A80036;stroke-width:1.5;" width="75" x="247.5" y="118"/><ellipse cx="262.5" cy="134" fill="#ADD1B2" rx="11" ry="11" style="stroke:#A80036;stroke-width:1.0;"/><path d="M264.5,130.5 Q264.7031,130 264.9375,129.75 Q265.1719,129.5 265.4375,129.5 Q265.9063,129.5 266.2031,129.7813 Q266.5,130.0625 266.5,130.7188 L266.5,132.2813 Q266.5,132.9375 266.2188,133.2188 Q265.9375,133.5 265.5,133.5 Q265.1094,133.5 264.8594,133.3281 Q264.6094,133.1563 264.5,132.7031 Q264.4531,132.3906 264.2813,132.2188 Q263.9688,131.8906 263.4063,131.7031 Q262.8438,131.5 262.2813,131.5 Q261.5781,131.5 260.9844,131.7813 Q260.4063,132.0625 259.9531,132.6875 Q259.5,133.3125 259.5,134.1719 L259.5,135.0938 Q259.5,136.125 260.3438,136.8125 Q261.1875,137.5 262.6875,137.5 Q263.5781,137.5 264.2031,137.2969 Q264.5625,137.1875 264.9688,136.8281 Q265.2344,136.625 265.375,136.5625 Q265.5156,136.5 265.6875,136.5 Q266.0156,136.5 266.25,136.7656 Q266.5,137.0156 266.5,137.375 Q266.5,137.7188 266.1563,138.125 Q265.6563,138.7188 264.8594,139.0469 Q263.8125,139.5 262.5313,139.5 Q261.0313,139.5 259.8281,138.9063 Q258.8594,138.4375 258.1719,137.4219 Q257.5,136.4063 257.5,135.2031 L257.5,134.1094 Q257.5,132.8594 258.0938,131.7656 Q258.7031,130.6719 259.75,130.0938 Q260.8125,129.5 262,129.5 Q262.7188,129.5 263.3438,129.75 Q263.9688,130 264.5,130.5 Z " fill="#000000"/><text fill="#000000" font-family="sans-serif" font-size="12" lengthAdjust="spacing" textLength="43" x="276.5" y="138.9102">Vaccine</text><line style="stroke:#A80036;stroke-width:1.5;" x1="248.5" x2="321.5" y1="150" y2="150"/><text fill="#000000" font-family="sans-serif" font-size="11" lengthAdjust="spacing" textLength="12" x="253.5" y="165.4189">-id</text><text fill="#000000" font-family="sans-serif" font-size="11" lengthAdjust="spacing" textLength="30" x="253.5" y="179.2549">-name</text><text fill="#000000" font-family="sans-serif" font-size="11" lengthAdjust="spacing" textLength="32" x="253.5" y="193.0908">-brand</text><!--MD5=[0e501da62322464167c8ec4d233a6b7e]
class VaccineType--><rect codeLine="15" fill="#FEFECE" filter="url(#f174pa0kytinfu)" height="81.5078" id="VaccineType" style="stroke:#A80036;stroke-width:1.5;" width="101" x="505" y="7"/><ellipse cx="520" cy="23" fill="#ADD1B2" rx="11" ry="11" style="stroke:#A80036;stroke-width:1.0;"/><path d="M522,19.5 Q522.2031,19 522.4375,18.75 Q522.6719,18.5 522.9375,18.5 Q523.4063,18.5 523.7031,18.7813 Q524,19.0625 524,19.7188 L524,21.2813 Q524,21.9375 523.7188,22.2188 Q523.4375,22.5 523,22.5 Q522.6094,22.5 522.3594,22.3281 Q522.1094,22.1563 522,21.7031 Q521.9531,21.3906 521.7813,21.2188 Q521.4688,20.8906 520.9063,20.7031 Q520.3438,20.5 519.7813,20.5 Q519.0781,20.5 518.4844,20.7813 Q517.9063,21.0625 517.4531,21.6875 Q517,22.3125 517,23.1719 L517,24.0938 Q517,25.125 517.8438,25.8125 Q518.6875,26.5 520.1875,26.5 Q521.0781,26.5 521.7031,26.2969 Q522.0625,26.1875 522.4688,25.8281 Q522.7344,25.625 522.875,25.5625 Q523.0156,25.5 523.1875,25.5 Q523.5156,25.5 523.75,25.7656 Q524,26.0156 524,26.375 Q524,26.7188 523.6563,27.125 Q523.1563,27.7188 522.3594,28.0469 Q521.3125,28.5 520.0313,28.5 Q518.5313,28.5 517.3281,27.9063 Q516.3594,27.4375 515.6719,26.4219 Q515,25.4063 515,24.2031 L515,23.1094 Q515,21.8594 515.5938,20.7656 Q516.2031,19.6719 517.25,19.0938 Q518.3125,18.5 519.5,18.5 Q520.2188,18.5 520.8438,18.75 Q521.4688,19 522,19.5 Z " fill="#000000"/><text fill="#000000" font-family="sans-serif" font-size="12" lengthAdjust="spacing" textLength="69" x="534" y="27.9102">VaccineType</text><line style="stroke:#A80036;stroke-width:1.5;" x1="506" x2="605" y1="39" y2="39"/><text fill="#000000" font-family="sans-serif" font-size="11" lengthAdjust="spacing" textLength="28" x="511" y="54.4189">-code</text><text fill="#000000" font-family="sans-serif" font-size="11" lengthAdjust="spacing" textLength="57" x="511" y="68.2549">-description</text><text fill="#000000" font-family="sans-serif" font-size="11" lengthAdjust="spacing" textLength="57" x="511" y="82.0908">-technology</text><!--MD5=[c59c99efa75f30327e326596f335a568]
class AgeGroup--><rect codeLine="21" fill="#FEFECE" filter="url(#f174pa0kytinfu)" height="81.5078" id="AgeGroup" style="stroke:#A80036;stroke-width:1.5;" width="109" x="501" y="124"/><ellipse cx="525.9" cy="140" fill="#ADD1B2" rx="11" ry="11" style="stroke:#A80036;stroke-width:1.0;"/><path d="M527.9,136.5 Q528.1031,136 528.3375,135.75 Q528.5719,135.5 528.8375,135.5 Q529.3063,135.5 529.6031,135.7813 Q529.9,136.0625 529.9,136.7188 L529.9,138.2813 Q529.9,138.9375 529.6188,139.2188 Q529.3375,139.5 528.9,139.5 Q528.5094,139.5 528.2594,139.3281 Q528.0094,139.1563 527.9,138.7031 Q527.8531,138.3906 527.6813,138.2188 Q527.3688,137.8906 526.8063,137.7031 Q526.2438,137.5 525.6813,137.5 Q524.9781,137.5 524.3844,137.7813 Q523.8063,138.0625 523.3531,138.6875 Q522.9,139.3125 522.9,140.1719 L522.9,141.0938 Q522.9,142.125 523.7438,142.8125 Q524.5875,143.5 526.0875,143.5 Q526.9781,143.5 527.6031,143.2969 Q527.9625,143.1875 528.3688,142.8281 Q528.6344,142.625 528.775,142.5625 Q528.9156,142.5 529.0875,142.5 Q529.4156,142.5 529.65,142.7656 Q529.9,143.0156 529.9,143.375 Q529.9,143.7188 529.5563,144.125 Q529.0563,144.7188 528.2594,145.0469 Q527.2125,145.5 525.9313,145.5 Q524.4313,145.5 523.2281,144.9063 Q522.2594,144.4375 521.5719,143.4219 Q520.9,142.4063 520.9,141.2031 L520.9,140.1094 Q520.9,138.8594 521.4938,137.7656 Q522.1031,136.6719 523.15,136.0938 Q524.2125,135.5 525.4,135.5 Q526.1188,135.5 526.7438,135.75 Q527.3688,136 527.9,136.5 Z " fill="#000000"/><text fill="#000000" font-family="sans-serif" font-size="12" lengthAdjust="spacing" textLength="55" x="542.1" y="144.9102">AgeGroup</text><line style="stroke:#A80036;stroke-width:1.5;" x1="502" x2="609" y1="156" y2="156"/><text fill="#000000" font-family="sans-serif" font-size="11" lengthAdjust="spacing" textLength="40" x="507" y="171.4189">-minAge</text><text fill="#000000" font-family="sans-serif" font-size="11" lengthAdjust="spacing" textLength="44" x="507" y="185.2549">-maxAge</text><text fill="#000000" font-family="sans-serif" font-size="11" lengthAdjust="spacing" textLength="97" x="507" y="199.0908">-dosesAdministered</text><!--MD5=[a2530d24bafc45bb45314d96545aa194]
class AdministrationProcess--><rect codeLine="27" fill="#FEFECE" filter="url(#f174pa0kytinfu)" height="81.5078" id="AdministrationProcess" style="stroke:#A80036;stroke-width:1.5;" width="160" x="706" y="124"/><ellipse cx="722.35" cy="140" fill="#ADD1B2" rx="11" ry="11" style="stroke:#A80036;stroke-width:1.0;"/><path d="M724.35,136.5 Q724.5531,136 724.7875,135.75 Q725.0219,135.5 725.2875,135.5 Q725.7563,135.5 726.0531,135.7813 Q726.35,136.0625 726.35,136.7188 L726.35,138.2813 Q726.35,138.9375 726.0688,139.2188 Q725.7875,139.5 725.35,139.5 Q724.9594,139.5 724.7094,139.3281 Q724.4594,139.1563 724.35,138.7031 Q724.3031,138.3906 724.1313,138.2188 Q723.8188,137.8906 723.2563,137.7031 Q722.6938,137.5 722.1313,137.5 Q721.4281,137.5 720.8344,137.7813 Q720.2563,138.0625 719.8031,138.6875 Q719.35,139.3125 719.35,140.1719 L719.35,141.0938 Q719.35,142.125 720.1938,142.8125 Q721.0375,143.5 722.5375,143.5 Q723.4281,143.5 724.0531,143.2969 Q724.4125,143.1875 724.8188,142.8281 Q725.0844,142.625 725.225,142.5625 Q725.3656,142.5 725.5375,142.5 Q725.8656,142.5 726.1,142.7656 Q726.35,143.0156 726.35,143.375 Q726.35,143.7188 726.0063,144.125 Q725.5063,144.7188 724.7094,145.0469 Q723.6625,145.5 722.3813,145.5 Q720.8813,145.5 719.6781,144.9063 Q718.7094,144.4375 718.0219,143.4219 Q717.35,142.4063 717.35,141.2031 L717.35,140.1094 Q717.35,138.8594 717.9438,137.7656 Q718.5531,136.6719 719.6,136.0938 Q720.6625,135.5 721.85,135.5 Q722.5688,135.5 723.1938,135.75 Q723.8188,136 724.35,136.5 Z " fill="#000000"/><text fill="#000000" font-family="sans-serif" font-size="12" lengthAdjust="spacing" textLength="125" x="736.65" y="144.9102">AdministrationProcess</text><line style="stroke:#A80036;stroke-width:1.5;" x1="707" x2="865" y1="156" y2="156"/><text fill="#000000" font-family="sans-serif" font-size="11" lengthAdjust="spacing" textLength="65" x="712" y="171.4189">-doseNumber</text><text fill="#000000" font-family="sans-serif" font-size="11" lengthAdjust="spacing" textLength="40" x="712" y="185.2549">-dosage</text><text fill="#000000" font-family="sans-serif" font-size="11" lengthAdjust="spacing" textLength="148" x="712" y="199.0908">-timeIntervalBetweenLastDose</text><!--MD5=[da547346deef918ea16944ba046651ef]
class Administrator--><rect codeLine="33" fill="#FEFECE" filter="url(#f174pa0kytinfu)" height="40" id="Administrator" style="stroke:#A80036;stroke-width:1.5;" width="105" x="503" y="242"/><ellipse cx="518" cy="258" fill="#ADD1B2" rx="11" ry="11" style="stroke:#A80036;stroke-width:1.0;"/><path d="M520,254.5 Q520.2031,254 520.4375,253.75 Q520.6719,253.5 520.9375,253.5 Q521.4063,253.5 521.7031,253.7813 Q522,254.0625 522,254.7188 L522,256.2813 Q522,256.9375 521.7188,257.2188 Q521.4375,257.5 521,257.5 Q520.6094,257.5 520.3594,257.3281 Q520.1094,257.1563 520,256.7031 Q519.9531,256.3906 519.7813,256.2188 Q519.4688,255.8906 518.9063,255.7031 Q518.3438,255.5 517.7813,255.5 Q517.0781,255.5 516.4844,255.7813 Q515.9063,256.0625 515.4531,256.6875 Q515,257.3125 515,258.1719 L515,259.0938 Q515,260.125 515.8438,260.8125 Q516.6875,261.5 518.1875,261.5 Q519.0781,261.5 519.7031,261.2969 Q520.0625,261.1875 520.4688,260.8281 Q520.7344,260.625 520.875,260.5625 Q521.0156,260.5 521.1875,260.5 Q521.5156,260.5 521.75,260.7656 Q522,261.0156 522,261.375 Q522,261.7188 521.6563,262.125 Q521.1563,262.7188 520.3594,263.0469 Q519.3125,263.5 518.0313,263.5 Q516.5313,263.5 515.3281,262.9063 Q514.3594,262.4375 513.6719,261.4219 Q513,260.4063 513,259.2031 L513,258.1094 Q513,256.8594 513.5938,255.7656 Q514.2031,254.6719 515.25,254.0938 Q516.3125,253.5 517.5,253.5 Q518.2188,253.5 518.8438,253.75 Q519.4688,254 520,254.5 Z " fill="#000000"/><text fill="#000000" font-family="sans-serif" font-size="12" lengthAdjust="spacing" textLength="73" x="532" y="262.9102">Administrator</text><line style="stroke:#A80036;stroke-width:1.5;" x1="504" x2="607" y1="274" y2="274"/><!--MD5=[280d143ed677ed5f88ebb4e8dc5e0ad7]
link AgeGroup to AdministrationProcess--><path codeLine="36" d="M610.07,165 C638.57,165 674.15,165 705.77,165 " fill="none" id="AgeGroup-AdministrationProcess" style="stroke:#A80036;stroke-width:1.0;"/><polygon fill="#000000" points="650,156.1758,640.9549,153.2369,640.9549,159.1147,650,156.1758" style="stroke:#000000;stroke-width:1.0;"/><text fill="#000000" font-family="sans-serif" font-size="13" lengthAdjust="spacing" textLength="21" x="654" y="161.4951">has</text><text fill="#000000" font-family="sans-serif" font-size="13" lengthAdjust="spacing" textLength="7" x="617.8732" y="179.6268">1</text><text fill="#000000" font-family="sans-serif" font-size="13" lengthAdjust="spacing" textLength="20" x="678.0159" y="179.2189">1..*</text><!--MD5=[eaea43e34e45c5b9d20b595fc78f1f20]
link Company to Administrator--><path codeLine="38" d="M92.22,184.86 C123.01,202.55 166.58,224.77 208,236 C309.89,263.63 434.4,265.63 502.99,264.14 " fill="none" id="Company-Administrator" style="stroke:#A80036;stroke-width:1.0;"/><polygon fill="#000000" points="268.9094,228.1233,260.5852,223.5235,259.4713,229.2949,268.9094,228.1233" style="stroke:#000000;stroke-width:1.0;"/><text fill="#000000" font-family="sans-serif" font-size="13" lengthAdjust="spacing" textLength="37" x="273" y="232.4951">knows</text><text fill="#000000" font-family="sans-serif" font-size="13" lengthAdjust="spacing" textLength="7" x="99.8752" y="204.0059">1</text><text fill="#000000" font-family="sans-serif" font-size="13" lengthAdjust="spacing" textLength="5" x="489.9104" y="279.1502">*</text><!--MD5=[c29c8d42883934cbaf5793c72a334947]
link Company to Vaccine--><path codeLine="39" d="M92.25,159 C136.32,159 205.13,159 247.23,159 " fill="none" id="Company-Vaccine" style="stroke:#A80036;stroke-width:1.0;"/><polygon fill="#000000" points="132,150.1758,122.9549,147.2369,122.9549,153.1147,132,150.1758" style="stroke:#000000;stroke-width:1.0;"/><text fill="#000000" font-family="sans-serif" font-size="13" lengthAdjust="spacing" textLength="41" x="136" y="155.4951">applies</text><text fill="#000000" font-family="sans-serif" font-size="13" lengthAdjust="spacing" textLength="7" x="99.9102" y="173.8628">1</text><text fill="#000000" font-family="sans-serif" font-size="13" lengthAdjust="spacing" textLength="5" x="234.5535" y="174.1005">*</text><!--MD5=[05986564e1c13a00611587b35563d868]
link Company to VaccineType--><path codeLine="40" d="M92.21,140.8 C123.54,127.77 167.79,110.7 208,100 C311.61,72.44 436.79,58.18 504.74,51.97 " fill="none" id="Company-VaccineType" style="stroke:#A80036;stroke-width:1.0;"/><polygon fill="#000000" points="217.888,60.1233,208.4269,59.1542,209.6642,64.9004,217.888,60.1233" style="stroke:#000000;stroke-width:1.0;"/><text fill="#000000" font-family="sans-serif" font-size="13" lengthAdjust="spacing" textLength="139" x="222" y="66.4951">promotes administration</text><text fill="#000000" font-family="sans-serif" font-size="13" lengthAdjust="spacing" textLength="7" x="99.8635" y="152.6484">1</text><text fill="#000000" font-family="sans-serif" font-size="13" lengthAdjust="spacing" textLength="5" x="491.9174" y="67.2852">*</text><!--MD5=[c3dd7d5a27b29f54641ada6fcfd9df12]
link Vaccine to Administrator--><path codeLine="42" d="M322.77,173.11 C369.3,190.96 449.74,221.81 502.54,242.07 " fill="none" id="Vaccine-Administrator" style="stroke:#A80036;stroke-width:1.0;"/><polygon fill="#000000" points="403.1683,193.9666,395.7758,187.9831,393.6707,193.471,403.1683,193.9666" style="stroke:#000000;stroke-width:1.0;"/><text fill="#000000" font-family="sans-serif" font-size="13" lengthAdjust="spacing" textLength="61" x="407.5" y="197.4951">created by</text><text fill="#000000" font-family="sans-serif" font-size="13" lengthAdjust="spacing" textLength="5" x="330.4465" y="190.9003">*</text><text fill="#000000" font-family="sans-serif" font-size="13" lengthAdjust="spacing" textLength="7" x="487.9532" y="253.9856">1</text><!--MD5=[3568623adf67b2630dce9e60c05bd02a]
link Vaccine to VaccineType--><path codeLine="43" d="M322.74,147.35 C360.5,135 420.7,114.24 471,92 C482.09,87.1 493.75,81.35 504.71,75.66 " fill="none" id="Vaccine-VaccineType" style="stroke:#A80036;stroke-width:1.0;"/><polygon fill="#000000" points="421.652,81.3431,412.1592,81.9241,414.3137,87.3929,421.652,81.3431" style="stroke:#000000;stroke-width:1.0;"/><text fill="#000000" font-family="sans-serif" font-size="13" lengthAdjust="spacing" textLength="24" x="426" y="88.4951">is of</text><text fill="#000000" font-family="sans-serif" font-size="13" lengthAdjust="spacing" textLength="5" x="330.4108" y="141.1798">*</text><text fill="#000000" font-family="sans-serif" font-size="13" lengthAdjust="spacing" textLength="7" x="490.0755" y="94.2291">1</text><!--MD5=[b642d3dcd838b142a59054da7986f07e]
link Vaccine to AgeGroup--><path codeLine="44" d="M322.77,159.82 C368.73,160.85 447.76,162.61 500.57,163.79 " fill="none" id="Vaccine-AgeGroup" style="stroke:#A80036;stroke-width:1.0;"/><polygon fill="#000000" points="401.9988,153.2874,393.0215,150.1473,392.8903,156.0237,401.9988,153.2874" style="stroke:#000000;stroke-width:1.0;"/><text fill="#000000" font-family="sans-serif" font-size="13" lengthAdjust="spacing" textLength="64" x="406" y="158.4951">constituted</text><text fill="#000000" font-family="sans-serif" font-size="13" lengthAdjust="spacing" textLength="7" x="330.3792" y="175.0191">1</text><text fill="#000000" font-family="sans-serif" font-size="13" lengthAdjust="spacing" textLength="20" x="473.0625" y="178.119">1..*</text><!--MD5=[1f2d217bbf5f2bde364c6cceda8a6801]
@startuml
hide methods
left to right direction
skinparam classAttributeIconSize 0

class Company {
    -designation
}

class Vaccine {
    -id
    -name
    -brand
}

class VaccineType {
    -code
    -description
    -technology
}

class AgeGroup {
    -minAge
    -maxAge
    -dosesAdministered
}

class AdministrationProcess {
    -doseNumber
    -dosage
    -timeIntervalBetweenLastDose
}

class Administrator {
}

AgeGroup "1" - - "1..*" AdministrationProcess : has >

Company "1" - - "*" Administrator : knows >
Company "1" - - "*" Vaccine : applies >
Company "1" - - "*" VaccineType : promotes administration >

Vaccine "*" - - "1" Administrator: created by >
Vaccine "*" - - "1" VaccineType : is of >
Vaccine "1" - - "1..*" AgeGroup : constituted >

@enduml

PlantUML version 1.2022.1(Tue Feb 01 18:19:58 GMT 2022)
(GPL source distribution)
Java Runtime: OpenJDK Runtime Environment
JVM: OpenJDK 64-Bit Server VM
Default Encoding: Cp1252
Language: pt
Country: PT
--></g></svg>