<?xml version="1.0" encoding="UTF-8" standalone="no"?><svg xmlns="http://www.w3.org/2000/svg" xmlns:xlink="http://www.w3.org/1999/xlink" contentStyleType="text/css" height="506px" preserveAspectRatio="none" style="width:1594px;height:506px;background:#FFFFFF;" version="1.1" viewBox="0 0 1594 506" width="1594px" zoomAndPan="magnify"><defs/><g><!--MD5=[a126dd63c8621c017159ae62771fbe54]
class RegisterEmployeeUI--><g id="elem_RegisterEmployeeUI"><rect codeLine="4" fill="#F1F1F1" height="48" id="RegisterEmployeeUI" rx="2.5" ry="2.5" style="stroke:#181818;stroke-width:0.5;" width="159" x="7" y="286.5"/><ellipse cx="22" cy="302.5" fill="#ADD1B2" rx="11" ry="11" style="stroke:#181818;stroke-width:1.0;"/><path d="M24,299 Q24.2031,298.5 24.4375,298.25 Q24.6719,298 24.9375,298 Q25.4063,298 25.7031,298.2813 Q26,298.5625 26,299.2188 L26,300.7813 Q26,301.4375 25.7188,301.7188 Q25.4375,302 25,302 Q24.6094,302 24.3594,301.8281 Q24.1094,301.6563 24,301.2031 Q23.9531,300.8906 23.7813,300.7188 Q23.4688,300.3906 22.9063,300.2031 Q22.3438,300 21.7813,300 Q21.0781,300 20.4844,300.2813 Q19.9063,300.5625 19.4531,301.1875 Q19,301.8125 19,302.6719 L19,303.5938 Q19,304.625 19.8438,305.3125 Q20.6875,306 22.1875,306 Q23.0781,306 23.7031,305.7969 Q24.0625,305.6875 24.4688,305.3281 Q24.7344,305.125 24.875,305.0625 Q25.0156,305 25.1875,305 Q25.5156,305 25.75,305.2656 Q26,305.5156 26,305.875 Q26,306.2188 25.6563,306.625 Q25.1563,307.2188 24.3594,307.5469 Q23.3125,308 22.0313,308 Q20.5313,308 19.3281,307.4063 Q18.3594,306.9375 17.6719,305.9219 Q17,304.9063 17,303.7031 L17,302.6094 Q17,301.3594 17.5938,300.2656 Q18.2031,299.1719 19.25,298.5938 Q20.3125,298 21.5,298 Q22.2188,298 22.8438,298.25 Q23.4688,298.5 24,299 Z " fill="#000000"/><text fill="#000000" font-family="sans-serif" font-size="14" lengthAdjust="spacing" textLength="127" x="36" y="308.2285">RegisterEmployeeUI</text><line style="stroke:#181818;stroke-width:0.5;" x1="8" x2="165" y1="318.5" y2="318.5"/><line style="stroke:#181818;stroke-width:0.5;" x1="8" x2="165" y1="326.5" y2="326.5"/></g><!--MD5=[6a4e699b59c2ecf8286aba2faa72e4bd]
class RegisterEmployeeController--><g id="elem_RegisterEmployeeController"><rect codeLine="7" fill="#F1F1F1" height="118.4375" id="RegisterEmployeeController" rx="2.5" ry="2.5" style="stroke:#181818;stroke-width:0.5;" width="517" x="227" y="251.5"/><ellipse cx="392.75" cy="267.5" fill="#ADD1B2" rx="11" ry="11" style="stroke:#181818;stroke-width:1.0;"/><path d="M394.75,264 Q394.9531,263.5 395.1875,263.25 Q395.4219,263 395.6875,263 Q396.1563,263 396.4531,263.2813 Q396.75,263.5625 396.75,264.2188 L396.75,265.7813 Q396.75,266.4375 396.4688,266.7188 Q396.1875,267 395.75,267 Q395.3594,267 395.1094,266.8281 Q394.8594,266.6563 394.75,266.2031 Q394.7031,265.8906 394.5313,265.7188 Q394.2188,265.3906 393.6563,265.2031 Q393.0938,265 392.5313,265 Q391.8281,265 391.2344,265.2813 Q390.6563,265.5625 390.2031,266.1875 Q389.75,266.8125 389.75,267.6719 L389.75,268.5938 Q389.75,269.625 390.5938,270.3125 Q391.4375,271 392.9375,271 Q393.8281,271 394.4531,270.7969 Q394.8125,270.6875 395.2188,270.3281 Q395.4844,270.125 395.625,270.0625 Q395.7656,270 395.9375,270 Q396.2656,270 396.5,270.2656 Q396.75,270.5156 396.75,270.875 Q396.75,271.2188 396.4063,271.625 Q395.9063,272.2188 395.1094,272.5469 Q394.0625,273 392.7813,273 Q391.2813,273 390.0781,272.4063 Q389.1094,271.9375 388.4219,270.9219 Q387.75,269.9063 387.75,268.7031 L387.75,267.6094 Q387.75,266.3594 388.3438,265.2656 Q388.9531,264.1719 390,263.5938 Q391.0625,263 392.25,263 Q392.9688,263 393.5938,263.25 Q394.2188,263.5 394.75,264 Z " fill="#000000"/><text fill="#000000" font-family="sans-serif" font-size="14" lengthAdjust="spacing" textLength="177" x="413.25" y="273.2285">RegisterEmployeeController</text><line style="stroke:#181818;stroke-width:0.5;" x1="228" x2="743" y1="283.5" y2="283.5"/><line style="stroke:#181818;stroke-width:0.5;" x1="228" x2="743" y1="291.5" y2="291.5"/><text fill="#000000" font-family="sans-serif" font-size="14" lengthAdjust="spacing" textLength="136" x="233" y="310.0332">+getEmployeeRoles()</text><text fill="#000000" font-family="sans-serif" font-size="14" lengthAdjust="spacing" textLength="505" x="233" y="327.6426">+registerEmployee(name, address, phone number, e-mail, Citizen Card number)</text><text fill="#000000" font-family="sans-serif" font-size="14" lengthAdjust="spacing" textLength="90" x="233" y="345.252">+setRole(role)</text><text fill="#000000" font-family="sans-serif" font-size="14" lengthAdjust="spacing" textLength="110" x="233" y="362.8613">+saveEmployee()</text></g><!--MD5=[829fb52c07ade3ad64ef85b99d1fca10]
class EmployeeStore--><g id="elem_EmployeeStore"><rect codeLine="14" fill="#F1F1F1" height="136.0469" id="EmployeeStore" rx="2.5" ry="2.5" style="stroke:#181818;stroke-width:0.5;" width="517" x="1070" y="363.5"/><ellipse cx="1276.25" cy="379.5" fill="#ADD1B2" rx="11" ry="11" style="stroke:#181818;stroke-width:1.0;"/><path d="M1278.25,376 Q1278.4531,375.5 1278.6875,375.25 Q1278.9219,375 1279.1875,375 Q1279.6563,375 1279.9531,375.2813 Q1280.25,375.5625 1280.25,376.2188 L1280.25,377.7813 Q1280.25,378.4375 1279.9688,378.7188 Q1279.6875,379 1279.25,379 Q1278.8594,379 1278.6094,378.8281 Q1278.3594,378.6563 1278.25,378.2031 Q1278.2031,377.8906 1278.0313,377.7188 Q1277.7188,377.3906 1277.1563,377.2031 Q1276.5938,377 1276.0313,377 Q1275.3281,377 1274.7344,377.2813 Q1274.1563,377.5625 1273.7031,378.1875 Q1273.25,378.8125 1273.25,379.6719 L1273.25,380.5938 Q1273.25,381.625 1274.0938,382.3125 Q1274.9375,383 1276.4375,383 Q1277.3281,383 1277.9531,382.7969 Q1278.3125,382.6875 1278.7188,382.3281 Q1278.9844,382.125 1279.125,382.0625 Q1279.2656,382 1279.4375,382 Q1279.7656,382 1280,382.2656 Q1280.25,382.5156 1280.25,382.875 Q1280.25,383.2188 1279.9063,383.625 Q1279.4063,384.2188 1278.6094,384.5469 Q1277.5625,385 1276.2813,385 Q1274.7813,385 1273.5781,384.4063 Q1272.6094,383.9375 1271.9219,382.9219 Q1271.25,381.9063 1271.25,380.7031 L1271.25,379.6094 Q1271.25,378.3594 1271.8438,377.2656 Q1272.4531,376.1719 1273.5,375.5938 Q1274.5625,375 1275.75,375 Q1276.4688,375 1277.0938,375.25 Q1277.7188,375.5 1278.25,376 Z " fill="#000000"/><text fill="#000000" font-family="sans-serif" font-size="14" lengthAdjust="spacing" textLength="96" x="1296.75" y="385.2285">EmployeeStore</text><line style="stroke:#181818;stroke-width:0.5;" x1="1071" x2="1586" y1="395.5" y2="395.5"/><line style="stroke:#181818;stroke-width:0.5;" x1="1071" x2="1586" y1="403.5" y2="403.5"/><text fill="#000000" font-family="sans-serif" font-size="14" lengthAdjust="spacing" textLength="505" x="1076" y="422.0332">+registerEmployee(name, address, phone number, e-mail, Citizen Card number)</text><text fill="#000000" font-family="sans-serif" font-size="14" lengthAdjust="spacing" textLength="90" x="1076" y="439.6426">+setRole(role)</text><text fill="#000000" font-family="sans-serif" font-size="14" lengthAdjust="spacing" textLength="171" x="1076" y="457.252">+saveEmployee(employee)</text><text fill="#000000" font-family="sans-serif" font-size="14" lengthAdjust="spacing" textLength="190" x="1076" y="474.8613">+validateEmployee(employee)</text><text fill="#000000" font-family="sans-serif" font-size="14" lengthAdjust="spacing" textLength="165" x="1076" y="492.4707">+addEmployee(employee)</text></g><!--MD5=[7421f545a0d8420c5bec41e74b387d9c]
class Employee--><g id="elem_Employee"><rect codeLine="22" fill="#F1F1F1" height="364.9688" id="Employee" rx="2.5" ry="2.5" style="stroke:#181818;stroke-width:0.5;" width="162" x="805" y="7"/><ellipse cx="850.75" cy="23" fill="#ADD1B2" rx="11" ry="11" style="stroke:#181818;stroke-width:1.0;"/><path d="M852.75,19.5 Q852.9531,19 853.1875,18.75 Q853.4219,18.5 853.6875,18.5 Q854.1563,18.5 854.4531,18.7813 Q854.75,19.0625 854.75,19.7188 L854.75,21.2813 Q854.75,21.9375 854.4688,22.2188 Q854.1875,22.5 853.75,22.5 Q853.3594,22.5 853.1094,22.3281 Q852.8594,22.1563 852.75,21.7031 Q852.7031,21.3906 852.5313,21.2188 Q852.2188,20.8906 851.6563,20.7031 Q851.0938,20.5 850.5313,20.5 Q849.8281,20.5 849.2344,20.7813 Q848.6563,21.0625 848.2031,21.6875 Q847.75,22.3125 847.75,23.1719 L847.75,24.0938 Q847.75,25.125 848.5938,25.8125 Q849.4375,26.5 850.9375,26.5 Q851.8281,26.5 852.4531,26.2969 Q852.8125,26.1875 853.2188,25.8281 Q853.4844,25.625 853.625,25.5625 Q853.7656,25.5 853.9375,25.5 Q854.2656,25.5 854.5,25.7656 Q854.75,26.0156 854.75,26.375 Q854.75,26.7188 854.4063,27.125 Q853.9063,27.7188 853.1094,28.0469 Q852.0625,28.5 850.7813,28.5 Q849.2813,28.5 848.0781,27.9063 Q847.1094,27.4375 846.4219,26.4219 Q845.75,25.4063 845.75,24.2031 L845.75,23.1094 Q845.75,21.8594 846.3438,20.7656 Q846.9531,19.6719 848,19.0938 Q849.0625,18.5 850.25,18.5 Q850.9688,18.5 851.5938,18.75 Q852.2188,19 852.75,19.5 Z " fill="#000000"/><text fill="#000000" font-family="sans-serif" font-size="14" lengthAdjust="spacing" textLength="62" x="871.25" y="28.7285">Employee</text><line style="stroke:#181818;stroke-width:0.5;" x1="806" x2="966" y1="39" y2="39"/><text fill="#000000" font-family="sans-serif" font-size="14" lengthAdjust="spacing" textLength="40" x="811" y="57.5332">-name</text><text fill="#000000" font-family="sans-serif" font-size="14" lengthAdjust="spacing" textLength="56" x="811" y="75.1426">-address</text><text fill="#000000" font-family="sans-serif" font-size="14" lengthAdjust="spacing" textLength="94" x="811" y="92.752">-phoneNumber</text><text fill="#000000" font-family="sans-serif" font-size="14" lengthAdjust="spacing" textLength="38" x="811" y="110.3613">-email</text><text fill="#000000" font-family="sans-serif" font-size="14" lengthAdjust="spacing" textLength="124" x="811" y="127.9707">-citizenCardNumber</text><text fill="#000000" font-family="sans-serif" font-size="14" lengthAdjust="spacing" textLength="29" x="811" y="145.5801">-role</text><text fill="#000000" font-family="sans-serif" font-size="14" lengthAdjust="spacing" textLength="64" x="811" y="163.1895">+getName</text><text fill="#000000" font-family="sans-serif" font-size="14" lengthAdjust="spacing" textLength="80" x="811" y="180.7988">+getAddress</text><text fill="#000000" font-family="sans-serif" font-size="14" lengthAdjust="spacing" textLength="118" x="811" y="198.4082">+getPhoneNumber</text><text fill="#000000" font-family="sans-serif" font-size="14" lengthAdjust="spacing" textLength="62" x="811" y="216.0176">+getEmail</text><text fill="#000000" font-family="sans-serif" font-size="14" lengthAdjust="spacing" textLength="150" x="811" y="233.627">+getCitizenCardNumber</text><text fill="#000000" font-family="sans-serif" font-size="14" lengthAdjust="spacing" textLength="57" x="811" y="251.2363">+getRole</text><text fill="#000000" font-family="sans-serif" font-size="14" lengthAdjust="spacing" textLength="63" x="811" y="268.8457">+setName</text><text fill="#000000" font-family="sans-serif" font-size="14" lengthAdjust="spacing" textLength="79" x="811" y="286.4551">+setAddress</text><text fill="#000000" font-family="sans-serif" font-size="14" lengthAdjust="spacing" textLength="117" x="811" y="304.0645">+setPhoneNumber</text><text fill="#000000" font-family="sans-serif" font-size="14" lengthAdjust="spacing" textLength="61" x="811" y="321.6738">+setEmail</text><text fill="#000000" font-family="sans-serif" font-size="14" lengthAdjust="spacing" textLength="149" x="811" y="339.2832">+setCitizenCardNumber</text><text fill="#000000" font-family="sans-serif" font-size="14" lengthAdjust="spacing" textLength="56" x="811" y="356.8926">+setRole</text><line style="stroke:#181818;stroke-width:0.5;" x1="806" x2="966" y1="363.9688" y2="363.9688"/></g><!--MD5=[02e4b9b7573f1156f41e60aa5b4e25a4]
class Company--><g id="elem_Company"><rect codeLine="43" fill="#F1F1F1" height="48" id="Company" rx="2.5" ry="2.5" style="stroke:#181818;stroke-width:0.5;" width="92" x="840" y="407.5"/><ellipse cx="855" cy="423.5" fill="#ADD1B2" rx="11" ry="11" style="stroke:#181818;stroke-width:1.0;"/><path d="M857,420 Q857.2031,419.5 857.4375,419.25 Q857.6719,419 857.9375,419 Q858.4063,419 858.7031,419.2813 Q859,419.5625 859,420.2188 L859,421.7813 Q859,422.4375 858.7188,422.7188 Q858.4375,423 858,423 Q857.6094,423 857.3594,422.8281 Q857.1094,422.6563 857,422.2031 Q856.9531,421.8906 856.7813,421.7188 Q856.4688,421.3906 855.9063,421.2031 Q855.3438,421 854.7813,421 Q854.0781,421 853.4844,421.2813 Q852.9063,421.5625 852.4531,422.1875 Q852,422.8125 852,423.6719 L852,424.5938 Q852,425.625 852.8438,426.3125 Q853.6875,427 855.1875,427 Q856.0781,427 856.7031,426.7969 Q857.0625,426.6875 857.4688,426.3281 Q857.7344,426.125 857.875,426.0625 Q858.0156,426 858.1875,426 Q858.5156,426 858.75,426.2656 Q859,426.5156 859,426.875 Q859,427.2188 858.6563,427.625 Q858.1563,428.2188 857.3594,428.5469 Q856.3125,429 855.0313,429 Q853.5313,429 852.3281,428.4063 Q851.3594,427.9375 850.6719,426.9219 Q850,425.9063 850,424.7031 L850,423.6094 Q850,422.3594 850.5938,421.2656 Q851.2031,420.1719 852.25,419.5938 Q853.3125,419 854.5,419 Q855.2188,419 855.8438,419.25 Q856.4688,419.5 857,420 Z " fill="#000000"/><text fill="#000000" font-family="sans-serif" font-size="14" lengthAdjust="spacing" textLength="60" x="869" y="429.2285">Company</text><line style="stroke:#181818;stroke-width:0.5;" x1="841" x2="931" y1="439.5" y2="439.5"/><line style="stroke:#181818;stroke-width:0.5;" x1="841" x2="931" y1="447.5" y2="447.5"/></g><!--MD5=[3fd241ca11f270f6bde54c00b8a8581a]
link RegisterEmployeeUI to RegisterEmployeeController--><g id="link_RegisterEmployeeUI_RegisterEmployeeController"><path codeLine="46" d="M166.41,310.5 C183.29,310.5 202.02,310.5 221.69,310.5 " fill="none" id="RegisterEmployeeUI-to-RegisterEmployeeController" style="stroke:#181818;stroke-width:1.0;stroke-dasharray:7.0,7.0;"/><polygon fill="#181818" points="226.71,310.5,217.71,306.5,221.71,310.5,217.71,314.5,226.71,310.5" style="stroke:#181818;stroke-width:1.0;"/></g><!--MD5=[969ee03aa52aee79b0e607297418cbd4]
link RegisterEmployeeController to Company--><g id="link_RegisterEmployeeController_Company"><path codeLine="47" d="M681.08,369.58 C737.99,386.86 795.42,404.3 834.76,416.24 " fill="none" id="RegisterEmployeeController-to-Company" style="stroke:#181818;stroke-width:1.0;stroke-dasharray:7.0,7.0;"/><polygon fill="#181818" points="839.95,417.82,832.5053,411.372,835.1668,416.3636,830.1751,419.0251,839.95,417.82" style="stroke:#181818;stroke-width:1.0;"/></g><!--MD5=[7c63a46d16d075ca7ac66937a2a499f7]
link RegisterEmployeeController to Employee--><g id="link_RegisterEmployeeController_Employee"><path codeLine="48" d="M681.08,251.42 C722.7,238.78 764.59,226.06 799.48,215.47 " fill="none" id="RegisterEmployeeController-to-Employee" style="stroke:#181818;stroke-width:1.0;stroke-dasharray:7.0,7.0;"/><polygon fill="#181818" points="804.57,213.92,794.7951,212.7149,799.7868,215.3764,797.1253,220.368,804.57,213.92" style="stroke:#181818;stroke-width:1.0;"/></g><!--MD5=[ce859576cba61219b3cb4d2d23fdcd81]
link Company to EmployeeStore--><g id="link_Company_EmployeeStore"><path codeLine="49" d="M932.07,431.5 C966.39,431.5 1016.67,431.5 1069.95,431.5 " fill="none" id="Company-EmployeeStore" style="stroke:#181818;stroke-width:1.0;"/><polygon fill="#000000" points="1007,422.6758,997.9549,419.7369,997.9549,425.6147,1007,422.6758" style="stroke:#000000;stroke-width:1.0;"/><text fill="#000000" font-family="sans-serif" font-size="13" lengthAdjust="spacing" textLength="28" x="1011" y="427.9951">uses</text><text fill="#000000" font-family="sans-serif" font-size="13" lengthAdjust="spacing" textLength="7" x="939.9702" y="446.2981">1</text><text fill="#000000" font-family="sans-serif" font-size="13" lengthAdjust="spacing" textLength="7" x="1055.1704" y="445.2371">1</text></g><!--MD5=[429d6c53d29462bcbdf03ec14f68e097]
@startuml
skinparam classAttributeIconSize 0
left to right direction

class RegisterEmployeeUI {
}

class RegisterEmployeeController {
  +getEmployeeRoles()
  +registerEmployee(name, address, phone number, e-mail, Citizen Card number)
  +setRole(role)
  +saveEmployee()
}

class EmployeeStore {
  +registerEmployee(name, address, phone number, e-mail, Citizen Card number)
  +setRole(role)
  +saveEmployee(employee)
  +validateEmployee(employee)
  +addEmployee(employee)
}

class Employee {
  -name
  -address
  -phoneNumber
  -email
  -citizenCardNumber
  -role
  +getName
  +getAddress
  +getPhoneNumber
  +getEmail
  +getCitizenCardNumber
  +getRole
  +setName
  +setAddress
  +setPhoneNumber
  +setEmail
  +setCitizenCardNumber
  +setRole
}

class Company {
}

RegisterEmployeeUI ..> RegisterEmployeeController
RegisterEmployeeController ..> Company
RegisterEmployeeController ..> Employee
Company "1"- -"1" EmployeeStore : uses >


@enduml

PlantUML version 1.2022.4(Sat Apr 09 14:29:17 BST 2022)
(GPL source distribution)
Java Runtime: OpenJDK Runtime Environment
JVM: OpenJDK 64-Bit Server VM
Default Encoding: Cp1252
Language: pt
Country: PT
--></g></svg>