<?xml version="1.0" encoding="UTF-8" standalone="no"?><svg xmlns="http://www.w3.org/2000/svg" xmlns:xlink="http://www.w3.org/1999/xlink" contentScriptType="application/ecmascript" contentStyleType="text/css" height="837px" preserveAspectRatio="none" style="width:1409px;height:837px;background:#FFFFFF;" version="1.1" viewBox="0 0 1409 837" width="1409px" zoomAndPan="magnify"><defs><filter height="300%" id="fl70d5te5x55e" width="300%" x="-1" y="-1"><feGaussianBlur result="blurOut" stdDeviation="2.0"/><feColorMatrix in="blurOut" result="blurOut2" type="matrix" values="0 0 0 0 0 0 0 0 0 0 0 0 0 0 0 0 0 0 .4 0"/><feOffset dx="4.0" dy="4.0" in="blurOut2" result="blurOut3"/><feBlend in="SourceGraphic" in2="blurOut3" mode="normal"/></filter></defs><g><rect fill="#FFFFFF" filter="url(#fl70d5te5x55e)" height="634.5313" style="stroke:#A80036;stroke-width:1.0;" width="10" x="44.5" y="99.6094"/><rect fill="#FFFFFF" filter="url(#fl70d5te5x55e)" height="30.3516" style="stroke:#A80036;stroke-width:1.0;" width="10" x="341.5" y="121.9609"/><rect fill="#FFFFFF" filter="url(#fl70d5te5x55e)" height="258.3672" style="stroke:#A80036;stroke-width:1.0;" width="10" x="341.5" y="182.6641"/><rect fill="#FFFFFF" filter="url(#fl70d5te5x55e)" height="262.7578" style="stroke:#A80036;stroke-width:1.0;" width="10" x="341.5" y="471.3828"/><rect fill="#FFFFFF" filter="url(#fl70d5te5x55e)" height="197.6641" style="stroke:#A80036;stroke-width:1.0;" width="10" x="670.5" y="213.0156"/><rect fill="#FFFFFF" filter="url(#fl70d5te5x55e)" height="195.0547" style="stroke:#A80036;stroke-width:1.0;" width="10" x="670.5" y="501.7344"/><rect fill="#FFFFFF" filter="url(#fl70d5te5x55e)" height="30" style="stroke:#A80036;stroke-width:1.0;" width="10" x="887.5" y="243.3672"/><rect fill="#FFFFFF" filter="url(#fl70d5te5x55e)" height="30.3516" style="stroke:#A80036;stroke-width:1.0;" width="10" x="1025.5" y="303.7188"/><rect fill="#FFFFFF" filter="url(#fl70d5te5x55e)" height="30" style="stroke:#A80036;stroke-width:1.0;" width="10" x="1025.5" y="380.6797"/><rect fill="#FFFFFF" filter="url(#fl70d5te5x55e)" height="164.7031" style="stroke:#A80036;stroke-width:1.0;" width="10" x="1025.5" y="532.0859"/><rect fill="#FFFFFF" filter="url(#fl70d5te5x55e)" height="28" style="stroke:#A80036;stroke-width:1.0;" width="10" x="1030.5" y="570.4375"/><rect fill="#FFFFFF" filter="url(#fl70d5te5x55e)" height="28" style="stroke:#A80036;stroke-width:1.0;" width="10" x="1030.5" y="668.7891"/><line style="stroke:#A80036;stroke-width:1.0;stroke-dasharray:5.0,5.0;" x1="49" x2="49" y1="89.6094" y2="752.1406"/><line style="stroke:#A80036;stroke-width:1.0;stroke-dasharray:5.0,5.0;" x1="346.5" x2="346.5" y1="89.6094" y2="752.1406"/><line style="stroke:#A80036;stroke-width:1.0;stroke-dasharray:5.0,5.0;" x1="675.5" x2="675.5" y1="89.6094" y2="752.1406"/><line style="stroke:#A80036;stroke-width:1.0;stroke-dasharray:5.0,5.0;" x1="892.5" x2="892.5" y1="89.6094" y2="752.1406"/><line style="stroke:#A80036;stroke-width:1.0;stroke-dasharray:5.0,5.0;" x1="1030.5" x2="1030.5" y1="89.6094" y2="752.1406"/><line style="stroke:#A80036;stroke-width:1.0;stroke-dasharray:5.0,5.0;" x1="1341.5" x2="1341.5" y1="345.0234" y2="752.1406"/><text fill="#000000" font-family="sans-serif" font-size="14" lengthAdjust="spacing" textLength="83" x="5" y="86.5332">Administrator</text><ellipse cx="49.5" cy="15" fill="#FEFECE" filter="url(#fl70d5te5x55e)" rx="8" ry="8" style="stroke:#A80036;stroke-width:2.0;"/><path d="M49.5,23 L49.5,50 M36.5,31 L62.5,31 M49.5,50 L36.5,65 M49.5,50 L62.5,65 " fill="none" filter="url(#fl70d5te5x55e)" style="stroke:#A80036;stroke-width:2.0;"/><text fill="#000000" font-family="sans-serif" font-size="14" lengthAdjust="spacing" textLength="83" x="5" y="765.6738">Administrator</text><ellipse cx="49.5" cy="778.75" fill="#FEFECE" filter="url(#fl70d5te5x55e)" rx="8" ry="8" style="stroke:#A80036;stroke-width:2.0;"/><path d="M49.5,786.75 L49.5,813.75 M36.5,794.75 L62.5,794.75 M49.5,813.75 L36.5,828.75 M49.5,813.75 L62.5,828.75 " fill="none" filter="url(#fl70d5te5x55e)" style="stroke:#A80036;stroke-width:2.0;"/><rect fill="#FEFECE" filter="url(#fl70d5te5x55e)" height="49.2188" style="stroke:#A80036;stroke-width:1.5;" width="112" x="288.5" y="35.3906"/><text fill="#000000" font-family="sans-serif" font-size="14" lengthAdjust="spacing" textLength="76" x="304.5" y="56.9238">:SpecifyNew</text><text fill="#000000" font-family="sans-serif" font-size="14" lengthAdjust="spacing" textLength="94" x="299.5" y="74.5332">VaccineTypeUI</text><rect fill="#FEFECE" filter="url(#fl70d5te5x55e)" height="49.2188" style="stroke:#A80036;stroke-width:1.5;" width="112" x="288.5" y="751.1406"/><text fill="#000000" font-family="sans-serif" font-size="14" lengthAdjust="spacing" textLength="76" x="304.5" y="772.6738">:SpecifyNew</text><text fill="#000000" font-family="sans-serif" font-size="14" lengthAdjust="spacing" textLength="94" x="299.5" y="790.2832">VaccineTypeUI</text><rect fill="#FEFECE" filter="url(#fl70d5te5x55e)" height="49.2188" style="stroke:#A80036;stroke-width:1.5;" width="162" x="592.5" y="35.3906"/><text fill="#000000" font-family="sans-serif" font-size="14" lengthAdjust="spacing" textLength="76" x="633.5" y="56.9238">:SpecifyNew</text><text fill="#000000" font-family="sans-serif" font-size="14" lengthAdjust="spacing" textLength="144" x="603.5" y="74.5332">VaccineTypeController</text><rect fill="#FEFECE" filter="url(#fl70d5te5x55e)" height="49.2188" style="stroke:#A80036;stroke-width:1.5;" width="162" x="592.5" y="751.1406"/><text fill="#000000" font-family="sans-serif" font-size="14" lengthAdjust="spacing" textLength="76" x="633.5" y="772.6738">:SpecifyNew</text><text fill="#000000" font-family="sans-serif" font-size="14" lengthAdjust="spacing" textLength="144" x="603.5" y="790.2832">VaccineTypeController</text><rect fill="#FEFECE" filter="url(#fl70d5te5x55e)" height="31.6094" style="stroke:#A80036;stroke-width:1.5;" width="78" x="851.5" y="53"/><text fill="#000000" font-family="sans-serif" font-size="14" lengthAdjust="spacing" textLength="64" x="858.5" y="74.5332">:Company</text><rect fill="#FEFECE" filter="url(#fl70d5te5x55e)" height="31.6094" style="stroke:#A80036;stroke-width:1.5;" width="78" x="851.5" y="751.1406"/><text fill="#000000" font-family="sans-serif" font-size="14" lengthAdjust="spacing" textLength="64" x="858.5" y="772.6738">:Company</text><rect fill="#FEFECE" filter="url(#fl70d5te5x55e)" height="31.6094" style="stroke:#A80036;stroke-width:1.5;" width="170" x="943.5" y="53"/><text fill="#000000" font-family="sans-serif" font-size="14" lengthAdjust="spacing" textLength="156" x="950.5" y="74.5332">store: VaccineTypeStore</text><rect fill="#FEFECE" filter="url(#fl70d5te5x55e)" height="31.6094" style="stroke:#A80036;stroke-width:1.5;" width="170" x="943.5" y="751.1406"/><text fill="#000000" font-family="sans-serif" font-size="14" lengthAdjust="spacing" textLength="156" x="950.5" y="772.6738">store: VaccineTypeStore</text><rect fill="#FEFECE" filter="url(#fl70d5te5x55e)" height="31.6094" style="stroke:#A80036;stroke-width:1.5;" width="111" x="1284.5" y="751.1406"/><text fill="#000000" font-family="sans-serif" font-size="14" lengthAdjust="spacing" textLength="97" x="1291.5" y="772.6738">vt:VaccineType</text><rect fill="#FFFFFF" filter="url(#fl70d5te5x55e)" height="634.5313" style="stroke:#A80036;stroke-width:1.0;" width="10" x="44.5" y="99.6094"/><rect fill="#FFFFFF" filter="url(#fl70d5te5x55e)" height="30.3516" style="stroke:#A80036;stroke-width:1.0;" width="10" x="341.5" y="121.9609"/><rect fill="#FFFFFF" filter="url(#fl70d5te5x55e)" height="258.3672" style="stroke:#A80036;stroke-width:1.0;" width="10" x="341.5" y="182.6641"/><rect fill="#FFFFFF" filter="url(#fl70d5te5x55e)" height="262.7578" style="stroke:#A80036;stroke-width:1.0;" width="10" x="341.5" y="471.3828"/><rect fill="#FFFFFF" filter="url(#fl70d5te5x55e)" height="197.6641" style="stroke:#A80036;stroke-width:1.0;" width="10" x="670.5" y="213.0156"/><rect fill="#FFFFFF" filter="url(#fl70d5te5x55e)" height="195.0547" style="stroke:#A80036;stroke-width:1.0;" width="10" x="670.5" y="501.7344"/><rect fill="#FFFFFF" filter="url(#fl70d5te5x55e)" height="30" style="stroke:#A80036;stroke-width:1.0;" width="10" x="887.5" y="243.3672"/><rect fill="#FFFFFF" filter="url(#fl70d5te5x55e)" height="30.3516" style="stroke:#A80036;stroke-width:1.0;" width="10" x="1025.5" y="303.7188"/><rect fill="#FFFFFF" filter="url(#fl70d5te5x55e)" height="30" style="stroke:#A80036;stroke-width:1.0;" width="10" x="1025.5" y="380.6797"/><rect fill="#FFFFFF" filter="url(#fl70d5te5x55e)" height="164.7031" style="stroke:#A80036;stroke-width:1.0;" width="10" x="1025.5" y="532.0859"/><rect fill="#FFFFFF" filter="url(#fl70d5te5x55e)" height="28" style="stroke:#A80036;stroke-width:1.0;" width="10" x="1030.5" y="570.4375"/><rect fill="#FFFFFF" filter="url(#fl70d5te5x55e)" height="28" style="stroke:#A80036;stroke-width:1.0;" width="10" x="1030.5" y="668.7891"/><polygon fill="#A80036" points="329.5,117.9609,339.5,121.9609,329.5,125.9609,333.5,121.9609" style="stroke:#A80036;stroke-width:1.0;"/><line style="stroke:#A80036;stroke-width:1.0;" x1="54.5" x2="335.5" y1="121.9609" y2="121.9609"/><text fill="#000000" font-family="sans-serif" font-size="13" font-weight="bold" lengthAdjust="spacing" textLength="7" x="61.5" y="117.1045">1</text><text fill="#000000" font-family="sans-serif" font-size="13" lengthAdjust="spacing" textLength="209" x="72.5" y="117.1045">starts specifying a new vaccine type</text><polygon fill="#A80036" points="65.5,148.3125,55.5,152.3125,65.5,156.3125,61.5,152.3125" style="stroke:#A80036;stroke-width:1.0;"/><line style="stroke:#A80036;stroke-width:1.0;stroke-dasharray:2.0,2.0;" x1="59.5" x2="345.5" y1="152.3125" y2="152.3125"/><text fill="#000000" font-family="sans-serif" font-size="13" font-weight="bold" lengthAdjust="spacing" textLength="7" x="71.5" y="147.4561">2</text><text fill="#000000" font-family="sans-serif" font-size="13" lengthAdjust="spacing" textLength="250" x="82.5" y="147.4561">request data(code, description, technology)</text><polygon fill="#A80036" points="329.5,178.6641,339.5,182.6641,329.5,186.6641,333.5,182.6641" style="stroke:#A80036;stroke-width:1.0;"/><line style="stroke:#A80036;stroke-width:1.0;" x1="54.5" x2="335.5" y1="182.6641" y2="182.6641"/><text fill="#000000" font-family="sans-serif" font-size="13" font-weight="bold" lengthAdjust="spacing" textLength="7" x="61.5" y="177.8076">3</text><text fill="#000000" font-family="sans-serif" font-size="13" lengthAdjust="spacing" textLength="122" x="72.5" y="177.8076">types requested data</text><polygon fill="#A80036" points="658.5,209.0156,668.5,213.0156,658.5,217.0156,662.5,213.0156" style="stroke:#A80036;stroke-width:1.0;"/><line style="stroke:#A80036;stroke-width:1.0;" x1="351.5" x2="664.5" y1="213.0156" y2="213.0156"/><text fill="#000000" font-family="sans-serif" font-size="13" font-weight="bold" lengthAdjust="spacing" textLength="7" x="358.5" y="208.1592">4</text><text fill="#000000" font-family="sans-serif" font-size="13" lengthAdjust="spacing" textLength="289" x="369.5" y="208.1592">createVaccineType(code, description, technology)</text><polygon fill="#A80036" points="875.5,239.3672,885.5,243.3672,875.5,247.3672,879.5,243.3672" style="stroke:#A80036;stroke-width:1.0;"/><line style="stroke:#A80036;stroke-width:1.0;" x1="680.5" x2="881.5" y1="243.3672" y2="243.3672"/><text fill="#000000" font-family="sans-serif" font-size="13" font-weight="bold" lengthAdjust="spacing" textLength="7" x="687.5" y="238.5107">5</text><text fill="#000000" font-family="sans-serif" font-size="13" lengthAdjust="spacing" textLength="177" x="698.5" y="238.5107">store = getVaccineTypeStore()</text><polygon fill="#A80036" points="1013.5,299.7188,1023.5,303.7188,1013.5,307.7188,1017.5,303.7188" style="stroke:#A80036;stroke-width:1.0;"/><line style="stroke:#A80036;stroke-width:1.0;" x1="680.5" x2="1019.5" y1="303.7188" y2="303.7188"/><text fill="#000000" font-family="sans-serif" font-size="13" font-weight="bold" lengthAdjust="spacing" textLength="7" x="687.5" y="298.8623">6</text><text fill="#000000" font-family="sans-serif" font-size="13" lengthAdjust="spacing" textLength="314" x="698.5" y="298.8623">vt = createVaccineType(code, description, technology)</text><polygon fill="#A80036" points="1272.5,330.0703,1282.5,334.0703,1272.5,338.0703,1276.5,334.0703" style="stroke:#A80036;stroke-width:1.0;"/><line style="stroke:#A80036;stroke-width:1.0;stroke-dasharray:2.0,2.0;" x1="1030.5" x2="1278.5" y1="334.0703" y2="334.0703"/><text fill="#000000" font-family="sans-serif" font-size="13" font-weight="bold" lengthAdjust="spacing" textLength="7" x="1037.5" y="329.2139">7</text><text fill="#000000" font-family="sans-serif" font-size="13" lengthAdjust="spacing" textLength="214" x="1048.5" y="329.2139">create(code, description, technology)</text><rect fill="#FEFECE" filter="url(#fl70d5te5x55e)" height="31.6094" style="stroke:#A80036;stroke-width:1.5;" width="111" x="1284.5" y="311.7188"/><text fill="#000000" font-family="sans-serif" font-size="14" lengthAdjust="spacing" textLength="97" x="1291.5" y="333.252">vt:VaccineType</text><polygon fill="#A80036" points="1013.5,376.6797,1023.5,380.6797,1013.5,384.6797,1017.5,380.6797" style="stroke:#A80036;stroke-width:1.0;"/><line style="stroke:#A80036;stroke-width:1.0;" x1="680.5" x2="1019.5" y1="380.6797" y2="380.6797"/><text fill="#000000" font-family="sans-serif" font-size="13" font-weight="bold" lengthAdjust="spacing" textLength="7" x="687.5" y="375.8232">8</text><text fill="#000000" font-family="sans-serif" font-size="13" lengthAdjust="spacing" textLength="135" x="698.5" y="375.8232">validateVaccineType(vt)</text><polygon fill="#A80036" points="65.5,437.0313,55.5,441.0313,65.5,445.0313,61.5,441.0313" style="stroke:#A80036;stroke-width:1.0;"/><line style="stroke:#A80036;stroke-width:1.0;stroke-dasharray:2.0,2.0;" x1="59.5" x2="345.5" y1="441.0313" y2="441.0313"/><text fill="#000000" font-family="sans-serif" font-size="13" font-weight="bold" lengthAdjust="spacing" textLength="7" x="71.5" y="436.1748">9</text><text fill="#000000" font-family="sans-serif" font-size="13" lengthAdjust="spacing" textLength="252" x="82.5" y="436.1748">shows the data and requests a confirmation</text><polygon fill="#A80036" points="329.5,467.3828,339.5,471.3828,329.5,475.3828,333.5,471.3828" style="stroke:#A80036;stroke-width:1.0;"/><line style="stroke:#A80036;stroke-width:1.0;" x1="54.5" x2="335.5" y1="471.3828" y2="471.3828"/><text fill="#000000" font-family="sans-serif" font-size="13" font-weight="bold" lengthAdjust="spacing" textLength="14" x="61.5" y="466.5264">10</text><text fill="#000000" font-family="sans-serif" font-size="13" lengthAdjust="spacing" textLength="100" x="79.5" y="466.5264">confirms the data</text><polygon fill="#A80036" points="658.5,497.7344,668.5,501.7344,658.5,505.7344,662.5,501.7344" style="stroke:#A80036;stroke-width:1.0;"/><line style="stroke:#A80036;stroke-width:1.0;" x1="351.5" x2="664.5" y1="501.7344" y2="501.7344"/><text fill="#000000" font-family="sans-serif" font-size="13" font-weight="bold" lengthAdjust="spacing" textLength="14" x="358.5" y="496.8779">11</text><text fill="#000000" font-family="sans-serif" font-size="13" lengthAdjust="spacing" textLength="109" x="376.5" y="496.8779">saveVaccineType()</text><polygon fill="#A80036" points="1013.5,528.0859,1023.5,532.0859,1013.5,536.0859,1017.5,532.0859" style="stroke:#A80036;stroke-width:1.0;"/><line style="stroke:#A80036;stroke-width:1.0;" x1="680.5" x2="1019.5" y1="532.0859" y2="532.0859"/><text fill="#000000" font-family="sans-serif" font-size="13" font-weight="bold" lengthAdjust="spacing" textLength="14" x="687.5" y="527.2295">12</text><text fill="#000000" font-family="sans-serif" font-size="13" lengthAdjust="spacing" textLength="118" x="705.5" y="527.2295">saveVaccineType(vt)</text><line style="stroke:#A80036;stroke-width:1.0;" x1="1040.5" x2="1082.5" y1="562.4375" y2="562.4375"/><line style="stroke:#A80036;stroke-width:1.0;" x1="1082.5" x2="1082.5" y1="562.4375" y2="575.4375"/><line style="stroke:#A80036;stroke-width:1.0;" x1="1041.5" x2="1082.5" y1="575.4375" y2="575.4375"/><polygon fill="#A80036" points="1051.5,571.4375,1041.5,575.4375,1051.5,579.4375,1047.5,575.4375" style="stroke:#A80036;stroke-width:1.0;"/><text fill="#000000" font-family="sans-serif" font-size="13" font-weight="bold" lengthAdjust="spacing" textLength="14" x="1047.5" y="557.5811">13</text><text fill="#000000" font-family="sans-serif" font-size="13" lengthAdjust="spacing" textLength="135" x="1065.5" y="557.5811">validateVaccineType(vt)</text><line style="stroke:#A80036;stroke-width:1.0;" x1="1040.5" x2="1082.5" y1="660.7891" y2="660.7891"/><line style="stroke:#A80036;stroke-width:1.0;" x1="1082.5" x2="1082.5" y1="660.7891" y2="673.7891"/><line style="stroke:#A80036;stroke-width:1.0;" x1="1041.5" x2="1082.5" y1="673.7891" y2="673.7891"/><polygon fill="#A80036" points="1051.5,669.7891,1041.5,673.7891,1051.5,677.7891,1047.5,673.7891" style="stroke:#A80036;stroke-width:1.0;"/><text fill="#000000" font-family="sans-serif" font-size="13" font-weight="bold" lengthAdjust="spacing" textLength="14" x="1047.5" y="655.9326">14</text><text fill="#000000" font-family="sans-serif" font-size="13" lengthAdjust="spacing" textLength="113" x="1065.5" y="655.9326">addVaccineType(vt)</text><polygon fill="#A80036" points="60.5,730.1406,50.5,734.1406,60.5,738.1406,56.5,734.1406" style="stroke:#A80036;stroke-width:1.0;"/><line style="stroke:#A80036;stroke-width:1.0;stroke-dasharray:2.0,2.0;" x1="54.5" x2="345.5" y1="734.1406" y2="734.1406"/><text fill="#000000" font-family="sans-serif" font-size="13" font-weight="bold" lengthAdjust="spacing" textLength="14" x="66.5" y="729.2842">15</text><text fill="#000000" font-family="sans-serif" font-size="13" lengthAdjust="spacing" textLength="152" x="84.5" y="729.2842">informs operation success</text><!--MD5=[fe3c08f597eff253888a275ffede151c]
@startuml
autonumber
actor "Administrator" as ADM

participant ":SpecifyNew \n VaccineTypeUI" as UI
participant ":SpecifyNew \n VaccineTypeController" as CTRL
participant ":Company" as CMP
participant "store: VaccineTypeStore" as VTS
participant "vt:VaccineType" as VT

activate ADM
ADM -> UI : starts specifying a new vaccine type
activate UI
UI - -> ADM : request data(code, description, technology)
deactivate UI

ADM -> UI : types requested data
activate UI

UI -> CTRL : createVaccineType(code, description, technology)
activate CTRL

CTRL -> CMP : store = getVaccineTypeStore()
activate CMP
deactivate CMP

CTRL -> VTS : vt = createVaccineType(code, description, technology)
activate VTS
VTS - -> VT** : create(code, description, technology)
deactivate VTS

CTRL -> VTS : validateVaccineType(vt)
activate VTS
deactivate VTS

deactivate CMP
deactivate CTRL

UI - -> ADM : shows the data and requests a confirmation
deactivate UI

ADM -> UI : confirms the data
activate UI
UI -> CTRL : saveVaccineType()
activate CTRL

CTRL -> VTS : saveVaccineType(vt)
activate VTS

VTS -> VTS: validateVaccineType(vt)
activate VTS
deactivate VTS
|||
VTS -> VTS: addVaccineType(vt)
activate VTS
deactivate VTS

deactivate VTS
deactivate CTRL
UI - -> ADM : informs operation success
deactivate UI
deactivate ADM

@enduml

PlantUML version 1.2022.1(Tue Feb 01 18:19:58 GMT 2022)
(GPL source distribution)
Java Runtime: OpenJDK Runtime Environment
JVM: OpenJDK 64-Bit Server VM
Default Encoding: Cp1252
Language: pt
Country: PT
--></g></svg>