<?xml version="1.0" encoding="UTF-8" standalone="no"?><svg xmlns="http://www.w3.org/2000/svg" xmlns:xlink="http://www.w3.org/1999/xlink" contentScriptType="application/ecmascript" contentStyleType="text/css" height="315px" preserveAspectRatio="none" style="width:1189px;height:315px;background:#FFFFFF;" version="1.1" viewBox="0 0 1189 315" width="1189px" zoomAndPan="magnify"><defs><filter height="300%" id="f1xx1ypttsh9q5" width="300%" x="-1" y="-1"><feGaussianBlur result="blurOut" stdDeviation="2.0"/><feColorMatrix in="blurOut" result="blurOut2" type="matrix" values="0 0 0 0 0 0 0 0 0 0 0 0 0 0 0 0 0 0 .4 0"/><feOffset dx="4.0" dy="4.0" in="blurOut2" result="blurOut3"/><feBlend in="SourceGraphic" in2="blurOut3" mode="normal"/></filter></defs><g><!--MD5=[02e4b9b7573f1156f41e60aa5b4e25a4]
class Company--><rect codeLine="4" fill="#FEFECE" filter="url(#f1xx1ypttsh9q5)" height="75.6719" id="Company" style="stroke:#A80036;stroke-width:1.5;" width="129" x="569" y="126.5"/><ellipse cx="603.8" cy="142.5" fill="#ADD1B2" rx="11" ry="11" style="stroke:#A80036;stroke-width:1.0;"/><path d="M605.8,139 Q606.0031,138.5 606.2375,138.25 Q606.4719,138 606.7375,138 Q607.2063,138 607.5031,138.2813 Q607.8,138.5625 607.8,139.2188 L607.8,140.7813 Q607.8,141.4375 607.5188,141.7188 Q607.2375,142 606.8,142 Q606.4094,142 606.1594,141.8281 Q605.9094,141.6563 605.8,141.2031 Q605.7531,140.8906 605.5813,140.7188 Q605.2688,140.3906 604.7063,140.2031 Q604.1438,140 603.5813,140 Q602.8781,140 602.2844,140.2813 Q601.7063,140.5625 601.2531,141.1875 Q600.8,141.8125 600.8,142.6719 L600.8,143.5938 Q600.8,144.625 601.6438,145.3125 Q602.4875,146 603.9875,146 Q604.8781,146 605.5031,145.7969 Q605.8625,145.6875 606.2688,145.3281 Q606.5344,145.125 606.675,145.0625 Q606.8156,145 606.9875,145 Q607.3156,145 607.55,145.2656 Q607.8,145.5156 607.8,145.875 Q607.8,146.2188 607.4563,146.625 Q606.9563,147.2188 606.1594,147.5469 Q605.1125,148 603.8313,148 Q602.3313,148 601.1281,147.4063 Q600.1594,146.9375 599.4719,145.9219 Q598.8,144.9063 598.8,143.7031 L598.8,142.6094 Q598.8,141.3594 599.3938,140.2656 Q600.0031,139.1719 601.05,138.5938 Q602.1125,138 603.3,138 Q604.0188,138 604.6438,138.25 Q605.2688,138.5 605.8,139 Z " fill="#000000"/><text fill="#000000" font-family="sans-serif" font-size="12" lengthAdjust="spacing" textLength="53" x="622.2" y="147.4102">Company</text><line style="stroke:#A80036;stroke-width:1.5;" x1="570" x2="697" y1="158.5" y2="158.5"/><text fill="#000000" font-family="sans-serif" font-size="11" lengthAdjust="spacing" textLength="59" x="575" y="173.9189">-designation</text><line style="stroke:#A80036;stroke-width:1.5;" x1="570" x2="697" y1="180.3359" y2="180.3359"/><text fill="#000000" font-family="sans-serif" font-size="11" lengthAdjust="spacing" textLength="117" x="575" y="195.7549">-getVaccineTypeStore()</text><!--MD5=[0e501da62322464167c8ec4d233a6b7e]
class VaccineType--><rect codeLine="9" fill="#FEFECE" filter="url(#f1xx1ypttsh9q5)" height="144.8516" id="VaccineType" style="stroke:#A80036;stroke-width:1.5;" width="232" x="927.5" y="7"/><ellipse cx="1004.75" cy="23" fill="#ADD1B2" rx="11" ry="11" style="stroke:#A80036;stroke-width:1.0;"/><path d="M1006.75,19.5 Q1006.9531,19 1007.1875,18.75 Q1007.4219,18.5 1007.6875,18.5 Q1008.1563,18.5 1008.4531,18.7813 Q1008.75,19.0625 1008.75,19.7188 L1008.75,21.2813 Q1008.75,21.9375 1008.4688,22.2188 Q1008.1875,22.5 1007.75,22.5 Q1007.3594,22.5 1007.1094,22.3281 Q1006.8594,22.1563 1006.75,21.7031 Q1006.7031,21.3906 1006.5313,21.2188 Q1006.2188,20.8906 1005.6563,20.7031 Q1005.0938,20.5 1004.5313,20.5 Q1003.8281,20.5 1003.2344,20.7813 Q1002.6563,21.0625 1002.2031,21.6875 Q1001.75,22.3125 1001.75,23.1719 L1001.75,24.0938 Q1001.75,25.125 1002.5938,25.8125 Q1003.4375,26.5 1004.9375,26.5 Q1005.8281,26.5 1006.4531,26.2969 Q1006.8125,26.1875 1007.2188,25.8281 Q1007.4844,25.625 1007.625,25.5625 Q1007.7656,25.5 1007.9375,25.5 Q1008.2656,25.5 1008.5,25.7656 Q1008.75,26.0156 1008.75,26.375 Q1008.75,26.7188 1008.4063,27.125 Q1007.9063,27.7188 1007.1094,28.0469 Q1006.0625,28.5 1004.7813,28.5 Q1003.2813,28.5 1002.0781,27.9063 Q1001.1094,27.4375 1000.4219,26.4219 Q999.75,25.4063 999.75,24.2031 L999.75,23.1094 Q999.75,21.8594 1000.3438,20.7656 Q1000.9531,19.6719 1002,19.0938 Q1003.0625,18.5 1004.25,18.5 Q1004.9688,18.5 1005.5938,18.75 Q1006.2188,19 1006.75,19.5 Z " fill="#000000"/><text fill="#000000" font-family="sans-serif" font-size="12" lengthAdjust="spacing" textLength="69" x="1025.25" y="27.9102">VaccineType</text><line style="stroke:#A80036;stroke-width:1.5;" x1="928.5" x2="1158.5" y1="39" y2="39"/><text fill="#000000" font-family="sans-serif" font-size="11" lengthAdjust="spacing" textLength="28" x="933.5" y="54.4189">-code</text><text fill="#000000" font-family="sans-serif" font-size="11" lengthAdjust="spacing" textLength="57" x="933.5" y="68.2549">-description</text><text fill="#000000" font-family="sans-serif" font-size="11" lengthAdjust="spacing" textLength="57" x="933.5" y="82.0908">-technology</text><line style="stroke:#A80036;stroke-width:1.5;" x1="928.5" x2="1158.5" y1="88.5078" y2="88.5078"/><text fill="#000000" font-family="sans-serif" font-size="11" lengthAdjust="spacing" textLength="220" x="933.5" y="103.9268">+VaccineType(code, description, technology)</text><text fill="#000000" font-family="sans-serif" font-size="11" lengthAdjust="spacing" textLength="117" x="933.5" y="117.7627">-checkCodeRules(code)</text><text fill="#000000" font-family="sans-serif" font-size="11" lengthAdjust="spacing" textLength="175" x="933.5" y="131.5986">-checkDescriptionRules(description)</text><text fill="#000000" font-family="sans-serif" font-size="11" lengthAdjust="spacing" textLength="51" x="933.5" y="145.4346">+toString()</text><!--MD5=[5d1d7a5288013f6c79538ea633b579ef]
class SpecifyNewVaccineTypeUI--><rect codeLine="19" fill="#FEFECE" filter="url(#f1xx1ypttsh9q5)" height="48" id="SpecifyNewVaccineTypeUI" style="stroke:#A80036;stroke-width:1.5;" width="177" x="7" y="140.5"/><ellipse cx="22" cy="156.5" fill="#ADD1B2" rx="11" ry="11" style="stroke:#A80036;stroke-width:1.0;"/><path d="M24,153 Q24.2031,152.5 24.4375,152.25 Q24.6719,152 24.9375,152 Q25.4063,152 25.7031,152.2813 Q26,152.5625 26,153.2188 L26,154.7813 Q26,155.4375 25.7188,155.7188 Q25.4375,156 25,156 Q24.6094,156 24.3594,155.8281 Q24.1094,155.6563 24,155.2031 Q23.9531,154.8906 23.7813,154.7188 Q23.4688,154.3906 22.9063,154.2031 Q22.3438,154 21.7813,154 Q21.0781,154 20.4844,154.2813 Q19.9063,154.5625 19.4531,155.1875 Q19,155.8125 19,156.6719 L19,157.5938 Q19,158.625 19.8438,159.3125 Q20.6875,160 22.1875,160 Q23.0781,160 23.7031,159.7969 Q24.0625,159.6875 24.4688,159.3281 Q24.7344,159.125 24.875,159.0625 Q25.0156,159 25.1875,159 Q25.5156,159 25.75,159.2656 Q26,159.5156 26,159.875 Q26,160.2188 25.6563,160.625 Q25.1563,161.2188 24.3594,161.5469 Q23.3125,162 22.0313,162 Q20.5313,162 19.3281,161.4063 Q18.3594,160.9375 17.6719,159.9219 Q17,158.9063 17,157.7031 L17,156.6094 Q17,155.3594 17.5938,154.2656 Q18.2031,153.1719 19.25,152.5938 Q20.3125,152 21.5,152 Q22.2188,152 22.8438,152.25 Q23.4688,152.5 24,153 Z " fill="#000000"/><text fill="#000000" font-family="sans-serif" font-size="12" lengthAdjust="spacing" textLength="145" x="36" y="161.4102">SpecifyNewVaccineTypeUI</text><line style="stroke:#A80036;stroke-width:1.5;" x1="8" x2="183" y1="172.5" y2="172.5"/><line style="stroke:#A80036;stroke-width:1.5;" x1="8" x2="183" y1="180.5" y2="180.5"/><!--MD5=[654b6611eea81d902b04013993589538]
class SpecifyNewVaccineTypeController--><rect codeLine="22" fill="#FEFECE" filter="url(#f1xx1ypttsh9q5)" height="75.6719" id="SpecifyNewVaccineTypeController" style="stroke:#A80036;stroke-width:1.5;" width="263" x="245" y="126.5"/><ellipse cx="279.8" cy="142.5" fill="#ADD1B2" rx="11" ry="11" style="stroke:#A80036;stroke-width:1.0;"/><path d="M281.8,139 Q282.0031,138.5 282.2375,138.25 Q282.4719,138 282.7375,138 Q283.2063,138 283.5031,138.2813 Q283.8,138.5625 283.8,139.2188 L283.8,140.7813 Q283.8,141.4375 283.5188,141.7188 Q283.2375,142 282.8,142 Q282.4094,142 282.1594,141.8281 Q281.9094,141.6563 281.8,141.2031 Q281.7531,140.8906 281.5813,140.7188 Q281.2688,140.3906 280.7063,140.2031 Q280.1438,140 279.5813,140 Q278.8781,140 278.2844,140.2813 Q277.7063,140.5625 277.2531,141.1875 Q276.8,141.8125 276.8,142.6719 L276.8,143.5938 Q276.8,144.625 277.6438,145.3125 Q278.4875,146 279.9875,146 Q280.8781,146 281.5031,145.7969 Q281.8625,145.6875 282.2688,145.3281 Q282.5344,145.125 282.675,145.0625 Q282.8156,145 282.9875,145 Q283.3156,145 283.55,145.2656 Q283.8,145.5156 283.8,145.875 Q283.8,146.2188 283.4563,146.625 Q282.9563,147.2188 282.1594,147.5469 Q281.1125,148 279.8313,148 Q278.3313,148 277.1281,147.4063 Q276.1594,146.9375 275.4719,145.9219 Q274.8,144.9063 274.8,143.7031 L274.8,142.6094 Q274.8,141.3594 275.3938,140.2656 Q276.0031,139.1719 277.05,138.5938 Q278.1125,138 279.3,138 Q280.0188,138 280.6438,138.25 Q281.2688,138.5 281.8,139 Z " fill="#000000"/><text fill="#000000" font-family="sans-serif" font-size="12" lengthAdjust="spacing" textLength="187" x="298.2" y="147.4102">SpecifyNewVaccineTypeController</text><line style="stroke:#A80036;stroke-width:1.5;" x1="246" x2="507" y1="158.5" y2="158.5"/><line style="stroke:#A80036;stroke-width:1.5;" x1="246" x2="507" y1="166.5" y2="166.5"/><text fill="#000000" font-family="sans-serif" font-size="11" lengthAdjust="spacing" textLength="251" x="251" y="181.9189">+createVaccineType(code, description, technology)</text><text fill="#000000" font-family="sans-serif" font-size="11" lengthAdjust="spacing" textLength="102" x="251" y="195.7549">+saveVaccineType()</text><!--MD5=[9532c95099058dfe385d7270fd32fc0d]
class VaccineTypeStore--><rect codeLine="27" fill="#FEFECE" filter="url(#f1xx1ypttsh9q5)" height="103.3438" id="VaccineTypeStore" style="stroke:#A80036;stroke-width:1.5;" width="263" x="912" y="198"/><ellipse cx="990.25" cy="214" fill="#ADD1B2" rx="11" ry="11" style="stroke:#A80036;stroke-width:1.0;"/><path d="M992.25,210.5 Q992.4531,210 992.6875,209.75 Q992.9219,209.5 993.1875,209.5 Q993.6563,209.5 993.9531,209.7813 Q994.25,210.0625 994.25,210.7188 L994.25,212.2813 Q994.25,212.9375 993.9688,213.2188 Q993.6875,213.5 993.25,213.5 Q992.8594,213.5 992.6094,213.3281 Q992.3594,213.1563 992.25,212.7031 Q992.2031,212.3906 992.0313,212.2188 Q991.7188,211.8906 991.1563,211.7031 Q990.5938,211.5 990.0313,211.5 Q989.3281,211.5 988.7344,211.7813 Q988.1563,212.0625 987.7031,212.6875 Q987.25,213.3125 987.25,214.1719 L987.25,215.0938 Q987.25,216.125 988.0938,216.8125 Q988.9375,217.5 990.4375,217.5 Q991.3281,217.5 991.9531,217.2969 Q992.3125,217.1875 992.7188,216.8281 Q992.9844,216.625 993.125,216.5625 Q993.2656,216.5 993.4375,216.5 Q993.7656,216.5 994,216.7656 Q994.25,217.0156 994.25,217.375 Q994.25,217.7188 993.9063,218.125 Q993.4063,218.7188 992.6094,219.0469 Q991.5625,219.5 990.2813,219.5 Q988.7813,219.5 987.5781,218.9063 Q986.6094,218.4375 985.9219,217.4219 Q985.25,216.4063 985.25,215.2031 L985.25,214.1094 Q985.25,212.8594 985.8438,211.7656 Q986.4531,210.6719 987.5,210.0938 Q988.5625,209.5 989.75,209.5 Q990.4688,209.5 991.0938,209.75 Q991.7188,210 992.25,210.5 Z " fill="#000000"/><text fill="#000000" font-family="sans-serif" font-size="12" lengthAdjust="spacing" textLength="98" x="1010.75" y="218.9102">VaccineTypeStore</text><line style="stroke:#A80036;stroke-width:1.5;" x1="913" x2="1174" y1="230" y2="230"/><line style="stroke:#A80036;stroke-width:1.5;" x1="913" x2="1174" y1="238" y2="238"/><text fill="#000000" font-family="sans-serif" font-size="11" lengthAdjust="spacing" textLength="251" x="918" y="253.4189">+createVaccineType(code, description, technology)</text><text fill="#000000" font-family="sans-serif" font-size="11" lengthAdjust="spacing" textLength="124" x="918" y="267.2549">+validateVaccineType(vt)</text><text fill="#000000" font-family="sans-serif" font-size="11" lengthAdjust="spacing" textLength="111" x="918" y="281.0908">+saveVaccineType(vt)</text><text fill="#000000" font-family="sans-serif" font-size="11" lengthAdjust="spacing" textLength="103" x="918" y="294.9268">-addVaccineType(vt)</text><!--MD5=[05986564e1c13a00611587b35563d868]
link Company to VaccineType--><path codeLine="34" d="M698.24,153.21 C748.32,144.14 819.76,130.77 882,117.5 C895.09,114.71 908.76,111.67 922.35,108.56 " fill="none" id="Company-to-VaccineType" style="stroke:#A80036;stroke-width:1.0;"/><polygon fill="#A80036" points="927.35,107.42,917.6847,105.5275,922.4759,108.5349,919.4685,113.3261,927.35,107.42" style="stroke:#A80036;stroke-width:1.0;"/><polygon fill="#000000" points="737.9036,107.6988,728.4586,106.5839,729.6071,112.3484,737.9036,107.6988" style="stroke:#000000;stroke-width:1.0;"/><text fill="#000000" font-family="sans-serif" font-size="13" lengthAdjust="spacing" textLength="139" x="742" y="113.9951">promotes administration</text><text fill="#000000" font-family="sans-serif" font-size="13" lengthAdjust="spacing" textLength="7" x="706.1303" y="166.364">1</text><text fill="#000000" font-family="sans-serif" font-size="13" lengthAdjust="spacing" textLength="5" x="914.3782" y="123.3453">*</text><!--MD5=[26b80dd60d3305f854b992ec0b603e2d]
link Company to VaccineTypeStore--><path codeLine="35" d="M698.25,177.78 C753.84,189.36 836.37,206.56 906.68,221.2 " fill="none" id="Company-to-VaccineTypeStore" style="stroke:#A80036;stroke-width:1.0;"/><polygon fill="#A80036" points="911.72,222.25,903.7176,216.5087,906.8238,221.2365,902.096,224.3427,911.72,222.25" style="stroke:#A80036;stroke-width:1.0;"/><polygon fill="#000000" points="793.3949,176.6955,785.1393,171.9737,783.9406,177.728,793.3949,176.6955" style="stroke:#000000;stroke-width:1.0;"/><text fill="#000000" font-family="sans-serif" font-size="13" lengthAdjust="spacing" textLength="28" x="797.5" y="180.9951">uses</text><text fill="#000000" font-family="sans-serif" font-size="13" lengthAdjust="spacing" textLength="7" x="706.1414" y="193.7749">1</text><text fill="#000000" font-family="sans-serif" font-size="13" lengthAdjust="spacing" textLength="7" x="896.8991" y="234.6325">1</text><!--MD5=[2ecb384ece7ba683832533b79bd839c7]
link SpecifyNewVaccineTypeController to Company--><path codeLine="36" d="M508.36,164.5 C527.42,164.5 546.38,164.5 563.54,164.5 " fill="none" id="SpecifyNewVaccineTypeController-to-Company" style="stroke:#A80036;stroke-width:1.0;stroke-dasharray:7.0,7.0;"/><polygon fill="#A80036" points="568.8,164.5,559.8,160.5,563.8,164.5,559.8,168.5,568.8,164.5" style="stroke:#A80036;stroke-width:1.0;"/><!--MD5=[da9ecb8ca0785a59b02b4979cbf94715]
link SpecifyNewVaccineTypeController to VaccineType--><path codeLine="37" d="M493.56,126.48 C518.24,119.54 544.31,113.07 569,108.5 C687.74,86.52 825.8,80.2 922.09,78.82 " fill="none" id="SpecifyNewVaccineTypeController-to-VaccineType" style="stroke:#A80036;stroke-width:1.0;stroke-dasharray:7.0,7.0;"/><polygon fill="#A80036" points="927.21,78.75,918.1538,74.879,922.2105,78.8214,918.2681,82.8782,927.21,78.75" style="stroke:#A80036;stroke-width:1.0;"/><!--MD5=[09d92d8960d4f74b3a351a289ae43cb9]
link SpecifyNewVaccineTypeController to VaccineTypeStore--><path codeLine="38" d="M492.21,202.56 C517.28,209.6 543.83,216.11 569,220.5 C681.78,240.19 811.7,247.05 906.89,249.2 " fill="none" id="SpecifyNewVaccineTypeController-to-VaccineTypeStore" style="stroke:#A80036;stroke-width:1.0;stroke-dasharray:7.0,7.0;"/><polygon fill="#A80036" points="911.96,249.31,903.0418,245.1308,906.961,249.21,902.8818,253.1292,911.96,249.31" style="stroke:#A80036;stroke-width:1.0;"/><!--MD5=[7c1b650b482ee65a8aacccfe35e3842b]
link SpecifyNewVaccineTypeUI to SpecifyNewVaccineTypeController--><path codeLine="39" d="M184.01,164.5 C201.69,164.5 220.66,164.5 239.55,164.5 " fill="none" id="SpecifyNewVaccineTypeUI-to-SpecifyNewVaccineTypeController" style="stroke:#A80036;stroke-width:1.0;stroke-dasharray:7.0,7.0;"/><polygon fill="#A80036" points="244.87,164.5,235.87,160.5,239.87,164.5,235.87,168.5,244.87,164.5" style="stroke:#A80036;stroke-width:1.0;"/><!--MD5=[333f859ee0b74e0c0fed2cf9a38b575e]
@startuml
skinparam classAttributeIconSize 0
left to right direction

class Company {
    -designation
    -getVaccineTypeStore()
}

class VaccineType {
    -code
    -description
    -technology
    +VaccineType(code, description, technology)
    -checkCodeRules(code)
    -checkDescriptionRules(description)
    +toString()
}

class SpecifyNewVaccineTypeUI {
}

class SpecifyNewVaccineTypeController {
    +createVaccineType(code, description, technology)
    +saveVaccineType()
}

class VaccineTypeStore {
    +createVaccineType(code, description, technology)
    +validateVaccineType(vt)
    +saveVaccineType(vt)
    -addVaccineType(vt)
}

Company "1" - -> "*" VaccineType : promotes administration >
Company "1" - -> "1" VaccineTypeStore : uses >
SpecifyNewVaccineTypeController ..> Company
SpecifyNewVaccineTypeController ..> VaccineType
SpecifyNewVaccineTypeController ..> VaccineTypeStore
SpecifyNewVaccineTypeUI ..> SpecifyNewVaccineTypeController

@enduml

PlantUML version 1.2022.1(Tue Feb 01 18:19:58 GMT 2022)
(GPL source distribution)
Java Runtime: OpenJDK Runtime Environment
JVM: OpenJDK 64-Bit Server VM
Default Encoding: Cp1252
Language: pt
Country: PT
--></g></svg>