<?xml version="1.0" encoding="UTF-8" standalone="no"?><svg xmlns="http://www.w3.org/2000/svg" xmlns:xlink="http://www.w3.org/1999/xlink" contentStyleType="text/css" height="1079px" preserveAspectRatio="none" style="width:2000px;height:1079px;background:#FFFFFF;" version="1.1" viewBox="0 0 2000 1079" width="2000px" zoomAndPan="magnify"><defs/><g><rect fill="#FFFFFF" height="887.1406" style="stroke:#181818;stroke-width:1.0;" width="10" x="44.5" y="92.6094"/><rect fill="#FFFFFF" height="46.7031" style="stroke:#181818;stroke-width:1.0;" width="10" x="368.5" y="114.9609"/><rect fill="#FFFFFF" height="337.8672" style="stroke:#181818;stroke-width:1.0;" width="10" x="368.5" y="192.0156"/><rect fill="#FFFFFF" height="121.0547" style="stroke:#181818;stroke-width:1.0;" width="10" x="368.5" y="560.2344"/><rect fill="#FFFFFF" height="268.1094" style="stroke:#181818;stroke-width:1.0;" width="10" x="368.5" y="711.6406"/><rect fill="#FFFFFF" height="260.8125" style="stroke:#181818;stroke-width:1.0;" width="10" x="693.5" y="238.7188"/><rect fill="#FFFFFF" height="90.7031" style="stroke:#181818;stroke-width:1.0;" width="10" x="693.5" y="590.5859"/><rect fill="#FFFFFF" height="237.7578" style="stroke:#181818;stroke-width:1.0;" width="10" x="693.5" y="741.9922"/><rect fill="#FFFFFF" height="30" style="stroke:#181818;stroke-width:1.0;" width="10" x="893.5" y="269.0703"/><rect fill="#FFFFFF" height="93.4063" style="stroke:#181818;stroke-width:1.0;" width="10" x="1090.5" y="345.7734"/><rect fill="#FFFFFF" height="30" style="stroke:#181818;stroke-width:1.0;" width="10" x="1090.5" y="469.5313"/><rect fill="#FFFFFF" height="30" style="stroke:#181818;stroke-width:1.0;" width="10" x="1090.5" y="620.9375"/><rect fill="#FFFFFF" height="207.4063" style="stroke:#181818;stroke-width:1.0;" width="10" x="1090.5" y="772.3438"/><rect fill="#FFFFFF" height="28" style="stroke:#181818;stroke-width:1.0;" width="10" x="1095.5" y="810.6953"/><rect fill="#FFFFFF" height="28" style="stroke:#181818;stroke-width:1.0;" width="10" x="1095.5" y="884.0469"/><line style="stroke:#181818;stroke-width:0.5;stroke-dasharray:5.0,5.0;" x1="49" x2="49" y1="82.6094" y2="997.75"/><line style="stroke:#181818;stroke-width:0.5;stroke-dasharray:5.0,5.0;" x1="373" x2="373" y1="82.6094" y2="997.75"/><line style="stroke:#181818;stroke-width:0.5;stroke-dasharray:5.0,5.0;" x1="698" x2="698" y1="82.6094" y2="997.75"/><line style="stroke:#181818;stroke-width:0.5;stroke-dasharray:5.0,5.0;" x1="898.5" x2="898.5" y1="82.6094" y2="997.75"/><line style="stroke:#181818;stroke-width:0.5;stroke-dasharray:5.0,5.0;" x1="1095" x2="1095" y1="82.6094" y2="997.75"/><line style="stroke:#181818;stroke-width:0.5;stroke-dasharray:5.0,5.0;" x1="1427.5" x2="1427.5" y1="433.8281" y2="997.75"/><line style="stroke:#181818;stroke-width:0.5;stroke-dasharray:5.0,5.0;" x1="1645.5" x2="1645.5" y1="82.6094" y2="997.75"/><line style="stroke:#181818;stroke-width:0.5;stroke-dasharray:5.0,5.0;" x1="1892.5" x2="1892.5" y1="387.125" y2="997.75"/><text fill="#000000" font-family="sans-serif" font-size="14" lengthAdjust="spacing" textLength="83" x="5" y="79.5332">Administrator</text><ellipse cx="49.5" cy="13.5" fill="#E2E2F0" rx="8" ry="8" style="stroke:#181818;stroke-width:0.5;"/><path d="M49.5,21.5 L49.5,48.5 M36.5,29.5 L62.5,29.5 M49.5,48.5 L36.5,63.5 M49.5,48.5 L62.5,63.5 " fill="none" style="stroke:#181818;stroke-width:0.5;"/><text fill="#000000" font-family="sans-serif" font-size="14" lengthAdjust="spacing" textLength="83" x="5" y="1011.2832">Administrator</text><ellipse cx="49.5" cy="1022.8594" fill="#E2E2F0" rx="8" ry="8" style="stroke:#181818;stroke-width:0.5;"/><path d="M49.5,1030.8594 L49.5,1057.8594 M36.5,1038.8594 L62.5,1038.8594 M49.5,1057.8594 L36.5,1072.8594 M49.5,1057.8594 L62.5,1072.8594 " fill="none" style="stroke:#181818;stroke-width:0.5;"/><rect fill="#E2E2F0" height="31.6094" rx="2.5" ry="2.5" style="stroke:#181818;stroke-width:0.5;" width="145" x="301" y="50"/><text fill="#000000" font-family="sans-serif" font-size="14" lengthAdjust="spacing" textLength="131" x="308" y="71.5332">:RegisterEmployeeUI</text><rect fill="#E2E2F0" height="31.6094" rx="2.5" ry="2.5" style="stroke:#181818;stroke-width:0.5;" width="145" x="301" y="996.75"/><text fill="#000000" font-family="sans-serif" font-size="14" lengthAdjust="spacing" textLength="131" x="308" y="1018.2832">:RegisterEmployeeUI</text><rect fill="#E2E2F0" height="31.6094" rx="2.5" ry="2.5" style="stroke:#181818;stroke-width:0.5;" width="195" x="601" y="50"/><text fill="#000000" font-family="sans-serif" font-size="14" lengthAdjust="spacing" textLength="181" x="608" y="71.5332">:RegisterEmployeeController</text><rect fill="#E2E2F0" height="31.6094" rx="2.5" ry="2.5" style="stroke:#181818;stroke-width:0.5;" width="195" x="601" y="996.75"/><text fill="#000000" font-family="sans-serif" font-size="14" lengthAdjust="spacing" textLength="181" x="608" y="1018.2832">:RegisterEmployeeController</text><rect fill="#E2E2F0" height="31.6094" rx="2.5" ry="2.5" style="stroke:#181818;stroke-width:0.5;" width="78" x="859.5" y="50"/><text fill="#000000" font-family="sans-serif" font-size="14" lengthAdjust="spacing" textLength="64" x="866.5" y="71.5332">:Company</text><rect fill="#E2E2F0" height="31.6094" rx="2.5" ry="2.5" style="stroke:#181818;stroke-width:0.5;" width="78" x="859.5" y="996.75"/><text fill="#000000" font-family="sans-serif" font-size="14" lengthAdjust="spacing" textLength="64" x="866.5" y="1018.2832">:Company</text><rect fill="#E2E2F0" height="31.6094" rx="2.5" ry="2.5" style="stroke:#181818;stroke-width:0.5;" width="213" x="989" y="50"/><text fill="#000000" font-family="sans-serif" font-size="14" lengthAdjust="spacing" textLength="199" x="996" y="71.5332">employeeStore: EmployeeStore</text><rect fill="#E2E2F0" height="31.6094" rx="2.5" ry="2.5" style="stroke:#181818;stroke-width:0.5;" width="213" x="989" y="996.75"/><text fill="#000000" font-family="sans-serif" font-size="14" lengthAdjust="spacing" textLength="199" x="996" y="1018.2832">employeeStore: EmployeeStore</text><rect fill="#E2E2F0" height="31.6094" rx="2.5" ry="2.5" style="stroke:#181818;stroke-width:0.5;" width="145" x="1355.5" y="996.75"/><text fill="#000000" font-family="sans-serif" font-size="14" lengthAdjust="spacing" textLength="131" x="1362.5" y="1018.2832">employee: Employee</text><rect fill="#E2E2F0" height="31.6094" rx="2.5" ry="2.5" style="stroke:#181818;stroke-width:0.5;" width="271" x="1510.5" y="50"/><text fill="#000000" font-family="sans-serif" font-size="14" lengthAdjust="spacing" textLength="257" x="1517.5" y="71.5332">employeeRoleStore: EmployeeRoleStore</text><rect fill="#E2E2F0" height="31.6094" rx="2.5" ry="2.5" style="stroke:#181818;stroke-width:0.5;" width="271" x="1510.5" y="996.75"/><text fill="#000000" font-family="sans-serif" font-size="14" lengthAdjust="spacing" textLength="257" x="1517.5" y="1018.2832">employeeRoleStore: EmployeeRoleStore</text><rect fill="#E2E2F0" height="31.6094" rx="2.5" ry="2.5" style="stroke:#181818;stroke-width:0.5;" width="203" x="1791.5" y="996.75"/><text fill="#000000" font-family="sans-serif" font-size="14" lengthAdjust="spacing" textLength="189" x="1798.5" y="1018.2832">employeeRole: EmployeeRole</text><rect fill="#FFFFFF" height="887.1406" style="stroke:#181818;stroke-width:1.0;" width="10" x="44.5" y="92.6094"/><rect fill="#FFFFFF" height="46.7031" style="stroke:#181818;stroke-width:1.0;" width="10" x="368.5" y="114.9609"/><rect fill="#FFFFFF" height="337.8672" style="stroke:#181818;stroke-width:1.0;" width="10" x="368.5" y="192.0156"/><rect fill="#FFFFFF" height="121.0547" style="stroke:#181818;stroke-width:1.0;" width="10" x="368.5" y="560.2344"/><rect fill="#FFFFFF" height="268.1094" style="stroke:#181818;stroke-width:1.0;" width="10" x="368.5" y="711.6406"/><rect fill="#FFFFFF" height="260.8125" style="stroke:#181818;stroke-width:1.0;" width="10" x="693.5" y="238.7188"/><rect fill="#FFFFFF" height="90.7031" style="stroke:#181818;stroke-width:1.0;" width="10" x="693.5" y="590.5859"/><rect fill="#FFFFFF" height="237.7578" style="stroke:#181818;stroke-width:1.0;" width="10" x="693.5" y="741.9922"/><rect fill="#FFFFFF" height="30" style="stroke:#181818;stroke-width:1.0;" width="10" x="893.5" y="269.0703"/><rect fill="#FFFFFF" height="93.4063" style="stroke:#181818;stroke-width:1.0;" width="10" x="1090.5" y="345.7734"/><rect fill="#FFFFFF" height="30" style="stroke:#181818;stroke-width:1.0;" width="10" x="1090.5" y="469.5313"/><rect fill="#FFFFFF" height="30" style="stroke:#181818;stroke-width:1.0;" width="10" x="1090.5" y="620.9375"/><rect fill="#FFFFFF" height="207.4063" style="stroke:#181818;stroke-width:1.0;" width="10" x="1090.5" y="772.3438"/><rect fill="#FFFFFF" height="28" style="stroke:#181818;stroke-width:1.0;" width="10" x="1095.5" y="810.6953"/><rect fill="#FFFFFF" height="28" style="stroke:#181818;stroke-width:1.0;" width="10" x="1095.5" y="884.0469"/><polygon fill="#181818" points="356.5,110.9609,366.5,114.9609,356.5,118.9609,360.5,114.9609" style="stroke:#181818;stroke-width:1.0;"/><line style="stroke:#181818;stroke-width:1.0;" x1="54.5" x2="362.5" y1="114.9609" y2="114.9609"/><text fill="#000000" font-family="sans-serif" font-size="13" font-weight="bold" lengthAdjust="spacing" textLength="7" x="61.5" y="110.1045">1</text><text fill="#000000" font-family="sans-serif" font-size="13" lengthAdjust="spacing" textLength="210" x="72.5" y="110.1045">register an "Organization Employee"</text><polygon fill="#181818" points="65.5,157.6641,55.5,161.6641,65.5,165.6641,61.5,161.6641" style="stroke:#181818;stroke-width:1.0;"/><line style="stroke:#181818;stroke-width:1.0;stroke-dasharray:2.0,2.0;" x1="59.5" x2="372.5" y1="161.6641" y2="161.6641"/><text fill="#000000" font-family="sans-serif" font-size="13" font-weight="bold" lengthAdjust="spacing" textLength="7" x="71.5" y="148.6318">2</text><text fill="#000000" font-family="sans-serif" font-size="13" lengthAdjust="spacing" textLength="267" x="82.5" y="140.4561">requests data (name, address, phone number,</text><text fill="#000000" font-family="sans-serif" font-size="13" lengthAdjust="spacing" textLength="169" x="86.5" y="156.8076">e-mail,  Citizen Card number)</text><polygon fill="#181818" points="356.5,188.0156,366.5,192.0156,356.5,196.0156,360.5,192.0156" style="stroke:#181818;stroke-width:1.0;"/><line style="stroke:#181818;stroke-width:1.0;" x1="54.5" x2="362.5" y1="192.0156" y2="192.0156"/><text fill="#000000" font-family="sans-serif" font-size="13" font-weight="bold" lengthAdjust="spacing" textLength="7" x="61.5" y="187.1592">3</text><text fill="#000000" font-family="sans-serif" font-size="13" lengthAdjust="spacing" textLength="122" x="72.5" y="187.1592">types requested data</text><polygon fill="#181818" points="681.5,234.7188,691.5,238.7188,681.5,242.7188,685.5,238.7188" style="stroke:#181818;stroke-width:1.0;"/><line style="stroke:#181818;stroke-width:1.0;" x1="378.5" x2="687.5" y1="238.7188" y2="238.7188"/><text fill="#000000" font-family="sans-serif" font-size="13" font-weight="bold" lengthAdjust="spacing" textLength="7" x="385.5" y="225.6865">4</text><text fill="#000000" font-family="sans-serif" font-size="13" lengthAdjust="spacing" textLength="285" x="396.5" y="217.5107">registerEmployee(name, address, phone number,</text><text fill="#000000" font-family="sans-serif" font-size="13" lengthAdjust="spacing" textLength="165" x="400.5" y="233.8623">e-mail, Citizen Card number)</text><polygon fill="#181818" points="881.5,265.0703,891.5,269.0703,881.5,273.0703,885.5,269.0703" style="stroke:#181818;stroke-width:1.0;"/><line style="stroke:#181818;stroke-width:1.0;" x1="703.5" x2="887.5" y1="269.0703" y2="269.0703"/><text fill="#000000" font-family="sans-serif" font-size="13" font-weight="bold" lengthAdjust="spacing" textLength="7" x="710.5" y="264.2139">5</text><text fill="#000000" font-family="sans-serif" font-size="13" lengthAdjust="spacing" textLength="160" x="721.5" y="264.2139">store = getEmployeeStore()</text><polygon fill="#181818" points="1078.5,341.7734,1088.5,345.7734,1078.5,349.7734,1082.5,345.7734" style="stroke:#181818;stroke-width:1.0;"/><line style="stroke:#181818;stroke-width:1.0;" x1="703.5" x2="1084.5" y1="345.7734" y2="345.7734"/><text fill="#000000" font-family="sans-serif" font-size="13" font-weight="bold" lengthAdjust="spacing" textLength="7" x="710.5" y="332.7412">6</text><text fill="#000000" font-family="sans-serif" font-size="13" lengthAdjust="spacing" textLength="357" x="721.5" y="324.5654">employee = registerEmployee(name, address, phone number,</text><text fill="#000000" font-family="sans-serif" font-size="13" lengthAdjust="spacing" textLength="165" x="725.5" y="340.917">e-mail, Citizen Card number)</text><polygon fill="#181818" points="1779.5,388.4766,1789.5,392.4766,1779.5,396.4766,1783.5,392.4766" style="stroke:#181818;stroke-width:1.0;"/><line style="stroke:#181818;stroke-width:1.0;" x1="1100.5" x2="1785.5" y1="392.4766" y2="392.4766"/><text fill="#000000" font-family="sans-serif" font-size="13" font-weight="bold" lengthAdjust="spacing" textLength="7" x="1107.5" y="379.4443">7</text><text fill="#000000" font-family="sans-serif" font-size="13" lengthAdjust="spacing" textLength="220" x="1118.5" y="371.2686">create(name, address, phone number,</text><text fill="#000000" font-family="sans-serif" font-size="13" lengthAdjust="spacing" textLength="165" x="1122.5" y="387.6201">e-mail, Citizen Card number)</text><rect fill="#E2E2F0" height="31.6094" rx="2.5" ry="2.5" style="stroke:#181818;stroke-width:0.5;" width="203" x="1791.5" y="357.8672"/><text fill="#000000" font-family="sans-serif" font-size="14" lengthAdjust="spacing" textLength="189" x="1798.5" y="379.4004">employeeRole: EmployeeRole</text><polygon fill="#181818" points="1343.5,435.1797,1353.5,439.1797,1343.5,443.1797,1347.5,439.1797" style="stroke:#181818;stroke-width:1.0;"/><line style="stroke:#181818;stroke-width:1.0;" x1="1095.5" x2="1349.5" y1="439.1797" y2="439.1797"/><text fill="#000000" font-family="sans-serif" font-size="13" font-weight="bold" lengthAdjust="spacing" textLength="7" x="1102.5" y="426.1475">8</text><text fill="#000000" font-family="sans-serif" font-size="13" lengthAdjust="spacing" textLength="220" x="1113.5" y="417.9717">create(name, address, phone number,</text><text fill="#000000" font-family="sans-serif" font-size="13" lengthAdjust="spacing" textLength="165" x="1117.5" y="434.3232">e-mail, Citizen Card number)</text><rect fill="#E2E2F0" height="31.6094" rx="2.5" ry="2.5" style="stroke:#181818;stroke-width:0.5;" width="145" x="1355.5" y="404.5703"/><text fill="#000000" font-family="sans-serif" font-size="14" lengthAdjust="spacing" textLength="131" x="1362.5" y="426.1035">employee: Employee</text><polygon fill="#181818" points="1078.5,465.5313,1088.5,469.5313,1078.5,473.5313,1082.5,469.5313" style="stroke:#181818;stroke-width:1.0;"/><line style="stroke:#181818;stroke-width:1.0;" x1="703.5" x2="1084.5" y1="469.5313" y2="469.5313"/><text fill="#000000" font-family="sans-serif" font-size="13" font-weight="bold" lengthAdjust="spacing" textLength="7" x="710.5" y="464.6748">9</text><text fill="#000000" font-family="sans-serif" font-size="13" lengthAdjust="spacing" textLength="213" x="721.5" y="464.6748">validateRegisterEmployee(employee)</text><polygon fill="#181818" points="65.5,525.8828,55.5,529.8828,65.5,533.8828,61.5,529.8828" style="stroke:#181818;stroke-width:1.0;"/><line style="stroke:#181818;stroke-width:1.0;stroke-dasharray:2.0,2.0;" x1="59.5" x2="372.5" y1="529.8828" y2="529.8828"/><text fill="#000000" font-family="sans-serif" font-size="13" font-weight="bold" lengthAdjust="spacing" textLength="14" x="71.5" y="525.0264">10</text><text fill="#000000" font-family="sans-serif" font-size="13" lengthAdjust="spacing" textLength="272" x="89.5" y="525.0264">shows employee role list and ask to select one</text><polygon fill="#181818" points="356.5,556.2344,366.5,560.2344,356.5,564.2344,360.5,560.2344" style="stroke:#181818;stroke-width:1.0;"/><line style="stroke:#181818;stroke-width:1.0;" x1="54.5" x2="362.5" y1="560.2344" y2="560.2344"/><text fill="#000000" font-family="sans-serif" font-size="13" font-weight="bold" lengthAdjust="spacing" textLength="14" x="61.5" y="555.3779">11</text><text fill="#000000" font-family="sans-serif" font-size="13" lengthAdjust="spacing" textLength="145" x="79.5" y="555.3779">selects an employee role</text><polygon fill="#181818" points="681.5,586.5859,691.5,590.5859,681.5,594.5859,685.5,590.5859" style="stroke:#181818;stroke-width:1.0;"/><line style="stroke:#181818;stroke-width:1.0;" x1="378.5" x2="687.5" y1="590.5859" y2="590.5859"/><text fill="#000000" font-family="sans-serif" font-size="13" font-weight="bold" lengthAdjust="spacing" textLength="14" x="385.5" y="585.7295">12</text><text fill="#000000" font-family="sans-serif" font-size="13" lengthAdjust="spacing" textLength="222" x="403.5" y="585.7295">employeeRoles = getEmployeeRoles()</text><polygon fill="#181818" points="1078.5,616.9375,1088.5,620.9375,1078.5,624.9375,1082.5,620.9375" style="stroke:#181818;stroke-width:1.0;"/><line style="stroke:#181818;stroke-width:1.0;" x1="703.5" x2="1084.5" y1="620.9375" y2="620.9375"/><text fill="#000000" font-family="sans-serif" font-size="13" font-weight="bold" lengthAdjust="spacing" textLength="14" x="710.5" y="616.0811">13</text><text fill="#000000" font-family="sans-serif" font-size="13" lengthAdjust="spacing" textLength="277" x="728.5" y="616.0811">employeeRoleStore = getEmployeeRolesStore()</text><polygon fill="#181818" points="1634,677.2891,1644,681.2891,1634,685.2891,1638,681.2891" style="stroke:#181818;stroke-width:1.0;"/><line style="stroke:#181818;stroke-width:1.0;" x1="698.5" x2="1640" y1="681.2891" y2="681.2891"/><text fill="#000000" font-family="sans-serif" font-size="13" font-weight="bold" lengthAdjust="spacing" textLength="14" x="705.5" y="676.4326">14</text><text fill="#000000" font-family="sans-serif" font-size="13" lengthAdjust="spacing" textLength="117" x="723.5" y="676.4326">getEmployeeRoles()</text><polygon fill="#181818" points="356.5,707.6406,366.5,711.6406,356.5,715.6406,360.5,711.6406" style="stroke:#181818;stroke-width:1.0;"/><line style="stroke:#181818;stroke-width:1.0;" x1="54.5" x2="362.5" y1="711.6406" y2="711.6406"/><text fill="#000000" font-family="sans-serif" font-size="13" font-weight="bold" lengthAdjust="spacing" textLength="14" x="61.5" y="706.7842">15</text><text fill="#000000" font-family="sans-serif" font-size="13" lengthAdjust="spacing" textLength="100" x="79.5" y="706.7842">confirms the data</text><polygon fill="#181818" points="681.5,737.9922,691.5,741.9922,681.5,745.9922,685.5,741.9922" style="stroke:#181818;stroke-width:1.0;"/><line style="stroke:#181818;stroke-width:1.0;" x1="378.5" x2="687.5" y1="741.9922" y2="741.9922"/><text fill="#000000" font-family="sans-serif" font-size="13" font-weight="bold" lengthAdjust="spacing" textLength="14" x="385.5" y="737.1357">16</text><text fill="#000000" font-family="sans-serif" font-size="13" lengthAdjust="spacing" textLength="92" x="403.5" y="737.1357">saveEmployee()</text><polygon fill="#181818" points="1078.5,768.3438,1088.5,772.3438,1078.5,776.3438,1082.5,772.3438" style="stroke:#181818;stroke-width:1.0;"/><line style="stroke:#181818;stroke-width:1.0;" x1="703.5" x2="1084.5" y1="772.3438" y2="772.3438"/><text fill="#000000" font-family="sans-serif" font-size="13" font-weight="bold" lengthAdjust="spacing" textLength="14" x="710.5" y="767.4873">17</text><text fill="#000000" font-family="sans-serif" font-size="13" lengthAdjust="spacing" textLength="148" x="728.5" y="767.4873">saveEmployee(employee)</text><line style="stroke:#181818;stroke-width:1.0;" x1="1105.5" x2="1147.5" y1="802.6953" y2="802.6953"/><line style="stroke:#181818;stroke-width:1.0;" x1="1147.5" x2="1147.5" y1="802.6953" y2="815.6953"/><line style="stroke:#181818;stroke-width:1.0;" x1="1106.5" x2="1147.5" y1="815.6953" y2="815.6953"/><polygon fill="#181818" points="1116.5,811.6953,1106.5,815.6953,1116.5,819.6953,1112.5,815.6953" style="stroke:#181818;stroke-width:1.0;"/><text fill="#000000" font-family="sans-serif" font-size="13" font-weight="bold" lengthAdjust="spacing" textLength="14" x="1112.5" y="797.8389">18</text><text fill="#000000" font-family="sans-serif" font-size="13" lengthAdjust="spacing" textLength="165" x="1130.5" y="797.8389">validateEmployee(employee)</text><line style="stroke:#181818;stroke-width:1.0;" x1="1105.5" x2="1147.5" y1="876.0469" y2="876.0469"/><line style="stroke:#181818;stroke-width:1.0;" x1="1147.5" x2="1147.5" y1="876.0469" y2="889.0469"/><line style="stroke:#181818;stroke-width:1.0;" x1="1106.5" x2="1147.5" y1="889.0469" y2="889.0469"/><polygon fill="#181818" points="1116.5,885.0469,1106.5,889.0469,1116.5,893.0469,1112.5,889.0469" style="stroke:#181818;stroke-width:1.0;"/><text fill="#000000" font-family="sans-serif" font-size="13" font-weight="bold" lengthAdjust="spacing" textLength="14" x="1112.5" y="871.1904">19</text><text fill="#000000" font-family="sans-serif" font-size="13" lengthAdjust="spacing" textLength="143" x="1130.5" y="871.1904">addEmployee(employee)</text><polygon fill="#181818" points="389.5,945.3984,379.5,949.3984,389.5,953.3984,385.5,949.3984" style="stroke:#181818;stroke-width:1.0;"/><line style="stroke:#181818;stroke-width:1.0;stroke-dasharray:2.0,2.0;" x1="383.5" x2="692.5" y1="949.3984" y2="949.3984"/><text fill="#000000" font-family="sans-serif" font-size="13" font-weight="bold" lengthAdjust="spacing" textLength="14" x="395.5" y="944.542">20</text><text fill="#000000" font-family="sans-serif" font-size="13" lengthAdjust="spacing" textLength="32" x="413.5" y="944.542">result</text><polygon fill="#181818" points="60.5,975.75,50.5,979.75,60.5,983.75,56.5,979.75" style="stroke:#181818;stroke-width:1.0;"/><line style="stroke:#181818;stroke-width:1.0;stroke-dasharray:2.0,2.0;" x1="54.5" x2="372.5" y1="979.75" y2="979.75"/><text fill="#000000" font-family="sans-serif" font-size="13" font-weight="bold" lengthAdjust="spacing" textLength="14" x="66.5" y="974.8936">21</text><text fill="#000000" font-family="sans-serif" font-size="13" lengthAdjust="spacing" textLength="152" x="84.5" y="974.8936">informs operation success</text><!--MD5=[0a4998895442f9416c3edd4e79976587]
@startuml
autonumber
actor "Administrator" as ADM

participant ":RegisterEmployeeUI" as UI
participant ":RegisterEmployeeController" as CTRL
participant ":Company" as CMPN
participant "employeeStore: EmployeeStore" as ES
participant "employee: Employee" as E
participant "employeeRoleStore: EmployeeRoleStore" as ERS
participant "employeeRole: EmployeeRole" as ER
activate ADM

ADM -> UI : register an "Organization Employee"
activate UI

UI - -> ADM : requests data (name, address, phone number,\n e-mail,  Citizen Card number)
deactivate UI

ADM -> UI : types requested data
activate UI

UI -> CTRL : registerEmployee(name, address, phone number,\n e-mail, Citizen Card number)
activate CTRL

CTRL -> CMPN : store = getEmployeeStore()

activate CMPN
deactivate CMPN

CTRL -> ES : employee = registerEmployee(name, address, phone number,\n e-mail, Citizen Card number)
activate ES

ES -> ER** : create(name, address, phone number,\n e-mail, Citizen Card number)
ES -> E** : create(name, address, phone number,\n e-mail, Citizen Card number)
deactivate ES
CTRL -> ES : validateRegisterEmployee(employee)
activate ES
deactivate ES
deactivate CTRL

UI - -> ADM : shows employee role list and ask to select one
deactivate ES

deactivate UI

ADM -> UI : selects an employee role
activate UI

UI -> CTRL : employeeRoles = getEmployeeRoles()
activate CTRL

CTRL -> ES : employeeRoleStore = getEmployeeRolesStore()
activate ES
deactivate ES

CTRL -> ERS : getEmployeeRoles()

deactivate CTRL
deactivate UI

ADM -> UI : confirms the data
activate UI

UI -> CTRL : saveEmployee()
activate CTRL

CTRL -> ES : saveEmployee(employee)
activate ES

ES -> ES: validateEmployee(employee)
activate ES
deactivate ES
ES -> ES: addEmployee(employee)
activate ES
deactivate ES
CTRL - -> UI: result
UI - -> ADM : informs operation success

deactivate ES
deactivate CTRL
deactivate UI
deactivate ADM

@enduml

PlantUML version 1.2022.4(Sat Apr 09 14:29:17 BST 2022)
(GPL source distribution)
Java Runtime: OpenJDK Runtime Environment
JVM: OpenJDK 64-Bit Server VM
Default Encoding: Cp1252
Language: pt
Country: PT
--></g></svg>