<?xml version="1.0" encoding="UTF-8" standalone="no"?><svg xmlns="http://www.w3.org/2000/svg" xmlns:xlink="http://www.w3.org/1999/xlink" contentStyleType="text/css" height="2277px" preserveAspectRatio="none" style="width:858px;height:2277px;background:#FFFFFF;" version="1.1" viewBox="0 0 858 2277" width="858px" zoomAndPan="magnify"><defs/><g><!--MD5=[99b31deea5d7419a569cd5090bf83263]
cluster System--><g id="cluster_System"><path d="M208.5,6 L259.5,6 A3.75,3.75 0 0 1 262,8.5 L269,29.6094 L848.5,29.6094 A2.5,2.5 0 0 1 851,32.1094 L851,2267.5 A2.5,2.5 0 0 1 848.5,2270 L208.5,2270 A2.5,2.5 0 0 1 206,2267.5 L206,8.5 A2.5,2.5 0 0 1 208.5,6 " style="stroke:#000000;stroke-width:1.5;fill:none;"/><line style="stroke:#000000;stroke-width:1.5;fill:none;" x1="206" x2="269" y1="29.6094" y2="29.6094"/><text fill="#000000" font-family="sans-serif" font-size="14" font-weight="bold" lengthAdjust="spacing" textLength="50" x="210" y="22.5332">System</text></g><g id="elem_UC1"><ellipse cx="528.2928" cy="167.8586" fill="#F1F1F1" rx="102.2928" ry="22.8586" style="stroke:#181818;stroke-width:0.5;"/><text fill="#000000" font-family="sans-serif" font-size="14" lengthAdjust="spacing" textLength="166" x="445.2928" y="171.5871">UC01: Schedule a vaccine</text></g><g id="elem_UC2"><ellipse cx="528.7192" cy="1284.9438" fill="#F1F1F1" rx="112.7192" ry="24.9438" style="stroke:#181818;stroke-width:0.5;"/><text fill="#000000" font-family="sans-serif" font-size="14" lengthAdjust="spacing" textLength="189" x="434.2192" y="1288.6724">UC02: Schedule a vaccination</text></g><g id="elem_UC3"><ellipse cx="528.6681" cy="1367.2336" fill="#F1F1F1" rx="99.1681" ry="22.2336" style="stroke:#181818;stroke-width:0.5;"/><text fill="#000000" font-family="sans-serif" font-size="14" lengthAdjust="spacing" textLength="159" x="449.1681" y="1370.9621">UC03: Register SNS user</text></g><g id="elem_UC4"><ellipse cx="528.3821" cy="1452.8764" fill="#F1F1F1" rx="129.8821" ry="28.3764" style="stroke:#181818;stroke-width:0.5;"/><text fill="#000000" font-family="sans-serif" font-size="14" lengthAdjust="spacing" textLength="226" x="415.3821" y="1456.6049">UC04: Register the SNS user arrival</text></g><g id="elem_UC5"><ellipse cx="528.5791" cy="543.1158" fill="#F1F1F1" rx="153.5791" ry="33.1158" style="stroke:#181818;stroke-width:0.5;"/><text fill="#000000" font-family="sans-serif" font-size="14" lengthAdjust="spacing" textLength="276" x="390.5791" y="546.8443">UC05: Consult the users in the waiting room</text></g><g id="elem_UC6"><ellipse cx="528.5856" cy="2212.1171" fill="#F1F1F1" rx="196.0856" ry="41.6171" style="stroke:#181818;stroke-width:0.5;"/><text fill="#000000" font-family="sans-serif" font-size="14" lengthAdjust="spacing" textLength="364" x="346.5856" y="2215.8456">UC06: Record daily the total number of people vaccinated</text></g><g id="elem_UC7"><ellipse cx="528.6306" cy="646.2261" fill="#F1F1F1" rx="164.1306" ry="35.2261" style="stroke:#181818;stroke-width:0.5;"/><text fill="#000000" font-family="sans-serif" font-size="14" lengthAdjust="spacing" textLength="298" x="379.6306" y="649.9546">UC07: Record adverse reactions of a SNS User</text></g><g id="elem_UC8"><ellipse cx="528.4199" cy="268.884" fill="#F1F1F1" rx="202.4199" ry="42.884" style="stroke:#181818;stroke-width:0.5;"/><text fill="#000000" font-family="sans-serif" font-size="14" lengthAdjust="spacing" textLength="377" x="339.9199" y="272.6125">UC08: Record the administration of a vaccine to a SNS User</text></g><g id="elem_UC9"><ellipse cx="528.7387" cy="1040.8477" fill="#F1F1F1" rx="124.7387" ry="27.3477" style="stroke:#181818;stroke-width:0.5;"/><text fill="#000000" font-family="sans-serif" font-size="14" lengthAdjust="spacing" textLength="215" x="421.2387" y="1044.5763">UC09: Register vaccination center</text></g><g id="elem_UC10"><ellipse cx="528.5583" cy="1125.9117" fill="#F1F1F1" rx="100.0583" ry="22.4117" style="stroke:#181818;stroke-width:0.5;"/><text fill="#000000" font-family="sans-serif" font-size="14" lengthAdjust="spacing" textLength="161" x="448.0583" y="1129.6402">UC10: Register employee</text></g><g id="elem_UC11"><ellipse cx="528.535" cy="1203.807" fill="#F1F1F1" rx="89.535" ry="20.307" style="stroke:#181818;stroke-width:0.5;"/><text fill="#000000" font-family="sans-serif" font-size="14" lengthAdjust="spacing" textLength="137" x="460.035" y="1207.5355">UC11: List employees</text></g><g id="elem_UC12"><ellipse cx="528.6585" cy="740.0317" fill="#F1F1F1" rx="108.1585" ry="24.0317" style="stroke:#181818;stroke-width:0.5;"/><text fill="#000000" font-family="sans-serif" font-size="14" lengthAdjust="spacing" textLength="179" x="439.1585" y="743.7602">UC12: Register vaccine type</text></g><g id="elem_UC13"><ellipse cx="528.4223" cy="838.7845" fill="#F1F1F1" rx="184.4223" ry="39.2845" style="stroke:#181818;stroke-width:0.5;"/><text fill="#000000" font-family="sans-serif" font-size="14" lengthAdjust="spacing" textLength="340" x="358.4223" y="842.513">UC13: Register vaccine and its administration process</text></g><g id="elem_UC14"><ellipse cx="528.3756" cy="945.8751" fill="#F1F1F1" rx="147.3756" ry="31.8751" style="stroke:#181818;stroke-width:0.5;"/><text fill="#000000" font-family="sans-serif" font-size="14" lengthAdjust="spacing" textLength="263" x="396.8756" y="949.6036">UC14: Load a set of users from a CSV file</text></g><g id="elem_UC15"><ellipse cx="528.3471" cy="1551.1694" fill="#F1F1F1" rx="158.8471" ry="34.1694" style="stroke:#181818;stroke-width:0.5;"/><text fill="#000000" font-family="sans-serif" font-size="14" lengthAdjust="spacing" textLength="287" x="384.8471" y="1554.8979">UC15: Check and export vaccination statistics</text></g><g id="elem_UC16"><ellipse cx="528.6676" cy="1653.2335" fill="#F1F1F1" rx="151.6676" ry="32.7335" style="stroke:#181818;stroke-width:0.5;"/><text fill="#000000" font-family="sans-serif" font-size="14" lengthAdjust="spacing" textLength="272" x="392.6676" y="1656.962">UC16: Analyze the performance of a center</text></g><g id="elem_UC17"><ellipse cx="528.6734" cy="1751.2347" fill="#F1F1F1" rx="141.6734" ry="30.7347" style="stroke:#181818;stroke-width:0.5;"/><text fill="#000000" font-family="sans-serif" font-size="14" lengthAdjust="spacing" textLength="251" x="403.1734" y="1754.9632">UC17: Import data from a legacy system</text></g><g id="elem_UC18"><ellipse cx="528.7239" cy="1839.1448" fill="#F1F1F1" rx="98.7239" ry="22.1448" style="stroke:#181818;stroke-width:0.5;"/><text fill="#000000" font-family="sans-serif" font-size="14" lengthAdjust="spacing" textLength="158" x="449.7239" y="1842.8733">UC18: List of all vaccines</text></g><g id="elem_UC19"><ellipse cx="528.7076" cy="411.2415" fill="#F1F1F1" rx="306.7076" ry="63.7415" style="stroke:#181818;stroke-width:0.5;"/><text fill="#000000" font-family="sans-serif" font-size="14" lengthAdjust="spacing" textLength="589" x="234.2076" y="414.97">UC19: Consult the patient information sheet for instructions on the vaccine to be administered</text></g><g id="elem_UC20"><ellipse cx="528.3881" cy="75.9776" fill="#F1F1F1" rx="157.8881" ry="33.9776" style="stroke:#181818;stroke-width:0.5;"/><text fill="#000000" font-family="sans-serif" font-size="14" lengthAdjust="spacing" textLength="285" x="385.8881" y="79.7061">UC20: Request the issuance of the certificate</text></g><g id="elem_UC21"><ellipse cx="528.7356" cy="2102.9471" fill="#F1F1F1" rx="150.2356" ry="32.4471" style="stroke:#181818;stroke-width:0.5;"/><text fill="#000000" font-family="sans-serif" font-size="14" lengthAdjust="spacing" textLength="269" x="394.2356" y="2106.6756">UC21: Analyse the data from other centers</text></g><g id="elem_UC22"><ellipse cx="528.6999" cy="1924.94" fill="#F1F1F1" rx="132.6999" ry="28.94" style="stroke:#181818;stroke-width:0.5;"/><text fill="#000000" font-family="sans-serif" font-size="14" lengthAdjust="spacing" textLength="232" x="412.6999" y="1928.6685">UC22: Visualize the stats and graphs</text></g><g id="elem_UC23"><ellipse cx="528.5894" cy="2012.2179" fill="#F1F1F1" rx="104.0894" ry="23.2179" style="stroke:#181818;stroke-width:0.5;"/><text fill="#000000" font-family="sans-serif" font-size="14" lengthAdjust="spacing" textLength="170" x="443.5894" y="2015.9464">UC23: To generate reports</text></g><!--MD5=[6994468d0abac0210283409f53c085ad]
entity snsUser--><g id="elem_snsUser"><ellipse cx="84" cy="91.5" fill="#F1F1F1" rx="8" ry="8" style="stroke:#181818;stroke-width:0.5;"/><path d="M84,99.5 L84,126.5 M71,107.5 L97,107.5 M84,126.5 L71,141.5 M84,126.5 L97,141.5 " fill="none" style="stroke:#181818;stroke-width:0.5;"/><text fill="#000000" font-family="sans-serif" font-size="14" lengthAdjust="spacing" textLength="60" x="54" y="157.5332">SNS User</text></g><!--MD5=[87d66015e0fe95d70bf3fa68103252e8]
entity nurse--><g id="elem_nurse"><ellipse cx="84" cy="446.5" fill="#F1F1F1" rx="8" ry="8" style="stroke:#181818;stroke-width:0.5;"/><path d="M84,454.5 L84,481.5 M71,462.5 L97,462.5 M84,481.5 L71,496.5 M84,481.5 L97,496.5 " fill="none" style="stroke:#181818;stroke-width:0.5;"/><text fill="#000000" font-family="sans-serif" font-size="14" lengthAdjust="spacing" textLength="37" x="65.5" y="512.5332">Nurse</text></g><!--MD5=[79a439086b036a57b90a01d7b2f8bbd1]
entity admin--><g id="elem_admin"><ellipse cx="84" cy="963.5" fill="#F1F1F1" rx="8" ry="8" style="stroke:#181818;stroke-width:0.5;"/><path d="M84,971.5 L84,998.5 M71,979.5 L97,979.5 M84,998.5 L71,1013.5 M84,998.5 L97,1013.5 " fill="none" style="stroke:#181818;stroke-width:0.5;"/><text fill="#000000" font-family="sans-serif" font-size="14" lengthAdjust="spacing" textLength="83" x="42.5" y="1029.5332">Administrator</text></g><!--MD5=[8df531fd36edad519192f49b4d80bdb0]
entity receptionist--><g id="elem_receptionist"><ellipse cx="84" cy="1336.5" fill="#F1F1F1" rx="8" ry="8" style="stroke:#181818;stroke-width:0.5;"/><path d="M84,1344.5 L84,1371.5 M71,1352.5 L97,1352.5 M84,1371.5 L71,1386.5 M84,1371.5 L97,1386.5 " fill="none" style="stroke:#181818;stroke-width:0.5;"/><text fill="#000000" font-family="sans-serif" font-size="14" lengthAdjust="spacing" textLength="78" x="45" y="1402.5332">Receptionist</text></g><!--MD5=[d3a436cbff7bda3898ca7f562d826780]
entity centerCoordinator--><g id="elem_centerCoordinator"><ellipse cx="84" cy="1808.5" fill="#F1F1F1" rx="8" ry="8" style="stroke:#181818;stroke-width:0.5;"/><path d="M84,1816.5 L84,1843.5 M71,1824.5 L97,1824.5 M84,1843.5 L71,1858.5 M84,1843.5 L97,1858.5 " fill="none" style="stroke:#181818;stroke-width:0.5;"/><text fill="#000000" font-family="sans-serif" font-size="14" lengthAdjust="spacing" textLength="122" x="23" y="1874.5332">Center Coordinator</text></g><!--MD5=[13dff29a2267c98a2d820d96b9b744fb]
entity timer--><g id="elem_timer"><ellipse cx="84" cy="2181.5" fill="#F1F1F1" rx="8" ry="8" style="stroke:#181818;stroke-width:0.5;"/><path d="M84,2189.5 L84,2216.5 M71,2197.5 L97,2197.5 M84,2216.5 L71,2231.5 M84,2216.5 L97,2231.5 " fill="none" style="stroke:#181818;stroke-width:0.5;"/><text fill="#000000" font-family="sans-serif" font-size="14" lengthAdjust="spacing" textLength="156" x="6" y="2247.5332">«automatic» Timer/Clock</text></g><!--MD5=[48430672b9bace5ed8ed542a00bd895b]
link snsUser to UC1--><g id="link_snsUser_UC1"><path d="M114.03,125.02 C178.16,131.68 334.17,147.9 435.16,158.4 " fill="none" id="snsUser-UC1" style="stroke:#181818;stroke-width:1.0;"/></g><!--MD5=[c6782c783a77a159b444a1a9f9fb6300]
link receptionist to UC2--><g id="link_receptionist_UC2"><path d="M123.09,1351.23 C144.72,1342.85 172.49,1333.07 198,1327 C271.63,1309.49 356.38,1298.89 421.48,1292.72 " fill="none" id="receptionist-UC2" style="stroke:#181818;stroke-width:1.0;"/></g><!--MD5=[e623d35dd041d64a849fc0d6ed7bba7e]
link receptionist to UC3--><g id="link_receptionist_UC3"><path d="M123.11,1367 C190.51,1367 332.71,1367 429.2,1367 " fill="none" id="receptionist-UC3" style="stroke:#181818;stroke-width:1.0;"/></g><!--MD5=[96fde1d2e0b1291cb173a973fcca5e0c]
link receptionist to UC4--><g id="link_receptionist_UC4"><path d="M123.16,1382.21 C144.81,1390.32 172.58,1399.86 198,1406 C267.09,1422.69 345.85,1434.19 409.04,1441.64 " fill="none" id="receptionist-UC4" style="stroke:#181818;stroke-width:1.0;"/></g><!--MD5=[d68d844c84c5b9178d019b496cb916a6]
link nurse to UC5--><g id="link_nurse_UC5"><path d="M102.62,479.63 C152.05,487 295.36,508.38 401.96,524.27 " fill="none" id="nurse-UC5" style="stroke:#181818;stroke-width:1.0;"/></g><!--MD5=[c4e12529aca786f124e361015c10d713]
link timer to UC6--><g id="link_timer_UC6"><path d="M162.08,2212 C209.37,2212 272.23,2212 332.47,2212 " fill="none" id="timer-UC6" style="stroke:#181818;stroke-width:1.0;"/></g><!--MD5=[5f468418e2d96549bbc39db60ad4584f]
link nurse to UC7--><g id="link_nurse_UC7"><path d="M102.62,503.19 C122.43,530.37 157.21,571.81 198,593 C249.29,619.64 310.64,633.56 366.42,640.64 " fill="none" id="nurse-UC7" style="stroke:#181818;stroke-width:1.0;"/></g><!--MD5=[6ee096a9f7aadf14d5e1aae46ec92742]
link nurse to UC8--><g id="link_nurse_UC8"><path d="M102.57,441.19 C121.33,406.95 154.35,356.72 198,330 C238.56,305.17 286.82,289.98 333.72,280.8 " fill="none" id="nurse-UC8" style="stroke:#181818;stroke-width:1.0;"/></g><!--MD5=[3bd9573024a75a9e260fddb01e5294e2]
link admin to UC9--><g id="link_admin_UC9"><path d="M125.84,998.34 C191.2,1005.28 321.56,1019.13 416.09,1029.17 " fill="none" id="admin-UC9" style="stroke:#181818;stroke-width:1.0;"/></g><!--MD5=[dfd2db1a8ab03a1b37a29f31d929c176]
link admin to UC10--><g id="link_admin_UC10"><path d="M121.87,1033.07 C142.38,1052.29 169.48,1073.87 198,1086 C271.18,1117.12 361.21,1126.31 428.66,1128.17 " fill="none" id="admin-UC10" style="stroke:#181818;stroke-width:1.0;"/></g><!--MD5=[82f64621edba5c3b20c09d5802f5d0cb]
link admin to UC11--><g id="link_admin_UC11"><path d="M99.12,1033.14 C115.97,1073.7 148.26,1135.36 198,1166 C273.26,1212.36 376.73,1216.79 447.52,1212.9 " fill="none" id="admin-UC11" style="stroke:#181818;stroke-width:1.0;"/></g><!--MD5=[d7de013467b5cb2c3186533ed2392f3a]
link admin to UC12--><g id="link_admin_UC12"><path d="M94.09,954.94 C107.71,905.86 138.44,823.09 198,782 C265.52,735.42 359.74,727.63 430.14,729.92 " fill="none" id="admin-UC12" style="stroke:#181818;stroke-width:1.0;"/></g><!--MD5=[3b84ea810314b2514d885a4aa2be8b4c]
link admin to UC13--><g id="link_admin_UC13"><path d="M119.95,954.7 C140.6,933.98 168.44,910.02 198,896 C245.73,873.36 301.17,859.61 352.79,851.3 " fill="none" id="admin-UC13" style="stroke:#181818;stroke-width:1.0;"/></g><!--MD5=[9c40f8fc99bac5721e3e652f51b9306f]
link admin to UC14--><g id="link_admin_UC14"><path d="M125.84,989.57 C186.71,982.97 303.95,970.25 396.12,960.25 " fill="none" id="admin-UC14" style="stroke:#181818;stroke-width:1.0;"/></g><!--MD5=[4b8bf71a4eb075749b3754cbad2a559d]
link centerCoordinator to UC15--><g id="link_centerCoordinator_UC15"><path d="M92.12,1799.63 C104.02,1746 133.34,1651.18 198,1603 C247.11,1566.41 311.87,1551.17 370.97,1545.9 " fill="none" id="centerCoordinator-UC15" style="stroke:#181818;stroke-width:1.0;"/></g><!--MD5=[e7ab6d77f320b601af112d60132f5432]
link centerCoordinator to UC16--><g id="link_centerCoordinator_UC16"><path d="M106.65,1799.69 C126.21,1768.16 158.04,1725.57 198,1703 C251.78,1672.63 318.01,1658.89 376.94,1653.2 " fill="none" id="centerCoordinator-UC16" style="stroke:#181818;stroke-width:1.0;"/></g><!--MD5=[12d1b36670200537ce444ede65555a5e]
link centerCoordinator to UC17--><g id="link_centerCoordinator_UC17"><path d="M145.03,1815.3 C161.96,1809.29 180.53,1803.32 198,1799 C263.66,1782.76 338.13,1771.34 399.64,1763.73 " fill="none" id="centerCoordinator-UC17" style="stroke:#181818;stroke-width:1.0;"/></g><!--MD5=[f1171eacde41bbaa35e5e4377751ce61]
link centerCoordinator to UC18--><g id="link_centerCoordinator_UC18"><path d="M145.14,1839 C218.27,1839 342.71,1839 429.7,1839 " fill="none" id="centerCoordinator-UC18" style="stroke:#181818;stroke-width:1.0;"/></g><!--MD5=[5111b683534c92e9e7d6b3d76459fcd0]
link nurse to UC19--><g id="link_nurse_UC19"><path d="M102.62,474.37 C134.33,469.64 204.66,459.15 279.16,448.04 " fill="none" id="nurse-UC19" style="stroke:#181818;stroke-width:1.0;"/></g><!--MD5=[75307e7614b0f8e23b1976f80ad0b830]
link snsUser to UC20--><g id="link_snsUser_UC20"><path d="M114.03,118.98 C168.45,113.33 289.03,100.79 386.01,90.71 " fill="none" id="snsUser-UC20" style="stroke:#181818;stroke-width:1.0;"/></g><!--MD5=[14c751d961b049802b142c736ac3d8ee]
link centerCoordinator to UC21--><g id="link_centerCoordinator_UC21"><path d="M94.32,1878.41 C108.13,1927.51 138.99,2010.02 198,2052 C250.24,2089.16 318.95,2103.71 380.1,2108.27 " fill="none" id="centerCoordinator-UC21" style="stroke:#181818;stroke-width:1.0;"/></g><!--MD5=[9856fe4af8c893853cfbdc05f96c51c8]
link centerCoordinator to UC22--><g id="link_centerCoordinator_UC22"><path d="M145.07,1862.11 C161.99,1867.97 180.55,1873.78 198,1878 C266.24,1894.48 343.93,1905.91 406.73,1913.36 " fill="none" id="centerCoordinator-UC22" style="stroke:#181818;stroke-width:1.0;"/></g><!--MD5=[c6306d76a1e932f019b73b9d740e875a]
link centerCoordinator to UC23--><g id="link_centerCoordinator_UC23"><path d="M107.17,1878.06 C126.84,1908.77 158.54,1949.79 198,1971 C268.45,2008.87 359.32,2017.74 427.79,2017.91 " fill="none" id="centerCoordinator-UC23" style="stroke:#181818;stroke-width:1.0;"/></g><!--MD5=[2d304f6e45e603889579ebc87202c38b]
@startuml
left to right direction

:SNS User: as snsUser
:Nurse: as nurse
:Administrator: as admin
:Receptionist: as receptionist
:Center Coordinator: as centerCoordinator
:<<automatic>> Timer/Clock: as timer

package System {
    'US1 - Sprint C
    usecase "UC01: Schedule a vaccine" as UC1
    'US2 - Sprint C
    usecase "UC02: Schedule a vaccination" as UC2
    'US3 - Sprint B
    usecase "UC03: Register SNS user" as UC3
    'US4 - Sprint C
    usecase "UC04: Register the SNS user arrival" as UC4
    'US5 - Sprint C
    usecase "UC05: Consult the users in the waiting room" as UC5
    'US6 - Sprint D
    usecase "UC06: Record daily the total number of people vaccinated" as UC6
    'US7 - Sprint D
    usecase "UC07: Record adverse reactions of a SNS User" as UC7
    'US8 - Sprint D
    usecase "UC08: Record the administration of a vaccine to a SNS User" as UC8
    'US9 - Sprint B
    usecase "UC09: Register vaccination center" as UC9
    'US10 - Sprint B
    usecase "UC10: Register employee" as UC10
    'US11 - Sprint B
    usecase "UC11: List employees" as UC11
    'US12 - Sprint B
    usecase "UC12: Register vaccine type" as UC12
    'US13 - Sprint B
    usecase "UC13: Register vaccine and its administration process" as UC13
    'US14 - Sprint C
    usecase "UC14: Load a set of users from a CSV file" as UC14
    'US15 - Sprint D
    usecase "UC15: Check and export vaccination statistics" as UC15
    'US16 - Sprint D
    usecase "UC16: Analyze the performance of a center" as UC16
    'US17 - Sprint D
    usecase "UC17: Import data from a legacy system" as UC17
    'US18 - Sprint C
    usecase "UC18: List of all vaccines" as UC18
    usecase "UC19: Consult the patient information sheet for instructions on the vaccine to be administered" as UC19
    usecase "UC20: Request the issuance of the certificate" as UC20
    usecase "UC21: Analyse the data from other centers" as UC21
    usecase "UC22: Visualize the stats and graphs" as UC22
    usecase "UC23: To generate reports" as UC23
}

'- - - - - - - Project Requirements - - - - - - - -

'US1 - Sprint C
snsUser - - UC1

'US2 - Sprint C
receptionist - - UC2
'US3 - Sprint B
receptionist - - UC3
'US4 - Sprint C
receptionist - - UC4

'US5 - Sprint C
nurse - - UC5
'US6 - Sprint D
timer - - UC6
'US7 - Sprint D
nurse - - UC7
'US8 - Sprint D
nurse - - UC8

'US9 - Sprint B
admin - - UC9
'US10 - Sprint B
admin - - UC10
'US11 - Sprint B
admin - - UC11
'US12 - Sprint B
admin - - UC12
'US13 - Sprint B
admin - - UC13
'US14 - Sprint C
admin - - UC14

'US15 - Sprint D
centerCoordinator - - UC15
'US16 - Sprint D
centerCoordinator - - UC16
'US17 - Sprint D
centerCoordinator - - UC17
'US18 - Sprint C
centerCoordinator - - UC18

'- - - - - - - - - - - - - - - - - - - - - - - - - -

'- - - - - - - Other UCs identified - - - - - - - -

nurse - - UC19

snsUser - - UC20

centerCoordinator - - UC21
centerCoordinator - - UC22
centerCoordinator - - UC23

'- - - - - - - - - - - - - - - - - - - - - - - - - -

@enduml

@startuml
left to right direction

:SNS User: as snsUser
:Nurse: as nurse
:Administrator: as admin
:Receptionist: as receptionist
:Center Coordinator: as centerCoordinator
:<<automatic>> Timer/Clock: as timer

package System {
    usecase "UC01: Schedule a vaccine" as UC1
    usecase "UC02: Schedule a vaccination" as UC2
    usecase "UC03: Register SNS user" as UC3
    usecase "UC04: Register the SNS user arrival" as UC4
    usecase "UC05: Consult the users in the waiting room" as UC5
    usecase "UC06: Record daily the total number of people vaccinated" as UC6
    usecase "UC07: Record adverse reactions of a SNS User" as UC7
    usecase "UC08: Record the administration of a vaccine to a SNS User" as UC8
    usecase "UC09: Register vaccination center" as UC9
    usecase "UC10: Register employee" as UC10
    usecase "UC11: List employees" as UC11
    usecase "UC12: Register vaccine type" as UC12
    usecase "UC13: Register vaccine and its administration process" as UC13
    usecase "UC14: Load a set of users from a CSV file" as UC14
    usecase "UC15: Check and export vaccination statistics" as UC15
    usecase "UC16: Analyze the performance of a center" as UC16
    usecase "UC17: Import data from a legacy system" as UC17
    usecase "UC18: List of all vaccines" as UC18
    usecase "UC19: Consult the patient information sheet for instructions on the vaccine to be administered" as UC19
    usecase "UC20: Request the issuance of the certificate" as UC20
    usecase "UC21: Analyse the data from other centers" as UC21
    usecase "UC22: Visualize the stats and graphs" as UC22
    usecase "UC23: To generate reports" as UC23
}


snsUser - - UC1

receptionist - - UC2
receptionist - - UC3
receptionist - - UC4

nurse - - UC5
timer - - UC6
nurse - - UC7
nurse - - UC8

admin - - UC9
admin - - UC10
admin - - UC11
admin - - UC12
admin - - UC13
admin - - UC14

centerCoordinator - - UC15
centerCoordinator - - UC16
centerCoordinator - - UC17
centerCoordinator - - UC18



nurse - - UC19

snsUser - - UC20

centerCoordinator - - UC21
centerCoordinator - - UC22
centerCoordinator - - UC23


@enduml

PlantUML version 1.2022.5(Sat Apr 30 11:55:52 BST 2022)
(GPL source distribution)
Java Runtime: OpenJDK Runtime Environment
JVM: OpenJDK 64-Bit Server VM
Default Encoding: Cp1252
Language: pt
Country: PT
--></g></svg>