<?xml version="1.0" encoding="UTF-8" standalone="no"?><svg xmlns="http://www.w3.org/2000/svg" xmlns:xlink="http://www.w3.org/1999/xlink" contentStyleType="text/css" height="622px" preserveAspectRatio="none" style="width:897px;height:622px;background:#FFFFFF;" version="1.1" viewBox="0 0 897 622" width="897px" zoomAndPan="magnify"><defs/><g><rect height="27.6094" style="stroke:#00000000;stroke-width:1.0;fill:none;" width="341" x="279.75" y="10"/><text fill="#000000" font-family="sans-serif" font-size="14" font-weight="bold" lengthAdjust="spacing" text-decoration="underline" textLength="331" x="284.75" y="29.5332">SD_SCHEDULE_VACCINE_MAPPER_TODTO_LIST</text><rect fill="#FFFFFF" height="424.5469" style="stroke:#181818;stroke-width:1.0;" width="10" x="139" y="126.1797"/><rect fill="#FFFFFF" height="30" style="stroke:#181818;stroke-width:1.0;" width="10" x="315" y="242.1016"/><rect fill="#FFFFFF" height="30" style="stroke:#181818;stroke-width:1.0;" width="10" x="497" y="483.375"/><rect fill="#FFFFFF" height="30" style="stroke:#181818;stroke-width:1.0;" width="10" x="660" y="302.4531"/><rect fill="#FFFFFF" height="30" style="stroke:#181818;stroke-width:1.0;" width="10" x="660" y="362.8047"/><rect height="319.9766" style="stroke:#000000;stroke-width:1.5;fill:none;" width="843" x="48.5" y="201.3984"/><line style="stroke:#181818;stroke-width:0.5;fill:none;stroke-dasharray:5.0,5.0;" x1="143.5" x2="143.5" y1="93.8281" y2="568.7266"/><line style="stroke:#181818;stroke-width:0.5;fill:none;stroke-dasharray:5.0,5.0;" x1="319.5" x2="319.5" y1="93.8281" y2="568.7266"/><line style="stroke:#181818;stroke-width:0.5;fill:none;stroke-dasharray:5.0,5.0;" x1="501.5" x2="501.5" y1="174.2891" y2="568.7266"/><line style="stroke:#181818;stroke-width:0.5;fill:none;stroke-dasharray:5.0,5.0;" x1="664.5" x2="664.5" y1="93.8281" y2="568.7266"/><line style="stroke:#181818;stroke-width:0.5;fill:none;stroke-dasharray:5.0,5.0;" x1="808.5" x2="808.5" y1="440.9141" y2="568.7266"/><rect fill="#E2E2F0" height="49.2188" rx="2.5" ry="2.5" style="stroke:#181818;stroke-width:0.5;" width="171" x="58.5" y="43.6094"/><text fill="#000000" font-family="sans-serif" font-size="14" lengthAdjust="spacing" textLength="66" x="111" y="65.1426">svMapper:</text><text fill="#000000" font-family="sans-serif" font-size="14" lengthAdjust="spacing" textLength="157" x="65.5" y="82.752">ScheduleVaccineMapper</text><rect fill="#E2E2F0" height="49.2188" rx="2.5" ry="2.5" style="stroke:#181818;stroke-width:0.5;" width="171" x="58.5" y="567.7266"/><text fill="#000000" font-family="sans-serif" font-size="14" lengthAdjust="spacing" textLength="66" x="111" y="589.2598">svMapper:</text><text fill="#000000" font-family="sans-serif" font-size="14" lengthAdjust="spacing" textLength="157" x="65.5" y="606.8691">ScheduleVaccineMapper</text><rect fill="#E2E2F0" height="49.2188" rx="2.5" ry="2.5" style="stroke:#181818;stroke-width:0.5;" width="161" x="239.5" y="43.6094"/><text fill="#000000" font-family="sans-serif" font-size="14" lengthAdjust="spacing" textLength="39" x="300.5" y="65.1426">listSV:</text><text fill="#000000" font-family="sans-serif" font-size="14" lengthAdjust="spacing" textLength="147" x="246.5" y="82.752">List&lt;ScheduleVaccine&gt;</text><rect fill="#E2E2F0" height="49.2188" rx="2.5" ry="2.5" style="stroke:#181818;stroke-width:0.5;" width="161" x="239.5" y="567.7266"/><text fill="#000000" font-family="sans-serif" font-size="14" lengthAdjust="spacing" textLength="39" x="300.5" y="589.2598">listSV:</text><text fill="#000000" font-family="sans-serif" font-size="14" lengthAdjust="spacing" textLength="147" x="246.5" y="606.8691">List&lt;ScheduleVaccine&gt;</text><rect fill="#E2E2F0" height="49.2188" rx="2.5" ry="2.5" style="stroke:#181818;stroke-width:0.5;" width="183" x="410.5" y="567.7266"/><text fill="#000000" font-family="sans-serif" font-size="14" lengthAdjust="spacing" textLength="61" x="471.5" y="589.2598">listSVDto:</text><text fill="#000000" font-family="sans-serif" font-size="14" lengthAdjust="spacing" textLength="169" x="417.5" y="606.8691">List&lt;ScheduleVaccineDto&gt;</text><rect fill="#E2E2F0" height="49.2188" rx="2.5" ry="2.5" style="stroke:#181818;stroke-width:0.5;" width="123" x="603.5" y="43.6094"/><text fill="#000000" font-family="sans-serif" font-size="14" lengthAdjust="spacing" textLength="18" x="656" y="65.1426">sv:</text><text fill="#000000" font-family="sans-serif" font-size="14" lengthAdjust="spacing" textLength="109" x="610.5" y="82.752">ScheduleVaccine</text><rect fill="#E2E2F0" height="49.2188" rx="2.5" ry="2.5" style="stroke:#181818;stroke-width:0.5;" width="123" x="603.5" y="567.7266"/><text fill="#000000" font-family="sans-serif" font-size="14" lengthAdjust="spacing" textLength="18" x="656" y="589.2598">sv:</text><text fill="#000000" font-family="sans-serif" font-size="14" lengthAdjust="spacing" textLength="109" x="610.5" y="606.8691">ScheduleVaccine</text><rect fill="#E2E2F0" height="49.2188" rx="2.5" ry="2.5" style="stroke:#181818;stroke-width:0.5;" width="145" x="736.5" y="567.7266"/><text fill="#000000" font-family="sans-serif" font-size="14" lengthAdjust="spacing" textLength="40" x="789" y="589.2598">svDto:</text><text fill="#000000" font-family="sans-serif" font-size="14" lengthAdjust="spacing" textLength="131" x="743.5" y="606.8691">ScheduleVaccineDto</text><rect fill="#FFFFFF" height="424.5469" style="stroke:#181818;stroke-width:1.0;" width="10" x="139" y="126.1797"/><rect fill="#FFFFFF" height="30" style="stroke:#181818;stroke-width:1.0;" width="10" x="315" y="242.1016"/><rect fill="#FFFFFF" height="30" style="stroke:#181818;stroke-width:1.0;" width="10" x="497" y="483.375"/><rect fill="#FFFFFF" height="30" style="stroke:#181818;stroke-width:1.0;" width="10" x="660" y="302.4531"/><rect fill="#FFFFFF" height="30" style="stroke:#181818;stroke-width:1.0;" width="10" x="660" y="362.8047"/><ellipse cx="7.5" cy="125.4297" fill="none" rx="4" ry="4" style="stroke:#181818;stroke-width:1.5;"/><polygon fill="#181818" points="127,122.1797,137,126.1797,127,130.1797,131,126.1797" style="stroke:#181818;stroke-width:1.0;"/><line style="stroke:#181818;stroke-width:1.0;" x1="12" x2="133" y1="126.1797" y2="126.1797"/><text fill="#000000" font-family="sans-serif" font-size="13" font-weight="bold" lengthAdjust="spacing" textLength="7" x="15" y="121.3232">1</text><text fill="#000000" font-family="sans-serif" font-size="13" lengthAdjust="spacing" textLength="101" x="26" y="121.3232">toListDTO(listSV)</text><polygon fill="#181818" points="398.5,152.5313,408.5,156.5313,398.5,160.5313,402.5,156.5313" style="stroke:#181818;stroke-width:1.0;"/><line style="stroke:#181818;stroke-width:1.0;stroke-dasharray:2.0,2.0;" x1="149" x2="404.5" y1="156.5313" y2="156.5313"/><text fill="#000000" font-family="sans-serif" font-size="13" font-weight="bold" lengthAdjust="spacing" textLength="7" x="156" y="151.6748">2</text><text fill="#000000" font-family="sans-serif" font-size="13" lengthAdjust="spacing" textLength="44" x="167" y="151.6748">create()</text><rect fill="#E2E2F0" height="49.2188" rx="2.5" ry="2.5" style="stroke:#181818;stroke-width:0.5;" width="183" x="410.5" y="134.1797"/><text fill="#000000" font-family="sans-serif" font-size="14" lengthAdjust="spacing" textLength="61" x="471.5" y="155.7129">listSVDto:</text><text fill="#000000" font-family="sans-serif" font-size="14" lengthAdjust="spacing" textLength="169" x="417.5" y="173.3223">List&lt;ScheduleVaccineDto&gt;</text><path d="M48.5,201.3984 L121.5,201.3984 L121.5,209.75 L111.5,219.75 L48.5,219.75 L48.5,201.3984 " fill="#EEEEEE" style="stroke:#000000;stroke-width:1.5;"/><rect fill="none" height="319.9766" style="stroke:#000000;stroke-width:1.5;" width="843" x="48.5" y="201.3984"/><text fill="#000000" font-family="sans-serif" font-size="13" font-weight="bold" lengthAdjust="spacing" textLength="28" x="63.5" y="215.8936">loop</text><text fill="#000000" font-family="sans-serif" font-size="11" font-weight="bold" lengthAdjust="spacing" textLength="135" x="136.5" y="214.8174">[foreach object in listSV]</text><polygon fill="#181818" points="303,238.1016,313,242.1016,303,246.1016,307,242.1016" style="stroke:#181818;stroke-width:1.0;"/><line style="stroke:#181818;stroke-width:1.0;" x1="149" x2="309" y1="242.1016" y2="242.1016"/><text fill="#000000" font-family="sans-serif" font-size="13" font-weight="bold" lengthAdjust="spacing" textLength="7" x="156" y="237.2451">3</text><text fill="#000000" font-family="sans-serif" font-size="13" lengthAdjust="spacing" textLength="57" x="167" y="237.2451">sv = get(i)</text><polygon fill="#181818" points="648,298.4531,658,302.4531,648,306.4531,652,302.4531" style="stroke:#181818;stroke-width:1.0;"/><line style="stroke:#181818;stroke-width:1.0;" x1="149" x2="654" y1="302.4531" y2="302.4531"/><text fill="#000000" font-family="sans-serif" font-size="13" font-weight="bold" lengthAdjust="spacing" textLength="7" x="156" y="297.5967">4</text><text fill="#000000" font-family="sans-serif" font-size="13" lengthAdjust="spacing" textLength="94" x="167" y="297.5967">date = getDate()</text><polygon fill="#181818" points="648,358.8047,658,362.8047,648,366.8047,652,362.8047" style="stroke:#181818;stroke-width:1.0;"/><line style="stroke:#181818;stroke-width:1.0;" x1="149" x2="654" y1="362.8047" y2="362.8047"/><text fill="#000000" font-family="sans-serif" font-size="13" font-weight="bold" lengthAdjust="spacing" textLength="7" x="156" y="357.9482">5</text><text fill="#000000" font-family="sans-serif" font-size="13" lengthAdjust="spacing" textLength="95" x="167" y="357.9482">time = getTime()</text><polygon fill="#181818" points="724.5,419.1563,734.5,423.1563,724.5,427.1563,728.5,423.1563" style="stroke:#181818;stroke-width:1.0;"/><line style="stroke:#181818;stroke-width:1.0;stroke-dasharray:2.0,2.0;" x1="149" x2="730.5" y1="423.1563" y2="423.1563"/><text fill="#000000" font-family="sans-serif" font-size="13" font-weight="bold" lengthAdjust="spacing" textLength="7" x="156" y="418.2998">6</text><text fill="#000000" font-family="sans-serif" font-size="13" lengthAdjust="spacing" textLength="102" x="167" y="418.2998">create(date, time)</text><rect fill="#E2E2F0" height="49.2188" rx="2.5" ry="2.5" style="stroke:#181818;stroke-width:0.5;" width="145" x="736.5" y="400.8047"/><text fill="#000000" font-family="sans-serif" font-size="14" lengthAdjust="spacing" textLength="40" x="789" y="422.3379">svDto:</text><text fill="#000000" font-family="sans-serif" font-size="14" lengthAdjust="spacing" textLength="131" x="743.5" y="439.9473">ScheduleVaccineDto</text><polygon fill="#181818" points="485,479.375,495,483.375,485,487.375,489,483.375" style="stroke:#181818;stroke-width:1.0;"/><line style="stroke:#181818;stroke-width:1.0;" x1="149" x2="491" y1="483.375" y2="483.375"/><text fill="#000000" font-family="sans-serif" font-size="13" font-weight="bold" lengthAdjust="spacing" textLength="7" x="156" y="478.5186">7</text><text fill="#000000" font-family="sans-serif" font-size="13" lengthAdjust="spacing" textLength="61" x="167" y="478.5186">add(svDto)</text><polygon fill="#181818" points="11,546.7266,1,550.7266,11,554.7266,7,550.7266" style="stroke:#181818;stroke-width:1.0;"/><line style="stroke:#181818;stroke-width:1.0;stroke-dasharray:2.0,2.0;" x1="5" x2="143" y1="550.7266" y2="550.7266"/><text fill="#000000" font-family="sans-serif" font-size="13" font-weight="bold" lengthAdjust="spacing" textLength="7" x="17" y="545.8701">8</text><text fill="#000000" font-family="sans-serif" font-size="13" lengthAdjust="spacing" textLength="55" x="28" y="545.8701">listSVDto</text><!--MD5=[40d4584e411fcb966309de4b6b8f3616]
@startuml
autonumber

title
<u>SD_SCHEDULE_VACCINE_MAPPER_TODTO_LIST</u>
end title

participant "svMapper:\nScheduleVaccineMapper" as SVM
participant "listSV:\nList<ScheduleVaccine>" as LSV
participant "listSVDto:\nList<ScheduleVaccineDto>" as LSVD
participant "sv:\nScheduleVaccine" as SV
participant "svDto:\nScheduleVaccineDto" as SVD

[o-> SVM : toListDTO(listSV)
activate SVM
SVM - -> LSVD** : create()

loop foreach object in listSV

SVM -> LSV : sv = get(i)
activate LSV
deactivate LSV

SVM -> SV : date = getDate()
activate SV
deactivate SV

SVM -> SV : time = getTime()
activate SV
deactivate SV

SVM - -> SVD** : create(date, time)

SVM -> LSVD : add(svDto)
activate LSVD
deactivate LSVD

end loop

<- - SVM : listSVDto
deactivate SVM
@enduml

PlantUML version 1.2022.4(Sat Apr 09 14:29:17 BST 2022)
(GPL source distribution)
Java Runtime: OpenJDK Runtime Environment
JVM: OpenJDK 64-Bit Server VM
Default Encoding: Cp1252
Language: pt
Country: PT
--></g></svg>