<?xml version="1.0" encoding="UTF-8" standalone="no"?><svg xmlns="http://www.w3.org/2000/svg" xmlns:xlink="http://www.w3.org/1999/xlink" contentStyleType="text/css" height="2015px" preserveAspectRatio="none" style="width:3156px;height:2015px;background:#FFFFFF;" version="1.1" viewBox="0 0 3156 2015" width="3156px" zoomAndPan="magnify"><defs/><g><rect fill="#FFFFFF" height="1822.8125" style="stroke:#181818;stroke-width:1.0;" width="10" x="57" y="92.6094"/><rect fill="#FFFFFF" height="296.6797" style="stroke:#181818;stroke-width:1.0;" width="10" x="434" y="114.9609"/><rect fill="#FFFFFF" height="580.8828" style="stroke:#181818;stroke-width:1.0;" width="10" x="434" y="441.9922"/><rect fill="#FFFFFF" height="587.0859" style="stroke:#181818;stroke-width:1.0;" width="10" x="434" y="1053.2266"/><rect fill="#FFFFFF" height="244.7578" style="stroke:#181818;stroke-width:1.0;" width="10" x="434" y="1670.6641"/><rect fill="#FFFFFF" height="140.5703" style="stroke:#181818;stroke-width:1.0;" width="10" x="709" y="240.7188"/><rect fill="#FFFFFF" height="520.1797" style="stroke:#181818;stroke-width:1.0;" width="10" x="709" y="472.3438"/><rect fill="#FFFFFF" height="519.3828" style="stroke:#181818;stroke-width:1.0;" width="10" x="709" y="1083.5781"/><rect fill="#FFFFFF" height="170.0547" style="stroke:#181818;stroke-width:1.0;" width="10" x="709" y="1701.0156"/><rect fill="#FFFFFF" height="30" style="stroke:#181818;stroke-width:1.0;" width="10" x="971" y="290.9375"/><rect fill="#FFFFFF" height="30" style="stroke:#181818;stroke-width:1.0;" width="10" x="971" y="502.6953"/><rect fill="#FFFFFF" height="30" style="stroke:#181818;stroke-width:1.0;" width="10" x="971" y="679.1016"/><rect fill="#FFFFFF" height="30" style="stroke:#181818;stroke-width:1.0;" width="10" x="971" y="1113.9297"/><rect fill="#FFFFFF" height="30" style="stroke:#181818;stroke-width:1.0;" width="10" x="1100" y="351.2891"/><rect fill="#FFFFFF" height="30" style="stroke:#181818;stroke-width:1.0;" width="10" x="1384" y="563.0469"/><rect fill="#FFFFFF" height="90.5703" style="stroke:#181818;stroke-width:1.0;" width="10" x="1604.5" y="739.4531"/><rect fill="#FFFFFF" height="76.7969" style="stroke:#181818;stroke-width:1.0;" width="10" x="1911.5" y="885.375"/><rect fill="#FFFFFF" height="302.1094" style="stroke:#181818;stroke-width:1.0;" width="10" x="2443" y="1174.2813"/><rect fill="#FFFFFF" height="66.3516" style="stroke:#181818;stroke-width:1.0;" width="10" x="2443" y="1536.6094"/><rect fill="#FFFFFF" height="28" style="stroke:#181818;stroke-width:1.0;" width="10" x="2448" y="1574.9609"/><rect fill="#FFFFFF" height="139.7031" style="stroke:#181818;stroke-width:1.0;" width="10" x="2443" y="1731.3672"/><rect fill="#FFFFFF" height="28" style="stroke:#181818;stroke-width:1.0;" width="10" x="2448" y="1769.7188"/><rect fill="#FFFFFF" height="28" style="stroke:#181818;stroke-width:1.0;" width="10" x="2448" y="1843.0703"/><rect fill="#FFFFFF" height="271.7578" style="stroke:#181818;stroke-width:1.0;" width="10" x="2639" y="1204.6328"/><rect fill="#FFFFFF" height="30" style="stroke:#181818;stroke-width:1.0;" width="10" x="2932" y="1234.9844"/><rect fill="#FFFFFF" height="30" style="stroke:#181818;stroke-width:1.0;" width="10" x="2932" y="1295.3359"/><rect fill="#FFFFFF" height="30" style="stroke:#181818;stroke-width:1.0;" width="10" x="2932" y="1355.6875"/><rect fill="#FFFFFF" height="30" style="stroke:#181818;stroke-width:1.0;" width="10" x="2932" y="1416.0391"/><rect height="1278.0234" style="stroke:#000000;stroke-width:1.5;fill:none;" width="3140" x="10" y="608.0469"/><line style="stroke:#181818;stroke-width:0.5;fill:none;stroke-dasharray:5.0,5.0;" x1="62" x2="62" y1="82.6094" y2="1933.4219"/><line style="stroke:#181818;stroke-width:0.5;fill:none;stroke-dasharray:5.0,5.0;" x1="438.5" x2="438.5" y1="82.6094" y2="1933.4219"/><line style="stroke:#181818;stroke-width:0.5;fill:none;stroke-dasharray:5.0,5.0;" x1="713.5" x2="713.5" y1="248.4766" y2="1933.4219"/><line style="stroke:#181818;stroke-width:0.5;fill:none;stroke-dasharray:5.0,5.0;" x1="976" x2="976" y1="82.6094" y2="1933.4219"/><line style="stroke:#181818;stroke-width:0.5;fill:none;stroke-dasharray:5.0,5.0;" x1="1105" x2="1105" y1="82.6094" y2="1933.4219"/><line style="stroke:#181818;stroke-width:0.5;fill:none;stroke-dasharray:5.0,5.0;" x1="1262" x2="1262" y1="82.6094" y2="1933.4219"/><line style="stroke:#181818;stroke-width:0.5;fill:none;stroke-dasharray:5.0,5.0;" x1="1389" x2="1389" y1="82.6094" y2="1933.4219"/><line style="stroke:#181818;stroke-width:0.5;fill:none;stroke-dasharray:5.0,5.0;" x1="1486" x2="1486" y1="82.6094" y2="1933.4219"/><line style="stroke:#181818;stroke-width:0.5;fill:none;stroke-dasharray:5.0,5.0;" x1="1609" x2="1609" y1="82.6094" y2="1933.4219"/><line style="stroke:#181818;stroke-width:0.5;fill:none;stroke-dasharray:5.0,5.0;" x1="1759" x2="1759" y1="82.6094" y2="1933.4219"/><line style="stroke:#181818;stroke-width:0.5;fill:none;stroke-dasharray:5.0,5.0;" x1="1916" x2="1916" y1="82.6094" y2="1933.4219"/><line style="stroke:#181818;stroke-width:0.5;fill:none;stroke-dasharray:5.0,5.0;" x1="2092" x2="2092" y1="787.5625" y2="1933.4219"/><line style="stroke:#181818;stroke-width:0.5;fill:none;stroke-dasharray:5.0,5.0;" x1="2274" x2="2274" y1="82.6094" y2="1933.4219"/><line style="stroke:#181818;stroke-width:0.5;fill:none;stroke-dasharray:5.0,5.0;" x1="2448" x2="2448" y1="82.6094" y2="1933.4219"/><line style="stroke:#181818;stroke-width:0.5;fill:none;stroke-dasharray:5.0,5.0;" x1="2644" x2="2644" y1="82.6094" y2="1933.4219"/><line style="stroke:#181818;stroke-width:0.5;fill:none;stroke-dasharray:5.0,5.0;" x1="2937" x2="2937" y1="82.6094" y2="1933.4219"/><line style="stroke:#181818;stroke-width:0.5;fill:none;stroke-dasharray:5.0,5.0;" x1="3085" x2="3085" y1="1494.1484" y2="1933.4219"/><text fill="#000000" font-family="sans-serif" font-size="14" lengthAdjust="spacing" textLength="78" x="20" y="79.5332">Receptionist</text><ellipse cx="62" cy="13.5" fill="#E2E2F0" rx="8" ry="8" style="stroke:#181818;stroke-width:0.5;"/><path d="M62,21.5 L62,48.5 M49,29.5 L75,29.5 M62,48.5 L49,63.5 M62,48.5 L75,63.5 " fill="none" style="stroke:#181818;stroke-width:0.5;"/><text fill="#000000" font-family="sans-serif" font-size="14" lengthAdjust="spacing" textLength="78" x="20" y="1946.9551">Receptionist</text><ellipse cx="62" cy="1958.5313" fill="#E2E2F0" rx="8" ry="8" style="stroke:#181818;stroke-width:0.5;"/><path d="M62,1966.5313 L62,1993.5313 M49,1974.5313 L75,1974.5313 M62,1993.5313 L49,2008.5313 M62,1993.5313 L75,2008.5313 " fill="none" style="stroke:#181818;stroke-width:0.5;"/><rect fill="#E2E2F0" height="49.2188" rx="2.5" ry="2.5" style="stroke:#181818;stroke-width:0.5;" width="179" x="349.5" y="32.3906"/><text fill="#000000" font-family="sans-serif" font-size="14" lengthAdjust="spacing" textLength="4" x="437" y="53.9238">:</text><text fill="#000000" font-family="sans-serif" font-size="14" lengthAdjust="spacing" textLength="165" x="356.5" y="71.5332">Register ArrivalSNSUserUI</text><rect fill="#E2E2F0" height="49.2188" rx="2.5" ry="2.5" style="stroke:#181818;stroke-width:0.5;" width="179" x="349.5" y="1932.4219"/><text fill="#000000" font-family="sans-serif" font-size="14" lengthAdjust="spacing" textLength="4" x="437" y="1953.9551">:</text><text fill="#000000" font-family="sans-serif" font-size="14" lengthAdjust="spacing" textLength="165" x="356.5" y="1971.5645">Register ArrivalSNSUserUI</text><rect fill="#E2E2F0" height="49.2188" rx="2.5" ry="2.5" style="stroke:#181818;stroke-width:0.5;" width="229" x="599.5" y="1932.4219"/><text fill="#000000" font-family="sans-serif" font-size="14" lengthAdjust="spacing" textLength="4" x="712" y="1953.9551">:</text><text fill="#000000" font-family="sans-serif" font-size="14" lengthAdjust="spacing" textLength="215" x="606.5" y="1971.5645">Register ArrivalSNSUserController</text><rect fill="#E2E2F0" height="49.2188" rx="2.5" ry="2.5" style="stroke:#181818;stroke-width:0.5;" width="74" x="939" y="32.3906"/><text fill="#000000" font-family="sans-serif" font-size="14" lengthAdjust="spacing" textLength="4" x="974" y="53.9238">:</text><text fill="#000000" font-family="sans-serif" font-size="14" lengthAdjust="spacing" textLength="60" x="946" y="71.5332">Company</text><rect fill="#E2E2F0" height="49.2188" rx="2.5" ry="2.5" style="stroke:#181818;stroke-width:0.5;" width="74" x="939" y="1932.4219"/><text fill="#000000" font-family="sans-serif" font-size="14" lengthAdjust="spacing" textLength="4" x="974" y="1953.9551">:</text><text fill="#000000" font-family="sans-serif" font-size="14" lengthAdjust="spacing" textLength="60" x="946" y="1971.5645">Company</text><rect fill="#E2E2F0" height="49.2188" rx="2.5" ry="2.5" style="stroke:#181818;stroke-width:0.5;" width="164" x="1023" y="32.3906"/><text fill="#000000" font-family="sans-serif" font-size="14" lengthAdjust="spacing" textLength="52" x="1079" y="53.9238">vcStore:</text><text fill="#000000" font-family="sans-serif" font-size="14" lengthAdjust="spacing" textLength="150" x="1030" y="71.5332">VaccinationCenterStore</text><rect fill="#E2E2F0" height="49.2188" rx="2.5" ry="2.5" style="stroke:#181818;stroke-width:0.5;" width="164" x="1023" y="1932.4219"/><text fill="#000000" font-family="sans-serif" font-size="14" lengthAdjust="spacing" textLength="52" x="1079" y="1953.9551">vcStore:</text><text fill="#000000" font-family="sans-serif" font-size="14" lengthAdjust="spacing" textLength="150" x="1030" y="1971.5645">VaccinationCenterStore</text><rect fill="#E2E2F0" height="49.2188" rx="2.5" ry="2.5" style="stroke:#181818;stroke-width:0.5;" width="130" x="1197" y="32.3906"/><text fill="#000000" font-family="sans-serif" font-size="14" lengthAdjust="spacing" textLength="18" x="1253" y="53.9238">vc:</text><text fill="#000000" font-family="sans-serif" font-size="14" lengthAdjust="spacing" textLength="116" x="1204" y="71.5332">VaccinationCenter</text><rect fill="#E2E2F0" height="49.2188" rx="2.5" ry="2.5" style="stroke:#181818;stroke-width:0.5;" width="130" x="1197" y="1932.4219"/><text fill="#000000" font-family="sans-serif" font-size="14" lengthAdjust="spacing" textLength="18" x="1253" y="1953.9551">vc:</text><text fill="#000000" font-family="sans-serif" font-size="14" lengthAdjust="spacing" textLength="116" x="1204" y="1971.5645">VaccinationCenter</text><rect fill="#E2E2F0" height="49.2188" rx="2.5" ry="2.5" style="stroke:#181818;stroke-width:0.5;" width="104" x="1337" y="32.3906"/><text fill="#000000" font-family="sans-serif" font-size="14" lengthAdjust="spacing" textLength="53" x="1362.5" y="53.9238">suStore:</text><text fill="#000000" font-family="sans-serif" font-size="14" lengthAdjust="spacing" textLength="90" x="1344" y="71.5332">SNSUserStore</text><rect fill="#E2E2F0" height="49.2188" rx="2.5" ry="2.5" style="stroke:#181818;stroke-width:0.5;" width="104" x="1337" y="1932.4219"/><text fill="#000000" font-family="sans-serif" font-size="14" lengthAdjust="spacing" textLength="53" x="1362.5" y="1953.9551">suStore:</text><text fill="#000000" font-family="sans-serif" font-size="14" lengthAdjust="spacing" textLength="90" x="1344" y="1971.5645">SNSUserStore</text><rect fill="#E2E2F0" height="49.2188" rx="2.5" ry="2.5" style="stroke:#181818;stroke-width:0.5;" width="70" x="1451" y="32.3906"/><text fill="#000000" font-family="sans-serif" font-size="14" lengthAdjust="spacing" textLength="19" x="1476.5" y="53.9238">su:</text><text fill="#000000" font-family="sans-serif" font-size="14" lengthAdjust="spacing" textLength="56" x="1458" y="71.5332">SNSUser</text><rect fill="#E2E2F0" height="49.2188" rx="2.5" ry="2.5" style="stroke:#181818;stroke-width:0.5;" width="70" x="1451" y="1932.4219"/><text fill="#000000" font-family="sans-serif" font-size="14" lengthAdjust="spacing" textLength="19" x="1476.5" y="1953.9551">su:</text><text fill="#000000" font-family="sans-serif" font-size="14" lengthAdjust="spacing" textLength="56" x="1458" y="1971.5645">SNSUser</text><rect fill="#E2E2F0" height="49.2188" rx="2.5" ry="2.5" style="stroke:#181818;stroke-width:0.5;" width="157" x="1531" y="32.3906"/><text fill="#000000" font-family="sans-serif" font-size="14" lengthAdjust="spacing" textLength="52" x="1583.5" y="53.9238">svStore:</text><text fill="#000000" font-family="sans-serif" font-size="14" lengthAdjust="spacing" textLength="143" x="1538" y="71.5332">ScheduleVaccineStore</text><rect fill="#E2E2F0" height="49.2188" rx="2.5" ry="2.5" style="stroke:#181818;stroke-width:0.5;" width="157" x="1531" y="1932.4219"/><text fill="#000000" font-family="sans-serif" font-size="14" lengthAdjust="spacing" textLength="52" x="1583.5" y="1953.9551">svStore:</text><text fill="#000000" font-family="sans-serif" font-size="14" lengthAdjust="spacing" textLength="143" x="1538" y="1971.5645">ScheduleVaccineStore</text><rect fill="#E2E2F0" height="49.2188" rx="2.5" ry="2.5" style="stroke:#181818;stroke-width:0.5;" width="123" x="1698" y="32.3906"/><text fill="#000000" font-family="sans-serif" font-size="14" lengthAdjust="spacing" textLength="18" x="1750.5" y="53.9238">sv:</text><text fill="#000000" font-family="sans-serif" font-size="14" lengthAdjust="spacing" textLength="109" x="1705" y="71.5332">ScheduleVaccine</text><rect fill="#E2E2F0" height="49.2188" rx="2.5" ry="2.5" style="stroke:#181818;stroke-width:0.5;" width="123" x="1698" y="1932.4219"/><text fill="#000000" font-family="sans-serif" font-size="14" lengthAdjust="spacing" textLength="18" x="1750.5" y="1953.9551">sv:</text><text fill="#000000" font-family="sans-serif" font-size="14" lengthAdjust="spacing" textLength="109" x="1705" y="1971.5645">ScheduleVaccine</text><rect fill="#E2E2F0" height="49.2188" rx="2.5" ry="2.5" style="stroke:#181818;stroke-width:0.5;" width="171" x="1831" y="32.3906"/><text fill="#000000" font-family="sans-serif" font-size="14" lengthAdjust="spacing" textLength="66" x="1883.5" y="53.9238">svMapper:</text><text fill="#000000" font-family="sans-serif" font-size="14" lengthAdjust="spacing" textLength="157" x="1838" y="71.5332">ScheduleVaccineMapper</text><rect fill="#E2E2F0" height="49.2188" rx="2.5" ry="2.5" style="stroke:#181818;stroke-width:0.5;" width="171" x="1831" y="1932.4219"/><text fill="#000000" font-family="sans-serif" font-size="14" lengthAdjust="spacing" textLength="66" x="1883.5" y="1953.9551">svMapper:</text><text fill="#000000" font-family="sans-serif" font-size="14" lengthAdjust="spacing" textLength="157" x="1838" y="1971.5645">ScheduleVaccineMapper</text><rect fill="#E2E2F0" height="49.2188" rx="2.5" ry="2.5" style="stroke:#181818;stroke-width:0.5;" width="161" x="2012" y="1932.4219"/><text fill="#000000" font-family="sans-serif" font-size="14" lengthAdjust="spacing" textLength="39" x="2073" y="1953.9551">listSV:</text><text fill="#000000" font-family="sans-serif" font-size="14" lengthAdjust="spacing" textLength="147" x="2019" y="1971.5645">List&lt;ScheduleVaccine&gt;</text><rect fill="#E2E2F0" height="49.2188" rx="2.5" ry="2.5" style="stroke:#181818;stroke-width:0.5;" width="183" x="2183" y="32.3906"/><text fill="#000000" font-family="sans-serif" font-size="14" lengthAdjust="spacing" textLength="61" x="2244" y="53.9238">listSVDto:</text><text fill="#000000" font-family="sans-serif" font-size="14" lengthAdjust="spacing" textLength="169" x="2190" y="71.5332">List&lt;ScheduleVaccineDto&gt;</text><rect fill="#E2E2F0" height="49.2188" rx="2.5" ry="2.5" style="stroke:#181818;stroke-width:0.5;" width="183" x="2183" y="1932.4219"/><text fill="#000000" font-family="sans-serif" font-size="14" lengthAdjust="spacing" textLength="61" x="2244" y="1953.9551">listSVDto:</text><text fill="#000000" font-family="sans-serif" font-size="14" lengthAdjust="spacing" textLength="169" x="2190" y="1971.5645">List&lt;ScheduleVaccineDto&gt;</text><rect fill="#E2E2F0" height="49.2188" rx="2.5" ry="2.5" style="stroke:#181818;stroke-width:0.5;" width="144" x="2376" y="32.3906"/><text fill="#000000" font-family="sans-serif" font-size="14" lengthAdjust="spacing" textLength="54" x="2421" y="53.9238">auStore:</text><text fill="#000000" font-family="sans-serif" font-size="14" lengthAdjust="spacing" textLength="130" x="2383" y="71.5332">ArrivalSNSUserStore</text><rect fill="#E2E2F0" height="49.2188" rx="2.5" ry="2.5" style="stroke:#181818;stroke-width:0.5;" width="144" x="2376" y="1932.4219"/><text fill="#000000" font-family="sans-serif" font-size="14" lengthAdjust="spacing" textLength="54" x="2421" y="1953.9551">auStore:</text><text fill="#000000" font-family="sans-serif" font-size="14" lengthAdjust="spacing" textLength="130" x="2383" y="1971.5645">ArrivalSNSUserStore</text><rect fill="#E2E2F0" height="49.2188" rx="2.5" ry="2.5" style="stroke:#181818;stroke-width:0.5;" width="158" x="2565" y="32.3906"/><text fill="#000000" font-family="sans-serif" font-size="14" lengthAdjust="spacing" textLength="68" x="2610" y="53.9238">auMapper:</text><text fill="#000000" font-family="sans-serif" font-size="14" lengthAdjust="spacing" textLength="144" x="2572" y="71.5332">ArrivalSNSUserMapper</text><rect fill="#E2E2F0" height="49.2188" rx="2.5" ry="2.5" style="stroke:#181818;stroke-width:0.5;" width="158" x="2565" y="1932.4219"/><text fill="#000000" font-family="sans-serif" font-size="14" lengthAdjust="spacing" textLength="68" x="2610" y="1953.9551">auMapper:</text><text fill="#000000" font-family="sans-serif" font-size="14" lengthAdjust="spacing" textLength="144" x="2572" y="1971.5645">ArrivalSNSUserMapper</text><rect fill="#E2E2F0" height="49.2188" rx="2.5" ry="2.5" style="stroke:#181818;stroke-width:0.5;" width="132" x="2871" y="32.3906"/><text fill="#000000" font-family="sans-serif" font-size="14" lengthAdjust="spacing" textLength="42" x="2916" y="53.9238">auDto:</text><text fill="#000000" font-family="sans-serif" font-size="14" lengthAdjust="spacing" textLength="118" x="2878" y="71.5332">ArrivalSNSUserDto</text><rect fill="#E2E2F0" height="49.2188" rx="2.5" ry="2.5" style="stroke:#181818;stroke-width:0.5;" width="132" x="2871" y="1932.4219"/><text fill="#000000" font-family="sans-serif" font-size="14" lengthAdjust="spacing" textLength="42" x="2916" y="1953.9551">auDto:</text><text fill="#000000" font-family="sans-serif" font-size="14" lengthAdjust="spacing" textLength="118" x="2878" y="1971.5645">ArrivalSNSUserDto</text><rect fill="#E2E2F0" height="49.2188" rx="2.5" ry="2.5" style="stroke:#181818;stroke-width:0.5;" width="110" x="3030" y="1932.4219"/><text fill="#000000" font-family="sans-serif" font-size="14" lengthAdjust="spacing" textLength="20" x="3075" y="1953.9551">au:</text><text fill="#000000" font-family="sans-serif" font-size="14" lengthAdjust="spacing" textLength="96" x="3037" y="1971.5645">ArrivalSNSUser</text><rect fill="#FFFFFF" height="1822.8125" style="stroke:#181818;stroke-width:1.0;" width="10" x="57" y="92.6094"/><rect fill="#FFFFFF" height="296.6797" style="stroke:#181818;stroke-width:1.0;" width="10" x="434" y="114.9609"/><rect fill="#FFFFFF" height="580.8828" style="stroke:#181818;stroke-width:1.0;" width="10" x="434" y="441.9922"/><rect fill="#FFFFFF" height="587.0859" style="stroke:#181818;stroke-width:1.0;" width="10" x="434" y="1053.2266"/><rect fill="#FFFFFF" height="244.7578" style="stroke:#181818;stroke-width:1.0;" width="10" x="434" y="1670.6641"/><rect fill="#FFFFFF" height="140.5703" style="stroke:#181818;stroke-width:1.0;" width="10" x="709" y="240.7188"/><rect fill="#FFFFFF" height="520.1797" style="stroke:#181818;stroke-width:1.0;" width="10" x="709" y="472.3438"/><rect fill="#FFFFFF" height="519.3828" style="stroke:#181818;stroke-width:1.0;" width="10" x="709" y="1083.5781"/><rect fill="#FFFFFF" height="170.0547" style="stroke:#181818;stroke-width:1.0;" width="10" x="709" y="1701.0156"/><rect fill="#FFFFFF" height="30" style="stroke:#181818;stroke-width:1.0;" width="10" x="971" y="290.9375"/><rect fill="#FFFFFF" height="30" style="stroke:#181818;stroke-width:1.0;" width="10" x="971" y="502.6953"/><rect fill="#FFFFFF" height="30" style="stroke:#181818;stroke-width:1.0;" width="10" x="971" y="679.1016"/><rect fill="#FFFFFF" height="30" style="stroke:#181818;stroke-width:1.0;" width="10" x="971" y="1113.9297"/><rect fill="#FFFFFF" height="30" style="stroke:#181818;stroke-width:1.0;" width="10" x="1100" y="351.2891"/><rect fill="#FFFFFF" height="30" style="stroke:#181818;stroke-width:1.0;" width="10" x="1384" y="563.0469"/><rect fill="#FFFFFF" height="90.5703" style="stroke:#181818;stroke-width:1.0;" width="10" x="1604.5" y="739.4531"/><rect fill="#FFFFFF" height="76.7969" style="stroke:#181818;stroke-width:1.0;" width="10" x="1911.5" y="885.375"/><rect fill="#FFFFFF" height="302.1094" style="stroke:#181818;stroke-width:1.0;" width="10" x="2443" y="1174.2813"/><rect fill="#FFFFFF" height="66.3516" style="stroke:#181818;stroke-width:1.0;" width="10" x="2443" y="1536.6094"/><rect fill="#FFFFFF" height="28" style="stroke:#181818;stroke-width:1.0;" width="10" x="2448" y="1574.9609"/><rect fill="#FFFFFF" height="139.7031" style="stroke:#181818;stroke-width:1.0;" width="10" x="2443" y="1731.3672"/><rect fill="#FFFFFF" height="28" style="stroke:#181818;stroke-width:1.0;" width="10" x="2448" y="1769.7188"/><rect fill="#FFFFFF" height="28" style="stroke:#181818;stroke-width:1.0;" width="10" x="2448" y="1843.0703"/><rect fill="#FFFFFF" height="271.7578" style="stroke:#181818;stroke-width:1.0;" width="10" x="2639" y="1204.6328"/><rect fill="#FFFFFF" height="30" style="stroke:#181818;stroke-width:1.0;" width="10" x="2932" y="1234.9844"/><rect fill="#FFFFFF" height="30" style="stroke:#181818;stroke-width:1.0;" width="10" x="2932" y="1295.3359"/><rect fill="#FFFFFF" height="30" style="stroke:#181818;stroke-width:1.0;" width="10" x="2932" y="1355.6875"/><rect fill="#FFFFFF" height="30" style="stroke:#181818;stroke-width:1.0;" width="10" x="2932" y="1416.0391"/><polygon fill="#181818" points="422,110.9609,432,114.9609,422,118.9609,426,114.9609" style="stroke:#181818;stroke-width:1.0;"/><line style="stroke:#181818;stroke-width:1.0;" x1="67" x2="428" y1="114.9609" y2="114.9609"/><text fill="#000000" font-family="sans-serif" font-size="13" font-weight="bold" lengthAdjust="spacing" textLength="7" x="74" y="110.1045">1</text><text fill="#000000" font-family="sans-serif" font-size="13" lengthAdjust="spacing" textLength="337" x="85" y="110.1045">starts register the arrival of a SNS user to take the vaccine</text><path d="M145,127.9609 L145,202.9609 L429,202.9609 L429,137.9609 L419,127.9609 L145,127.9609 " fill="#FEFFDD" style="stroke:#181818;stroke-width:0.5;"/><path d="M419,127.9609 L419,137.9609 L429,137.9609 L419,127.9609 " fill="#FEFFDD" style="stroke:#181818;stroke-width:0.5;"/><text fill="#000000" font-family="sans-serif" font-size="13" font-weight="bold" lengthAdjust="spacing" textLength="26" x="151" y="146.4561">vcId</text><text fill="#000000" font-family="sans-serif" font-size="13" lengthAdjust="spacing" textLength="166" x="181" y="146.4561">is obtained immediately after</text><text fill="#000000" font-family="sans-serif" font-size="13" lengthAdjust="spacing" textLength="259" x="155" y="162.8076">user login to avoid being repeatedly selecting</text><text fill="#000000" font-family="sans-serif" font-size="13" lengthAdjust="spacing" textLength="235" x="155" y="179.1592">the vaccination center user is working on</text><text fill="#000000" font-family="sans-serif" font-size="13" lengthAdjust="spacing" textLength="105" x="155" y="195.5107">cf. SD_Select_VC</text><polygon fill="#181818" points="587.5,226.7188,597.5,230.7188,587.5,234.7188,591.5,230.7188" style="stroke:#181818;stroke-width:1.0;"/><line style="stroke:#181818;stroke-width:1.0;stroke-dasharray:2.0,2.0;" x1="444" x2="593.5" y1="230.7188" y2="230.7188"/><text fill="#000000" font-family="sans-serif" font-size="13" font-weight="bold" lengthAdjust="spacing" textLength="7" x="451" y="225.8623">2</text><text fill="#000000" font-family="sans-serif" font-size="13" lengthAdjust="spacing" textLength="70" x="462" y="225.8623">create (vcId)</text><rect fill="#E2E2F0" height="49.2188" rx="2.5" ry="2.5" style="stroke:#181818;stroke-width:0.5;" width="229" x="599.5" y="208.3672"/><text fill="#000000" font-family="sans-serif" font-size="14" lengthAdjust="spacing" textLength="4" x="712" y="229.9004">:</text><text fill="#000000" font-family="sans-serif" font-size="14" lengthAdjust="spacing" textLength="215" x="606.5" y="247.5098">Register ArrivalSNSUserController</text><polygon fill="#181818" points="959,286.9375,969,290.9375,959,294.9375,963,290.9375" style="stroke:#181818;stroke-width:1.0;"/><line style="stroke:#181818;stroke-width:1.0;" x1="719" x2="965" y1="290.9375" y2="290.9375"/><text fill="#000000" font-family="sans-serif" font-size="13" font-weight="bold" lengthAdjust="spacing" textLength="7" x="726" y="286.0811">3</text><text fill="#000000" font-family="sans-serif" font-size="13" lengthAdjust="spacing" textLength="222" x="737" y="286.0811">vcStore = getVaccinationCenterStore()</text><polygon fill="#181818" points="1088,347.2891,1098,351.2891,1088,355.2891,1092,351.2891" style="stroke:#181818;stroke-width:1.0;"/><line style="stroke:#181818;stroke-width:1.0;" x1="719" x2="1094" y1="351.2891" y2="351.2891"/><text fill="#000000" font-family="sans-serif" font-size="13" font-weight="bold" lengthAdjust="spacing" textLength="7" x="726" y="346.4326">4</text><text fill="#000000" font-family="sans-serif" font-size="13" lengthAdjust="spacing" textLength="182" x="737" y="346.4326">vc = getVaccinationCenter(vcId)</text><polygon fill="#181818" points="78,407.6406,68,411.6406,78,415.6406,74,411.6406" style="stroke:#181818;stroke-width:1.0;"/><line style="stroke:#181818;stroke-width:1.0;stroke-dasharray:2.0,2.0;" x1="72" x2="438" y1="411.6406" y2="411.6406"/><text fill="#000000" font-family="sans-serif" font-size="13" font-weight="bold" lengthAdjust="spacing" textLength="7" x="84" y="406.7842">5</text><text fill="#000000" font-family="sans-serif" font-size="13" lengthAdjust="spacing" textLength="261" x="95" y="406.7842">requests data for the arrival (snsUserNumber)</text><polygon fill="#181818" points="422,437.9922,432,441.9922,422,445.9922,426,441.9922" style="stroke:#181818;stroke-width:1.0;"/><line style="stroke:#181818;stroke-width:1.0;" x1="67" x2="428" y1="441.9922" y2="441.9922"/><text fill="#000000" font-family="sans-serif" font-size="13" font-weight="bold" lengthAdjust="spacing" textLength="7" x="74" y="437.1357">6</text><text fill="#000000" font-family="sans-serif" font-size="13" lengthAdjust="spacing" textLength="122" x="85" y="437.1357">types requested data</text><polygon fill="#181818" points="697,468.3438,707,472.3438,697,476.3438,701,472.3438" style="stroke:#181818;stroke-width:1.0;"/><line style="stroke:#181818;stroke-width:1.0;" x1="444" x2="703" y1="472.3438" y2="472.3438"/><text fill="#000000" font-family="sans-serif" font-size="13" font-weight="bold" lengthAdjust="spacing" textLength="7" x="451" y="467.4873">7</text><text fill="#000000" font-family="sans-serif" font-size="13" lengthAdjust="spacing" textLength="195" x="462" y="467.4873">createSNSUser (snsUserNumber)</text><polygon fill="#181818" points="959,498.6953,969,502.6953,959,506.6953,963,502.6953" style="stroke:#181818;stroke-width:1.0;"/><line style="stroke:#181818;stroke-width:1.0;" x1="719" x2="965" y1="502.6953" y2="502.6953"/><text fill="#000000" font-family="sans-serif" font-size="13" font-weight="bold" lengthAdjust="spacing" textLength="7" x="726" y="497.8389">8</text><text fill="#000000" font-family="sans-serif" font-size="13" lengthAdjust="spacing" textLength="172" x="737" y="497.8389">suStore = getSNSUserStore()</text><polygon fill="#181818" points="1372,559.0469,1382,563.0469,1372,567.0469,1376,563.0469" style="stroke:#181818;stroke-width:1.0;"/><line style="stroke:#181818;stroke-width:1.0;" x1="719" x2="1378" y1="563.0469" y2="563.0469"/><text fill="#000000" font-family="sans-serif" font-size="13" font-weight="bold" lengthAdjust="spacing" textLength="7" x="726" y="558.1904">9</text><text fill="#000000" font-family="sans-serif" font-size="13" lengthAdjust="spacing" textLength="203" x="737" y="558.1904">su = getSNSUser(snsUserNumber)</text><path d="M10,608.0469 L71,608.0469 L71,616.3984 L61,626.3984 L10,626.3984 L10,608.0469 " fill="#EEEEEE" style="stroke:#000000;stroke-width:1.5;"/><rect fill="none" height="1278.0234" style="stroke:#000000;stroke-width:1.5;" width="3140" x="10" y="608.0469"/><text fill="#000000" font-family="sans-serif" font-size="13" font-weight="bold" lengthAdjust="spacing" textLength="16" x="25" y="622.542">alt</text><text fill="#000000" font-family="sans-serif" font-size="11" font-weight="bold" lengthAdjust="spacing" textLength="105" x="86" y="621.4658">[if sns user exists]</text><polygon fill="#181818" points="697,644.75,707,648.75,697,652.75,701,648.75" style="stroke:#181818;stroke-width:1.0;"/><line style="stroke:#181818;stroke-width:1.0;" x1="444" x2="703" y1="648.75" y2="648.75"/><text fill="#000000" font-family="sans-serif" font-size="13" font-weight="bold" lengthAdjust="spacing" textLength="14" x="451" y="643.8936">10</text><text fill="#000000" font-family="sans-serif" font-size="13" lengthAdjust="spacing" textLength="223" x="469" y="643.8936">getListSNSUserVaccinationSchedule()</text><polygon fill="#181818" points="959,675.1016,969,679.1016,959,683.1016,963,679.1016" style="stroke:#181818;stroke-width:1.0;"/><line style="stroke:#181818;stroke-width:1.0;" x1="719" x2="965" y1="679.1016" y2="679.1016"/><text fill="#000000" font-family="sans-serif" font-size="13" font-weight="bold" lengthAdjust="spacing" textLength="14" x="726" y="674.2451">11</text><text fill="#000000" font-family="sans-serif" font-size="13" lengthAdjust="spacing" textLength="207" x="744" y="674.2451">svStore = getVaccinationSchedule()</text><polygon fill="#181818" points="1592.5,735.4531,1602.5,739.4531,1592.5,743.4531,1596.5,739.4531" style="stroke:#181818;stroke-width:1.0;"/><line style="stroke:#181818;stroke-width:1.0;" x1="719" x2="1598.5" y1="739.4531" y2="739.4531"/><text fill="#000000" font-family="sans-serif" font-size="13" font-weight="bold" lengthAdjust="spacing" textLength="14" x="726" y="734.5967">12</text><text fill="#000000" font-family="sans-serif" font-size="13" lengthAdjust="spacing" textLength="257" x="744" y="734.5967">getListSNSUserVaccinationSchedule(su, vc)</text><polygon fill="#181818" points="2000,765.8047,2010,769.8047,2000,773.8047,2004,769.8047" style="stroke:#181818;stroke-width:1.0;"/><line style="stroke:#181818;stroke-width:1.0;stroke-dasharray:2.0,2.0;" x1="1614.5" x2="2006" y1="769.8047" y2="769.8047"/><text fill="#000000" font-family="sans-serif" font-size="13" font-weight="bold" lengthAdjust="spacing" textLength="14" x="1621.5" y="764.9482">13</text><text fill="#000000" font-family="sans-serif" font-size="13" lengthAdjust="spacing" textLength="44" x="1639.5" y="764.9482">create()</text><rect fill="#E2E2F0" height="49.2188" rx="2.5" ry="2.5" style="stroke:#181818;stroke-width:0.5;" width="161" x="2012" y="747.4531"/><text fill="#000000" font-family="sans-serif" font-size="14" lengthAdjust="spacing" textLength="39" x="2073" y="768.9863">listSV:</text><text fill="#000000" font-family="sans-serif" font-size="14" lengthAdjust="spacing" textLength="147" x="2019" y="786.5957">List&lt;ScheduleVaccine&gt;</text><polygon fill="#181818" points="730,826.0234,720,830.0234,730,834.0234,726,830.0234" style="stroke:#181818;stroke-width:1.0;"/><line style="stroke:#181818;stroke-width:1.0;stroke-dasharray:2.0,2.0;" x1="724" x2="1608.5" y1="830.0234" y2="830.0234"/><text fill="#000000" font-family="sans-serif" font-size="13" font-weight="bold" lengthAdjust="spacing" textLength="14" x="736" y="825.167">14</text><text fill="#000000" font-family="sans-serif" font-size="13" lengthAdjust="spacing" textLength="35" x="754" y="825.167">listSV</text><polygon fill="#181818" points="1899.5,881.375,1909.5,885.375,1899.5,889.375,1903.5,885.375" style="stroke:#181818;stroke-width:1.0;"/><line style="stroke:#181818;stroke-width:1.0;" x1="719" x2="1905.5" y1="885.375" y2="885.375"/><text fill="#000000" font-family="sans-serif" font-size="13" font-weight="bold" lengthAdjust="spacing" textLength="14" x="726" y="880.5186">15</text><text fill="#000000" font-family="sans-serif" font-size="13" lengthAdjust="spacing" textLength="80" x="744" y="880.5186">toDTO(listSV)</text><rect height="41.4453" style="stroke:#000000;stroke-width:1.5;fill:none;" width="251" x="1828" y="893.375"/><path d="M1828,893.375 L1890,893.375 L1890,901.375 L1880,911.375 L1828,911.375 L1828,893.375 " fill="#EEEEEE" style="stroke:#000000;stroke-width:2.0;"/><text fill="#000000" font-family="sans-serif" font-size="13" font-weight="bold" lengthAdjust="spacing" textLength="17" x="1841" y="908.8701">ref</text><text fill="#000000" font-family="sans-serif" font-size="12" lengthAdjust="spacing" textLength="243" x="1832" y="927.832">SD_Schedule_Vaccine_Mapper_toDTO_List</text><polygon fill="#181818" points="730,958.1719,720,962.1719,730,966.1719,726,962.1719" style="stroke:#181818;stroke-width:1.0;"/><line style="stroke:#181818;stroke-width:1.0;stroke-dasharray:2.0,2.0;" x1="724" x2="1915.5" y1="962.1719" y2="962.1719"/><text fill="#000000" font-family="sans-serif" font-size="13" font-weight="bold" lengthAdjust="spacing" textLength="14" x="736" y="957.3154">16</text><text fill="#000000" font-family="sans-serif" font-size="13" lengthAdjust="spacing" textLength="55" x="754" y="957.3154">listSVDto</text><polygon fill="#181818" points="455,988.5234,445,992.5234,455,996.5234,451,992.5234" style="stroke:#181818;stroke-width:1.0;"/><line style="stroke:#181818;stroke-width:1.0;stroke-dasharray:2.0,2.0;" x1="449" x2="713" y1="992.5234" y2="992.5234"/><text fill="#000000" font-family="sans-serif" font-size="13" font-weight="bold" lengthAdjust="spacing" textLength="14" x="461" y="987.667">17</text><text fill="#000000" font-family="sans-serif" font-size="13" lengthAdjust="spacing" textLength="55" x="479" y="987.667">listSVDto</text><polygon fill="#181818" points="78,1018.875,68,1022.875,78,1026.875,74,1022.875" style="stroke:#181818;stroke-width:1.0;"/><line style="stroke:#181818;stroke-width:1.0;stroke-dasharray:2.0,2.0;" x1="72" x2="438" y1="1022.875" y2="1022.875"/><text fill="#000000" font-family="sans-serif" font-size="13" font-weight="bold" lengthAdjust="spacing" textLength="14" x="84" y="1018.0186">18</text><text fill="#000000" font-family="sans-serif" font-size="13" lengthAdjust="spacing" textLength="293" x="102" y="1018.0186">shows list of vaccines scheduled for that SNS user</text><polygon fill="#181818" points="422,1049.2266,432,1053.2266,422,1057.2266,426,1053.2266" style="stroke:#181818;stroke-width:1.0;"/><line style="stroke:#181818;stroke-width:1.0;" x1="67" x2="428" y1="1053.2266" y2="1053.2266"/><text fill="#000000" font-family="sans-serif" font-size="13" font-weight="bold" lengthAdjust="spacing" textLength="14" x="74" y="1048.3701">19</text><text fill="#000000" font-family="sans-serif" font-size="13" lengthAdjust="spacing" textLength="194" x="92" y="1048.3701">accept the arrival of the SNS user</text><polygon fill="#181818" points="697,1079.5781,707,1083.5781,697,1087.5781,701,1083.5781" style="stroke:#181818;stroke-width:1.0;"/><line style="stroke:#181818;stroke-width:1.0;" x1="444" x2="703" y1="1083.5781" y2="1083.5781"/><text fill="#000000" font-family="sans-serif" font-size="13" font-weight="bold" lengthAdjust="spacing" textLength="14" x="451" y="1078.7217">20</text><text fill="#000000" font-family="sans-serif" font-size="13" lengthAdjust="spacing" textLength="133" x="469" y="1078.7217">createArrivalSNSUser()</text><polygon fill="#181818" points="959,1109.9297,969,1113.9297,959,1117.9297,963,1113.9297" style="stroke:#181818;stroke-width:1.0;"/><line style="stroke:#181818;stroke-width:1.0;" x1="719" x2="965" y1="1113.9297" y2="1113.9297"/><text fill="#000000" font-family="sans-serif" font-size="13" font-weight="bold" lengthAdjust="spacing" textLength="14" x="726" y="1109.0732">21</text><text fill="#000000" font-family="sans-serif" font-size="13" lengthAdjust="spacing" textLength="207" x="744" y="1109.0732">auStore = getArrivalSNSUserStore()</text><polygon fill="#181818" points="2431,1170.2813,2441,1174.2813,2431,1178.2813,2435,1174.2813" style="stroke:#181818;stroke-width:1.0;"/><line style="stroke:#181818;stroke-width:1.0;" x1="719" x2="2437" y1="1174.2813" y2="1174.2813"/><text fill="#000000" font-family="sans-serif" font-size="13" font-weight="bold" lengthAdjust="spacing" textLength="14" x="726" y="1169.4248">22</text><text fill="#000000" font-family="sans-serif" font-size="13" lengthAdjust="spacing" textLength="203" x="744" y="1169.4248">au = createArrivalSNSUser(auDTO)</text><polygon fill="#181818" points="2627,1200.6328,2637,1204.6328,2627,1208.6328,2631,1204.6328" style="stroke:#181818;stroke-width:1.0;"/><line style="stroke:#181818;stroke-width:1.0;" x1="2453" x2="2633" y1="1204.6328" y2="1204.6328"/><text fill="#000000" font-family="sans-serif" font-size="13" font-weight="bold" lengthAdjust="spacing" textLength="14" x="2460" y="1199.7764">23</text><text fill="#000000" font-family="sans-serif" font-size="13" lengthAdjust="spacing" textLength="124" x="2478" y="1199.7764">au = toModel(auDTO)</text><polygon fill="#181818" points="2920,1230.9844,2930,1234.9844,2920,1238.9844,2924,1234.9844" style="stroke:#181818;stroke-width:1.0;"/><line style="stroke:#181818;stroke-width:1.0;" x1="2649" x2="2926" y1="1234.9844" y2="1234.9844"/><text fill="#000000" font-family="sans-serif" font-size="13" font-weight="bold" lengthAdjust="spacing" textLength="14" x="2656" y="1230.1279">24</text><text fill="#000000" font-family="sans-serif" font-size="13" lengthAdjust="spacing" textLength="140" x="2674" y="1230.1279">snsUser = getSnsUser()</text><polygon fill="#181818" points="2920,1291.3359,2930,1295.3359,2920,1299.3359,2924,1295.3359" style="stroke:#181818;stroke-width:1.0;"/><line style="stroke:#181818;stroke-width:1.0;" x1="2649" x2="2926" y1="1295.3359" y2="1295.3359"/><text fill="#000000" font-family="sans-serif" font-size="13" font-weight="bold" lengthAdjust="spacing" textLength="14" x="2656" y="1290.4795">25</text><text fill="#000000" font-family="sans-serif" font-size="13" lengthAdjust="spacing" textLength="164" x="2674" y="1290.4795">arrivalDate = getArrivalDate()</text><polygon fill="#181818" points="2920,1351.6875,2930,1355.6875,2920,1359.6875,2924,1355.6875" style="stroke:#181818;stroke-width:1.0;"/><line style="stroke:#181818;stroke-width:1.0;" x1="2649" x2="2926" y1="1355.6875" y2="1355.6875"/><text fill="#000000" font-family="sans-serif" font-size="13" font-weight="bold" lengthAdjust="spacing" textLength="14" x="2656" y="1350.8311">26</text><text fill="#000000" font-family="sans-serif" font-size="13" lengthAdjust="spacing" textLength="166" x="2674" y="1350.8311">arrivalTime = getArrivalTime()</text><polygon fill="#181818" points="2920,1412.0391,2930,1416.0391,2920,1420.0391,2924,1416.0391" style="stroke:#181818;stroke-width:1.0;"/><line style="stroke:#181818;stroke-width:1.0;" x1="2649" x2="2926" y1="1416.0391" y2="1416.0391"/><text fill="#000000" font-family="sans-serif" font-size="13" font-weight="bold" lengthAdjust="spacing" textLength="14" x="2656" y="1411.1826">27</text><text fill="#000000" font-family="sans-serif" font-size="13" lengthAdjust="spacing" textLength="246" x="2674" y="1411.1826">vaccinationCenter = getvaccinationCenter()</text><polygon fill="#181818" points="3018,1472.3906,3028,1476.3906,3018,1480.3906,3022,1476.3906" style="stroke:#181818;stroke-width:1.0;"/><line style="stroke:#181818;stroke-width:1.0;stroke-dasharray:2.0,2.0;" x1="2644" x2="3024" y1="1476.3906" y2="1476.3906"/><text fill="#000000" font-family="sans-serif" font-size="13" font-weight="bold" lengthAdjust="spacing" textLength="14" x="2651" y="1471.5342">28</text><text fill="#000000" font-family="sans-serif" font-size="13" lengthAdjust="spacing" textLength="339" x="2669" y="1471.5342">create(snsUser, arrivalDate, arrivalTime, vaccinationCenter)</text><rect fill="#E2E2F0" height="49.2188" rx="2.5" ry="2.5" style="stroke:#181818;stroke-width:0.5;" width="110" x="3030" y="1454.0391"/><text fill="#000000" font-family="sans-serif" font-size="14" lengthAdjust="spacing" textLength="20" x="3075" y="1475.5723">au:</text><text fill="#000000" font-family="sans-serif" font-size="14" lengthAdjust="spacing" textLength="96" x="3037" y="1493.1816">ArrivalSNSUser</text><polygon fill="#181818" points="2431,1532.6094,2441,1536.6094,2431,1540.6094,2435,1536.6094" style="stroke:#181818;stroke-width:1.0;"/><line style="stroke:#181818;stroke-width:1.0;" x1="719" x2="2437" y1="1536.6094" y2="1536.6094"/><text fill="#000000" font-family="sans-serif" font-size="13" font-weight="bold" lengthAdjust="spacing" textLength="14" x="726" y="1531.7529">29</text><text fill="#000000" font-family="sans-serif" font-size="13" lengthAdjust="spacing" textLength="227" x="744" y="1531.7529">validateArrivalSNSUser(arrivalSNSUser)</text><line style="stroke:#181818;stroke-width:1.0;" x1="2458" x2="2500" y1="1566.9609" y2="1566.9609"/><line style="stroke:#181818;stroke-width:1.0;" x1="2500" x2="2500" y1="1566.9609" y2="1579.9609"/><line style="stroke:#181818;stroke-width:1.0;" x1="2459" x2="2500" y1="1579.9609" y2="1579.9609"/><polygon fill="#181818" points="2469,1575.9609,2459,1579.9609,2469,1583.9609,2465,1579.9609" style="stroke:#181818;stroke-width:1.0;"/><text fill="#000000" font-family="sans-serif" font-size="13" font-weight="bold" lengthAdjust="spacing" textLength="14" x="2465" y="1562.1045">30</text><text fill="#000000" font-family="sans-serif" font-size="13" lengthAdjust="spacing" textLength="118" x="2483" y="1562.1045">checkDuplicates(au)</text><polygon fill="#181818" points="78,1636.3125,68,1640.3125,78,1644.3125,74,1640.3125" style="stroke:#181818;stroke-width:1.0;"/><line style="stroke:#181818;stroke-width:1.0;stroke-dasharray:2.0,2.0;" x1="72" x2="438" y1="1640.3125" y2="1640.3125"/><text fill="#000000" font-family="sans-serif" font-size="13" font-weight="bold" lengthAdjust="spacing" textLength="14" x="84" y="1635.4561">31</text><text fill="#000000" font-family="sans-serif" font-size="13" lengthAdjust="spacing" textLength="236" x="102" y="1635.4561">shows all data and requests confirmation</text><polygon fill="#181818" points="422,1666.6641,432,1670.6641,422,1674.6641,426,1670.6641" style="stroke:#181818;stroke-width:1.0;"/><line style="stroke:#181818;stroke-width:1.0;" x1="67" x2="428" y1="1670.6641" y2="1670.6641"/><text fill="#000000" font-family="sans-serif" font-size="13" font-weight="bold" lengthAdjust="spacing" textLength="14" x="74" y="1665.8076">32</text><text fill="#000000" font-family="sans-serif" font-size="13" lengthAdjust="spacing" textLength="263" x="92" y="1665.8076">confirms the user is ready to take the vaccine</text><polygon fill="#181818" points="697,1697.0156,707,1701.0156,697,1705.0156,701,1701.0156" style="stroke:#181818;stroke-width:1.0;"/><line style="stroke:#181818;stroke-width:1.0;" x1="444" x2="703" y1="1701.0156" y2="1701.0156"/><text fill="#000000" font-family="sans-serif" font-size="13" font-weight="bold" lengthAdjust="spacing" textLength="14" x="451" y="1696.1592">33</text><text fill="#000000" font-family="sans-serif" font-size="13" lengthAdjust="spacing" textLength="123" x="469" y="1696.1592">saveArrivalSNSUser()</text><polygon fill="#181818" points="2431,1727.3672,2441,1731.3672,2431,1735.3672,2435,1731.3672" style="stroke:#181818;stroke-width:1.0;"/><line style="stroke:#181818;stroke-width:1.0;" x1="719" x2="2437" y1="1731.3672" y2="1731.3672"/><text fill="#000000" font-family="sans-serif" font-size="13" font-weight="bold" lengthAdjust="spacing" textLength="14" x="726" y="1726.5107">34</text><text fill="#000000" font-family="sans-serif" font-size="13" lengthAdjust="spacing" textLength="137" x="744" y="1726.5107">saveArrivalSNSUser(au)</text><line style="stroke:#181818;stroke-width:1.0;" x1="2458" x2="2500" y1="1761.7188" y2="1761.7188"/><line style="stroke:#181818;stroke-width:1.0;" x1="2500" x2="2500" y1="1761.7188" y2="1774.7188"/><line style="stroke:#181818;stroke-width:1.0;" x1="2459" x2="2500" y1="1774.7188" y2="1774.7188"/><polygon fill="#181818" points="2469,1770.7188,2459,1774.7188,2469,1778.7188,2465,1774.7188" style="stroke:#181818;stroke-width:1.0;"/><text fill="#000000" font-family="sans-serif" font-size="13" font-weight="bold" lengthAdjust="spacing" textLength="14" x="2465" y="1756.8623">35</text><text fill="#000000" font-family="sans-serif" font-size="13" lengthAdjust="spacing" textLength="154" x="2483" y="1756.8623">validateArrivalSNSUser(au)</text><line style="stroke:#181818;stroke-width:1.0;" x1="2458" x2="2500" y1="1835.0703" y2="1835.0703"/><line style="stroke:#181818;stroke-width:1.0;" x1="2500" x2="2500" y1="1835.0703" y2="1848.0703"/><line style="stroke:#181818;stroke-width:1.0;" x1="2459" x2="2500" y1="1848.0703" y2="1848.0703"/><polygon fill="#181818" points="2469,1844.0703,2459,1848.0703,2469,1852.0703,2465,1848.0703" style="stroke:#181818;stroke-width:1.0;"/><text fill="#000000" font-family="sans-serif" font-size="13" font-weight="bold" lengthAdjust="spacing" textLength="14" x="2465" y="1830.2139">36</text><text fill="#000000" font-family="sans-serif" font-size="13" lengthAdjust="spacing" textLength="132" x="2483" y="1830.2139">addArrivalSNSUser(au)</text><polygon fill="#181818" points="73,1911.4219,63,1915.4219,73,1919.4219,69,1915.4219" style="stroke:#181818;stroke-width:1.0;"/><line style="stroke:#181818;stroke-width:1.0;stroke-dasharray:2.0,2.0;" x1="67" x2="438" y1="1915.4219" y2="1915.4219"/><text fill="#000000" font-family="sans-serif" font-size="13" font-weight="bold" lengthAdjust="spacing" textLength="14" x="79" y="1910.5654">37</text><text fill="#000000" font-family="sans-serif" font-size="13" lengthAdjust="spacing" textLength="152" x="97" y="1910.5654">informs operation success</text><!--MD5=[0d5a0a4fc5d8c736452e6b558ed8de55]
@startuml
autonumber
actor "Receptionist" as R

participant ":\nRegister ArrivalSNSUserUI" as UI
participant ":\nRegister ArrivalSNSUserController" as CTRL
participant ":\nCompany" as CMP
participant "vcStore:\nVaccinationCenterStore" as VCS
participant "vc:\nVaccinationCenter" as VC
participant "suStore:\nSNSUserStore" as SUS
participant "su:\nSNSUser" as SU
participant "svStore:\nScheduleVaccineStore" as SVS
participant "sv:\nScheduleVaccine" as SV
participant "svMapper:\nScheduleVaccineMapper" as SVM
participant "listSV:\nList<ScheduleVaccine>" as LSV
participant "listSVDto:\nList<ScheduleVaccineDto>" as LSVD
participant "auStore:\nArrivalSNSUserStore" as AUS
participant "auMapper:\nArrivalSNSUserMapper" as AUM
participant "auDto:\nArrivalSNSUserDto" as AUD
participant "au:\nArrivalSNSUser" as AU

activate R
R -> UI : starts register the arrival of a SNS user to take the vaccine
note left UI: **vcId** is obtained immediately after\n user login to avoid being repeatedly selecting\n the vaccination center user is working on\n cf. SD_Select_VC
activate UI

UI - -> CTRL** : create (vcId)
activate CTRL
CTRL -> CMP : vcStore = getVaccinationCenterStore()
activate CMP
deactivate CMP
CTRL -> VCS : vc = getVaccinationCenter(vcId)
activate VCS
deactivate CTRL
deactivate VCS

UI - -> R : requests data for the arrival (snsUserNumber)
deactivate UI

R -> UI : types requested data
activate UI

UI -> CTRL : createSNSUser (snsUserNumber)
activate CTRL
CTRL -> CMP : suStore = getSNSUserStore()
activate CMP
deactivate CMP

CTRL -> SUS : su = getSNSUser(snsUserNumber)
activate SUS
deactivate CMP
deactivate SUS

alt if sns user exists

UI -> CTRL : getListSNSUserVaccinationSchedule()
CTRL -> CMP : svStore = getVaccinationSchedule()
activate CMP
deactivate CMP

CTRL -> SVS : getListSNSUserVaccinationSchedule(su, vc)
activate SVS
SVS - -> LSV** : create()
SVS - -> CTRL : listSV
|||
deactivate SVS

CTRL -> SVM : toDTO(listSV)
activate SVM

ref over SVM
SD_Schedule_Vaccine_Mapper_toDTO_List
end ref

SVM - -> CTRL : listSVDto
deactivate SVM

CTRL - -> UI : listSVDto
deactivate CTRL

UI - -> R : shows list of vaccines scheduled for that SNS user
deactivate UI

R -> UI : accept the arrival of the SNS user
activate UI

UI -> CTRL : createArrivalSNSUser()
activate CTRL

CTRL -> CMP : auStore = getArrivalSNSUserStore()
activate CMP
deactivate CMP

CTRL -> AUS : au = createArrivalSNSUser(auDTO)
activate AUS
AUS -> AUM : au = toModel(auDTO)
activate AUM

AUM -> AUD : snsUser = getSnsUser()
activate AUD
deactivate AUD

AUM -> AUD : arrivalDate = getArrivalDate()
activate AUD
deactivate AUD

AUM -> AUD : arrivalTime = getArrivalTime()
activate AUD
deactivate AUD

AUM -> AUD : vaccinationCenter = getvaccinationCenter()
activate AUD

deactivate AUD
AUM - -> AU** : create(snsUser, arrivalDate, arrivalTime, vaccinationCenter)
deactivate AUM
deactivate AUS

CTRL -> AUS : validateArrivalSNSUser(arrivalSNSUser)
activate AUS

AUS -> AUS: checkDuplicates(au)
activate AUS
deactivate AUS

deactivate CTRL
deactivate AUS

UI - -> R: shows all data and requests confirmation

deactivate UI
R -> UI : confirms the user is ready to take the vaccine
activate UI
UI -> CTRL : saveArrivalSNSUser()
activate CTRL

CTRL -> AUS : saveArrivalSNSUser(au)
activate AUS
AUS -> AUS: validateArrivalSNSUser(au)
activate AUS
deactivate AUS

AUS -> AUS: addArrivalSNSUser(au)
activate AUS
deactivate AUS
deactivate CTRL
deactivate AUS
end alt

UI - -> R : informs operation success
deactivate UI
deactivate R

@enduml

PlantUML version 1.2022.4(Sat Apr 09 14:29:17 BST 2022)
(GPL source distribution)
Java Runtime: OpenJDK Runtime Environment
JVM: OpenJDK 64-Bit Server VM
Default Encoding: Cp1252
Language: pt
Country: PT
--></g></svg>