<?xml version="1.0" encoding="UTF-8" standalone="no"?><svg xmlns="http://www.w3.org/2000/svg" xmlns:xlink="http://www.w3.org/1999/xlink" contentStyleType="text/css" height="627px" preserveAspectRatio="none" style="width:410px;height:627px;background:#FFFFFF;" version="1.1" viewBox="0 0 410 627" width="410px" zoomAndPan="magnify"><defs/><g><!--MD5=[335f4d9be48430461c68bf6d6fdba145]
class App--><g id="elem_App"><rect codeLine="3" fill="#F1F1F1" height="48" id="App" rx="2.5" ry="2.5" style="stroke:#181818;stroke-width:0.5;" width="62" x="256" y="116"/><ellipse cx="271" cy="132" fill="#ADD1B2" rx="11" ry="11" style="stroke:#181818;stroke-width:1.0;"/><path d="M273.3438,127.6719 C272.4063,127.2344 271.8125,127.0938 270.9375,127.0938 C268.3125,127.0938 266.3125,129.1719 266.3125,131.8906 L266.3125,133.0156 C266.3125,135.5938 268.4219,137.4844 271.3125,137.4844 C272.5313,137.4844 273.6875,137.1875 274.4375,136.6406 C275.0156,136.2344 275.3438,135.7813 275.3438,135.3906 C275.3438,134.9375 274.9531,134.5469 274.4844,134.5469 C274.2656,134.5469 274.0625,134.625 273.875,134.8125 C273.4219,135.2969 273.4219,135.2969 273.2344,135.3906 C272.8125,135.6563 272.125,135.7813 271.3594,135.7813 C269.3125,135.7813 268.0156,134.6875 268.0156,132.9844 L268.0156,131.8906 C268.0156,130.1094 269.2656,128.7969 271,128.7969 C271.5781,128.7969 272.1875,128.9531 272.6563,129.2031 C273.1406,129.4844 273.3125,129.7031 273.4063,130.1094 C273.4688,130.5156 273.5,130.6406 273.6406,130.7656 C273.7813,130.9063 274.0156,131.0156 274.2344,131.0156 C274.5,131.0156 274.7656,130.875 274.9375,130.6563 C275.0469,130.5 275.0781,130.3125 275.0781,129.8906 L275.0781,128.4688 C275.0781,128.0313 275.0625,127.9063 274.9688,127.75 C274.8125,127.4844 274.5313,127.3438 274.2344,127.3438 C273.9375,127.3438 273.7344,127.4375 273.5156,127.75 L273.3438,127.6719 Z " fill="#000000"/><text fill="#000000" font-family="sans-serif" font-size="14" lengthAdjust="spacing" textLength="30" x="285" y="136.8467">App</text><line style="stroke:#181818;stroke-width:0.5;" x1="257" x2="317" y1="148" y2="148"/><line style="stroke:#181818;stroke-width:0.5;" x1="257" x2="317" y1="156" y2="156"/></g><!--MD5=[02e4b9b7573f1156f41e60aa5b4e25a4]
class Company--><g id="elem_Company"><rect codeLine="6" fill="#F1F1F1" height="48" id="Company" rx="2.5" ry="2.5" style="stroke:#181818;stroke-width:0.5;" width="100" x="290" y="7"/><ellipse cx="305" cy="23" fill="#ADD1B2" rx="11" ry="11" style="stroke:#181818;stroke-width:1.0;"/><path d="M307.3438,18.6719 C306.4063,18.2344 305.8125,18.0938 304.9375,18.0938 C302.3125,18.0938 300.3125,20.1719 300.3125,22.8906 L300.3125,24.0156 C300.3125,26.5938 302.4219,28.4844 305.3125,28.4844 C306.5313,28.4844 307.6875,28.1875 308.4375,27.6406 C309.0156,27.2344 309.3438,26.7813 309.3438,26.3906 C309.3438,25.9375 308.9531,25.5469 308.4844,25.5469 C308.2656,25.5469 308.0625,25.625 307.875,25.8125 C307.4219,26.2969 307.4219,26.2969 307.2344,26.3906 C306.8125,26.6563 306.125,26.7813 305.3594,26.7813 C303.3125,26.7813 302.0156,25.6875 302.0156,23.9844 L302.0156,22.8906 C302.0156,21.1094 303.2656,19.7969 305,19.7969 C305.5781,19.7969 306.1875,19.9531 306.6563,20.2031 C307.1406,20.4844 307.3125,20.7031 307.4063,21.1094 C307.4688,21.5156 307.5,21.6406 307.6406,21.7656 C307.7813,21.9063 308.0156,22.0156 308.2344,22.0156 C308.5,22.0156 308.7656,21.875 308.9375,21.6563 C309.0469,21.5 309.0781,21.3125 309.0781,20.8906 L309.0781,19.4688 C309.0781,19.0313 309.0625,18.9063 308.9688,18.75 C308.8125,18.4844 308.5313,18.3438 308.2344,18.3438 C307.9375,18.3438 307.7344,18.4375 307.5156,18.75 L307.3438,18.6719 Z " fill="#000000"/><text fill="#000000" font-family="sans-serif" font-size="14" lengthAdjust="spacing" textLength="68" x="319" y="27.8467">Company</text><line style="stroke:#181818;stroke-width:0.5;" x1="291" x2="389" y1="39" y2="39"/><line style="stroke:#181818;stroke-width:0.5;" x1="291" x2="389" y1="47" y2="47"/></g><!--MD5=[7829b64950ce38e0487c4015ea331f97]
class Date--><g id="elem_Date"><rect codeLine="9" fill="#F1F1F1" height="64.2969" id="Date" rx="2.5" ry="2.5" style="stroke:#181818;stroke-width:0.5;" width="67" x="23.5" y="431"/><ellipse cx="38.5" cy="447" fill="#ADD1B2" rx="11" ry="11" style="stroke:#181818;stroke-width:1.0;"/><path d="M40.8438,442.6719 C39.9063,442.2344 39.3125,442.0938 38.4375,442.0938 C35.8125,442.0938 33.8125,444.1719 33.8125,446.8906 L33.8125,448.0156 C33.8125,450.5938 35.9219,452.4844 38.8125,452.4844 C40.0313,452.4844 41.1875,452.1875 41.9375,451.6406 C42.5156,451.2344 42.8438,450.7813 42.8438,450.3906 C42.8438,449.9375 42.4531,449.5469 41.9844,449.5469 C41.7656,449.5469 41.5625,449.625 41.375,449.8125 C40.9219,450.2969 40.9219,450.2969 40.7344,450.3906 C40.3125,450.6563 39.625,450.7813 38.8594,450.7813 C36.8125,450.7813 35.5156,449.6875 35.5156,447.9844 L35.5156,446.8906 C35.5156,445.1094 36.7656,443.7969 38.5,443.7969 C39.0781,443.7969 39.6875,443.9531 40.1563,444.2031 C40.6406,444.4844 40.8125,444.7031 40.9063,445.1094 C40.9688,445.5156 41,445.6406 41.1406,445.7656 C41.2813,445.9063 41.5156,446.0156 41.7344,446.0156 C42,446.0156 42.2656,445.875 42.4375,445.6563 C42.5469,445.5 42.5781,445.3125 42.5781,444.8906 L42.5781,443.4688 C42.5781,443.0313 42.5625,442.9063 42.4688,442.75 C42.3125,442.4844 42.0313,442.3438 41.7344,442.3438 C41.4375,442.3438 41.2344,442.4375 41.0156,442.75 L40.8438,442.6719 Z " fill="#000000"/><text fill="#000000" font-family="sans-serif" font-size="14" lengthAdjust="spacing" textLength="35" x="52.5" y="451.8467">Date</text><line style="stroke:#181818;stroke-width:0.5;" x1="24.5" x2="89.5" y1="463" y2="463"/><text fill="#000000" font-family="sans-serif" font-size="14" lengthAdjust="spacing" textLength="39" x="29.5" y="479.9951">-date</text><line style="stroke:#181818;stroke-width:0.5;" x1="24.5" x2="89.5" y1="487.2969" y2="487.2969"/></g><!--MD5=[9a28a150af6fc7e01c9185b1f84513bb]
class ExportFullVaccinatedCSV--><g id="elem_ExportFullVaccinatedCSV"><rect codeLine="13" fill="#F1F1F1" height="113.1875" id="ExportFullVaccinatedCSV" rx="2.5" ry="2.5" style="stroke:#181818;stroke-width:0.5;" width="240" x="7" y="241"/><ellipse cx="33.7" cy="257" fill="#ADD1B2" rx="11" ry="11" style="stroke:#181818;stroke-width:1.0;"/><path d="M36.0438,252.6719 C35.1063,252.2344 34.5125,252.0938 33.6375,252.0938 C31.0125,252.0938 29.0125,254.1719 29.0125,256.8906 L29.0125,258.0156 C29.0125,260.5938 31.1219,262.4844 34.0125,262.4844 C35.2313,262.4844 36.3875,262.1875 37.1375,261.6406 C37.7156,261.2344 38.0438,260.7813 38.0438,260.3906 C38.0438,259.9375 37.6531,259.5469 37.1844,259.5469 C36.9656,259.5469 36.7625,259.625 36.575,259.8125 C36.1219,260.2969 36.1219,260.2969 35.9344,260.3906 C35.5125,260.6563 34.825,260.7813 34.0594,260.7813 C32.0125,260.7813 30.7156,259.6875 30.7156,257.9844 L30.7156,256.8906 C30.7156,255.1094 31.9656,253.7969 33.7,253.7969 C34.2781,253.7969 34.8875,253.9531 35.3563,254.2031 C35.8406,254.4844 36.0125,254.7031 36.1063,255.1094 C36.1688,255.5156 36.2,255.6406 36.3406,255.7656 C36.4813,255.9063 36.7156,256.0156 36.9344,256.0156 C37.2,256.0156 37.4656,255.875 37.6375,255.6563 C37.7469,255.5 37.7781,255.3125 37.7781,254.8906 L37.7781,253.4688 C37.7781,253.0313 37.7625,252.9063 37.6688,252.75 C37.5125,252.4844 37.2313,252.3438 36.9344,252.3438 C36.6375,252.3438 36.4344,252.4375 36.2156,252.75 L36.0438,252.6719 Z " fill="#000000"/><text fill="#000000" font-family="sans-serif" font-size="14" lengthAdjust="spacing" textLength="182" x="50.3" y="261.8467">ExportFullVaccinatedCSV</text><line style="stroke:#181818;stroke-width:0.5;" x1="8" x2="246" y1="273" y2="273"/><line style="stroke:#181818;stroke-width:0.5;" x1="8" x2="246" y1="281" y2="281"/><text fill="#000000" font-family="sans-serif" font-size="14" lengthAdjust="spacing" textLength="220" x="13" y="297.9951">+getVaccinationCenterStore()</text><text fill="#000000" font-family="sans-serif" font-size="14" lengthAdjust="spacing" textLength="180" x="13" y="314.292">+getVaccinationCenter()</text><text fill="#000000" font-family="sans-serif" font-size="14" lengthAdjust="spacing" textLength="225" x="13" y="330.5889">+getVaccinatedSNSUserStore()</text><text fill="#000000" font-family="sans-serif" font-size="14" lengthAdjust="spacing" textLength="228" x="13" y="346.8857">+getListOfVaccinatedSNSUser()</text></g><!--MD5=[a29876ea2f21a6ca48ea477740122fd8]
class VaccinationCenterStore--><g id="elem_VaccinationCenterStore"><rect codeLine="20" fill="#F1F1F1" height="64.2969" id="VaccinationCenterStore" rx="2.5" ry="2.5" style="stroke:#181818;stroke-width:0.5;" width="206" x="197" y="431"/><ellipse cx="212" cy="447" fill="#ADD1B2" rx="11" ry="11" style="stroke:#181818;stroke-width:1.0;"/><path d="M214.3438,442.6719 C213.4063,442.2344 212.8125,442.0938 211.9375,442.0938 C209.3125,442.0938 207.3125,444.1719 207.3125,446.8906 L207.3125,448.0156 C207.3125,450.5938 209.4219,452.4844 212.3125,452.4844 C213.5313,452.4844 214.6875,452.1875 215.4375,451.6406 C216.0156,451.2344 216.3438,450.7813 216.3438,450.3906 C216.3438,449.9375 215.9531,449.5469 215.4844,449.5469 C215.2656,449.5469 215.0625,449.625 214.875,449.8125 C214.4219,450.2969 214.4219,450.2969 214.2344,450.3906 C213.8125,450.6563 213.125,450.7813 212.3594,450.7813 C210.3125,450.7813 209.0156,449.6875 209.0156,447.9844 L209.0156,446.8906 C209.0156,445.1094 210.2656,443.7969 212,443.7969 C212.5781,443.7969 213.1875,443.9531 213.6563,444.2031 C214.1406,444.4844 214.3125,444.7031 214.4063,445.1094 C214.4688,445.5156 214.5,445.6406 214.6406,445.7656 C214.7813,445.9063 215.0156,446.0156 215.2344,446.0156 C215.5,446.0156 215.7656,445.875 215.9375,445.6563 C216.0469,445.5 216.0781,445.3125 216.0781,444.8906 L216.0781,443.4688 C216.0781,443.0313 216.0625,442.9063 215.9688,442.75 C215.8125,442.4844 215.5313,442.3438 215.2344,442.3438 C214.9375,442.3438 214.7344,442.4375 214.5156,442.75 L214.3438,442.6719 Z " fill="#000000"/><text fill="#000000" font-family="sans-serif" font-size="14" lengthAdjust="spacing" textLength="174" x="226" y="451.8467">VaccinationCenterStore</text><line style="stroke:#181818;stroke-width:0.5;" x1="198" x2="402" y1="463" y2="463"/><line style="stroke:#181818;stroke-width:0.5;" x1="198" x2="402" y1="471" y2="471"/><text fill="#000000" font-family="sans-serif" font-size="14" lengthAdjust="spacing" textLength="180" x="203" y="487.9951">+getVaccinationCenter()</text></g><!--MD5=[9d0e8ea335ce5cd5f6d2d203d045386a]
class VaccinatedSNSUserStore--><g id="elem_VaccinatedSNSUserStore"><rect codeLine="24" fill="#F1F1F1" height="64.2969" id="VaccinatedSNSUserStore" rx="2.5" ry="2.5" style="stroke:#181818;stroke-width:0.5;" width="240" x="73" y="556"/><ellipse cx="101.05" cy="572" fill="#ADD1B2" rx="11" ry="11" style="stroke:#181818;stroke-width:1.0;"/><path d="M103.3938,567.6719 C102.4563,567.2344 101.8625,567.0938 100.9875,567.0938 C98.3625,567.0938 96.3625,569.1719 96.3625,571.8906 L96.3625,573.0156 C96.3625,575.5938 98.4719,577.4844 101.3625,577.4844 C102.5813,577.4844 103.7375,577.1875 104.4875,576.6406 C105.0656,576.2344 105.3938,575.7813 105.3938,575.3906 C105.3938,574.9375 105.0031,574.5469 104.5344,574.5469 C104.3156,574.5469 104.1125,574.625 103.925,574.8125 C103.4719,575.2969 103.4719,575.2969 103.2844,575.3906 C102.8625,575.6563 102.175,575.7813 101.4094,575.7813 C99.3625,575.7813 98.0656,574.6875 98.0656,572.9844 L98.0656,571.8906 C98.0656,570.1094 99.3156,568.7969 101.05,568.7969 C101.6281,568.7969 102.2375,568.9531 102.7063,569.2031 C103.1906,569.4844 103.3625,569.7031 103.4563,570.1094 C103.5188,570.5156 103.55,570.6406 103.6906,570.7656 C103.8313,570.9063 104.0656,571.0156 104.2844,571.0156 C104.55,571.0156 104.8156,570.875 104.9875,570.6563 C105.0969,570.5 105.1281,570.3125 105.1281,569.8906 L105.1281,568.4688 C105.1281,568.0313 105.1125,567.9063 105.0188,567.75 C104.8625,567.4844 104.5813,567.3438 104.2844,567.3438 C103.9875,567.3438 103.7844,567.4375 103.5656,567.75 L103.3938,567.6719 Z " fill="#000000"/><text fill="#000000" font-family="sans-serif" font-size="14" lengthAdjust="spacing" textLength="179" x="117.95" y="576.8467">VaccinatedSNSUserStore</text><line style="stroke:#181818;stroke-width:0.5;" x1="74" x2="312" y1="588" y2="588"/><line style="stroke:#181818;stroke-width:0.5;" x1="74" x2="312" y1="596" y2="596"/><text fill="#000000" font-family="sans-serif" font-size="14" lengthAdjust="spacing" textLength="228" x="79" y="612.9951">+getListOfVaccinatedSNSUser()</text></g><!--MD5=[04a3751f217677a84b533ed87bfad901]
link Company to App--><g id="link_Company_App"><path codeLine="28" d="M328.5,55.217 C319.61,73.165 307.362,97.892 298.478,115.828 " fill="none" id="Company-App" style="stroke:#181818;stroke-width:1.0;"/><text fill="#000000" font-family="sans-serif" font-size="13" lengthAdjust="spacing" textLength="8" x="316.7219" y="75.0311">1</text><text fill="#000000" font-family="sans-serif" font-size="13" lengthAdjust="spacing" textLength="8" x="292.3942" y="104.796">1</text></g><!--MD5=[abcb61bd6877f2800b449d6bcd7954ea]
link App to ExportFullVaccinatedCSV--><g id="link_App_ExportFullVaccinatedCSV"><path codeLine="29" d="M263.046,164.28 C242.298,184.445 211.443,214.432 184.359,240.754 " fill="none" id="App-ExportFullVaccinatedCSV" style="stroke:#181818;stroke-width:1.0;"/><text fill="#000000" font-family="sans-serif" font-size="13" lengthAdjust="spacing" textLength="8" x="248.2322" y="184.1095">1</text><text fill="#000000" font-family="sans-serif" font-size="13" lengthAdjust="spacing" textLength="8" x="182.8621" y="229.9876">1</text></g><!--MD5=[3d30f92605904a54e01056874570a5f2]
link ExportFullVaccinatedCSV to VaccinationCenterStore--><g id="link_ExportFullVaccinatedCSV_VaccinationCenterStore"><path codeLine="30" d="M186.053,354.31 C213.069,379.843 244.07,409.141 266.909,430.726 " fill="none" id="ExportFullVaccinatedCSV-VaccinationCenterStore" style="stroke:#181818;stroke-width:1.0;"/><text fill="#000000" font-family="sans-serif" font-size="13" lengthAdjust="spacing" textLength="8" x="184.7626" y="374.2113">1</text><text fill="#000000" font-family="sans-serif" font-size="13" lengthAdjust="spacing" textLength="8" x="251.6067" y="419.9462">1</text></g><!--MD5=[66fbe9ba5f5c51bc1ed09b5f5e0a74b6]
link VaccinationCenterStore to VaccinatedSNSUserStore--><g id="link_VaccinationCenterStore_VaccinatedSNSUserStore"><path codeLine="31" d="M272.999,495.038 C256.779,513.684 236.211,537.3277 219.992,555.9718 " fill="none" id="VaccinationCenterStore-VaccinatedSNSUserStore" style="stroke:#181818;stroke-width:1.0;"/><text fill="#000000" font-family="sans-serif" font-size="13" lengthAdjust="spacing" textLength="8" x="258.605" y="515.2427">1</text><text fill="#000000" font-family="sans-serif" font-size="13" lengthAdjust="spacing" textLength="7" x="217.8372" y="544.8691">*</text></g><!--MD5=[bc0d5b4bfe6e1bf0a8fced13bc4bdd47]
link Company to VaccinationCenterStore--><g id="link_Company_VaccinationCenterStore"><path codeLine="32" d="M341.68,55.23 C345.353,113.962 351.694,272.827 324,401 C321.837,411.011 318.228,421.523 314.458,430.945 " fill="none" id="Company-VaccinationCenterStore" style="stroke:#181818;stroke-width:1.0;"/><polygon fill="#000000" points="349.6387,207.5533,353.2236,198.7443,347.3611,198.3195,349.6387,207.5533" style="stroke:#000000;stroke-width:1.0;"/><text fill="#000000" font-family="sans-serif" font-size="13" lengthAdjust="spacing" textLength="23" x="359" y="207.0669">has</text><text fill="#000000" font-family="sans-serif" font-size="13" lengthAdjust="spacing" textLength="8" x="333.1145" y="75.0473">1</text><text fill="#000000" font-family="sans-serif" font-size="13" lengthAdjust="spacing" textLength="7" x="309.7181" y="419.8368">*</text></g><!--MD5=[f9ff054c4130b38cd53d40c0b464752e]
link App to VaccinationCenterStore--><g id="link_App_VaccinationCenterStore"><path codeLine="33" d="M287.935,164.086 C290.17,219.287 295.839,359.26 298.534,425.799 " fill="none" id="App-to-VaccinationCenterStore" style="stroke:#181818;stroke-width:1.0;stroke-dasharray:7.0,7.0;"/><polygon fill="#181818" points="298.738,430.847,302.3723,421.6932,298.5366,425.8511,294.3788,422.0154,298.738,430.847" style="stroke:#181818;stroke-width:1.0;"/></g><!--MD5=[681709216bea4d2eb6a2ecca08cad7a6]
link ExportFullVaccinatedCSV to Date--><g id="link_ExportFullVaccinatedCSV_Date"><path codeLine="34" d="M89.6699,354.196 C84.2056,363.864 79.0614,374.023 75,384 C68.9215,398.931 64.6559,416.346 61.8082,430.928 " fill="none" id="ExportFullVaccinatedCSV-Date" style="stroke:#181818;stroke-width:1.0;"/><polygon fill="#000000" points="78.2935,397.2662,84.143,389.7673,78.6181,387.7612,78.2935,397.2662" style="stroke:#000000;stroke-width:1.0;"/><text fill="#000000" font-family="sans-serif" font-size="13" lengthAdjust="spacing" textLength="28" x="89" y="397.0669">gets</text><text fill="#000000" font-family="sans-serif" font-size="13" lengthAdjust="spacing" textLength="8" x="76.6328" y="374.0834">1</text><text fill="#000000" font-family="sans-serif" font-size="13" lengthAdjust="spacing" textLength="8" x="53.9749" y="419.8163">1</text></g><!--MD5=[72567621f02238777b2b8727c68d1e7a]
link ExportFullVaccinatedCSV to VaccinatedSNSUserStore--><g id="link_ExportFullVaccinatedCSV_VaccinatedSNSUserStore"><path codeLine="35" d="M139.725,354.126 C153.435,414.054 174.768,507.303 185.819,555.6107 " fill="none" id="ExportFullVaccinatedCSV-VaccinatedSNSUserStore" style="stroke:#181818;stroke-width:1.0;"/><text fill="#000000" font-family="sans-serif" font-size="13" lengthAdjust="spacing" textLength="8" x="132.8429" y="374.4055">1</text><text fill="#000000" font-family="sans-serif" font-size="13" lengthAdjust="spacing" textLength="8" x="175.6876" y="545.0581">1</text></g><!--MD5=[9af5485fde3efebe702ec434ff746ca7]
@startuml
skinparam classAttributeIconSize 0

class App{
}

class Company{
}

class Date{
-date
}

class ExportFullVaccinatedCSV{
+getVaccinationCenterStore()
+getVaccinationCenter()
+getVaccinatedSNSUserStore()
+getListOfVaccinatedSNSUser()
}

class VaccinationCenterStore{
+getVaccinationCenter()
}

class VaccinatedSNSUserStore{
+getListOfVaccinatedSNSUser()
}

Company "1" - - "1" App
App "1" - - "1" ExportFullVaccinatedCSV
ExportFullVaccinatedCSV "1" - - "1" VaccinationCenterStore
VaccinationCenterStore "1" - - "*" VaccinatedSNSUserStore
Company "1" - - "*" VaccinationCenterStore : has >
App  .>  VaccinationCenterStore
ExportFullVaccinatedCSV "1" - - "1" Date : gets >
ExportFullVaccinatedCSV "1" - - "1" VaccinatedSNSUserStore
@enduml

PlantUML version 1.2022.6beta5(Unknown compile time)
(GPL source distribution)
Java Runtime: Java(TM) SE Runtime Environment
JVM: Java HotSpot(TM) 64-Bit Server VM
Default Encoding: UTF-8
Language: en
Country: US
--></g></svg>