<?xml version="1.0" encoding="UTF-8" standalone="no"?><svg xmlns="http://www.w3.org/2000/svg" xmlns:xlink="http://www.w3.org/1999/xlink" contentStyleType="text/css" height="924px" preserveAspectRatio="none" style="width:1660px;height:924px;background:#FFFFFF;" version="1.1" viewBox="0 0 1660 924" width="1660px" zoomAndPan="magnify"><defs/><g><rect fill="#FFFFFF" height="679.6797" style="stroke:#181818;stroke-width:1.0;" width="10" x="61" y="129.2871"/><rect fill="#FFFFFF" height="471.127" style="stroke:#181818;stroke-width:1.0;" width="10" x="187" y="129.2871"/><rect fill="#FFFFFF" height="30" style="stroke:#181818;stroke-width:1.0;" width="10" x="356" y="158.5977"/><rect fill="#FFFFFF" height="265.5293" style="stroke:#181818;stroke-width:1.0;" width="10" x="430" y="552.4375"/><rect fill="#FFFFFF" height="590.0586" style="stroke:#181818;stroke-width:1.0;" width="10" x="562" y="227.9082"/><rect fill="#FFFFFF" height="30" style="stroke:#181818;stroke-width:1.0;" width="10" x="849" y="275.8848"/><rect fill="#FFFFFF" height="30" style="stroke:#181818;stroke-width:1.0;" width="10" x="849" y="423.8164"/><rect fill="#FFFFFF" height="30" style="stroke:#181818;stroke-width:1.0;" width="10" x="986" y="335.1953"/><rect fill="#FFFFFF" height="30" style="stroke:#181818;stroke-width:1.0;" width="10" x="1359" y="483.127"/><line style="stroke:#181818;stroke-width:0.5;stroke-dasharray:5.0,5.0;" x1="66" x2="66" y1="97.9766" y2="826.9668"/><line style="stroke:#181818;stroke-width:0.5;stroke-dasharray:5.0,5.0;" x1="192" x2="192" y1="97.9766" y2="826.9668"/><line style="stroke:#181818;stroke-width:0.5;stroke-dasharray:5.0,5.0;" x1="360.5" x2="360.5" y1="97.9766" y2="826.9668"/><line style="stroke:#181818;stroke-width:0.5;stroke-dasharray:5.0,5.0;" x1="435" x2="435" y1="560.1152" y2="826.9668"/><line style="stroke:#181818;stroke-width:0.5;stroke-dasharray:5.0,5.0;" x1="567" x2="567" y1="235.5859" y2="826.9668"/><line style="stroke:#181818;stroke-width:0.5;stroke-dasharray:5.0,5.0;" x1="853.5" x2="853.5" y1="97.9766" y2="826.9668"/><line style="stroke:#181818;stroke-width:0.5;stroke-dasharray:5.0,5.0;" x1="990.5" x2="990.5" y1="97.9766" y2="826.9668"/><line style="stroke:#181818;stroke-width:0.5;stroke-dasharray:5.0,5.0;" x1="1175.5" x2="1175.5" y1="97.9766" y2="826.9668"/><line style="stroke:#181818;stroke-width:0.5;stroke-dasharray:5.0,5.0;" x1="1363.5" x2="1363.5" y1="97.9766" y2="826.9668"/><line style="stroke:#181818;stroke-width:0.5;stroke-dasharray:5.0,5.0;" x1="1559.5" x2="1559.5" y1="97.9766" y2="826.9668"/><text fill="#000000" font-family="sans-serif" font-size="14" lengthAdjust="spacing" textLength="112" x="5" y="78.5352">&lt;&lt;automatic&gt;&gt;</text><text fill="#000000" font-family="sans-serif" font-size="14" lengthAdjust="spacing" textLength="85" x="22.5" y="95.0234">Timer/Clock</text><ellipse cx="66" cy="13.5" fill="#E2E2F0" rx="8" ry="8" style="stroke:#181818;stroke-width:0.5;"/><path d="M66,21.5 L66,48.5 M53,29.5 L79,29.5 M66,48.5 L53,63.5 M66,48.5 L79,63.5 " fill="none" style="stroke:#181818;stroke-width:0.5;"/><text fill="#000000" font-family="sans-serif" font-size="14" lengthAdjust="spacing" textLength="112" x="5" y="839.502">&lt;&lt;automatic&gt;&gt;</text><text fill="#000000" font-family="sans-serif" font-size="14" lengthAdjust="spacing" textLength="85" x="22.5" y="855.9902">Timer/Clock</text><ellipse cx="66" cy="867.4434" fill="#E2E2F0" rx="8" ry="8" style="stroke:#181818;stroke-width:0.5;"/><path d="M66,875.4434 L66,902.4434 M53,883.4434 L79,883.4434 M66,902.4434 L53,917.4434 M66,902.4434 L79,917.4434 " fill="none" style="stroke:#181818;stroke-width:0.5;"/><rect fill="#E2E2F0" height="46.9766" rx="2.5" ry="2.5" style="stroke:#181818;stroke-width:0.5;" width="42" x="171" y="50"/><text fill="#000000" font-family="sans-serif" font-size="14" lengthAdjust="spacing" textLength="4" x="190" y="70.5352">:</text><text fill="#000000" font-family="sans-serif" font-size="14" lengthAdjust="spacing" textLength="28" x="178" y="87.0234">App</text><rect fill="#E2E2F0" height="46.9766" rx="2.5" ry="2.5" style="stroke:#181818;stroke-width:0.5;" width="42" x="171" y="825.9668"/><text fill="#000000" font-family="sans-serif" font-size="14" lengthAdjust="spacing" textLength="4" x="190" y="846.502">:</text><text fill="#000000" font-family="sans-serif" font-size="14" lengthAdjust="spacing" textLength="28" x="178" y="862.9902">App</text><rect fill="#E2E2F0" height="46.9766" rx="2.5" ry="2.5" style="stroke:#181818;stroke-width:0.5;" width="49" x="336.5" y="50"/><text fill="#000000" font-family="sans-serif" font-size="14" lengthAdjust="spacing" textLength="4" x="357" y="70.5352">:</text><text fill="#000000" font-family="sans-serif" font-size="14" lengthAdjust="spacing" textLength="31" x="347.5" y="87.0234">Date</text><rect fill="#E2E2F0" height="46.9766" rx="2.5" ry="2.5" style="stroke:#181818;stroke-width:0.5;" width="49" x="336.5" y="825.9668"/><text fill="#000000" font-family="sans-serif" font-size="14" lengthAdjust="spacing" textLength="4" x="357" y="846.502">:</text><text fill="#000000" font-family="sans-serif" font-size="14" lengthAdjust="spacing" textLength="31" x="347.5" y="862.9902">Date</text><rect fill="#E2E2F0" height="46.9766" rx="2.5" ry="2.5" style="stroke:#181818;stroke-width:0.5;" width="58" x="406" y="825.9668"/><text fill="#000000" font-family="sans-serif" font-size="14" lengthAdjust="spacing" textLength="40" x="413" y="846.502">timer:</text><text fill="#000000" font-family="sans-serif" font-size="14" lengthAdjust="spacing" textLength="40" x="415" y="862.9902">Timer</text><rect fill="#E2E2F0" height="46.9766" rx="2.5" ry="2.5" style="stroke:#181818;stroke-width:0.5;" width="186" x="474" y="825.9668"/><text fill="#000000" font-family="sans-serif" font-size="14" lengthAdjust="spacing" textLength="32" x="549" y="846.502">task:</text><text fill="#000000" font-family="sans-serif" font-size="14" lengthAdjust="spacing" textLength="172" x="481" y="862.9902">ExportFullVaccinatedCSV</text><rect fill="#E2E2F0" height="46.9766" rx="2.5" ry="2.5" style="stroke:#181818;stroke-width:0.5;" width="79" x="814.5" y="50"/><text fill="#000000" font-family="sans-serif" font-size="14" lengthAdjust="spacing" textLength="4" x="852" y="70.5352">:</text><text fill="#000000" font-family="sans-serif" font-size="14" lengthAdjust="spacing" textLength="65" x="821.5" y="87.0234">Company</text><rect fill="#E2E2F0" height="46.9766" rx="2.5" ry="2.5" style="stroke:#181818;stroke-width:0.5;" width="79" x="814.5" y="825.9668"/><text fill="#000000" font-family="sans-serif" font-size="14" lengthAdjust="spacing" textLength="4" x="852" y="846.502">:</text><text fill="#000000" font-family="sans-serif" font-size="14" lengthAdjust="spacing" textLength="65" x="821.5" y="862.9902">Company</text><rect fill="#E2E2F0" height="46.9766" rx="2.5" ry="2.5" style="stroke:#181818;stroke-width:0.5;" width="175" x="903.5" y="50"/><text fill="#000000" font-family="sans-serif" font-size="14" lengthAdjust="spacing" textLength="54" x="964" y="70.5352">vcStore:</text><text fill="#000000" font-family="sans-serif" font-size="14" lengthAdjust="spacing" textLength="161" x="910.5" y="87.0234">VaccinationCenterStore</text><rect fill="#E2E2F0" height="46.9766" rx="2.5" ry="2.5" style="stroke:#181818;stroke-width:0.5;" width="175" x="903.5" y="825.9668"/><text fill="#000000" font-family="sans-serif" font-size="14" lengthAdjust="spacing" textLength="54" x="964" y="846.502">vcStore:</text><text fill="#000000" font-family="sans-serif" font-size="14" lengthAdjust="spacing" textLength="161" x="910.5" y="862.9902">VaccinationCenterStore</text><rect fill="#E2E2F0" height="46.9766" rx="2.5" ry="2.5" style="stroke:#181818;stroke-width:0.5;" width="175" x="1088.5" y="50"/><text fill="#000000" font-family="sans-serif" font-size="14" lengthAdjust="spacing" textLength="18" x="1167" y="70.5352">vc:</text><text fill="#000000" font-family="sans-serif" font-size="14" lengthAdjust="spacing" textLength="161" x="1095.5" y="87.0234">VaccinationCenterStore</text><rect fill="#E2E2F0" height="46.9766" rx="2.5" ry="2.5" style="stroke:#181818;stroke-width:0.5;" width="175" x="1088.5" y="825.9668"/><text fill="#000000" font-family="sans-serif" font-size="14" lengthAdjust="spacing" textLength="18" x="1167" y="846.502">vc:</text><text fill="#000000" font-family="sans-serif" font-size="14" lengthAdjust="spacing" textLength="161" x="1095.5" y="862.9902">VaccinationCenterStore</text><rect fill="#E2E2F0" height="46.9766" rx="2.5" ry="2.5" style="stroke:#181818;stroke-width:0.5;" width="181" x="1273.5" y="50"/><text fill="#000000" font-family="sans-serif" font-size="14" lengthAdjust="spacing" textLength="56" x="1336" y="70.5352">vuStore:</text><text fill="#000000" font-family="sans-serif" font-size="14" lengthAdjust="spacing" textLength="167" x="1280.5" y="87.0234">VaccinatedSNSUserStore</text><rect fill="#E2E2F0" height="46.9766" rx="2.5" ry="2.5" style="stroke:#181818;stroke-width:0.5;" width="181" x="1273.5" y="825.9668"/><text fill="#000000" font-family="sans-serif" font-size="14" lengthAdjust="spacing" textLength="56" x="1336" y="846.502">vuStore:</text><text fill="#000000" font-family="sans-serif" font-size="14" lengthAdjust="spacing" textLength="167" x="1280.5" y="862.9902">VaccinatedSNSUserStore</text><rect fill="#E2E2F0" height="46.9766" rx="2.5" ry="2.5" style="stroke:#181818;stroke-width:0.5;" width="190" x="1464.5" y="50"/><text fill="#000000" font-family="sans-serif" font-size="14" lengthAdjust="spacing" textLength="46" x="1536.5" y="70.5352">ListVU:</text><text fill="#000000" font-family="sans-serif" font-size="14" lengthAdjust="spacing" textLength="176" x="1471.5" y="87.0234">List&lt;VaccinatedSNSUser&gt;</text><rect fill="#E2E2F0" height="46.9766" rx="2.5" ry="2.5" style="stroke:#181818;stroke-width:0.5;" width="190" x="1464.5" y="825.9668"/><text fill="#000000" font-family="sans-serif" font-size="14" lengthAdjust="spacing" textLength="46" x="1536.5" y="846.502">ListVU:</text><text fill="#000000" font-family="sans-serif" font-size="14" lengthAdjust="spacing" textLength="176" x="1471.5" y="862.9902">List&lt;VaccinatedSNSUser&gt;</text><rect fill="#FFFFFF" height="679.6797" style="stroke:#181818;stroke-width:1.0;" width="10" x="61" y="129.2871"/><rect fill="#FFFFFF" height="471.127" style="stroke:#181818;stroke-width:1.0;" width="10" x="187" y="129.2871"/><rect fill="#FFFFFF" height="30" style="stroke:#181818;stroke-width:1.0;" width="10" x="356" y="158.5977"/><rect fill="#FFFFFF" height="265.5293" style="stroke:#181818;stroke-width:1.0;" width="10" x="430" y="552.4375"/><rect fill="#FFFFFF" height="590.0586" style="stroke:#181818;stroke-width:1.0;" width="10" x="562" y="227.9082"/><rect fill="#FFFFFF" height="30" style="stroke:#181818;stroke-width:1.0;" width="10" x="849" y="275.8848"/><rect fill="#FFFFFF" height="30" style="stroke:#181818;stroke-width:1.0;" width="10" x="849" y="423.8164"/><rect fill="#FFFFFF" height="30" style="stroke:#181818;stroke-width:1.0;" width="10" x="986" y="335.1953"/><rect fill="#FFFFFF" height="30" style="stroke:#181818;stroke-width:1.0;" width="10" x="1359" y="483.127"/><polygon fill="#181818" points="175,125.2871,185,129.2871,175,133.2871,179,129.2871" style="stroke:#181818;stroke-width:1.0;"/><line style="stroke:#181818;stroke-width:1.0;" x1="71" x2="181" y1="129.2871" y2="129.2871"/><text fill="#000000" font-family="sans-serif" font-size="13" font-weight="bold" lengthAdjust="spacing" textLength="9" x="78" y="124.5449">1</text><text fill="#000000" font-family="sans-serif" font-size="13" lengthAdjust="spacing" textLength="89" x="91" y="124.5449">start schedule</text><polygon fill="#181818" points="344,154.5977,354,158.5977,344,162.5977,348,158.5977" style="stroke:#181818;stroke-width:1.0;"/><line style="stroke:#181818;stroke-width:1.0;" x1="197" x2="350" y1="158.5977" y2="158.5977"/><text fill="#000000" font-family="sans-serif" font-size="13" font-weight="bold" lengthAdjust="spacing" textLength="9" x="204" y="153.8555">2</text><text fill="#000000" font-family="sans-serif" font-size="13" lengthAdjust="spacing" textLength="127" x="217" y="153.8555">date = currentDate()</text><polygon fill="#181818" points="462,213.9082,472,217.9082,462,221.9082,466,217.9082" style="stroke:#181818;stroke-width:1.0;"/><line style="stroke:#181818;stroke-width:1.0;stroke-dasharray:2.0,2.0;" x1="197" x2="468" y1="217.9082" y2="217.9082"/><text fill="#000000" font-family="sans-serif" font-size="13" font-weight="bold" lengthAdjust="spacing" textLength="9" x="204" y="213.166">3</text><text fill="#000000" font-family="sans-serif" font-size="13" lengthAdjust="spacing" textLength="73" x="217" y="213.166">create(date)</text><rect fill="#E2E2F0" height="46.9766" rx="2.5" ry="2.5" style="stroke:#181818;stroke-width:0.5;" width="186" x="474" y="196.5977"/><text fill="#000000" font-family="sans-serif" font-size="14" lengthAdjust="spacing" textLength="32" x="549" y="217.1328">task:</text><text fill="#000000" font-family="sans-serif" font-size="14" lengthAdjust="spacing" textLength="172" x="481" y="233.6211">ExportFullVaccinatedCSV</text><polygon fill="#181818" points="837,271.8848,847,275.8848,837,279.8848,841,275.8848" style="stroke:#181818;stroke-width:1.0;"/><line style="stroke:#181818;stroke-width:1.0;" x1="572" x2="843" y1="275.8848" y2="275.8848"/><text fill="#000000" font-family="sans-serif" font-size="13" font-weight="bold" lengthAdjust="spacing" textLength="9" x="579" y="271.1426">4</text><text fill="#000000" font-family="sans-serif" font-size="13" lengthAdjust="spacing" textLength="238" x="592" y="271.1426">vcStore = getVaccinationCenterStore()</text><polygon fill="#181818" points="974,331.1953,984,335.1953,974,339.1953,978,335.1953" style="stroke:#181818;stroke-width:1.0;"/><line style="stroke:#181818;stroke-width:1.0;" x1="572" x2="980" y1="335.1953" y2="335.1953"/><text fill="#000000" font-family="sans-serif" font-size="13" font-weight="bold" lengthAdjust="spacing" textLength="9" x="579" y="330.4531">5</text><text fill="#000000" font-family="sans-serif" font-size="13" lengthAdjust="spacing" textLength="200" x="592" y="330.4531">vc = getVaccinationCenter(vcId)</text><polygon fill="#181818" points="550,390.5059,560,394.5059,550,398.5059,554,394.5059" style="stroke:#181818;stroke-width:1.0;"/><line style="stroke:#181818;stroke-width:1.0;" x1="197" x2="556" y1="394.5059" y2="394.5059"/><text fill="#000000" font-family="sans-serif" font-size="13" font-weight="bold" lengthAdjust="spacing" textLength="9" x="204" y="389.7637">6</text><text fill="#000000" font-family="sans-serif" font-size="13" lengthAdjust="spacing" textLength="186" x="217" y="389.7637">getListOfVaccinatedSNSUser()</text><polygon fill="#181818" points="837,419.8164,847,423.8164,837,427.8164,841,423.8164" style="stroke:#181818;stroke-width:1.0;"/><line style="stroke:#181818;stroke-width:1.0;" x1="572" x2="843" y1="423.8164" y2="423.8164"/><text fill="#000000" font-family="sans-serif" font-size="13" font-weight="bold" lengthAdjust="spacing" textLength="9" x="579" y="419.0742">7</text><text fill="#000000" font-family="sans-serif" font-size="13" lengthAdjust="spacing" textLength="245" x="592" y="419.0742">auStore = getVaccinatedSNSUserStore()</text><polygon fill="#181818" points="1347,479.127,1357,483.127,1347,487.127,1351,483.127" style="stroke:#181818;stroke-width:1.0;"/><line style="stroke:#181818;stroke-width:1.0;" x1="572" x2="1353" y1="483.127" y2="483.127"/><text fill="#000000" font-family="sans-serif" font-size="13" font-weight="bold" lengthAdjust="spacing" textLength="9" x="579" y="478.3848">8</text><text fill="#000000" font-family="sans-serif" font-size="13" lengthAdjust="spacing" textLength="200" x="592" y="478.3848">getListOfVaccinatedSNSUser(vc)</text><polygon fill="#181818" points="394,538.4375,404,542.4375,394,546.4375,398,542.4375" style="stroke:#181818;stroke-width:1.0;"/><line style="stroke:#181818;stroke-width:1.0;" x1="197" x2="400" y1="542.4375" y2="542.4375"/><text fill="#000000" font-family="sans-serif" font-size="13" font-weight="bold" lengthAdjust="spacing" textLength="9" x="204" y="537.6953">9</text><text fill="#000000" font-family="sans-serif" font-size="13" lengthAdjust="spacing" textLength="46" x="217" y="537.6953">create()</text><rect fill="#E2E2F0" height="46.9766" rx="2.5" ry="2.5" style="stroke:#181818;stroke-width:0.5;" width="58" x="406" y="521.127"/><text fill="#000000" font-family="sans-serif" font-size="14" lengthAdjust="spacing" textLength="40" x="413" y="541.6621">timer:</text><text fill="#000000" font-family="sans-serif" font-size="14" lengthAdjust="spacing" textLength="40" x="415" y="558.1504">Timer</text><polygon fill="#181818" points="418,596.4141,428,600.4141,418,604.4141,422,600.4141" style="stroke:#181818;stroke-width:1.0;"/><line style="stroke:#181818;stroke-width:1.0;" x1="192" x2="424" y1="600.4141" y2="600.4141"/><text fill="#000000" font-family="sans-serif" font-size="13" font-weight="bold" lengthAdjust="spacing" textLength="18" x="199" y="595.6719">10</text><text fill="#000000" font-family="sans-serif" font-size="13" lengthAdjust="spacing" textLength="187" x="221" y="595.6719">schedule(task, delay, interval)</text><polygon fill="#181818" points="550,650.7246,560,654.7246,550,658.7246,554,654.7246" style="stroke:#181818;stroke-width:1.0;"/><line style="stroke:#181818;stroke-width:1.0;" x1="440" x2="556" y1="654.7246" y2="654.7246"/><text fill="#000000" font-family="sans-serif" font-size="13" font-weight="bold" lengthAdjust="spacing" textLength="18" x="447" y="649.9824">11</text><text fill="#000000" font-family="sans-serif" font-size="13" lengthAdjust="spacing" textLength="29" x="469" y="649.9824">run()</text><path d="M278,667.7246 L278,692.7246 L591,692.7246 L591,677.7246 L581,667.7246 L278,667.7246 " fill="#FEFFDD" style="stroke:#181818;stroke-width:0.5;"/><path d="M581,667.7246 L581,677.7246 L591,677.7246 L581,667.7246 " fill="#FEFFDD" style="stroke:#181818;stroke-width:0.5;"/><text fill="#000000" font-family="sans-serif" font-size="13" lengthAdjust="spacing" textLength="292" x="284" y="685.293">After the time specified by "delay" has elapsed</text><polygon fill="#181818" points="550,740.3457,560,744.3457,550,748.3457,554,744.3457" style="stroke:#181818;stroke-width:1.0;"/><line style="stroke:#181818;stroke-width:1.0;" x1="440" x2="556" y1="744.3457" y2="744.3457"/><text fill="#000000" font-family="sans-serif" font-size="13" font-weight="bold" lengthAdjust="spacing" textLength="18" x="447" y="739.6035">12</text><text fill="#000000" font-family="sans-serif" font-size="13" lengthAdjust="spacing" textLength="29" x="469" y="739.6035">run()</text><path d="M271,757.3457 L271,782.3457 L598,782.3457 L598,767.3457 L588,757.3457 L271,757.3457 " fill="#FEFFDD" style="stroke:#181818;stroke-width:0.5;"/><path d="M588,757.3457 L588,767.3457 L598,767.3457 L588,757.3457 " fill="#FEFFDD" style="stroke:#181818;stroke-width:0.5;"/><text fill="#000000" font-family="sans-serif" font-size="13" lengthAdjust="spacing" textLength="306" x="277" y="774.9141">After the time specified by "interval" has elapsed</text><polygon fill="#181818" points="77,804.9668,67,808.9668,77,812.9668,73,808.9668" style="stroke:#181818;stroke-width:1.0;"/><line style="stroke:#181818;stroke-width:1.0;stroke-dasharray:2.0,2.0;" x1="71" x2="561" y1="808.9668" y2="808.9668"/><text fill="#000000" font-family="sans-serif" font-size="13" font-weight="bold" lengthAdjust="spacing" textLength="18" x="83" y="804.2246">13</text><text fill="#000000" font-family="sans-serif" font-size="13" lengthAdjust="spacing" textLength="185" x="105" y="804.2246">print information to a csv file</text><!--MD5=[a903fdfab326ef0dc87a1a174c12ece8]
@startuml
autonumber
actor "<<automatic>> \n Timer/Clock" as A


participant ":\nApp" as P
participant ": \n Date" as D

participant "timer: \nTimer" as T
participant "task: \nExportFullVaccinatedCSV" as E

participant ":\nCompany" as CMP

'Vaccination Center
participant "vcStore:\nVaccinationCenterStore" as VCS
participant "vc:\nVaccinationCenterStore" as VC

'Vaccinated SNS User
participant "vuStore:\nVaccinatedSNSUserStore" as VUS
participant "ListVU:\nList<VaccinatedSNSUser>" as NLNU



A -> P : start schedule
activate A
activate P

P -> D : date = currentDate()
activate D
deactivate D

P - -> E** : create(date)
activate E
E -> CMP : vcStore = getVaccinationCenterStore()
activate CMP
deactivate CMP
E -> VCS : vc = getVaccinationCenter(vcId)
activate VCS
deactivate VCS


P -> E : getListOfVaccinatedSNSUser()
E -> CMP : auStore = getVaccinatedSNSUserStore()
activate CMP
deactivate CMP
E -> VUS : getListOfVaccinatedSNSUser(vc)
activate VUS
deactivate VUS

P -> T** : create()
activate T
P -> T : schedule(task, delay, interval)
deactivate P

|||
T -> E : run()
note over T: After the time specified by "delay" has elapsed

|||
T -> E : run()
note over T: After the time specified by "interval" has elapsed

E - -> A : print information to a csv file
deactivate A

@enduml

@startuml
autonumber
actor "<<automatic>> \n Timer/Clock" as A


participant ":\nApp" as P
participant ": \n Date" as D

participant "timer: \nTimer" as T
participant "task: \nExportFullVaccinatedCSV" as E

participant ":\nCompany" as CMP

participant "vcStore:\nVaccinationCenterStore" as VCS
participant "vc:\nVaccinationCenterStore" as VC

participant "vuStore:\nVaccinatedSNSUserStore" as VUS
participant "ListVU:\nList<VaccinatedSNSUser>" as NLNU



A -> P : start schedule
activate A
activate P

P -> D : date = currentDate()
activate D
deactivate D

P - -> E** : create(date)
activate E
E -> CMP : vcStore = getVaccinationCenterStore()
activate CMP
deactivate CMP
E -> VCS : vc = getVaccinationCenter(vcId)
activate VCS
deactivate VCS


P -> E : getListOfVaccinatedSNSUser()
E -> CMP : auStore = getVaccinatedSNSUserStore()
activate CMP
deactivate CMP
E -> VUS : getListOfVaccinatedSNSUser(vc)
activate VUS
deactivate VUS

P -> T** : create()
activate T
P -> T : schedule(task, delay, interval)
deactivate P

|||
T -> E : run()
note over T: After the time specified by "delay" has elapsed

|||
T -> E : run()
note over T: After the time specified by "interval" has elapsed

E - -> A : print information to a csv file
deactivate A

@enduml

PlantUML version 1.2022.4(Sat Apr 09 14:29:17 WEST 2022)
(GPL source distribution)
Java Runtime: OpenJDK Runtime Environment
JVM: OpenJDK 64-Bit Server VM
Default Encoding: UTF-8
Language: pt
Country: PT
--></g></svg>