<?xml version="1.0" encoding="UTF-8" standalone="no"?><svg xmlns="http://www.w3.org/2000/svg" xmlns:xlink="http://www.w3.org/1999/xlink" contentStyleType="text/css" height="594px" preserveAspectRatio="none" style="width:327px;height:594px;background:#FFFFFF;" version="1.1" viewBox="0 0 327 594" width="327px" zoomAndPan="magnify"><defs/><g><!--MD5=[02e4b9b7573f1156f41e60aa5b4e25a4]
class Company--><g id="elem_Company"><rect codeLine="1" fill="#F1F1F1" height="48" id="Company" rx="2.5" ry="2.5" style="stroke:#181818;stroke-width:0.5;" width="100" x="71.5" y="7"/><ellipse cx="86.5" cy="23" fill="#ADD1B2" rx="11" ry="11" style="stroke:#181818;stroke-width:1.0;"/><path d="M88.8438,18.6719 C87.9063,18.2344 87.3125,18.0938 86.4375,18.0938 C83.8125,18.0938 81.8125,20.1719 81.8125,22.8906 L81.8125,24.0156 C81.8125,26.5938 83.9219,28.4844 86.8125,28.4844 C88.0313,28.4844 89.1875,28.1875 89.9375,27.6406 C90.5156,27.2344 90.8438,26.7813 90.8438,26.3906 C90.8438,25.9375 90.4531,25.5469 89.9844,25.5469 C89.7656,25.5469 89.5625,25.625 89.375,25.8125 C88.9219,26.2969 88.9219,26.2969 88.7344,26.3906 C88.3125,26.6563 87.625,26.7813 86.8594,26.7813 C84.8125,26.7813 83.5156,25.6875 83.5156,23.9844 L83.5156,22.8906 C83.5156,21.1094 84.7656,19.7969 86.5,19.7969 C87.0781,19.7969 87.6875,19.9531 88.1563,20.2031 C88.6406,20.4844 88.8125,20.7031 88.9063,21.1094 C88.9688,21.5156 89,21.6406 89.1406,21.7656 C89.2813,21.9063 89.5156,22.0156 89.7344,22.0156 C90,22.0156 90.2656,21.875 90.4375,21.6563 C90.5469,21.5 90.5781,21.3125 90.5781,20.8906 L90.5781,19.4688 C90.5781,19.0313 90.5625,18.9063 90.4688,18.75 C90.3125,18.4844 90.0313,18.3438 89.7344,18.3438 C89.4375,18.3438 89.2344,18.4375 89.0156,18.75 L88.8438,18.6719 Z " fill="#000000"/><text fill="#000000" font-family="sans-serif" font-size="14" lengthAdjust="spacing" textLength="68" x="100.5" y="27.8467">Company</text><line style="stroke:#181818;stroke-width:0.5;" x1="72.5" x2="170.5" y1="39" y2="39"/><line style="stroke:#181818;stroke-width:0.5;" x1="72.5" x2="170.5" y1="47" y2="47"/></g><!--MD5=[335f4d9be48430461c68bf6d6fdba145]
class App--><g id="elem_App"><rect codeLine="3" fill="#F1F1F1" height="48" id="App" rx="2.5" ry="2.5" style="stroke:#181818;stroke-width:0.5;" width="62" x="90.5" y="132"/><ellipse cx="105.5" cy="148" fill="#ADD1B2" rx="11" ry="11" style="stroke:#181818;stroke-width:1.0;"/><path d="M107.8438,143.6719 C106.9063,143.2344 106.3125,143.0938 105.4375,143.0938 C102.8125,143.0938 100.8125,145.1719 100.8125,147.8906 L100.8125,149.0156 C100.8125,151.5938 102.9219,153.4844 105.8125,153.4844 C107.0313,153.4844 108.1875,153.1875 108.9375,152.6406 C109.5156,152.2344 109.8438,151.7813 109.8438,151.3906 C109.8438,150.9375 109.4531,150.5469 108.9844,150.5469 C108.7656,150.5469 108.5625,150.625 108.375,150.8125 C107.9219,151.2969 107.9219,151.2969 107.7344,151.3906 C107.3125,151.6563 106.625,151.7813 105.8594,151.7813 C103.8125,151.7813 102.5156,150.6875 102.5156,148.9844 L102.5156,147.8906 C102.5156,146.1094 103.7656,144.7969 105.5,144.7969 C106.0781,144.7969 106.6875,144.9531 107.1563,145.2031 C107.6406,145.4844 107.8125,145.7031 107.9063,146.1094 C107.9688,146.5156 108,146.6406 108.1406,146.7656 C108.2813,146.9063 108.5156,147.0156 108.7344,147.0156 C109,147.0156 109.2656,146.875 109.4375,146.6563 C109.5469,146.5 109.5781,146.3125 109.5781,145.8906 L109.5781,144.4688 C109.5781,144.0313 109.5625,143.9063 109.4688,143.75 C109.3125,143.4844 109.0313,143.3438 108.7344,143.3438 C108.4375,143.3438 108.2344,143.4375 108.0156,143.75 L107.8438,143.6719 Z " fill="#000000"/><text fill="#000000" font-family="sans-serif" font-size="14" lengthAdjust="spacing" textLength="30" x="119.5" y="152.8467">App</text><line style="stroke:#181818;stroke-width:0.5;" x1="91.5" x2="151.5" y1="164" y2="164"/><line style="stroke:#181818;stroke-width:0.5;" x1="91.5" x2="151.5" y1="172" y2="172"/></g><!--MD5=[9a28a150af6fc7e01c9185b1f84513bb]
class ExportFullVaccinatedCSV--><g id="elem_ExportFullVaccinatedCSV"><rect codeLine="5" fill="#F1F1F1" height="48" id="ExportFullVaccinatedCSV" rx="2.5" ry="2.5" style="stroke:#181818;stroke-width:0.5;" width="214" x="14.5" y="257"/><ellipse cx="29.5" cy="273" fill="#ADD1B2" rx="11" ry="11" style="stroke:#181818;stroke-width:1.0;"/><path d="M31.8438,268.6719 C30.9063,268.2344 30.3125,268.0938 29.4375,268.0938 C26.8125,268.0938 24.8125,270.1719 24.8125,272.8906 L24.8125,274.0156 C24.8125,276.5938 26.9219,278.4844 29.8125,278.4844 C31.0313,278.4844 32.1875,278.1875 32.9375,277.6406 C33.5156,277.2344 33.8438,276.7813 33.8438,276.3906 C33.8438,275.9375 33.4531,275.5469 32.9844,275.5469 C32.7656,275.5469 32.5625,275.625 32.375,275.8125 C31.9219,276.2969 31.9219,276.2969 31.7344,276.3906 C31.3125,276.6563 30.625,276.7813 29.8594,276.7813 C27.8125,276.7813 26.5156,275.6875 26.5156,273.9844 L26.5156,272.8906 C26.5156,271.1094 27.7656,269.7969 29.5,269.7969 C30.0781,269.7969 30.6875,269.9531 31.1563,270.2031 C31.6406,270.4844 31.8125,270.7031 31.9063,271.1094 C31.9688,271.5156 32,271.6406 32.1406,271.7656 C32.2813,271.9063 32.5156,272.0156 32.7344,272.0156 C33,272.0156 33.2656,271.875 33.4375,271.6563 C33.5469,271.5 33.5781,271.3125 33.5781,270.8906 L33.5781,269.4688 C33.5781,269.0313 33.5625,268.9063 33.4688,268.75 C33.3125,268.4844 33.0313,268.3438 32.7344,268.3438 C32.4375,268.3438 32.2344,268.4375 32.0156,268.75 L31.8438,268.6719 Z " fill="#000000"/><text fill="#000000" font-family="sans-serif" font-size="14" lengthAdjust="spacing" textLength="182" x="43.5" y="277.8467">ExportFullVaccinatedCSV</text><line style="stroke:#181818;stroke-width:0.5;" x1="15.5" x2="227.5" y1="289" y2="289"/><line style="stroke:#181818;stroke-width:0.5;" x1="15.5" x2="227.5" y1="297" y2="297"/></g><!--MD5=[7829b64950ce38e0487c4015ea331f97]
class Date--><g id="elem_Date"><rect codeLine="9" fill="#F1F1F1" height="64.2969" id="Date" rx="2.5" ry="2.5" style="stroke:#181818;stroke-width:0.5;" width="67" x="7" y="382"/><ellipse cx="22" cy="398" fill="#ADD1B2" rx="11" ry="11" style="stroke:#181818;stroke-width:1.0;"/><path d="M24.3438,393.6719 C23.4063,393.2344 22.8125,393.0938 21.9375,393.0938 C19.3125,393.0938 17.3125,395.1719 17.3125,397.8906 L17.3125,399.0156 C17.3125,401.5938 19.4219,403.4844 22.3125,403.4844 C23.5313,403.4844 24.6875,403.1875 25.4375,402.6406 C26.0156,402.2344 26.3438,401.7813 26.3438,401.3906 C26.3438,400.9375 25.9531,400.5469 25.4844,400.5469 C25.2656,400.5469 25.0625,400.625 24.875,400.8125 C24.4219,401.2969 24.4219,401.2969 24.2344,401.3906 C23.8125,401.6563 23.125,401.7813 22.3594,401.7813 C20.3125,401.7813 19.0156,400.6875 19.0156,398.9844 L19.0156,397.8906 C19.0156,396.1094 20.2656,394.7969 22,394.7969 C22.5781,394.7969 23.1875,394.9531 23.6563,395.2031 C24.1406,395.4844 24.3125,395.7031 24.4063,396.1094 C24.4688,396.5156 24.5,396.6406 24.6406,396.7656 C24.7813,396.9063 25.0156,397.0156 25.2344,397.0156 C25.5,397.0156 25.7656,396.875 25.9375,396.6563 C26.0469,396.5 26.0781,396.3125 26.0781,395.8906 L26.0781,394.4688 C26.0781,394.0313 26.0625,393.9063 25.9688,393.75 C25.8125,393.4844 25.5313,393.3438 25.2344,393.3438 C24.9375,393.3438 24.7344,393.4375 24.5156,393.75 L24.3438,393.6719 Z " fill="#000000"/><text fill="#000000" font-family="sans-serif" font-size="14" lengthAdjust="spacing" textLength="35" x="36" y="402.8467">Date</text><line style="stroke:#181818;stroke-width:0.5;" x1="8" x2="73" y1="414" y2="414"/><rect fill="none" height="6" style="stroke:#C82930;stroke-width:1.0;" width="6" x="15" y="422"/><text fill="#000000" font-family="sans-serif" font-size="14" lengthAdjust="spacing" textLength="33" x="27" y="430.9951">date</text><line style="stroke:#181818;stroke-width:0.5;" x1="8" x2="73" y1="438.2969" y2="438.2969"/></g><!--MD5=[a29876ea2f21a6ca48ea477740122fd8]
class VaccinationCenterStore--><g id="elem_VaccinationCenterStore"><rect codeLine="13" fill="#F1F1F1" height="64.2969" id="VaccinationCenterStore" rx="2.5" ry="2.5" style="stroke:#181818;stroke-width:0.5;" width="208" x="109.5" y="382"/><ellipse cx="125.4" cy="398" fill="#ADD1B2" rx="11" ry="11" style="stroke:#181818;stroke-width:1.0;"/><path d="M127.7438,393.6719 C126.8063,393.2344 126.2125,393.0938 125.3375,393.0938 C122.7125,393.0938 120.7125,395.1719 120.7125,397.8906 L120.7125,399.0156 C120.7125,401.5938 122.8219,403.4844 125.7125,403.4844 C126.9313,403.4844 128.0875,403.1875 128.8375,402.6406 C129.4156,402.2344 129.7438,401.7813 129.7438,401.3906 C129.7438,400.9375 129.3531,400.5469 128.8844,400.5469 C128.6656,400.5469 128.4625,400.625 128.275,400.8125 C127.8219,401.2969 127.8219,401.2969 127.6344,401.3906 C127.2125,401.6563 126.525,401.7813 125.7594,401.7813 C123.7125,401.7813 122.4156,400.6875 122.4156,398.9844 L122.4156,397.8906 C122.4156,396.1094 123.6656,394.7969 125.4,394.7969 C125.9781,394.7969 126.5875,394.9531 127.0563,395.2031 C127.5406,395.4844 127.7125,395.7031 127.8063,396.1094 C127.8688,396.5156 127.9,396.6406 128.0406,396.7656 C128.1813,396.9063 128.4156,397.0156 128.6344,397.0156 C128.9,397.0156 129.1656,396.875 129.3375,396.6563 C129.4469,396.5 129.4781,396.3125 129.4781,395.8906 L129.4781,394.4688 C129.4781,394.0313 129.4625,393.9063 129.3688,393.75 C129.2125,393.4844 128.9313,393.3438 128.6344,393.3438 C128.3375,393.3438 128.1344,393.4375 127.9156,393.75 L127.7438,393.6719 Z " fill="#000000"/><text fill="#000000" font-family="sans-serif" font-size="14" lengthAdjust="spacing" textLength="174" x="139.6" y="402.8467">VaccinationCenterStore</text><line style="stroke:#181818;stroke-width:0.5;" x1="110.5" x2="316.5" y1="414" y2="414"/><rect fill="none" height="6" style="stroke:#C82930;stroke-width:1.0;" width="6" x="117.5" y="422"/><text fill="#000000" font-family="sans-serif" font-size="14" lengthAdjust="spacing" textLength="182" x="129.5" y="430.9951">List&lt;VaccinationCenter&gt;</text><line style="stroke:#181818;stroke-width:0.5;" x1="110.5" x2="316.5" y1="438.2969" y2="438.2969"/></g><!--MD5=[9d0e8ea335ce5cd5f6d2d203d045386a]
class VaccinatedSNSUserStore--><g id="elem_VaccinatedSNSUserStore"><rect codeLine="17" fill="#F1F1F1" height="64.2969" id="VaccinatedSNSUserStore" rx="2.5" ry="2.5" style="stroke:#181818;stroke-width:0.5;" width="213" x="107" y="523"/><ellipse cx="122.9" cy="539" fill="#ADD1B2" rx="11" ry="11" style="stroke:#181818;stroke-width:1.0;"/><path d="M125.2438,534.6719 C124.3063,534.2344 123.7125,534.0938 122.8375,534.0938 C120.2125,534.0938 118.2125,536.1719 118.2125,538.8906 L118.2125,540.0156 C118.2125,542.5938 120.3219,544.4844 123.2125,544.4844 C124.4313,544.4844 125.5875,544.1875 126.3375,543.6406 C126.9156,543.2344 127.2438,542.7813 127.2438,542.3906 C127.2438,541.9375 126.8531,541.5469 126.3844,541.5469 C126.1656,541.5469 125.9625,541.625 125.775,541.8125 C125.3219,542.2969 125.3219,542.2969 125.1344,542.3906 C124.7125,542.6563 124.025,542.7813 123.2594,542.7813 C121.2125,542.7813 119.9156,541.6875 119.9156,539.9844 L119.9156,538.8906 C119.9156,537.1094 121.1656,535.7969 122.9,535.7969 C123.4781,535.7969 124.0875,535.9531 124.5563,536.2031 C125.0406,536.4844 125.2125,536.7031 125.3063,537.1094 C125.3688,537.5156 125.4,537.6406 125.5406,537.7656 C125.6813,537.9063 125.9156,538.0156 126.1344,538.0156 C126.4,538.0156 126.6656,537.875 126.8375,537.6563 C126.9469,537.5 126.9781,537.3125 126.9781,536.8906 L126.9781,535.4688 C126.9781,535.0313 126.9625,534.9063 126.8688,534.75 C126.7125,534.4844 126.4313,534.3438 126.1344,534.3438 C125.8375,534.3438 125.6344,534.4375 125.4156,534.75 L125.2438,534.6719 Z " fill="#000000"/><text fill="#000000" font-family="sans-serif" font-size="14" lengthAdjust="spacing" textLength="179" x="137.1" y="543.8467">VaccinatedSNSUserStore</text><line style="stroke:#181818;stroke-width:0.5;" x1="108" x2="319" y1="555" y2="555"/><rect fill="none" height="6" style="stroke:#C82930;stroke-width:1.0;" width="6" x="115" y="563"/><text fill="#000000" font-family="sans-serif" font-size="14" lengthAdjust="spacing" textLength="187" x="127" y="571.9951">List&lt;VaccinatedSNSUser&gt;</text><line style="stroke:#181818;stroke-width:0.5;" x1="108" x2="319" y1="579.2969" y2="579.2969"/></g><!--MD5=[04a3751f217677a84b533ed87bfad901]
link Company to App--><g id="link_Company_App"><path codeLine="22" d="M121.5,55.135 C121.5,77.126 121.5,110.012 121.5,131.968 " fill="none" id="Company-App" style="stroke:#181818;stroke-width:1.0;"/><polygon fill="#000000" points="126.5,98.5664,129.4389,89.5213,123.5611,89.5213,126.5,98.5664" style="stroke:#000000;stroke-width:1.0;"/><text fill="#000000" font-family="sans-serif" font-size="13" lengthAdjust="spacing" textLength="23" x="135.5" y="98.0669">has</text><text fill="#000000" font-family="sans-serif" font-size="13" lengthAdjust="spacing" textLength="8" x="112.525" y="74.9291">1</text><text fill="#000000" font-family="sans-serif" font-size="13" lengthAdjust="spacing" textLength="8" x="112.475" y="120.9718">1</text></g><!--MD5=[abcb61bd6877f2800b449d6bcd7954ea]
link App to ExportFullVaccinatedCSV--><g id="link_App_ExportFullVaccinatedCSV"><path codeLine="23" d="M121.5,180.135 C121.5,202.126 121.5,235.012 121.5,256.968 " fill="none" id="App-ExportFullVaccinatedCSV" style="stroke:#181818;stroke-width:1.0;"/><polygon fill="#000000" points="126.5,223.5664,129.4389,214.5213,123.5611,214.5213,126.5,223.5664" style="stroke:#000000;stroke-width:1.0;"/><text fill="#000000" font-family="sans-serif" font-size="13" lengthAdjust="spacing" textLength="23" x="135.5" y="223.0669">has</text><text fill="#000000" font-family="sans-serif" font-size="13" lengthAdjust="spacing" textLength="8" x="112.525" y="199.9291">1</text><text fill="#000000" font-family="sans-serif" font-size="13" lengthAdjust="spacing" textLength="8" x="112.475" y="245.9718">1</text></g><!--MD5=[3d30f92605904a54e01056874570a5f2]
link ExportFullVaccinatedCSV to VaccinationCenterStore--><g id="link_ExportFullVaccinatedCSV_VaccinationCenterStore"><path codeLine="24" d="M140.622,305.094 C147.984,314.249 156.337,324.968 163.5,335 C174.249,350.054 185.431,367.323 194.487,381.779 " fill="none" id="ExportFullVaccinatedCSV-VaccinationCenterStore" style="stroke:#181818;stroke-width:1.0;"/><polygon fill="#000000" points="183.374,347.6579,180.5799,338.567,175.77,341.9456,183.374,347.6579" style="stroke:#000000;stroke-width:1.0;"/><text fill="#000000" font-family="sans-serif" font-size="13" lengthAdjust="spacing" textLength="85" x="189.5" y="348.0669">gets list from</text><text fill="#000000" font-family="sans-serif" font-size="13" lengthAdjust="spacing" textLength="8" x="136.308" y="324.8781">1</text><text fill="#000000" font-family="sans-serif" font-size="13" lengthAdjust="spacing" textLength="8" x="181.9563" y="371.0097">1</text></g><!--MD5=[66fbe9ba5f5c51bc1ed09b5f5e0a74b6]
link VaccinationCenterStore to VaccinatedSNSUserStore--><g id="link_VaccinationCenterStore_VaccinatedSNSUserStore"><path codeLine="25" d="M213.5,446.194 C213.5,469.087 213.5,500.0421 213.5,522.9098 " fill="none" id="VaccinationCenterStore-VaccinatedSNSUserStore" style="stroke:#181818;stroke-width:1.0;"/><polygon fill="#000000" points="218.5,489.5664,221.4389,480.5213,215.5611,480.5213,218.5,489.5664" style="stroke:#000000;stroke-width:1.0;"/><text fill="#000000" font-family="sans-serif" font-size="13" lengthAdjust="spacing" textLength="85" x="227.5" y="489.0669">gets list from</text><text fill="#000000" font-family="sans-serif" font-size="13" lengthAdjust="spacing" textLength="8" x="204.675" y="466.4309">1</text><text fill="#000000" font-family="sans-serif" font-size="13" lengthAdjust="spacing" textLength="8" x="204.675" y="511.7943">1</text></g><!--MD5=[681709216bea4d2eb6a2ecca08cad7a6]
link ExportFullVaccinatedCSV to Date--><g id="link_ExportFullVaccinatedCSV_Date"><path codeLine="26" d="M77.334,305.087 C66.1535,313.062 55.3781,323.057 48.5,335 C40.4157,349.038 38.1186,366.879 37.9753,381.954 " fill="none" id="ExportFullVaccinatedCSV-Date" style="stroke:#181818;stroke-width:1.0;"/><polygon fill="#000000" points="51.2212,348.0169,57.9595,341.3053,52.7277,338.6264,51.2212,348.0169" style="stroke:#000000;stroke-width:1.0;"/><text fill="#000000" font-family="sans-serif" font-size="13" lengthAdjust="spacing" textLength="96" x="62.5" y="348.0669">gets date from</text><text fill="#000000" font-family="sans-serif" font-size="13" lengthAdjust="spacing" textLength="8" x="57.5935" y="324.8694">1</text><text fill="#000000" font-family="sans-serif" font-size="13" lengthAdjust="spacing" textLength="8" x="28.6296" y="370.8476">1</text></g><!--MD5=[7091c1cace9e5346b2b5ada4c5bbee37]
@startuml
class Company

class App

class ExportFullVaccinatedCSV{

}

class Date{
-date
}

class VaccinationCenterStore{
-List<VaccinationCenter>
}

class VaccinatedSNSUserStore{
-List<VaccinatedSNSUser>
}


Company "1" - - "1" App : has >
App "1" - - "1" ExportFullVaccinatedCSV : has >
ExportFullVaccinatedCSV "1" - - "1" VaccinationCenterStore : gets list from >
VaccinationCenterStore "1" - - "1" VaccinatedSNSUserStore : gets list from >
ExportFullVaccinatedCSV "1" - - "1" Date : gets date from >
@enduml

PlantUML version 1.2022.6beta5(Unknown compile time)
(GPL source distribution)
Java Runtime: Java(TM) SE Runtime Environment
JVM: Java HotSpot(TM) 64-Bit Server VM
Default Encoding: UTF-8
Language: en
Country: US
--></g></svg>