<?xml version="1.0" encoding="UTF-8" standalone="no"?><svg xmlns="http://www.w3.org/2000/svg" xmlns:xlink="http://www.w3.org/1999/xlink" contentStyleType="text/css" height="1850px" preserveAspectRatio="none" style="width:2669px;height:1850px;background:#FFFFFF;" version="1.1" viewBox="0 0 2669 1850" width="2669px" zoomAndPan="magnify"><defs/><g><rect fill="#FFFFFF" height="1658.2656" style="stroke:#181818;stroke-width:1.0;" width="10" x="42" y="92.6094"/><rect fill="#FFFFFF" height="30.3516" style="stroke:#181818;stroke-width:1.0;" width="10" x="397" y="114.9609"/><rect fill="#FFFFFF" height="332.4609" style="stroke:#181818;stroke-width:1.0;" width="10" x="397" y="175.6641"/><rect fill="#FFFFFF" height="30.3516" style="stroke:#181818;stroke-width:1.0;" width="10" x="397" y="538.4766"/><rect fill="#FFFFFF" height="266.7578" style="stroke:#181818;stroke-width:1.0;" width="10" x="397" y="599.1797"/><rect fill="#FFFFFF" height="586.4766" style="stroke:#181818;stroke-width:1.0;" width="10" x="397" y="896.2891"/><rect fill="#FFFFFF" height="237.7578" style="stroke:#181818;stroke-width:1.0;" width="10" x="397" y="1513.1172"/><rect fill="#FFFFFF" height="120.7031" style="stroke:#181818;stroke-width:1.0;" width="10" x="632" y="206.0156"/><rect fill="#FFFFFF" height="120.7031" style="stroke:#181818;stroke-width:1.0;" width="10" x="632" y="357.0703"/><rect fill="#FFFFFF" height="30" style="stroke:#181818;stroke-width:1.0;" width="10" x="632" y="629.5313"/><rect fill="#FFFFFF" height="120.7031" style="stroke:#181818;stroke-width:1.0;" width="10" x="632" y="714.8828"/><rect fill="#FFFFFF" height="525.7734" style="stroke:#181818;stroke-width:1.0;" width="10" x="632" y="926.6406"/><rect fill="#FFFFFF" height="216.4063" style="stroke:#181818;stroke-width:1.0;" width="10" x="632" y="1543.4688"/><rect fill="#FFFFFF" height="30" style="stroke:#181818;stroke-width:1.0;" width="10" x="896" y="236.3672"/><rect fill="#FFFFFF" height="30" style="stroke:#181818;stroke-width:1.0;" width="10" x="896" y="387.4219"/><rect fill="#FFFFFF" height="30" style="stroke:#181818;stroke-width:1.0;" width="10" x="896" y="745.2344"/><rect fill="#FFFFFF" height="30" style="stroke:#181818;stroke-width:1.0;" width="10" x="896" y="956.9922"/><rect fill="#FFFFFF" height="30" style="stroke:#181818;stroke-width:1.0;" width="10" x="997" y="296.7188"/><rect fill="#FFFFFF" height="30" style="stroke:#181818;stroke-width:1.0;" width="10" x="1223" y="447.7734"/><rect fill="#FFFFFF" height="30" style="stroke:#181818;stroke-width:1.0;" width="10" x="1528" y="805.5859"/><rect fill="#FFFFFF" height="362.4609" style="stroke:#181818;stroke-width:1.0;" width="10" x="1795.5" y="1017.3438"/><rect fill="#FFFFFF" height="30" style="stroke:#181818;stroke-width:1.0;" width="10" x="1795.5" y="1422.4141"/><rect fill="#FFFFFF" height="186.0547" style="stroke:#181818;stroke-width:1.0;" width="10" x="1795.5" y="1573.8203"/><rect fill="#FFFFFF" height="28" style="stroke:#181818;stroke-width:1.0;" width="10" x="1800.5" y="1612.1719"/><rect fill="#FFFFFF" height="28" style="stroke:#181818;stroke-width:1.0;" width="10" x="1800.5" y="1685.5234"/><rect fill="#FFFFFF" height="332.1094" style="stroke:#181818;stroke-width:1.0;" width="10" x="2145.5" y="1047.6953"/><rect fill="#FFFFFF" height="30" style="stroke:#181818;stroke-width:1.0;" width="10" x="2442.5" y="1078.0469"/><rect fill="#FFFFFF" height="30" style="stroke:#181818;stroke-width:1.0;" width="10" x="2442.5" y="1138.3984"/><rect fill="#FFFFFF" height="30" style="stroke:#181818;stroke-width:1.0;" width="10" x="2442.5" y="1198.75"/><rect fill="#FFFFFF" height="30" style="stroke:#181818;stroke-width:1.0;" width="10" x="2442.5" y="1259.1016"/><rect fill="#FFFFFF" height="30" style="stroke:#181818;stroke-width:1.0;" width="10" x="2442.5" y="1319.4531"/><line style="stroke:#181818;stroke-width:0.5;stroke-dasharray:5.0,5.0;" x1="47" x2="47" y1="82.6094" y2="1768.875"/><line style="stroke:#181818;stroke-width:0.5;stroke-dasharray:5.0,5.0;" x1="402" x2="402" y1="82.6094" y2="1768.875"/><line style="stroke:#181818;stroke-width:0.5;stroke-dasharray:5.0,5.0;" x1="637" x2="637" y1="82.6094" y2="1768.875"/><line style="stroke:#181818;stroke-width:0.5;stroke-dasharray:5.0,5.0;" x1="901" x2="901" y1="82.6094" y2="1768.875"/><line style="stroke:#181818;stroke-width:0.5;stroke-dasharray:5.0,5.0;" x1="1002" x2="1002" y1="82.6094" y2="1768.875"/><line style="stroke:#181818;stroke-width:0.5;stroke-dasharray:5.0,5.0;" x1="1099" x2="1099" y1="82.6094" y2="1768.875"/><line style="stroke:#181818;stroke-width:0.5;stroke-dasharray:5.0,5.0;" x1="1228" x2="1228" y1="82.6094" y2="1768.875"/><line style="stroke:#181818;stroke-width:0.5;stroke-dasharray:5.0,5.0;" x1="1389" x2="1389" y1="82.6094" y2="1768.875"/><line style="stroke:#181818;stroke-width:0.5;stroke-dasharray:5.0,5.0;" x1="1533" x2="1533" y1="82.6094" y2="1768.875"/><line style="stroke:#181818;stroke-width:0.5;stroke-dasharray:5.0,5.0;" x1="1660" x2="1660" y1="82.6094" y2="1768.875"/><line style="stroke:#181818;stroke-width:0.5;stroke-dasharray:5.0,5.0;" x1="1800" x2="1800" y1="82.6094" y2="1768.875"/><line style="stroke:#181818;stroke-width:0.5;stroke-dasharray:5.0,5.0;" x1="1989" x2="1989" y1="82.6094" y2="1768.875"/><line style="stroke:#181818;stroke-width:0.5;stroke-dasharray:5.0,5.0;" x1="2150" x2="2150" y1="82.6094" y2="1768.875"/><line style="stroke:#181818;stroke-width:0.5;stroke-dasharray:5.0,5.0;" x1="2447" x2="2447" y1="82.6094" y2="1768.875"/><line style="stroke:#181818;stroke-width:0.5;stroke-dasharray:5.0,5.0;" x1="2601.5" x2="2601.5" y1="1388.7578" y2="1768.875"/><text fill="#000000" font-family="sans-serif" font-size="14" lengthAdjust="spacing" textLength="78" x="5" y="79.5332">Receptionist</text><ellipse cx="47" cy="13.5" fill="#E2E2F0" rx="8" ry="8" style="stroke:#181818;stroke-width:0.5;"/><path d="M47,21.5 L47,48.5 M34,29.5 L60,29.5 M47,48.5 L34,63.5 M47,48.5 L60,63.5 " fill="none" style="stroke:#181818;stroke-width:0.5;"/><text fill="#000000" font-family="sans-serif" font-size="14" lengthAdjust="spacing" textLength="78" x="5" y="1782.4082">Receptionist</text><ellipse cx="47" cy="1793.9844" fill="#E2E2F0" rx="8" ry="8" style="stroke:#181818;stroke-width:0.5;"/><path d="M47,1801.9844 L47,1828.9844 M34,1809.9844 L60,1809.9844 M47,1828.9844 L34,1843.9844 M47,1828.9844 L60,1843.9844 " fill="none" style="stroke:#181818;stroke-width:0.5;"/><rect fill="#E2E2F0" height="49.2188" rx="2.5" ry="2.5" style="stroke:#181818;stroke-width:0.5;" width="162" x="321" y="32.3906"/><text fill="#000000" font-family="sans-serif" font-size="14" lengthAdjust="spacing" textLength="4" x="400" y="53.9238">:</text><text fill="#000000" font-family="sans-serif" font-size="14" lengthAdjust="spacing" textLength="144" x="332" y="71.5332">ScheduleVaccinationUI</text><rect fill="#E2E2F0" height="49.2188" rx="2.5" ry="2.5" style="stroke:#181818;stroke-width:0.5;" width="162" x="321" y="1767.875"/><text fill="#000000" font-family="sans-serif" font-size="14" lengthAdjust="spacing" textLength="4" x="400" y="1789.4082">:</text><text fill="#000000" font-family="sans-serif" font-size="14" lengthAdjust="spacing" textLength="144" x="332" y="1807.0176">ScheduleVaccinationUI</text><rect fill="#E2E2F0" height="49.2188" rx="2.5" ry="2.5" style="stroke:#181818;stroke-width:0.5;" width="212" x="531" y="32.3906"/><text fill="#000000" font-family="sans-serif" font-size="14" lengthAdjust="spacing" textLength="4" x="635" y="53.9238">:</text><text fill="#000000" font-family="sans-serif" font-size="14" lengthAdjust="spacing" textLength="194" x="542" y="71.5332">ScheduleVaccinationController</text><rect fill="#E2E2F0" height="49.2188" rx="2.5" ry="2.5" style="stroke:#181818;stroke-width:0.5;" width="212" x="531" y="1767.875"/><text fill="#000000" font-family="sans-serif" font-size="14" lengthAdjust="spacing" textLength="4" x="635" y="1789.4082">:</text><text fill="#000000" font-family="sans-serif" font-size="14" lengthAdjust="spacing" textLength="194" x="542" y="1807.0176">ScheduleVaccinationController</text><rect fill="#E2E2F0" height="49.2188" rx="2.5" ry="2.5" style="stroke:#181818;stroke-width:0.5;" width="78" x="862" y="32.3906"/><text fill="#000000" font-family="sans-serif" font-size="14" lengthAdjust="spacing" textLength="4" x="899" y="53.9238">:</text><text fill="#000000" font-family="sans-serif" font-size="14" lengthAdjust="spacing" textLength="60" x="873" y="71.5332">Company</text><rect fill="#E2E2F0" height="49.2188" rx="2.5" ry="2.5" style="stroke:#181818;stroke-width:0.5;" width="78" x="862" y="1767.875"/><text fill="#000000" font-family="sans-serif" font-size="14" lengthAdjust="spacing" textLength="4" x="899" y="1789.4082">:</text><text fill="#000000" font-family="sans-serif" font-size="14" lengthAdjust="spacing" textLength="60" x="873" y="1807.0176">Company</text><rect fill="#E2E2F0" height="49.2188" rx="2.5" ry="2.5" style="stroke:#181818;stroke-width:0.5;" width="104" x="950" y="32.3906"/><text fill="#000000" font-family="sans-serif" font-size="14" lengthAdjust="spacing" textLength="53" x="975.5" y="53.9238">suStore:</text><text fill="#000000" font-family="sans-serif" font-size="14" lengthAdjust="spacing" textLength="90" x="957" y="71.5332">SNSUserStore</text><rect fill="#E2E2F0" height="49.2188" rx="2.5" ry="2.5" style="stroke:#181818;stroke-width:0.5;" width="104" x="950" y="1767.875"/><text fill="#000000" font-family="sans-serif" font-size="14" lengthAdjust="spacing" textLength="53" x="975.5" y="1789.4082">suStore:</text><text fill="#000000" font-family="sans-serif" font-size="14" lengthAdjust="spacing" textLength="90" x="957" y="1807.0176">SNSUserStore</text><rect fill="#E2E2F0" height="49.2188" rx="2.5" ry="2.5" style="stroke:#181818;stroke-width:0.5;" width="70" x="1064" y="32.3906"/><text fill="#000000" font-family="sans-serif" font-size="14" lengthAdjust="spacing" textLength="19" x="1089.5" y="53.9238">su:</text><text fill="#000000" font-family="sans-serif" font-size="14" lengthAdjust="spacing" textLength="56" x="1071" y="71.5332">SNSUser</text><rect fill="#E2E2F0" height="49.2188" rx="2.5" ry="2.5" style="stroke:#181818;stroke-width:0.5;" width="70" x="1064" y="1767.875"/><text fill="#000000" font-family="sans-serif" font-size="14" lengthAdjust="spacing" textLength="19" x="1089.5" y="1789.4082">su:</text><text fill="#000000" font-family="sans-serif" font-size="14" lengthAdjust="spacing" textLength="56" x="1071" y="1807.0176">SNSUser</text><rect fill="#E2E2F0" height="49.2188" rx="2.5" ry="2.5" style="stroke:#181818;stroke-width:0.5;" width="168" x="1144" y="32.3906"/><text fill="#000000" font-family="sans-serif" font-size="14" lengthAdjust="spacing" textLength="52" x="1200" y="53.9238">vcStore:</text><text fill="#000000" font-family="sans-serif" font-size="14" lengthAdjust="spacing" textLength="150" x="1155" y="71.5332">VaccinationCenterStore</text><rect fill="#E2E2F0" height="49.2188" rx="2.5" ry="2.5" style="stroke:#181818;stroke-width:0.5;" width="168" x="1144" y="1767.875"/><text fill="#000000" font-family="sans-serif" font-size="14" lengthAdjust="spacing" textLength="52" x="1200" y="1789.4082">vcStore:</text><text fill="#000000" font-family="sans-serif" font-size="14" lengthAdjust="spacing" textLength="150" x="1155" y="1807.0176">VaccinationCenterStore</text><rect fill="#E2E2F0" height="49.2188" rx="2.5" ry="2.5" style="stroke:#181818;stroke-width:0.5;" width="134" x="1322" y="32.3906"/><text fill="#000000" font-family="sans-serif" font-size="14" lengthAdjust="spacing" textLength="18" x="1380" y="53.9238">vc:</text><text fill="#000000" font-family="sans-serif" font-size="14" lengthAdjust="spacing" textLength="116" x="1333" y="71.5332">VaccinationCenter</text><rect fill="#E2E2F0" height="49.2188" rx="2.5" ry="2.5" style="stroke:#181818;stroke-width:0.5;" width="134" x="1322" y="1767.875"/><text fill="#000000" font-family="sans-serif" font-size="14" lengthAdjust="spacing" textLength="18" x="1380" y="1789.4082">vc:</text><text fill="#000000" font-family="sans-serif" font-size="14" lengthAdjust="spacing" textLength="116" x="1333" y="1807.0176">VaccinationCenter</text><rect fill="#E2E2F0" height="49.2188" rx="2.5" ry="2.5" style="stroke:#181818;stroke-width:0.5;" width="134" x="1466" y="32.3906"/><text fill="#000000" font-family="sans-serif" font-size="14" lengthAdjust="spacing" textLength="49" x="1508.5" y="53.9238">vtStore:</text><text fill="#000000" font-family="sans-serif" font-size="14" lengthAdjust="spacing" textLength="116" x="1477" y="71.5332">VaccineTypeStore</text><rect fill="#E2E2F0" height="49.2188" rx="2.5" ry="2.5" style="stroke:#181818;stroke-width:0.5;" width="134" x="1466" y="1767.875"/><text fill="#000000" font-family="sans-serif" font-size="14" lengthAdjust="spacing" textLength="49" x="1508.5" y="1789.4082">vtStore:</text><text fill="#000000" font-family="sans-serif" font-size="14" lengthAdjust="spacing" textLength="116" x="1477" y="1807.0176">VaccineTypeStore</text><rect fill="#E2E2F0" height="49.2188" rx="2.5" ry="2.5" style="stroke:#181818;stroke-width:0.5;" width="100" x="1610" y="32.3906"/><text fill="#000000" font-family="sans-serif" font-size="14" lengthAdjust="spacing" textLength="15" x="1650.5" y="53.9238">vt:</text><text fill="#000000" font-family="sans-serif" font-size="14" lengthAdjust="spacing" textLength="82" x="1621" y="71.5332">VaccineType</text><rect fill="#E2E2F0" height="49.2188" rx="2.5" ry="2.5" style="stroke:#181818;stroke-width:0.5;" width="100" x="1610" y="1767.875"/><text fill="#000000" font-family="sans-serif" font-size="14" lengthAdjust="spacing" textLength="15" x="1650.5" y="1789.4082">vt:</text><text fill="#000000" font-family="sans-serif" font-size="14" lengthAdjust="spacing" textLength="82" x="1621" y="1807.0176">VaccineType</text><rect fill="#E2E2F0" height="49.2188" rx="2.5" ry="2.5" style="stroke:#181818;stroke-width:0.5;" width="161" x="1720" y="32.3906"/><text fill="#000000" font-family="sans-serif" font-size="14" lengthAdjust="spacing" textLength="52" x="1774.5" y="53.9238">svStore:</text><text fill="#000000" font-family="sans-serif" font-size="14" lengthAdjust="spacing" textLength="143" x="1731" y="71.5332">ScheduleVaccineStore</text><rect fill="#E2E2F0" height="49.2188" rx="2.5" ry="2.5" style="stroke:#181818;stroke-width:0.5;" width="161" x="1720" y="1767.875"/><text fill="#000000" font-family="sans-serif" font-size="14" lengthAdjust="spacing" textLength="52" x="1774.5" y="1789.4082">svStore:</text><text fill="#000000" font-family="sans-serif" font-size="14" lengthAdjust="spacing" textLength="143" x="1731" y="1807.0176">ScheduleVaccineStore</text><rect fill="#E2E2F0" height="49.2188" rx="2.5" ry="2.5" style="stroke:#181818;stroke-width:0.5;" width="127" x="1926" y="32.3906"/><text fill="#000000" font-family="sans-serif" font-size="14" lengthAdjust="spacing" textLength="18" x="1978.5" y="53.9238">sv:</text><text fill="#000000" font-family="sans-serif" font-size="14" lengthAdjust="spacing" textLength="109" x="1937" y="71.5332">ScheduleVaccine</text><rect fill="#E2E2F0" height="49.2188" rx="2.5" ry="2.5" style="stroke:#181818;stroke-width:0.5;" width="127" x="1926" y="1767.875"/><text fill="#000000" font-family="sans-serif" font-size="14" lengthAdjust="spacing" textLength="18" x="1978.5" y="1789.4082">sv:</text><text fill="#000000" font-family="sans-serif" font-size="14" lengthAdjust="spacing" textLength="109" x="1937" y="1807.0176">ScheduleVaccine</text><rect fill="#E2E2F0" height="49.2188" rx="2.5" ry="2.5" style="stroke:#181818;stroke-width:0.5;" width="175" x="2063" y="32.3906"/><text fill="#000000" font-family="sans-serif" font-size="14" lengthAdjust="spacing" textLength="66" x="2117.5" y="53.9238">svMapper:</text><text fill="#000000" font-family="sans-serif" font-size="14" lengthAdjust="spacing" textLength="157" x="2074" y="71.5332">ScheduleVaccineMapper</text><rect fill="#E2E2F0" height="49.2188" rx="2.5" ry="2.5" style="stroke:#181818;stroke-width:0.5;" width="175" x="2063" y="1767.875"/><text fill="#000000" font-family="sans-serif" font-size="14" lengthAdjust="spacing" textLength="66" x="2117.5" y="1789.4082">svMapper:</text><text fill="#000000" font-family="sans-serif" font-size="14" lengthAdjust="spacing" textLength="157" x="2074" y="1807.0176">ScheduleVaccineMapper</text><rect fill="#E2E2F0" height="49.2188" rx="2.5" ry="2.5" style="stroke:#181818;stroke-width:0.5;" width="157" x="2369" y="32.3906"/><text fill="#000000" font-family="sans-serif" font-size="14" lengthAdjust="spacing" textLength="48" x="2421.5" y="53.9238">svDTO:</text><text fill="#000000" font-family="sans-serif" font-size="14" lengthAdjust="spacing" textLength="139" x="2380" y="71.5332">ScheduleVaccineDTO</text><rect fill="#E2E2F0" height="49.2188" rx="2.5" ry="2.5" style="stroke:#181818;stroke-width:0.5;" width="157" x="2369" y="1767.875"/><text fill="#000000" font-family="sans-serif" font-size="14" lengthAdjust="spacing" textLength="48" x="2421.5" y="1789.4082">svDTO:</text><text fill="#000000" font-family="sans-serif" font-size="14" lengthAdjust="spacing" textLength="139" x="2380" y="1807.0176">ScheduleVaccineDTO</text><rect fill="#E2E2F0" height="31.6094" rx="2.5" ry="2.5" style="stroke:#181818;stroke-width:0.5;" width="123" x="2540.5" y="1767.875"/><text fill="#000000" font-family="sans-serif" font-size="14" lengthAdjust="spacing" textLength="109" x="2547.5" y="1789.4082">VaccineSchedule</text><rect fill="#FFFFFF" height="1658.2656" style="stroke:#181818;stroke-width:1.0;" width="10" x="42" y="92.6094"/><rect fill="#FFFFFF" height="30.3516" style="stroke:#181818;stroke-width:1.0;" width="10" x="397" y="114.9609"/><rect fill="#FFFFFF" height="332.4609" style="stroke:#181818;stroke-width:1.0;" width="10" x="397" y="175.6641"/><rect fill="#FFFFFF" height="30.3516" style="stroke:#181818;stroke-width:1.0;" width="10" x="397" y="538.4766"/><rect fill="#FFFFFF" height="266.7578" style="stroke:#181818;stroke-width:1.0;" width="10" x="397" y="599.1797"/><rect fill="#FFFFFF" height="586.4766" style="stroke:#181818;stroke-width:1.0;" width="10" x="397" y="896.2891"/><rect fill="#FFFFFF" height="237.7578" style="stroke:#181818;stroke-width:1.0;" width="10" x="397" y="1513.1172"/><rect fill="#FFFFFF" height="120.7031" style="stroke:#181818;stroke-width:1.0;" width="10" x="632" y="206.0156"/><rect fill="#FFFFFF" height="120.7031" style="stroke:#181818;stroke-width:1.0;" width="10" x="632" y="357.0703"/><rect fill="#FFFFFF" height="30" style="stroke:#181818;stroke-width:1.0;" width="10" x="632" y="629.5313"/><rect fill="#FFFFFF" height="120.7031" style="stroke:#181818;stroke-width:1.0;" width="10" x="632" y="714.8828"/><rect fill="#FFFFFF" height="525.7734" style="stroke:#181818;stroke-width:1.0;" width="10" x="632" y="926.6406"/><rect fill="#FFFFFF" height="216.4063" style="stroke:#181818;stroke-width:1.0;" width="10" x="632" y="1543.4688"/><rect fill="#FFFFFF" height="30" style="stroke:#181818;stroke-width:1.0;" width="10" x="896" y="236.3672"/><rect fill="#FFFFFF" height="30" style="stroke:#181818;stroke-width:1.0;" width="10" x="896" y="387.4219"/><rect fill="#FFFFFF" height="30" style="stroke:#181818;stroke-width:1.0;" width="10" x="896" y="745.2344"/><rect fill="#FFFFFF" height="30" style="stroke:#181818;stroke-width:1.0;" width="10" x="896" y="956.9922"/><rect fill="#FFFFFF" height="30" style="stroke:#181818;stroke-width:1.0;" width="10" x="997" y="296.7188"/><rect fill="#FFFFFF" height="30" style="stroke:#181818;stroke-width:1.0;" width="10" x="1223" y="447.7734"/><rect fill="#FFFFFF" height="30" style="stroke:#181818;stroke-width:1.0;" width="10" x="1528" y="805.5859"/><rect fill="#FFFFFF" height="362.4609" style="stroke:#181818;stroke-width:1.0;" width="10" x="1795.5" y="1017.3438"/><rect fill="#FFFFFF" height="30" style="stroke:#181818;stroke-width:1.0;" width="10" x="1795.5" y="1422.4141"/><rect fill="#FFFFFF" height="186.0547" style="stroke:#181818;stroke-width:1.0;" width="10" x="1795.5" y="1573.8203"/><rect fill="#FFFFFF" height="28" style="stroke:#181818;stroke-width:1.0;" width="10" x="1800.5" y="1612.1719"/><rect fill="#FFFFFF" height="28" style="stroke:#181818;stroke-width:1.0;" width="10" x="1800.5" y="1685.5234"/><rect fill="#FFFFFF" height="332.1094" style="stroke:#181818;stroke-width:1.0;" width="10" x="2145.5" y="1047.6953"/><rect fill="#FFFFFF" height="30" style="stroke:#181818;stroke-width:1.0;" width="10" x="2442.5" y="1078.0469"/><rect fill="#FFFFFF" height="30" style="stroke:#181818;stroke-width:1.0;" width="10" x="2442.5" y="1138.3984"/><rect fill="#FFFFFF" height="30" style="stroke:#181818;stroke-width:1.0;" width="10" x="2442.5" y="1198.75"/><rect fill="#FFFFFF" height="30" style="stroke:#181818;stroke-width:1.0;" width="10" x="2442.5" y="1259.1016"/><rect fill="#FFFFFF" height="30" style="stroke:#181818;stroke-width:1.0;" width="10" x="2442.5" y="1319.4531"/><polygon fill="#181818" points="385,110.9609,395,114.9609,385,118.9609,389,114.9609" style="stroke:#181818;stroke-width:1.0;"/><line style="stroke:#181818;stroke-width:1.0;" x1="52" x2="391" y1="114.9609" y2="114.9609"/><text fill="#000000" font-family="sans-serif" font-size="13" font-weight="bold" lengthAdjust="spacing" textLength="7" x="59" y="110.1045">1</text><text fill="#000000" font-family="sans-serif" font-size="13" lengthAdjust="spacing" textLength="186" x="70" y="110.1045">starts by scheduling the vaccine</text><polygon fill="#181818" points="63,141.3125,53,145.3125,63,149.3125,59,145.3125" style="stroke:#181818;stroke-width:1.0;"/><line style="stroke:#181818;stroke-width:1.0;stroke-dasharray:2.0,2.0;" x1="57" x2="401" y1="145.3125" y2="145.3125"/><text fill="#000000" font-family="sans-serif" font-size="13" font-weight="bold" lengthAdjust="spacing" textLength="7" x="69" y="140.4561">2</text><text fill="#000000" font-family="sans-serif" font-size="13" lengthAdjust="spacing" textLength="194" x="80" y="140.4561">requests data (SNS user number)</text><polygon fill="#181818" points="385,171.6641,395,175.6641,385,179.6641,389,175.6641" style="stroke:#181818;stroke-width:1.0;"/><line style="stroke:#181818;stroke-width:1.0;" x1="52" x2="391" y1="175.6641" y2="175.6641"/><text fill="#000000" font-family="sans-serif" font-size="13" font-weight="bold" lengthAdjust="spacing" textLength="7" x="59" y="170.8076">3</text><text fill="#000000" font-family="sans-serif" font-size="13" lengthAdjust="spacing" textLength="122" x="70" y="170.8076">types requested data</text><polygon fill="#181818" points="620,202.0156,630,206.0156,620,210.0156,624,206.0156" style="stroke:#181818;stroke-width:1.0;"/><line style="stroke:#181818;stroke-width:1.0;" x1="407" x2="626" y1="206.0156" y2="206.0156"/><text fill="#000000" font-family="sans-serif" font-size="13" font-weight="bold" lengthAdjust="spacing" textLength="7" x="414" y="201.1592">4</text><text fill="#000000" font-family="sans-serif" font-size="13" lengthAdjust="spacing" textLength="195" x="425" y="201.1592">createSNSUser (snsUserNumber)</text><polygon fill="#181818" points="884,232.3672,894,236.3672,884,240.3672,888,236.3672" style="stroke:#181818;stroke-width:1.0;"/><line style="stroke:#181818;stroke-width:1.0;" x1="642" x2="890" y1="236.3672" y2="236.3672"/><text fill="#000000" font-family="sans-serif" font-size="13" font-weight="bold" lengthAdjust="spacing" textLength="7" x="649" y="231.5107">5</text><text fill="#000000" font-family="sans-serif" font-size="13" lengthAdjust="spacing" textLength="172" x="660" y="231.5107">suStore = getSNSUserStore()</text><polygon fill="#181818" points="985,292.7188,995,296.7188,985,300.7188,989,296.7188" style="stroke:#181818;stroke-width:1.0;"/><line style="stroke:#181818;stroke-width:1.0;" x1="642" x2="991" y1="296.7188" y2="296.7188"/><text fill="#000000" font-family="sans-serif" font-size="13" font-weight="bold" lengthAdjust="spacing" textLength="7" x="649" y="291.8623">6</text><text fill="#000000" font-family="sans-serif" font-size="13" lengthAdjust="spacing" textLength="203" x="660" y="291.8623">su = getSNSUser(snsUserNumber)</text><polygon fill="#181818" points="620,353.0703,630,357.0703,620,361.0703,624,357.0703" style="stroke:#181818;stroke-width:1.0;"/><line style="stroke:#181818;stroke-width:1.0;" x1="407" x2="626" y1="357.0703" y2="357.0703"/><text fill="#000000" font-family="sans-serif" font-size="13" font-weight="bold" lengthAdjust="spacing" textLength="7" x="414" y="352.2139">7</text><text fill="#000000" font-family="sans-serif" font-size="13" lengthAdjust="spacing" textLength="176" x="425" y="352.2139">vcI=getVaccinationCenterList()</text><polygon fill="#181818" points="884,383.4219,894,387.4219,884,391.4219,888,387.4219" style="stroke:#181818;stroke-width:1.0;"/><line style="stroke:#181818;stroke-width:1.0;" x1="642" x2="890" y1="387.4219" y2="387.4219"/><text fill="#000000" font-family="sans-serif" font-size="13" font-weight="bold" lengthAdjust="spacing" textLength="7" x="649" y="382.5654">8</text><text fill="#000000" font-family="sans-serif" font-size="13" lengthAdjust="spacing" textLength="222" x="660" y="382.5654">vcStore = getVaccinationCenterStore()</text><polygon fill="#181818" points="1211,443.7734,1221,447.7734,1211,451.7734,1215,447.7734" style="stroke:#181818;stroke-width:1.0;"/><line style="stroke:#181818;stroke-width:1.0;" x1="642" x2="1217" y1="447.7734" y2="447.7734"/><text fill="#000000" font-family="sans-serif" font-size="13" font-weight="bold" lengthAdjust="spacing" textLength="7" x="649" y="442.917">9</text><text fill="#000000" font-family="sans-serif" font-size="13" lengthAdjust="spacing" textLength="153" x="660" y="442.917">getVaccinationCenterList()</text><polygon fill="#181818" points="63,504.125,53,508.125,63,512.125,59,508.125" style="stroke:#181818;stroke-width:1.0;"/><line style="stroke:#181818;stroke-width:1.0;stroke-dasharray:2.0,2.0;" x1="57" x2="401" y1="508.125" y2="508.125"/><text fill="#000000" font-family="sans-serif" font-size="13" font-weight="bold" lengthAdjust="spacing" textLength="14" x="69" y="503.2686">10</text><text fill="#000000" font-family="sans-serif" font-size="13" lengthAdjust="spacing" textLength="303" x="87" y="503.2686">shows the vaccine centers list and ask to select one</text><polygon fill="#181818" points="385,534.4766,395,538.4766,385,542.4766,389,538.4766" style="stroke:#181818;stroke-width:1.0;"/><line style="stroke:#181818;stroke-width:1.0;" x1="52" x2="391" y1="538.4766" y2="538.4766"/><text fill="#000000" font-family="sans-serif" font-size="13" font-weight="bold" lengthAdjust="spacing" textLength="14" x="59" y="533.6201">11</text><text fill="#000000" font-family="sans-serif" font-size="13" lengthAdjust="spacing" textLength="67" x="77" y="533.6201">selects one</text><polygon fill="#181818" points="63,564.8281,53,568.8281,63,572.8281,59,568.8281" style="stroke:#181818;stroke-width:1.0;"/><line style="stroke:#181818;stroke-width:1.0;stroke-dasharray:2.0,2.0;" x1="57" x2="401" y1="568.8281" y2="568.8281"/><text fill="#000000" font-family="sans-serif" font-size="13" font-weight="bold" lengthAdjust="spacing" textLength="14" x="69" y="563.9717">12</text><text fill="#000000" font-family="sans-serif" font-size="13" lengthAdjust="spacing" textLength="170" x="87" y="563.9717">requests data (date and time)</text><polygon fill="#181818" points="385,595.1797,395,599.1797,385,603.1797,389,599.1797" style="stroke:#181818;stroke-width:1.0;"/><line style="stroke:#181818;stroke-width:1.0;" x1="52" x2="391" y1="599.1797" y2="599.1797"/><text fill="#000000" font-family="sans-serif" font-size="13" font-weight="bold" lengthAdjust="spacing" textLength="14" x="59" y="594.3232">13</text><text fill="#000000" font-family="sans-serif" font-size="13" lengthAdjust="spacing" textLength="122" x="77" y="594.3232">types requested data</text><polygon fill="#181818" points="620,625.5313,630,629.5313,620,633.5313,624,629.5313" style="stroke:#181818;stroke-width:1.0;"/><line style="stroke:#181818;stroke-width:1.0;" x1="407" x2="626" y1="629.5313" y2="629.5313"/><text fill="#000000" font-family="sans-serif" font-size="13" font-weight="bold" lengthAdjust="spacing" textLength="14" x="414" y="624.6748">14</text><text fill="#000000" font-family="sans-serif" font-size="13" lengthAdjust="spacing" textLength="183" x="432" y="624.6748">verifySlotAvailability(date , time)</text><polygon fill="#181818" points="620,710.8828,630,714.8828,620,718.8828,624,714.8828" style="stroke:#181818;stroke-width:1.0;"/><line style="stroke:#181818;stroke-width:1.0;" x1="407" x2="626" y1="714.8828" y2="714.8828"/><text fill="#000000" font-family="sans-serif" font-size="13" font-weight="bold" lengthAdjust="spacing" textLength="14" x="414" y="710.0264">15</text><text fill="#000000" font-family="sans-serif" font-size="13" lengthAdjust="spacing" textLength="150" x="432" y="710.0264">vtI = getVaccineTypeList()</text><polygon fill="#181818" points="884,741.2344,894,745.2344,884,749.2344,888,745.2344" style="stroke:#181818;stroke-width:1.0;"/><line style="stroke:#181818;stroke-width:1.0;" x1="642" x2="890" y1="745.2344" y2="745.2344"/><text fill="#000000" font-family="sans-serif" font-size="13" font-weight="bold" lengthAdjust="spacing" textLength="14" x="649" y="740.3779">16</text><text fill="#000000" font-family="sans-serif" font-size="13" lengthAdjust="spacing" textLength="188" x="667" y="740.3779">vtStore = getVaccineTypeStore()</text><polygon fill="#181818" points="1516,801.5859,1526,805.5859,1516,809.5859,1520,805.5859" style="stroke:#181818;stroke-width:1.0;"/><line style="stroke:#181818;stroke-width:1.0;" x1="642" x2="1522" y1="805.5859" y2="805.5859"/><text fill="#000000" font-family="sans-serif" font-size="13" font-weight="bold" lengthAdjust="spacing" textLength="14" x="649" y="800.7295">17</text><text fill="#000000" font-family="sans-serif" font-size="13" lengthAdjust="spacing" textLength="122" x="667" y="800.7295">getVaccineTypeList()</text><polygon fill="#181818" points="63,861.9375,53,865.9375,63,869.9375,59,865.9375" style="stroke:#181818;stroke-width:1.0;"/><line style="stroke:#181818;stroke-width:1.0;stroke-dasharray:2.0,2.0;" x1="57" x2="401" y1="865.9375" y2="865.9375"/><text fill="#000000" font-family="sans-serif" font-size="13" font-weight="bold" lengthAdjust="spacing" textLength="14" x="69" y="861.0811">18</text><text fill="#000000" font-family="sans-serif" font-size="13" lengthAdjust="spacing" textLength="285" x="87" y="861.0811">shows the vaccine type list and ask to select one</text><polygon fill="#181818" points="385,892.2891,395,896.2891,385,900.2891,389,896.2891" style="stroke:#181818;stroke-width:1.0;"/><line style="stroke:#181818;stroke-width:1.0;" x1="52" x2="391" y1="896.2891" y2="896.2891"/><text fill="#000000" font-family="sans-serif" font-size="13" font-weight="bold" lengthAdjust="spacing" textLength="14" x="59" y="891.4326">19</text><text fill="#000000" font-family="sans-serif" font-size="13" lengthAdjust="spacing" textLength="67" x="77" y="891.4326">selects one</text><polygon fill="#181818" points="620,922.6406,630,926.6406,620,930.6406,624,926.6406" style="stroke:#181818;stroke-width:1.0;"/><line style="stroke:#181818;stroke-width:1.0;" x1="407" x2="626" y1="926.6406" y2="926.6406"/><text fill="#000000" font-family="sans-serif" font-size="13" font-weight="bold" lengthAdjust="spacing" textLength="14" x="414" y="921.7842">20</text><text fill="#000000" font-family="sans-serif" font-size="13" lengthAdjust="spacing" textLength="177" x="432" y="921.7842">createScheduleVaccine(svDto)</text><polygon fill="#181818" points="884,952.9922,894,956.9922,884,960.9922,888,956.9922" style="stroke:#181818;stroke-width:1.0;"/><line style="stroke:#181818;stroke-width:1.0;" x1="642" x2="890" y1="956.9922" y2="956.9922"/><text fill="#000000" font-family="sans-serif" font-size="13" font-weight="bold" lengthAdjust="spacing" textLength="14" x="649" y="952.1357">21</text><text fill="#000000" font-family="sans-serif" font-size="13" lengthAdjust="spacing" textLength="217" x="667" y="952.1357">svStore = getScheduleVaccineStore()</text><polygon fill="#181818" points="1783.5,1013.3438,1793.5,1017.3438,1783.5,1021.3438,1787.5,1017.3438" style="stroke:#181818;stroke-width:1.0;"/><line style="stroke:#181818;stroke-width:1.0;" x1="642" x2="1789.5" y1="1017.3438" y2="1017.3438"/><text fill="#000000" font-family="sans-serif" font-size="13" font-weight="bold" lengthAdjust="spacing" textLength="14" x="649" y="1012.4873">22</text><text fill="#000000" font-family="sans-serif" font-size="13" lengthAdjust="spacing" textLength="205" x="667" y="1012.4873">sv = createScheduleVaccine(svDto)</text><polygon fill="#181818" points="2133.5,1043.6953,2143.5,1047.6953,2133.5,1051.6953,2137.5,1047.6953" style="stroke:#181818;stroke-width:1.0;"/><line style="stroke:#181818;stroke-width:1.0;" x1="1805.5" x2="2139.5" y1="1047.6953" y2="1047.6953"/><text fill="#000000" font-family="sans-serif" font-size="13" font-weight="bold" lengthAdjust="spacing" textLength="14" x="1812.5" y="1042.8389">23</text><text fill="#000000" font-family="sans-serif" font-size="13" lengthAdjust="spacing" textLength="106" x="1830.5" y="1042.8389">sv=toModel(svDto)</text><polygon fill="#181818" points="2430.5,1074.0469,2440.5,1078.0469,2430.5,1082.0469,2434.5,1078.0469" style="stroke:#181818;stroke-width:1.0;"/><line style="stroke:#181818;stroke-width:1.0;" x1="2155.5" x2="2436.5" y1="1078.0469" y2="1078.0469"/><text fill="#000000" font-family="sans-serif" font-size="13" font-weight="bold" lengthAdjust="spacing" textLength="14" x="2162.5" y="1073.1904">24</text><text fill="#000000" font-family="sans-serif" font-size="13" lengthAdjust="spacing" textLength="144" x="2180.5" y="1073.1904">snsUser = getSNSUser()</text><polygon fill="#181818" points="2430.5,1134.3984,2440.5,1138.3984,2430.5,1142.3984,2434.5,1138.3984" style="stroke:#181818;stroke-width:1.0;"/><line style="stroke:#181818;stroke-width:1.0;" x1="2155.5" x2="2436.5" y1="1138.3984" y2="1138.3984"/><text fill="#000000" font-family="sans-serif" font-size="13" font-weight="bold" lengthAdjust="spacing" textLength="14" x="2162.5" y="1133.542">25</text><text fill="#000000" font-family="sans-serif" font-size="13" lengthAdjust="spacing" textLength="94" x="2180.5" y="1133.542">date = getDate()</text><polygon fill="#181818" points="2430.5,1194.75,2440.5,1198.75,2430.5,1202.75,2434.5,1198.75" style="stroke:#181818;stroke-width:1.0;"/><line style="stroke:#181818;stroke-width:1.0;" x1="2155.5" x2="2436.5" y1="1198.75" y2="1198.75"/><text fill="#000000" font-family="sans-serif" font-size="13" font-weight="bold" lengthAdjust="spacing" textLength="14" x="2162.5" y="1193.8936">26</text><text fill="#000000" font-family="sans-serif" font-size="13" lengthAdjust="spacing" textLength="95" x="2180.5" y="1193.8936">time = getTime()</text><polygon fill="#181818" points="2430.5,1255.1016,2440.5,1259.1016,2430.5,1263.1016,2434.5,1259.1016" style="stroke:#181818;stroke-width:1.0;"/><line style="stroke:#181818;stroke-width:1.0;" x1="2155.5" x2="2436.5" y1="1259.1016" y2="1259.1016"/><text fill="#000000" font-family="sans-serif" font-size="13" font-weight="bold" lengthAdjust="spacing" textLength="14" x="2162.5" y="1254.2451">27</text><text fill="#000000" font-family="sans-serif" font-size="13" lengthAdjust="spacing" textLength="250" x="2180.5" y="1254.2451">vaccinationCenter = getVaccinationCenter()</text><polygon fill="#181818" points="2430.5,1315.4531,2440.5,1319.4531,2430.5,1323.4531,2434.5,1319.4531" style="stroke:#181818;stroke-width:1.0;"/><line style="stroke:#181818;stroke-width:1.0;" x1="2155.5" x2="2436.5" y1="1319.4531" y2="1319.4531"/><text fill="#000000" font-family="sans-serif" font-size="13" font-weight="bold" lengthAdjust="spacing" textLength="14" x="2162.5" y="1314.5967">28</text><text fill="#000000" font-family="sans-serif" font-size="13" lengthAdjust="spacing" textLength="188" x="2180.5" y="1314.5967">vaccineType = getVaccineType()</text><polygon fill="#181818" points="2528.5,1375.8047,2538.5,1379.8047,2528.5,1383.8047,2532.5,1379.8047" style="stroke:#181818;stroke-width:1.0;"/><line style="stroke:#181818;stroke-width:1.0;stroke-dasharray:2.0,2.0;" x1="2150.5" x2="2534.5" y1="1379.8047" y2="1379.8047"/><text fill="#000000" font-family="sans-serif" font-size="13" font-weight="bold" lengthAdjust="spacing" textLength="14" x="2157.5" y="1374.9482">29</text><text fill="#000000" font-family="sans-serif" font-size="13" lengthAdjust="spacing" textLength="343" x="2175.5" y="1374.9482">create(snsUser, vaccinationCenter,date, time, vaccineType)</text><rect fill="#E2E2F0" height="31.6094" rx="2.5" ry="2.5" style="stroke:#181818;stroke-width:0.5;" width="123" x="2540.5" y="1357.4531"/><text fill="#000000" font-family="sans-serif" font-size="14" lengthAdjust="spacing" textLength="109" x="2547.5" y="1378.9863">VaccineSchedule</text><polygon fill="#181818" points="1783.5,1418.4141,1793.5,1422.4141,1783.5,1426.4141,1787.5,1422.4141" style="stroke:#181818;stroke-width:1.0;"/><line style="stroke:#181818;stroke-width:1.0;" x1="642" x2="1789.5" y1="1422.4141" y2="1422.4141"/><text fill="#000000" font-family="sans-serif" font-size="13" font-weight="bold" lengthAdjust="spacing" textLength="14" x="649" y="1417.5576">30</text><text fill="#000000" font-family="sans-serif" font-size="13" lengthAdjust="spacing" textLength="164" x="667" y="1417.5576">validateScheduleVaccine(sv)</text><polygon fill="#181818" points="63,1478.7656,53,1482.7656,63,1486.7656,59,1482.7656" style="stroke:#181818;stroke-width:1.0;"/><line style="stroke:#181818;stroke-width:1.0;stroke-dasharray:2.0,2.0;" x1="57" x2="401" y1="1482.7656" y2="1482.7656"/><text fill="#000000" font-family="sans-serif" font-size="13" font-weight="bold" lengthAdjust="spacing" textLength="14" x="69" y="1477.9092">31</text><text fill="#000000" font-family="sans-serif" font-size="13" lengthAdjust="spacing" textLength="269" x="87" y="1477.9092">shows all the data and requests a confirmation</text><polygon fill="#181818" points="385,1509.1172,395,1513.1172,385,1517.1172,389,1513.1172" style="stroke:#181818;stroke-width:1.0;"/><line style="stroke:#181818;stroke-width:1.0;" x1="52" x2="391" y1="1513.1172" y2="1513.1172"/><text fill="#000000" font-family="sans-serif" font-size="13" font-weight="bold" lengthAdjust="spacing" textLength="14" x="59" y="1508.2607">32</text><text fill="#000000" font-family="sans-serif" font-size="13" lengthAdjust="spacing" textLength="100" x="77" y="1508.2607">confirms the data</text><polygon fill="#181818" points="620,1539.4688,630,1543.4688,620,1547.4688,624,1543.4688" style="stroke:#181818;stroke-width:1.0;"/><line style="stroke:#181818;stroke-width:1.0;" x1="407" x2="626" y1="1543.4688" y2="1543.4688"/><text fill="#000000" font-family="sans-serif" font-size="13" font-weight="bold" lengthAdjust="spacing" textLength="14" x="414" y="1538.6123">33</text><text fill="#000000" font-family="sans-serif" font-size="13" lengthAdjust="spacing" textLength="135" x="432" y="1538.6123">saveScheduleVaccine()</text><polygon fill="#181818" points="1783.5,1569.8203,1793.5,1573.8203,1783.5,1577.8203,1787.5,1573.8203" style="stroke:#181818;stroke-width:1.0;"/><line style="stroke:#181818;stroke-width:1.0;" x1="642" x2="1789.5" y1="1573.8203" y2="1573.8203"/><text fill="#000000" font-family="sans-serif" font-size="13" font-weight="bold" lengthAdjust="spacing" textLength="14" x="649" y="1568.9639">34</text><text fill="#000000" font-family="sans-serif" font-size="13" lengthAdjust="spacing" textLength="147" x="667" y="1568.9639">saveScheduleVaccine(vs)</text><line style="stroke:#181818;stroke-width:1.0;" x1="1810.5" x2="1852.5" y1="1604.1719" y2="1604.1719"/><line style="stroke:#181818;stroke-width:1.0;" x1="1852.5" x2="1852.5" y1="1604.1719" y2="1617.1719"/><line style="stroke:#181818;stroke-width:1.0;" x1="1811.5" x2="1852.5" y1="1617.1719" y2="1617.1719"/><polygon fill="#181818" points="1821.5,1613.1719,1811.5,1617.1719,1821.5,1621.1719,1817.5,1617.1719" style="stroke:#181818;stroke-width:1.0;"/><text fill="#000000" font-family="sans-serif" font-size="13" font-weight="bold" lengthAdjust="spacing" textLength="14" x="1817.5" y="1599.3154">35</text><text fill="#000000" font-family="sans-serif" font-size="13" lengthAdjust="spacing" textLength="147" x="1835.5" y="1599.3154">saveScheduleVaccine(vs)</text><line style="stroke:#181818;stroke-width:1.0;" x1="1810.5" x2="1852.5" y1="1677.5234" y2="1677.5234"/><line style="stroke:#181818;stroke-width:1.0;" x1="1852.5" x2="1852.5" y1="1677.5234" y2="1690.5234"/><line style="stroke:#181818;stroke-width:1.0;" x1="1811.5" x2="1852.5" y1="1690.5234" y2="1690.5234"/><polygon fill="#181818" points="1821.5,1686.5234,1811.5,1690.5234,1821.5,1694.5234,1817.5,1690.5234" style="stroke:#181818;stroke-width:1.0;"/><text fill="#000000" font-family="sans-serif" font-size="13" font-weight="bold" lengthAdjust="spacing" textLength="14" x="1817.5" y="1672.667">36</text><text fill="#000000" font-family="sans-serif" font-size="13" lengthAdjust="spacing" textLength="142" x="1835.5" y="1672.667">addScheduleVaccine(vs)</text><polygon fill="#181818" points="58,1746.875,48,1750.875,58,1754.875,54,1750.875" style="stroke:#181818;stroke-width:1.0;"/><line style="stroke:#181818;stroke-width:1.0;stroke-dasharray:2.0,2.0;" x1="52" x2="401" y1="1750.875" y2="1750.875"/><text fill="#000000" font-family="sans-serif" font-size="13" font-weight="bold" lengthAdjust="spacing" textLength="14" x="64" y="1746.0186">37</text><text fill="#000000" font-family="sans-serif" font-size="13" lengthAdjust="spacing" textLength="152" x="82" y="1746.0186">informs operation success</text><!--MD5=[f0a93678d587c45880b2c8d0ea43ea17]
@startuml
autonumber
actor "Receptionist" as RCPT

participant ":\n ScheduleVaccinationUI" as UI
participant ":\n ScheduleVaccinationController" as CTRL
participant ":\n Company" as CMPN
participant "suStore:\nSNSUserStore" as SUS
participant "su:\nSNSUser" as SU
participant "vcStore: \n VaccinationCenterStore" as VCS
participant "vc:\n VaccinationCenter" as VC
participant "vtStore:\n VaccineTypeStore" as VTS
participant "vt: \n VaccineType" as VT
participant "svStore:\n ScheduleVaccineStore" as SVS
participant "sv: \n ScheduleVaccine" as SV
participant "svMapper:\n ScheduleVaccineMapper" as SVMP
participant "svDTO: \n ScheduleVaccineDTO" as SVDTO

activate RCPT

RCPT -> UI : starts by scheduling the vaccine
activate UI

UI - -> RCPT : requests data (SNS user number)
deactivate UI

RCPT -> UI : types requested data
activate UI

UI -> CTRL : createSNSUser (snsUserNumber)
activate CTRL

CTRL -> CMPN : suStore = getSNSUserStore()
activate CMPN
deactivate CMPN

CTRL -> SUS : su = getSNSUser(snsUserNumber)
activate SUS
deactivate CMPN
deactivate SUS
deactivate CTRL

UI -> CTRL : vcI=getVaccinationCenterList()
activate CTRL

CTRL -> CMPN : vcStore = getVaccinationCenterStore()
activate CMPN
deactivate CMPN

CTRL -> VCS :  getVaccinationCenterList()
activate VCS
deactivate VCS
deactivate CTRL

UI - -> RCPT : shows the vaccine centers list and ask to select one
deactivate UI

RCPT -> UI : selects one
activate UI

UI - -> RCPT : requests data (date and time)
deactivate UI

RCPT -> UI : types requested data
activate UI

UI -> CTRL : verifySlotAvailability(date , time)
activate CTRL
deactivate CTRL
|||

UI -> CTRL : vtI = getVaccineTypeList()
activate CTRL

CTRL -> CMPN : vtStore = getVaccineTypeStore()
activate CMPN
deactivate CMPN
CTRL -> VTS :   getVaccineTypeList()
activate VTS
deactivate VTS
deactivate CTRL

UI - -> RCPT : shows the vaccine type list and ask to select one
deactivate UI
RCPT -> UI : selects one
activate UI

UI -> CTRL : createScheduleVaccine(svDto)
activate CTRL

CTRL -> CMPN : svStore = getScheduleVaccineStore()
activate CMPN
deactivate CMPN
CTRL -> SVS : sv = createScheduleVaccine(svDto)

activate SVS
SVS -> SVMP : sv=toModel(svDto)
activate SVMP
SVMP -> SVDTO : snsUser = getSNSUser()
activate SVDTO
deactivate SVDTO

SVMP -> SVDTO : date = getDate()
activate SVDTO
deactivate SVDTO

SVMP -> SVDTO : time = getTime()
activate SVDTO
deactivate SVDTO

SVMP -> SVDTO : vaccinationCenter = getVaccinationCenter()
activate SVDTO
deactivate SVDTO

SVMP -> SVDTO : vaccineType = getVaccineType()
activate SVDTO
deactivate SVDTO

create VaccineSchedule
SVMP - -> VaccineSchedule : create(snsUser, vaccinationCenter,date, time, vaccineType)
'note over VaccineSchedule, VCDTO : several interactions to extract data from DTO
deactivate SVMP
deactivate SVS

CTRL -> SVS : validateScheduleVaccine(sv)
activate SVS
deactivate SVS
deactivate CTRL

UI - -> RCPT : shows all the data and requests a confirmation
deactivate UI

RCPT -> UI : confirms the data
activate UI

UI -> CTRL : saveScheduleVaccine()
activate CTRL

CTRL -> SVS : saveScheduleVaccine(vs)
activate SVS

SVS -> SVS : saveScheduleVaccine(vs)
activate SVS
deactivate SVS

SVS -> SVS : addScheduleVaccine(vs)
activate SVS
deactivate SVS

UI - -> RCPT : informs operation success
deactivate UI
deactivate RCPT
@enduml

@startuml
autonumber
actor "Receptionist" as RCPT

participant ":\n ScheduleVaccinationUI" as UI
participant ":\n ScheduleVaccinationController" as CTRL
participant ":\n Company" as CMPN
participant "suStore:\nSNSUserStore" as SUS
participant "su:\nSNSUser" as SU
participant "vcStore: \n VaccinationCenterStore" as VCS
participant "vc:\n VaccinationCenter" as VC
participant "vtStore:\n VaccineTypeStore" as VTS
participant "vt: \n VaccineType" as VT
participant "svStore:\n ScheduleVaccineStore" as SVS
participant "sv: \n ScheduleVaccine" as SV
participant "svMapper:\n ScheduleVaccineMapper" as SVMP
participant "svDTO: \n ScheduleVaccineDTO" as SVDTO

activate RCPT

RCPT -> UI : starts by scheduling the vaccine
activate UI

UI - -> RCPT : requests data (SNS user number)
deactivate UI

RCPT -> UI : types requested data
activate UI

UI -> CTRL : createSNSUser (snsUserNumber)
activate CTRL

CTRL -> CMPN : suStore = getSNSUserStore()
activate CMPN
deactivate CMPN

CTRL -> SUS : su = getSNSUser(snsUserNumber)
activate SUS
deactivate CMPN
deactivate SUS
deactivate CTRL

UI -> CTRL : vcI=getVaccinationCenterList()
activate CTRL

CTRL -> CMPN : vcStore = getVaccinationCenterStore()
activate CMPN
deactivate CMPN

CTRL -> VCS :  getVaccinationCenterList()
activate VCS
deactivate VCS
deactivate CTRL

UI - -> RCPT : shows the vaccine centers list and ask to select one
deactivate UI

RCPT -> UI : selects one
activate UI

UI - -> RCPT : requests data (date and time)
deactivate UI

RCPT -> UI : types requested data
activate UI

UI -> CTRL : verifySlotAvailability(date , time)
activate CTRL
deactivate CTRL
|||

UI -> CTRL : vtI = getVaccineTypeList()
activate CTRL

CTRL -> CMPN : vtStore = getVaccineTypeStore()
activate CMPN
deactivate CMPN
CTRL -> VTS :   getVaccineTypeList()
activate VTS
deactivate VTS
deactivate CTRL

UI - -> RCPT : shows the vaccine type list and ask to select one
deactivate UI
RCPT -> UI : selects one
activate UI

UI -> CTRL : createScheduleVaccine(svDto)
activate CTRL

CTRL -> CMPN : svStore = getScheduleVaccineStore()
activate CMPN
deactivate CMPN
CTRL -> SVS : sv = createScheduleVaccine(svDto)

activate SVS
SVS -> SVMP : sv=toModel(svDto)
activate SVMP
SVMP -> SVDTO : snsUser = getSNSUser()
activate SVDTO
deactivate SVDTO

SVMP -> SVDTO : date = getDate()
activate SVDTO
deactivate SVDTO

SVMP -> SVDTO : time = getTime()
activate SVDTO
deactivate SVDTO

SVMP -> SVDTO : vaccinationCenter = getVaccinationCenter()
activate SVDTO
deactivate SVDTO

SVMP -> SVDTO : vaccineType = getVaccineType()
activate SVDTO
deactivate SVDTO

create VaccineSchedule
SVMP - -> VaccineSchedule : create(snsUser, vaccinationCenter,date, time, vaccineType)
deactivate SVMP
deactivate SVS

CTRL -> SVS : validateScheduleVaccine(sv)
activate SVS
deactivate SVS
deactivate CTRL

UI - -> RCPT : shows all the data and requests a confirmation
deactivate UI

RCPT -> UI : confirms the data
activate UI

UI -> CTRL : saveScheduleVaccine()
activate CTRL

CTRL -> SVS : saveScheduleVaccine(vs)
activate SVS

SVS -> SVS : saveScheduleVaccine(vs)
activate SVS
deactivate SVS

SVS -> SVS : addScheduleVaccine(vs)
activate SVS
deactivate SVS

UI - -> RCPT : informs operation success
deactivate UI
deactivate RCPT
@enduml

PlantUML version 1.2022.5(Sat Apr 30 11:55:52 BST 2022)
(GPL source distribution)
Java Runtime: OpenJDK Runtime Environment
JVM: OpenJDK 64-Bit Server VM
Default Encoding: Cp1252
Language: pt
Country: PT
--></g></svg>