<?xml version="1.0" encoding="UTF-8" standalone="no"?><svg xmlns="http://www.w3.org/2000/svg" xmlns:xlink="http://www.w3.org/1999/xlink" contentStyleType="text/css" height="1559px" preserveAspectRatio="none" style="width:2131px;height:1559px;background:#FFFFFF;" version="1.1" viewBox="0 0 2131 1559" width="2131px" zoomAndPan="magnify"><defs/><g><!--MD5=[64e2e010ba86d7988e5cd73bd64f61f9]
cluster ui--><g id="cluster_ui"><path d="M8.5,205 L22.5,205 A3.75,3.75 0 0 1 25,207.5 L32,228.6094 L211.5,228.6094 A2.5,2.5 0 0 1 214,231.1094 L214,302.5 A2.5,2.5 0 0 1 211.5,305 L8.5,305 A2.5,2.5 0 0 1 6,302.5 L6,207.5 A2.5,2.5 0 0 1 8.5,205 " style="stroke:#000000;stroke-width:1.5;fill:none;"/><line style="stroke:#000000;stroke-width:1.5;fill:none;" x1="6" x2="32" y1="228.6094" y2="228.6094"/><text fill="#000000" font-family="sans-serif" font-size="14" font-weight="bold" lengthAdjust="spacing" textLength="13" x="10" y="221.5332">ui</text></g><!--MD5=[01435ace8273dc3cae88e7f376e4d373]
cluster core--><g id="cluster_core"><path d="M249.5,6 L282.5,6 A3.75,3.75 0 0 1 285,8.5 L292,29.6094 L2121.5,29.6094 A2.5,2.5 0 0 1 2124,32.1094 L2124,1549.5 A2.5,2.5 0 0 1 2121.5,1552 L249.5,1552 A2.5,2.5 0 0 1 247,1549.5 L247,8.5 A2.5,2.5 0 0 1 249.5,6 " style="stroke:#000000;stroke-width:1.5;fill:none;"/><line style="stroke:#000000;stroke-width:1.5;fill:none;" x1="247" x2="292" y1="29.6094" y2="29.6094"/><text fill="#000000" font-family="sans-serif" font-size="14" font-weight="bold" lengthAdjust="spacing" textLength="32" x="251" y="22.5332">core</text></g><!--MD5=[10ea673caf457862023e152271927b45]
cluster controller--><g id="cluster_controller"><path d="M281.5,179 L351.5,179 A3.75,3.75 0 0 1 354,181.5 L361,202.6094 L868.5,202.6094 A2.5,2.5 0 0 1 871,205.1094 L871,347.5 A2.5,2.5 0 0 1 868.5,350 L281.5,350 A2.5,2.5 0 0 1 279,347.5 L279,181.5 A2.5,2.5 0 0 1 281.5,179 " style="stroke:#000000;stroke-width:1.5;fill:none;"/><line style="stroke:#000000;stroke-width:1.5;fill:none;" x1="279" x2="361" y1="202.6094" y2="202.6094"/><text fill="#000000" font-family="sans-serif" font-size="14" font-weight="bold" lengthAdjust="spacing" textLength="69" x="283" y="195.5332">controller</text></g><!--MD5=[27f772719433d509ddbc20ff768eba08]
cluster domain--><g id="cluster_domain"><path d="M1208.5,339 L1260.5,339 A3.75,3.75 0 0 1 1263,341.5 L1270,362.6094 L2089.5,362.6094 A2.5,2.5 0 0 1 2092,365.1094 L2092,1517.5 A2.5,2.5 0 0 1 2089.5,1520 L1208.5,1520 A2.5,2.5 0 0 1 1206,1517.5 L1206,341.5 A2.5,2.5 0 0 1 1208.5,339 " style="stroke:#000000;stroke-width:1.5;fill:none;"/><line style="stroke:#000000;stroke-width:1.5;fill:none;" x1="1206" x2="1270" y1="362.6094" y2="362.6094"/><text fill="#000000" font-family="sans-serif" font-size="14" font-weight="bold" lengthAdjust="spacing" textLength="51" x="1210" y="355.5332">domain</text></g><!--MD5=[5d4cd377749310b66bf14896f5cd8d9b]
cluster model--><g id="cluster_model"><path d="M1240.5,593 L1284.5,593 A3.75,3.75 0 0 1 1287,595.5 L1294,616.6094 L1960.5,616.6094 A2.5,2.5 0 0 1 1963,619.1094 L1963,1485.5 A2.5,2.5 0 0 1 1960.5,1488 L1240.5,1488 A2.5,2.5 0 0 1 1238,1485.5 L1238,595.5 A2.5,2.5 0 0 1 1240.5,593 " style="stroke:#000000;stroke-width:1.5;fill:none;"/><line style="stroke:#000000;stroke-width:1.5;fill:none;" x1="1238" x2="1294" y1="616.6094" y2="616.6094"/><text fill="#000000" font-family="sans-serif" font-size="14" font-weight="bold" lengthAdjust="spacing" textLength="43" x="1242" y="609.5332">model</text></g><!--MD5=[c23849cc5f4a85746a20de4317c530fc]
cluster store--><g id="cluster_store"><path d="M1486.5,399 L1524.5,399 A3.75,3.75 0 0 1 1527,401.5 L1534,422.6094 L2057.5,422.6094 A2.5,2.5 0 0 1 2060,425.1094 L2060,566.5 A2.5,2.5 0 0 1 2057.5,569 L1486.5,569 A2.5,2.5 0 0 1 1484,566.5 L1484,401.5 A2.5,2.5 0 0 1 1486.5,399 " style="stroke:#000000;stroke-width:1.5;fill:none;"/><line style="stroke:#000000;stroke-width:1.5;fill:none;" x1="1484" x2="1534" y1="422.6094" y2="422.6094"/><text fill="#000000" font-family="sans-serif" font-size="14" font-weight="bold" lengthAdjust="spacing" textLength="37" x="1488" y="415.5332">store</text></g><!--MD5=[1969eb49accf14e28bce7c74db8cc840]
cluster mapper--><g id="cluster_mapper"><path d="M922.5,215 L976.5,215 A3.75,3.75 0 0 1 979,217.5 L986,238.6094 L1154.5,238.6094 A2.5,2.5 0 0 1 1157,241.1094 L1157,347.5 A2.5,2.5 0 0 1 1154.5,350 L922.5,350 A2.5,2.5 0 0 1 920,347.5 L920,217.5 A2.5,2.5 0 0 1 922.5,215 " style="stroke:#000000;stroke-width:1.5;fill:none;"/><line style="stroke:#000000;stroke-width:1.5;fill:none;" x1="920" x2="986" y1="238.6094" y2="238.6094"/><text fill="#000000" font-family="sans-serif" font-size="14" font-weight="bold" lengthAdjust="spacing" textLength="53" x="924" y="231.5332">mapper</text></g><!--MD5=[e6eced616a98d47334dd1aaaa829ffd5]
cluster dto--><g id="cluster_dto"><path d="M1600.5,58 L1624.5,58 A3.75,3.75 0 0 1 1627,60.5 L1634,81.6094 L1943.5,81.6094 A2.5,2.5 0 0 1 1946,84.1094 L1946,296.5 A2.5,2.5 0 0 1 1943.5,299 L1600.5,299 A2.5,2.5 0 0 1 1598,296.5 L1598,60.5 A2.5,2.5 0 0 1 1600.5,58 " style="stroke:#000000;stroke-width:1.5;fill:none;"/><line style="stroke:#000000;stroke-width:1.5;fill:none;" x1="1598" x2="1634" y1="81.6094" y2="81.6094"/><text fill="#000000" font-family="sans-serif" font-size="14" font-weight="bold" lengthAdjust="spacing" textLength="23" x="1602" y="74.5332">dto</text></g><!--MD5=[dbe2c98d3d239224c1c32488b69de42b]
class ScheduleVaccinationUI--><g id="elem_ScheduleVaccinationUI"><rect codeLine="6" fill="#F1F1F1" height="48" id="ScheduleVaccinationUI" rx="2.5" ry="2.5" style="stroke:#181818;stroke-width:0.5;" width="176" x="22" y="241"/><ellipse cx="37" cy="257" fill="#ADD1B2" rx="11" ry="11" style="stroke:#181818;stroke-width:1.0;"/><path d="M39,253.5 Q39.2031,253 39.4375,252.75 Q39.6719,252.5 39.9375,252.5 Q40.4063,252.5 40.7031,252.7813 Q41,253.0625 41,253.7188 L41,255.2813 Q41,255.9375 40.7188,256.2188 Q40.4375,256.5 40,256.5 Q39.6094,256.5 39.3594,256.3281 Q39.1094,256.1563 39,255.7031 Q38.9531,255.3906 38.7813,255.2188 Q38.4688,254.8906 37.9063,254.7031 Q37.3438,254.5 36.7813,254.5 Q36.0781,254.5 35.4844,254.7813 Q34.9063,255.0625 34.4531,255.6875 Q34,256.3125 34,257.1719 L34,258.0938 Q34,259.125 34.8438,259.8125 Q35.6875,260.5 37.1875,260.5 Q38.0781,260.5 38.7031,260.2969 Q39.0625,260.1875 39.4688,259.8281 Q39.7344,259.625 39.875,259.5625 Q40.0156,259.5 40.1875,259.5 Q40.5156,259.5 40.75,259.7656 Q41,260.0156 41,260.375 Q41,260.7188 40.6563,261.125 Q40.1563,261.7188 39.3594,262.0469 Q38.3125,262.5 37.0313,262.5 Q35.5313,262.5 34.3281,261.9063 Q33.3594,261.4375 32.6719,260.4219 Q32,259.4063 32,258.2031 L32,257.1094 Q32,255.8594 32.5938,254.7656 Q33.2031,253.6719 34.25,253.0938 Q35.3125,252.5 36.5,252.5 Q37.2188,252.5 37.8438,252.75 Q38.4688,253 39,253.5 Z " fill="#000000"/><text fill="#000000" font-family="sans-serif" font-size="14" lengthAdjust="spacing" textLength="144" x="51" y="262.7285">ScheduleVaccinationUI</text><line style="stroke:#181818;stroke-width:0.5;" x1="23" x2="197" y1="273" y2="273"/><line style="stroke:#181818;stroke-width:0.5;" x1="23" x2="197" y1="281" y2="281"/></g><!--MD5=[bd1d3e915bc9fc9efef099e792fa3d79]
class ScheduleVaccinationController--><g id="elem_ScheduleVaccinationController"><rect codeLine="15" fill="#F1F1F1" height="83.2188" id="ScheduleVaccinationController" rx="2.5" ry="2.5" style="stroke:#181818;stroke-width:0.5;" width="544" x="303" y="223.5"/><ellipse cx="473.75" cy="239.5" fill="#ADD1B2" rx="11" ry="11" style="stroke:#181818;stroke-width:1.0;"/><path d="M475.75,236 Q475.9531,235.5 476.1875,235.25 Q476.4219,235 476.6875,235 Q477.1563,235 477.4531,235.2813 Q477.75,235.5625 477.75,236.2188 L477.75,237.7813 Q477.75,238.4375 477.4688,238.7188 Q477.1875,239 476.75,239 Q476.3594,239 476.1094,238.8281 Q475.8594,238.6563 475.75,238.2031 Q475.7031,237.8906 475.5313,237.7188 Q475.2188,237.3906 474.6563,237.2031 Q474.0938,237 473.5313,237 Q472.8281,237 472.2344,237.2813 Q471.6563,237.5625 471.2031,238.1875 Q470.75,238.8125 470.75,239.6719 L470.75,240.5938 Q470.75,241.625 471.5938,242.3125 Q472.4375,243 473.9375,243 Q474.8281,243 475.4531,242.7969 Q475.8125,242.6875 476.2188,242.3281 Q476.4844,242.125 476.625,242.0625 Q476.7656,242 476.9375,242 Q477.2656,242 477.5,242.2656 Q477.75,242.5156 477.75,242.875 Q477.75,243.2188 477.4063,243.625 Q476.9063,244.2188 476.1094,244.5469 Q475.0625,245 473.7813,245 Q472.2813,245 471.0781,244.4063 Q470.1094,243.9375 469.4219,242.9219 Q468.75,241.9063 468.75,240.7031 L468.75,239.6094 Q468.75,238.3594 469.3438,237.2656 Q469.9531,236.1719 471,235.5938 Q472.0625,235 473.25,235 Q473.9688,235 474.5938,235.25 Q475.2188,235.5 475.75,236 Z " fill="#000000"/><text fill="#000000" font-family="sans-serif" font-size="14" lengthAdjust="spacing" textLength="194" x="494.25" y="245.2285">ScheduleVaccinationController</text><line style="stroke:#181818;stroke-width:0.5;" x1="304" x2="846" y1="255.5" y2="255.5"/><line style="stroke:#181818;stroke-width:0.5;" x1="304" x2="846" y1="263.5" y2="263.5"/><text fill="#000000" font-family="sans-serif" font-size="14" lengthAdjust="spacing" textLength="532" x="309" y="282.0332">+scheduleVaccine(SNS user number, vaccination center, date, time, type of vaccine)</text><text fill="#000000" font-family="sans-serif" font-size="14" lengthAdjust="spacing" textLength="157" x="309" y="299.6426">+saveScheduleVaccine()</text></g><!--MD5=[8d21a970f1bd1e0e0584d0ecf91221be]
class ScheduleVaccine--><g id="elem_ScheduleVaccine"><rect codeLine="26" fill="#F1F1F1" height="48" id="ScheduleVaccine" rx="2.5" ry="2.5" style="stroke:#181818;stroke-width:0.5;" width="141" x="1254" y="1072"/><ellipse cx="1269" cy="1088" fill="#ADD1B2" rx="11" ry="11" style="stroke:#181818;stroke-width:1.0;"/><path d="M1271,1084.5 Q1271.2031,1084 1271.4375,1083.75 Q1271.6719,1083.5 1271.9375,1083.5 Q1272.4063,1083.5 1272.7031,1083.7813 Q1273,1084.0625 1273,1084.7188 L1273,1086.2813 Q1273,1086.9375 1272.7188,1087.2188 Q1272.4375,1087.5 1272,1087.5 Q1271.6094,1087.5 1271.3594,1087.3281 Q1271.1094,1087.1563 1271,1086.7031 Q1270.9531,1086.3906 1270.7813,1086.2188 Q1270.4688,1085.8906 1269.9063,1085.7031 Q1269.3438,1085.5 1268.7813,1085.5 Q1268.0781,1085.5 1267.4844,1085.7813 Q1266.9063,1086.0625 1266.4531,1086.6875 Q1266,1087.3125 1266,1088.1719 L1266,1089.0938 Q1266,1090.125 1266.8438,1090.8125 Q1267.6875,1091.5 1269.1875,1091.5 Q1270.0781,1091.5 1270.7031,1091.2969 Q1271.0625,1091.1875 1271.4688,1090.8281 Q1271.7344,1090.625 1271.875,1090.5625 Q1272.0156,1090.5 1272.1875,1090.5 Q1272.5156,1090.5 1272.75,1090.7656 Q1273,1091.0156 1273,1091.375 Q1273,1091.7188 1272.6563,1092.125 Q1272.1563,1092.7188 1271.3594,1093.0469 Q1270.3125,1093.5 1269.0313,1093.5 Q1267.5313,1093.5 1266.3281,1092.9063 Q1265.3594,1092.4375 1264.6719,1091.4219 Q1264,1090.4063 1264,1089.2031 L1264,1088.1094 Q1264,1086.8594 1264.5938,1085.7656 Q1265.2031,1084.6719 1266.25,1084.0938 Q1267.3125,1083.5 1268.5,1083.5 Q1269.2188,1083.5 1269.8438,1083.75 Q1270.4688,1084 1271,1084.5 Z " fill="#000000"/><text fill="#000000" font-family="sans-serif" font-size="14" lengthAdjust="spacing" textLength="109" x="1283" y="1093.7285">ScheduleVaccine</text><line style="stroke:#181818;stroke-width:0.5;" x1="1255" x2="1394" y1="1104" y2="1104"/><line style="stroke:#181818;stroke-width:0.5;" x1="1255" x2="1394" y1="1112" y2="1112"/></g><!--MD5=[02e4b9b7573f1156f41e60aa5b4e25a4]
class Company--><g id="elem_Company"><rect codeLine="29" fill="#F1F1F1" height="48" id="Company" rx="2.5" ry="2.5" style="stroke:#181818;stroke-width:0.5;" width="92" x="1278.5" y="629"/><ellipse cx="1293.5" cy="645" fill="#ADD1B2" rx="11" ry="11" style="stroke:#181818;stroke-width:1.0;"/><path d="M1295.5,641.5 Q1295.7031,641 1295.9375,640.75 Q1296.1719,640.5 1296.4375,640.5 Q1296.9063,640.5 1297.2031,640.7813 Q1297.5,641.0625 1297.5,641.7188 L1297.5,643.2813 Q1297.5,643.9375 1297.2188,644.2188 Q1296.9375,644.5 1296.5,644.5 Q1296.1094,644.5 1295.8594,644.3281 Q1295.6094,644.1563 1295.5,643.7031 Q1295.4531,643.3906 1295.2813,643.2188 Q1294.9688,642.8906 1294.4063,642.7031 Q1293.8438,642.5 1293.2813,642.5 Q1292.5781,642.5 1291.9844,642.7813 Q1291.4063,643.0625 1290.9531,643.6875 Q1290.5,644.3125 1290.5,645.1719 L1290.5,646.0938 Q1290.5,647.125 1291.3438,647.8125 Q1292.1875,648.5 1293.6875,648.5 Q1294.5781,648.5 1295.2031,648.2969 Q1295.5625,648.1875 1295.9688,647.8281 Q1296.2344,647.625 1296.375,647.5625 Q1296.5156,647.5 1296.6875,647.5 Q1297.0156,647.5 1297.25,647.7656 Q1297.5,648.0156 1297.5,648.375 Q1297.5,648.7188 1297.1563,649.125 Q1296.6563,649.7188 1295.8594,650.0469 Q1294.8125,650.5 1293.5313,650.5 Q1292.0313,650.5 1290.8281,649.9063 Q1289.8594,649.4375 1289.1719,648.4219 Q1288.5,647.4063 1288.5,646.2031 L1288.5,645.1094 Q1288.5,643.8594 1289.0938,642.7656 Q1289.7031,641.6719 1290.75,641.0938 Q1291.8125,640.5 1293,640.5 Q1293.7188,640.5 1294.3438,640.75 Q1294.9688,641 1295.5,641.5 Z " fill="#000000"/><text fill="#000000" font-family="sans-serif" font-size="14" lengthAdjust="spacing" textLength="60" x="1307.5" y="650.7285">Company</text><line style="stroke:#181818;stroke-width:0.5;" x1="1279.5" x2="1369.5" y1="661" y2="661"/><line style="stroke:#181818;stroke-width:0.5;" x1="1279.5" x2="1369.5" y1="669" y2="669"/></g><!--MD5=[72be06cc7ae02ccc98efe28a50e62246]
class SNSUser--><g id="elem_SNSUser"><rect codeLine="32" fill="#F1F1F1" height="224.0938" id="SNSUser" rx="2.5" ry="2.5" style="stroke:#181818;stroke-width:0.5;" width="350" x="1597" y="1248"/><ellipse cx="1739.75" cy="1264" fill="#ADD1B2" rx="11" ry="11" style="stroke:#181818;stroke-width:1.0;"/><path d="M1741.75,1260.5 Q1741.9531,1260 1742.1875,1259.75 Q1742.4219,1259.5 1742.6875,1259.5 Q1743.1563,1259.5 1743.4531,1259.7813 Q1743.75,1260.0625 1743.75,1260.7188 L1743.75,1262.2813 Q1743.75,1262.9375 1743.4688,1263.2188 Q1743.1875,1263.5 1742.75,1263.5 Q1742.3594,1263.5 1742.1094,1263.3281 Q1741.8594,1263.1563 1741.75,1262.7031 Q1741.7031,1262.3906 1741.5313,1262.2188 Q1741.2188,1261.8906 1740.6563,1261.7031 Q1740.0938,1261.5 1739.5313,1261.5 Q1738.8281,1261.5 1738.2344,1261.7813 Q1737.6563,1262.0625 1737.2031,1262.6875 Q1736.75,1263.3125 1736.75,1264.1719 L1736.75,1265.0938 Q1736.75,1266.125 1737.5938,1266.8125 Q1738.4375,1267.5 1739.9375,1267.5 Q1740.8281,1267.5 1741.4531,1267.2969 Q1741.8125,1267.1875 1742.2188,1266.8281 Q1742.4844,1266.625 1742.625,1266.5625 Q1742.7656,1266.5 1742.9375,1266.5 Q1743.2656,1266.5 1743.5,1266.7656 Q1743.75,1267.0156 1743.75,1267.375 Q1743.75,1267.7188 1743.4063,1268.125 Q1742.9063,1268.7188 1742.1094,1269.0469 Q1741.0625,1269.5 1739.7813,1269.5 Q1738.2813,1269.5 1737.0781,1268.9063 Q1736.1094,1268.4375 1735.4219,1267.4219 Q1734.75,1266.4063 1734.75,1265.2031 L1734.75,1264.1094 Q1734.75,1262.8594 1735.3438,1261.7656 Q1735.9531,1260.6719 1737,1260.0938 Q1738.0625,1259.5 1739.25,1259.5 Q1739.9688,1259.5 1740.5938,1259.75 Q1741.2188,1260 1741.75,1260.5 Z " fill="#000000"/><text fill="#000000" font-family="sans-serif" font-size="14" lengthAdjust="spacing" textLength="56" x="1760.25" y="1269.7285">SNSUser</text><line style="stroke:#181818;stroke-width:0.5;" x1="1598" x2="1946" y1="1280" y2="1280"/><text fill="#000000" font-family="sans-serif" font-size="14" lengthAdjust="spacing" textLength="40" x="1603" y="1298.5332">-name</text><text fill="#000000" font-family="sans-serif" font-size="14" lengthAdjust="spacing" textLength="56" x="1603" y="1316.1426">-address</text><text fill="#000000" font-family="sans-serif" font-size="14" lengthAdjust="spacing" textLength="26" x="1603" y="1333.752">-sex</text><text fill="#000000" font-family="sans-serif" font-size="14" lengthAdjust="spacing" textLength="94" x="1603" y="1351.3613">-phoneNumber</text><text fill="#000000" font-family="sans-serif" font-size="14" lengthAdjust="spacing" textLength="38" x="1603" y="1368.9707">-email</text><text fill="#000000" font-family="sans-serif" font-size="14" lengthAdjust="spacing" textLength="63" x="1603" y="1386.5801">-birthDate</text><text fill="#000000" font-family="sans-serif" font-size="14" lengthAdjust="spacing" textLength="105" x="1603" y="1404.1895">-snsUserNumber</text><text fill="#000000" font-family="sans-serif" font-size="14" lengthAdjust="spacing" textLength="124" x="1603" y="1421.7988">-citizenCardNumber</text><line style="stroke:#181818;stroke-width:0.5;" x1="1598" x2="1946" y1="1428.875" y2="1428.875"/><text fill="#000000" font-family="sans-serif" font-size="14" lengthAdjust="spacing" textLength="334" x="1603" y="1447.4082">+SNSUser(name, address, sex, phoneNumber, email,</text><text fill="#000000" font-family="sans-serif" font-size="14" lengthAdjust="spacing" textLength="298" x="1603" y="1465.0176">birthDate, snsUserNumber, citizenCardNumber)</text></g><!--MD5=[7829b64950ce38e0487c4015ea331f97]
class Date--><g id="elem_Date"><rect codeLine="44" fill="#F1F1F1" height="118.4375" id="Date" rx="2.5" ry="2.5" style="stroke:#181818;stroke-width:0.5;" width="163" x="1690.5" y="1095"/><ellipse cx="1752.75" cy="1111" fill="#ADD1B2" rx="11" ry="11" style="stroke:#181818;stroke-width:1.0;"/><path d="M1754.75,1107.5 Q1754.9531,1107 1755.1875,1106.75 Q1755.4219,1106.5 1755.6875,1106.5 Q1756.1563,1106.5 1756.4531,1106.7813 Q1756.75,1107.0625 1756.75,1107.7188 L1756.75,1109.2813 Q1756.75,1109.9375 1756.4688,1110.2188 Q1756.1875,1110.5 1755.75,1110.5 Q1755.3594,1110.5 1755.1094,1110.3281 Q1754.8594,1110.1563 1754.75,1109.7031 Q1754.7031,1109.3906 1754.5313,1109.2188 Q1754.2188,1108.8906 1753.6563,1108.7031 Q1753.0938,1108.5 1752.5313,1108.5 Q1751.8281,1108.5 1751.2344,1108.7813 Q1750.6563,1109.0625 1750.2031,1109.6875 Q1749.75,1110.3125 1749.75,1111.1719 L1749.75,1112.0938 Q1749.75,1113.125 1750.5938,1113.8125 Q1751.4375,1114.5 1752.9375,1114.5 Q1753.8281,1114.5 1754.4531,1114.2969 Q1754.8125,1114.1875 1755.2188,1113.8281 Q1755.4844,1113.625 1755.625,1113.5625 Q1755.7656,1113.5 1755.9375,1113.5 Q1756.2656,1113.5 1756.5,1113.7656 Q1756.75,1114.0156 1756.75,1114.375 Q1756.75,1114.7188 1756.4063,1115.125 Q1755.9063,1115.7188 1755.1094,1116.0469 Q1754.0625,1116.5 1752.7813,1116.5 Q1751.2813,1116.5 1750.0781,1115.9063 Q1749.1094,1115.4375 1748.4219,1114.4219 Q1747.75,1113.4063 1747.75,1112.2031 L1747.75,1111.1094 Q1747.75,1109.8594 1748.3438,1108.7656 Q1748.9531,1107.6719 1750,1107.0938 Q1751.0625,1106.5 1752.25,1106.5 Q1752.9688,1106.5 1753.5938,1106.75 Q1754.2188,1107 1754.75,1107.5 Z " fill="#000000"/><text fill="#000000" font-family="sans-serif" font-size="14" lengthAdjust="spacing" textLength="30" x="1773.25" y="1116.7285">Date</text><line style="stroke:#181818;stroke-width:0.5;" x1="1691.5" x2="1852.5" y1="1127" y2="1127"/><text fill="#000000" font-family="sans-serif" font-size="14" lengthAdjust="spacing" textLength="33" x="1696.5" y="1145.5332">-year</text><text fill="#000000" font-family="sans-serif" font-size="14" lengthAdjust="spacing" textLength="44" x="1696.5" y="1163.1426">-month</text><text fill="#000000" font-family="sans-serif" font-size="14" lengthAdjust="spacing" textLength="28" x="1696.5" y="1180.752">-day</text><line style="stroke:#181818;stroke-width:0.5;" x1="1691.5" x2="1852.5" y1="1187.8281" y2="1187.8281"/><text fill="#000000" font-family="sans-serif" font-size="14" lengthAdjust="spacing" textLength="151" x="1696.5" y="1206.3613">-Date(year, month, day)</text></g><!--MD5=[2e42295458bb0bec21c9622a623eb29e]
class Time--><g id="elem_Time"><rect codeLine="51" fill="#F1F1F1" height="118.4375" id="Time" rx="2.5" ry="2.5" style="stroke:#181818;stroke-width:0.5;" width="215" x="1664.5" y="942"/><ellipse cx="1752.25" cy="958" fill="#ADD1B2" rx="11" ry="11" style="stroke:#181818;stroke-width:1.0;"/><path d="M1754.25,954.5 Q1754.4531,954 1754.6875,953.75 Q1754.9219,953.5 1755.1875,953.5 Q1755.6563,953.5 1755.9531,953.7813 Q1756.25,954.0625 1756.25,954.7188 L1756.25,956.2813 Q1756.25,956.9375 1755.9688,957.2188 Q1755.6875,957.5 1755.25,957.5 Q1754.8594,957.5 1754.6094,957.3281 Q1754.3594,957.1563 1754.25,956.7031 Q1754.2031,956.3906 1754.0313,956.2188 Q1753.7188,955.8906 1753.1563,955.7031 Q1752.5938,955.5 1752.0313,955.5 Q1751.3281,955.5 1750.7344,955.7813 Q1750.1563,956.0625 1749.7031,956.6875 Q1749.25,957.3125 1749.25,958.1719 L1749.25,959.0938 Q1749.25,960.125 1750.0938,960.8125 Q1750.9375,961.5 1752.4375,961.5 Q1753.3281,961.5 1753.9531,961.2969 Q1754.3125,961.1875 1754.7188,960.8281 Q1754.9844,960.625 1755.125,960.5625 Q1755.2656,960.5 1755.4375,960.5 Q1755.7656,960.5 1756,960.7656 Q1756.25,961.0156 1756.25,961.375 Q1756.25,961.7188 1755.9063,962.125 Q1755.4063,962.7188 1754.6094,963.0469 Q1753.5625,963.5 1752.2813,963.5 Q1750.7813,963.5 1749.5781,962.9063 Q1748.6094,962.4375 1747.9219,961.4219 Q1747.25,960.4063 1747.25,959.2031 L1747.25,958.1094 Q1747.25,956.8594 1747.8438,955.7656 Q1748.4531,954.6719 1749.5,954.0938 Q1750.5625,953.5 1751.75,953.5 Q1752.4688,953.5 1753.0938,953.75 Q1753.7188,954 1754.25,954.5 Z " fill="#000000"/><text fill="#000000" font-family="sans-serif" font-size="14" lengthAdjust="spacing" textLength="31" x="1772.75" y="963.7285">Time</text><line style="stroke:#181818;stroke-width:0.5;" x1="1665.5" x2="1878.5" y1="974" y2="974"/><text fill="#000000" font-family="sans-serif" font-size="14" lengthAdjust="spacing" textLength="41" x="1670.5" y="992.5332">-hours</text><text fill="#000000" font-family="sans-serif" font-size="14" lengthAdjust="spacing" textLength="54" x="1670.5" y="1010.1426">-minutes</text><text fill="#000000" font-family="sans-serif" font-size="14" lengthAdjust="spacing" textLength="58" x="1670.5" y="1027.752">-seconds</text><line style="stroke:#181818;stroke-width:0.5;" x1="1665.5" x2="1878.5" y1="1034.8281" y2="1034.8281"/><text fill="#000000" font-family="sans-serif" font-size="14" lengthAdjust="spacing" textLength="203" x="1670.5" y="1053.3613">+Time(hours, minutes, seconds)</text></g><!--MD5=[de60e6d4f424ae4d0522096f76a59010]
class VaccinationCenter--><g id="elem_VaccinationCenter"><rect codeLine="58" fill="#F1F1F1" height="276.9219" id="VaccinationCenter" rx="2.5" ry="2.5" style="stroke:#181818;stroke-width:0.5;" width="313" x="1615.5" y="629.5"/><ellipse cx="1709.75" cy="645.5" fill="#ADD1B2" rx="11" ry="11" style="stroke:#181818;stroke-width:1.0;"/><path d="M1711.75,642 Q1711.9531,641.5 1712.1875,641.25 Q1712.4219,641 1712.6875,641 Q1713.1563,641 1713.4531,641.2813 Q1713.75,641.5625 1713.75,642.2188 L1713.75,643.7813 Q1713.75,644.4375 1713.4688,644.7188 Q1713.1875,645 1712.75,645 Q1712.3594,645 1712.1094,644.8281 Q1711.8594,644.6563 1711.75,644.2031 Q1711.7031,643.8906 1711.5313,643.7188 Q1711.2188,643.3906 1710.6563,643.2031 Q1710.0938,643 1709.5313,643 Q1708.8281,643 1708.2344,643.2813 Q1707.6563,643.5625 1707.2031,644.1875 Q1706.75,644.8125 1706.75,645.6719 L1706.75,646.5938 Q1706.75,647.625 1707.5938,648.3125 Q1708.4375,649 1709.9375,649 Q1710.8281,649 1711.4531,648.7969 Q1711.8125,648.6875 1712.2188,648.3281 Q1712.4844,648.125 1712.625,648.0625 Q1712.7656,648 1712.9375,648 Q1713.2656,648 1713.5,648.2656 Q1713.75,648.5156 1713.75,648.875 Q1713.75,649.2188 1713.4063,649.625 Q1712.9063,650.2188 1712.1094,650.5469 Q1711.0625,651 1709.7813,651 Q1708.2813,651 1707.0781,650.4063 Q1706.1094,649.9375 1705.4219,648.9219 Q1704.75,647.9063 1704.75,646.7031 L1704.75,645.6094 Q1704.75,644.3594 1705.3438,643.2656 Q1705.9531,642.1719 1707,641.5938 Q1708.0625,641 1709.25,641 Q1709.9688,641 1710.5938,641.25 Q1711.2188,641.5 1711.75,642 Z " fill="#000000"/><text fill="#000000" font-family="sans-serif" font-size="14" lengthAdjust="spacing" textLength="116" x="1730.25" y="651.2285">VaccinationCenter</text><line style="stroke:#181818;stroke-width:0.5;" x1="1616.5" x2="1927.5" y1="661.5" y2="661.5"/><text fill="#000000" font-family="sans-serif" font-size="14" lengthAdjust="spacing" textLength="40" x="1621.5" y="680.0332">-name</text><text fill="#000000" font-family="sans-serif" font-size="14" lengthAdjust="spacing" textLength="56" x="1621.5" y="697.6426">-address</text><text fill="#000000" font-family="sans-serif" font-size="14" lengthAdjust="spacing" textLength="94" x="1621.5" y="715.252">-phoneNumber</text><text fill="#000000" font-family="sans-serif" font-size="14" lengthAdjust="spacing" textLength="38" x="1621.5" y="732.8613">-email</text><text fill="#000000" font-family="sans-serif" font-size="14" lengthAdjust="spacing" textLength="72" x="1621.5" y="750.4707">-faxNumber</text><text fill="#000000" font-family="sans-serif" font-size="14" lengthAdjust="spacing" textLength="52" x="1621.5" y="768.0801">-website</text><text fill="#000000" font-family="sans-serif" font-size="14" lengthAdjust="spacing" textLength="93" x="1621.5" y="785.6895">-openingHours</text><text fill="#000000" font-family="sans-serif" font-size="14" lengthAdjust="spacing" textLength="86" x="1621.5" y="803.2988">-closingHours</text><text fill="#000000" font-family="sans-serif" font-size="14" lengthAdjust="spacing" textLength="81" x="1621.5" y="820.9082">-slotDuration</text><text fill="#000000" font-family="sans-serif" font-size="14" lengthAdjust="spacing" textLength="106" x="1621.5" y="838.5176">-slotVaccineLimit</text><line style="stroke:#181818;stroke-width:0.5;" x1="1616.5" x2="1927.5" y1="845.5938" y2="845.5938"/><text fill="#000000" font-family="sans-serif" font-size="14" lengthAdjust="spacing" textLength="301" x="1621.5" y="864.127">+VaccineCenter(name, address, phoneNumber,</text><text fill="#000000" font-family="sans-serif" font-size="14" lengthAdjust="spacing" textLength="263" x="1625.5" y="881.7363">email, faxNumber, website, openingHours,</text><text fill="#000000" font-family="sans-serif" font-size="14" lengthAdjust="spacing" textLength="279" x="1625.5" y="899.3457">closingHours, slotDuration, slotVaccineLimit)</text></g><!--MD5=[dddfbbf04cd811976a8d1b68c187d8cc]
class ScheduleVaccineStore--><g id="elem_ScheduleVaccineStore"><rect codeLine="76" fill="#F1F1F1" height="118.4375" id="ScheduleVaccineStore" rx="2.5" ry="2.5" style="stroke:#181818;stroke-width:0.5;" width="544" x="1500" y="435"/><ellipse cx="1696.25" cy="451" fill="#ADD1B2" rx="11" ry="11" style="stroke:#181818;stroke-width:1.0;"/><path d="M1698.25,447.5 Q1698.4531,447 1698.6875,446.75 Q1698.9219,446.5 1699.1875,446.5 Q1699.6563,446.5 1699.9531,446.7813 Q1700.25,447.0625 1700.25,447.7188 L1700.25,449.2813 Q1700.25,449.9375 1699.9688,450.2188 Q1699.6875,450.5 1699.25,450.5 Q1698.8594,450.5 1698.6094,450.3281 Q1698.3594,450.1563 1698.25,449.7031 Q1698.2031,449.3906 1698.0313,449.2188 Q1697.7188,448.8906 1697.1563,448.7031 Q1696.5938,448.5 1696.0313,448.5 Q1695.3281,448.5 1694.7344,448.7813 Q1694.1563,449.0625 1693.7031,449.6875 Q1693.25,450.3125 1693.25,451.1719 L1693.25,452.0938 Q1693.25,453.125 1694.0938,453.8125 Q1694.9375,454.5 1696.4375,454.5 Q1697.3281,454.5 1697.9531,454.2969 Q1698.3125,454.1875 1698.7188,453.8281 Q1698.9844,453.625 1699.125,453.5625 Q1699.2656,453.5 1699.4375,453.5 Q1699.7656,453.5 1700,453.7656 Q1700.25,454.0156 1700.25,454.375 Q1700.25,454.7188 1699.9063,455.125 Q1699.4063,455.7188 1698.6094,456.0469 Q1697.5625,456.5 1696.2813,456.5 Q1694.7813,456.5 1693.5781,455.9063 Q1692.6094,455.4375 1691.9219,454.4219 Q1691.25,453.4063 1691.25,452.2031 L1691.25,451.1094 Q1691.25,449.8594 1691.8438,448.7656 Q1692.4531,447.6719 1693.5,447.0938 Q1694.5625,446.5 1695.75,446.5 Q1696.4688,446.5 1697.0938,446.75 Q1697.7188,447 1698.25,447.5 Z " fill="#000000"/><text fill="#000000" font-family="sans-serif" font-size="14" lengthAdjust="spacing" textLength="143" x="1716.75" y="456.7285">ScheduleVaccineStore</text><line style="stroke:#181818;stroke-width:0.5;" x1="1501" x2="2043" y1="467" y2="467"/><line style="stroke:#181818;stroke-width:0.5;" x1="1501" x2="2043" y1="475" y2="475"/><text fill="#000000" font-family="sans-serif" font-size="14" lengthAdjust="spacing" textLength="532" x="1506" y="493.5332">+scheduleVaccine(SNS user number, vaccination center, date, time, type of vaccine)</text><text fill="#000000" font-family="sans-serif" font-size="14" lengthAdjust="spacing" textLength="264" x="1506" y="511.1426">+saveScheduleVaccine(scheduleVaccine)</text><text fill="#000000" font-family="sans-serif" font-size="14" lengthAdjust="spacing" textLength="283" x="1506" y="528.752">+validateScheduleVaccine(scheduleVaccine)</text><text fill="#000000" font-family="sans-serif" font-size="14" lengthAdjust="spacing" textLength="258" x="1506" y="546.3613">+addScheduleVaccine(scheduleVaccine)</text></g><!--MD5=[1dfe61191ae65b8fa9d989a910888a1b]
class ScheduleVaccineMapper--><g id="elem_ScheduleVaccineMapper"><rect codeLine="89" fill="#F1F1F1" height="48" id="ScheduleVaccineMapper" rx="2.5" ry="2.5" style="stroke:#181818;stroke-width:0.5;" width="189" x="944" y="259"/><ellipse cx="959" cy="275" fill="#ADD1B2" rx="11" ry="11" style="stroke:#181818;stroke-width:1.0;"/><path d="M961,271.5 Q961.2031,271 961.4375,270.75 Q961.6719,270.5 961.9375,270.5 Q962.4063,270.5 962.7031,270.7813 Q963,271.0625 963,271.7188 L963,273.2813 Q963,273.9375 962.7188,274.2188 Q962.4375,274.5 962,274.5 Q961.6094,274.5 961.3594,274.3281 Q961.1094,274.1563 961,273.7031 Q960.9531,273.3906 960.7813,273.2188 Q960.4688,272.8906 959.9063,272.7031 Q959.3438,272.5 958.7813,272.5 Q958.0781,272.5 957.4844,272.7813 Q956.9063,273.0625 956.4531,273.6875 Q956,274.3125 956,275.1719 L956,276.0938 Q956,277.125 956.8438,277.8125 Q957.6875,278.5 959.1875,278.5 Q960.0781,278.5 960.7031,278.2969 Q961.0625,278.1875 961.4688,277.8281 Q961.7344,277.625 961.875,277.5625 Q962.0156,277.5 962.1875,277.5 Q962.5156,277.5 962.75,277.7656 Q963,278.0156 963,278.375 Q963,278.7188 962.6563,279.125 Q962.1563,279.7188 961.3594,280.0469 Q960.3125,280.5 959.0313,280.5 Q957.5313,280.5 956.3281,279.9063 Q955.3594,279.4375 954.6719,278.4219 Q954,277.4063 954,276.2031 L954,275.1094 Q954,273.8594 954.5938,272.7656 Q955.2031,271.6719 956.25,271.0938 Q957.3125,270.5 958.5,270.5 Q959.2188,270.5 959.8438,270.75 Q960.4688,271 961,271.5 Z " fill="#000000"/><text fill="#000000" font-family="sans-serif" font-size="14" lengthAdjust="spacing" textLength="157" x="973" y="280.7285">ScheduleVaccineMapper</text><line style="stroke:#181818;stroke-width:0.5;" x1="945" x2="1132" y1="291" y2="291"/><line style="stroke:#181818;stroke-width:0.5;" x1="945" x2="1132" y1="299" y2="299"/></g><!--MD5=[eeddcd52079be367b57321b6d447262c]
class ScheduleVaccineDTO--><g id="elem_ScheduleVaccineDTO"><rect codeLine="96" fill="#F1F1F1" height="153.6563" id="ScheduleVaccineDTO" rx="2.5" ry="2.5" style="stroke:#181818;stroke-width:0.5;" width="300" x="1622" y="102"/><ellipse cx="1698.25" cy="118" fill="#ADD1B2" rx="11" ry="11" style="stroke:#181818;stroke-width:1.0;"/><path d="M1700.25,114.5 Q1700.4531,114 1700.6875,113.75 Q1700.9219,113.5 1701.1875,113.5 Q1701.6563,113.5 1701.9531,113.7813 Q1702.25,114.0625 1702.25,114.7188 L1702.25,116.2813 Q1702.25,116.9375 1701.9688,117.2188 Q1701.6875,117.5 1701.25,117.5 Q1700.8594,117.5 1700.6094,117.3281 Q1700.3594,117.1563 1700.25,116.7031 Q1700.2031,116.3906 1700.0313,116.2188 Q1699.7188,115.8906 1699.1563,115.7031 Q1698.5938,115.5 1698.0313,115.5 Q1697.3281,115.5 1696.7344,115.7813 Q1696.1563,116.0625 1695.7031,116.6875 Q1695.25,117.3125 1695.25,118.1719 L1695.25,119.0938 Q1695.25,120.125 1696.0938,120.8125 Q1696.9375,121.5 1698.4375,121.5 Q1699.3281,121.5 1699.9531,121.2969 Q1700.3125,121.1875 1700.7188,120.8281 Q1700.9844,120.625 1701.125,120.5625 Q1701.2656,120.5 1701.4375,120.5 Q1701.7656,120.5 1702,120.7656 Q1702.25,121.0156 1702.25,121.375 Q1702.25,121.7188 1701.9063,122.125 Q1701.4063,122.7188 1700.6094,123.0469 Q1699.5625,123.5 1698.2813,123.5 Q1696.7813,123.5 1695.5781,122.9063 Q1694.6094,122.4375 1693.9219,121.4219 Q1693.25,120.4063 1693.25,119.2031 L1693.25,118.1094 Q1693.25,116.8594 1693.8438,115.7656 Q1694.4531,114.6719 1695.5,114.0938 Q1696.5625,113.5 1697.75,113.5 Q1698.4688,113.5 1699.0938,113.75 Q1699.7188,114 1700.25,114.5 Z " fill="#000000"/><text fill="#000000" font-family="sans-serif" font-size="14" lengthAdjust="spacing" textLength="139" x="1718.75" y="123.7285">ScheduleVaccineDTO</text><line style="stroke:#181818;stroke-width:0.5;" x1="1623" x2="1921" y1="134" y2="134"/><text fill="#000000" font-family="sans-serif" font-size="14" lengthAdjust="spacing" textLength="60" x="1628" y="152.5332">-snsUser;</text><text fill="#000000" font-family="sans-serif" font-size="14" lengthAdjust="spacing" textLength="123" x="1628" y="170.1426">-vaccinationCenter;</text><text fill="#000000" font-family="sans-serif" font-size="14" lengthAdjust="spacing" textLength="37" x="1628" y="187.752">-date;</text><text fill="#000000" font-family="sans-serif" font-size="14" lengthAdjust="spacing" textLength="35" x="1628" y="205.3613">-time;</text><text fill="#000000" font-family="sans-serif" font-size="14" lengthAdjust="spacing" textLength="89" x="1628" y="222.9707">-vaccineType;</text><line style="stroke:#181818;stroke-width:0.5;" x1="1623" x2="1921" y1="230.0469" y2="230.0469"/><text fill="#000000" font-family="sans-serif" font-size="14" lengthAdjust="spacing" textLength="288" x="1628" y="248.5801">+ScheduleVaccineDTO(Date date, Time time)</text></g><!--MD5=[0a402a282eb9440038026730d6cc3205]
reverse link ScheduleVaccine to SNSUser--><g id="link_ScheduleVaccine_SNSUser"><path codeLine="110" d="M1357.01,1129.46 C1385.9,1158.75 1430.92,1201.02 1476,1230 C1513.31,1253.98 1555.79,1275.57 1596.67,1293.96 " fill="none" id="ScheduleVaccine-backto-SNSUser" style="stroke:#181818;stroke-width:1.0;"/><polygon fill="none" points="1347.86,1120.06,1349.1807,1127.1491,1356.2325,1128.6566,1354.9118,1121.5675,1347.86,1120.06" style="stroke:#181818;stroke-width:1.0;"/></g><!--MD5=[d5d433c7883c58947311d1080f91765b]
reverse link ScheduleVaccine to Date--><g id="link_ScheduleVaccine_Date"><path codeLine="111" d="M1408.16,1106.76 C1488.68,1117.24 1610.31,1133.08 1690.19,1143.48 " fill="none" id="ScheduleVaccine-backto-Date" style="stroke:#181818;stroke-width:1.0;"/><polygon fill="none" points="1395.11,1105.06,1400.5404,1109.8045,1407.0086,1106.6166,1401.5782,1101.8721,1395.11,1105.06" style="stroke:#181818;stroke-width:1.0;"/></g><!--MD5=[4c118736328e1a38035883cfbabcddd2]
reverse link ScheduleVaccine to Time--><g id="link_ScheduleVaccine_Time"><path codeLine="112" d="M1408.19,1078.37 C1480.38,1062.97 1585.59,1040.54 1664.15,1023.79 " fill="none" id="ScheduleVaccine-backto-Time" style="stroke:#181818;stroke-width:1.0;"/><polygon fill="none" points="1395.11,1081.16,1401.8135,1083.8176,1406.845,1078.652,1400.1415,1075.9943,1395.11,1081.16" style="stroke:#181818;stroke-width:1.0;"/></g><!--MD5=[faf07ee4774a4925a39ce1ea931e3396]
reverse link ScheduleVaccine to VaccinationCenter--><g id="link_ScheduleVaccine_VaccinationCenter"><path codeLine="113" d="M1350.05,1060.99 C1377.53,1023.63 1424.95,964.38 1476,924 C1518.03,890.75 1568.2,861.17 1615.15,836.93 " fill="none" id="ScheduleVaccine-backto-VaccinationCenter" style="stroke:#181818;stroke-width:1.0;"/><polygon fill="none" points="1342.18,1071.83,1348.9395,1069.3183,1349.2208,1062.1126,1342.4613,1064.6244,1342.18,1071.83" style="stroke:#181818;stroke-width:1.0;"/></g><!--MD5=[4cec49d352670e8d15e67f3c35a7ae00]
link ScheduleVaccinationUI to ScheduleVaccinationController--><g id="link_ScheduleVaccinationUI_ScheduleVaccinationController"><path codeLine="114" d="M198.09,265 C227.3,265 261.62,265 297.44,265 " fill="none" id="ScheduleVaccinationUI-to-ScheduleVaccinationController" style="stroke:#181818;stroke-width:1.0;stroke-dasharray:7.0,7.0;"/><polygon fill="#181818" points="302.73,265,293.73,261,297.73,265,293.73,269,302.73,265" style="stroke:#181818;stroke-width:1.0;"/></g><!--MD5=[0debf692dbcdfac11f15bbe1559bdbdf]
link controller to mapper--><g id="link_controller_mapper"><path d="M872.5023,342 C873.3569,342 874.2101,342 875.0619,342 C876.7656,342 878.4638,342 880.1561,342 C883.5408,342 886.902,342 890.2363,342 C896.9048,342 903.4658,342 909.8925,342 C913.1058,342 916.2855,342 919.4283,342 C919.5265,342 919.6247,342 919.7228,342 " fill="none" id="controller-to-mapper" style="stroke:#181818;stroke-width:1.0;stroke-dasharray:7.0,7.0;"/><polygon fill="#181818" points="919.7228,342,910.7228,338,914.7228,342,910.7228,346,919.7228,342" style="stroke:#181818;stroke-width:1.0;"/></g><!--MD5=[f4db482f32edd77abe30d6b96ed6334c]
link controller to domain--><g id="link_controller_domain"><path d="M723.9607,350.0773 C724.4973,350.1045 725.0347,350.1316 725.5728,350.1588 C729.8779,350.3761 734.2312,350.5943 738.6266,350.8128 C756.2079,351.687 774.4607,352.567 792.978,353.4217 C830.0125,355.1313 868.105,356.74 904,358 C996.46,361.245 1100.425,363.485 1181.725,364.9188 C1186.8062,365.0084 1191.799,365.0948 1196.6948,365.1782 C1199.1427,365.2199 1201.5664,365.2608 1203.9649,365.3009 C1204.5645,365.3109 1205.1625,365.3209 1205.7589,365.3309 " fill="none" id="controller-to-domain" style="stroke:#181818;stroke-width:1.0;stroke-dasharray:7.0,7.0;"/><polygon fill="#181818" points="1205.7589,365.3309,1196.8268,361.1815,1200.7596,365.2476,1196.6935,369.1804,1205.7589,365.3309" style="stroke:#181818;stroke-width:1.0;"/></g><!--MD5=[95af60e6d793701562f73311d2ec55eb]
link controller to dto--><g id="link_controller_dto"><path d="M603.4017,350.0799 C603.9916,350.2357 604.5897,350.3926 605.1958,350.5506 C607.62,351.1824 610.1721,351.8308 612.8431,352.4891 C634.2113,357.755 663.19,363.6488 695.2,366.695 C759.22,372.7875 835.365,367.49 887,323 C914.54,299.27 875.75,265.88 904,243 C1101.82,82.8 1222.26,251.69 1476,272 C1508.23,274.58 1542.4625,277.0406 1575.76,279.2844 C1579.9222,279.5648 1584.0698,279.8419 1588.197,280.1154 C1590.2606,280.2522 1592.3191,280.388 1594.3719,280.523 C1595.3982,280.5904 1596.4231,280.6577 1597.4465,280.7247 " fill="none" id="controller-to-dto" style="stroke:#181818;stroke-width:1.0;stroke-dasharray:7.0,7.0;"/><polygon fill="#181818" points="1597.4465,280.7247,1588.7271,276.1452,1592.4572,280.398,1588.2044,284.1281,1597.4465,280.7247" style="stroke:#181818;stroke-width:1.0;"/></g><!--MD5=[868a81ec62f7ffb5c8ad3d4c697bcfae]
link mapper to dto--><g id="link_mapper_dto"><path d="M1157.5084,333.3258 C1157.7763,333.3064 1158.0441,333.2871 1158.312,333.2678 C1160.4549,333.1132 1162.5966,332.959 1164.7342,332.8053 C1173.2845,332.1903 1181.7688,331.5838 1190,331 C1318.085,321.91 1462.075,311.995 1574.6663,304.31 C1602.8141,302.3887 1628.9995,300.6069 1652.4833,299.0121 " fill="none" id="mapper-to-dto" style="stroke:#181818;stroke-width:1.0;stroke-dasharray:7.0,7.0;"/><polygon fill="#181818" points="1652.4833,299.0121,1643.233,295.6311,1647.4948,299.3509,1643.775,303.6127,1652.4833,299.0121" style="stroke:#181818;stroke-width:1.0;"/></g><!--MD5=[dd712a83684d45c2d6098647f34cdc3e]
link mapper to domain--><g id="link_mapper_domain"><path d="M1131.6932,350.1171 C1132.2083,350.1625 1132.7243,350.2079 1133.2413,350.2534 C1134.2753,350.3445 1135.3132,350.4359 1136.3547,350.5276 C1138.4377,350.711 1140.5352,350.8957 1142.645,351.0814 C1146.8648,351.453 1151.1341,351.8289 1155.4364,352.2077 C1164.0412,352.9653 1172.7781,353.7345 1181.515,354.5037 C1185.8834,354.8884 1190.2519,355.273 1194.6037,355.6561 C1196.7796,355.8477 1198.9514,356.0389 1201.117,356.2295 C1202.1998,356.3249 1203.2811,356.4201 1204.3605,356.5151 C1204.9002,356.5626 1205.4395,356.6101 1205.9782,356.6575 " fill="none" id="mapper-to-domain" style="stroke:#181818;stroke-width:1.0;stroke-dasharray:7.0,7.0;"/><polygon fill="#181818" points="1205.9782,356.6575,1197.3637,351.8836,1200.9975,356.219,1196.6621,359.8528,1205.9782,356.6575" style="stroke:#181818;stroke-width:1.0;"/></g><!--MD5=[7c93149738b86cc6ff2d6206bb3856af]
link domain to dto--><g id="link_domain_dto"><path d="M1489.7811,338.975 C1490.6109,338.8335 1491.4418,338.6917 1492.2739,338.5497 C1493.938,338.2658 1495.6066,337.9811 1497.2793,337.6957 C1500.6246,337.125 1503.9861,336.5515 1507.3605,335.9757 C1520.8583,333.6728 1534.5636,331.3345 1548.2688,328.9963 C1603.0894,319.6431 1657.9084,310.2903 1699.4442,303.2039 C1704.6362,302.3181 1709.6206,301.4677 1714.3715,300.6572 C1716.747,300.2519 1719.0641,299.8566 1721.3196,299.4718 C1721.8834,299.3756 1722.4435,299.28 1722.9996,299.1852 C1723.2776,299.1377 1723.5547,299.0904 1723.8308,299.0433 " fill="none" id="domain-to-dto" style="stroke:#181818;stroke-width:1.0;stroke-dasharray:7.0,7.0;"/><polygon fill="#181818" points="1723.8308,299.0433,1714.2863,296.6139,1718.902,299.8842,1715.6317,304.5,1723.8308,299.0433" style="stroke:#181818;stroke-width:1.0;"/></g><!--MD5=[52ae4d8a6b0a2770e74afc7d92a6c1a2]
link Company to ScheduleVaccineStore--><g id="link_Company_ScheduleVaccineStore"><path codeLine="121" d="M1370.67,636.88 C1425.58,617.28 1521.36,583.1 1605.47,553.08 " fill="none" id="Company-ScheduleVaccineStore" style="stroke:#181818;stroke-width:1.0;"/><polygon fill="#000000" points="1434.7091,596.4951,1425.2024,596.7675,1427.1782,602.3034,1434.7091,596.4951" style="stroke:#000000;stroke-width:1.0;"/><text fill="#000000" font-family="sans-serif" font-size="13" lengthAdjust="spacing" textLength="28" x="1439" y="603.4951">uses</text><text fill="#000000" font-family="sans-serif" font-size="13" lengthAdjust="spacing" textLength="7" x="1378.5862" y="649.109">1</text><text fill="#000000" font-family="sans-serif" font-size="13" lengthAdjust="spacing" textLength="7" x="1577.7476" y="574.7453">1</text></g><!--MD5=[6f629701085041a7949d445c9809a677]
@startuml
skinparam classAttributeIconSize 0
left to right direction

package ui {

class ScheduleVaccinationUI {
}

}

package core {

package controller {

class ScheduleVaccinationController {
+scheduleVaccine(SNS user number, vaccination center, date, time, type of vaccine)
+saveScheduleVaccine()
}

}

package domain {

package model {

class ScheduleVaccine {
}

class Company {
}

class SNSUser {
    -name
    -address
    -sex
    -phoneNumber
    -email
    -birthDate
    -snsUserNumber
    -citizenCardNumber
    +SNSUser(name, address, sex, phoneNumber, email, \nbirthDate, snsUserNumber, citizenCardNumber)
}

class Date {
    -year
    -month
    -day
    -Date(year, month, day)
}

class Time {
    -hours
    -minutes
    -seconds
    +Time(hours, minutes, seconds)
}

class VaccinationCenter {
    -name
    -address
    -phoneNumber
    -email
    -faxNumber
    -website
    -openingHours
    -closingHours
    -slotDuration
    -slotVaccineLimit
    +VaccineCenter(name, address, phoneNumber,\n email, faxNumber, website, openingHours,\n closingHours, slotDuration, slotVaccineLimit)
}

}

package store{

class ScheduleVaccineStore {
  +scheduleVaccine(SNS user number, vaccination center, date, time, type of vaccine)
  +saveScheduleVaccine(scheduleVaccine)
  +validateScheduleVaccine(scheduleVaccine)
  +addScheduleVaccine(scheduleVaccine)
}

}

}

package mapper{

class ScheduleVaccineMapper {
}

}

package dto {

class ScheduleVaccineDTO {
   -snsUser;
   -vaccinationCenter;
   -date;
   -time;
   -vaccineType;
   +ScheduleVaccineDTO(Date date, Time time)
}

}

}


ScheduleVaccine o- - SNSUser
ScheduleVaccine o- - Date
ScheduleVaccine o- - Time
ScheduleVaccine o- - VaccinationCenter
ScheduleVaccinationUI ..> ScheduleVaccinationController
controller ..> mapper
controller ..> domain
controller ..> dto
mapper ..> dto
mapper ..> domain
domain ..> dto
Company "1" - - "1" ScheduleVaccineStore : uses >

@enduml

PlantUML version 1.2022.5(Sat Apr 30 11:55:52 BST 2022)
(GPL source distribution)
Java Runtime: OpenJDK Runtime Environment
JVM: OpenJDK 64-Bit Server VM
Default Encoding: Cp1252
Language: pt
Country: PT
--></g></svg>