<?xml version="1.0" encoding="UTF-8" standalone="no"?><svg xmlns="http://www.w3.org/2000/svg" xmlns:xlink="http://www.w3.org/1999/xlink" contentScriptType="application/ecmascript" contentStyleType="text/css" height="1788px" preserveAspectRatio="none" style="width:834px;height:1788px;background:#FFFFFF;" version="1.1" viewBox="0 0 834 1788" width="834px" zoomAndPan="magnify"><defs><filter height="300%" id="fz334yppx8gmb" width="300%" x="-1" y="-1"><feGaussianBlur result="blurOut" stdDeviation="2.0"/><feColorMatrix in="blurOut" result="blurOut2" type="matrix" values="0 0 0 0 0 0 0 0 0 0 0 0 0 0 0 0 0 0 .4 0"/><feOffset dx="4.0" dy="4.0" in="blurOut2" result="blurOut3"/><feBlend in="SourceGraphic" in2="blurOut3" mode="normal"/></filter></defs><g><!--MD5=[99b31deea5d7419a569cd5090bf83263]
cluster System--><polygon fill="#FFFFFF" filter="url(#fz334yppx8gmb)" points="172,6,228,6,235,29.6094,817,29.6094,817,1781,172,1781,172,6" style="stroke:#000000;stroke-width:1.5;"/><line style="stroke:#000000;stroke-width:1.5;" x1="172" x2="235" y1="29.6094" y2="29.6094"/><text fill="#000000" font-family="sans-serif" font-size="14" font-weight="bold" lengthAdjust="spacing" textLength="50" x="176" y="22.5332">System</text><ellipse cx="494.7387" cy="674.8477" fill="#FEFECE" filter="url(#fz334yppx8gmb)" rx="124.7387" ry="27.3477" style="stroke:#A80036;stroke-width:1.5;"/><text fill="#000000" font-family="sans-serif" font-size="14" lengthAdjust="spacing" textLength="215" x="387.2387" y="678.5763">UC01: Register vaccination centre</text><ellipse cx="494.6585" cy="762.0317" fill="#FEFECE" filter="url(#fz334yppx8gmb)" rx="108.1585" ry="24.0317" style="stroke:#A80036;stroke-width:1.5;"/><text fill="#000000" font-family="sans-serif" font-size="14" lengthAdjust="spacing" textLength="179" x="405.1585" y="765.7602">UC02: Register vaccine type</text><ellipse cx="494.7051" cy="859.041" fill="#FEFECE" filter="url(#fz334yppx8gmb)" rx="175.7051" ry="37.541" style="stroke:#A80036;stroke-width:1.5;"/><text fill="#000000" font-family="sans-serif" font-size="14" lengthAdjust="spacing" textLength="322" x="333.7051" y="862.7695">UC03: Register vaccine and administration process</text><ellipse cx="494.6681" cy="1192.2336" fill="#FEFECE" filter="url(#fz334yppx8gmb)" rx="99.1681" ry="22.2336" style="stroke:#A80036;stroke-width:1.5;"/><text fill="#000000" font-family="sans-serif" font-size="14" lengthAdjust="spacing" textLength="159" x="415.1681" y="1195.9621">UC04: Register SNS user</text><ellipse cx="494.2928" cy="1030.8586" fill="#FEFECE" filter="url(#fz334yppx8gmb)" rx="102.2928" ry="22.8586" style="stroke:#A80036;stroke-width:1.5;"/><text fill="#000000" font-family="sans-serif" font-size="14" lengthAdjust="spacing" textLength="166" x="411.2928" y="1034.5871">UC05: Schedule a vaccine</text><ellipse cx="494.5583" cy="1111.9117" fill="#FEFECE" filter="url(#fz334yppx8gmb)" rx="100.0583" ry="22.4117" style="stroke:#A80036;stroke-width:1.5;"/><text fill="#000000" font-family="sans-serif" font-size="14" lengthAdjust="spacing" textLength="161" x="414.0583" y="1115.6402">UC06: Register employee</text><ellipse cx="494.4736" cy="1274.9947" fill="#FEFECE" filter="url(#fz334yppx8gmb)" rx="115.4736" ry="25.4947" style="stroke:#A80036;stroke-width:1.5;"/><text fill="#000000" font-family="sans-serif" font-size="14" lengthAdjust="spacing" textLength="195" x="396.9736" y="1278.7232">UC07: Register the user arrival</text><ellipse cx="494.5856" cy="467.1171" fill="#FEFECE" filter="url(#fz334yppx8gmb)" rx="196.0856" ry="41.6171" style="stroke:#A80036;stroke-width:1.5;"/><text fill="#000000" font-family="sans-serif" font-size="14" lengthAdjust="spacing" textLength="364" x="312.5856" y="470.8456">UC08: Check the SNS user list to administrate the vaccine</text><ellipse cx="494.7076" cy="106.2415" fill="#FEFECE" filter="url(#fz334yppx8gmb)" rx="306.7076" ry="63.7415" style="stroke:#A80036;stroke-width:1.5;"/><text fill="#000000" font-family="sans-serif" font-size="14" lengthAdjust="spacing" textLength="589" x="200.2076" y="109.97">UC09: Consult the patient information sheet for instructions on the vaccine to be administered</text><ellipse cx="494.4828" cy="243.8966" fill="#FEFECE" filter="url(#fz334yppx8gmb)" rx="182.4828" ry="38.8966" style="stroke:#A80036;stroke-width:1.5;"/><text fill="#000000" font-family="sans-serif" font-size="14" lengthAdjust="spacing" textLength="336" x="326.4828" y="247.6251">UC10: Register the vaccine administration to the user</text><ellipse cx="494.5002" cy="353.9" fill="#FEFECE" filter="url(#fz334yppx8gmb)" rx="167.5002" ry="35.9" style="stroke:#A80036;stroke-width:1.5;"/><text fill="#000000" font-family="sans-serif" font-size="14" lengthAdjust="spacing" textLength="305" x="342.0002" y="357.6286">UC11: Register adverse reactions to the vaccine</text><ellipse cx="494.3881" cy="577.9776" fill="#FEFECE" filter="url(#fz334yppx8gmb)" rx="157.8881" ry="33.9776" style="stroke:#A80036;stroke-width:1.5;"/><text fill="#000000" font-family="sans-serif" font-size="14" lengthAdjust="spacing" textLength="285" x="351.8881" y="581.7061">UC12: Request the issuance of the certificate</text><ellipse cx="494.6476" cy="1540.8295" fill="#FEFECE" filter="url(#fz334yppx8gmb)" rx="142.1476" ry="30.8295" style="stroke:#A80036;stroke-width:1.5;"/><text fill="#000000" font-family="sans-serif" font-size="14" lengthAdjust="spacing" textLength="252" x="368.6476" y="1544.558">UC13: Visualise the vaccination process</text><ellipse cx="494.3511" cy="1635.9702" fill="#FEFECE" filter="url(#fz334yppx8gmb)" rx="130.3511" ry="28.4702" style="stroke:#A80036;stroke-width:1.5;"/><text fill="#000000" font-family="sans-serif" font-size="14" lengthAdjust="spacing" textLength="227" x="380.8511" y="1639.6987">UC14: Evaluate vaccination process</text><ellipse cx="494.7356" cy="1731.9471" fill="#FEFECE" filter="url(#fz334yppx8gmb)" rx="150.2356" ry="32.4471" style="stroke:#A80036;stroke-width:1.5;"/><text fill="#000000" font-family="sans-serif" font-size="14" lengthAdjust="spacing" textLength="269" x="360.2356" y="1735.6756">UC15: Analyse the data from other centres</text><ellipse cx="494.6999" cy="1364.94" fill="#FEFECE" filter="url(#fz334yppx8gmb)" rx="132.6999" ry="28.94" style="stroke:#A80036;stroke-width:1.5;"/><text fill="#000000" font-family="sans-serif" font-size="14" lengthAdjust="spacing" textLength="232" x="378.6999" y="1368.6685">UC16: Visualize the stats and graphs</text><ellipse cx="494.5894" cy="1452.2179" fill="#FEFECE" filter="url(#fz334yppx8gmb)" rx="104.0894" ry="23.2179" style="stroke:#A80036;stroke-width:1.5;"/><text fill="#000000" font-family="sans-serif" font-size="14" lengthAdjust="spacing" textLength="170" x="409.5894" y="1455.9464">UC17: To generate reports</text><ellipse cx="494.535" cy="951.807" fill="#FEFECE" filter="url(#fz334yppx8gmb)" rx="89.535" ry="20.307" style="stroke:#A80036;stroke-width:1.5;"/><text fill="#000000" font-family="sans-serif" font-size="14" lengthAdjust="spacing" textLength="137" x="426.035" y="955.5355">UC18: List employees</text><!--MD5=[6994468d0abac0210283409f53c085ad]
entity snsUser--><ellipse cx="67" cy="674" fill="#FEFECE" filter="url(#fz334yppx8gmb)" rx="8" ry="8" style="stroke:#A80036;stroke-width:1.5;"/><path d="M67,682 L67,709 M54,690 L80,690 M67,709 L54,724 M67,709 L80,724 " fill="none" filter="url(#fz334yppx8gmb)" style="stroke:#A80036;stroke-width:1.5;"/><text fill="#000000" font-family="sans-serif" font-size="14" lengthAdjust="spacing" textLength="60" x="37" y="744.0332">SNS User</text><!--MD5=[87d66015e0fe95d70bf3fa68103252e8]
entity nurse--><ellipse cx="67" cy="322" fill="#FEFECE" filter="url(#fz334yppx8gmb)" rx="8" ry="8" style="stroke:#A80036;stroke-width:1.5;"/><path d="M67,330 L67,357 M54,338 L80,338 M67,357 L54,372 M67,357 L80,372 " fill="none" filter="url(#fz334yppx8gmb)" style="stroke:#A80036;stroke-width:1.5;"/><text fill="#000000" font-family="sans-serif" font-size="14" lengthAdjust="spacing" textLength="37" x="48.5" y="392.0332">Nurse</text><!--MD5=[79a439086b036a57b90a01d7b2f8bbd1]
entity admin--><ellipse cx="67" cy="874" fill="#FEFECE" filter="url(#fz334yppx8gmb)" rx="8" ry="8" style="stroke:#A80036;stroke-width:1.5;"/><path d="M67,882 L67,909 M54,890 L80,890 M67,909 L54,924 M67,909 L80,924 " fill="none" filter="url(#fz334yppx8gmb)" style="stroke:#A80036;stroke-width:1.5;"/><text fill="#000000" font-family="sans-serif" font-size="14" lengthAdjust="spacing" textLength="83" x="25.5" y="944.0332">Administrator</text><!--MD5=[8df531fd36edad519192f49b4d80bdb0]
entity receptionist--><ellipse cx="67" cy="1160" fill="#FEFECE" filter="url(#fz334yppx8gmb)" rx="8" ry="8" style="stroke:#A80036;stroke-width:1.5;"/><path d="M67,1168 L67,1195 M54,1176 L80,1176 M67,1195 L54,1210 M67,1195 L80,1210 " fill="none" filter="url(#fz334yppx8gmb)" style="stroke:#A80036;stroke-width:1.5;"/><text fill="#000000" font-family="sans-serif" font-size="14" lengthAdjust="spacing" textLength="78" x="28" y="1230.0332">Receptionist</text><!--MD5=[d3a436cbff7bda3898ca7f562d826780]
entity centerCoordinator--><ellipse cx="67" cy="1509" fill="#FEFECE" filter="url(#fz334yppx8gmb)" rx="8" ry="8" style="stroke:#A80036;stroke-width:1.5;"/><path d="M67,1517 L67,1544 M54,1525 L80,1525 M67,1544 L54,1559 M67,1544 L80,1559 " fill="none" filter="url(#fz334yppx8gmb)" style="stroke:#A80036;stroke-width:1.5;"/><text fill="#000000" font-family="sans-serif" font-size="14" lengthAdjust="spacing" textLength="122" x="6" y="1579.0332">Center Coordinator</text><!--MD5=[93c7ab30feea06d1f331a55173f980c5]
link admin to UC1--><path d="M84.15,864.46 C104.11,815.35 138.55,737.98 164,720 C225.42,676.61 309.64,665.72 377.55,665.5 " fill="none" id="admin-UC1" style="stroke:#A80036;stroke-width:1.0;"/><!--MD5=[ecd3982cd8510e4a62139e90e60a9363]
link admin to UC2--><path d="M96.21,864.31 C113.2,842.64 136.81,817.86 164,804 C233.11,768.79 320.55,758.98 387.99,757.61 " fill="none" id="admin-UC2" style="stroke:#A80036;stroke-width:1.0;"/><!--MD5=[e80e3ed74176b24dc386a0bf62e40fe3]
link admin to UC3--><path d="M108.8,901.49 C161.42,895.68 255.98,885.24 338.17,876.16 " fill="none" id="admin-UC3" style="stroke:#A80036;stroke-width:1.0;"/><!--MD5=[c72a8ab083ec7ccf90b8d4c2bda3f5a1]
link admin to UC6--><path d="M80.36,947.71 C94.15,986.4 120.45,1042.23 164,1071 C234.7,1117.71 332.85,1124.3 403.62,1121.44 " fill="none" id="admin-UC6" style="stroke:#A80036;stroke-width:1.0;"/><!--MD5=[0bce17afb4d155915d0922bd542e9858]
link admin to UC4--><path d="M71.47,947.61 C78.54,1003.7 99.88,1102.26 164,1152 C234,1206.3 338.77,1209.81 411.3,1203.94 " fill="none" id="admin-UC4" style="stroke:#A80036;stroke-width:1.0;"/><!--MD5=[1d6c5b6750c8eddbc9651d1a414dbd9e]
link admin to UC18--><path d="M108.8,910.41 C178.69,917.97 322.53,933.52 413.15,943.31 " fill="none" id="admin-UC18" style="stroke:#A80036;stroke-width:1.0;"/><!--MD5=[6ee096a9f7aadf14d5e1aae46ec92742]
link nurse to UC8--><path d="M85.57,366 C104.22,378.17 134.95,396.65 164,407 C214.39,424.95 271.12,437.75 323.12,446.78 " fill="none" id="nurse-UC8" style="stroke:#A80036;stroke-width:1.0;"/><!--MD5=[1a51b97c8d40066110f9620dc75ec311]
link nurse to UC9--><path d="M81.28,312.19 C95.61,273.87 122.18,218.47 164,187 C188.48,168.58 216.61,154.31 245.89,143.25 " fill="none" id="nurse-UC9" style="stroke:#A80036;stroke-width:1.0;"/><!--MD5=[3a11357958aa0c02f2cc121c62d5f2e3]
link nurse to UC10--><path d="M85.51,341.69 C104.11,329.22 134.8,310.34 164,300 C216.24,281.5 275.35,269.01 328.95,260.62 " fill="none" id="nurse-UC10" style="stroke:#A80036;stroke-width:1.0;"/><!--MD5=[ce4189e8b724cc8e8133b133b14fb0ff]
link nurse to UC11--><path d="M85.74,354 C127.03,354 233.16,354 326.8,354 " fill="none" id="nurse-UC11" style="stroke:#A80036;stroke-width:1.0;"/><!--MD5=[819c6795238fe0678004be45f9272584]
link nurse to UC12--><path d="M79.57,395.59 C93.01,435.7 119.27,494.79 164,526 C213.99,560.87 278.57,575.86 337.29,581.42 " fill="none" id="nurse-UC12" style="stroke:#A80036;stroke-width:1.0;"/><!--MD5=[f4ecb20605d34c98407b692b8656fdc5]
link snsUser to UC5--><path d="M87.73,747.6 C100.37,775.33 116.51,812.83 128,847 C148.89,909.12 114.9,946.59 164,990 C230.94,1049.18 337.61,1051.73 411.36,1044.53 " fill="none" id="snsUser-UC5" style="stroke:#A80036;stroke-width:1.0;"/><!--MD5=[397dacc81db146b2e4a060e348d3517e]
link snsUser to UC12--><path d="M97.31,676.19 C115.08,659.92 139.08,640.92 164,630 C218.9,605.94 283.26,592.83 340.47,585.76 " fill="none" id="snsUser-UC12" style="stroke:#A80036;stroke-width:1.0;"/><!--MD5=[96fde1d2e0b1291cb173a973fcca5e0c]
link receptionist to UC4--><path d="M106.13,1192 C170.7,1192 303.46,1192 395.44,1192 " fill="none" id="receptionist-UC4" style="stroke:#A80036;stroke-width:1.0;"/><!--MD5=[a35c5d2ea00bcb370b8660146f054c06]
link receptionist to UC7--><path d="M106.01,1210.03 C123.34,1217.58 144.35,1225.79 164,1231 C236.1,1250.13 319.39,1261.16 384.19,1267.39 " fill="none" id="receptionist-UC7" style="stroke:#A80036;stroke-width:1.0;"/><!--MD5=[870700a179d39c5354006a176d0faf92]
link receptionist to UC5--><path d="M89.9,1150.47 C106.48,1123.44 131.87,1089.97 164,1072 C234.81,1032.4 327.36,1023.95 396.34,1024.37 " fill="none" id="receptionist-UC5" style="stroke:#A80036;stroke-width:1.0;"/><!--MD5=[3182f7d7b647eb0cfac1c0ae14c4179f]
link centerCoordinator to UC13--><path d="M128.06,1541 C186.02,1541 275.93,1541 352.06,1541 " fill="none" id="centerCoordinator-UC13" style="stroke:#A80036;stroke-width:1.0;"/><!--MD5=[47b151361410202a18e5dc28609da8ee]
link centerCoordinator to UC14--><path d="M128.23,1574.77 C139.83,1580.22 152.08,1585.28 164,1589 C230.19,1609.67 306.73,1621.29 369.37,1627.8 " fill="none" id="centerCoordinator-UC14" style="stroke:#A80036;stroke-width:1.0;"/><!--MD5=[4b8bf71a4eb075749b3754cbad2a559d]
link centerCoordinator to UC15--><path d="M85.04,1582.64 C100.62,1615.17 126.91,1658.65 164,1682 C217.25,1715.52 284.72,1729.58 344.72,1734.67 " fill="none" id="centerCoordinator-UC15" style="stroke:#A80036;stroke-width:1.0;"/><!--MD5=[e7ab6d77f320b601af112d60132f5432]
link centerCoordinator to UC16--><path d="M87.45,1499.36 C103.61,1469.67 129.52,1431.51 164,1411 C223.57,1375.56 299.69,1363.24 363.76,1360.15 " fill="none" id="centerCoordinator-UC16" style="stroke:#A80036;stroke-width:1.0;"/><!--MD5=[12d1b36670200537ce444ede65555a5e]
link centerCoordinator to UC17--><path d="M128.11,1506.3 C139.72,1500.76 152.01,1495.66 164,1492 C238.13,1469.36 325.32,1459.47 391.38,1455.18 " fill="none" id="centerCoordinator-UC17" style="stroke:#A80036;stroke-width:1.0;"/><!--MD5=[9057450e70c3feea683be9d969a73090]
@startuml
left to right direction

:SNS User: as snsUser
:Nurse: as nurse
:Administrator: as admin
:Receptionist: as receptionist
:Center Coordinator: as centerCoordinator

package System {
    usecase "UC01: Register vaccination centre" as UC1
    usecase "UC02: Register vaccine type" as UC2
    usecase "UC03: Register vaccine and administration process" as UC3
    usecase "UC04: Register SNS user" as UC4
    usecase "UC05: Schedule a vaccine" as UC5
    usecase "UC06: Register employee" as UC6
    usecase "UC07: Register the user arrival" as UC7
    usecase "UC08: Check the SNS user list to administrate the vaccine" as UC8
    usecase "UC09: Consult the patient information sheet for instructions on the vaccine to be administered" as UC9
    usecase "UC10: Register the vaccine administration to the user" as UC10
    usecase "UC11: Register adverse reactions to the vaccine" as UC11
    usecase "UC12: Request the issuance of the certificate" as UC12
    usecase "UC13: Visualise the vaccination process" as UC13
    usecase "UC14: Evaluate vaccination process" as UC14
    usecase "UC15: Analyse the data from other centres" as UC15
    usecase "UC16: Visualize the stats and graphs" as UC16
    usecase "UC17: To generate reports" as UC17
    usecase "UC18: List employees" as UC18
}

admin - - UC1
admin - - UC2
admin - - UC3
admin - - UC6
admin - - UC4
admin - - UC18

nurse - - UC8
nurse - - UC9
nurse - - UC10
nurse - - UC11
nurse - - UC12

snsUser - - UC5
snsUser - - UC12

receptionist - - UC4
receptionist - - UC7
receptionist - - UC5

centerCoordinator - - UC13
centerCoordinator - - UC14
centerCoordinator - - UC15
centerCoordinator - - UC16
centerCoordinator - - UC17

@enduml

PlantUML version 1.2022.1(Tue Feb 01 18:19:58 GMT 2022)
(GPL source distribution)
Java Runtime: OpenJDK Runtime Environment
JVM: OpenJDK 64-Bit Server VM
Default Encoding: Cp1252
Language: pt
Country: PT
--></g></svg>