<?xml version="1.0" encoding="UTF-8" standalone="no"?><svg xmlns="http://www.w3.org/2000/svg" xmlns:xlink="http://www.w3.org/1999/xlink" contentStyleType="text/css" height="1502px" preserveAspectRatio="none" style="width:2302px;height:1502px;background:#FFFFFF;" version="1.1" viewBox="0 0 2302 1502" width="2302px" zoomAndPan="magnify"><defs/><g><!--MD5=[64e2e010ba86d7988e5cd73bd64f61f9]
cluster ui--><g id="cluster_ui"><path d="M8.5,196 L24.5,196 A3.75,3.75 0 0 1 27,198.5 L34,218.2969 L201.5,218.2969 A2.5,2.5 0 0 1 204,220.7969 L204,292.5 A2.5,2.5 0 0 1 201.5,295 L8.5,295 A2.5,2.5 0 0 1 6,292.5 L6,198.5 A2.5,2.5 0 0 1 8.5,196 " style="stroke:#000000;stroke-width:1.5;fill:none;"/><line style="stroke:#000000;stroke-width:1.5;fill:none;" x1="6" x2="34" y1="218.2969" y2="218.2969"/><text fill="#000000" font-family="sans-serif" font-size="14" font-weight="bold" lengthAdjust="spacing" textLength="15" x="10" y="210.9951">ui</text></g><!--MD5=[01435ace8273dc3cae88e7f376e4d373]
cluster core--><g id="cluster_core"><path d="M239.5,6 L275.5,6 A3.75,3.75 0 0 1 278,8.5 L285,28.2969 L2292.5,28.2969 A2.5,2.5 0 0 1 2295,30.7969 L2295,1492.5 A2.5,2.5 0 0 1 2292.5,1495 L239.5,1495 A2.5,2.5 0 0 1 237,1492.5 L237,8.5 A2.5,2.5 0 0 1 239.5,6 " style="stroke:#000000;stroke-width:1.5;fill:none;"/><line style="stroke:#000000;stroke-width:1.5;fill:none;" x1="237" x2="285" y1="28.2969" y2="28.2969"/><text fill="#000000" font-family="sans-serif" font-size="14" font-weight="bold" lengthAdjust="spacing" textLength="35" x="241" y="20.9951">core</text></g><!--MD5=[10ea673caf457862023e152271927b45]
cluster controller--><g id="cluster_controller"><path d="M271.5,171 L352.5,171 A3.75,3.75 0 0 1 355,173.5 L362,193.2969 L932.5,193.2969 A2.5,2.5 0 0 1 935,195.7969 L935,336.5 A2.5,2.5 0 0 1 932.5,339 L271.5,339 A2.5,2.5 0 0 1 269,336.5 L269,173.5 A2.5,2.5 0 0 1 271.5,171 " style="stroke:#000000;stroke-width:1.5;fill:none;"/><line style="stroke:#000000;stroke-width:1.5;fill:none;" x1="269" x2="362" y1="193.2969" y2="193.2969"/><text fill="#000000" font-family="sans-serif" font-size="14" font-weight="bold" lengthAdjust="spacing" textLength="80" x="273" y="185.9951">controller</text></g><!--MD5=[27f772719433d509ddbc20ff768eba08]
cluster domain--><g id="cluster_domain"><path d="M1291.5,329 L1352.5,329 A3.75,3.75 0 0 1 1355,331.5 L1362,351.2969 L2260.5,351.2969 A2.5,2.5 0 0 1 2263,353.7969 L2263,1460.5 A2.5,2.5 0 0 1 2260.5,1463 L1291.5,1463 A2.5,2.5 0 0 1 1289,1460.5 L1289,331.5 A2.5,2.5 0 0 1 1291.5,329 " style="stroke:#000000;stroke-width:1.5;fill:none;"/><line style="stroke:#000000;stroke-width:1.5;fill:none;" x1="1289" x2="1362" y1="351.2969" y2="351.2969"/><text fill="#000000" font-family="sans-serif" font-size="14" font-weight="bold" lengthAdjust="spacing" textLength="60" x="1293" y="343.9951">domain</text></g><!--MD5=[5d4cd377749310b66bf14896f5cd8d9b]
cluster model--><g id="cluster_model"><path d="M1323.5,577 L1373.5,577 A3.75,3.75 0 0 1 1376,579.5 L1383,599.2969 L2113.5,599.2969 A2.5,2.5 0 0 1 2116,601.7969 L2116,1428.5 A2.5,2.5 0 0 1 2113.5,1431 L1323.5,1431 A2.5,2.5 0 0 1 1321,1428.5 L1321,579.5 A2.5,2.5 0 0 1 1323.5,577 " style="stroke:#000000;stroke-width:1.5;fill:none;"/><line style="stroke:#000000;stroke-width:1.5;fill:none;" x1="1321" x2="1383" y1="599.2969" y2="599.2969"/><text fill="#000000" font-family="sans-serif" font-size="14" font-weight="bold" lengthAdjust="spacing" textLength="49" x="1325" y="591.9951">model</text></g><!--MD5=[c23849cc5f4a85746a20de4317c530fc]
cluster store--><g id="cluster_store"><path d="M1583.5,388 L1627.5,388 A3.75,3.75 0 0 1 1630,390.5 L1637,410.2969 L2228.5,410.2969 A2.5,2.5 0 0 1 2231,412.7969 L2231,550.5 A2.5,2.5 0 0 1 2228.5,553 L1583.5,553 A2.5,2.5 0 0 1 1581,550.5 L1581,390.5 A2.5,2.5 0 0 1 1583.5,388 " style="stroke:#000000;stroke-width:1.5;fill:none;"/><line style="stroke:#000000;stroke-width:1.5;fill:none;" x1="1581" x2="1637" y1="410.2969" y2="410.2969"/><text fill="#000000" font-family="sans-serif" font-size="14" font-weight="bold" lengthAdjust="spacing" textLength="43" x="1585" y="402.9951">store</text></g><!--MD5=[1969eb49accf14e28bce7c74db8cc840]
cluster mapper--><g id="cluster_mapper"><path d="M986.5,189 L1048.5,189 A3.75,3.75 0 0 1 1051,191.5 L1058,211.2969 L1237.5,211.2969 A2.5,2.5 0 0 1 1240,213.7969 L1240,336.5 A2.5,2.5 0 0 1 1237.5,339 L986.5,339 A2.5,2.5 0 0 1 984,336.5 L984,191.5 A2.5,2.5 0 0 1 986.5,189 " style="stroke:#000000;stroke-width:1.5;fill:none;"/><line style="stroke:#000000;stroke-width:1.5;fill:none;" x1="984" x2="1058" y1="211.2969" y2="211.2969"/><text fill="#000000" font-family="sans-serif" font-size="14" font-weight="bold" lengthAdjust="spacing" textLength="61" x="988" y="203.9951">mapper</text></g><!--MD5=[e6eced616a98d47334dd1aaaa829ffd5]
cluster dto--><g id="cluster_dto"><path d="M1715,57 L1744,57 A3.75,3.75 0 0 1 1746.5,59.5 L1753.5,79.2969 L2097,79.2969 A2.5,2.5 0 0 1 2099.5,81.7969 L2099.5,286.5 A2.5,2.5 0 0 1 2097,289 L1715,289 A2.5,2.5 0 0 1 1712.5,286.5 L1712.5,59.5 A2.5,2.5 0 0 1 1715,57 " style="stroke:#000000;stroke-width:1.5;fill:none;"/><line style="stroke:#000000;stroke-width:1.5;fill:none;" x1="1712.5" x2="1753.5" y1="79.2969" y2="79.2969"/><text fill="#000000" font-family="sans-serif" font-size="14" font-weight="bold" lengthAdjust="spacing" textLength="28" x="1716.5" y="71.9951">dto</text></g><!--MD5=[b2e86da990ee9e769b8776cd15ea5c5f]
class ScheduleVaccineUI--><g id="elem_ScheduleVaccineUI"><rect codeLine="5" fill="#F1F1F1" height="48" id="ScheduleVaccineUI" rx="2.5" ry="2.5" style="stroke:#181818;stroke-width:0.5;" width="166" x="22" y="231"/><ellipse cx="37" cy="247" fill="#ADD1B2" rx="11" ry="11" style="stroke:#181818;stroke-width:1.0;"/><path d="M39.3438,242.6719 C38.4063,242.2344 37.8125,242.0938 36.9375,242.0938 C34.3125,242.0938 32.3125,244.1719 32.3125,246.8906 L32.3125,248.0156 C32.3125,250.5938 34.4219,252.4844 37.3125,252.4844 C38.5313,252.4844 39.6875,252.1875 40.4375,251.6406 C41.0156,251.2344 41.3438,250.7813 41.3438,250.3906 C41.3438,249.9375 40.9531,249.5469 40.4844,249.5469 C40.2656,249.5469 40.0625,249.625 39.875,249.8125 C39.4219,250.2969 39.4219,250.2969 39.2344,250.3906 C38.8125,250.6563 38.125,250.7813 37.3594,250.7813 C35.3125,250.7813 34.0156,249.6875 34.0156,247.9844 L34.0156,246.8906 C34.0156,245.1094 35.2656,243.7969 37,243.7969 C37.5781,243.7969 38.1875,243.9531 38.6563,244.2031 C39.1406,244.4844 39.3125,244.7031 39.4063,245.1094 C39.4688,245.5156 39.5,245.6406 39.6406,245.7656 C39.7813,245.9063 40.0156,246.0156 40.2344,246.0156 C40.5,246.0156 40.7656,245.875 40.9375,245.6563 C41.0469,245.5 41.0781,245.3125 41.0781,244.8906 L41.0781,243.4688 C41.0781,243.0313 41.0625,242.9063 40.9688,242.75 C40.8125,242.4844 40.5313,242.3438 40.2344,242.3438 C39.9375,242.3438 39.7344,242.4375 39.5156,242.75 L39.3438,242.6719 Z " fill="#000000"/><text fill="#000000" font-family="sans-serif" font-size="14" lengthAdjust="spacing" textLength="134" x="51" y="251.8467">ScheduleVaccineUI</text><line style="stroke:#181818;stroke-width:0.5;" x1="23" x2="187" y1="263" y2="263"/><line style="stroke:#181818;stroke-width:0.5;" x1="23" x2="187" y1="271" y2="271"/></g><!--MD5=[f6c4ddcb8ab0ba42ee4498672e538bba]
class ScheduleVaccineController--><g id="elem_ScheduleVaccineController"><rect codeLine="14" fill="#F1F1F1" height="80.5938" id="ScheduleVaccineController" rx="2.5" ry="2.5" style="stroke:#181818;stroke-width:0.5;" width="618" x="293" y="214.5"/><ellipse cx="500.75" cy="230.5" fill="#ADD1B2" rx="11" ry="11" style="stroke:#181818;stroke-width:1.0;"/><path d="M503.0938,226.1719 C502.1563,225.7344 501.5625,225.5938 500.6875,225.5938 C498.0625,225.5938 496.0625,227.6719 496.0625,230.3906 L496.0625,231.5156 C496.0625,234.0938 498.1719,235.9844 501.0625,235.9844 C502.2813,235.9844 503.4375,235.6875 504.1875,235.1406 C504.7656,234.7344 505.0938,234.2813 505.0938,233.8906 C505.0938,233.4375 504.7031,233.0469 504.2344,233.0469 C504.0156,233.0469 503.8125,233.125 503.625,233.3125 C503.1719,233.7969 503.1719,233.7969 502.9844,233.8906 C502.5625,234.1563 501.875,234.2813 501.1094,234.2813 C499.0625,234.2813 497.7656,233.1875 497.7656,231.4844 L497.7656,230.3906 C497.7656,228.6094 499.0156,227.2969 500.75,227.2969 C501.3281,227.2969 501.9375,227.4531 502.4063,227.7031 C502.8906,227.9844 503.0625,228.2031 503.1563,228.6094 C503.2188,229.0156 503.25,229.1406 503.3906,229.2656 C503.5313,229.4063 503.7656,229.5156 503.9844,229.5156 C504.25,229.5156 504.5156,229.375 504.6875,229.1563 C504.7969,229 504.8281,228.8125 504.8281,228.3906 L504.8281,226.9688 C504.8281,226.5313 504.8125,226.4063 504.7188,226.25 C504.5625,225.9844 504.2813,225.8438 503.9844,225.8438 C503.6875,225.8438 503.4844,225.9375 503.2656,226.25 L503.0938,226.1719 Z " fill="#000000"/><text fill="#000000" font-family="sans-serif" font-size="14" lengthAdjust="spacing" textLength="194" x="521.25" y="235.3467">ScheduleVaccineController</text><line style="stroke:#181818;stroke-width:0.5;" x1="294" x2="910" y1="246.5" y2="246.5"/><line style="stroke:#181818;stroke-width:0.5;" x1="294" x2="910" y1="254.5" y2="254.5"/><text fill="#000000" font-family="sans-serif" font-size="14" lengthAdjust="spacing" textLength="606" x="299" y="271.4951">+scheduleVaccine(SNS user number, vaccination center, date, time, type of vaccine)</text><text fill="#000000" font-family="sans-serif" font-size="14" lengthAdjust="spacing" textLength="174" x="299" y="287.792">+saveScheduleVaccine()</text></g><!--MD5=[8d21a970f1bd1e0e0584d0ecf91221be]
class ScheduleVaccine--><g id="elem_ScheduleVaccine"><rect codeLine="26" fill="#F1F1F1" height="48" id="ScheduleVaccine" rx="2.5" ry="2.5" style="stroke:#181818;stroke-width:0.5;" width="153" x="1337" y="1030"/><ellipse cx="1352" cy="1046" fill="#ADD1B2" rx="11" ry="11" style="stroke:#181818;stroke-width:1.0;"/><path d="M1354.3438,1041.6719 C1353.4063,1041.2344 1352.8125,1041.0938 1351.9375,1041.0938 C1349.3125,1041.0938 1347.3125,1043.1719 1347.3125,1045.8906 L1347.3125,1047.0156 C1347.3125,1049.5938 1349.4219,1051.4844 1352.3125,1051.4844 C1353.5313,1051.4844 1354.6875,1051.1875 1355.4375,1050.6406 C1356.0156,1050.2344 1356.3438,1049.7813 1356.3438,1049.3906 C1356.3438,1048.9375 1355.9531,1048.5469 1355.4844,1048.5469 C1355.2656,1048.5469 1355.0625,1048.625 1354.875,1048.8125 C1354.4219,1049.2969 1354.4219,1049.2969 1354.2344,1049.3906 C1353.8125,1049.6563 1353.125,1049.7813 1352.3594,1049.7813 C1350.3125,1049.7813 1349.0156,1048.6875 1349.0156,1046.9844 L1349.0156,1045.8906 C1349.0156,1044.1094 1350.2656,1042.7969 1352,1042.7969 C1352.5781,1042.7969 1353.1875,1042.9531 1353.6563,1043.2031 C1354.1406,1043.4844 1354.3125,1043.7031 1354.4063,1044.1094 C1354.4688,1044.5156 1354.5,1044.6406 1354.6406,1044.7656 C1354.7813,1044.9063 1355.0156,1045.0156 1355.2344,1045.0156 C1355.5,1045.0156 1355.7656,1044.875 1355.9375,1044.6563 C1356.0469,1044.5 1356.0781,1044.3125 1356.0781,1043.8906 L1356.0781,1042.4688 C1356.0781,1042.0313 1356.0625,1041.9063 1355.9688,1041.75 C1355.8125,1041.4844 1355.5313,1041.3438 1355.2344,1041.3438 C1354.9375,1041.3438 1354.7344,1041.4375 1354.5156,1041.75 L1354.3438,1041.6719 Z " fill="#000000"/><text fill="#000000" font-family="sans-serif" font-size="14" lengthAdjust="spacing" textLength="121" x="1366" y="1050.8467">ScheduleVaccine</text><line style="stroke:#181818;stroke-width:0.5;" x1="1338" x2="1489" y1="1062" y2="1062"/><line style="stroke:#181818;stroke-width:0.5;" x1="1338" x2="1489" y1="1070" y2="1070"/></g><!--MD5=[02e4b9b7573f1156f41e60aa5b4e25a4]
class Company--><g id="elem_Company"><rect codeLine="29" fill="#F1F1F1" height="48" id="Company" rx="2.5" ry="2.5" style="stroke:#181818;stroke-width:0.5;" width="100" x="1363.5" y="612"/><ellipse cx="1378.5" cy="628" fill="#ADD1B2" rx="11" ry="11" style="stroke:#181818;stroke-width:1.0;"/><path d="M1380.8438,623.6719 C1379.9063,623.2344 1379.3125,623.0938 1378.4375,623.0938 C1375.8125,623.0938 1373.8125,625.1719 1373.8125,627.8906 L1373.8125,629.0156 C1373.8125,631.5938 1375.9219,633.4844 1378.8125,633.4844 C1380.0313,633.4844 1381.1875,633.1875 1381.9375,632.6406 C1382.5156,632.2344 1382.8438,631.7813 1382.8438,631.3906 C1382.8438,630.9375 1382.4531,630.5469 1381.9844,630.5469 C1381.7656,630.5469 1381.5625,630.625 1381.375,630.8125 C1380.9219,631.2969 1380.9219,631.2969 1380.7344,631.3906 C1380.3125,631.6563 1379.625,631.7813 1378.8594,631.7813 C1376.8125,631.7813 1375.5156,630.6875 1375.5156,628.9844 L1375.5156,627.8906 C1375.5156,626.1094 1376.7656,624.7969 1378.5,624.7969 C1379.0781,624.7969 1379.6875,624.9531 1380.1563,625.2031 C1380.6406,625.4844 1380.8125,625.7031 1380.9063,626.1094 C1380.9688,626.5156 1381,626.6406 1381.1406,626.7656 C1381.2813,626.9063 1381.5156,627.0156 1381.7344,627.0156 C1382,627.0156 1382.2656,626.875 1382.4375,626.6563 C1382.5469,626.5 1382.5781,626.3125 1382.5781,625.8906 L1382.5781,624.4688 C1382.5781,624.0313 1382.5625,623.9063 1382.4688,623.75 C1382.3125,623.4844 1382.0313,623.3438 1381.7344,623.3438 C1381.4375,623.3438 1381.2344,623.4375 1381.0156,623.75 L1380.8438,623.6719 Z " fill="#000000"/><text fill="#000000" font-family="sans-serif" font-size="14" lengthAdjust="spacing" textLength="68" x="1392.5" y="632.8467">Company</text><line style="stroke:#181818;stroke-width:0.5;" x1="1364.5" x2="1462.5" y1="644" y2="644"/><line style="stroke:#181818;stroke-width:0.5;" x1="1364.5" x2="1462.5" y1="652" y2="652"/></g><!--MD5=[72be06cc7ae02ccc98efe28a50e62246]
class SNSUser--><g id="elem_SNSUser"><rect codeLine="32" fill="#F1F1F1" height="210.9688" id="SNSUser" rx="2.5" ry="2.5" style="stroke:#181818;stroke-width:0.5;" width="388" x="1712" y="1203.5"/><ellipse cx="1872.25" cy="1219.5" fill="#ADD1B2" rx="11" ry="11" style="stroke:#181818;stroke-width:1.0;"/><path d="M1874.5938,1215.1719 C1873.6563,1214.7344 1873.0625,1214.5938 1872.1875,1214.5938 C1869.5625,1214.5938 1867.5625,1216.6719 1867.5625,1219.3906 L1867.5625,1220.5156 C1867.5625,1223.0938 1869.6719,1224.9844 1872.5625,1224.9844 C1873.7813,1224.9844 1874.9375,1224.6875 1875.6875,1224.1406 C1876.2656,1223.7344 1876.5938,1223.2813 1876.5938,1222.8906 C1876.5938,1222.4375 1876.2031,1222.0469 1875.7344,1222.0469 C1875.5156,1222.0469 1875.3125,1222.125 1875.125,1222.3125 C1874.6719,1222.7969 1874.6719,1222.7969 1874.4844,1222.8906 C1874.0625,1223.1563 1873.375,1223.2813 1872.6094,1223.2813 C1870.5625,1223.2813 1869.2656,1222.1875 1869.2656,1220.4844 L1869.2656,1219.3906 C1869.2656,1217.6094 1870.5156,1216.2969 1872.25,1216.2969 C1872.8281,1216.2969 1873.4375,1216.4531 1873.9063,1216.7031 C1874.3906,1216.9844 1874.5625,1217.2031 1874.6563,1217.6094 C1874.7188,1218.0156 1874.75,1218.1406 1874.8906,1218.2656 C1875.0313,1218.4063 1875.2656,1218.5156 1875.4844,1218.5156 C1875.75,1218.5156 1876.0156,1218.375 1876.1875,1218.1563 C1876.2969,1218 1876.3281,1217.8125 1876.3281,1217.3906 L1876.3281,1215.9688 C1876.3281,1215.5313 1876.3125,1215.4063 1876.2188,1215.25 C1876.0625,1214.9844 1875.7813,1214.8438 1875.4844,1214.8438 C1875.1875,1214.8438 1874.9844,1214.9375 1874.7656,1215.25 L1874.5938,1215.1719 Z " fill="#000000"/><text fill="#000000" font-family="sans-serif" font-size="14" lengthAdjust="spacing" textLength="59" x="1892.75" y="1224.3467">SNSUser</text><line style="stroke:#181818;stroke-width:0.5;" x1="1713" x2="2099" y1="1235.5" y2="1235.5"/><text fill="#000000" font-family="sans-serif" font-size="14" lengthAdjust="spacing" textLength="46" x="1718" y="1252.4951">-name</text><text fill="#000000" font-family="sans-serif" font-size="14" lengthAdjust="spacing" textLength="61" x="1718" y="1268.792">-address</text><text fill="#000000" font-family="sans-serif" font-size="14" lengthAdjust="spacing" textLength="30" x="1718" y="1285.0889">-sex</text><text fill="#000000" font-family="sans-serif" font-size="14" lengthAdjust="spacing" textLength="109" x="1718" y="1301.3857">-phoneNumber</text><text fill="#000000" font-family="sans-serif" font-size="14" lengthAdjust="spacing" textLength="45" x="1718" y="1317.6826">-email</text><text fill="#000000" font-family="sans-serif" font-size="14" lengthAdjust="spacing" textLength="77" x="1718" y="1333.9795">-birthDate</text><text fill="#000000" font-family="sans-serif" font-size="14" lengthAdjust="spacing" textLength="117" x="1718" y="1350.2764">-snsUserNumber</text><text fill="#000000" font-family="sans-serif" font-size="14" lengthAdjust="spacing" textLength="145" x="1718" y="1366.5732">-citizenCardNumber</text><line style="stroke:#181818;stroke-width:0.5;" x1="1713" x2="2099" y1="1373.875" y2="1373.875"/><text fill="#000000" font-family="sans-serif" font-size="14" lengthAdjust="spacing" textLength="372" x="1718" y="1390.8701">+SNSUser(name, address, sex, phoneNumber, email,</text><text fill="#000000" font-family="sans-serif" font-size="14" lengthAdjust="spacing" textLength="342" x="1718" y="1407.167">birthDate, snsUserNumber, citizenCardNumber)</text></g><!--MD5=[7829b64950ce38e0487c4015ea331f97]
class Date--><g id="elem_Date"><rect codeLine="44" fill="#F1F1F1" height="113.1875" id="Date" rx="2.5" ry="2.5" style="stroke:#181818;stroke-width:0.5;" width="183" x="1814.5" y="1055.5"/><ellipse cx="1884.25" cy="1071.5" fill="#ADD1B2" rx="11" ry="11" style="stroke:#181818;stroke-width:1.0;"/><path d="M1886.5938,1067.1719 C1885.6563,1066.7344 1885.0625,1066.5938 1884.1875,1066.5938 C1881.5625,1066.5938 1879.5625,1068.6719 1879.5625,1071.3906 L1879.5625,1072.5156 C1879.5625,1075.0938 1881.6719,1076.9844 1884.5625,1076.9844 C1885.7813,1076.9844 1886.9375,1076.6875 1887.6875,1076.1406 C1888.2656,1075.7344 1888.5938,1075.2813 1888.5938,1074.8906 C1888.5938,1074.4375 1888.2031,1074.0469 1887.7344,1074.0469 C1887.5156,1074.0469 1887.3125,1074.125 1887.125,1074.3125 C1886.6719,1074.7969 1886.6719,1074.7969 1886.4844,1074.8906 C1886.0625,1075.1563 1885.375,1075.2813 1884.6094,1075.2813 C1882.5625,1075.2813 1881.2656,1074.1875 1881.2656,1072.4844 L1881.2656,1071.3906 C1881.2656,1069.6094 1882.5156,1068.2969 1884.25,1068.2969 C1884.8281,1068.2969 1885.4375,1068.4531 1885.9063,1068.7031 C1886.3906,1068.9844 1886.5625,1069.2031 1886.6563,1069.6094 C1886.7188,1070.0156 1886.75,1070.1406 1886.8906,1070.2656 C1887.0313,1070.4063 1887.2656,1070.5156 1887.4844,1070.5156 C1887.75,1070.5156 1888.0156,1070.375 1888.1875,1070.1563 C1888.2969,1070 1888.3281,1069.8125 1888.3281,1069.3906 L1888.3281,1067.9688 C1888.3281,1067.5313 1888.3125,1067.4063 1888.2188,1067.25 C1888.0625,1066.9844 1887.7813,1066.8438 1887.4844,1066.8438 C1887.1875,1066.8438 1886.9844,1066.9375 1886.7656,1067.25 L1886.5938,1067.1719 Z " fill="#000000"/><text fill="#000000" font-family="sans-serif" font-size="14" lengthAdjust="spacing" textLength="35" x="1904.75" y="1076.3467">Date</text><line style="stroke:#181818;stroke-width:0.5;" x1="1815.5" x2="1996.5" y1="1087.5" y2="1087.5"/><text fill="#000000" font-family="sans-serif" font-size="14" lengthAdjust="spacing" textLength="37" x="1820.5" y="1104.4951">-year</text><text fill="#000000" font-family="sans-serif" font-size="14" lengthAdjust="spacing" textLength="54" x="1820.5" y="1120.792">-month</text><text fill="#000000" font-family="sans-serif" font-size="14" lengthAdjust="spacing" textLength="31" x="1820.5" y="1137.0889">-day</text><line style="stroke:#181818;stroke-width:0.5;" x1="1815.5" x2="1996.5" y1="1144.3906" y2="1144.3906"/><text fill="#000000" font-family="sans-serif" font-size="14" lengthAdjust="spacing" textLength="171" x="1820.5" y="1161.3857">-Date(year, month, day)</text></g><!--MD5=[2e42295458bb0bec21c9622a623eb29e]
class Time--><g id="elem_Time"><rect codeLine="51" fill="#F1F1F1" height="113.1875" id="Time" rx="2.5" ry="2.5" style="stroke:#181818;stroke-width:0.5;" width="240" x="1786" y="907.5"/><ellipse cx="1883.75" cy="923.5" fill="#ADD1B2" rx="11" ry="11" style="stroke:#181818;stroke-width:1.0;"/><path d="M1886.0938,919.1719 C1885.1563,918.7344 1884.5625,918.5938 1883.6875,918.5938 C1881.0625,918.5938 1879.0625,920.6719 1879.0625,923.3906 L1879.0625,924.5156 C1879.0625,927.0938 1881.1719,928.9844 1884.0625,928.9844 C1885.2813,928.9844 1886.4375,928.6875 1887.1875,928.1406 C1887.7656,927.7344 1888.0938,927.2813 1888.0938,926.8906 C1888.0938,926.4375 1887.7031,926.0469 1887.2344,926.0469 C1887.0156,926.0469 1886.8125,926.125 1886.625,926.3125 C1886.1719,926.7969 1886.1719,926.7969 1885.9844,926.8906 C1885.5625,927.1563 1884.875,927.2813 1884.1094,927.2813 C1882.0625,927.2813 1880.7656,926.1875 1880.7656,924.4844 L1880.7656,923.3906 C1880.7656,921.6094 1882.0156,920.2969 1883.75,920.2969 C1884.3281,920.2969 1884.9375,920.4531 1885.4063,920.7031 C1885.8906,920.9844 1886.0625,921.2031 1886.1563,921.6094 C1886.2188,922.0156 1886.25,922.1406 1886.3906,922.2656 C1886.5313,922.4063 1886.7656,922.5156 1886.9844,922.5156 C1887.25,922.5156 1887.5156,922.375 1887.6875,922.1563 C1887.7969,922 1887.8281,921.8125 1887.8281,921.3906 L1887.8281,919.9688 C1887.8281,919.5313 1887.8125,919.4063 1887.7188,919.25 C1887.5625,918.9844 1887.2813,918.8438 1886.9844,918.8438 C1886.6875,918.8438 1886.4844,918.9375 1886.2656,919.25 L1886.0938,919.1719 Z " fill="#000000"/><text fill="#000000" font-family="sans-serif" font-size="14" lengthAdjust="spacing" textLength="36" x="1904.25" y="928.3467">Time</text><line style="stroke:#181818;stroke-width:0.5;" x1="1787" x2="2025" y1="939.5" y2="939.5"/><text fill="#000000" font-family="sans-serif" font-size="14" lengthAdjust="spacing" textLength="45" x="1792" y="956.4951">-hours</text><text fill="#000000" font-family="sans-serif" font-size="14" lengthAdjust="spacing" textLength="64" x="1792" y="972.792">-minutes</text><text fill="#000000" font-family="sans-serif" font-size="14" lengthAdjust="spacing" textLength="64" x="1792" y="989.0889">-seconds</text><line style="stroke:#181818;stroke-width:0.5;" x1="1787" x2="2025" y1="996.3906" y2="996.3906"/><text fill="#000000" font-family="sans-serif" font-size="14" lengthAdjust="spacing" textLength="228" x="1792" y="1013.3857">+Time(hours, minutes, seconds)</text></g><!--MD5=[de60e6d4f424ae4d0522096f76a59010]
class VaccinationCenter--><g id="elem_VaccinationCenter"><rect codeLine="58" fill="#F1F1F1" height="259.8594" id="VaccinationCenter" rx="2.5" ry="2.5" style="stroke:#181818;stroke-width:0.5;" width="352" x="1730" y="612"/><ellipse cx="1834.75" cy="628" fill="#ADD1B2" rx="11" ry="11" style="stroke:#181818;stroke-width:1.0;"/><path d="M1837.0938,623.6719 C1836.1563,623.2344 1835.5625,623.0938 1834.6875,623.0938 C1832.0625,623.0938 1830.0625,625.1719 1830.0625,627.8906 L1830.0625,629.0156 C1830.0625,631.5938 1832.1719,633.4844 1835.0625,633.4844 C1836.2813,633.4844 1837.4375,633.1875 1838.1875,632.6406 C1838.7656,632.2344 1839.0938,631.7813 1839.0938,631.3906 C1839.0938,630.9375 1838.7031,630.5469 1838.2344,630.5469 C1838.0156,630.5469 1837.8125,630.625 1837.625,630.8125 C1837.1719,631.2969 1837.1719,631.2969 1836.9844,631.3906 C1836.5625,631.6563 1835.875,631.7813 1835.1094,631.7813 C1833.0625,631.7813 1831.7656,630.6875 1831.7656,628.9844 L1831.7656,627.8906 C1831.7656,626.1094 1833.0156,624.7969 1834.75,624.7969 C1835.3281,624.7969 1835.9375,624.9531 1836.4063,625.2031 C1836.8906,625.4844 1837.0625,625.7031 1837.1563,626.1094 C1837.2188,626.5156 1837.25,626.6406 1837.3906,626.7656 C1837.5313,626.9063 1837.7656,627.0156 1837.9844,627.0156 C1838.25,627.0156 1838.5156,626.875 1838.6875,626.6563 C1838.7969,626.5 1838.8281,626.3125 1838.8281,625.8906 L1838.8281,624.4688 C1838.8281,624.0313 1838.8125,623.9063 1838.7188,623.75 C1838.5625,623.4844 1838.2813,623.3438 1837.9844,623.3438 C1837.6875,623.3438 1837.4844,623.4375 1837.2656,623.75 L1837.0938,623.6719 Z " fill="#000000"/><text fill="#000000" font-family="sans-serif" font-size="14" lengthAdjust="spacing" textLength="134" x="1855.25" y="632.8467">VaccinationCenter</text><line style="stroke:#181818;stroke-width:0.5;" x1="1731" x2="2081" y1="644" y2="644"/><text fill="#000000" font-family="sans-serif" font-size="14" lengthAdjust="spacing" textLength="46" x="1736" y="660.9951">-name</text><text fill="#000000" font-family="sans-serif" font-size="14" lengthAdjust="spacing" textLength="61" x="1736" y="677.292">-address</text><text fill="#000000" font-family="sans-serif" font-size="14" lengthAdjust="spacing" textLength="109" x="1736" y="693.5889">-phoneNumber</text><text fill="#000000" font-family="sans-serif" font-size="14" lengthAdjust="spacing" textLength="45" x="1736" y="709.8857">-email</text><text fill="#000000" font-family="sans-serif" font-size="14" lengthAdjust="spacing" textLength="85" x="1736" y="726.1826">-faxNumber</text><text fill="#000000" font-family="sans-serif" font-size="14" lengthAdjust="spacing" textLength="63" x="1736" y="742.4795">-website</text><text fill="#000000" font-family="sans-serif" font-size="14" lengthAdjust="spacing" textLength="105" x="1736" y="758.7764">-openingHours</text><text fill="#000000" font-family="sans-serif" font-size="14" lengthAdjust="spacing" textLength="96" x="1736" y="775.0732">-closingHours</text><text fill="#000000" font-family="sans-serif" font-size="14" lengthAdjust="spacing" textLength="95" x="1736" y="791.3701">-slotDuration</text><text fill="#000000" font-family="sans-serif" font-size="14" lengthAdjust="spacing" textLength="126" x="1736" y="807.667">-slotVaccineLimit</text><line style="stroke:#181818;stroke-width:0.5;" x1="1731" x2="2081" y1="814.9688" y2="814.9688"/><text fill="#000000" font-family="sans-serif" font-size="14" lengthAdjust="spacing" textLength="340" x="1736" y="831.9639">+VaccineCenter(name, address, phoneNumber,</text><text fill="#000000" font-family="sans-serif" font-size="14" lengthAdjust="spacing" textLength="302" x="1740" y="848.2607">email, faxNumber, website, openingHours,</text><text fill="#000000" font-family="sans-serif" font-size="14" lengthAdjust="spacing" textLength="320" x="1740" y="864.5576">closingHours, slotDuration, slotVaccineLimit)</text></g><!--MD5=[dddfbbf04cd811976a8d1b68c187d8cc]
class ScheduleVaccineStore--><g id="elem_ScheduleVaccineStore"><rect codeLine="74" fill="#F1F1F1" height="113.1875" id="ScheduleVaccineStore" rx="2.5" ry="2.5" style="stroke:#181818;stroke-width:0.5;" width="618" x="1597" y="423.5"/><ellipse cx="1821.25" cy="439.5" fill="#ADD1B2" rx="11" ry="11" style="stroke:#181818;stroke-width:1.0;"/><path d="M1823.5938,435.1719 C1822.6563,434.7344 1822.0625,434.5938 1821.1875,434.5938 C1818.5625,434.5938 1816.5625,436.6719 1816.5625,439.3906 L1816.5625,440.5156 C1816.5625,443.0938 1818.6719,444.9844 1821.5625,444.9844 C1822.7813,444.9844 1823.9375,444.6875 1824.6875,444.1406 C1825.2656,443.7344 1825.5938,443.2813 1825.5938,442.8906 C1825.5938,442.4375 1825.2031,442.0469 1824.7344,442.0469 C1824.5156,442.0469 1824.3125,442.125 1824.125,442.3125 C1823.6719,442.7969 1823.6719,442.7969 1823.4844,442.8906 C1823.0625,443.1563 1822.375,443.2813 1821.6094,443.2813 C1819.5625,443.2813 1818.2656,442.1875 1818.2656,440.4844 L1818.2656,439.3906 C1818.2656,437.6094 1819.5156,436.2969 1821.25,436.2969 C1821.8281,436.2969 1822.4375,436.4531 1822.9063,436.7031 C1823.3906,436.9844 1823.5625,437.2031 1823.6563,437.6094 C1823.7188,438.0156 1823.75,438.1406 1823.8906,438.2656 C1824.0313,438.4063 1824.2656,438.5156 1824.4844,438.5156 C1824.75,438.5156 1825.0156,438.375 1825.1875,438.1563 C1825.2969,438 1825.3281,437.8125 1825.3281,437.3906 L1825.3281,435.9688 C1825.3281,435.5313 1825.3125,435.4063 1825.2188,435.25 C1825.0625,434.9844 1824.7813,434.8438 1824.4844,434.8438 C1824.1875,434.8438 1823.9844,434.9375 1823.7656,435.25 L1823.5938,435.1719 Z " fill="#000000"/><text fill="#000000" font-family="sans-serif" font-size="14" lengthAdjust="spacing" textLength="161" x="1841.75" y="444.3467">ScheduleVaccineStore</text><line style="stroke:#181818;stroke-width:0.5;" x1="1598" x2="2214" y1="455.5" y2="455.5"/><line style="stroke:#181818;stroke-width:0.5;" x1="1598" x2="2214" y1="463.5" y2="463.5"/><text fill="#000000" font-family="sans-serif" font-size="14" lengthAdjust="spacing" textLength="606" x="1603" y="480.4951">+scheduleVaccine(SNS user number, vaccination center, date, time, type of vaccine)</text><text fill="#000000" font-family="sans-serif" font-size="14" lengthAdjust="spacing" textLength="293" x="1603" y="496.792">+saveScheduleVaccine(scheduleVaccine)</text><text fill="#000000" font-family="sans-serif" font-size="14" lengthAdjust="spacing" textLength="318" x="1603" y="513.0889">+validateScheduleVaccine(scheduleVaccine)</text><text fill="#000000" font-family="sans-serif" font-size="14" lengthAdjust="spacing" textLength="287" x="1603" y="529.3857">+addScheduleVaccine(scheduleVaccine)</text></g><!--MD5=[1dfe61191ae65b8fa9d989a910888a1b]
class ScheduleVaccineMapper--><g id="elem_ScheduleVaccineMapper"><rect codeLine="89" fill="#F1F1F1" height="64.2969" id="ScheduleVaccineMapper" rx="2.5" ry="2.5" style="stroke:#181818;stroke-width:0.5;" width="208" x="1008" y="232"/><ellipse cx="1023" cy="248" fill="#ADD1B2" rx="11" ry="11" style="stroke:#181818;stroke-width:1.0;"/><path d="M1025.3438,243.6719 C1024.4063,243.2344 1023.8125,243.0938 1022.9375,243.0938 C1020.3125,243.0938 1018.3125,245.1719 1018.3125,247.8906 L1018.3125,249.0156 C1018.3125,251.5938 1020.4219,253.4844 1023.3125,253.4844 C1024.5313,253.4844 1025.6875,253.1875 1026.4375,252.6406 C1027.0156,252.2344 1027.3438,251.7813 1027.3438,251.3906 C1027.3438,250.9375 1026.9531,250.5469 1026.4844,250.5469 C1026.2656,250.5469 1026.0625,250.625 1025.875,250.8125 C1025.4219,251.2969 1025.4219,251.2969 1025.2344,251.3906 C1024.8125,251.6563 1024.125,251.7813 1023.3594,251.7813 C1021.3125,251.7813 1020.0156,250.6875 1020.0156,248.9844 L1020.0156,247.8906 C1020.0156,246.1094 1021.2656,244.7969 1023,244.7969 C1023.5781,244.7969 1024.1875,244.9531 1024.6563,245.2031 C1025.1406,245.4844 1025.3125,245.7031 1025.4063,246.1094 C1025.4688,246.5156 1025.5,246.6406 1025.6406,246.7656 C1025.7813,246.9063 1026.0156,247.0156 1026.2344,247.0156 C1026.5,247.0156 1026.7656,246.875 1026.9375,246.6563 C1027.0469,246.5 1027.0781,246.3125 1027.0781,245.8906 L1027.0781,244.4688 C1027.0781,244.0313 1027.0625,243.9063 1026.9688,243.75 C1026.8125,243.4844 1026.5313,243.3438 1026.2344,243.3438 C1025.9375,243.3438 1025.7344,243.4375 1025.5156,243.75 L1025.3438,243.6719 Z " fill="#000000"/><text fill="#000000" font-family="sans-serif" font-size="14" lengthAdjust="spacing" textLength="176" x="1037" y="252.8467">ScheduleVaccineMapper</text><line style="stroke:#181818;stroke-width:0.5;" x1="1009" x2="1215" y1="264" y2="264"/><line style="stroke:#181818;stroke-width:0.5;" x1="1009" x2="1215" y1="272" y2="272"/><text fill="#000000" font-family="sans-serif" font-size="14" lengthAdjust="spacing" textLength="117" x="1014" y="288.9951">-toModel(svDto)</text></g><!--MD5=[eeddcd52079be367b57321b6d447262c]
class ScheduleVaccineDTO--><g id="elem_ScheduleVaccineDTO"><rect codeLine="97" fill="#F1F1F1" height="145.7813" id="ScheduleVaccineDTO" rx="2.5" ry="2.5" style="stroke:#181818;stroke-width:0.5;" width="339" x="1736.5" y="100"/><ellipse cx="1825.75" cy="116" fill="#ADD1B2" rx="11" ry="11" style="stroke:#181818;stroke-width:1.0;"/><path d="M1828.0938,111.6719 C1827.1563,111.2344 1826.5625,111.0938 1825.6875,111.0938 C1823.0625,111.0938 1821.0625,113.1719 1821.0625,115.8906 L1821.0625,117.0156 C1821.0625,119.5938 1823.1719,121.4844 1826.0625,121.4844 C1827.2813,121.4844 1828.4375,121.1875 1829.1875,120.6406 C1829.7656,120.2344 1830.0938,119.7813 1830.0938,119.3906 C1830.0938,118.9375 1829.7031,118.5469 1829.2344,118.5469 C1829.0156,118.5469 1828.8125,118.625 1828.625,118.8125 C1828.1719,119.2969 1828.1719,119.2969 1827.9844,119.3906 C1827.5625,119.6563 1826.875,119.7813 1826.1094,119.7813 C1824.0625,119.7813 1822.7656,118.6875 1822.7656,116.9844 L1822.7656,115.8906 C1822.7656,114.1094 1824.0156,112.7969 1825.75,112.7969 C1826.3281,112.7969 1826.9375,112.9531 1827.4063,113.2031 C1827.8906,113.4844 1828.0625,113.7031 1828.1563,114.1094 C1828.2188,114.5156 1828.25,114.6406 1828.3906,114.7656 C1828.5313,114.9063 1828.7656,115.0156 1828.9844,115.0156 C1829.25,115.0156 1829.5156,114.875 1829.6875,114.6563 C1829.7969,114.5 1829.8281,114.3125 1829.8281,113.8906 L1829.8281,112.4688 C1829.8281,112.0313 1829.8125,111.9063 1829.7188,111.75 C1829.5625,111.4844 1829.2813,111.3438 1828.9844,111.3438 C1828.6875,111.3438 1828.4844,111.4375 1828.2656,111.75 L1828.0938,111.6719 Z " fill="#000000"/><text fill="#000000" font-family="sans-serif" font-size="14" lengthAdjust="spacing" textLength="152" x="1846.25" y="120.8467">ScheduleVaccineDTO</text><line style="stroke:#181818;stroke-width:0.5;" x1="1737.5" x2="2074.5" y1="132" y2="132"/><text fill="#000000" font-family="sans-serif" font-size="14" lengthAdjust="spacing" textLength="65" x="1742.5" y="148.9951">-snsUser;</text><text fill="#000000" font-family="sans-serif" font-size="14" lengthAdjust="spacing" textLength="143" x="1742.5" y="165.292">-vaccinationCenter;</text><text fill="#000000" font-family="sans-serif" font-size="14" lengthAdjust="spacing" textLength="44" x="1742.5" y="181.5889">-date;</text><text fill="#000000" font-family="sans-serif" font-size="14" lengthAdjust="spacing" textLength="45" x="1742.5" y="197.8857">-time;</text><text fill="#000000" font-family="sans-serif" font-size="14" lengthAdjust="spacing" textLength="101" x="1742.5" y="214.1826">-vaccineType;</text><line style="stroke:#181818;stroke-width:0.5;" x1="1737.5" x2="2074.5" y1="221.4844" y2="221.4844"/><text fill="#000000" font-family="sans-serif" font-size="14" lengthAdjust="spacing" textLength="327" x="1742.5" y="238.4795">+ScheduleVaccineDTO(Date date, Time time)</text></g><!--MD5=[0a402a282eb9440038026730d6cc3205]
reverse link ScheduleVaccine to SNSUser--><g id="link_ScheduleVaccine_SNSUser"><path codeLine="109" d="M1447.69,1087.477 C1478.11,1116.667 1525.52,1158.524 1573,1186 C1615.96,1210.861 1664.85,1232.276 1711.66,1249.946 " fill="none" id="ScheduleVaccine-backto-SNSUser" style="stroke:#181818;stroke-width:1.0;"/><polygon fill="none" points="1438.05,1078.103,1439.5652,1085.1531,1446.6558,1086.4661,1445.1406,1079.4159,1438.05,1078.103" style="stroke:#181818;stroke-width:1.0;"/></g><!--MD5=[d5d433c7883c58947311d1080f91765b]
reverse link ScheduleVaccine to Date--><g id="link_ScheduleVaccine_Date"><path codeLine="110" d="M1502.98,1064.462 C1591.03,1074.875 1725.51,1090.776 1814.33,1101.279 " fill="none" id="ScheduleVaccine-backto-Date" style="stroke:#181818;stroke-width:1.0;"/><polygon fill="none" points="1490.07,1062.935,1495.5581,1067.6127,1501.9868,1064.346,1496.4987,1059.6682,1490.07,1062.935" style="stroke:#181818;stroke-width:1.0;"/></g><!--MD5=[4c118736328e1a38035883cfbabcddd2]
reverse link ScheduleVaccine to Time--><g id="link_ScheduleVaccine_Time"><path codeLine="111" d="M1502.92,1037.777 C1582.01,1023.264 1698.59,1001.873 1785.89,985.856 " fill="none" id="ScheduleVaccine-backto-Time" style="stroke:#181818;stroke-width:1.0;"/><polygon fill="none" points="1490.07,1040.135,1496.6926,1042.9882,1501.8735,1037.9724,1495.2509,1035.1192,1490.07,1040.135" style="stroke:#181818;stroke-width:1.0;"/></g><!--MD5=[faf07ee4774a4925a39ce1ea931e3396]
reverse link ScheduleVaccine to VaccinationCenter--><g id="link_ScheduleVaccine_VaccinationCenter"><path codeLine="112" d="M1441.3,1019.234 C1470.53,983.159 1520.24,926.947 1573,890 C1620.69,856.607 1677.12,828.063 1729.8,805.208 " fill="none" id="ScheduleVaccine-backto-VaccinationCenter" style="stroke:#181818;stroke-width:1.0;"/><polygon fill="none" points="1432.91,1029.74,1439.7803,1027.5494,1440.4007,1020.3651,1433.5304,1022.5556,1432.91,1029.74" style="stroke:#181818;stroke-width:1.0;"/></g><!--MD5=[77f394cc6139a22c0e019720b3e71c2a]
link ScheduleVaccineUI to ScheduleVaccineController--><g id="link_ScheduleVaccineUI_ScheduleVaccineController"><path codeLine="113" d="M188.017,255 C216.823,255 251.149,255 287.527,255 " fill="none" id="ScheduleVaccineUI-to-ScheduleVaccineController" style="stroke:#181818;stroke-width:1.0;stroke-dasharray:7.0,7.0;"/><polygon fill="#181818" points="292.908,255,283.908,251,287.908,255,283.908,259,292.908,255" style="stroke:#181818;stroke-width:1.0;"/></g><!--MD5=[0debf692dbcdfac11f15bbe1559bdbdf]
link controller to mapper--><g id="link_controller_mapper"><path d="M935.0033,331 C935.9379,331 936.8709,331 937.8024,331 C941.5281,331 945.2279,331 948.8981,331 C956.2386,331 963.4607,331 970.5349,331 C974.0719,331 977.5721,331 981.0315,331 C981.8963,331 982.7586,331 983.6184,331 C983.7258,331 983.8332,331 983.9406,331 " fill="none" id="controller-to-mapper" style="stroke:#181818;stroke-width:1.0;stroke-dasharray:7.0,7.0;"/><polygon fill="#181818" points="983.9406,331,974.9406,327,978.9406,331,974.9406,335,983.9406,331" style="stroke:#181818;stroke-width:1.0;"/></g><!--MD5=[f4db482f32edd77abe30d6b96ed6334c]
link controller to domain--><g id="link_controller_domain"><path d="M767.6604,339.0431 C768.2575,339.0702 768.8555,339.0973 769.4544,339.1244 C774.2451,339.3414 779.0895,339.5593 783.9807,339.7777 C803.5452,340.6511 823.8567,341.5313 844.4622,342.388 C885.6732,344.1013 928.0603,345.72 968,347 C1065.975,350.14 1176.135,352.38 1262.2775,353.84 C1267.6614,353.9313 1272.9515,354.0195 1278.1389,354.1046 C1280.7326,354.1472 1283.3007,354.1891 1285.842,354.2302 C1286.4773,354.2404 1287.1109,354.2507 1287.7429,354.2608 " fill="none" id="controller-to-domain" style="stroke:#181818;stroke-width:1.0;stroke-dasharray:7.0,7.0;"/><polygon fill="#181818" points="1287.7429,354.2608,1278.8085,350.1164,1282.7435,354.1803,1278.6797,358.1154,1287.7429,354.2608" style="stroke:#181818;stroke-width:1.0;"/></g><!--MD5=[95af60e6d793701562f73311d2ec55eb]
link controller to dto--><g id="link_controller_dto"><path d="M629.3724,339.2642 C629.685,339.3534 630,339.4429 630.3175,339.5329 C631.5873,339.8927 632.8953,340.2591 634.2403,340.631 C636.9302,341.3748 639.768,342.1407 642.7433,342.9206 C666.5452,349.16 699.144,356.2975 735.2258,360.21 C807.3893,368.035 893.4845,362.96 951,312 C983.432,283.26 934.797,243.84 968,216 C1174.64,42.74 1304.7,234.91 1573,262 C1609.1875,265.655 1647.6706,268.6619 1685.128,271.1183 C1689.8101,271.4253 1694.4763,271.7238 1699.1199,272.0138 C1701.4417,272.1588 1703.7579,272.3018 1706.0676,272.4426 C1707.2225,272.513 1708.3758,272.5829 1709.5273,272.6523 C1710.1031,272.687 1710.6785,272.7216 1711.2534,272.756 " fill="none" id="controller-to-dto" style="stroke:#181818;stroke-width:1.0;stroke-dasharray:7.0,7.0;"/><polygon fill="#181818" points="1711.2534,272.756,1702.5086,268.2251,1706.2623,272.4571,1702.0303,276.2107,1711.2534,272.756" style="stroke:#181818;stroke-width:1.0;"/></g><!--MD5=[868a81ec62f7ffb5c8ad3d4c697bcfae]
link mapper to dto--><g id="link_mapper_dto"><path d="M1240.2592,322.9669 C1314.1122,318.305 1411.5744,312.1525 1509.0338,306 C1606.4931,299.8475 1703.9497,293.695 1777.7914,289.0331 " fill="none" id="mapper-to-dto" style="stroke:#181818;stroke-width:1.0;stroke-dasharray:7.0,7.0;"/><polygon fill="#181818" points="1777.7914,289.0331,1768.5573,285.6081,1772.8013,289.3482,1769.0613,293.5922,1777.7914,289.0331" style="stroke:#181818;stroke-width:1.0;"/></g><!--MD5=[dd712a83684d45c2d6098647f34cdc3e]
link mapper to domain--><g id="link_mapper_domain"><path d="M1210.2239,339.1171 C1210.767,339.1625 1211.3112,339.2079 1211.8565,339.2534 C1212.9469,339.3445 1214.0414,339.4359 1215.1398,339.5276 C1217.3365,339.711 1219.5484,339.8957 1221.7734,340.0814 C1226.2235,340.453 1230.7258,340.8289 1235.263,341.2077 C1244.3374,341.9653 1253.5513,342.7345 1262.765,343.5037 C1267.3719,343.8884 1271.9787,344.273 1276.5681,344.6561 C1278.8628,344.8477 1281.1532,345.0389 1283.4369,345.2295 C1284.5788,345.3249 1285.7191,345.4201 1286.8575,345.5151 C1287.4266,345.5626 1287.9953,345.6101 1288.5635,345.6575 " fill="none" id="mapper-to-domain" style="stroke:#181818;stroke-width:1.0;stroke-dasharray:7.0,7.0;"/><polygon fill="#181818" points="1288.5635,345.6575,1279.9275,340.9227,1283.5808,345.2416,1279.2619,348.8949,1288.5635,345.6575" style="stroke:#181818;stroke-width:1.0;"/></g><!--MD5=[7c93149738b86cc6ff2d6206bb3856af]
link domain to dto--><g id="link_domain_dto"><path d="M1592.6407,328.7615 C1599.9285,327.6471 1607.3019,326.5196 1614.7325,325.3834 C1629.5936,323.111 1644.6831,320.8036 1659.7725,318.4963 C1720.13,309.2669 1780.4856,300.0378 1826.2163,293.0448 C1831.9326,292.1707 1837.4204,291.3315 1842.6511,290.5317 C1845.2665,290.1317 1847.8176,289.7416 1850.3009,289.3619 C1850.9217,289.2669 1851.5382,289.1727 1852.1505,289.079 " fill="none" id="domain-to-dto" style="stroke:#181818;stroke-width:1.0;stroke-dasharray:7.0,7.0;"/><polygon fill="#181818" points="1852.1505,289.079,1842.6493,286.4855,1847.208,289.8348,1843.8586,294.3935,1852.1505,289.079" style="stroke:#181818;stroke-width:1.0;"/></g><!--MD5=[52ae4d8a6b0a2770e74afc7d92a6c1a2]
link Company to ScheduleVaccineStore--><g id="link_Company_ScheduleVaccineStore"><path codeLine="120" d="M1463.78,620.328 C1525.12,600.819 1633.27,566.423 1727.14,536.568 " fill="none" id="Company-ScheduleVaccineStore" style="stroke:#181818;stroke-width:1.0;"/><polygon fill="#000000" points="1529.7648,579.051,1520.2544,578.9917,1522.0359,584.5931,1529.7648,579.051" style="stroke:#000000;stroke-width:1.0;"/><text fill="#000000" font-family="sans-serif" font-size="13" lengthAdjust="spacing" textLength="30" x="1534" y="585.0669">uses</text><text fill="#000000" font-family="sans-serif" font-size="13" lengthAdjust="spacing" textLength="8" x="1471.4131" y="631.255">1</text><text fill="#000000" font-family="sans-serif" font-size="13" lengthAdjust="spacing" textLength="8" x="1695.7111" y="556.8401">1</text></g><!--MD5=[beff4625d4a697ad78ab0fa62496fff5]
@startuml
skinparam classAttributeIconSize 0
left to right direction

package ui {
class ScheduleVaccineUI {

}
}

package core {

package controller {

class ScheduleVaccineController {
+scheduleVaccine(SNS user number, vaccination center, date, time, type of vaccine)
+saveScheduleVaccine()

}
}



package domain {

package model {
class ScheduleVaccine {
}

class Company {

}
class SNSUser {
    -name
    -address
    -sex
    -phoneNumber
    -email
    -birthDate
    -snsUserNumber
    -citizenCardNumber
    +SNSUser(name, address, sex, phoneNumber, email, \nbirthDate, snsUserNumber, citizenCardNumber)
}

class Date {
    -year
    -month
    -day
    -Date(year, month, day)
}

class Time {
    -hours
    -minutes
    -seconds
    +Time(hours, minutes, seconds)
}

class VaccinationCenter {
    -name
    -address
    -phoneNumber
    -email
    -faxNumber
    -website
    -openingHours
    -closingHours
    -slotDuration
    -slotVaccineLimit
    +VaccineCenter(name, address, phoneNumber,\n email, faxNumber, website, openingHours,\n closingHours, slotDuration, slotVaccineLimit)
}
}
package store{

class ScheduleVaccineStore {
  +scheduleVaccine(SNS user number, vaccination center, date, time, type of vaccine)
  +saveScheduleVaccine(scheduleVaccine)
  +validateScheduleVaccine(scheduleVaccine)
  +addScheduleVaccine(scheduleVaccine)

}
}
}




package mapper{

class ScheduleVaccineMapper {

   - toModel(svDto)
}
}

package dto {

class ScheduleVaccineDTO {
   -snsUser;
   -vaccinationCenter;
   -date;
   -time;
   -vaccineType;
   +ScheduleVaccineDTO(Date date, Time time)
}
}
}


ScheduleVaccine o- - SNSUser
ScheduleVaccine o- - Date
ScheduleVaccine o- - Time
ScheduleVaccine o- - VaccinationCenter
ScheduleVaccineUI ..> ScheduleVaccineController
controller ..> mapper
controller ..> domain
controller ..> dto
mapper ..> dto
mapper ..> domain
domain ..> dto
Company "1" - - "1" ScheduleVaccineStore : uses >
@enduml

PlantUML version 1.2022.6beta4(Unknown compile time)
(GPL source distribution)
Java Runtime: Java(TM) SE Runtime Environment
JVM: Java HotSpot(TM) 64-Bit Server VM
Default Encoding: UTF-8
Language: en
Country: US
--></g></svg>