<?xml version="1.0" encoding="UTF-8" standalone="no"?><svg xmlns="http://www.w3.org/2000/svg" xmlns:xlink="http://www.w3.org/1999/xlink" contentStyleType="text/css" height="1810px" preserveAspectRatio="none" style="width:2773px;height:1810px;background:#FFFFFF;" version="1.1" viewBox="0 0 2773 1810" width="2773px" zoomAndPan="magnify"><defs/><g><rect fill="#FFFFFF" height="1619.668" style="stroke:#181818;stroke-width:1.0;" width="10" x="45" y="91.4883"/><rect fill="#FFFFFF" height="29.3105" style="stroke:#181818;stroke-width:1.0;" width="10" x="428" y="112.7988"/><rect fill="#FFFFFF" height="325.1738" style="stroke:#181818;stroke-width:1.0;" width="10" x="428" y="171.4199"/><rect fill="#FFFFFF" height="29.3105" style="stroke:#181818;stroke-width:1.0;" width="10" x="428" y="525.9043"/><rect fill="#FFFFFF" height="261.5527" style="stroke:#181818;stroke-width:1.0;" width="10" x="428" y="584.5254"/><rect fill="#FFFFFF" height="573.9043" style="stroke:#181818;stroke-width:1.0;" width="10" x="428" y="875.3887"/><rect fill="#FFFFFF" height="232.5527" style="stroke:#181818;stroke-width:1.0;" width="10" x="428" y="1478.6035"/><rect fill="#FFFFFF" height="118.6211" style="stroke:#181818;stroke-width:1.0;" width="10" x="683" y="200.7305"/><rect fill="#FFFFFF" height="118.6211" style="stroke:#181818;stroke-width:1.0;" width="10" x="683" y="348.6621"/><rect fill="#FFFFFF" height="30" style="stroke:#181818;stroke-width:1.0;" width="10" x="683" y="613.8359"/><rect fill="#FFFFFF" height="118.6211" style="stroke:#181818;stroke-width:1.0;" width="10" x="683" y="698.1465"/><rect fill="#FFFFFF" height="515.2832" style="stroke:#181818;stroke-width:1.0;" width="10" x="683" y="904.6992"/><rect fill="#FFFFFF" height="212.2422" style="stroke:#181818;stroke-width:1.0;" width="10" x="683" y="1507.9141"/><rect fill="#FFFFFF" height="30" style="stroke:#181818;stroke-width:1.0;" width="10" x="963" y="230.041"/><rect fill="#FFFFFF" height="30" style="stroke:#181818;stroke-width:1.0;" width="10" x="963" y="377.9727"/><rect fill="#FFFFFF" height="30" style="stroke:#181818;stroke-width:1.0;" width="10" x="963" y="727.457"/><rect fill="#FFFFFF" height="30" style="stroke:#181818;stroke-width:1.0;" width="10" x="963" y="934.0098"/><rect fill="#FFFFFF" height="30" style="stroke:#181818;stroke-width:1.0;" width="10" x="1068" y="289.3516"/><rect fill="#FFFFFF" height="30" style="stroke:#181818;stroke-width:1.0;" width="10" x="1288.5" y="437.2832"/><rect fill="#FFFFFF" height="30" style="stroke:#181818;stroke-width:1.0;" width="10" x="1570" y="786.7676"/><rect fill="#FFFFFF" height="355.1738" style="stroke:#181818;stroke-width:1.0;" width="10" x="1846.5" y="993.3203"/><rect fill="#FFFFFF" height="30" style="stroke:#181818;stroke-width:1.0;" width="10" x="1846.5" y="1389.9824"/><rect fill="#FFFFFF" height="182.9316" style="stroke:#181818;stroke-width:1.0;" width="10" x="1846.5" y="1537.2246"/><rect fill="#FFFFFF" height="28" style="stroke:#181818;stroke-width:1.0;" width="10" x="1851.5" y="1574.5352"/><rect fill="#FFFFFF" height="28" style="stroke:#181818;stroke-width:1.0;" width="10" x="1851.5" y="1646.8457"/><rect fill="#FFFFFF" height="325.8633" style="stroke:#181818;stroke-width:1.0;" width="10" x="2214.5" y="1022.6309"/><rect fill="#FFFFFF" height="30" style="stroke:#181818;stroke-width:1.0;" width="10" x="2538.5" y="1051.9414"/><rect fill="#FFFFFF" height="30" style="stroke:#181818;stroke-width:1.0;" width="10" x="2538.5" y="1111.252"/><rect fill="#FFFFFF" height="30" style="stroke:#181818;stroke-width:1.0;" width="10" x="2538.5" y="1170.5625"/><rect fill="#FFFFFF" height="30" style="stroke:#181818;stroke-width:1.0;" width="10" x="2538.5" y="1229.873"/><rect fill="#FFFFFF" height="30" style="stroke:#181818;stroke-width:1.0;" width="10" x="2538.5" y="1289.1836"/><line style="stroke:#181818;stroke-width:0.5;stroke-dasharray:5.0,5.0;" x1="50" x2="50" y1="81.4883" y2="1729.1563"/><line style="stroke:#181818;stroke-width:0.5;stroke-dasharray:5.0,5.0;" x1="433" x2="433" y1="81.4883" y2="1729.1563"/><line style="stroke:#181818;stroke-width:0.5;stroke-dasharray:5.0,5.0;" x1="688" x2="688" y1="81.4883" y2="1729.1563"/><line style="stroke:#181818;stroke-width:0.5;stroke-dasharray:5.0,5.0;" x1="967.5" x2="967.5" y1="81.4883" y2="1729.1563"/><line style="stroke:#181818;stroke-width:0.5;stroke-dasharray:5.0,5.0;" x1="1072.5" x2="1072.5" y1="81.4883" y2="1729.1563"/><line style="stroke:#181818;stroke-width:0.5;stroke-dasharray:5.0,5.0;" x1="1171.5" x2="1171.5" y1="81.4883" y2="1729.1563"/><line style="stroke:#181818;stroke-width:0.5;stroke-dasharray:5.0,5.0;" x1="1293.5" x2="1293.5" y1="81.4883" y2="1729.1563"/><line style="stroke:#181818;stroke-width:0.5;stroke-dasharray:5.0,5.0;" x1="1437.5" x2="1437.5" y1="81.4883" y2="1729.1563"/><line style="stroke:#181818;stroke-width:0.5;stroke-dasharray:5.0,5.0;" x1="1574.5" x2="1574.5" y1="81.4883" y2="1729.1563"/><line style="stroke:#181818;stroke-width:0.5;stroke-dasharray:5.0,5.0;" x1="1705.5" x2="1705.5" y1="81.4883" y2="1729.1563"/><line style="stroke:#181818;stroke-width:0.5;stroke-dasharray:5.0,5.0;" x1="1851.5" x2="1851.5" y1="81.4883" y2="1729.1563"/><line style="stroke:#181818;stroke-width:0.5;stroke-dasharray:5.0,5.0;" x1="2051.5" x2="2051.5" y1="81.4883" y2="1729.1563"/><line style="stroke:#181818;stroke-width:0.5;stroke-dasharray:5.0,5.0;" x1="2219.5" x2="2219.5" y1="81.4883" y2="1729.1563"/><line style="stroke:#181818;stroke-width:0.5;stroke-dasharray:5.0,5.0;" x1="2543.5" x2="2543.5" y1="81.4883" y2="1729.1563"/><line style="stroke:#181818;stroke-width:0.5;stroke-dasharray:5.0,5.0;" x1="2703.5" x2="2703.5" y1="1357.9277" y2="1729.1563"/><text fill="#000000" font-family="sans-serif" font-size="14" lengthAdjust="spacing" textLength="84" x="5" y="78.5352">Receptionist</text><ellipse cx="50" cy="13.5" fill="#E2E2F0" rx="8" ry="8" style="stroke:#181818;stroke-width:0.5;"/><path d="M50,21.5 L50,48.5 M37,29.5 L63,29.5 M50,48.5 L37,63.5 M50,48.5 L63,63.5 " fill="none" style="stroke:#181818;stroke-width:0.5;"/><text fill="#000000" font-family="sans-serif" font-size="14" lengthAdjust="spacing" textLength="84" x="5" y="1741.6914">Receptionist</text><ellipse cx="50" cy="1753.1445" fill="#E2E2F0" rx="8" ry="8" style="stroke:#181818;stroke-width:0.5;"/><path d="M50,1761.1445 L50,1788.1445 M37,1769.1445 L63,1769.1445 M50,1788.1445 L37,1803.1445 M50,1788.1445 L63,1803.1445 " fill="none" style="stroke:#181818;stroke-width:0.5;"/><rect fill="#E2E2F0" height="46.9766" rx="2.5" ry="2.5" style="stroke:#181818;stroke-width:0.5;" width="146" x="360" y="33.5117"/><text fill="#000000" font-family="sans-serif" font-size="14" lengthAdjust="spacing" textLength="4" x="431" y="54.0469">:</text><text fill="#000000" font-family="sans-serif" font-size="14" lengthAdjust="spacing" textLength="128" x="371" y="70.5352">ScheduleVaccineUI</text><rect fill="#E2E2F0" height="46.9766" rx="2.5" ry="2.5" style="stroke:#181818;stroke-width:0.5;" width="146" x="360" y="1728.1563"/><text fill="#000000" font-family="sans-serif" font-size="14" lengthAdjust="spacing" textLength="4" x="431" y="1748.6914">:</text><text fill="#000000" font-family="sans-serif" font-size="14" lengthAdjust="spacing" textLength="128" x="371" y="1765.1797">ScheduleVaccineUI</text><rect fill="#E2E2F0" height="46.9766" rx="2.5" ry="2.5" style="stroke:#181818;stroke-width:0.5;" width="202" x="587" y="33.5117"/><text fill="#000000" font-family="sans-serif" font-size="14" lengthAdjust="spacing" textLength="4" x="686" y="54.0469">:</text><text fill="#000000" font-family="sans-serif" font-size="14" lengthAdjust="spacing" textLength="184" x="598" y="70.5352">ScheduleVaccineController</text><rect fill="#E2E2F0" height="46.9766" rx="2.5" ry="2.5" style="stroke:#181818;stroke-width:0.5;" width="202" x="587" y="1728.1563"/><text fill="#000000" font-family="sans-serif" font-size="14" lengthAdjust="spacing" textLength="4" x="686" y="1748.6914">:</text><text fill="#000000" font-family="sans-serif" font-size="14" lengthAdjust="spacing" textLength="184" x="598" y="1765.1797">ScheduleVaccineController</text><rect fill="#E2E2F0" height="46.9766" rx="2.5" ry="2.5" style="stroke:#181818;stroke-width:0.5;" width="83" x="926.5" y="33.5117"/><text fill="#000000" font-family="sans-serif" font-size="14" lengthAdjust="spacing" textLength="4" x="966" y="54.0469">:</text><text fill="#000000" font-family="sans-serif" font-size="14" lengthAdjust="spacing" textLength="65" x="937.5" y="70.5352">Company</text><rect fill="#E2E2F0" height="46.9766" rx="2.5" ry="2.5" style="stroke:#181818;stroke-width:0.5;" width="83" x="926.5" y="1728.1563"/><text fill="#000000" font-family="sans-serif" font-size="14" lengthAdjust="spacing" textLength="4" x="966" y="1748.6914">:</text><text fill="#000000" font-family="sans-serif" font-size="14" lengthAdjust="spacing" textLength="65" x="937.5" y="1765.1797">Company</text><rect fill="#E2E2F0" height="46.9766" rx="2.5" ry="2.5" style="stroke:#181818;stroke-width:0.5;" width="107" x="1019.5" y="33.5117"/><text fill="#000000" font-family="sans-serif" font-size="14" lengthAdjust="spacing" textLength="56" x="1045" y="54.0469">suStore:</text><text fill="#000000" font-family="sans-serif" font-size="14" lengthAdjust="spacing" textLength="93" x="1026.5" y="70.5352">SNSUserStore</text><rect fill="#E2E2F0" height="46.9766" rx="2.5" ry="2.5" style="stroke:#181818;stroke-width:0.5;" width="107" x="1019.5" y="1728.1563"/><text fill="#000000" font-family="sans-serif" font-size="14" lengthAdjust="spacing" textLength="56" x="1045" y="1748.6914">suStore:</text><text fill="#000000" font-family="sans-serif" font-size="14" lengthAdjust="spacing" textLength="93" x="1026.5" y="1765.1797">SNSUserStore</text><rect fill="#E2E2F0" height="46.9766" rx="2.5" ry="2.5" style="stroke:#181818;stroke-width:0.5;" width="71" x="1136.5" y="33.5117"/><text fill="#000000" font-family="sans-serif" font-size="14" lengthAdjust="spacing" textLength="20" x="1162" y="54.0469">su:</text><text fill="#000000" font-family="sans-serif" font-size="14" lengthAdjust="spacing" textLength="57" x="1143.5" y="70.5352">SNSUser</text><rect fill="#E2E2F0" height="46.9766" rx="2.5" ry="2.5" style="stroke:#181818;stroke-width:0.5;" width="71" x="1136.5" y="1728.1563"/><text fill="#000000" font-family="sans-serif" font-size="14" lengthAdjust="spacing" textLength="20" x="1162" y="1748.6914">su:</text><text fill="#000000" font-family="sans-serif" font-size="14" lengthAdjust="spacing" textLength="57" x="1143.5" y="1765.1797">SNSUser</text><rect fill="#E2E2F0" height="46.9766" rx="2.5" ry="2.5" style="stroke:#181818;stroke-width:0.5;" width="152" x="1217.5" y="33.5117"/><text fill="#000000" font-family="sans-serif" font-size="14" lengthAdjust="spacing" textLength="54" x="1264.5" y="54.0469">vcStore:</text><text fill="#000000" font-family="sans-serif" font-size="14" lengthAdjust="spacing" textLength="134" x="1228.5" y="70.5352">VaccineCenterStore</text><rect fill="#E2E2F0" height="46.9766" rx="2.5" ry="2.5" style="stroke:#181818;stroke-width:0.5;" width="152" x="1217.5" y="1728.1563"/><text fill="#000000" font-family="sans-serif" font-size="14" lengthAdjust="spacing" textLength="54" x="1264.5" y="1748.6914">vcStore:</text><text fill="#000000" font-family="sans-serif" font-size="14" lengthAdjust="spacing" textLength="134" x="1228.5" y="1765.1797">VaccineCenterStore</text><rect fill="#E2E2F0" height="46.9766" rx="2.5" ry="2.5" style="stroke:#181818;stroke-width:0.5;" width="116" x="1379.5" y="33.5117"/><text fill="#000000" font-family="sans-serif" font-size="14" lengthAdjust="spacing" textLength="18" x="1428.5" y="54.0469">vc:</text><text fill="#000000" font-family="sans-serif" font-size="14" lengthAdjust="spacing" textLength="98" x="1390.5" y="70.5352">VaccineCenter</text><rect fill="#E2E2F0" height="46.9766" rx="2.5" ry="2.5" style="stroke:#181818;stroke-width:0.5;" width="116" x="1379.5" y="1728.1563"/><text fill="#000000" font-family="sans-serif" font-size="14" lengthAdjust="spacing" textLength="18" x="1428.5" y="1748.6914">vc:</text><text fill="#000000" font-family="sans-serif" font-size="14" lengthAdjust="spacing" textLength="98" x="1390.5" y="1765.1797">VaccineCenter</text><rect fill="#E2E2F0" height="46.9766" rx="2.5" ry="2.5" style="stroke:#181818;stroke-width:0.5;" width="139" x="1505.5" y="33.5117"/><text fill="#000000" font-family="sans-serif" font-size="14" lengthAdjust="spacing" textLength="52" x="1549" y="54.0469">vtStore:</text><text fill="#000000" font-family="sans-serif" font-size="14" lengthAdjust="spacing" textLength="121" x="1516.5" y="70.5352">VaccineTypeStore</text><rect fill="#E2E2F0" height="46.9766" rx="2.5" ry="2.5" style="stroke:#181818;stroke-width:0.5;" width="139" x="1505.5" y="1728.1563"/><text fill="#000000" font-family="sans-serif" font-size="14" lengthAdjust="spacing" textLength="52" x="1549" y="1748.6914">vtStore:</text><text fill="#000000" font-family="sans-serif" font-size="14" lengthAdjust="spacing" textLength="121" x="1516.5" y="1765.1797">VaccineTypeStore</text><rect fill="#E2E2F0" height="46.9766" rx="2.5" ry="2.5" style="stroke:#181818;stroke-width:0.5;" width="103" x="1654.5" y="33.5117"/><text fill="#000000" font-family="sans-serif" font-size="14" lengthAdjust="spacing" textLength="16" x="1696" y="54.0469">vt:</text><text fill="#000000" font-family="sans-serif" font-size="14" lengthAdjust="spacing" textLength="85" x="1665.5" y="70.5352">VaccineType</text><rect fill="#E2E2F0" height="46.9766" rx="2.5" ry="2.5" style="stroke:#181818;stroke-width:0.5;" width="103" x="1654.5" y="1728.1563"/><text fill="#000000" font-family="sans-serif" font-size="14" lengthAdjust="spacing" textLength="16" x="1696" y="1748.6914">vt:</text><text fill="#000000" font-family="sans-serif" font-size="14" lengthAdjust="spacing" textLength="85" x="1665.5" y="1765.1797">VaccineType</text><rect fill="#E2E2F0" height="46.9766" rx="2.5" ry="2.5" style="stroke:#181818;stroke-width:0.5;" width="168" x="1767.5" y="33.5117"/><text fill="#000000" font-family="sans-serif" font-size="14" lengthAdjust="spacing" textLength="54" x="1824.5" y="54.0469">svStore:</text><text fill="#000000" font-family="sans-serif" font-size="14" lengthAdjust="spacing" textLength="150" x="1778.5" y="70.5352">ScheduleVaccineStore</text><rect fill="#E2E2F0" height="46.9766" rx="2.5" ry="2.5" style="stroke:#181818;stroke-width:0.5;" width="168" x="1767.5" y="1728.1563"/><text fill="#000000" font-family="sans-serif" font-size="14" lengthAdjust="spacing" textLength="54" x="1824.5" y="1748.6914">svStore:</text><text fill="#000000" font-family="sans-serif" font-size="14" lengthAdjust="spacing" textLength="150" x="1778.5" y="1765.1797">ScheduleVaccineStore</text><rect fill="#E2E2F0" height="46.9766" rx="2.5" ry="2.5" style="stroke:#181818;stroke-width:0.5;" width="132" x="1985.5" y="33.5117"/><text fill="#000000" font-family="sans-serif" font-size="14" lengthAdjust="spacing" textLength="18" x="2040.5" y="54.0469">sv:</text><text fill="#000000" font-family="sans-serif" font-size="14" lengthAdjust="spacing" textLength="114" x="1996.5" y="70.5352">ScheduleVaccine</text><rect fill="#E2E2F0" height="46.9766" rx="2.5" ry="2.5" style="stroke:#181818;stroke-width:0.5;" width="132" x="1985.5" y="1728.1563"/><text fill="#000000" font-family="sans-serif" font-size="14" lengthAdjust="spacing" textLength="18" x="2040.5" y="1748.6914">sv:</text><text fill="#000000" font-family="sans-serif" font-size="14" lengthAdjust="spacing" textLength="114" x="1996.5" y="1765.1797">ScheduleVaccine</text><rect fill="#E2E2F0" height="46.9766" rx="2.5" ry="2.5" style="stroke:#181818;stroke-width:0.5;" width="184" x="2127.5" y="33.5117"/><text fill="#000000" font-family="sans-serif" font-size="14" lengthAdjust="spacing" textLength="70" x="2184.5" y="54.0469">svMapper:</text><text fill="#000000" font-family="sans-serif" font-size="14" lengthAdjust="spacing" textLength="166" x="2138.5" y="70.5352">ScheduleVaccineMapper</text><rect fill="#E2E2F0" height="46.9766" rx="2.5" ry="2.5" style="stroke:#181818;stroke-width:0.5;" width="184" x="2127.5" y="1728.1563"/><text fill="#000000" font-family="sans-serif" font-size="14" lengthAdjust="spacing" textLength="70" x="2184.5" y="1748.6914">svMapper:</text><text fill="#000000" font-family="sans-serif" font-size="14" lengthAdjust="spacing" textLength="166" x="2138.5" y="1765.1797">ScheduleVaccineMapper</text><rect fill="#E2E2F0" height="46.9766" rx="2.5" ry="2.5" style="stroke:#181818;stroke-width:0.5;" width="162" x="2462.5" y="33.5117"/><text fill="#000000" font-family="sans-serif" font-size="14" lengthAdjust="spacing" textLength="48" x="2517.5" y="54.0469">svDTO:</text><text fill="#000000" font-family="sans-serif" font-size="14" lengthAdjust="spacing" textLength="144" x="2473.5" y="70.5352">ScheduleVaccineDTO</text><rect fill="#E2E2F0" height="46.9766" rx="2.5" ry="2.5" style="stroke:#181818;stroke-width:0.5;" width="162" x="2462.5" y="1728.1563"/><text fill="#000000" font-family="sans-serif" font-size="14" lengthAdjust="spacing" textLength="48" x="2517.5" y="1748.6914">svDTO:</text><text fill="#000000" font-family="sans-serif" font-size="14" lengthAdjust="spacing" textLength="144" x="2473.5" y="1765.1797">ScheduleVaccineDTO</text><rect fill="#E2E2F0" height="30.4883" rx="2.5" ry="2.5" style="stroke:#181818;stroke-width:0.5;" width="128" x="2639.5" y="1728.1563"/><text fill="#000000" font-family="sans-serif" font-size="14" lengthAdjust="spacing" textLength="114" x="2646.5" y="1748.6914">VaccineSchedule</text><rect fill="#FFFFFF" height="1619.668" style="stroke:#181818;stroke-width:1.0;" width="10" x="45" y="91.4883"/><rect fill="#FFFFFF" height="29.3105" style="stroke:#181818;stroke-width:1.0;" width="10" x="428" y="112.7988"/><rect fill="#FFFFFF" height="325.1738" style="stroke:#181818;stroke-width:1.0;" width="10" x="428" y="171.4199"/><rect fill="#FFFFFF" height="29.3105" style="stroke:#181818;stroke-width:1.0;" width="10" x="428" y="525.9043"/><rect fill="#FFFFFF" height="261.5527" style="stroke:#181818;stroke-width:1.0;" width="10" x="428" y="584.5254"/><rect fill="#FFFFFF" height="573.9043" style="stroke:#181818;stroke-width:1.0;" width="10" x="428" y="875.3887"/><rect fill="#FFFFFF" height="232.5527" style="stroke:#181818;stroke-width:1.0;" width="10" x="428" y="1478.6035"/><rect fill="#FFFFFF" height="118.6211" style="stroke:#181818;stroke-width:1.0;" width="10" x="683" y="200.7305"/><rect fill="#FFFFFF" height="118.6211" style="stroke:#181818;stroke-width:1.0;" width="10" x="683" y="348.6621"/><rect fill="#FFFFFF" height="30" style="stroke:#181818;stroke-width:1.0;" width="10" x="683" y="613.8359"/><rect fill="#FFFFFF" height="118.6211" style="stroke:#181818;stroke-width:1.0;" width="10" x="683" y="698.1465"/><rect fill="#FFFFFF" height="515.2832" style="stroke:#181818;stroke-width:1.0;" width="10" x="683" y="904.6992"/><rect fill="#FFFFFF" height="212.2422" style="stroke:#181818;stroke-width:1.0;" width="10" x="683" y="1507.9141"/><rect fill="#FFFFFF" height="30" style="stroke:#181818;stroke-width:1.0;" width="10" x="963" y="230.041"/><rect fill="#FFFFFF" height="30" style="stroke:#181818;stroke-width:1.0;" width="10" x="963" y="377.9727"/><rect fill="#FFFFFF" height="30" style="stroke:#181818;stroke-width:1.0;" width="10" x="963" y="727.457"/><rect fill="#FFFFFF" height="30" style="stroke:#181818;stroke-width:1.0;" width="10" x="963" y="934.0098"/><rect fill="#FFFFFF" height="30" style="stroke:#181818;stroke-width:1.0;" width="10" x="1068" y="289.3516"/><rect fill="#FFFFFF" height="30" style="stroke:#181818;stroke-width:1.0;" width="10" x="1288.5" y="437.2832"/><rect fill="#FFFFFF" height="30" style="stroke:#181818;stroke-width:1.0;" width="10" x="1570" y="786.7676"/><rect fill="#FFFFFF" height="355.1738" style="stroke:#181818;stroke-width:1.0;" width="10" x="1846.5" y="993.3203"/><rect fill="#FFFFFF" height="30" style="stroke:#181818;stroke-width:1.0;" width="10" x="1846.5" y="1389.9824"/><rect fill="#FFFFFF" height="182.9316" style="stroke:#181818;stroke-width:1.0;" width="10" x="1846.5" y="1537.2246"/><rect fill="#FFFFFF" height="28" style="stroke:#181818;stroke-width:1.0;" width="10" x="1851.5" y="1574.5352"/><rect fill="#FFFFFF" height="28" style="stroke:#181818;stroke-width:1.0;" width="10" x="1851.5" y="1646.8457"/><rect fill="#FFFFFF" height="325.8633" style="stroke:#181818;stroke-width:1.0;" width="10" x="2214.5" y="1022.6309"/><rect fill="#FFFFFF" height="30" style="stroke:#181818;stroke-width:1.0;" width="10" x="2538.5" y="1051.9414"/><rect fill="#FFFFFF" height="30" style="stroke:#181818;stroke-width:1.0;" width="10" x="2538.5" y="1111.252"/><rect fill="#FFFFFF" height="30" style="stroke:#181818;stroke-width:1.0;" width="10" x="2538.5" y="1170.5625"/><rect fill="#FFFFFF" height="30" style="stroke:#181818;stroke-width:1.0;" width="10" x="2538.5" y="1229.873"/><rect fill="#FFFFFF" height="30" style="stroke:#181818;stroke-width:1.0;" width="10" x="2538.5" y="1289.1836"/><polygon fill="#181818" points="416,108.7988,426,112.7988,416,116.7988,420,112.7988" style="stroke:#181818;stroke-width:1.0;"/><line style="stroke:#181818;stroke-width:1.0;" x1="55" x2="422" y1="112.7988" y2="112.7988"/><text fill="#000000" font-family="sans-serif" font-size="13" font-weight="bold" lengthAdjust="spacing" textLength="9" x="62" y="108.0566">1</text><text fill="#000000" font-family="sans-serif" font-size="13" lengthAdjust="spacing" textLength="203" x="75" y="108.0566">starts by scheduling the vaccine</text><polygon fill="#181818" points="66,138.1094,56,142.1094,66,146.1094,62,142.1094" style="stroke:#181818;stroke-width:1.0;"/><line style="stroke:#181818;stroke-width:1.0;stroke-dasharray:2.0,2.0;" x1="60" x2="432" y1="142.1094" y2="142.1094"/><text fill="#000000" font-family="sans-serif" font-size="13" font-weight="bold" lengthAdjust="spacing" textLength="9" x="72" y="137.3672">2</text><text fill="#000000" font-family="sans-serif" font-size="13" lengthAdjust="spacing" textLength="204" x="85" y="137.3672">requests data (SNS user number)</text><polygon fill="#181818" points="416,167.4199,426,171.4199,416,175.4199,420,171.4199" style="stroke:#181818;stroke-width:1.0;"/><line style="stroke:#181818;stroke-width:1.0;" x1="55" x2="422" y1="171.4199" y2="171.4199"/><text fill="#000000" font-family="sans-serif" font-size="13" font-weight="bold" lengthAdjust="spacing" textLength="9" x="62" y="166.6777">3</text><text fill="#000000" font-family="sans-serif" font-size="13" lengthAdjust="spacing" textLength="131" x="75" y="166.6777">types requested data</text><polygon fill="#181818" points="671,196.7305,681,200.7305,671,204.7305,675,200.7305" style="stroke:#181818;stroke-width:1.0;"/><line style="stroke:#181818;stroke-width:1.0;" x1="438" x2="677" y1="200.7305" y2="200.7305"/><text fill="#000000" font-family="sans-serif" font-size="13" font-weight="bold" lengthAdjust="spacing" textLength="9" x="445" y="195.9883">4</text><text fill="#000000" font-family="sans-serif" font-size="13" lengthAdjust="spacing" textLength="202" x="458" y="195.9883">createSNSUser (snsUserNumber)</text><polygon fill="#181818" points="951,226.041,961,230.041,951,234.041,955,230.041" style="stroke:#181818;stroke-width:1.0;"/><line style="stroke:#181818;stroke-width:1.0;" x1="693" x2="957" y1="230.041" y2="230.041"/><text fill="#000000" font-family="sans-serif" font-size="13" font-weight="bold" lengthAdjust="spacing" textLength="9" x="700" y="225.2988">5</text><text fill="#000000" font-family="sans-serif" font-size="13" lengthAdjust="spacing" textLength="177" x="713" y="225.2988">suStore = getSNSUserStore()</text><polygon fill="#181818" points="1056,285.3516,1066,289.3516,1056,293.3516,1060,289.3516" style="stroke:#181818;stroke-width:1.0;"/><line style="stroke:#181818;stroke-width:1.0;" x1="693" x2="1062" y1="289.3516" y2="289.3516"/><text fill="#000000" font-family="sans-serif" font-size="13" font-weight="bold" lengthAdjust="spacing" textLength="9" x="700" y="284.6094">6</text><text fill="#000000" font-family="sans-serif" font-size="13" lengthAdjust="spacing" textLength="213" x="713" y="284.6094">su = getSNSUser(snsUserNumber)</text><polygon fill="#181818" points="671,344.6621,681,348.6621,671,352.6621,675,348.6621" style="stroke:#181818;stroke-width:1.0;"/><line style="stroke:#181818;stroke-width:1.0;" x1="438" x2="677" y1="348.6621" y2="348.6621"/><text fill="#000000" font-family="sans-serif" font-size="13" font-weight="bold" lengthAdjust="spacing" textLength="9" x="445" y="343.9199">7</text><text fill="#000000" font-family="sans-serif" font-size="13" lengthAdjust="spacing" textLength="193" x="458" y="343.9199">vcI=getVaccinationCenterList()</text><polygon fill="#181818" points="951,373.9727,961,377.9727,951,381.9727,955,377.9727" style="stroke:#181818;stroke-width:1.0;"/><line style="stroke:#181818;stroke-width:1.0;" x1="693" x2="957" y1="377.9727" y2="377.9727"/><text fill="#000000" font-family="sans-serif" font-size="13" font-weight="bold" lengthAdjust="spacing" textLength="9" x="700" y="373.2305">8</text><text fill="#000000" font-family="sans-serif" font-size="13" lengthAdjust="spacing" textLength="238" x="713" y="373.2305">vcStore = getVaccinationCenterStore()</text><polygon fill="#181818" points="1276.5,433.2832,1286.5,437.2832,1276.5,441.2832,1280.5,437.2832" style="stroke:#181818;stroke-width:1.0;"/><line style="stroke:#181818;stroke-width:1.0;" x1="693" x2="1282.5" y1="437.2832" y2="437.2832"/><text fill="#000000" font-family="sans-serif" font-size="13" font-weight="bold" lengthAdjust="spacing" textLength="9" x="700" y="432.541">9</text><text fill="#000000" font-family="sans-serif" font-size="13" lengthAdjust="spacing" textLength="165" x="713" y="432.541">getVaccinationCenterList()</text><polygon fill="#181818" points="66,492.5938,56,496.5938,66,500.5938,62,496.5938" style="stroke:#181818;stroke-width:1.0;"/><line style="stroke:#181818;stroke-width:1.0;stroke-dasharray:2.0,2.0;" x1="60" x2="432" y1="496.5938" y2="496.5938"/><text fill="#000000" font-family="sans-serif" font-size="13" font-weight="bold" lengthAdjust="spacing" textLength="18" x="72" y="491.8516">10</text><text fill="#000000" font-family="sans-serif" font-size="13" lengthAdjust="spacing" textLength="327" x="94" y="491.8516">shows the vaccine centers list and ask to select one</text><polygon fill="#181818" points="416,521.9043,426,525.9043,416,529.9043,420,525.9043" style="stroke:#181818;stroke-width:1.0;"/><line style="stroke:#181818;stroke-width:1.0;" x1="55" x2="422" y1="525.9043" y2="525.9043"/><text fill="#000000" font-family="sans-serif" font-size="13" font-weight="bold" lengthAdjust="spacing" textLength="18" x="62" y="521.1621">11</text><text fill="#000000" font-family="sans-serif" font-size="13" lengthAdjust="spacing" textLength="71" x="84" y="521.1621">selects one</text><polygon fill="#181818" points="66,551.2148,56,555.2148,66,559.2148,62,555.2148" style="stroke:#181818;stroke-width:1.0;"/><line style="stroke:#181818;stroke-width:1.0;stroke-dasharray:2.0,2.0;" x1="60" x2="432" y1="555.2148" y2="555.2148"/><text fill="#000000" font-family="sans-serif" font-size="13" font-weight="bold" lengthAdjust="spacing" textLength="18" x="72" y="550.4727">12</text><text fill="#000000" font-family="sans-serif" font-size="13" lengthAdjust="spacing" textLength="183" x="94" y="550.4727">requests data (date and time)</text><polygon fill="#181818" points="416,580.5254,426,584.5254,416,588.5254,420,584.5254" style="stroke:#181818;stroke-width:1.0;"/><line style="stroke:#181818;stroke-width:1.0;" x1="55" x2="422" y1="584.5254" y2="584.5254"/><text fill="#000000" font-family="sans-serif" font-size="13" font-weight="bold" lengthAdjust="spacing" textLength="18" x="62" y="579.7832">13</text><text fill="#000000" font-family="sans-serif" font-size="13" lengthAdjust="spacing" textLength="131" x="84" y="579.7832">types requested data</text><polygon fill="#181818" points="671,609.8359,681,613.8359,671,617.8359,675,613.8359" style="stroke:#181818;stroke-width:1.0;"/><line style="stroke:#181818;stroke-width:1.0;" x1="438" x2="677" y1="613.8359" y2="613.8359"/><text fill="#000000" font-family="sans-serif" font-size="13" font-weight="bold" lengthAdjust="spacing" textLength="18" x="445" y="609.0938">14</text><text fill="#000000" font-family="sans-serif" font-size="13" lengthAdjust="spacing" textLength="204" x="467" y="609.0938">verifySlotAvailability(date , time)</text><polygon fill="#181818" points="671,694.1465,681,698.1465,671,702.1465,675,698.1465" style="stroke:#181818;stroke-width:1.0;"/><line style="stroke:#181818;stroke-width:1.0;" x1="438" x2="677" y1="698.1465" y2="698.1465"/><text fill="#000000" font-family="sans-serif" font-size="13" font-weight="bold" lengthAdjust="spacing" textLength="18" x="445" y="693.4043">15</text><text fill="#000000" font-family="sans-serif" font-size="13" lengthAdjust="spacing" textLength="163" x="467" y="693.4043">vtI = getVaccineTypeList()</text><polygon fill="#181818" points="951,723.457,961,727.457,951,731.457,955,727.457" style="stroke:#181818;stroke-width:1.0;"/><line style="stroke:#181818;stroke-width:1.0;" x1="693" x2="957" y1="727.457" y2="727.457"/><text fill="#000000" font-family="sans-serif" font-size="13" font-weight="bold" lengthAdjust="spacing" textLength="18" x="700" y="722.7148">16</text><text fill="#000000" font-family="sans-serif" font-size="13" lengthAdjust="spacing" textLength="200" x="722" y="722.7148">vtStore = getVaccineTypeStore()</text><polygon fill="#181818" points="1558,782.7676,1568,786.7676,1558,790.7676,1562,786.7676" style="stroke:#181818;stroke-width:1.0;"/><line style="stroke:#181818;stroke-width:1.0;" x1="693" x2="1564" y1="786.7676" y2="786.7676"/><text fill="#000000" font-family="sans-serif" font-size="13" font-weight="bold" lengthAdjust="spacing" textLength="18" x="700" y="782.0254">17</text><text fill="#000000" font-family="sans-serif" font-size="13" lengthAdjust="spacing" textLength="129" x="722" y="782.0254">getVaccineTypeList()</text><polygon fill="#181818" points="66,842.0781,56,846.0781,66,850.0781,62,846.0781" style="stroke:#181818;stroke-width:1.0;"/><line style="stroke:#181818;stroke-width:1.0;stroke-dasharray:2.0,2.0;" x1="60" x2="432" y1="846.0781" y2="846.0781"/><text fill="#000000" font-family="sans-serif" font-size="13" font-weight="bold" lengthAdjust="spacing" textLength="18" x="72" y="841.3359">18</text><text fill="#000000" font-family="sans-serif" font-size="13" lengthAdjust="spacing" textLength="308" x="94" y="841.3359">shows the vaccine type list and ask to select one</text><polygon fill="#181818" points="416,871.3887,426,875.3887,416,879.3887,420,875.3887" style="stroke:#181818;stroke-width:1.0;"/><line style="stroke:#181818;stroke-width:1.0;" x1="55" x2="422" y1="875.3887" y2="875.3887"/><text fill="#000000" font-family="sans-serif" font-size="13" font-weight="bold" lengthAdjust="spacing" textLength="18" x="62" y="870.6465">19</text><text fill="#000000" font-family="sans-serif" font-size="13" lengthAdjust="spacing" textLength="71" x="84" y="870.6465">selects one</text><polygon fill="#181818" points="671,900.6992,681,904.6992,671,908.6992,675,904.6992" style="stroke:#181818;stroke-width:1.0;"/><line style="stroke:#181818;stroke-width:1.0;" x1="438" x2="677" y1="904.6992" y2="904.6992"/><text fill="#000000" font-family="sans-serif" font-size="13" font-weight="bold" lengthAdjust="spacing" textLength="18" x="445" y="899.957">20</text><text fill="#000000" font-family="sans-serif" font-size="13" lengthAdjust="spacing" textLength="187" x="467" y="899.957">createScheduleVaccine(svDto)</text><polygon fill="#181818" points="951,930.0098,961,934.0098,951,938.0098,955,934.0098" style="stroke:#181818;stroke-width:1.0;"/><line style="stroke:#181818;stroke-width:1.0;" x1="693" x2="957" y1="934.0098" y2="934.0098"/><text fill="#000000" font-family="sans-serif" font-size="13" font-weight="bold" lengthAdjust="spacing" textLength="18" x="700" y="929.2676">21</text><text fill="#000000" font-family="sans-serif" font-size="13" lengthAdjust="spacing" textLength="228" x="722" y="929.2676">svStore = getScheduleVaccineStore()</text><polygon fill="#181818" points="1834.5,989.3203,1844.5,993.3203,1834.5,997.3203,1838.5,993.3203" style="stroke:#181818;stroke-width:1.0;"/><line style="stroke:#181818;stroke-width:1.0;" x1="693" x2="1840.5" y1="993.3203" y2="993.3203"/><text fill="#000000" font-family="sans-serif" font-size="13" font-weight="bold" lengthAdjust="spacing" textLength="18" x="700" y="988.5781">22</text><text fill="#000000" font-family="sans-serif" font-size="13" lengthAdjust="spacing" textLength="219" x="722" y="988.5781">sv = createScheduleVaccine(svDto)</text><polygon fill="#181818" points="2202.5,1018.6309,2212.5,1022.6309,2202.5,1026.6309,2206.5,1022.6309" style="stroke:#181818;stroke-width:1.0;"/><line style="stroke:#181818;stroke-width:1.0;" x1="1856.5" x2="2208.5" y1="1022.6309" y2="1022.6309"/><text fill="#000000" font-family="sans-serif" font-size="13" font-weight="bold" lengthAdjust="spacing" textLength="18" x="1863.5" y="1017.8887">23</text><text fill="#000000" font-family="sans-serif" font-size="13" lengthAdjust="spacing" textLength="120" x="1885.5" y="1017.8887">sv=toModel(svDto)</text><polygon fill="#181818" points="2526.5,1047.9414,2536.5,1051.9414,2526.5,1055.9414,2530.5,1051.9414" style="stroke:#181818;stroke-width:1.0;"/><line style="stroke:#181818;stroke-width:1.0;" x1="2224.5" x2="2532.5" y1="1051.9414" y2="1051.9414"/><text fill="#000000" font-family="sans-serif" font-size="13" font-weight="bold" lengthAdjust="spacing" textLength="18" x="2231.5" y="1047.1992">24</text><text fill="#000000" font-family="sans-serif" font-size="13" lengthAdjust="spacing" textLength="148" x="2253.5" y="1047.1992">snsUser = getSNSUser()</text><polygon fill="#181818" points="2526.5,1107.252,2536.5,1111.252,2526.5,1115.252,2530.5,1111.252" style="stroke:#181818;stroke-width:1.0;"/><line style="stroke:#181818;stroke-width:1.0;" x1="2224.5" x2="2532.5" y1="1111.252" y2="1111.252"/><text fill="#000000" font-family="sans-serif" font-size="13" font-weight="bold" lengthAdjust="spacing" textLength="18" x="2231.5" y="1106.5098">25</text><text fill="#000000" font-family="sans-serif" font-size="13" lengthAdjust="spacing" textLength="102" x="2253.5" y="1106.5098">date = getDate()</text><polygon fill="#181818" points="2526.5,1166.5625,2536.5,1170.5625,2526.5,1174.5625,2530.5,1170.5625" style="stroke:#181818;stroke-width:1.0;"/><line style="stroke:#181818;stroke-width:1.0;" x1="2224.5" x2="2532.5" y1="1170.5625" y2="1170.5625"/><text fill="#000000" font-family="sans-serif" font-size="13" font-weight="bold" lengthAdjust="spacing" textLength="18" x="2231.5" y="1165.8203">26</text><text fill="#000000" font-family="sans-serif" font-size="13" lengthAdjust="spacing" textLength="105" x="2253.5" y="1165.8203">time = getTime()</text><polygon fill="#181818" points="2526.5,1225.873,2536.5,1229.873,2526.5,1233.873,2530.5,1229.873" style="stroke:#181818;stroke-width:1.0;"/><line style="stroke:#181818;stroke-width:1.0;" x1="2224.5" x2="2532.5" y1="1229.873" y2="1229.873"/><text fill="#000000" font-family="sans-serif" font-size="13" font-weight="bold" lengthAdjust="spacing" textLength="18" x="2231.5" y="1225.1309">27</text><text fill="#000000" font-family="sans-serif" font-size="13" lengthAdjust="spacing" textLength="273" x="2253.5" y="1225.1309">vaccinationCenter = getVaccinationCenter()</text><polygon fill="#181818" points="2526.5,1285.1836,2536.5,1289.1836,2526.5,1293.1836,2530.5,1289.1836" style="stroke:#181818;stroke-width:1.0;"/><line style="stroke:#181818;stroke-width:1.0;" x1="2224.5" x2="2532.5" y1="1289.1836" y2="1289.1836"/><text fill="#000000" font-family="sans-serif" font-size="13" font-weight="bold" lengthAdjust="spacing" textLength="18" x="2231.5" y="1284.4414">28</text><text fill="#000000" font-family="sans-serif" font-size="13" lengthAdjust="spacing" textLength="201" x="2253.5" y="1284.4414">vaccineType = getVaccineType()</text><polygon fill="#181818" points="2627.5,1344.4941,2637.5,1348.4941,2627.5,1352.4941,2631.5,1348.4941" style="stroke:#181818;stroke-width:1.0;"/><line style="stroke:#181818;stroke-width:1.0;stroke-dasharray:2.0,2.0;" x1="2219.5" x2="2633.5" y1="1348.4941" y2="1348.4941"/><text fill="#000000" font-family="sans-serif" font-size="13" font-weight="bold" lengthAdjust="spacing" textLength="18" x="2226.5" y="1343.752">29</text><text fill="#000000" font-family="sans-serif" font-size="13" lengthAdjust="spacing" textLength="369" x="2248.5" y="1343.752">create(snsUser, vaccinationCenter,date, time, vaccineType)</text><rect fill="#E2E2F0" height="30.4883" rx="2.5" ry="2.5" style="stroke:#181818;stroke-width:0.5;" width="128" x="2639.5" y="1327.1836"/><text fill="#000000" font-family="sans-serif" font-size="14" lengthAdjust="spacing" textLength="114" x="2646.5" y="1347.7188">VaccineSchedule</text><polygon fill="#181818" points="1834.5,1385.9824,1844.5,1389.9824,1834.5,1393.9824,1838.5,1389.9824" style="stroke:#181818;stroke-width:1.0;"/><line style="stroke:#181818;stroke-width:1.0;" x1="693" x2="1840.5" y1="1389.9824" y2="1389.9824"/><text fill="#000000" font-family="sans-serif" font-size="13" font-weight="bold" lengthAdjust="spacing" textLength="18" x="700" y="1385.2402">30</text><text fill="#000000" font-family="sans-serif" font-size="13" lengthAdjust="spacing" textLength="175" x="722" y="1385.2402">validateScheduleVaccine(sv)</text><polygon fill="#181818" points="66,1445.293,56,1449.293,66,1453.293,62,1449.293" style="stroke:#181818;stroke-width:1.0;"/><line style="stroke:#181818;stroke-width:1.0;stroke-dasharray:2.0,2.0;" x1="60" x2="432" y1="1449.293" y2="1449.293"/><text fill="#000000" font-family="sans-serif" font-size="13" font-weight="bold" lengthAdjust="spacing" textLength="18" x="72" y="1444.5508">31</text><text fill="#000000" font-family="sans-serif" font-size="13" lengthAdjust="spacing" textLength="295" x="94" y="1444.5508">shows all the data and requests a confirmation</text><polygon fill="#181818" points="416,1474.6035,426,1478.6035,416,1482.6035,420,1478.6035" style="stroke:#181818;stroke-width:1.0;"/><line style="stroke:#181818;stroke-width:1.0;" x1="55" x2="422" y1="1478.6035" y2="1478.6035"/><text fill="#000000" font-family="sans-serif" font-size="13" font-weight="bold" lengthAdjust="spacing" textLength="18" x="62" y="1473.8613">32</text><text fill="#000000" font-family="sans-serif" font-size="13" lengthAdjust="spacing" textLength="111" x="84" y="1473.8613">confirms the data</text><polygon fill="#181818" points="671,1503.9141,681,1507.9141,671,1511.9141,675,1507.9141" style="stroke:#181818;stroke-width:1.0;"/><line style="stroke:#181818;stroke-width:1.0;" x1="438" x2="677" y1="1507.9141" y2="1507.9141"/><text fill="#000000" font-family="sans-serif" font-size="13" font-weight="bold" lengthAdjust="spacing" textLength="18" x="445" y="1503.1719">33</text><text fill="#000000" font-family="sans-serif" font-size="13" lengthAdjust="spacing" textLength="140" x="467" y="1503.1719">saveScheduleVaccine()</text><polygon fill="#181818" points="1834.5,1533.2246,1844.5,1537.2246,1834.5,1541.2246,1838.5,1537.2246" style="stroke:#181818;stroke-width:1.0;"/><line style="stroke:#181818;stroke-width:1.0;" x1="693" x2="1840.5" y1="1537.2246" y2="1537.2246"/><text fill="#000000" font-family="sans-serif" font-size="13" font-weight="bold" lengthAdjust="spacing" textLength="18" x="700" y="1532.4824">34</text><text fill="#000000" font-family="sans-serif" font-size="13" lengthAdjust="spacing" textLength="154" x="722" y="1532.4824">saveScheduleVaccine(vs)</text><line style="stroke:#181818;stroke-width:1.0;" x1="1861.5" x2="1903.5" y1="1566.5352" y2="1566.5352"/><line style="stroke:#181818;stroke-width:1.0;" x1="1903.5" x2="1903.5" y1="1566.5352" y2="1579.5352"/><line style="stroke:#181818;stroke-width:1.0;" x1="1862.5" x2="1903.5" y1="1579.5352" y2="1579.5352"/><polygon fill="#181818" points="1872.5,1575.5352,1862.5,1579.5352,1872.5,1583.5352,1868.5,1579.5352" style="stroke:#181818;stroke-width:1.0;"/><text fill="#000000" font-family="sans-serif" font-size="13" font-weight="bold" lengthAdjust="spacing" textLength="18" x="1868.5" y="1561.793">35</text><text fill="#000000" font-family="sans-serif" font-size="13" lengthAdjust="spacing" textLength="154" x="1890.5" y="1561.793">saveScheduleVaccine(vs)</text><line style="stroke:#181818;stroke-width:1.0;" x1="1861.5" x2="1903.5" y1="1638.8457" y2="1638.8457"/><line style="stroke:#181818;stroke-width:1.0;" x1="1903.5" x2="1903.5" y1="1638.8457" y2="1651.8457"/><line style="stroke:#181818;stroke-width:1.0;" x1="1862.5" x2="1903.5" y1="1651.8457" y2="1651.8457"/><polygon fill="#181818" points="1872.5,1647.8457,1862.5,1651.8457,1872.5,1655.8457,1868.5,1651.8457" style="stroke:#181818;stroke-width:1.0;"/><text fill="#000000" font-family="sans-serif" font-size="13" font-weight="bold" lengthAdjust="spacing" textLength="18" x="1868.5" y="1634.1035">36</text><text fill="#000000" font-family="sans-serif" font-size="13" lengthAdjust="spacing" textLength="149" x="1890.5" y="1634.1035">addScheduleVaccine(vs)</text><polygon fill="#181818" points="61,1707.1563,51,1711.1563,61,1715.1563,57,1711.1563" style="stroke:#181818;stroke-width:1.0;"/><line style="stroke:#181818;stroke-width:1.0;stroke-dasharray:2.0,2.0;" x1="55" x2="432" y1="1711.1563" y2="1711.1563"/><text fill="#000000" font-family="sans-serif" font-size="13" font-weight="bold" lengthAdjust="spacing" textLength="18" x="67" y="1706.4141">37</text><text fill="#000000" font-family="sans-serif" font-size="13" lengthAdjust="spacing" textLength="167" x="89" y="1706.4141">informs operation success</text><!--MD5=[98c2030cfab06daee5215e87d6a9aaa1]
@startuml
autonumber
actor "Receptionist" as RCPT

participant ":\n ScheduleVaccineUI" as UI
participant ":\n ScheduleVaccineController" as CTRL
participant ":\n Company" as CMPN
participant "suStore:\nSNSUserStore" as SUS
participant "su:\nSNSUser" as SU
participant "vcStore: \n VaccineCenterStore" as VCS
participant "vc:\n VaccineCenter" as VC
participant "vtStore:\n VaccineTypeStore" as VTS
participant "vt: \n VaccineType" as VT
participant "svStore:\n ScheduleVaccineStore" as SVS
participant "sv: \n ScheduleVaccine" as SV
participant "svMapper:\n ScheduleVaccineMapper" as SVMP
participant "svDTO: \n ScheduleVaccineDTO" as SVDTO

activate RCPT

RCPT -> UI : starts by scheduling the vaccine
activate UI

UI - -> RCPT : requests data (SNS user number)
deactivate UI

RCPT -> UI : types requested data
activate UI

UI -> CTRL : createSNSUser (snsUserNumber)
activate CTRL

CTRL -> CMPN : suStore = getSNSUserStore()
activate CMPN
deactivate CMPN

CTRL -> SUS : su = getSNSUser(snsUserNumber)
activate SUS
deactivate CMPN
deactivate SUS
deactivate CTRL

UI -> CTRL : vcI=getVaccinationCenterList()
activate CTRL

CTRL -> CMPN : vcStore = getVaccinationCenterStore()
activate CMPN
deactivate CMPN

CTRL -> VCS :  getVaccinationCenterList()
activate VCS
deactivate VCS
deactivate CTRL

UI - -> RCPT : shows the vaccine centers list and ask to select one
deactivate UI

RCPT -> UI : selects one
activate UI

UI - -> RCPT : requests data (date and time)
deactivate UI

RCPT -> UI : types requested data
activate UI

UI -> CTRL : verifySlotAvailability(date , time)
activate CTRL
deactivate CTRL
|||

UI -> CTRL : vtI = getVaccineTypeList()
activate CTRL

CTRL -> CMPN : vtStore = getVaccineTypeStore()
activate CMPN
deactivate CMPN
CTRL -> VTS :   getVaccineTypeList()
activate VTS
deactivate VTS
deactivate CTRL

UI - -> RCPT : shows the vaccine type list and ask to select one
deactivate UI
RCPT -> UI : selects one
activate UI

UI -> CTRL : createScheduleVaccine(svDto)
activate CTRL

CTRL -> CMPN : svStore = getScheduleVaccineStore()
activate CMPN
deactivate CMPN
CTRL -> SVS : sv = createScheduleVaccine(svDto)

activate SVS
SVS -> SVMP : sv=toModel(svDto)
activate SVMP
SVMP -> SVDTO : snsUser = getSNSUser()
activate SVDTO
deactivate SVDTO

SVMP -> SVDTO : date = getDate()
activate SVDTO
deactivate SVDTO

SVMP -> SVDTO : time = getTime()
activate SVDTO
deactivate SVDTO

SVMP -> SVDTO : vaccinationCenter = getVaccinationCenter()
activate SVDTO
deactivate SVDTO

SVMP -> SVDTO : vaccineType = getVaccineType()
activate SVDTO
deactivate SVDTO

create VaccineSchedule
SVMP - -> VaccineSchedule : create(snsUser, vaccinationCenter,date, time, vaccineType)
'note over VaccineSchedule, VCDTO : several interactions to extract data from DTO
deactivate SVMP
deactivate SVS

CTRL -> SVS : validateScheduleVaccine(sv)
activate SVS
deactivate SVS
deactivate CTRL

UI - -> RCPT : shows all the data and requests a confirmation
deactivate UI

RCPT -> UI : confirms the data
activate UI

UI -> CTRL : saveScheduleVaccine()
activate CTRL

CTRL -> SVS : saveScheduleVaccine(vs)
activate SVS

SVS -> SVS : saveScheduleVaccine(vs)
activate SVS
deactivate SVS

SVS -> SVS : addScheduleVaccine(vs)
activate SVS
deactivate SVS

UI - -> RCPT : informs operation success
deactivate UI
deactivate RCPT
@enduml

@startuml
autonumber
actor "Receptionist" as RCPT

participant ":\n ScheduleVaccineUI" as UI
participant ":\n ScheduleVaccineController" as CTRL
participant ":\n Company" as CMPN
participant "suStore:\nSNSUserStore" as SUS
participant "su:\nSNSUser" as SU
participant "vcStore: \n VaccineCenterStore" as VCS
participant "vc:\n VaccineCenter" as VC
participant "vtStore:\n VaccineTypeStore" as VTS
participant "vt: \n VaccineType" as VT
participant "svStore:\n ScheduleVaccineStore" as SVS
participant "sv: \n ScheduleVaccine" as SV
participant "svMapper:\n ScheduleVaccineMapper" as SVMP
participant "svDTO: \n ScheduleVaccineDTO" as SVDTO

activate RCPT

RCPT -> UI : starts by scheduling the vaccine
activate UI

UI - -> RCPT : requests data (SNS user number)
deactivate UI

RCPT -> UI : types requested data
activate UI

UI -> CTRL : createSNSUser (snsUserNumber)
activate CTRL

CTRL -> CMPN : suStore = getSNSUserStore()
activate CMPN
deactivate CMPN

CTRL -> SUS : su = getSNSUser(snsUserNumber)
activate SUS
deactivate CMPN
deactivate SUS
deactivate CTRL

UI -> CTRL : vcI=getVaccinationCenterList()
activate CTRL

CTRL -> CMPN : vcStore = getVaccinationCenterStore()
activate CMPN
deactivate CMPN

CTRL -> VCS :  getVaccinationCenterList()
activate VCS
deactivate VCS
deactivate CTRL

UI - -> RCPT : shows the vaccine centers list and ask to select one
deactivate UI

RCPT -> UI : selects one
activate UI

UI - -> RCPT : requests data (date and time)
deactivate UI

RCPT -> UI : types requested data
activate UI

UI -> CTRL : verifySlotAvailability(date , time)
activate CTRL
deactivate CTRL
|||

UI -> CTRL : vtI = getVaccineTypeList()
activate CTRL

CTRL -> CMPN : vtStore = getVaccineTypeStore()
activate CMPN
deactivate CMPN
CTRL -> VTS :   getVaccineTypeList()
activate VTS
deactivate VTS
deactivate CTRL

UI - -> RCPT : shows the vaccine type list and ask to select one
deactivate UI
RCPT -> UI : selects one
activate UI

UI -> CTRL : createScheduleVaccine(svDto)
activate CTRL

CTRL -> CMPN : svStore = getScheduleVaccineStore()
activate CMPN
deactivate CMPN
CTRL -> SVS : sv = createScheduleVaccine(svDto)

activate SVS
SVS -> SVMP : sv=toModel(svDto)
activate SVMP
SVMP -> SVDTO : snsUser = getSNSUser()
activate SVDTO
deactivate SVDTO

SVMP -> SVDTO : date = getDate()
activate SVDTO
deactivate SVDTO

SVMP -> SVDTO : time = getTime()
activate SVDTO
deactivate SVDTO

SVMP -> SVDTO : vaccinationCenter = getVaccinationCenter()
activate SVDTO
deactivate SVDTO

SVMP -> SVDTO : vaccineType = getVaccineType()
activate SVDTO
deactivate SVDTO

create VaccineSchedule
SVMP - -> VaccineSchedule : create(snsUser, vaccinationCenter,date, time, vaccineType)
deactivate SVMP
deactivate SVS

CTRL -> SVS : validateScheduleVaccine(sv)
activate SVS
deactivate SVS
deactivate CTRL

UI - -> RCPT : shows all the data and requests a confirmation
deactivate UI

RCPT -> UI : confirms the data
activate UI

UI -> CTRL : saveScheduleVaccine()
activate CTRL

CTRL -> SVS : saveScheduleVaccine(vs)
activate SVS

SVS -> SVS : saveScheduleVaccine(vs)
activate SVS
deactivate SVS

SVS -> SVS : addScheduleVaccine(vs)
activate SVS
deactivate SVS

UI - -> RCPT : informs operation success
deactivate UI
deactivate RCPT
@enduml

PlantUML version 1.2022.4(Sat Apr 09 14:29:17 WEST 2022)
(GPL source distribution)
Java Runtime: OpenJDK Runtime Environment
JVM: OpenJDK 64-Bit Server VM
Default Encoding: UTF-8
Language: pt
Country: PT
--></g></svg>