<?xml version="1.0" encoding="UTF-8" standalone="no"?><svg xmlns="http://www.w3.org/2000/svg" xmlns:xlink="http://www.w3.org/1999/xlink" contentStyleType="text/css" height="510px" preserveAspectRatio="none" style="width:1399px;height:510px;background:#FFFFFF;" version="1.1" viewBox="0 0 1399 510" width="1399px" zoomAndPan="magnify"><defs/><g><!--MD5=[02e4b9b7573f1156f41e60aa5b4e25a4]
class Company--><g id="elem_Company"><rect codeLine="5" fill="#F1F1F1" height="56.2969" id="Company" rx="2.5" ry="2.5" style="stroke:#181818;stroke-width:0.5;" width="102" x="9.5" y="138.5659"/><ellipse cx="25.4" cy="154.5659" fill="#ADD1B2" rx="11" ry="11" style="stroke:#181818;stroke-width:1.0;"/><path d="M27.7438,150.2378 C26.8063,149.8003 26.2125,149.6597 25.3375,149.6597 C22.7125,149.6597 20.7125,151.7378 20.7125,154.4565 L20.7125,155.5815 C20.7125,158.1597 22.8219,160.0503 25.7125,160.0503 C26.9313,160.0503 28.0875,159.7534 28.8375,159.2065 C29.4156,158.8003 29.7438,158.3472 29.7438,157.9565 C29.7438,157.5034 29.3531,157.1128 28.8844,157.1128 C28.6656,157.1128 28.4625,157.1909 28.275,157.3784 C27.8219,157.8628 27.8219,157.8628 27.6344,157.9565 C27.2125,158.2222 26.525,158.3472 25.7594,158.3472 C23.7125,158.3472 22.4156,157.2534 22.4156,155.5503 L22.4156,154.4565 C22.4156,152.6753 23.6656,151.3628 25.4,151.3628 C25.9781,151.3628 26.5875,151.519 27.0563,151.769 C27.5406,152.0503 27.7125,152.269 27.8063,152.6753 C27.8688,153.0815 27.9,153.2065 28.0406,153.3315 C28.1813,153.4722 28.4156,153.5815 28.6344,153.5815 C28.9,153.5815 29.1656,153.4409 29.3375,153.2222 C29.4469,153.0659 29.4781,152.8784 29.4781,152.4565 L29.4781,151.0347 C29.4781,150.5972 29.4625,150.4722 29.3688,150.3159 C29.2125,150.0503 28.9313,149.9097 28.6344,149.9097 C28.3375,149.9097 28.1344,150.0034 27.9156,150.3159 L27.7438,150.2378 Z " fill="#000000"/><text fill="#000000" font-family="sans-serif" font-size="14" lengthAdjust="spacing" textLength="68" x="39.6" y="159.4126">Company</text><line style="stroke:#181818;stroke-width:0.5;" x1="10.5" x2="110.5" y1="170.5659" y2="170.5659"/><text fill="#000000" font-family="sans-serif" font-size="14" lengthAdjust="spacing" textLength="90" x="15.5" y="187.561">-designation</text></g><!--MD5=[72be06cc7ae02ccc98efe28a50e62246]
class SNSUser--><g id="elem_SNSUser"><rect codeLine="9" fill="#F1F1F1" height="154.0781" id="SNSUser" rx="2.5" ry="2.5" style="stroke:#181818;stroke-width:0.5;" width="157" x="223" y="163.5659"/><ellipse cx="267.75" cy="179.5659" fill="#ADD1B2" rx="11" ry="11" style="stroke:#181818;stroke-width:1.0;"/><path d="M270.0938,175.2378 C269.1563,174.8003 268.5625,174.6597 267.6875,174.6597 C265.0625,174.6597 263.0625,176.7378 263.0625,179.4565 L263.0625,180.5815 C263.0625,183.1597 265.1719,185.0503 268.0625,185.0503 C269.2813,185.0503 270.4375,184.7534 271.1875,184.2065 C271.7656,183.8003 272.0938,183.3472 272.0938,182.9565 C272.0938,182.5034 271.7031,182.1128 271.2344,182.1128 C271.0156,182.1128 270.8125,182.1909 270.625,182.3784 C270.1719,182.8628 270.1719,182.8628 269.9844,182.9565 C269.5625,183.2222 268.875,183.3472 268.1094,183.3472 C266.0625,183.3472 264.7656,182.2534 264.7656,180.5503 L264.7656,179.4565 C264.7656,177.6753 266.0156,176.3628 267.75,176.3628 C268.3281,176.3628 268.9375,176.519 269.4063,176.769 C269.8906,177.0503 270.0625,177.269 270.1563,177.6753 C270.2188,178.0815 270.25,178.2065 270.3906,178.3315 C270.5313,178.4722 270.7656,178.5815 270.9844,178.5815 C271.25,178.5815 271.5156,178.4409 271.6875,178.2222 C271.7969,178.0659 271.8281,177.8784 271.8281,177.4565 L271.8281,176.0347 C271.8281,175.5972 271.8125,175.4722 271.7188,175.3159 C271.5625,175.0503 271.2813,174.9097 270.9844,174.9097 C270.6875,174.9097 270.4844,175.0034 270.2656,175.3159 L270.0938,175.2378 Z " fill="#000000"/><text fill="#000000" font-family="sans-serif" font-size="14" lengthAdjust="spacing" textLength="59" x="288.25" y="184.4126">SNSUser</text><line style="stroke:#181818;stroke-width:0.5;" x1="224" x2="379" y1="195.5659" y2="195.5659"/><text fill="#000000" font-family="sans-serif" font-size="14" lengthAdjust="spacing" textLength="46" x="229" y="212.561">-name</text><text fill="#000000" font-family="sans-serif" font-size="14" lengthAdjust="spacing" textLength="30" x="229" y="228.8579">-sex</text><text fill="#000000" font-family="sans-serif" font-size="14" lengthAdjust="spacing" textLength="109" x="229" y="245.1548">-phoneNumber</text><text fill="#000000" font-family="sans-serif" font-size="14" lengthAdjust="spacing" textLength="45" x="229" y="261.4517">-email</text><text fill="#000000" font-family="sans-serif" font-size="14" lengthAdjust="spacing" textLength="77" x="229" y="277.7485">-birthDate</text><text fill="#000000" font-family="sans-serif" font-size="14" lengthAdjust="spacing" textLength="91" x="229" y="294.0454">-SNSNumber</text><text fill="#000000" font-family="sans-serif" font-size="14" lengthAdjust="spacing" textLength="145" x="229" y="310.3423">-citizenCardNumber</text></g><!--MD5=[0f39e4cb6f03951afbf6d14bd2505654]
class Address--><g id="elem_Address"><rect codeLine="19" fill="#F1F1F1" height="186.6719" id="Address" rx="2.5" ry="2.5" style="stroke:#181818;stroke-width:0.5;" width="107" x="7" y="317.0659"/><ellipse cx="30.1" cy="333.0659" fill="#ADD1B2" rx="11" ry="11" style="stroke:#181818;stroke-width:1.0;"/><path d="M32.4438,328.7378 C31.5063,328.3003 30.9125,328.1597 30.0375,328.1597 C27.4125,328.1597 25.4125,330.2378 25.4125,332.9565 L25.4125,334.0815 C25.4125,336.6597 27.5219,338.5503 30.4125,338.5503 C31.6313,338.5503 32.7875,338.2534 33.5375,337.7065 C34.1156,337.3003 34.4438,336.8472 34.4438,336.4565 C34.4438,336.0034 34.0531,335.6128 33.5844,335.6128 C33.3656,335.6128 33.1625,335.6909 32.975,335.8784 C32.5219,336.3628 32.5219,336.3628 32.3344,336.4565 C31.9125,336.7222 31.225,336.8472 30.4594,336.8472 C28.4125,336.8472 27.1156,335.7534 27.1156,334.0503 L27.1156,332.9565 C27.1156,331.1753 28.3656,329.8628 30.1,329.8628 C30.6781,329.8628 31.2875,330.019 31.7563,330.269 C32.2406,330.5503 32.4125,330.769 32.5063,331.1753 C32.5688,331.5815 32.6,331.7065 32.7406,331.8315 C32.8813,331.9722 33.1156,332.0815 33.3344,332.0815 C33.6,332.0815 33.8656,331.9409 34.0375,331.7222 C34.1469,331.5659 34.1781,331.3784 34.1781,330.9565 L34.1781,329.5347 C34.1781,329.0972 34.1625,328.9722 34.0688,328.8159 C33.9125,328.5503 33.6313,328.4097 33.3344,328.4097 C33.0375,328.4097 32.8344,328.5034 32.6156,328.8159 L32.4438,328.7378 Z " fill="#000000"/><text fill="#000000" font-family="sans-serif" font-size="14" lengthAdjust="spacing" textLength="57" x="45.9" y="337.9126">Address</text><line style="stroke:#181818;stroke-width:0.5;" x1="8" x2="113" y1="349.0659" y2="349.0659"/><text fill="#000000" font-family="sans-serif" font-size="14" lengthAdjust="spacing" textLength="61" x="13" y="366.061">-country</text><text fill="#000000" font-family="sans-serif" font-size="14" lengthAdjust="spacing" textLength="33" x="13" y="382.3579">-city</text><text fill="#000000" font-family="sans-serif" font-size="14" lengthAdjust="spacing" textLength="55" x="13" y="398.6548">-county</text><text fill="#000000" font-family="sans-serif" font-size="14" lengthAdjust="spacing" textLength="50" x="13" y="414.9517">-parish</text><text fill="#000000" font-family="sans-serif" font-size="14" lengthAdjust="spacing" textLength="51" x="13" y="431.2485">-street</text><text fill="#000000" font-family="sans-serif" font-size="14" lengthAdjust="spacing" textLength="95" x="13" y="447.5454">-portNumber</text><text fill="#000000" font-family="sans-serif" font-size="14" lengthAdjust="spacing" textLength="88" x="13" y="463.8423">-postalCode</text><text fill="#000000" font-family="sans-serif" font-size="14" lengthAdjust="spacing" textLength="40" x="13" y="480.1392">-floor</text><text fill="#000000" font-family="sans-serif" font-size="14" lengthAdjust="spacing" textLength="92" x="13" y="496.436">-observation</text></g><!--MD5=[8d21a970f1bd1e0e0584d0ecf91221be]
class ScheduleVaccine--><g id="elem_ScheduleVaccine"><rect codeLine="31" fill="#F1F1F1" height="72.5938" id="ScheduleVaccine" rx="2.5" ry="2.5" style="stroke:#181818;stroke-width:0.5;" width="153" x="820" y="144.0659"/><ellipse cx="835" cy="160.0659" fill="#ADD1B2" rx="11" ry="11" style="stroke:#181818;stroke-width:1.0;"/><path d="M837.3438,155.7378 C836.4063,155.3003 835.8125,155.1597 834.9375,155.1597 C832.3125,155.1597 830.3125,157.2378 830.3125,159.9565 L830.3125,161.0815 C830.3125,163.6597 832.4219,165.5503 835.3125,165.5503 C836.5313,165.5503 837.6875,165.2534 838.4375,164.7065 C839.0156,164.3003 839.3438,163.8472 839.3438,163.4565 C839.3438,163.0034 838.9531,162.6128 838.4844,162.6128 C838.2656,162.6128 838.0625,162.6909 837.875,162.8784 C837.4219,163.3628 837.4219,163.3628 837.2344,163.4565 C836.8125,163.7222 836.125,163.8472 835.3594,163.8472 C833.3125,163.8472 832.0156,162.7534 832.0156,161.0503 L832.0156,159.9565 C832.0156,158.1753 833.2656,156.8628 835,156.8628 C835.5781,156.8628 836.1875,157.019 836.6563,157.269 C837.1406,157.5503 837.3125,157.769 837.4063,158.1753 C837.4688,158.5815 837.5,158.7065 837.6406,158.8315 C837.7813,158.9722 838.0156,159.0815 838.2344,159.0815 C838.5,159.0815 838.7656,158.9409 838.9375,158.7222 C839.0469,158.5659 839.0781,158.3784 839.0781,157.9565 L839.0781,156.5347 C839.0781,156.0972 839.0625,155.9722 838.9688,155.8159 C838.8125,155.5503 838.5313,155.4097 838.2344,155.4097 C837.9375,155.4097 837.7344,155.5034 837.5156,155.8159 L837.3438,155.7378 Z " fill="#000000"/><text fill="#000000" font-family="sans-serif" font-size="14" lengthAdjust="spacing" textLength="121" x="849" y="164.9126">ScheduleVaccine</text><line style="stroke:#181818;stroke-width:0.5;" x1="821" x2="972" y1="176.0659" y2="176.0659"/><text fill="#000000" font-family="sans-serif" font-size="14" lengthAdjust="spacing" textLength="39" x="826" y="193.061">-date</text><text fill="#000000" font-family="sans-serif" font-size="14" lengthAdjust="spacing" textLength="40" x="826" y="209.3579">-time</text></g><!--MD5=[56872536300a053cf9fd13853ad6ab1e]
class CommunityMassVaccinationCenter--><g id="elem_CommunityMassVaccinationCenter"><rect codeLine="36" fill="#F1F1F1" height="154.0781" id="CommunityMassVaccinationCenter" rx="2.5" ry="2.5" style="stroke:#181818;stroke-width:0.5;" width="283" x="1109" y="258.5659"/><ellipse cx="1124" cy="274.5659" fill="#ADD1B2" rx="11" ry="11" style="stroke:#181818;stroke-width:1.0;"/><path d="M1126.3438,270.2378 C1125.4063,269.8003 1124.8125,269.6597 1123.9375,269.6597 C1121.3125,269.6597 1119.3125,271.7378 1119.3125,274.4565 L1119.3125,275.5815 C1119.3125,278.1597 1121.4219,280.0503 1124.3125,280.0503 C1125.5313,280.0503 1126.6875,279.7534 1127.4375,279.2065 C1128.0156,278.8003 1128.3438,278.3472 1128.3438,277.9565 C1128.3438,277.5034 1127.9531,277.1128 1127.4844,277.1128 C1127.2656,277.1128 1127.0625,277.1909 1126.875,277.3784 C1126.4219,277.8628 1126.4219,277.8628 1126.2344,277.9565 C1125.8125,278.2222 1125.125,278.3472 1124.3594,278.3472 C1122.3125,278.3472 1121.0156,277.2534 1121.0156,275.5503 L1121.0156,274.4565 C1121.0156,272.6753 1122.2656,271.3628 1124,271.3628 C1124.5781,271.3628 1125.1875,271.519 1125.6563,271.769 C1126.1406,272.0503 1126.3125,272.269 1126.4063,272.6753 C1126.4688,273.0815 1126.5,273.2065 1126.6406,273.3315 C1126.7813,273.4722 1127.0156,273.5815 1127.2344,273.5815 C1127.5,273.5815 1127.7656,273.4409 1127.9375,273.2222 C1128.0469,273.0659 1128.0781,272.8784 1128.0781,272.4565 L1128.0781,271.0347 C1128.0781,270.5972 1128.0625,270.4722 1127.9688,270.3159 C1127.8125,270.0503 1127.5313,269.9097 1127.2344,269.9097 C1126.9375,269.9097 1126.7344,270.0034 1126.5156,270.3159 L1126.3438,270.2378 Z " fill="#000000"/><text fill="#000000" font-family="sans-serif" font-size="14" lengthAdjust="spacing" textLength="251" x="1138" y="279.4126">CommunityMassVaccinationCenter</text><line style="stroke:#181818;stroke-width:0.5;" x1="1110" x2="1391" y1="290.5659" y2="290.5659"/><text fill="#000000" font-family="sans-serif" font-size="14" lengthAdjust="spacing" textLength="46" x="1115" y="307.561">-name</text><text fill="#000000" font-family="sans-serif" font-size="14" lengthAdjust="spacing" textLength="109" x="1115" y="323.8579">-phoneNumber</text><text fill="#000000" font-family="sans-serif" font-size="14" lengthAdjust="spacing" textLength="45" x="1115" y="340.1548">-email</text><text fill="#000000" font-family="sans-serif" font-size="14" lengthAdjust="spacing" textLength="85" x="1115" y="356.4517">-faxNumber</text><text fill="#000000" font-family="sans-serif" font-size="14" lengthAdjust="spacing" textLength="63" x="1115" y="372.7485">-website</text><text fill="#000000" font-family="sans-serif" font-size="14" lengthAdjust="spacing" textLength="95" x="1115" y="389.0454">-slotDuration</text><text fill="#000000" font-family="sans-serif" font-size="14" lengthAdjust="spacing" textLength="126" x="1115" y="405.3423">-slotVaccineLimit</text></g><!--MD5=[0e501da62322464167c8ec4d233a6b7e]
class VaccineType--><g id="elem_VaccineType"><rect codeLine="46" fill="#F1F1F1" height="88.8906" id="VaccineType" rx="2.5" ry="2.5" style="stroke:#181818;stroke-width:0.5;" width="124" x="1188.5" y="116.0659"/><ellipse cx="1203.5" cy="132.0659" fill="#ADD1B2" rx="11" ry="11" style="stroke:#181818;stroke-width:1.0;"/><path d="M1205.8438,127.7378 C1204.9063,127.3003 1204.3125,127.1597 1203.4375,127.1597 C1200.8125,127.1597 1198.8125,129.2378 1198.8125,131.9565 L1198.8125,133.0815 C1198.8125,135.6597 1200.9219,137.5503 1203.8125,137.5503 C1205.0313,137.5503 1206.1875,137.2534 1206.9375,136.7065 C1207.5156,136.3003 1207.8438,135.8472 1207.8438,135.4565 C1207.8438,135.0034 1207.4531,134.6128 1206.9844,134.6128 C1206.7656,134.6128 1206.5625,134.6909 1206.375,134.8784 C1205.9219,135.3628 1205.9219,135.3628 1205.7344,135.4565 C1205.3125,135.7222 1204.625,135.8472 1203.8594,135.8472 C1201.8125,135.8472 1200.5156,134.7534 1200.5156,133.0503 L1200.5156,131.9565 C1200.5156,130.1753 1201.7656,128.8628 1203.5,128.8628 C1204.0781,128.8628 1204.6875,129.019 1205.1563,129.269 C1205.6406,129.5503 1205.8125,129.769 1205.9063,130.1753 C1205.9688,130.5815 1206,130.7065 1206.1406,130.8315 C1206.2813,130.9722 1206.5156,131.0815 1206.7344,131.0815 C1207,131.0815 1207.2656,130.9409 1207.4375,130.7222 C1207.5469,130.5659 1207.5781,130.3784 1207.5781,129.9565 L1207.5781,128.5347 C1207.5781,128.0972 1207.5625,127.9722 1207.4688,127.8159 C1207.3125,127.5503 1207.0313,127.4097 1206.7344,127.4097 C1206.4375,127.4097 1206.2344,127.5034 1206.0156,127.8159 L1205.8438,127.7378 Z " fill="#000000"/><text fill="#000000" font-family="sans-serif" font-size="14" lengthAdjust="spacing" textLength="92" x="1217.5" y="136.9126">VaccineType</text><line style="stroke:#181818;stroke-width:0.5;" x1="1189.5" x2="1311.5" y1="148.0659" y2="148.0659"/><text fill="#000000" font-family="sans-serif" font-size="14" lengthAdjust="spacing" textLength="41" x="1194.5" y="165.061">-code</text><text fill="#000000" font-family="sans-serif" font-size="14" lengthAdjust="spacing" textLength="88" x="1194.5" y="181.3579">-description</text><text fill="#000000" font-family="sans-serif" font-size="14" lengthAdjust="spacing" textLength="87" x="1194.5" y="197.6548">-technology</text></g><!--MD5=[bea5b0d46523efab5ea1c1d339f396f0]
class Message--><g id="elem_Message"><rect codeLine="52" fill="#F1F1F1" height="88.8906" id="Message" rx="2.5" ry="2.5" style="stroke:#181818;stroke-width:0.5;" width="110" x="533.5" y="99.0659"/><ellipse cx="556.15" cy="115.0659" fill="#ADD1B2" rx="11" ry="11" style="stroke:#181818;stroke-width:1.0;"/><path d="M558.4938,110.7378 C557.5563,110.3003 556.9625,110.1597 556.0875,110.1597 C553.4625,110.1597 551.4625,112.2378 551.4625,114.9565 L551.4625,116.0815 C551.4625,118.6597 553.5719,120.5503 556.4625,120.5503 C557.6813,120.5503 558.8375,120.2534 559.5875,119.7065 C560.1656,119.3003 560.4938,118.8472 560.4938,118.4565 C560.4938,118.0034 560.1031,117.6128 559.6344,117.6128 C559.4156,117.6128 559.2125,117.6909 559.025,117.8784 C558.5719,118.3628 558.5719,118.3628 558.3844,118.4565 C557.9625,118.7222 557.275,118.8472 556.5094,118.8472 C554.4625,118.8472 553.1656,117.7534 553.1656,116.0503 L553.1656,114.9565 C553.1656,113.1753 554.4156,111.8628 556.15,111.8628 C556.7281,111.8628 557.3375,112.019 557.8063,112.269 C558.2906,112.5503 558.4625,112.769 558.5563,113.1753 C558.6188,113.5815 558.65,113.7065 558.7906,113.8315 C558.9313,113.9722 559.1656,114.0815 559.3844,114.0815 C559.65,114.0815 559.9156,113.9409 560.0875,113.7222 C560.1969,113.5659 560.2281,113.3784 560.2281,112.9565 L560.2281,111.5347 C560.2281,111.0972 560.2125,110.9722 560.1188,110.8159 C559.9625,110.5503 559.6813,110.4097 559.3844,110.4097 C559.0875,110.4097 558.8844,110.5034 558.6656,110.8159 L558.4938,110.7378 Z " fill="#000000"/><text fill="#000000" font-family="sans-serif" font-size="14" lengthAdjust="spacing" textLength="61" x="571.85" y="119.9126">Message</text><line style="stroke:#181818;stroke-width:0.5;" x1="534.5" x2="642.5" y1="131.0659" y2="131.0659"/><text fill="#000000" font-family="sans-serif" font-size="14" lengthAdjust="spacing" textLength="39" x="539.5" y="148.061">-date</text><text fill="#000000" font-family="sans-serif" font-size="14" lengthAdjust="spacing" textLength="40" x="539.5" y="164.3579">-time</text><text fill="#000000" font-family="sans-serif" font-size="14" lengthAdjust="spacing" textLength="98" x="539.5" y="180.6548">-textMessage</text></g><!--MD5=[1a8aa2b864b87f860d28abceaa28b7a5]
link Company to SNSUser--><g id="link_Company_SNSUser"><path codeLine="59" d="M111.602,182.0789 C143.769,192.0379 186.202,205.1769 222.701,216.4779 " fill="none" id="Company-SNSUser" style="stroke:#181818;stroke-width:1.0;"/><polygon fill="#000000" points="153.7763,185.6112,146.0051,180.1285,144.2666,185.7433,153.7763,185.6112" style="stroke:#000000;stroke-width:1.0;"/><text fill="#000000" font-family="sans-serif" font-size="13" lengthAdjust="spacing" textLength="34" x="158" y="188.6328">owns</text><text fill="#000000" font-family="sans-serif" font-size="13" lengthAdjust="spacing" textLength="8" x="119.3507" y="197.3705">1</text><text fill="#000000" font-family="sans-serif" font-size="13" lengthAdjust="spacing" textLength="7" x="208.1141" y="227.0181">*</text></g><!--MD5=[8502a704dc9b381ea58589d3b3323a61]
link Company to CommunityMassVaccinationCenter--><g id="link_Company_CommunityMassVaccinationCenter"><path codeLine="60" d="M77.1115,194.9309 C110.282,250.9849 193.576,370.5659 300.5,370.5659 C300.5,370.5659 300.5,370.5659 897.5,370.5659 C967.357,370.5659 1044.63,363.6559 1108.94,355.9759 " fill="none" id="Company-CommunityMassVaccinationCenter" style="stroke:#181818;stroke-width:1.0;"/><polygon fill="#000000" points="564.4402,362.9034,555.9565,358.6048,555.0501,364.4123,564.4402,362.9034" style="stroke:#000000;stroke-width:1.0;"/><text fill="#000000" font-family="sans-serif" font-size="13" lengthAdjust="spacing" textLength="53" x="568.5" y="366.6328">manage</text><text fill="#000000" font-family="sans-serif" font-size="13" lengthAdjust="spacing" textLength="8" x="71.8703" y="214.8253">1</text><text fill="#000000" font-family="sans-serif" font-size="13" lengthAdjust="spacing" textLength="7" x="1094.007" y="369.5706">*</text></g><!--MD5=[33919b1e7c659d9871b4b7101ebf4f65]
link Address to SNSUser--><g id="link_Address_SNSUser"><path codeLine="61" d="M114.245,373.0479 C146.138,350.3629 187.37,321.0349 222.929,295.7419 " fill="none" id="Address-SNSUser" style="stroke:#181818;stroke-width:1.0;"/><polygon fill="#000000" points="150.4256,314.0304,159.4997,311.1826,156.0928,306.3928,150.4256,314.0304" style="stroke:#000000;stroke-width:1.0;"/><text fill="#000000" font-family="sans-serif" font-size="13" lengthAdjust="spacing" textLength="23" x="163.5" y="315.6328">has</text><text fill="#000000" font-family="sans-serif" font-size="13" lengthAdjust="spacing" textLength="8" x="122.0045" y="381.1121">1</text><text fill="#000000" font-family="sans-serif" font-size="13" lengthAdjust="spacing" textLength="8" x="207.059" y="313.7852">1</text></g><!--MD5=[2dea55a4e37a3d5d079c9926c23073ed]
link ScheduleVaccine to CommunityMassVaccinationCenter--><g id="link_ScheduleVaccine_CommunityMassVaccinationCenter"><path codeLine="62" d="M973.013,213.8169 C1012.61,231.2519 1062.4,253.1799 1108.79,273.6059 " fill="none" id="ScheduleVaccine-CommunityMassVaccinationCenter" style="stroke:#181818;stroke-width:1.0;"/><polygon fill="#000000" points="1022.424,220.1173,1029.5177,226.4522,1031.8865,221.0728,1022.424,220.1173" style="stroke:#000000;stroke-width:1.0;"/><text fill="#000000" font-family="sans-serif" font-size="13" lengthAdjust="spacing" textLength="23" x="1036" y="226.6328">has</text><text fill="#000000" font-family="sans-serif" font-size="13" lengthAdjust="spacing" textLength="7" x="980.8893" y="229.9218">*</text><text fill="#000000" font-family="sans-serif" font-size="13" lengthAdjust="spacing" textLength="8" x="1092.8215" y="282.696">1</text></g><!--MD5=[b6f342dd84fd94becfb65fe9e3b69293]
link ScheduleVaccine to VaccineType--><g id="link_ScheduleVaccine_VaccineType"><path codeLine="63" d="M973.013,176.2749 C1037.35,172.6199 1128.64,167.4329 1188.45,164.0349 " fill="none" id="ScheduleVaccine-VaccineType" style="stroke:#181818;stroke-width:1.0;"/><polygon fill="#000000" points="1012.9919,161.8487,1003.7947,159.4276,1004.1281,165.296,1012.9919,161.8487" style="stroke:#000000;stroke-width:1.0;"/><text fill="#000000" font-family="sans-serif" font-size="13" lengthAdjust="spacing" textLength="61" x="1017" y="166.6328">for taking</text><text fill="#000000" font-family="sans-serif" font-size="13" lengthAdjust="spacing" textLength="7" x="980.8893" y="188.6842">*</text><text fill="#000000" font-family="sans-serif" font-size="13" lengthAdjust="spacing" textLength="8" x="1172.4002" y="177.4534">1</text></g><!--MD5=[63360e778bc0d8ef58348331d609200a]
link ScheduleVaccine to SNSUser--><g id="link_ScheduleVaccine_SNSUser"><path codeLine="64" d="M819.881,197.6829 C777.506,206.5899 723.565,216.7959 675,222.5659 C573.577,234.6159 455.706,238.6499 380.169,239.9719 " fill="none" id="ScheduleVaccine-SNSUser" style="stroke:#181818;stroke-width:1.0;"/><polygon fill="#000000" points="538.523,214.611,547.8079,216.6705,547.2452,210.8196,538.523,214.611" style="stroke:#000000;stroke-width:1.0;"/><text fill="#000000" font-family="sans-serif" font-size="13" lengthAdjust="spacing" textLength="85" x="552.5" y="218.6328">requested by</text><text fill="#000000" font-family="sans-serif" font-size="13" lengthAdjust="spacing" textLength="7" x="804.9943" y="212.1996">*</text><text fill="#000000" font-family="sans-serif" font-size="13" lengthAdjust="spacing" textLength="8" x="388.0484" y="252.6996">1</text></g><!--MD5=[f558e7d7143b2496643cfca392b63012]
link VaccineType to Company--><g id="link_VaccineType_Company"><path codeLine="65" d="M1188.39,120.7559 C1120.3,80.3059 1005.537,23.5659 897.5,23.5659 C300.5,23.5659 300.5,23.5659 300.5,23.5659 C212.014,23.5659 127.906,96.6389 87.1332,138.3139 " fill="none" id="VaccineType-Company" style="stroke:#181818;stroke-width:1.0;"/><polygon fill="#000000" points="511.9994,15.0526,502.9086,12.2583,503.0023,18.1354,511.9994,15.0526" style="stroke:#000000;stroke-width:1.0;"/><text fill="#000000" font-family="sans-serif" font-size="13" lengthAdjust="spacing" textLength="158" x="516" y="19.6328">promotes administration</text><text fill="#000000" font-family="sans-serif" font-size="13" lengthAdjust="spacing" textLength="7" x="1173.3938" y="128.8998">*</text><text fill="#000000" font-family="sans-serif" font-size="13" lengthAdjust="spacing" textLength="8" x="84.0842" y="127.5421">1</text></g><!--MD5=[73dba191867eb55af6087d09e84543e5]
link Message to ScheduleVaccine--><g id="link_Message_ScheduleVaccine"><path codeLine="67" d="M643.502,150.0959 C692.487,156.0189 765.198,164.8099 819.943,171.4299 " fill="none" id="Message-ScheduleVaccine" style="stroke:#181818;stroke-width:1.0;"/><polygon fill="#000000" points="714.9638,150.7325,706.3369,146.7291,705.6314,152.5644,714.9638,150.7325" style="stroke:#000000;stroke-width:1.0;"/><text fill="#000000" font-family="sans-serif" font-size="13" lengthAdjust="spacing" textLength="70" x="719" y="154.6328">emitted on</text><text fill="#000000" font-family="sans-serif" font-size="13" lengthAdjust="spacing" textLength="24" x="651.6679" y="163.8875">0..1</text><text fill="#000000" font-family="sans-serif" font-size="13" lengthAdjust="spacing" textLength="8" x="804.0132" y="183.3623">1</text></g><!--MD5=[0185cac6666500c8f4198342bbf0353a]
link Company to Message--><g id="link_Company_Message"><path codeLine="68" d="M111.537,158.4349 C143.355,153.6679 185.481,148.0979 223,145.5659 C333.019,138.1399 462.14,139.8969 533.387,141.7759 " fill="none" id="Company-Message" style="stroke:#181818;stroke-width:1.0;"/><polygon fill="#000000" points="288.4961,131.935,279.3421,129.3553,279.574,135.2286,288.4961,131.935" style="stroke:#000000;stroke-width:1.0;"/><text fill="#000000" font-family="sans-serif" font-size="13" lengthAdjust="spacing" textLength="31" x="292.5" y="136.6328">send</text><text fill="#000000" font-family="sans-serif" font-size="13" lengthAdjust="spacing" textLength="8" x="119.6206" y="170.3971">1</text><text fill="#000000" font-family="sans-serif" font-size="13" lengthAdjust="spacing" textLength="7" x="518.5109" y="154.6264">*</text></g><!--MD5=[5a594f0a9ba95c766b00ef0665427c24]
link SNSUser to Message--><g id="link_SNSUser_Message"><path codeLine="69" d="M380.001,214.1879 C428.627,197.6389 490.103,176.7149 533.479,161.9519 " fill="none" id="SNSUser-Message" style="stroke:#181818;stroke-width:1.0;"/><polygon fill="#000000" points="419.7334,173.5213,410.2237,173.6534,412.1175,179.2178,419.7334,173.5213" style="stroke:#000000;stroke-width:1.0;"/><text fill="#000000" font-family="sans-serif" font-size="13" lengthAdjust="spacing" textLength="47" x="424" y="179.6328">receive</text><text fill="#000000" font-family="sans-serif" font-size="13" lengthAdjust="spacing" textLength="8" x="388.1222" y="224.3992">1</text><text fill="#000000" font-family="sans-serif" font-size="13" lengthAdjust="spacing" textLength="7" x="518.6152" y="177.5135">*</text></g><!--MD5=[07bab5f4164fa1b09a33c5f0b99cab45]
@startuml
hide methods
left to right direction
skinparam classAttributeIconSize 0

class Company {
  -designation
}

class SNSUser {
    -name
    -sex
    -phoneNumber
    -email
    -birthDate
    -SNSNumber
    -citizenCardNumber
}

class Address {
    -country
    -city
    -county
    -parish
    -street
    -portNumber
    -postalCode
    -floor
    -observation
}

class ScheduleVaccine {
    -date
    -time
}

class CommunityMassVaccinationCenter {
    -name
    -phoneNumber
    -email
    -faxNumber
    -website
    -slotDuration
    -slotVaccineLimit
}

class VaccineType {
    -code
    -description
    -technology
}

class Message {
    -date
    -time
    -textMessage
}


Company "1" - - "*" SNSUser : owns >
Company "1" - - "*" CommunityMassVaccinationCenter : manage >
Address "1" - - "1" SNSUser : has <
ScheduleVaccine "*" - - "1" CommunityMassVaccinationCenter : has <
ScheduleVaccine "*" - - "1" VaccineType : for taking >
ScheduleVaccine "*" - - "1" SNSUser : requested by >
VaccineType "*" - - "1" Company : promotes administration <

Message "0..1" - - "1" ScheduleVaccine : emitted on >
Company "1" - - "*" Message : send >
SNSUser "1" - - "*" Message : receive >
@enduml

PlantUML version 1.2022.6beta4(Unknown compile time)
(GPL source distribution)
Java Runtime: Java(TM) SE Runtime Environment
JVM: Java HotSpot(TM) 64-Bit Server VM
Default Encoding: UTF-8
Language: en
Country: US
--></g></svg>