<?xml version="1.0" encoding="UTF-8" standalone="no"?><svg xmlns="http://www.w3.org/2000/svg" xmlns:xlink="http://www.w3.org/1999/xlink" contentScriptType="application/ecmascript" contentStyleType="text/css" height="1796px" preserveAspectRatio="none" style="width:2162px;height:1796px;background:#FFFFFF;" version="1.1" viewBox="0 0 2162 1796" width="2162px" zoomAndPan="magnify"><defs><filter height="300%" id="ft58k8abki67k" width="300%" x="-1" y="-1"><feGaussianBlur result="blurOut" stdDeviation="2.0"/><feColorMatrix in="blurOut" result="blurOut2" type="matrix" values="0 0 0 0 0 0 0 0 0 0 0 0 0 0 0 0 0 0 .4 0"/><feOffset dx="4.0" dy="4.0" in="blurOut2" result="blurOut3"/><feBlend in="SourceGraphic" in2="blurOut3" mode="normal"/></filter></defs><g><rect fill="#FFFFFF" filter="url(#ft58k8abki67k)" height="1593.0391" style="stroke:#A80036;stroke-width:1.0;" width="10" x="69.5" y="99.6094"/><rect fill="#FFFFFF" filter="url(#ft58k8abki67k)" height="30.3516" style="stroke:#A80036;stroke-width:1.0;" width="10" x="467.5" y="121.9609"/><rect fill="#FFFFFF" filter="url(#ft58k8abki67k)" height="151.4063" style="stroke:#A80036;stroke-width:1.0;" width="10" x="467.5" y="182.6641"/><rect fill="#FFFFFF" filter="url(#ft58k8abki67k)" height="258.3672" style="stroke:#A80036;stroke-width:1.0;" width="10" x="467.5" y="364.4219"/><rect fill="#FFFFFF" filter="url(#ft58k8abki67k)" height="72.0547" style="stroke:#A80036;stroke-width:1.0;" width="10" x="467.5" y="653.1406"/><rect fill="#FFFFFF" filter="url(#ft58k8abki67k)" height="333.125" style="stroke:#A80036;stroke-width:1.0;" width="10" x="467.5" y="755.5469"/><rect fill="#FFFFFF" filter="url(#ft58k8abki67k)" height="305.5156" style="stroke:#A80036;stroke-width:1.0;" width="10" x="467.5" y="1119.0234"/><rect fill="#FFFFFF" filter="url(#ft58k8abki67k)" height="237.7578" style="stroke:#A80036;stroke-width:1.0;" width="10" x="467.5" y="1454.8906"/><rect fill="#FFFFFF" filter="url(#ft58k8abki67k)" height="197.6641" style="stroke:#A80036;stroke-width:1.0;" width="10" x="784.5" y="394.7734"/><rect fill="#FFFFFF" filter="url(#ft58k8abki67k)" height="214.3672" style="stroke:#A80036;stroke-width:1.0;" width="10" x="784.5" y="802.25"/><rect fill="#FFFFFF" filter="url(#ft58k8abki67k)" height="214.4609" style="stroke:#A80036;stroke-width:1.0;" width="10" x="784.5" y="1165.7266"/><rect fill="#FFFFFF" filter="url(#ft58k8abki67k)" height="170.0547" style="stroke:#A80036;stroke-width:1.0;" width="10" x="784.5" y="1485.2422"/><rect fill="#FFFFFF" filter="url(#ft58k8abki67k)" height="151.4063" style="stroke:#A80036;stroke-width:1.0;" width="10" x="944.5" y="182.6641"/><rect fill="#FFFFFF" filter="url(#ft58k8abki67k)" height="30" style="stroke:#A80036;stroke-width:1.0;" width="10" x="1161.5" y="243.3672"/><rect fill="#FFFFFF" filter="url(#ft58k8abki67k)" height="30" style="stroke:#A80036;stroke-width:1.0;" width="10" x="1161.5" y="425.125"/><rect fill="#FFFFFF" filter="url(#ft58k8abki67k)" height="30.3516" style="stroke:#A80036;stroke-width:1.0;" width="10" x="1285.5" y="485.4766"/><rect fill="#FFFFFF" filter="url(#ft58k8abki67k)" height="30" style="stroke:#A80036;stroke-width:1.0;" width="10" x="1285.5" y="562.4375"/><rect fill="#FFFFFF" filter="url(#ft58k8abki67k)" height="30.3516" style="stroke:#A80036;stroke-width:1.0;" width="10" x="1285.5" y="848.9531"/><rect fill="#FFFFFF" filter="url(#ft58k8abki67k)" height="30" style="stroke:#A80036;stroke-width:1.0;" width="10" x="1285.5" y="925.9141"/><rect fill="#FFFFFF" filter="url(#ft58k8abki67k)" height="30.3516" style="stroke:#A80036;stroke-width:1.0;" width="10" x="1285.5" y="986.2656"/><rect fill="#FFFFFF" filter="url(#ft58k8abki67k)" height="46.7031" style="stroke:#A80036;stroke-width:1.0;" width="10" x="1285.5" y="1212.4297"/><rect fill="#FFFFFF" filter="url(#ft58k8abki67k)" height="30" style="stroke:#A80036;stroke-width:1.0;" width="10" x="1285.5" y="1289.4844"/><rect fill="#FFFFFF" filter="url(#ft58k8abki67k)" height="30.3516" style="stroke:#A80036;stroke-width:1.0;" width="10" x="1285.5" y="1349.8359"/><rect fill="#FFFFFF" filter="url(#ft58k8abki67k)" height="139.7031" style="stroke:#A80036;stroke-width:1.0;" width="10" x="1285.5" y="1515.5938"/><rect fill="#FFFFFF" filter="url(#ft58k8abki67k)" height="28" style="stroke:#A80036;stroke-width:1.0;" width="10" x="1290.5" y="1553.9453"/><rect fill="#FFFFFF" filter="url(#ft58k8abki67k)" height="28" style="stroke:#A80036;stroke-width:1.0;" width="10" x="1290.5" y="1627.2969"/><rect fill="#FFFFFF" filter="url(#ft58k8abki67k)" height="30.3516" style="stroke:#A80036;stroke-width:1.0;" width="10" x="1453.5" y="303.7188"/><rect fill="#FFFFFF" filter="url(#ft58k8abki67k)" height="727.0469" style="stroke:#000000;stroke-width:2.0;" width="1973.5" x="10" y="668.1406"/><rect fill="#FFFFFF" filter="url(#ft58k8abki67k)" height="356.5703" style="stroke:#000000;stroke-width:2.0;" width="1953.5" x="20" y="1031.6172"/><line style="stroke:#A80036;stroke-width:1.0;stroke-dasharray:5.0,5.0;" x1="74" x2="74" y1="89.6094" y2="1710.6484"/><line style="stroke:#A80036;stroke-width:1.0;stroke-dasharray:5.0,5.0;" x1="472.5" x2="472.5" y1="89.6094" y2="1710.6484"/><line style="stroke:#A80036;stroke-width:1.0;stroke-dasharray:5.0,5.0;" x1="789.5" x2="789.5" y1="89.6094" y2="1710.6484"/><line style="stroke:#A80036;stroke-width:1.0;stroke-dasharray:5.0,5.0;" x1="949.5" x2="949.5" y1="89.6094" y2="1710.6484"/><line style="stroke:#A80036;stroke-width:1.0;stroke-dasharray:5.0,5.0;" x1="1166.5" x2="1166.5" y1="89.6094" y2="1710.6484"/><line style="stroke:#A80036;stroke-width:1.0;stroke-dasharray:5.0,5.0;" x1="1290.5" x2="1290.5" y1="89.6094" y2="1710.6484"/><line style="stroke:#A80036;stroke-width:1.0;stroke-dasharray:5.0,5.0;" x1="1458.5" x2="1458.5" y1="89.6094" y2="1710.6484"/><line style="stroke:#A80036;stroke-width:1.0;stroke-dasharray:5.0,5.0;" x1="1596.5" x2="1596.5" y1="526.7813" y2="1710.6484"/><line style="stroke:#A80036;stroke-width:1.0;stroke-dasharray:5.0,5.0;" x1="1717.5" x2="1717.5" y1="890.2578" y2="1710.6484"/><line style="stroke:#A80036;stroke-width:1.0;stroke-dasharray:5.0,5.0;" x1="1872.5" x2="1872.5" y1="1253.7813" y2="1710.6484"/><line style="stroke:#A80036;stroke-width:1.0;stroke-dasharray:5.0,5.0;" x1="2062.5" x2="2062.5" y1="89.6094" y2="1710.6484"/><text fill="#000000" font-family="sans-serif" font-size="14" lengthAdjust="spacing" textLength="83" x="30" y="86.5332">Administrator</text><ellipse cx="74.5" cy="15" fill="#FEFECE" filter="url(#ft58k8abki67k)" rx="8" ry="8" style="stroke:#A80036;stroke-width:2.0;"/><path d="M74.5,23 L74.5,50 M61.5,31 L87.5,31 M74.5,50 L61.5,65 M74.5,50 L87.5,65 " fill="none" filter="url(#ft58k8abki67k)" style="stroke:#A80036;stroke-width:2.0;"/><text fill="#000000" font-family="sans-serif" font-size="14" lengthAdjust="spacing" textLength="83" x="30" y="1724.1816">Administrator</text><ellipse cx="74.5" cy="1737.2578" fill="#FEFECE" filter="url(#ft58k8abki67k)" rx="8" ry="8" style="stroke:#A80036;stroke-width:2.0;"/><path d="M74.5,1745.2578 L74.5,1772.2578 M61.5,1753.2578 L87.5,1753.2578 M74.5,1772.2578 L61.5,1787.2578 M74.5,1772.2578 L87.5,1787.2578 " fill="none" filter="url(#ft58k8abki67k)" style="stroke:#A80036;stroke-width:2.0;"/><rect fill="#FEFECE" filter="url(#ft58k8abki67k)" height="49.2188" style="stroke:#A80036;stroke-width:1.5;" width="98" x="421.5" y="35.3906"/><text fill="#000000" font-family="sans-serif" font-size="14" lengthAdjust="spacing" textLength="80" x="428.5" y="56.9238">: SpecifyNew</text><text fill="#000000" font-family="sans-serif" font-size="14" lengthAdjust="spacing" textLength="62" x="441.5" y="74.5332">VaccineUI</text><rect fill="#FEFECE" filter="url(#ft58k8abki67k)" height="49.2188" style="stroke:#A80036;stroke-width:1.5;" width="98" x="421.5" y="1709.6484"/><text fill="#000000" font-family="sans-serif" font-size="14" lengthAdjust="spacing" textLength="80" x="428.5" y="1731.1816">: SpecifyNew</text><text fill="#000000" font-family="sans-serif" font-size="14" lengthAdjust="spacing" textLength="62" x="441.5" y="1748.791">VaccineUI</text><rect fill="#FEFECE" filter="url(#ft58k8abki67k)" height="49.2188" style="stroke:#A80036;stroke-width:1.5;" width="130" x="722.5" y="35.3906"/><text fill="#000000" font-family="sans-serif" font-size="14" lengthAdjust="spacing" textLength="80" x="745.5" y="56.9238">: SpecifyNew</text><text fill="#000000" font-family="sans-serif" font-size="14" lengthAdjust="spacing" textLength="112" x="733.5" y="74.5332">VaccineController</text><rect fill="#FEFECE" filter="url(#ft58k8abki67k)" height="49.2188" style="stroke:#A80036;stroke-width:1.5;" width="130" x="722.5" y="1709.6484"/><text fill="#000000" font-family="sans-serif" font-size="14" lengthAdjust="spacing" textLength="80" x="745.5" y="1731.1816">: SpecifyNew</text><text fill="#000000" font-family="sans-serif" font-size="14" lengthAdjust="spacing" textLength="112" x="733.5" y="1748.791">VaccineController</text><rect fill="#FEFECE" filter="url(#ft58k8abki67k)" height="49.2188" style="stroke:#A80036;stroke-width:1.5;" width="162" x="866.5" y="35.3906"/><text fill="#000000" font-family="sans-serif" font-size="14" lengthAdjust="spacing" textLength="80" x="905.5" y="56.9238">: SpecifyNew</text><text fill="#000000" font-family="sans-serif" font-size="14" lengthAdjust="spacing" textLength="144" x="877.5" y="74.5332">VaccineTypeController</text><rect fill="#FEFECE" filter="url(#ft58k8abki67k)" height="49.2188" style="stroke:#A80036;stroke-width:1.5;" width="162" x="866.5" y="1709.6484"/><text fill="#000000" font-family="sans-serif" font-size="14" lengthAdjust="spacing" textLength="80" x="905.5" y="1731.1816">: SpecifyNew</text><text fill="#000000" font-family="sans-serif" font-size="14" lengthAdjust="spacing" textLength="144" x="877.5" y="1748.791">VaccineTypeController</text><rect fill="#FEFECE" filter="url(#ft58k8abki67k)" height="31.6094" style="stroke:#A80036;stroke-width:1.5;" width="82" x="1123.5" y="53"/><text fill="#000000" font-family="sans-serif" font-size="14" lengthAdjust="spacing" textLength="68" x="1130.5" y="74.5332">: Company</text><rect fill="#FEFECE" filter="url(#ft58k8abki67k)" height="31.6094" style="stroke:#A80036;stroke-width:1.5;" width="82" x="1123.5" y="1709.6484"/><text fill="#000000" font-family="sans-serif" font-size="14" lengthAdjust="spacing" textLength="68" x="1130.5" y="1731.1816">: Company</text><rect fill="#FEFECE" filter="url(#ft58k8abki67k)" height="31.6094" style="stroke:#A80036;stroke-width:1.5;" width="138" x="1219.5" y="53"/><text fill="#000000" font-family="sans-serif" font-size="14" lengthAdjust="spacing" textLength="124" x="1226.5" y="74.5332">store: VaccineStore</text><rect fill="#FEFECE" filter="url(#ft58k8abki67k)" height="31.6094" style="stroke:#A80036;stroke-width:1.5;" width="138" x="1219.5" y="1709.6484"/><text fill="#000000" font-family="sans-serif" font-size="14" lengthAdjust="spacing" textLength="124" x="1226.5" y="1731.1816">store: VaccineStore</text><rect fill="#FEFECE" filter="url(#ft58k8abki67k)" height="31.6094" style="stroke:#A80036;stroke-width:1.5;" width="170" x="1371.5" y="53"/><text fill="#000000" font-family="sans-serif" font-size="14" lengthAdjust="spacing" textLength="156" x="1378.5" y="74.5332">store: VaccineTypeStore</text><rect fill="#FEFECE" filter="url(#ft58k8abki67k)" height="31.6094" style="stroke:#A80036;stroke-width:1.5;" width="170" x="1371.5" y="1709.6484"/><text fill="#000000" font-family="sans-serif" font-size="14" lengthAdjust="spacing" textLength="156" x="1378.5" y="1731.1816">store: VaccineTypeStore</text><rect fill="#FEFECE" filter="url(#ft58k8abki67k)" height="31.6094" style="stroke:#A80036;stroke-width:1.5;" width="79" x="1555.5" y="1709.6484"/><text fill="#000000" font-family="sans-serif" font-size="14" lengthAdjust="spacing" textLength="65" x="1562.5" y="1731.1816">v: Vaccine</text><rect fill="#FEFECE" filter="url(#ft58k8abki67k)" height="31.6094" style="stroke:#A80036;stroke-width:1.5;" width="103" x="1664.5" y="1709.6484"/><text fill="#000000" font-family="sans-serif" font-size="14" lengthAdjust="spacing" textLength="89" x="1671.5" y="1731.1816">ag: AgeGroup</text><rect fill="#FEFECE" filter="url(#ft58k8abki67k)" height="31.6094" style="stroke:#A80036;stroke-width:1.5;" width="178" x="1781.5" y="1709.6484"/><text fill="#000000" font-family="sans-serif" font-size="14" lengthAdjust="spacing" textLength="164" x="1788.5" y="1731.1816">ap: AdministrationProcess</text><rect fill="#FEFECE" filter="url(#ft58k8abki67k)" height="31.6094" style="stroke:#A80036;stroke-width:1.5;" width="175" x="1973.5" y="53"/><text fill="#000000" font-family="sans-serif" font-size="14" lengthAdjust="spacing" textLength="161" x="1980.5" y="74.5332">vtList: List&lt;VaccineType&gt;</text><rect fill="#FEFECE" filter="url(#ft58k8abki67k)" height="31.6094" style="stroke:#A80036;stroke-width:1.5;" width="175" x="1973.5" y="1709.6484"/><text fill="#000000" font-family="sans-serif" font-size="14" lengthAdjust="spacing" textLength="161" x="1980.5" y="1731.1816">vtList: List&lt;VaccineType&gt;</text><rect fill="#FFFFFF" filter="url(#ft58k8abki67k)" height="1593.0391" style="stroke:#A80036;stroke-width:1.0;" width="10" x="69.5" y="99.6094"/><rect fill="#FFFFFF" filter="url(#ft58k8abki67k)" height="30.3516" style="stroke:#A80036;stroke-width:1.0;" width="10" x="467.5" y="121.9609"/><rect fill="#FFFFFF" filter="url(#ft58k8abki67k)" height="151.4063" style="stroke:#A80036;stroke-width:1.0;" width="10" x="467.5" y="182.6641"/><rect fill="#FFFFFF" filter="url(#ft58k8abki67k)" height="258.3672" style="stroke:#A80036;stroke-width:1.0;" width="10" x="467.5" y="364.4219"/><rect fill="#FFFFFF" filter="url(#ft58k8abki67k)" height="72.0547" style="stroke:#A80036;stroke-width:1.0;" width="10" x="467.5" y="653.1406"/><rect fill="#FFFFFF" filter="url(#ft58k8abki67k)" height="333.125" style="stroke:#A80036;stroke-width:1.0;" width="10" x="467.5" y="755.5469"/><rect fill="#FFFFFF" filter="url(#ft58k8abki67k)" height="305.5156" style="stroke:#A80036;stroke-width:1.0;" width="10" x="467.5" y="1119.0234"/><rect fill="#FFFFFF" filter="url(#ft58k8abki67k)" height="237.7578" style="stroke:#A80036;stroke-width:1.0;" width="10" x="467.5" y="1454.8906"/><rect fill="#FFFFFF" filter="url(#ft58k8abki67k)" height="197.6641" style="stroke:#A80036;stroke-width:1.0;" width="10" x="784.5" y="394.7734"/><rect fill="#FFFFFF" filter="url(#ft58k8abki67k)" height="214.3672" style="stroke:#A80036;stroke-width:1.0;" width="10" x="784.5" y="802.25"/><rect fill="#FFFFFF" filter="url(#ft58k8abki67k)" height="214.4609" style="stroke:#A80036;stroke-width:1.0;" width="10" x="784.5" y="1165.7266"/><rect fill="#FFFFFF" filter="url(#ft58k8abki67k)" height="170.0547" style="stroke:#A80036;stroke-width:1.0;" width="10" x="784.5" y="1485.2422"/><rect fill="#FFFFFF" filter="url(#ft58k8abki67k)" height="151.4063" style="stroke:#A80036;stroke-width:1.0;" width="10" x="944.5" y="182.6641"/><rect fill="#FFFFFF" filter="url(#ft58k8abki67k)" height="30" style="stroke:#A80036;stroke-width:1.0;" width="10" x="1161.5" y="243.3672"/><rect fill="#FFFFFF" filter="url(#ft58k8abki67k)" height="30" style="stroke:#A80036;stroke-width:1.0;" width="10" x="1161.5" y="425.125"/><rect fill="#FFFFFF" filter="url(#ft58k8abki67k)" height="30.3516" style="stroke:#A80036;stroke-width:1.0;" width="10" x="1285.5" y="485.4766"/><rect fill="#FFFFFF" filter="url(#ft58k8abki67k)" height="30" style="stroke:#A80036;stroke-width:1.0;" width="10" x="1285.5" y="562.4375"/><rect fill="#FFFFFF" filter="url(#ft58k8abki67k)" height="30.3516" style="stroke:#A80036;stroke-width:1.0;" width="10" x="1285.5" y="848.9531"/><rect fill="#FFFFFF" filter="url(#ft58k8abki67k)" height="30" style="stroke:#A80036;stroke-width:1.0;" width="10" x="1285.5" y="925.9141"/><rect fill="#FFFFFF" filter="url(#ft58k8abki67k)" height="30.3516" style="stroke:#A80036;stroke-width:1.0;" width="10" x="1285.5" y="986.2656"/><rect fill="#FFFFFF" filter="url(#ft58k8abki67k)" height="46.7031" style="stroke:#A80036;stroke-width:1.0;" width="10" x="1285.5" y="1212.4297"/><rect fill="#FFFFFF" filter="url(#ft58k8abki67k)" height="30" style="stroke:#A80036;stroke-width:1.0;" width="10" x="1285.5" y="1289.4844"/><rect fill="#FFFFFF" filter="url(#ft58k8abki67k)" height="30.3516" style="stroke:#A80036;stroke-width:1.0;" width="10" x="1285.5" y="1349.8359"/><rect fill="#FFFFFF" filter="url(#ft58k8abki67k)" height="139.7031" style="stroke:#A80036;stroke-width:1.0;" width="10" x="1285.5" y="1515.5938"/><rect fill="#FFFFFF" filter="url(#ft58k8abki67k)" height="28" style="stroke:#A80036;stroke-width:1.0;" width="10" x="1290.5" y="1553.9453"/><rect fill="#FFFFFF" filter="url(#ft58k8abki67k)" height="28" style="stroke:#A80036;stroke-width:1.0;" width="10" x="1290.5" y="1627.2969"/><rect fill="#FFFFFF" filter="url(#ft58k8abki67k)" height="30.3516" style="stroke:#A80036;stroke-width:1.0;" width="10" x="1453.5" y="303.7188"/><polygon fill="#A80036" points="455.5,117.9609,465.5,121.9609,455.5,125.9609,459.5,121.9609" style="stroke:#A80036;stroke-width:1.0;"/><line style="stroke:#A80036;stroke-width:1.0;" x1="79.5" x2="461.5" y1="121.9609" y2="121.9609"/><text fill="#000000" font-family="sans-serif" font-size="13" font-weight="bold" lengthAdjust="spacing" textLength="7" x="86.5" y="117.1045">1</text><text fill="#000000" font-family="sans-serif" font-size="13" lengthAdjust="spacing" textLength="358" x="97.5" y="117.1045">starts specifying a new vaccine and its administration process</text><polygon fill="#A80036" points="90.5,148.3125,80.5,152.3125,90.5,156.3125,86.5,152.3125" style="stroke:#A80036;stroke-width:1.0;"/><line style="stroke:#A80036;stroke-width:1.0;stroke-dasharray:2.0,2.0;" x1="84.5" x2="471.5" y1="152.3125" y2="152.3125"/><text fill="#000000" font-family="sans-serif" font-size="13" font-weight="bold" lengthAdjust="spacing" textLength="7" x="96.5" y="147.4561">2</text><text fill="#000000" font-family="sans-serif" font-size="13" lengthAdjust="spacing" textLength="250" x="107.5" y="147.4561">requests data for the vaccine (name, brand)</text><polygon fill="#A80036" points="455.5,178.6641,465.5,182.6641,455.5,186.6641,459.5,182.6641" style="stroke:#A80036;stroke-width:1.0;"/><line style="stroke:#A80036;stroke-width:1.0;" x1="79.5" x2="461.5" y1="182.6641" y2="182.6641"/><text fill="#000000" font-family="sans-serif" font-size="13" font-weight="bold" lengthAdjust="spacing" textLength="7" x="86.5" y="177.8076">3</text><text fill="#000000" font-family="sans-serif" font-size="13" lengthAdjust="spacing" textLength="122" x="97.5" y="177.8076">types requested data</text><polygon fill="#A80036" points="932.5,209.0156,942.5,213.0156,932.5,217.0156,936.5,213.0156" style="stroke:#A80036;stroke-width:1.0;"/><line style="stroke:#A80036;stroke-width:1.0;" x1="477.5" x2="938.5" y1="213.0156" y2="213.0156"/><text fill="#000000" font-family="sans-serif" font-size="13" font-weight="bold" lengthAdjust="spacing" textLength="7" x="484.5" y="208.1592">4</text><text fill="#000000" font-family="sans-serif" font-size="13" lengthAdjust="spacing" textLength="168" x="495.5" y="208.1592">vtList = getVaccineTypeList()</text><polygon fill="#A80036" points="1149.5,239.3672,1159.5,243.3672,1149.5,247.3672,1153.5,243.3672" style="stroke:#A80036;stroke-width:1.0;"/><line style="stroke:#A80036;stroke-width:1.0;" x1="954.5" x2="1155.5" y1="243.3672" y2="243.3672"/><text fill="#000000" font-family="sans-serif" font-size="13" font-weight="bold" lengthAdjust="spacing" textLength="7" x="961.5" y="238.5107">5</text><text fill="#000000" font-family="sans-serif" font-size="13" lengthAdjust="spacing" textLength="177" x="972.5" y="238.5107">store = getVaccineTypeStore()</text><polygon fill="#A80036" points="1441.5,299.7188,1451.5,303.7188,1441.5,307.7188,1445.5,303.7188" style="stroke:#A80036;stroke-width:1.0;"/><line style="stroke:#A80036;stroke-width:1.0;" x1="954.5" x2="1447.5" y1="303.7188" y2="303.7188"/><text fill="#000000" font-family="sans-serif" font-size="13" font-weight="bold" lengthAdjust="spacing" textLength="7" x="961.5" y="298.8623">6</text><text fill="#000000" font-family="sans-serif" font-size="13" lengthAdjust="spacing" textLength="122" x="972.5" y="298.8623">getVaccineTypeList()</text><polygon fill="#A80036" points="90.5,330.0703,80.5,334.0703,90.5,338.0703,86.5,334.0703" style="stroke:#A80036;stroke-width:1.0;"/><line style="stroke:#A80036;stroke-width:1.0;stroke-dasharray:2.0,2.0;" x1="84.5" x2="471.5" y1="334.0703" y2="334.0703"/><text fill="#000000" font-family="sans-serif" font-size="13" font-weight="bold" lengthAdjust="spacing" textLength="7" x="96.5" y="329.2139">7</text><text fill="#000000" font-family="sans-serif" font-size="13" lengthAdjust="spacing" textLength="263" x="107.5" y="329.2139">shows vaccine type list and ask to select one</text><polygon fill="#A80036" points="455.5,360.4219,465.5,364.4219,455.5,368.4219,459.5,364.4219" style="stroke:#A80036;stroke-width:1.0;"/><line style="stroke:#A80036;stroke-width:1.0;" x1="79.5" x2="461.5" y1="364.4219" y2="364.4219"/><text fill="#000000" font-family="sans-serif" font-size="13" font-weight="bold" lengthAdjust="spacing" textLength="7" x="86.5" y="359.5654">8</text><text fill="#000000" font-family="sans-serif" font-size="13" lengthAdjust="spacing" textLength="129" x="97.5" y="359.5654">selects a vaccine type</text><polygon fill="#A80036" points="772.5,390.7734,782.5,394.7734,772.5,398.7734,776.5,394.7734" style="stroke:#A80036;stroke-width:1.0;"/><line style="stroke:#A80036;stroke-width:1.0;" x1="477.5" x2="778.5" y1="394.7734" y2="394.7734"/><text fill="#000000" font-family="sans-serif" font-size="13" font-weight="bold" lengthAdjust="spacing" textLength="7" x="484.5" y="389.917">9</text><text fill="#000000" font-family="sans-serif" font-size="13" lengthAdjust="spacing" textLength="242" x="495.5" y="389.917">createVaccine(name, brand, vaccineType)</text><polygon fill="#A80036" points="1149.5,421.125,1159.5,425.125,1149.5,429.125,1153.5,425.125" style="stroke:#A80036;stroke-width:1.0;"/><line style="stroke:#A80036;stroke-width:1.0;" x1="794.5" x2="1155.5" y1="425.125" y2="425.125"/><text fill="#000000" font-family="sans-serif" font-size="13" font-weight="bold" lengthAdjust="spacing" textLength="14" x="801.5" y="420.2686">10</text><text fill="#000000" font-family="sans-serif" font-size="13" lengthAdjust="spacing" textLength="149" x="819.5" y="420.2686">store = getVaccineStore()</text><polygon fill="#A80036" points="1273.5,481.4766,1283.5,485.4766,1273.5,489.4766,1277.5,485.4766" style="stroke:#A80036;stroke-width:1.0;"/><line style="stroke:#A80036;stroke-width:1.0;" x1="794.5" x2="1279.5" y1="485.4766" y2="485.4766"/><text fill="#000000" font-family="sans-serif" font-size="13" font-weight="bold" lengthAdjust="spacing" textLength="14" x="801.5" y="480.6201">11</text><text fill="#000000" font-family="sans-serif" font-size="13" lengthAdjust="spacing" textLength="263" x="819.5" y="480.6201">v = createVaccine(name, brand, vaccineType)</text><polygon fill="#A80036" points="1543.5,511.8281,1553.5,515.8281,1543.5,519.8281,1547.5,515.8281" style="stroke:#A80036;stroke-width:1.0;"/><line style="stroke:#A80036;stroke-width:1.0;stroke-dasharray:2.0,2.0;" x1="1290.5" x2="1549.5" y1="515.8281" y2="515.8281"/><text fill="#000000" font-family="sans-serif" font-size="13" font-weight="bold" lengthAdjust="spacing" textLength="14" x="1297.5" y="510.9717">12</text><text fill="#000000" font-family="sans-serif" font-size="13" lengthAdjust="spacing" textLength="195" x="1315.5" y="510.9717">create(name, brand, vaccineType)</text><rect fill="#FEFECE" filter="url(#ft58k8abki67k)" height="31.6094" style="stroke:#A80036;stroke-width:1.5;" width="79" x="1555.5" y="493.4766"/><text fill="#000000" font-family="sans-serif" font-size="14" lengthAdjust="spacing" textLength="65" x="1562.5" y="515.0098">v: Vaccine</text><polygon fill="#A80036" points="1273.5,558.4375,1283.5,562.4375,1273.5,566.4375,1277.5,562.4375" style="stroke:#A80036;stroke-width:1.0;"/><line style="stroke:#A80036;stroke-width:1.0;" x1="794.5" x2="1279.5" y1="562.4375" y2="562.4375"/><text fill="#000000" font-family="sans-serif" font-size="13" font-weight="bold" lengthAdjust="spacing" textLength="14" x="801.5" y="557.5811">13</text><text fill="#000000" font-family="sans-serif" font-size="13" lengthAdjust="spacing" textLength="103" x="819.5" y="557.5811">validateVaccine(v)</text><polygon fill="#A80036" points="90.5,618.7891,80.5,622.7891,90.5,626.7891,86.5,622.7891" style="stroke:#A80036;stroke-width:1.0;"/><line style="stroke:#A80036;stroke-width:1.0;stroke-dasharray:2.0,2.0;" x1="84.5" x2="471.5" y1="622.7891" y2="622.7891"/><text fill="#000000" font-family="sans-serif" font-size="13" font-weight="bold" lengthAdjust="spacing" textLength="14" x="96.5" y="617.9326">14</text><text fill="#000000" font-family="sans-serif" font-size="13" lengthAdjust="spacing" textLength="179" x="114.5" y="617.9326">requests number of age groups</text><polygon fill="#A80036" points="455.5,649.1406,465.5,653.1406,455.5,657.1406,459.5,653.1406" style="stroke:#A80036;stroke-width:1.0;"/><line style="stroke:#A80036;stroke-width:1.0;" x1="79.5" x2="461.5" y1="653.1406" y2="653.1406"/><text fill="#000000" font-family="sans-serif" font-size="13" font-weight="bold" lengthAdjust="spacing" textLength="14" x="86.5" y="648.2842">15</text><text fill="#000000" font-family="sans-serif" font-size="13" lengthAdjust="spacing" textLength="122" x="104.5" y="648.2842">types requested data</text><path d="M10,668.1406 L83,668.1406 L83,676.1406 L73,686.1406 L10,686.1406 L10,668.1406 " fill="#EEEEEE" style="stroke:#000000;stroke-width:1.0;"/><rect fill="none" height="727.0469" style="stroke:#000000;stroke-width:2.0;" width="1973.5" x="10" y="668.1406"/><text fill="#000000" font-family="sans-serif" font-size="13" font-weight="bold" lengthAdjust="spacing" textLength="28" x="25" y="682.6357">loop</text><polygon fill="#A80036" points="90.5,721.1953,80.5,725.1953,90.5,729.1953,86.5,725.1953" style="stroke:#A80036;stroke-width:1.0;"/><line style="stroke:#A80036;stroke-width:1.0;stroke-dasharray:2.0,2.0;" x1="84.5" x2="471.5" y1="725.1953" y2="725.1953"/><text fill="#000000" font-family="sans-serif" font-size="13" font-weight="bold" lengthAdjust="spacing" textLength="14" x="96.5" y="712.1631">16</text><text fill="#000000" font-family="sans-serif" font-size="13" lengthAdjust="spacing" textLength="338" x="114.5" y="703.9873">requests data for age group (minimum age, maximum age,</text><text fill="#000000" font-family="sans-serif" font-size="13" lengthAdjust="spacing" textLength="132" x="114.5" y="720.3389">doses to administered)</text><polygon fill="#A80036" points="455.5,751.5469,465.5,755.5469,455.5,759.5469,459.5,755.5469" style="stroke:#A80036;stroke-width:1.0;"/><line style="stroke:#A80036;stroke-width:1.0;" x1="79.5" x2="461.5" y1="755.5469" y2="755.5469"/><text fill="#000000" font-family="sans-serif" font-size="13" font-weight="bold" lengthAdjust="spacing" textLength="14" x="86.5" y="750.6904">17</text><text fill="#000000" font-family="sans-serif" font-size="13" lengthAdjust="spacing" textLength="122" x="104.5" y="750.6904">types requested data</text><polygon fill="#A80036" points="772.5,798.25,782.5,802.25,772.5,806.25,776.5,802.25" style="stroke:#A80036;stroke-width:1.0;"/><line style="stroke:#A80036;stroke-width:1.0;" x1="477.5" x2="778.5" y1="802.25" y2="802.25"/><text fill="#000000" font-family="sans-serif" font-size="13" font-weight="bold" lengthAdjust="spacing" textLength="14" x="484.5" y="789.2178">18</text><text fill="#000000" font-family="sans-serif" font-size="13" lengthAdjust="spacing" textLength="266" x="502.5" y="781.042">createAgeGroup(minimumAge, maximumAge,</text><text fill="#000000" font-family="sans-serif" font-size="13" lengthAdjust="spacing" textLength="115" x="502.5" y="797.3936">dosesAdministered)</text><polygon fill="#A80036" points="1273.5,844.9531,1283.5,848.9531,1273.5,852.9531,1277.5,848.9531" style="stroke:#A80036;stroke-width:1.0;"/><line style="stroke:#A80036;stroke-width:1.0;" x1="794.5" x2="1279.5" y1="848.9531" y2="848.9531"/><text fill="#000000" font-family="sans-serif" font-size="13" font-weight="bold" lengthAdjust="spacing" textLength="14" x="801.5" y="835.9209">19</text><text fill="#000000" font-family="sans-serif" font-size="13" lengthAdjust="spacing" textLength="296" x="819.5" y="827.7451">ag = createAgeGroup(minimumAge, maximumAge,</text><text fill="#000000" font-family="sans-serif" font-size="13" lengthAdjust="spacing" textLength="115" x="819.5" y="844.0967">dosesAdministered)</text><polygon fill="#A80036" points="1652.5,875.3047,1662.5,879.3047,1652.5,883.3047,1656.5,879.3047" style="stroke:#A80036;stroke-width:1.0;"/><line style="stroke:#A80036;stroke-width:1.0;stroke-dasharray:2.0,2.0;" x1="1290.5" x2="1658.5" y1="879.3047" y2="879.3047"/><text fill="#000000" font-family="sans-serif" font-size="13" font-weight="bold" lengthAdjust="spacing" textLength="14" x="1297.5" y="874.4482">20</text><text fill="#000000" font-family="sans-serif" font-size="13" lengthAdjust="spacing" textLength="327" x="1315.5" y="874.4482">create(minimumAge, maximumAge, dosesAdministered)</text><rect fill="#FEFECE" filter="url(#ft58k8abki67k)" height="31.6094" style="stroke:#A80036;stroke-width:1.5;" width="103" x="1664.5" y="856.9531"/><text fill="#000000" font-family="sans-serif" font-size="14" lengthAdjust="spacing" textLength="89" x="1671.5" y="878.4863">ag: AgeGroup</text><polygon fill="#A80036" points="1273.5,921.9141,1283.5,925.9141,1273.5,929.9141,1277.5,925.9141" style="stroke:#A80036;stroke-width:1.0;"/><line style="stroke:#A80036;stroke-width:1.0;" x1="794.5" x2="1279.5" y1="925.9141" y2="925.9141"/><text fill="#000000" font-family="sans-serif" font-size="13" font-weight="bold" lengthAdjust="spacing" textLength="14" x="801.5" y="921.0576">21</text><text fill="#000000" font-family="sans-serif" font-size="13" lengthAdjust="spacing" textLength="166" x="819.5" y="921.0576">validateAgeGroup(agList, ag)</text><polygon fill="#A80036" points="1273.5,982.2656,1283.5,986.2656,1273.5,990.2656,1277.5,986.2656" style="stroke:#A80036;stroke-width:1.0;"/><line style="stroke:#A80036;stroke-width:1.0;" x1="794.5" x2="1279.5" y1="986.2656" y2="986.2656"/><text fill="#000000" font-family="sans-serif" font-size="13" font-weight="bold" lengthAdjust="spacing" textLength="14" x="801.5" y="981.4092">22</text><text fill="#000000" font-family="sans-serif" font-size="13" lengthAdjust="spacing" textLength="135" x="819.5" y="981.4092">v = addAgeGroup(v, ag)</text><polygon fill="#A80036" points="1585,1012.6172,1595,1016.6172,1585,1020.6172,1589,1016.6172" style="stroke:#A80036;stroke-width:1.0;"/><line style="stroke:#A80036;stroke-width:1.0;stroke-dasharray:2.0,2.0;" x1="1290.5" x2="1591" y1="1016.6172" y2="1016.6172"/><text fill="#000000" font-family="sans-serif" font-size="13" font-weight="bold" lengthAdjust="spacing" textLength="14" x="1297.5" y="1011.7607">23</text><text fill="#000000" font-family="sans-serif" font-size="13" lengthAdjust="spacing" textLength="101" x="1315.5" y="1011.7607">addAgeGroup(ag)</text><path d="M20,1031.6172 L93,1031.6172 L93,1039.6172 L83,1049.6172 L20,1049.6172 L20,1031.6172 " fill="#EEEEEE" style="stroke:#000000;stroke-width:1.0;"/><rect fill="none" height="356.5703" style="stroke:#000000;stroke-width:2.0;" width="1953.5" x="20" y="1031.6172"/><text fill="#000000" font-family="sans-serif" font-size="13" font-weight="bold" lengthAdjust="spacing" textLength="28" x="35" y="1046.1123">loop</text><polygon fill="#A80036" points="90.5,1084.6719,80.5,1088.6719,90.5,1092.6719,86.5,1088.6719" style="stroke:#A80036;stroke-width:1.0;"/><line style="stroke:#A80036;stroke-width:1.0;stroke-dasharray:2.0,2.0;" x1="84.5" x2="471.5" y1="1088.6719" y2="1088.6719"/><text fill="#000000" font-family="sans-serif" font-size="13" font-weight="bold" lengthAdjust="spacing" textLength="14" x="96.5" y="1075.6396">24</text><text fill="#000000" font-family="sans-serif" font-size="13" lengthAdjust="spacing" textLength="341" x="114.5" y="1067.4639">requests data for the administration process (dose number,</text><text fill="#000000" font-family="sans-serif" font-size="13" lengthAdjust="spacing" textLength="232" x="114.5" y="1083.8154">dosage, time interval between last dose)</text><polygon fill="#A80036" points="455.5,1115.0234,465.5,1119.0234,455.5,1123.0234,459.5,1119.0234" style="stroke:#A80036;stroke-width:1.0;"/><line style="stroke:#A80036;stroke-width:1.0;" x1="79.5" x2="461.5" y1="1119.0234" y2="1119.0234"/><text fill="#000000" font-family="sans-serif" font-size="13" font-weight="bold" lengthAdjust="spacing" textLength="14" x="86.5" y="1114.167">25</text><text fill="#000000" font-family="sans-serif" font-size="13" lengthAdjust="spacing" textLength="122" x="104.5" y="1114.167">types requested data</text><polygon fill="#A80036" points="772.5,1161.7266,782.5,1165.7266,772.5,1169.7266,776.5,1165.7266" style="stroke:#A80036;stroke-width:1.0;"/><line style="stroke:#A80036;stroke-width:1.0;" x1="477.5" x2="778.5" y1="1165.7266" y2="1165.7266"/><text fill="#000000" font-family="sans-serif" font-size="13" font-weight="bold" lengthAdjust="spacing" textLength="14" x="484.5" y="1152.6943">26</text><text fill="#000000" font-family="sans-serif" font-size="13" lengthAdjust="spacing" textLength="248" x="502.5" y="1144.5186">createAdministrationProcess(doseNumber,</text><text fill="#000000" font-family="sans-serif" font-size="13" lengthAdjust="spacing" textLength="224" x="502.5" y="1160.8701">dosage, timeIntervalBetweenLastDose)</text><polygon fill="#A80036" points="1273.5,1208.4297,1283.5,1212.4297,1273.5,1216.4297,1277.5,1212.4297" style="stroke:#A80036;stroke-width:1.0;"/><line style="stroke:#A80036;stroke-width:1.0;" x1="794.5" x2="1279.5" y1="1212.4297" y2="1212.4297"/><text fill="#000000" font-family="sans-serif" font-size="13" font-weight="bold" lengthAdjust="spacing" textLength="14" x="801.5" y="1199.3975">27</text><text fill="#000000" font-family="sans-serif" font-size="13" lengthAdjust="spacing" textLength="270" x="819.5" y="1191.2217">ap=createAdministrationProcess(doseNumber,</text><text fill="#000000" font-family="sans-serif" font-size="13" lengthAdjust="spacing" textLength="224" x="819.5" y="1207.5732">dosage, timeIntervalBetweenLastDose)</text><polygon fill="#A80036" points="1769.5,1255.1328,1779.5,1259.1328,1769.5,1263.1328,1773.5,1259.1328" style="stroke:#A80036;stroke-width:1.0;"/><line style="stroke:#A80036;stroke-width:1.0;stroke-dasharray:2.0,2.0;" x1="1290.5" x2="1775.5" y1="1259.1328" y2="1259.1328"/><text fill="#000000" font-family="sans-serif" font-size="13" font-weight="bold" lengthAdjust="spacing" textLength="14" x="1297.5" y="1246.1006">28</text><text fill="#000000" font-family="sans-serif" font-size="13" lengthAdjust="spacing" textLength="248" x="1315.5" y="1237.9248">createAdministrationProcess(doseNumber,</text><text fill="#000000" font-family="sans-serif" font-size="13" lengthAdjust="spacing" textLength="224" x="1315.5" y="1254.2764">dosage, timeIntervalBetweenLastDose)</text><rect fill="#FEFECE" filter="url(#ft58k8abki67k)" height="31.6094" style="stroke:#A80036;stroke-width:1.5;" width="178" x="1781.5" y="1220.5234"/><text fill="#000000" font-family="sans-serif" font-size="14" lengthAdjust="spacing" textLength="164" x="1788.5" y="1242.0566">ap: AdministrationProcess</text><polygon fill="#A80036" points="1273.5,1285.4844,1283.5,1289.4844,1273.5,1293.4844,1277.5,1289.4844" style="stroke:#A80036;stroke-width:1.0;"/><line style="stroke:#A80036;stroke-width:1.0;" x1="794.5" x2="1279.5" y1="1289.4844" y2="1289.4844"/><text fill="#000000" font-family="sans-serif" font-size="13" font-weight="bold" lengthAdjust="spacing" textLength="14" x="801.5" y="1284.6279">29</text><text fill="#000000" font-family="sans-serif" font-size="13" lengthAdjust="spacing" textLength="239" x="819.5" y="1284.6279">validateAdministrationProcess(apList, ap)</text><polygon fill="#A80036" points="1273.5,1345.8359,1283.5,1349.8359,1273.5,1353.8359,1277.5,1349.8359" style="stroke:#A80036;stroke-width:1.0;"/><line style="stroke:#A80036;stroke-width:1.0;" x1="794.5" x2="1279.5" y1="1349.8359" y2="1349.8359"/><text fill="#000000" font-family="sans-serif" font-size="13" font-weight="bold" lengthAdjust="spacing" textLength="14" x="801.5" y="1344.9795">30</text><text fill="#000000" font-family="sans-serif" font-size="13" lengthAdjust="spacing" textLength="226" x="819.5" y="1344.9795">ag = addAdministrationProcess(ag, ap)</text><polygon fill="#A80036" points="1706,1376.1875,1716,1380.1875,1706,1384.1875,1710,1380.1875" style="stroke:#A80036;stroke-width:1.0;"/><line style="stroke:#A80036;stroke-width:1.0;stroke-dasharray:2.0,2.0;" x1="1290.5" x2="1712" y1="1380.1875" y2="1380.1875"/><text fill="#000000" font-family="sans-serif" font-size="13" font-weight="bold" lengthAdjust="spacing" textLength="14" x="1297.5" y="1375.3311">31</text><text fill="#000000" font-family="sans-serif" font-size="13" lengthAdjust="spacing" textLength="174" x="1315.5" y="1375.3311">addAdministrationProcess(ap)</text><polygon fill="#A80036" points="90.5,1420.5391,80.5,1424.5391,90.5,1428.5391,86.5,1424.5391" style="stroke:#A80036;stroke-width:1.0;"/><line style="stroke:#A80036;stroke-width:1.0;stroke-dasharray:2.0,2.0;" x1="84.5" x2="471.5" y1="1424.5391" y2="1424.5391"/><text fill="#000000" font-family="sans-serif" font-size="13" font-weight="bold" lengthAdjust="spacing" textLength="14" x="96.5" y="1419.6826">32</text><text fill="#000000" font-family="sans-serif" font-size="13" lengthAdjust="spacing" textLength="236" x="114.5" y="1419.6826">shows all data and requests confirmation</text><polygon fill="#A80036" points="455.5,1450.8906,465.5,1454.8906,455.5,1458.8906,459.5,1454.8906" style="stroke:#A80036;stroke-width:1.0;"/><line style="stroke:#A80036;stroke-width:1.0;" x1="79.5" x2="461.5" y1="1454.8906" y2="1454.8906"/><text fill="#000000" font-family="sans-serif" font-size="13" font-weight="bold" lengthAdjust="spacing" textLength="14" x="86.5" y="1450.0342">33</text><text fill="#000000" font-family="sans-serif" font-size="13" lengthAdjust="spacing" textLength="100" x="104.5" y="1450.0342">confirms the data</text><polygon fill="#A80036" points="772.5,1481.2422,782.5,1485.2422,772.5,1489.2422,776.5,1485.2422" style="stroke:#A80036;stroke-width:1.0;"/><line style="stroke:#A80036;stroke-width:1.0;" x1="477.5" x2="778.5" y1="1485.2422" y2="1485.2422"/><text fill="#000000" font-family="sans-serif" font-size="13" font-weight="bold" lengthAdjust="spacing" textLength="14" x="484.5" y="1480.3857">34</text><text fill="#000000" font-family="sans-serif" font-size="13" lengthAdjust="spacing" textLength="81" x="502.5" y="1480.3857">saveVaccine()</text><polygon fill="#A80036" points="1273.5,1511.5938,1283.5,1515.5938,1273.5,1519.5938,1277.5,1515.5938" style="stroke:#A80036;stroke-width:1.0;"/><line style="stroke:#A80036;stroke-width:1.0;" x1="794.5" x2="1279.5" y1="1515.5938" y2="1515.5938"/><text fill="#000000" font-family="sans-serif" font-size="13" font-weight="bold" lengthAdjust="spacing" textLength="14" x="801.5" y="1510.7373">35</text><text fill="#000000" font-family="sans-serif" font-size="13" lengthAdjust="spacing" textLength="86" x="819.5" y="1510.7373">saveVaccine(v)</text><line style="stroke:#A80036;stroke-width:1.0;" x1="1300.5" x2="1342.5" y1="1545.9453" y2="1545.9453"/><line style="stroke:#A80036;stroke-width:1.0;" x1="1342.5" x2="1342.5" y1="1545.9453" y2="1558.9453"/><line style="stroke:#A80036;stroke-width:1.0;" x1="1301.5" x2="1342.5" y1="1558.9453" y2="1558.9453"/><polygon fill="#A80036" points="1311.5,1554.9453,1301.5,1558.9453,1311.5,1562.9453,1307.5,1558.9453" style="stroke:#A80036;stroke-width:1.0;"/><text fill="#000000" font-family="sans-serif" font-size="13" font-weight="bold" lengthAdjust="spacing" textLength="14" x="1307.5" y="1541.0889">36</text><text fill="#000000" font-family="sans-serif" font-size="13" lengthAdjust="spacing" textLength="103" x="1325.5" y="1541.0889">validateVaccine(v)</text><line style="stroke:#A80036;stroke-width:1.0;" x1="1300.5" x2="1342.5" y1="1619.2969" y2="1619.2969"/><line style="stroke:#A80036;stroke-width:1.0;" x1="1342.5" x2="1342.5" y1="1619.2969" y2="1632.2969"/><line style="stroke:#A80036;stroke-width:1.0;" x1="1301.5" x2="1342.5" y1="1632.2969" y2="1632.2969"/><polygon fill="#A80036" points="1311.5,1628.2969,1301.5,1632.2969,1311.5,1636.2969,1307.5,1632.2969" style="stroke:#A80036;stroke-width:1.0;"/><text fill="#000000" font-family="sans-serif" font-size="13" font-weight="bold" lengthAdjust="spacing" textLength="14" x="1307.5" y="1614.4404">37</text><text fill="#000000" font-family="sans-serif" font-size="13" lengthAdjust="spacing" textLength="81" x="1325.5" y="1614.4404">addVaccine(v)</text><polygon fill="#A80036" points="85.5,1688.6484,75.5,1692.6484,85.5,1696.6484,81.5,1692.6484" style="stroke:#A80036;stroke-width:1.0;"/><line style="stroke:#A80036;stroke-width:1.0;stroke-dasharray:2.0,2.0;" x1="79.5" x2="471.5" y1="1692.6484" y2="1692.6484"/><text fill="#000000" font-family="sans-serif" font-size="13" font-weight="bold" lengthAdjust="spacing" textLength="14" x="91.5" y="1687.792">38</text><text fill="#000000" font-family="sans-serif" font-size="13" lengthAdjust="spacing" textLength="152" x="109.5" y="1687.792">informs operation success</text><!--MD5=[e42063038b375c91a653c60c2e7eae8e]
@startuml
autonumber
actor "Administrator" as ADM

participant ": SpecifyNew \n VaccineUI" as UI
participant ": SpecifyNew \n VaccineController" as CTRL
participant ": SpecifyNew \n VaccineTypeController" as CTRLVT
participant ": Company" as CMP
participant "store: VaccineStore" as VS
participant "store: VaccineTypeStore" as VTS
participant "v: Vaccine" as V
participant "ag: AgeGroup" as AG
participant "ap: AdministrationProcess" as AP
participant "vtList: List<VaccineType>" as VTLIST

activate ADM
ADM -> UI : starts specifying a new vaccine and its administration process
activate UI
UI - -> ADM : requests data for the vaccine (name, brand)
deactivate UI

ADM -> UI : types requested data
activate UI

activate CTRLVT
UI -> CTRLVT : vtList = getVaccineTypeList()
CTRLVT -> CMP : store = getVaccineTypeStore()
activate CMP
deactivate CMP

CTRLVT -> VTS : getVaccineTypeList()
activate VTS
UI - -> ADM : shows vaccine type list and ask to select one
deactivate VTS

deactivate CMP
deactivate CTRLVT
deactivate UI

ADM -> UI : selects a vaccine type
activate UI

UI -> CTRL : createVaccine(name, brand, vaccineType)
activate CTRL

CTRL -> CMP : store = getVaccineStore()
activate CMP
deactivate CMP

CTRL -> VS : v = createVaccine(name, brand, vaccineType)
activate VS
VS - -> V** : create(name, brand, vaccineType)
deactivate VS

CTRL -> VS : validateVaccine(v)
activate VS
deactivate CTRL
deactivate VS

UI - -> ADM : requests number of age groups
deactivate UI

ADM -> UI : types requested data
activate UI
loop
UI - -> ADM : requests data for age group (minimum age, maximum age, \ndoses to administered)
deactivate UI
ADM -> UI : types requested data
activate UI

UI -> CTRL : createAgeGroup(minimumAge, maximumAge, \ndosesAdministered)
activate CTRL

CTRL -> VS : ag = createAgeGroup(minimumAge, maximumAge, \ndosesAdministered)
activate VS
VS - -> AG** : create(minimumAge, maximumAge, dosesAdministered)
deactivate VS
CTRL -> VS : validateAgeGroup(agList, ag)
activate VS
deactivate VS
CTRL -> VS : v = addAgeGroup(v, ag)
activate VS
VS - -> V : addAgeGroup(ag)

deactivate CTRL
deactivate VS

loop
UI - -> ADM : requests data for the administration process (dose number, \ndosage, time interval between last dose)
deactivate UI

ADM -> UI : types requested data
activate UI
UI -> CTRL : createAdministrationProcess(doseNumber, \ndosage, timeIntervalBetweenLastDose)
activate CTRL

CTRL -> VS : ap=createAdministrationProcess(doseNumber, \ndosage, timeIntervalBetweenLastDose)
activate VS
VS - -> AP** : createAdministrationProcess(doseNumber, \ndosage, timeIntervalBetweenLastDose)
deactivate VS

CTRL -> VS : validateAdministrationProcess(apList, ap)
activate VS
deactivate VS

CTRL -> VS : ag = addAdministrationProcess(ag, ap)
activate VS
VS - -> AG : addAdministrationProcess(ap)
deactivate CTRL
deactivate VS
end
end

UI - -> ADM: shows all data and requests confirmation

deactivate UI
ADM -> UI : confirms the data
activate UI
UI -> CTRL : saveVaccine()
activate CTRL

CTRL -> VS : saveVaccine(v)
activate VS
VS -> VS: validateVaccine(v)
activate VS
deactivate VS

VS -> VS: addVaccine(v)
activate VS
deactivate VS
deactivate CTRL
deactivate VS

UI - -> ADM : informs operation success
deactivate UI
deactivate ADM

@enduml

PlantUML version 1.2022.1(Tue Feb 01 18:19:58 GMT 2022)
(GPL source distribution)
Java Runtime: OpenJDK Runtime Environment
JVM: OpenJDK 64-Bit Server VM
Default Encoding: Cp1252
Language: pt
Country: PT
--></g></svg>