<?xml version="1.0" encoding="UTF-8" standalone="no"?><svg xmlns="http://www.w3.org/2000/svg" xmlns:xlink="http://www.w3.org/1999/xlink" contentScriptType="application/ecmascript" contentStyleType="text/css" height="599px" preserveAspectRatio="none" style="width:2167px;height:599px;background:#FFFFFF;" version="1.1" viewBox="0 0 2167 599" width="2167px" zoomAndPan="magnify"><defs><filter height="300%" id="f1tsbhf6ca21i0" width="300%" x="-1" y="-1"><feGaussianBlur result="blurOut" stdDeviation="2.0"/><feColorMatrix in="blurOut" result="blurOut2" type="matrix" values="0 0 0 0 0 0 0 0 0 0 0 0 0 0 0 0 0 0 .4 0"/><feOffset dx="4.0" dy="4.0" in="blurOut2" result="blurOut3"/><feBlend in="SourceGraphic" in2="blurOut3" mode="normal"/></filter></defs><g><!--MD5=[02e4b9b7573f1156f41e60aa5b4e25a4]
class Company--><rect codeLine="4" fill="#FEFECE" filter="url(#f1tsbhf6ca21i0)" height="75.6719" id="Company" style="stroke:#A80036;stroke-width:1.5;" width="107" x="698" y="294"/><ellipse cx="722.9" cy="310" fill="#ADD1B2" rx="11" ry="11" style="stroke:#A80036;stroke-width:1.0;"/><path d="M724.9,306.5 Q725.1031,306 725.3375,305.75 Q725.5719,305.5 725.8375,305.5 Q726.3063,305.5 726.6031,305.7813 Q726.9,306.0625 726.9,306.7188 L726.9,308.2813 Q726.9,308.9375 726.6188,309.2188 Q726.3375,309.5 725.9,309.5 Q725.5094,309.5 725.2594,309.3281 Q725.0094,309.1563 724.9,308.7031 Q724.8531,308.3906 724.6813,308.2188 Q724.3688,307.8906 723.8063,307.7031 Q723.2438,307.5 722.6813,307.5 Q721.9781,307.5 721.3844,307.7813 Q720.8063,308.0625 720.3531,308.6875 Q719.9,309.3125 719.9,310.1719 L719.9,311.0938 Q719.9,312.125 720.7438,312.8125 Q721.5875,313.5 723.0875,313.5 Q723.9781,313.5 724.6031,313.2969 Q724.9625,313.1875 725.3688,312.8281 Q725.6344,312.625 725.775,312.5625 Q725.9156,312.5 726.0875,312.5 Q726.4156,312.5 726.65,312.7656 Q726.9,313.0156 726.9,313.375 Q726.9,313.7188 726.5563,314.125 Q726.0563,314.7188 725.2594,315.0469 Q724.2125,315.5 722.9313,315.5 Q721.4313,315.5 720.2281,314.9063 Q719.2594,314.4375 718.5719,313.4219 Q717.9,312.4063 717.9,311.2031 L717.9,310.1094 Q717.9,308.8594 718.4938,307.7656 Q719.1031,306.6719 720.15,306.0938 Q721.2125,305.5 722.4,305.5 Q723.1188,305.5 723.7438,305.75 Q724.3688,306 724.9,306.5 Z " fill="#000000"/><text fill="#000000" font-family="sans-serif" font-size="12" lengthAdjust="spacing" textLength="53" x="739.1" y="314.9102">Company</text><line style="stroke:#A80036;stroke-width:1.5;" x1="699" x2="804" y1="326" y2="326"/><text fill="#000000" font-family="sans-serif" font-size="11" lengthAdjust="spacing" textLength="59" x="704" y="341.4189">-designation</text><line style="stroke:#A80036;stroke-width:1.5;" x1="699" x2="804" y1="347.8359" y2="347.8359"/><text fill="#000000" font-family="sans-serif" font-size="11" lengthAdjust="spacing" textLength="95" x="704" y="363.2549">+getVaccineStore()</text><!--MD5=[19e445fc4d3b48519cbe33da05496394]
class Vaccine--><rect codeLine="9" fill="#FEFECE" filter="url(#f1tsbhf6ca21i0)" height="186.3594" id="Vaccine" style="stroke:#A80036;stroke-width:1.5;" width="206" x="1027" y="7"/><ellipse cx="1104.25" cy="23" fill="#ADD1B2" rx="11" ry="11" style="stroke:#A80036;stroke-width:1.0;"/><path d="M1106.25,19.5 Q1106.4531,19 1106.6875,18.75 Q1106.9219,18.5 1107.1875,18.5 Q1107.6563,18.5 1107.9531,18.7813 Q1108.25,19.0625 1108.25,19.7188 L1108.25,21.2813 Q1108.25,21.9375 1107.9688,22.2188 Q1107.6875,22.5 1107.25,22.5 Q1106.8594,22.5 1106.6094,22.3281 Q1106.3594,22.1563 1106.25,21.7031 Q1106.2031,21.3906 1106.0313,21.2188 Q1105.7188,20.8906 1105.1563,20.7031 Q1104.5938,20.5 1104.0313,20.5 Q1103.3281,20.5 1102.7344,20.7813 Q1102.1563,21.0625 1101.7031,21.6875 Q1101.25,22.3125 1101.25,23.1719 L1101.25,24.0938 Q1101.25,25.125 1102.0938,25.8125 Q1102.9375,26.5 1104.4375,26.5 Q1105.3281,26.5 1105.9531,26.2969 Q1106.3125,26.1875 1106.7188,25.8281 Q1106.9844,25.625 1107.125,25.5625 Q1107.2656,25.5 1107.4375,25.5 Q1107.7656,25.5 1108,25.7656 Q1108.25,26.0156 1108.25,26.375 Q1108.25,26.7188 1107.9063,27.125 Q1107.4063,27.7188 1106.6094,28.0469 Q1105.5625,28.5 1104.2813,28.5 Q1102.7813,28.5 1101.5781,27.9063 Q1100.6094,27.4375 1099.9219,26.4219 Q1099.25,25.4063 1099.25,24.2031 L1099.25,23.1094 Q1099.25,21.8594 1099.8438,20.7656 Q1100.4531,19.6719 1101.5,19.0938 Q1102.5625,18.5 1103.75,18.5 Q1104.4688,18.5 1105.0938,18.75 Q1105.7188,19 1106.25,19.5 Z " fill="#000000"/><text fill="#000000" font-family="sans-serif" font-size="12" lengthAdjust="spacing" textLength="43" x="1124.75" y="27.9102">Vaccine</text><line style="stroke:#A80036;stroke-width:1.5;" x1="1028" x2="1232" y1="39" y2="39"/><text fill="#000000" font-family="sans-serif" font-size="11" lengthAdjust="spacing" textLength="12" x="1033" y="54.4189">-id</text><text fill="#000000" font-family="sans-serif" font-size="11" lengthAdjust="spacing" textLength="30" x="1033" y="68.2549">-name</text><text fill="#000000" font-family="sans-serif" font-size="11" lengthAdjust="spacing" textLength="32" x="1033" y="82.0908">-brand</text><line style="stroke:#A80036;stroke-width:1.5;" x1="1028" x2="1232" y1="88.5078" y2="88.5078"/><text fill="#000000" font-family="sans-serif" font-size="11" lengthAdjust="spacing" textLength="182" x="1033" y="103.9268">+Vaccine(name, brand, vaccineType)</text><text fill="#000000" font-family="sans-serif" font-size="11" lengthAdjust="spacing" textLength="121" x="1033" y="117.7627">-checkNameRules(name)</text><text fill="#000000" font-family="sans-serif" font-size="11" lengthAdjust="spacing" textLength="125" x="1033" y="131.5986">-checkBrandRules(brand)</text><text fill="#000000" font-family="sans-serif" font-size="11" lengthAdjust="spacing" textLength="194" x="1033" y="145.4346">-checkVaccineTypeRules(vaccineType)</text><text fill="#000000" font-family="sans-serif" font-size="11" lengthAdjust="spacing" textLength="94" x="1033" y="159.2705">+addAgeGroup(ag)</text><text fill="#000000" font-family="sans-serif" font-size="11" lengthAdjust="spacing" textLength="60" x="1033" y="173.1064">+getAgList()</text><text fill="#000000" font-family="sans-serif" font-size="11" lengthAdjust="spacing" textLength="51" x="1033" y="186.9424">+toString()</text><!--MD5=[0e501da62322464167c8ec4d233a6b7e]
class VaccineType--><rect codeLine="22" fill="#FEFECE" filter="url(#f1tsbhf6ca21i0)" height="144.8516" id="VaccineType" style="stroke:#A80036;stroke-width:1.5;" width="232" x="1436.5" y="356.5"/><ellipse cx="1513.75" cy="372.5" fill="#ADD1B2" rx="11" ry="11" style="stroke:#A80036;stroke-width:1.0;"/><path d="M1515.75,369 Q1515.9531,368.5 1516.1875,368.25 Q1516.4219,368 1516.6875,368 Q1517.1563,368 1517.4531,368.2813 Q1517.75,368.5625 1517.75,369.2188 L1517.75,370.7813 Q1517.75,371.4375 1517.4688,371.7188 Q1517.1875,372 1516.75,372 Q1516.3594,372 1516.1094,371.8281 Q1515.8594,371.6563 1515.75,371.2031 Q1515.7031,370.8906 1515.5313,370.7188 Q1515.2188,370.3906 1514.6563,370.2031 Q1514.0938,370 1513.5313,370 Q1512.8281,370 1512.2344,370.2813 Q1511.6563,370.5625 1511.2031,371.1875 Q1510.75,371.8125 1510.75,372.6719 L1510.75,373.5938 Q1510.75,374.625 1511.5938,375.3125 Q1512.4375,376 1513.9375,376 Q1514.8281,376 1515.4531,375.7969 Q1515.8125,375.6875 1516.2188,375.3281 Q1516.4844,375.125 1516.625,375.0625 Q1516.7656,375 1516.9375,375 Q1517.2656,375 1517.5,375.2656 Q1517.75,375.5156 1517.75,375.875 Q1517.75,376.2188 1517.4063,376.625 Q1516.9063,377.2188 1516.1094,377.5469 Q1515.0625,378 1513.7813,378 Q1512.2813,378 1511.0781,377.4063 Q1510.1094,376.9375 1509.4219,375.9219 Q1508.75,374.9063 1508.75,373.7031 L1508.75,372.6094 Q1508.75,371.3594 1509.3438,370.2656 Q1509.9531,369.1719 1511,368.5938 Q1512.0625,368 1513.25,368 Q1513.9688,368 1514.5938,368.25 Q1515.2188,368.5 1515.75,369 Z " fill="#000000"/><text fill="#000000" font-family="sans-serif" font-size="12" lengthAdjust="spacing" textLength="69" x="1534.25" y="377.4102">VaccineType</text><line style="stroke:#A80036;stroke-width:1.5;" x1="1437.5" x2="1667.5" y1="388.5" y2="388.5"/><text fill="#000000" font-family="sans-serif" font-size="11" lengthAdjust="spacing" textLength="28" x="1442.5" y="403.9189">-code</text><text fill="#000000" font-family="sans-serif" font-size="11" lengthAdjust="spacing" textLength="57" x="1442.5" y="417.7549">-description</text><text fill="#000000" font-family="sans-serif" font-size="11" lengthAdjust="spacing" textLength="57" x="1442.5" y="431.5908">-technology</text><line style="stroke:#A80036;stroke-width:1.5;" x1="1437.5" x2="1667.5" y1="438.0078" y2="438.0078"/><text fill="#000000" font-family="sans-serif" font-size="11" lengthAdjust="spacing" textLength="220" x="1442.5" y="453.4268">+VaccineType(code, description, technology)</text><text fill="#000000" font-family="sans-serif" font-size="11" lengthAdjust="spacing" textLength="117" x="1442.5" y="467.2627">-checkCodeRules(code)</text><text fill="#000000" font-family="sans-serif" font-size="11" lengthAdjust="spacing" textLength="175" x="1442.5" y="481.0986">-checkDescriptionRules(description)</text><text fill="#000000" font-family="sans-serif" font-size="11" lengthAdjust="spacing" textLength="51" x="1442.5" y="494.9346">+toString()</text><!--MD5=[c59c99efa75f30327e326596f335a568]
class AgeGroup--><rect codeLine="32" fill="#FEFECE" filter="url(#f1tsbhf6ca21i0)" height="172.5234" id="AgeGroup" style="stroke:#A80036;stroke-width:1.5;" width="305" x="1400" y="13.5"/><ellipse cx="1520.75" cy="29.5" fill="#ADD1B2" rx="11" ry="11" style="stroke:#A80036;stroke-width:1.0;"/><path d="M1522.75,26 Q1522.9531,25.5 1523.1875,25.25 Q1523.4219,25 1523.6875,25 Q1524.1563,25 1524.4531,25.2813 Q1524.75,25.5625 1524.75,26.2188 L1524.75,27.7813 Q1524.75,28.4375 1524.4688,28.7188 Q1524.1875,29 1523.75,29 Q1523.3594,29 1523.1094,28.8281 Q1522.8594,28.6563 1522.75,28.2031 Q1522.7031,27.8906 1522.5313,27.7188 Q1522.2188,27.3906 1521.6563,27.2031 Q1521.0938,27 1520.5313,27 Q1519.8281,27 1519.2344,27.2813 Q1518.6563,27.5625 1518.2031,28.1875 Q1517.75,28.8125 1517.75,29.6719 L1517.75,30.5938 Q1517.75,31.625 1518.5938,32.3125 Q1519.4375,33 1520.9375,33 Q1521.8281,33 1522.4531,32.7969 Q1522.8125,32.6875 1523.2188,32.3281 Q1523.4844,32.125 1523.625,32.0625 Q1523.7656,32 1523.9375,32 Q1524.2656,32 1524.5,32.2656 Q1524.75,32.5156 1524.75,32.875 Q1524.75,33.2188 1524.4063,33.625 Q1523.9063,34.2188 1523.1094,34.5469 Q1522.0625,35 1520.7813,35 Q1519.2813,35 1518.0781,34.4063 Q1517.1094,33.9375 1516.4219,32.9219 Q1515.75,31.9063 1515.75,30.7031 L1515.75,29.6094 Q1515.75,28.3594 1516.3438,27.2656 Q1516.9531,26.1719 1518,25.5938 Q1519.0625,25 1520.25,25 Q1520.9688,25 1521.5938,25.25 Q1522.2188,25.5 1522.75,26 Z " fill="#000000"/><text fill="#000000" font-family="sans-serif" font-size="12" lengthAdjust="spacing" textLength="55" x="1541.25" y="34.4102">AgeGroup</text><line style="stroke:#A80036;stroke-width:1.5;" x1="1401" x2="1704" y1="45.5" y2="45.5"/><text fill="#000000" font-family="sans-serif" font-size="11" lengthAdjust="spacing" textLength="64" x="1406" y="60.9189">-minimumAge</text><text fill="#000000" font-family="sans-serif" font-size="11" lengthAdjust="spacing" textLength="68" x="1406" y="74.7549">-maximumAge</text><text fill="#000000" font-family="sans-serif" font-size="11" lengthAdjust="spacing" textLength="97" x="1406" y="88.5908">-dosesAdministered</text><line style="stroke:#A80036;stroke-width:1.5;" x1="1401" x2="1704" y1="95.0078" y2="95.0078"/><text fill="#000000" font-family="sans-serif" font-size="11" lengthAdjust="spacing" textLength="293" x="1406" y="110.4268">+AgeGroup(minimumAge, maximumAge, dosesAdministered)</text><text fill="#000000" font-family="sans-serif" font-size="11" lengthAdjust="spacing" textLength="221" x="1406" y="124.2627">-checkAgeRules(minimumAge, maximumAge);</text><text fill="#000000" font-family="sans-serif" font-size="11" lengthAdjust="spacing" textLength="228" x="1406" y="138.0986">-checkDosesAdministered(dosesAdministered)</text><text fill="#000000" font-family="sans-serif" font-size="11" lengthAdjust="spacing" textLength="152" x="1406" y="151.9346">+addAdministrationProcess(ap)</text><text fill="#000000" font-family="sans-serif" font-size="11" lengthAdjust="spacing" textLength="154" x="1406" y="165.7705">+getAdministrationProcessList()</text><text fill="#000000" font-family="sans-serif" font-size="11" lengthAdjust="spacing" textLength="51" x="1406" y="179.6064">+toString()</text><!--MD5=[a2530d24bafc45bb45314d96545aa194]
class AdministrationProcess--><rect codeLine="44" fill="#FEFECE" filter="url(#f1tsbhf6ca21i0)" height="158.6875" id="AdministrationProcess" style="stroke:#A80036;stroke-width:1.5;" width="387" x="1766" y="20.5"/><ellipse cx="1892.75" cy="36.5" fill="#ADD1B2" rx="11" ry="11" style="stroke:#A80036;stroke-width:1.0;"/><path d="M1894.75,33 Q1894.9531,32.5 1895.1875,32.25 Q1895.4219,32 1895.6875,32 Q1896.1563,32 1896.4531,32.2813 Q1896.75,32.5625 1896.75,33.2188 L1896.75,34.7813 Q1896.75,35.4375 1896.4688,35.7188 Q1896.1875,36 1895.75,36 Q1895.3594,36 1895.1094,35.8281 Q1894.8594,35.6563 1894.75,35.2031 Q1894.7031,34.8906 1894.5313,34.7188 Q1894.2188,34.3906 1893.6563,34.2031 Q1893.0938,34 1892.5313,34 Q1891.8281,34 1891.2344,34.2813 Q1890.6563,34.5625 1890.2031,35.1875 Q1889.75,35.8125 1889.75,36.6719 L1889.75,37.5938 Q1889.75,38.625 1890.5938,39.3125 Q1891.4375,40 1892.9375,40 Q1893.8281,40 1894.4531,39.7969 Q1894.8125,39.6875 1895.2188,39.3281 Q1895.4844,39.125 1895.625,39.0625 Q1895.7656,39 1895.9375,39 Q1896.2656,39 1896.5,39.2656 Q1896.75,39.5156 1896.75,39.875 Q1896.75,40.2188 1896.4063,40.625 Q1895.9063,41.2188 1895.1094,41.5469 Q1894.0625,42 1892.7813,42 Q1891.2813,42 1890.0781,41.4063 Q1889.1094,40.9375 1888.4219,39.9219 Q1887.75,38.9063 1887.75,37.7031 L1887.75,36.6094 Q1887.75,35.3594 1888.3438,34.2656 Q1888.9531,33.1719 1890,32.5938 Q1891.0625,32 1892.25,32 Q1892.9688,32 1893.5938,32.25 Q1894.2188,32.5 1894.75,33 Z " fill="#000000"/><text fill="#000000" font-family="sans-serif" font-size="12" lengthAdjust="spacing" textLength="125" x="1913.25" y="41.4102">AdministrationProcess</text><line style="stroke:#A80036;stroke-width:1.5;" x1="1767" x2="2152" y1="52.5" y2="52.5"/><text fill="#000000" font-family="sans-serif" font-size="11" lengthAdjust="spacing" textLength="65" x="1772" y="67.9189">-doseNumber</text><text fill="#000000" font-family="sans-serif" font-size="11" lengthAdjust="spacing" textLength="40" x="1772" y="81.7549">-dosage</text><text fill="#000000" font-family="sans-serif" font-size="11" lengthAdjust="spacing" textLength="148" x="1772" y="95.5908">-timeIntervalBetweenLastDose</text><line style="stroke:#A80036;stroke-width:1.5;" x1="1767" x2="2152" y1="102.0078" y2="102.0078"/><text fill="#000000" font-family="sans-serif" font-size="11" lengthAdjust="spacing" textLength="375" x="1772" y="117.4268">+AdministrationProcess(doseNumber, dosage, timeIntervalBetweenLastDose)</text><text fill="#000000" font-family="sans-serif" font-size="11" lengthAdjust="spacing" textLength="164" x="1772" y="131.2627">-checkDoseNumber(doseNumber)</text><text fill="#000000" font-family="sans-serif" font-size="11" lengthAdjust="spacing" textLength="114" x="1772" y="145.0986">-checkDosage(dosage)</text><text fill="#000000" font-family="sans-serif" font-size="11" lengthAdjust="spacing" textLength="310" x="1772" y="158.9346">-checkIntervalBetweenLastDose(timeIntervalBetweenLastDose)</text><text fill="#000000" font-family="sans-serif" font-size="11" lengthAdjust="spacing" textLength="51" x="1772" y="172.7705">+toString()</text><!--MD5=[0e7c043a007ff36ee83ae1d805ce7932]
class SpecifyNewVaccineUI--><rect codeLine="55" fill="#FEFECE" filter="url(#f1tsbhf6ca21i0)" height="48" id="SpecifyNewVaccineUI" style="stroke:#A80036;stroke-width:1.5;" width="151" x="7" y="209"/><ellipse cx="22" cy="225" fill="#ADD1B2" rx="11" ry="11" style="stroke:#A80036;stroke-width:1.0;"/><path d="M24,221.5 Q24.2031,221 24.4375,220.75 Q24.6719,220.5 24.9375,220.5 Q25.4063,220.5 25.7031,220.7813 Q26,221.0625 26,221.7188 L26,223.2813 Q26,223.9375 25.7188,224.2188 Q25.4375,224.5 25,224.5 Q24.6094,224.5 24.3594,224.3281 Q24.1094,224.1563 24,223.7031 Q23.9531,223.3906 23.7813,223.2188 Q23.4688,222.8906 22.9063,222.7031 Q22.3438,222.5 21.7813,222.5 Q21.0781,222.5 20.4844,222.7813 Q19.9063,223.0625 19.4531,223.6875 Q19,224.3125 19,225.1719 L19,226.0938 Q19,227.125 19.8438,227.8125 Q20.6875,228.5 22.1875,228.5 Q23.0781,228.5 23.7031,228.2969 Q24.0625,228.1875 24.4688,227.8281 Q24.7344,227.625 24.875,227.5625 Q25.0156,227.5 25.1875,227.5 Q25.5156,227.5 25.75,227.7656 Q26,228.0156 26,228.375 Q26,228.7188 25.6563,229.125 Q25.1563,229.7188 24.3594,230.0469 Q23.3125,230.5 22.0313,230.5 Q20.5313,230.5 19.3281,229.9063 Q18.3594,229.4375 17.6719,228.4219 Q17,227.4063 17,226.2031 L17,225.1094 Q17,223.8594 17.5938,222.7656 Q18.2031,221.6719 19.25,221.0938 Q20.3125,220.5 21.5,220.5 Q22.2188,220.5 22.8438,220.75 Q23.4688,221 24,221.5 Z " fill="#000000"/><text fill="#000000" font-family="sans-serif" font-size="12" lengthAdjust="spacing" textLength="119" x="36" y="229.9102">SpecifyNewVaccineUI</text><line style="stroke:#A80036;stroke-width:1.5;" x1="8" x2="157" y1="241" y2="241"/><line style="stroke:#A80036;stroke-width:1.5;" x1="8" x2="157" y1="249" y2="249"/><!--MD5=[5ff29b2a06d9bf6e3716314822b7d56c]
class SpecifyNewVaccineController--><rect codeLine="58" fill="#FEFECE" filter="url(#f1tsbhf6ca21i0)" height="117.1797" id="SpecifyNewVaccineController" style="stroke:#A80036;stroke-width:1.5;" width="418" x="219" y="174.5"/><ellipse cx="343.25" cy="190.5" fill="#ADD1B2" rx="11" ry="11" style="stroke:#A80036;stroke-width:1.0;"/><path d="M345.25,187 Q345.4531,186.5 345.6875,186.25 Q345.9219,186 346.1875,186 Q346.6563,186 346.9531,186.2813 Q347.25,186.5625 347.25,187.2188 L347.25,188.7813 Q347.25,189.4375 346.9688,189.7188 Q346.6875,190 346.25,190 Q345.8594,190 345.6094,189.8281 Q345.3594,189.6563 345.25,189.2031 Q345.2031,188.8906 345.0313,188.7188 Q344.7188,188.3906 344.1563,188.2031 Q343.5938,188 343.0313,188 Q342.3281,188 341.7344,188.2813 Q341.1563,188.5625 340.7031,189.1875 Q340.25,189.8125 340.25,190.6719 L340.25,191.5938 Q340.25,192.625 341.0938,193.3125 Q341.9375,194 343.4375,194 Q344.3281,194 344.9531,193.7969 Q345.3125,193.6875 345.7188,193.3281 Q345.9844,193.125 346.125,193.0625 Q346.2656,193 346.4375,193 Q346.7656,193 347,193.2656 Q347.25,193.5156 347.25,193.875 Q347.25,194.2188 346.9063,194.625 Q346.4063,195.2188 345.6094,195.5469 Q344.5625,196 343.2813,196 Q341.7813,196 340.5781,195.4063 Q339.6094,194.9375 338.9219,193.9219 Q338.25,192.9063 338.25,191.7031 L338.25,190.6094 Q338.25,189.3594 338.8438,188.2656 Q339.4531,187.1719 340.5,186.5938 Q341.5625,186 342.75,186 Q343.4688,186 344.0938,186.25 Q344.7188,186.5 345.25,187 Z " fill="#000000"/><text fill="#000000" font-family="sans-serif" font-size="12" lengthAdjust="spacing" textLength="161" x="363.75" y="195.4102">SpecifyNewVaccineController</text><line style="stroke:#A80036;stroke-width:1.5;" x1="220" x2="636" y1="206.5" y2="206.5"/><line style="stroke:#A80036;stroke-width:1.5;" x1="220" x2="636" y1="214.5" y2="214.5"/><text fill="#000000" font-family="sans-serif" font-size="11" lengthAdjust="spacing" textLength="160" x="225" y="229.9189">+createVaccine(name, brand, vt)</text><text fill="#000000" font-family="sans-serif" font-size="11" lengthAdjust="spacing" textLength="324" x="225" y="243.7549">+createAgeGroup(minimumAge, maximumAge, dosesAdministered)</text><text fill="#000000" font-family="sans-serif" font-size="11" lengthAdjust="spacing" textLength="406" x="225" y="257.5908">+createAdministrationProcess(doseNumber, dosage, timeIntervalBetweenLastDose)</text><text fill="#000000" font-family="sans-serif" font-size="11" lengthAdjust="spacing" textLength="78" x="225" y="271.4268">+saveVaccine()</text><text fill="#000000" font-family="sans-serif" font-size="11" lengthAdjust="spacing" textLength="93" x="225" y="285.2627">+getVaccineType()</text><!--MD5=[654b6611eea81d902b04013993589538]
class SpecifyNewVaccineTypeController--><rect codeLine="66" fill="#FEFECE" filter="url(#f1tsbhf6ca21i0)" height="61.8359" id="SpecifyNewVaccineTypeController" style="stroke:#A80036;stroke-width:1.5;" width="219" x="318.5" y="449"/><ellipse cx="333.5" cy="465" fill="#ADD1B2" rx="11" ry="11" style="stroke:#A80036;stroke-width:1.0;"/><path d="M335.5,461.5 Q335.7031,461 335.9375,460.75 Q336.1719,460.5 336.4375,460.5 Q336.9063,460.5 337.2031,460.7813 Q337.5,461.0625 337.5,461.7188 L337.5,463.2813 Q337.5,463.9375 337.2188,464.2188 Q336.9375,464.5 336.5,464.5 Q336.1094,464.5 335.8594,464.3281 Q335.6094,464.1563 335.5,463.7031 Q335.4531,463.3906 335.2813,463.2188 Q334.9688,462.8906 334.4063,462.7031 Q333.8438,462.5 333.2813,462.5 Q332.5781,462.5 331.9844,462.7813 Q331.4063,463.0625 330.9531,463.6875 Q330.5,464.3125 330.5,465.1719 L330.5,466.0938 Q330.5,467.125 331.3438,467.8125 Q332.1875,468.5 333.6875,468.5 Q334.5781,468.5 335.2031,468.2969 Q335.5625,468.1875 335.9688,467.8281 Q336.2344,467.625 336.375,467.5625 Q336.5156,467.5 336.6875,467.5 Q337.0156,467.5 337.25,467.7656 Q337.5,468.0156 337.5,468.375 Q337.5,468.7188 337.1563,469.125 Q336.6563,469.7188 335.8594,470.0469 Q334.8125,470.5 333.5313,470.5 Q332.0313,470.5 330.8281,469.9063 Q329.8594,469.4375 329.1719,468.4219 Q328.5,467.4063 328.5,466.2031 L328.5,465.1094 Q328.5,463.8594 329.0938,462.7656 Q329.7031,461.6719 330.75,461.0938 Q331.8125,460.5 333,460.5 Q333.7188,460.5 334.3438,460.75 Q334.9688,461 335.5,461.5 Z " fill="#000000"/><text fill="#000000" font-family="sans-serif" font-size="12" lengthAdjust="spacing" textLength="187" x="347.5" y="469.9102">SpecifyNewVaccineTypeController</text><line style="stroke:#A80036;stroke-width:1.5;" x1="319.5" x2="536.5" y1="481" y2="481"/><line style="stroke:#A80036;stroke-width:1.5;" x1="319.5" x2="536.5" y1="489" y2="489"/><text fill="#000000" font-family="sans-serif" font-size="11" lengthAdjust="spacing" textLength="110" x="324.5" y="504.4189">+getVaccineTypeList()</text><!--MD5=[16e898dea44373438d7a6991ca77efa0]
class VaccineStore--><rect codeLine="71" fill="#FEFECE" filter="url(#f1tsbhf6ca21i0)" height="186.3594" id="VaccineStore" style="stroke:#A80036;stroke-width:1.5;" width="418" x="921" y="228"/><ellipse cx="1089.75" cy="244" fill="#ADD1B2" rx="11" ry="11" style="stroke:#A80036;stroke-width:1.0;"/><path d="M1091.75,240.5 Q1091.9531,240 1092.1875,239.75 Q1092.4219,239.5 1092.6875,239.5 Q1093.1563,239.5 1093.4531,239.7813 Q1093.75,240.0625 1093.75,240.7188 L1093.75,242.2813 Q1093.75,242.9375 1093.4688,243.2188 Q1093.1875,243.5 1092.75,243.5 Q1092.3594,243.5 1092.1094,243.3281 Q1091.8594,243.1563 1091.75,242.7031 Q1091.7031,242.3906 1091.5313,242.2188 Q1091.2188,241.8906 1090.6563,241.7031 Q1090.0938,241.5 1089.5313,241.5 Q1088.8281,241.5 1088.2344,241.7813 Q1087.6563,242.0625 1087.2031,242.6875 Q1086.75,243.3125 1086.75,244.1719 L1086.75,245.0938 Q1086.75,246.125 1087.5938,246.8125 Q1088.4375,247.5 1089.9375,247.5 Q1090.8281,247.5 1091.4531,247.2969 Q1091.8125,247.1875 1092.2188,246.8281 Q1092.4844,246.625 1092.625,246.5625 Q1092.7656,246.5 1092.9375,246.5 Q1093.2656,246.5 1093.5,246.7656 Q1093.75,247.0156 1093.75,247.375 Q1093.75,247.7188 1093.4063,248.125 Q1092.9063,248.7188 1092.1094,249.0469 Q1091.0625,249.5 1089.7813,249.5 Q1088.2813,249.5 1087.0781,248.9063 Q1086.1094,248.4375 1085.4219,247.4219 Q1084.75,246.4063 1084.75,245.2031 L1084.75,244.1094 Q1084.75,242.8594 1085.3438,241.7656 Q1085.9531,240.6719 1087,240.0938 Q1088.0625,239.5 1089.25,239.5 Q1089.9688,239.5 1090.5938,239.75 Q1091.2188,240 1091.75,240.5 Z " fill="#000000"/><text fill="#000000" font-family="sans-serif" font-size="12" lengthAdjust="spacing" textLength="72" x="1110.25" y="248.9102">VaccineStore</text><line style="stroke:#A80036;stroke-width:1.5;" x1="922" x2="1338" y1="260" y2="260"/><line style="stroke:#A80036;stroke-width:1.5;" x1="922" x2="1338" y1="268" y2="268"/><text fill="#000000" font-family="sans-serif" font-size="11" lengthAdjust="spacing" textLength="160" x="927" y="283.4189">+createVaccine(name, brand, vt)</text><text fill="#000000" font-family="sans-serif" font-size="11" lengthAdjust="spacing" textLength="97" x="927" y="297.2549">+validateVaccine(v)</text><text fill="#000000" font-family="sans-serif" font-size="11" lengthAdjust="spacing" textLength="324" x="927" y="311.0908">+createAgeGroup(minimumAge, maximumAge, dosesAdministered)</text><text fill="#000000" font-family="sans-serif" font-size="11" lengthAdjust="spacing" textLength="106" x="927" y="324.9268">+addAgeGroup(v, ag)</text><text fill="#000000" font-family="sans-serif" font-size="11" lengthAdjust="spacing" textLength="148" x="927" y="338.7627">+validateAgeGroup(agList, ag)</text><text fill="#000000" font-family="sans-serif" font-size="11" lengthAdjust="spacing" textLength="406" x="927" y="352.5986">+createAdministrationProcess(doseNumber, dosage, timeIntervalBetweenLastDose)</text><text fill="#000000" font-family="sans-serif" font-size="11" lengthAdjust="spacing" textLength="170" x="927" y="366.4346">+addAdministrationProcess(ag, ap)</text><text fill="#000000" font-family="sans-serif" font-size="11" lengthAdjust="spacing" textLength="206" x="927" y="380.2705">+validateAdministrationProcess(apList, ap)</text><text fill="#000000" font-family="sans-serif" font-size="11" lengthAdjust="spacing" textLength="84" x="927" y="394.1064">+saveVaccine(v)</text><text fill="#000000" font-family="sans-serif" font-size="11" lengthAdjust="spacing" textLength="76" x="927" y="407.9424">-addVaccine(v)</text><!--MD5=[9532c95099058dfe385d7270fd32fc0d]
class VaccineTypeStore--><rect codeLine="84" fill="#FEFECE" filter="url(#f1tsbhf6ca21i0)" height="61.8359" id="VaccineTypeStore" style="stroke:#A80036;stroke-width:1.5;" width="130" x="1065" y="449"/><ellipse cx="1080" cy="465" fill="#ADD1B2" rx="11" ry="11" style="stroke:#A80036;stroke-width:1.0;"/><path d="M1082,461.5 Q1082.2031,461 1082.4375,460.75 Q1082.6719,460.5 1082.9375,460.5 Q1083.4063,460.5 1083.7031,460.7813 Q1084,461.0625 1084,461.7188 L1084,463.2813 Q1084,463.9375 1083.7188,464.2188 Q1083.4375,464.5 1083,464.5 Q1082.6094,464.5 1082.3594,464.3281 Q1082.1094,464.1563 1082,463.7031 Q1081.9531,463.3906 1081.7813,463.2188 Q1081.4688,462.8906 1080.9063,462.7031 Q1080.3438,462.5 1079.7813,462.5 Q1079.0781,462.5 1078.4844,462.7813 Q1077.9063,463.0625 1077.4531,463.6875 Q1077,464.3125 1077,465.1719 L1077,466.0938 Q1077,467.125 1077.8438,467.8125 Q1078.6875,468.5 1080.1875,468.5 Q1081.0781,468.5 1081.7031,468.2969 Q1082.0625,468.1875 1082.4688,467.8281 Q1082.7344,467.625 1082.875,467.5625 Q1083.0156,467.5 1083.1875,467.5 Q1083.5156,467.5 1083.75,467.7656 Q1084,468.0156 1084,468.375 Q1084,468.7188 1083.6563,469.125 Q1083.1563,469.7188 1082.3594,470.0469 Q1081.3125,470.5 1080.0313,470.5 Q1078.5313,470.5 1077.3281,469.9063 Q1076.3594,469.4375 1075.6719,468.4219 Q1075,467.4063 1075,466.2031 L1075,465.1094 Q1075,463.8594 1075.5938,462.7656 Q1076.2031,461.6719 1077.25,461.0938 Q1078.3125,460.5 1079.5,460.5 Q1080.2188,460.5 1080.8438,460.75 Q1081.4688,461 1082,461.5 Z " fill="#000000"/><text fill="#000000" font-family="sans-serif" font-size="12" lengthAdjust="spacing" textLength="98" x="1094" y="469.9102">VaccineTypeStore</text><line style="stroke:#A80036;stroke-width:1.5;" x1="1066" x2="1194" y1="481" y2="481"/><line style="stroke:#A80036;stroke-width:1.5;" x1="1066" x2="1194" y1="489" y2="489"/><text fill="#000000" font-family="sans-serif" font-size="11" lengthAdjust="spacing" textLength="110" x="1071" y="504.4189">+getVaccineTypeList()</text><!--MD5=[09e640553caef1f503445df8eef57be6]
reverse link Vaccine to VaccineType--><path codeLine="88" d="M1244.77,152.62 C1276.49,169.41 1310.14,189.32 1339,211 C1395.52,253.45 1450.99,311.05 1491.07,356.38 " fill="none" id="Vaccine-backto-VaccineType" style="stroke:#A80036;stroke-width:1.0;"/><polygon fill="none" points="1233.18,146.58,1236.6495,152.9016,1243.8193,152.1303,1240.3497,145.8088,1233.18,146.58" style="stroke:#A80036;stroke-width:1.0;"/><!--MD5=[309a07a73d580ef98fcd4e8d941e8c43]
reverse link Vaccine to AgeGroup--><path codeLine="89" d="M1246.21,100 C1293.63,100 1349.23,100 1399.89,100 " fill="none" id="Vaccine-backto-AgeGroup" style="stroke:#A80036;stroke-width:1.0;"/><polygon fill="#A80036" points="1233.06,100,1239.06,104,1245.06,100,1239.06,96,1233.06,100" style="stroke:#A80036;stroke-width:1.0;"/><!--MD5=[d4bddb19f2005e294a82c6f4e2dd7c6b]
reverse link AgeGroup to AdministrationProcess--><path codeLine="90" d="M1718.23,100 C1733.87,100 1749.83,100 1765.71,100 " fill="none" id="AgeGroup-backto-AdministrationProcess" style="stroke:#A80036;stroke-width:1.0;"/><polygon fill="#A80036" points="1705.17,100,1711.17,104,1717.17,100,1711.17,96,1705.17,100" style="stroke:#A80036;stroke-width:1.0;"/><!--MD5=[acf82daadde07daa2d8eb34bfd9d97b1]
link SpecifyNewVaccineUI to SpecifyNewVaccineController--><path codeLine="91" d="M158.03,233 C175.13,233 194.15,233 213.94,233 " fill="none" id="SpecifyNewVaccineUI-to-SpecifyNewVaccineController" style="stroke:#A80036;stroke-width:1.0;stroke-dasharray:7.0,7.0;"/><polygon fill="#A80036" points="218.99,233,209.99,229,213.99,233,209.99,237,218.99,233" style="stroke:#A80036;stroke-width:1.0;"/><!--MD5=[e00d3c25701aaa035dc03376dce43328]
link SpecifyNewVaccineController to Company--><path codeLine="92" d="M619.27,291.59 C645.88,299.78 671.37,307.63 692.69,314.2 " fill="none" id="SpecifyNewVaccineController-to-Company" style="stroke:#A80036;stroke-width:1.0;stroke-dasharray:7.0,7.0;"/><polygon fill="#A80036" points="697.74,315.75,690.3184,309.2754,692.962,314.2766,687.9609,316.9202,697.74,315.75" style="stroke:#A80036;stroke-width:1.0;"/><!--MD5=[340f0e8af3c494929dffba7c05260d2c]
link SpecifyNewVaccineController to Vaccine--><path codeLine="93" d="M637.13,193.45 C763.55,169.43 919.71,139.76 1021.7,120.38 " fill="none" id="SpecifyNewVaccineController-to-Vaccine" style="stroke:#A80036;stroke-width:1.0;stroke-dasharray:7.0,7.0;"/><polygon fill="#A80036" points="1026.82,119.41,1017.2338,117.1506,1021.9069,120.3383,1018.7192,125.0115,1026.82,119.41" style="stroke:#A80036;stroke-width:1.0;"/><!--MD5=[5216267e959cfcdb7ea975e8a961b89d]
link SpecifyNewVaccineController to VaccineStore--><path codeLine="94" d="M637.29,233.07 C717.05,235.67 808.64,241.79 891,255 C899.15,256.3 907.42,257.79 915.75,259.41 " fill="none" id="SpecifyNewVaccineController-to-VaccineStore" style="stroke:#A80036;stroke-width:1.0;stroke-dasharray:7.0,7.0;"/><polygon fill="#A80036" points="920.94,260.45,912.8865,254.7806,916.0349,259.4804,911.3352,262.6288,920.94,260.45" style="stroke:#A80036;stroke-width:1.0;"/><!--MD5=[2ecb384ece7ba683832533b79bd839c7]
link SpecifyNewVaccineTypeController to Company--><path codeLine="95" d="M496.4,448.97 C554.69,422.13 638.05,383.76 693.19,358.38 " fill="none" id="SpecifyNewVaccineTypeController-to-Company" style="stroke:#A80036;stroke-width:1.0;stroke-dasharray:7.0,7.0;"/><polygon fill="#A80036" points="697.77,356.27,687.9219,356.39,693.226,358.3562,691.2598,363.6604,697.77,356.27" style="stroke:#A80036;stroke-width:1.0;"/><!--MD5=[da9ecb8ca0785a59b02b4979cbf94715]
link SpecifyNewVaccineTypeController to VaccineType--><path codeLine="96" d="M537.74,504.66 C710.02,539.55 1055.28,592.42 1339,529 C1370.26,522.01 1402.34,509.9 1431.79,496.46 " fill="none" id="SpecifyNewVaccineTypeController-to-VaccineType" style="stroke:#A80036;stroke-width:1.0;stroke-dasharray:7.0,7.0;"/><polygon fill="#A80036" points="1436.5,494.29,1426.6522,494.4356,1431.9615,496.388,1430.009,501.6972,1436.5,494.29" style="stroke:#A80036;stroke-width:1.0;"/><!--MD5=[09d92d8960d4f74b3a351a289ae43cb9]
link SpecifyNewVaccineTypeController to VaccineTypeStore--><path codeLine="97" d="M537.61,480 C683.24,480 937.6,480 1059.71,480 " fill="none" id="SpecifyNewVaccineTypeController-to-VaccineTypeStore" style="stroke:#A80036;stroke-width:1.0;stroke-dasharray:7.0,7.0;"/><polygon fill="#A80036" points="1064.71,480,1055.71,476,1059.71,480,1055.71,484,1064.71,480" style="stroke:#A80036;stroke-width:1.0;"/><!--MD5=[c29c8d42883934cbaf5793c72a334947]
link Company to Vaccine--><path codeLine="98" d="M801.81,293.94 C834.79,269.16 879.56,236.77 921,211 C954.71,190.02 992.74,169.01 1026.97,150.99 " fill="none" id="Company-Vaccine" style="stroke:#A80036;stroke-width:1.0;"/><polygon fill="#000000" points="844.2211,220.4959,835.0098,222.8628,838.1602,227.825,844.2211,220.4959" style="stroke:#000000;stroke-width:1.0;"/><text fill="#000000" font-family="sans-serif" font-size="13" lengthAdjust="spacing" textLength="41" x="849" y="228.4951">applies</text><text fill="#000000" font-family="sans-serif" font-size="13" lengthAdjust="spacing" textLength="7" x="803.4406" y="283.0055">1</text><text fill="#000000" font-family="sans-serif" font-size="13" lengthAdjust="spacing" textLength="5" x="1013.8904" y="169.0012">*</text><!--MD5=[f2e0045a3c67c0696cf082af1b4c8493]
link Company to VaccineStore--><path codeLine="99" d="M805.31,334.2 C815.17,334.53 825.4,334.82 835,335 C859.88,335.45 866.12,335.73 891,335 C900.72,334.71 910.67,334.36 920.71,333.96 " fill="none" id="Company-VaccineStore" style="stroke:#A80036;stroke-width:1.0;"/><polygon fill="#000000" points="851.5,326.1654,842.4488,323.2453,842.461,329.1231,851.5,326.1654" style="stroke:#000000;stroke-width:1.0;"/><text fill="#000000" font-family="sans-serif" font-size="13" lengthAdjust="spacing" textLength="28" x="855.5" y="331.4951">uses</text><text fill="#000000" font-family="sans-serif" font-size="13" lengthAdjust="spacing" textLength="7" x="813.011" y="349.1114">1</text><text fill="#000000" font-family="sans-serif" font-size="13" lengthAdjust="spacing" textLength="7" x="906.0629" y="348.2082">1</text><!--MD5=[26b80dd60d3305f854b992ec0b603e2d]
link Company to VaccineTypeStore--><path codeLine="100" d="M805.32,369.11 C837.47,390.21 880.11,415.61 921,432 C967.44,450.61 1022.74,462.94 1064.65,470.44 " fill="none" id="Company-VaccineTypeStore" style="stroke:#A80036;stroke-width:1.0;"/><polygon fill="#000000" points="851.1571,380.9955,843.8019,374.9662,841.6627,380.441,851.1571,380.9955" style="stroke:#000000;stroke-width:1.0;"/><text fill="#000000" font-family="sans-serif" font-size="13" lengthAdjust="spacing" textLength="28" x="855.5" y="384.4951">uses</text><text fill="#000000" font-family="sans-serif" font-size="13" lengthAdjust="spacing" textLength="7" x="813.0224" y="388.7124">1</text><text fill="#000000" font-family="sans-serif" font-size="13" lengthAdjust="spacing" textLength="7" x="1050.1195" y="483.7927">1</text><!--MD5=[12e4095bb239d05d265ddf5501bace19]
@startuml
skinparam classAttributeIconSize 0
left to right direction

class Company {
    -designation
    +getVaccineStore()
}

class Vaccine {
    -id
    -name
    -brand
    +Vaccine(name, brand, vaccineType)
    -checkNameRules(name)
    -checkBrandRules(brand)
    -checkVaccineTypeRules(vaccineType)
    +addAgeGroup(ag)
    +getAgList()
    +toString()
}

class VaccineType {
    -code
    -description
    -technology
    +VaccineType(code, description, technology)
    -checkCodeRules(code)
    -checkDescriptionRules(description)
    +toString()
}

class AgeGroup {
    -minimumAge
    -maximumAge
    -dosesAdministered
    +AgeGroup(minimumAge, maximumAge, dosesAdministered)
    -checkAgeRules(minimumAge, maximumAge);
    -checkDosesAdministered(dosesAdministered)
    +addAdministrationProcess(ap)
    +getAdministrationProcessList()
    +toString()
}

class AdministrationProcess {
    -doseNumber
    -dosage
    -timeIntervalBetweenLastDose
    +AdministrationProcess(doseNumber, dosage, timeIntervalBetweenLastDose)
    -checkDoseNumber(doseNumber)
    -checkDosage(dosage)
    -checkIntervalBetweenLastDose(timeIntervalBetweenLastDose)
    +toString()
}

class SpecifyNewVaccineUI {
}

class SpecifyNewVaccineController {
    +createVaccine(name, brand, vt)
    +createAgeGroup(minimumAge, maximumAge, dosesAdministered)
    +createAdministrationProcess(doseNumber, dosage, timeIntervalBetweenLastDose)
    +saveVaccine()
    +getVaccineType()
}

class SpecifyNewVaccineTypeController {
    +getVaccineTypeList()
}


class VaccineStore {
    +createVaccine(name, brand, vt)
    +validateVaccine(v)
    +createAgeGroup(minimumAge, maximumAge, dosesAdministered)
    +addAgeGroup(v, ag)
    +validateAgeGroup(agList, ag)
    +createAdministrationProcess(doseNumber, dosage, timeIntervalBetweenLastDose)
    +addAdministrationProcess(ag, ap)
    +validateAdministrationProcess(apList, ap)
    +saveVaccine(v)
    -addVaccine(v)
}

class VaccineTypeStore {
    +getVaccineTypeList()
}

Vaccine o- - VaccineType
Vaccine *- - AgeGroup
AgeGroup *- - AdministrationProcess
SpecifyNewVaccineUI ..> SpecifyNewVaccineController
SpecifyNewVaccineController ..> Company
SpecifyNewVaccineController ..> Vaccine
SpecifyNewVaccineController ..> VaccineStore
SpecifyNewVaccineTypeController ..> Company
SpecifyNewVaccineTypeController ..> VaccineType
SpecifyNewVaccineTypeController ..> VaccineTypeStore
Company "1" - - "*" Vaccine : applies >
Company "1" - - "1" VaccineStore : uses >
Company "1" - - "1" VaccineTypeStore : uses >

@enduml

PlantUML version 1.2022.1(Tue Feb 01 18:19:58 GMT 2022)
(GPL source distribution)
Java Runtime: OpenJDK Runtime Environment
JVM: OpenJDK 64-Bit Server VM
Default Encoding: Cp1252
Language: pt
Country: PT
--></g></svg>