<?xml version="1.0" encoding="UTF-8" standalone="no"?><svg xmlns="http://www.w3.org/2000/svg" xmlns:xlink="http://www.w3.org/1999/xlink" contentStyleType="text/css" height="1380px" preserveAspectRatio="none" style="width:2046px;height:1380px;background:#FFFFFF;" version="1.1" viewBox="0 0 2046 1380" width="2046px" zoomAndPan="magnify"><defs/><g><rect height="27.6094" style="stroke:#00000000;stroke-width:1.0;fill:none;" width="117" x="966" y="10"/><text fill="#000000" font-family="sans-serif" font-size="14" font-weight="bold" lengthAdjust="spacing" text-decoration="underline" textLength="107" x="971" y="29.5332">SD_SELECT_VC</text><rect fill="#FFFFFF" height="218.7578" style="stroke:#181818;stroke-width:1.0;" width="10" x="59" y="1044.1094"/><rect fill="#FFFFFF" height="1123.0391" style="stroke:#181818;stroke-width:1.0;" width="10" x="197.5" y="148.8281"/><rect fill="#FFFFFF" height="812.7109" style="stroke:#181818;stroke-width:1.0;" width="10" x="394" y="231.3984"/><rect fill="#FFFFFF" height="128.0547" style="stroke:#181818;stroke-width:1.0;" width="10" x="394" y="1074.4609"/><rect fill="#FFFFFF" height="30" style="stroke:#181818;stroke-width:1.0;" width="10" x="394" y="1232.8672"/><rect fill="#FFFFFF" height="726.6563" style="stroke:#181818;stroke-width:1.0;" width="10" x="658" y="261.75"/><rect fill="#FFFFFF" height="60.3516" style="stroke:#181818;stroke-width:1.0;" width="10" x="658" y="1104.8125"/><rect fill="#FFFFFF" height="30" style="stroke:#181818;stroke-width:1.0;" width="10" x="920" y="292.1016"/><rect fill="#FFFFFF" height="30" style="stroke:#181818;stroke-width:1.0;" width="10" x="1053" y="352.4531"/><rect fill="#FFFFFF" height="30" style="stroke:#181818;stroke-width:1.0;" width="10" x="1053" y="1135.1641"/><rect fill="#FFFFFF" height="545.25" style="stroke:#181818;stroke-width:1.0;" width="10" x="1238" y="412.8047"/><rect fill="#FFFFFF" height="30" style="stroke:#181818;stroke-width:1.0;" width="10" x="1425" y="528.7266"/><rect fill="#FFFFFF" height="30" style="stroke:#181818;stroke-width:1.0;" width="10" x="1618" y="890.7031"/><rect fill="#FFFFFF" height="30" style="stroke:#181818;stroke-width:1.0;" width="10" x="1792" y="589.0781"/><rect fill="#FFFFFF" height="30" style="stroke:#181818;stroke-width:1.0;" width="10" x="1792" y="649.4297"/><rect fill="#FFFFFF" height="30" style="stroke:#181818;stroke-width:1.0;" width="10" x="1792" y="709.7813"/><rect fill="#FFFFFF" height="30" style="stroke:#181818;stroke-width:1.0;" width="10" x="1792" y="770.1328"/><rect height="440.6797" style="stroke:#000000;stroke-width:1.5;fill:none;" width="898" x="1142" y="488.0234"/><rect height="169.7578" style="stroke:#000000;stroke-width:1.5;fill:none;" width="1142" x="10" y="1003.4063"/><line style="stroke:#181818;stroke-width:0.5;fill:none;stroke-dasharray:5.0,5.0;" x1="64" x2="64" y1="138.8281" y2="1280.8672"/><line style="stroke:#181818;stroke-width:0.5;fill:none;stroke-dasharray:5.0,5.0;" x1="202" x2="202" y1="138.8281" y2="1280.8672"/><line style="stroke:#181818;stroke-width:0.5;fill:none;stroke-dasharray:5.0,5.0;" x1="398.5" x2="398.5" y1="188.9375" y2="1280.8672"/><line style="stroke:#181818;stroke-width:0.5;fill:none;stroke-dasharray:5.0,5.0;" x1="662.5" x2="662.5" y1="138.8281" y2="1280.8672"/><line style="stroke:#181818;stroke-width:0.5;fill:none;stroke-dasharray:5.0,5.0;" x1="925" x2="925" y1="138.8281" y2="1280.8672"/><line style="stroke:#181818;stroke-width:0.5;fill:none;stroke-dasharray:5.0,5.0;" x1="1058" x2="1058" y1="138.8281" y2="1280.8672"/><line style="stroke:#181818;stroke-width:0.5;fill:none;stroke-dasharray:5.0,5.0;" x1="1243" x2="1243" y1="138.8281" y2="1280.8672"/><line style="stroke:#181818;stroke-width:0.5;fill:none;stroke-dasharray:5.0,5.0;" x1="1430" x2="1430" y1="138.8281" y2="1280.8672"/><line style="stroke:#181818;stroke-width:0.5;fill:none;stroke-dasharray:5.0,5.0;" x1="1623" x2="1623" y1="460.9141" y2="1280.8672"/><line style="stroke:#181818;stroke-width:0.5;fill:none;stroke-dasharray:5.0,5.0;" x1="1797" x2="1797" y1="138.8281" y2="1280.8672"/><line style="stroke:#181818;stroke-width:0.5;fill:none;stroke-dasharray:5.0,5.0;" x1="1952" x2="1952" y1="848.2422" y2="1280.8672"/><text fill="#000000" font-family="sans-serif" font-size="14" lengthAdjust="spacing" textLength="82" x="20" y="118.1426">Receptionist/</text><text fill="#000000" font-family="sans-serif" font-size="14" lengthAdjust="spacing" textLength="37" x="44.5" y="135.752">Nurse</text><ellipse cx="64" cy="52.1094" fill="#E2E2F0" rx="8" ry="8" style="stroke:#181818;stroke-width:0.5;"/><path d="M64,60.1094 L64,87.1094 M51,68.1094 L77,68.1094 M64,87.1094 L51,102.1094 M64,87.1094 L77,102.1094 " fill="none" style="stroke:#181818;stroke-width:0.5;"/><text fill="#000000" font-family="sans-serif" font-size="14" lengthAdjust="spacing" textLength="82" x="20" y="1294.4004">Receptionist/</text><text fill="#000000" font-family="sans-serif" font-size="14" lengthAdjust="spacing" textLength="37" x="44.5" y="1312.0098">Nurse</text><ellipse cx="64" cy="1323.5859" fill="#E2E2F0" rx="8" ry="8" style="stroke:#181818;stroke-width:0.5;"/><path d="M64,1331.5859 L64,1358.5859 M51,1339.5859 L77,1339.5859 M64,1358.5859 L51,1373.5859 M64,1358.5859 L77,1373.5859 " fill="none" style="stroke:#181818;stroke-width:0.5;"/><rect fill="#E2E2F0" height="49.2188" rx="2.5" ry="2.5" style="stroke:#181818;stroke-width:0.5;" width="169" x="118" y="88.6094"/><text fill="#000000" font-family="sans-serif" font-size="14" lengthAdjust="spacing" textLength="4" x="200.5" y="110.1426">:</text><text fill="#000000" font-family="sans-serif" font-size="14" lengthAdjust="spacing" textLength="151" x="129" y="127.752">ReceptionistUI / NurseUI</text><rect fill="#E2E2F0" height="49.2188" rx="2.5" ry="2.5" style="stroke:#181818;stroke-width:0.5;" width="169" x="118" y="1279.8672"/><text fill="#000000" font-family="sans-serif" font-size="14" lengthAdjust="spacing" textLength="4" x="200.5" y="1301.4004">:</text><text fill="#000000" font-family="sans-serif" font-size="14" lengthAdjust="spacing" textLength="151" x="129" y="1319.0098">ReceptionistUI / NurseUI</text><rect fill="#E2E2F0" height="49.2188" rx="2.5" ry="2.5" style="stroke:#181818;stroke-width:0.5;" width="185" x="306.5" y="1279.8672"/><text fill="#000000" font-family="sans-serif" font-size="14" lengthAdjust="spacing" textLength="4" x="397" y="1301.4004">:</text><text fill="#000000" font-family="sans-serif" font-size="14" lengthAdjust="spacing" textLength="167" x="317.5" y="1319.0098">SelectVaccinationCenterUI</text><rect fill="#E2E2F0" height="49.2188" rx="2.5" ry="2.5" style="stroke:#181818;stroke-width:0.5;" width="235" x="545.5" y="88.6094"/><text fill="#000000" font-family="sans-serif" font-size="14" lengthAdjust="spacing" textLength="4" x="661" y="110.1426">:</text><text fill="#000000" font-family="sans-serif" font-size="14" lengthAdjust="spacing" textLength="217" x="556.5" y="127.752">SelectVaccinationCenterController</text><rect fill="#E2E2F0" height="49.2188" rx="2.5" ry="2.5" style="stroke:#181818;stroke-width:0.5;" width="235" x="545.5" y="1279.8672"/><text fill="#000000" font-family="sans-serif" font-size="14" lengthAdjust="spacing" textLength="4" x="661" y="1301.4004">:</text><text fill="#000000" font-family="sans-serif" font-size="14" lengthAdjust="spacing" textLength="217" x="556.5" y="1319.0098">SelectVaccinationCenterController</text><rect fill="#E2E2F0" height="49.2188" rx="2.5" ry="2.5" style="stroke:#181818;stroke-width:0.5;" width="78" x="886" y="88.6094"/><text fill="#000000" font-family="sans-serif" font-size="14" lengthAdjust="spacing" textLength="4" x="923" y="110.1426">:</text><text fill="#000000" font-family="sans-serif" font-size="14" lengthAdjust="spacing" textLength="60" x="897" y="127.752">Company</text><rect fill="#E2E2F0" height="49.2188" rx="2.5" ry="2.5" style="stroke:#181818;stroke-width:0.5;" width="78" x="886" y="1279.8672"/><text fill="#000000" font-family="sans-serif" font-size="14" lengthAdjust="spacing" textLength="4" x="923" y="1301.4004">:</text><text fill="#000000" font-family="sans-serif" font-size="14" lengthAdjust="spacing" textLength="60" x="897" y="1319.0098">Company</text><rect fill="#E2E2F0" height="49.2188" rx="2.5" ry="2.5" style="stroke:#181818;stroke-width:0.5;" width="168" x="974" y="88.6094"/><text fill="#000000" font-family="sans-serif" font-size="14" lengthAdjust="spacing" textLength="52" x="1032" y="110.1426">vcStore:</text><text fill="#000000" font-family="sans-serif" font-size="14" lengthAdjust="spacing" textLength="150" x="985" y="127.752">VaccinationCenterStore</text><rect fill="#E2E2F0" height="49.2188" rx="2.5" ry="2.5" style="stroke:#181818;stroke-width:0.5;" width="168" x="974" y="1279.8672"/><text fill="#000000" font-family="sans-serif" font-size="14" lengthAdjust="spacing" textLength="52" x="1032" y="1301.4004">vcStore:</text><text fill="#000000" font-family="sans-serif" font-size="14" lengthAdjust="spacing" textLength="150" x="985" y="1319.0098">VaccinationCenterStore</text><rect fill="#E2E2F0" height="49.2188" rx="2.5" ry="2.5" style="stroke:#181818;stroke-width:0.5;" width="182" x="1152" y="88.6094"/><text fill="#000000" font-family="sans-serif" font-size="14" lengthAdjust="spacing" textLength="66" x="1210" y="110.1426">vcMapper:</text><text fill="#000000" font-family="sans-serif" font-size="14" lengthAdjust="spacing" textLength="164" x="1163" y="127.752">VaccinationCenterMapper</text><rect fill="#E2E2F0" height="49.2188" rx="2.5" ry="2.5" style="stroke:#181818;stroke-width:0.5;" width="182" x="1152" y="1279.8672"/><text fill="#000000" font-family="sans-serif" font-size="14" lengthAdjust="spacing" textLength="66" x="1210" y="1301.4004">vcMapper:</text><text fill="#000000" font-family="sans-serif" font-size="14" lengthAdjust="spacing" textLength="164" x="1163" y="1319.0098">VaccinationCenterMapper</text><rect fill="#E2E2F0" height="49.2188" rx="2.5" ry="2.5" style="stroke:#181818;stroke-width:0.5;" width="172" x="1344" y="88.6094"/><text fill="#000000" font-family="sans-serif" font-size="14" lengthAdjust="spacing" textLength="40" x="1410" y="110.1426">listVC:</text><text fill="#000000" font-family="sans-serif" font-size="14" lengthAdjust="spacing" textLength="154" x="1355" y="127.752">List&lt;VaccinationCenter&gt;</text><rect fill="#E2E2F0" height="49.2188" rx="2.5" ry="2.5" style="stroke:#181818;stroke-width:0.5;" width="172" x="1344" y="1279.8672"/><text fill="#000000" font-family="sans-serif" font-size="14" lengthAdjust="spacing" textLength="40" x="1410" y="1301.4004">listVC:</text><text fill="#000000" font-family="sans-serif" font-size="14" lengthAdjust="spacing" textLength="154" x="1355" y="1319.0098">List&lt;VaccinationCenter&gt;</text><rect fill="#E2E2F0" height="49.2188" rx="2.5" ry="2.5" style="stroke:#181818;stroke-width:0.5;" width="194" x="1526" y="1279.8672"/><text fill="#000000" font-family="sans-serif" font-size="14" lengthAdjust="spacing" textLength="62" x="1592" y="1301.4004">listVCDto:</text><text fill="#000000" font-family="sans-serif" font-size="14" lengthAdjust="spacing" textLength="176" x="1537" y="1319.0098">List&lt;VaccinationCenterDto&gt;</text><rect fill="#E2E2F0" height="49.2188" rx="2.5" ry="2.5" style="stroke:#181818;stroke-width:0.5;" width="134" x="1730" y="88.6094"/><text fill="#000000" font-family="sans-serif" font-size="14" lengthAdjust="spacing" textLength="18" x="1788" y="110.1426">vc:</text><text fill="#000000" font-family="sans-serif" font-size="14" lengthAdjust="spacing" textLength="116" x="1741" y="127.752">VaccinationCenter</text><rect fill="#E2E2F0" height="49.2188" rx="2.5" ry="2.5" style="stroke:#181818;stroke-width:0.5;" width="134" x="1730" y="1279.8672"/><text fill="#000000" font-family="sans-serif" font-size="14" lengthAdjust="spacing" textLength="18" x="1788" y="1301.4004">vc:</text><text fill="#000000" font-family="sans-serif" font-size="14" lengthAdjust="spacing" textLength="116" x="1741" y="1319.0098">VaccinationCenter</text><rect fill="#E2E2F0" height="49.2188" rx="2.5" ry="2.5" style="stroke:#181818;stroke-width:0.5;" width="156" x="1874" y="1279.8672"/><text fill="#000000" font-family="sans-serif" font-size="14" lengthAdjust="spacing" textLength="40" x="1932" y="1301.4004">vcDto:</text><text fill="#000000" font-family="sans-serif" font-size="14" lengthAdjust="spacing" textLength="138" x="1885" y="1319.0098">VaccinationCenterDto</text><rect fill="#FFFFFF" height="218.7578" style="stroke:#181818;stroke-width:1.0;" width="10" x="59" y="1044.1094"/><rect fill="#FFFFFF" height="1123.0391" style="stroke:#181818;stroke-width:1.0;" width="10" x="197.5" y="148.8281"/><rect fill="#FFFFFF" height="812.7109" style="stroke:#181818;stroke-width:1.0;" width="10" x="394" y="231.3984"/><rect fill="#FFFFFF" height="128.0547" style="stroke:#181818;stroke-width:1.0;" width="10" x="394" y="1074.4609"/><rect fill="#FFFFFF" height="30" style="stroke:#181818;stroke-width:1.0;" width="10" x="394" y="1232.8672"/><rect fill="#FFFFFF" height="726.6563" style="stroke:#181818;stroke-width:1.0;" width="10" x="658" y="261.75"/><rect fill="#FFFFFF" height="60.3516" style="stroke:#181818;stroke-width:1.0;" width="10" x="658" y="1104.8125"/><rect fill="#FFFFFF" height="30" style="stroke:#181818;stroke-width:1.0;" width="10" x="920" y="292.1016"/><rect fill="#FFFFFF" height="30" style="stroke:#181818;stroke-width:1.0;" width="10" x="1053" y="352.4531"/><rect fill="#FFFFFF" height="30" style="stroke:#181818;stroke-width:1.0;" width="10" x="1053" y="1135.1641"/><rect fill="#FFFFFF" height="545.25" style="stroke:#181818;stroke-width:1.0;" width="10" x="1238" y="412.8047"/><rect fill="#FFFFFF" height="30" style="stroke:#181818;stroke-width:1.0;" width="10" x="1425" y="528.7266"/><rect fill="#FFFFFF" height="30" style="stroke:#181818;stroke-width:1.0;" width="10" x="1618" y="890.7031"/><rect fill="#FFFFFF" height="30" style="stroke:#181818;stroke-width:1.0;" width="10" x="1792" y="589.0781"/><rect fill="#FFFFFF" height="30" style="stroke:#181818;stroke-width:1.0;" width="10" x="1792" y="649.4297"/><rect fill="#FFFFFF" height="30" style="stroke:#181818;stroke-width:1.0;" width="10" x="1792" y="709.7813"/><rect fill="#FFFFFF" height="30" style="stroke:#181818;stroke-width:1.0;" width="10" x="1792" y="770.1328"/><polygon fill="#181818" points="294.5,167.1797,304.5,171.1797,294.5,175.1797,298.5,171.1797" style="stroke:#181818;stroke-width:1.0;"/><line style="stroke:#181818;stroke-width:1.0;" x1="207.5" x2="300.5" y1="171.1797" y2="171.1797"/><text fill="#000000" font-family="sans-serif" font-size="13" font-weight="bold" lengthAdjust="spacing" textLength="7" x="214.5" y="166.3232">1</text><text fill="#000000" font-family="sans-serif" font-size="13" lengthAdjust="spacing" textLength="44" x="225.5" y="166.3232">create()</text><rect fill="#E2E2F0" height="49.2188" rx="2.5" ry="2.5" style="stroke:#181818;stroke-width:0.5;" width="185" x="306.5" y="148.8281"/><text fill="#000000" font-family="sans-serif" font-size="14" lengthAdjust="spacing" textLength="4" x="397" y="170.3613">:</text><text fill="#000000" font-family="sans-serif" font-size="14" lengthAdjust="spacing" textLength="167" x="317.5" y="187.9707">SelectVaccinationCenterUI</text><path d="M37,165.7617 L37,191.7617 L192,191.7617 L192,175.7617 L182,165.7617 L37,165.7617 " fill="#FEFFDD" style="stroke:#181818;stroke-width:0.5;"/><path d="M182,165.7617 L182,175.7617 L192,175.7617 L182,165.7617 " fill="#FEFFDD" style="stroke:#181818;stroke-width:0.5;"/><text fill="#000000" font-family="sans-serif" font-size="13" lengthAdjust="spacing" textLength="134" x="43" y="184.2568">after a successed login</text><polygon fill="#181818" points="382,227.3984,392,231.3984,382,235.3984,386,231.3984" style="stroke:#181818;stroke-width:1.0;"/><line style="stroke:#181818;stroke-width:1.0;" x1="207.5" x2="388" y1="231.3984" y2="231.3984"/><text fill="#000000" font-family="sans-serif" font-size="13" font-weight="bold" lengthAdjust="spacing" textLength="7" x="214.5" y="226.542">2</text><text fill="#000000" font-family="sans-serif" font-size="13" lengthAdjust="spacing" textLength="26" x="225.5" y="226.542">run()</text><polygon fill="#181818" points="646,257.75,656,261.75,646,265.75,650,261.75" style="stroke:#181818;stroke-width:1.0;"/><line style="stroke:#181818;stroke-width:1.0;stroke-dasharray:2.0,2.0;" x1="404" x2="652" y1="261.75" y2="261.75"/><text fill="#000000" font-family="sans-serif" font-size="13" font-weight="bold" lengthAdjust="spacing" textLength="7" x="411" y="256.8936">3</text><text fill="#000000" font-family="sans-serif" font-size="13" lengthAdjust="spacing" textLength="224" x="422" y="256.8936">listVCDto = getVaccinationCenterList()</text><polygon fill="#181818" points="908,288.1016,918,292.1016,908,296.1016,912,292.1016" style="stroke:#181818;stroke-width:1.0;"/><line style="stroke:#181818;stroke-width:1.0;" x1="668" x2="914" y1="292.1016" y2="292.1016"/><text fill="#000000" font-family="sans-serif" font-size="13" font-weight="bold" lengthAdjust="spacing" textLength="7" x="675" y="287.2451">4</text><text fill="#000000" font-family="sans-serif" font-size="13" lengthAdjust="spacing" textLength="222" x="686" y="287.2451">vcStore = getVaccinationCenterStore()</text><polygon fill="#181818" points="1041,348.4531,1051,352.4531,1041,356.4531,1045,352.4531" style="stroke:#181818;stroke-width:1.0;"/><line style="stroke:#181818;stroke-width:1.0;" x1="668" x2="1047" y1="352.4531" y2="352.4531"/><text fill="#000000" font-family="sans-serif" font-size="13" font-weight="bold" lengthAdjust="spacing" textLength="7" x="675" y="347.5967">5</text><text fill="#000000" font-family="sans-serif" font-size="13" lengthAdjust="spacing" textLength="204" x="686" y="347.5967">listVC = getVaccinationCenterList()</text><polygon fill="#181818" points="1226,408.8047,1236,412.8047,1226,416.8047,1230,412.8047" style="stroke:#181818;stroke-width:1.0;"/><line style="stroke:#181818;stroke-width:1.0;" x1="668" x2="1232" y1="412.8047" y2="412.8047"/><text fill="#000000" font-family="sans-serif" font-size="13" font-weight="bold" lengthAdjust="spacing" textLength="7" x="675" y="407.9482">6</text><text fill="#000000" font-family="sans-serif" font-size="13" lengthAdjust="spacing" textLength="167" x="686" y="407.9482">listVCDto = listVcDto(listVC)</text><polygon fill="#181818" points="1514,439.1563,1524,443.1563,1514,447.1563,1518,443.1563" style="stroke:#181818;stroke-width:1.0;"/><line style="stroke:#181818;stroke-width:1.0;stroke-dasharray:2.0,2.0;" x1="1248" x2="1520" y1="443.1563" y2="443.1563"/><text fill="#000000" font-family="sans-serif" font-size="13" font-weight="bold" lengthAdjust="spacing" textLength="7" x="1255" y="438.2998">7</text><text fill="#000000" font-family="sans-serif" font-size="13" lengthAdjust="spacing" textLength="44" x="1266" y="438.2998">create()</text><rect fill="#E2E2F0" height="49.2188" rx="2.5" ry="2.5" style="stroke:#181818;stroke-width:0.5;" width="194" x="1526" y="420.8047"/><text fill="#000000" font-family="sans-serif" font-size="14" lengthAdjust="spacing" textLength="62" x="1592" y="442.3379">listVCDto:</text><text fill="#000000" font-family="sans-serif" font-size="14" lengthAdjust="spacing" textLength="176" x="1537" y="459.9473">List&lt;VaccinationCenterDto&gt;</text><path d="M1142,488.0234 L1215,488.0234 L1215,496.375 L1205,506.375 L1142,506.375 L1142,488.0234 " fill="#EEEEEE" style="stroke:#000000;stroke-width:1.5;"/><rect fill="none" height="440.6797" style="stroke:#000000;stroke-width:1.5;" width="898" x="1142" y="488.0234"/><text fill="#000000" font-family="sans-serif" font-size="13" font-weight="bold" lengthAdjust="spacing" textLength="28" x="1157" y="502.5186">loop</text><text fill="#000000" font-family="sans-serif" font-size="11" font-weight="bold" lengthAdjust="spacing" textLength="136" x="1230" y="501.4424">[foreach object in listCV]</text><polygon fill="#181818" points="1413,524.7266,1423,528.7266,1413,532.7266,1417,528.7266" style="stroke:#181818;stroke-width:1.0;"/><line style="stroke:#181818;stroke-width:1.0;" x1="1248" x2="1419" y1="528.7266" y2="528.7266"/><text fill="#000000" font-family="sans-serif" font-size="13" font-weight="bold" lengthAdjust="spacing" textLength="7" x="1255" y="523.8701">8</text><text fill="#000000" font-family="sans-serif" font-size="13" lengthAdjust="spacing" textLength="57" x="1266" y="523.8701">sv = get(i)</text><polygon fill="#181818" points="1780,585.0781,1790,589.0781,1780,593.0781,1784,589.0781" style="stroke:#181818;stroke-width:1.0;"/><line style="stroke:#181818;stroke-width:1.0;" x1="1248" x2="1786" y1="589.0781" y2="589.0781"/><text fill="#000000" font-family="sans-serif" font-size="13" font-weight="bold" lengthAdjust="spacing" textLength="7" x="1255" y="584.2217">9</text><text fill="#000000" font-family="sans-serif" font-size="13" lengthAdjust="spacing" textLength="62" x="1266" y="584.2217">id = getId()</text><polygon fill="#181818" points="1780,645.4297,1790,649.4297,1780,653.4297,1784,649.4297" style="stroke:#181818;stroke-width:1.0;"/><line style="stroke:#181818;stroke-width:1.0;" x1="1248" x2="1786" y1="649.4297" y2="649.4297"/><text fill="#000000" font-family="sans-serif" font-size="13" font-weight="bold" lengthAdjust="spacing" textLength="14" x="1255" y="644.5732">10</text><text fill="#000000" font-family="sans-serif" font-size="13" lengthAdjust="spacing" textLength="108" x="1273" y="644.5732">name = getName()</text><polygon fill="#181818" points="1780,705.7813,1790,709.7813,1780,713.7813,1784,709.7813" style="stroke:#181818;stroke-width:1.0;"/><line style="stroke:#181818;stroke-width:1.0;" x1="1248" x2="1786" y1="709.7813" y2="709.7813"/><text fill="#000000" font-family="sans-serif" font-size="13" font-weight="bold" lengthAdjust="spacing" textLength="14" x="1255" y="704.9248">11</text><text fill="#000000" font-family="sans-serif" font-size="13" lengthAdjust="spacing" textLength="204" x="1273" y="704.9248">phoneNumber = getPhoneNumber()</text><polygon fill="#181818" points="1780,766.1328,1790,770.1328,1780,774.1328,1784,770.1328" style="stroke:#181818;stroke-width:1.0;"/><line style="stroke:#181818;stroke-width:1.0;" x1="1248" x2="1786" y1="770.1328" y2="770.1328"/><text fill="#000000" font-family="sans-serif" font-size="13" font-weight="bold" lengthAdjust="spacing" textLength="14" x="1255" y="765.2764">12</text><text fill="#000000" font-family="sans-serif" font-size="13" lengthAdjust="spacing" textLength="106" x="1273" y="765.2764">email = getEmail()</text><polygon fill="#181818" points="1862,826.4844,1872,830.4844,1862,834.4844,1866,830.4844" style="stroke:#181818;stroke-width:1.0;"/><line style="stroke:#181818;stroke-width:1.0;stroke-dasharray:2.0,2.0;" x1="1248" x2="1868" y1="830.4844" y2="830.4844"/><text fill="#000000" font-family="sans-serif" font-size="13" font-weight="bold" lengthAdjust="spacing" textLength="14" x="1255" y="825.6279">13</text><text fill="#000000" font-family="sans-serif" font-size="13" lengthAdjust="spacing" textLength="221" x="1273" y="825.6279">create(id, name, phoneNumber, email)</text><rect fill="#E2E2F0" height="49.2188" rx="2.5" ry="2.5" style="stroke:#181818;stroke-width:0.5;" width="156" x="1874" y="808.1328"/><text fill="#000000" font-family="sans-serif" font-size="14" lengthAdjust="spacing" textLength="40" x="1932" y="829.666">vcDto:</text><text fill="#000000" font-family="sans-serif" font-size="14" lengthAdjust="spacing" textLength="138" x="1885" y="847.2754">VaccinationCenterDto</text><polygon fill="#181818" points="1606,886.7031,1616,890.7031,1606,894.7031,1610,890.7031" style="stroke:#181818;stroke-width:1.0;"/><line style="stroke:#181818;stroke-width:1.0;" x1="1248" x2="1612" y1="890.7031" y2="890.7031"/><text fill="#000000" font-family="sans-serif" font-size="13" font-weight="bold" lengthAdjust="spacing" textLength="14" x="1255" y="885.8467">14</text><text fill="#000000" font-family="sans-serif" font-size="13" lengthAdjust="spacing" textLength="61" x="1273" y="885.8467">add(vcDto)</text><polygon fill="#181818" points="679,954.0547,669,958.0547,679,962.0547,675,958.0547" style="stroke:#181818;stroke-width:1.0;"/><line style="stroke:#181818;stroke-width:1.0;stroke-dasharray:2.0,2.0;" x1="673" x2="1242" y1="958.0547" y2="958.0547"/><text fill="#000000" font-family="sans-serif" font-size="13" font-weight="bold" lengthAdjust="spacing" textLength="14" x="685" y="953.1982">15</text><text fill="#000000" font-family="sans-serif" font-size="13" lengthAdjust="spacing" textLength="55" x="703" y="953.1982">listVCDto</text><polygon fill="#181818" points="415,984.4063,405,988.4063,415,992.4063,411,988.4063" style="stroke:#181818;stroke-width:1.0;"/><line style="stroke:#181818;stroke-width:1.0;stroke-dasharray:2.0,2.0;" x1="409" x2="662" y1="988.4063" y2="988.4063"/><text fill="#000000" font-family="sans-serif" font-size="13" font-weight="bold" lengthAdjust="spacing" textLength="14" x="421" y="983.5498">16</text><text fill="#000000" font-family="sans-serif" font-size="13" lengthAdjust="spacing" textLength="55" x="439" y="983.5498">listVCDto</text><path d="M10,1003.4063 L83,1003.4063 L83,1011.7578 L73,1021.7578 L10,1021.7578 L10,1003.4063 " fill="#EEEEEE" style="stroke:#000000;stroke-width:1.5;"/><rect fill="none" height="169.7578" style="stroke:#000000;stroke-width:1.5;" width="1142" x="10" y="1003.4063"/><text fill="#000000" font-family="sans-serif" font-size="13" font-weight="bold" lengthAdjust="spacing" textLength="28" x="25" y="1017.9014">loop</text><text fill="#000000" font-family="sans-serif" font-size="11" font-weight="bold" lengthAdjust="spacing" textLength="289" x="98" y="1016.8252">[while an existing vaccination center is not selected]</text><polygon fill="#181818" points="80,1040.1094,70,1044.1094,80,1048.1094,76,1044.1094" style="stroke:#181818;stroke-width:1.0;"/><line style="stroke:#181818;stroke-width:1.0;stroke-dasharray:2.0,2.0;" x1="74" x2="398" y1="1044.1094" y2="1044.1094"/><text fill="#000000" font-family="sans-serif" font-size="13" font-weight="bold" lengthAdjust="spacing" textLength="14" x="86" y="1039.2529">17</text><text fill="#000000" font-family="sans-serif" font-size="13" lengthAdjust="spacing" textLength="288" x="104" y="1039.2529">shows vaccination centers and asks to select one</text><polygon fill="#181818" points="382,1070.4609,392,1074.4609,382,1078.4609,386,1074.4609" style="stroke:#181818;stroke-width:1.0;"/><line style="stroke:#181818;stroke-width:1.0;" x1="69" x2="388" y1="1074.4609" y2="1074.4609"/><text fill="#000000" font-family="sans-serif" font-size="13" font-weight="bold" lengthAdjust="spacing" textLength="14" x="76" y="1069.6045">18</text><text fill="#000000" font-family="sans-serif" font-size="13" lengthAdjust="spacing" textLength="168" x="94" y="1069.6045">select one vaccination center</text><polygon fill="#181818" points="646,1100.8125,656,1104.8125,646,1108.8125,650,1104.8125" style="stroke:#181818;stroke-width:1.0;"/><line style="stroke:#181818;stroke-width:1.0;" x1="404" x2="652" y1="1104.8125" y2="1104.8125"/><text fill="#000000" font-family="sans-serif" font-size="13" font-weight="bold" lengthAdjust="spacing" textLength="14" x="411" y="1099.9561">19</text><text fill="#000000" font-family="sans-serif" font-size="13" lengthAdjust="spacing" textLength="194" x="429" y="1099.9561">b = existsVaccinationCenter(vcId)</text><polygon fill="#181818" points="1041,1131.1641,1051,1135.1641,1041,1139.1641,1045,1135.1641" style="stroke:#181818;stroke-width:1.0;"/><line style="stroke:#181818;stroke-width:1.0;" x1="668" x2="1047" y1="1135.1641" y2="1135.1641"/><text fill="#000000" font-family="sans-serif" font-size="13" font-weight="bold" lengthAdjust="spacing" textLength="14" x="675" y="1130.3076">20</text><text fill="#000000" font-family="sans-serif" font-size="13" lengthAdjust="spacing" textLength="194" x="693" y="1130.3076">b = existsVaccinationCenter(vcId)</text><polygon fill="#181818" points="218.5,1198.5156,208.5,1202.5156,218.5,1206.5156,214.5,1202.5156" style="stroke:#181818;stroke-width:1.0;"/><line style="stroke:#181818;stroke-width:1.0;stroke-dasharray:2.0,2.0;" x1="212.5" x2="398" y1="1202.5156" y2="1202.5156"/><text fill="#000000" font-family="sans-serif" font-size="13" font-weight="bold" lengthAdjust="spacing" textLength="14" x="224.5" y="1197.6592">21</text><text fill="#000000" font-family="sans-serif" font-size="13" lengthAdjust="spacing" textLength="4" x="242.5" y="1197.6592"> </text><polygon fill="#181818" points="382,1228.8672,392,1232.8672,382,1236.8672,386,1232.8672" style="stroke:#181818;stroke-width:1.0;"/><line style="stroke:#181818;stroke-width:1.0;" x1="207.5" x2="388" y1="1232.8672" y2="1232.8672"/><text fill="#000000" font-family="sans-serif" font-size="13" font-weight="bold" lengthAdjust="spacing" textLength="14" x="214.5" y="1228.0107">22</text><text fill="#000000" font-family="sans-serif" font-size="13" lengthAdjust="spacing" textLength="143" x="232.5" y="1228.0107">vcId = getSelectedVCId()</text><!--MD5=[f96d0d7bf028b0fb6e7ca1b5666836a9]
@startuml
autonumber

title
<u>SD_SELECT_VC</u>
end title

actor "Receptionist/\n Nurse" as RN

participant ":\n ReceptionistUI / NurseUI" as AUI
participant ":\n SelectVaccinationCenterUI" as SVCUI
participant ":\n SelectVaccinationCenterController" as CTRL
participant ":\n Company" as CMP
participant "vcStore:\n VaccinationCenterStore" as VCS
participant "vcMapper:\n VaccinationCenterMapper" as VCM
participant "listVC:\n List<VaccinationCenter>"  as LVC
participant "listVCDto:\n List<VaccinationCenterDto>"  as LVCD
participant "vc:\n VaccinationCenter" as VC
participant "vcDto:\n VaccinationCenterDto" as VCD

activate AUI
AUI -> SVCUI** : create()
note left: after a successed login
AUI -> SVCUI : run()

activate SVCUI
SVCUI - -> CTRL : listVCDto = getVaccinationCenterList()
activate CTRL
CTRL -> CMP : vcStore = getVaccinationCenterStore()
activate CMP
deactivate CMP

CTRL -> VCS : listVC = getVaccinationCenterList()
activate VCS
deactivate VCS
CTRL -> VCM : listVCDto = listVcDto(listVC)
activate VCM
VCM - -> LVCD** : create()

loop foreach object in listCV

VCM -> LVC : sv = get(i)
activate LVC
deactivate LVC

VCM -> VC : id = getId()
activate VC
deactivate VC

VCM -> VC : name = getName()
activate VC
deactivate VC

VCM -> VC : phoneNumber = getPhoneNumber()
activate VC
deactivate VC

VCM -> VC : email = getEmail()
activate VC
deactivate VC

VCM - -> VCD** : create(id, name, phoneNumber, email)

VCM -> LVCD : add(vcDto)
activate LVCD
deactivate LVCD

end loop
CTRL <- - VCM : listVCDto
deactivate VCM

SVCUI <- - CTRL : listVCDto
deactivate CTRL



loop while an existing vaccination center is not selected
SVCUI - -> RN : shows vaccination centers and asks to select one
deactivate SVCUI
activate RN

RN -> SVCUI : select one vaccination center
activate SVCUI
SVCUI -> CTRL : b = existsVaccinationCenter(vcId)
activate CTRL

CTRL -> VCS : b = existsVaccinationCenter(vcId)
activate VCS
deactivate CTRL
deactivate VCS
end loop

SVCUI - -> AUI :
deactivate SVCUI

AUI -> SVCUI : vcId = getSelectedVCId()
activate SVCUI
deactivate RN
deactivate SVCUI

@enduml

PlantUML version 1.2022.4(Sat Apr 09 14:29:17 BST 2022)
(GPL source distribution)
Java Runtime: OpenJDK Runtime Environment
JVM: OpenJDK 64-Bit Server VM
Default Encoding: Cp1252
Language: pt
Country: PT
--></g></svg>