<?xml version="1.0" encoding="UTF-8" standalone="no"?><svg xmlns="http://www.w3.org/2000/svg" xmlns:xlink="http://www.w3.org/1999/xlink" contentStyleType="text/css" height="1446px" preserveAspectRatio="none" style="width:2903px;height:1446px;background:#FFFFFF;" version="1.1" viewBox="0 0 2903 1446" width="2903px" zoomAndPan="magnify"><defs/><g><!--MD5=[01435ace8273dc3cae88e7f376e4d373]
cluster core--><g id="cluster_core"><path d="M8.5,163 L41.5,163 A3.75,3.75 0 0 1 44,165.5 L51,186.6094 L2893.5,186.6094 A2.5,2.5 0 0 1 2896,189.1094 L2896,1437 A2.5,2.5 0 0 1 2893.5,1439.5 L8.5,1439.5 A2.5,2.5 0 0 1 6,1437 L6,165.5 A2.5,2.5 0 0 1 8.5,163 " style="stroke:#000000;stroke-width:1.5;fill:none;"/><line style="stroke:#000000;stroke-width:1.5;fill:none;" x1="6" x2="51" y1="186.6094" y2="186.6094"/><text fill="#000000" font-family="sans-serif" font-size="14" font-weight="bold" lengthAdjust="spacing" textLength="32" x="10" y="179.5332">core</text></g><!--MD5=[27f772719433d509ddbc20ff768eba08]
cluster domain--><g id="cluster_domain"><path d="M40.5,633 L92.5,633 A3.75,3.75 0 0 1 95,635.5 L102,656.6094 L2003.5,656.6094 A2.5,2.5 0 0 1 2006,659.1094 L2006,1405 A2.5,2.5 0 0 1 2003.5,1407.5 L40.5,1407.5 A2.5,2.5 0 0 1 38,1405 L38,635.5 A2.5,2.5 0 0 1 40.5,633 " style="stroke:#000000;stroke-width:1.5;fill:none;"/><line style="stroke:#000000;stroke-width:1.5;fill:none;" x1="38" x2="102" y1="656.6094" y2="656.6094"/><text fill="#000000" font-family="sans-serif" font-size="14" font-weight="bold" lengthAdjust="spacing" textLength="51" x="42" y="649.5332">domain</text></g><!--MD5=[5d4cd377749310b66bf14896f5cd8d9b]
cluster model--><g id="cluster_model"><path d="M72.5,685 L116.5,685 A3.75,3.75 0 0 1 119,687.5 L126,708.6094 L1309.5,708.6094 A2.5,2.5 0 0 1 1312,711.1094 L1312,1228 A2.5,2.5 0 0 1 1309.5,1230.5 L72.5,1230.5 A2.5,2.5 0 0 1 70,1228 L70,687.5 A2.5,2.5 0 0 1 72.5,685 " style="stroke:#000000;stroke-width:1.5;fill:none;"/><line style="stroke:#000000;stroke-width:1.5;fill:none;" x1="70" x2="126" y1="708.6094" y2="708.6094"/><text fill="#000000" font-family="sans-serif" font-size="14" font-weight="bold" lengthAdjust="spacing" textLength="43" x="74" y="701.5332">model</text></g><!--MD5=[c23849cc5f4a85746a20de4317c530fc]
cluster store--><g id="cluster_store"><path d="M1346.5,955 L1384.5,955 A3.75,3.75 0 0 1 1387,957.5 L1394,978.6094 L1955.5,978.6094 A2.5,2.5 0 0 1 1958,981.1094 L1958,1365 A2.5,2.5 0 0 1 1955.5,1367.5 L1346.5,1367.5 A2.5,2.5 0 0 1 1344,1365 L1344,957.5 A2.5,2.5 0 0 1 1346.5,955 " style="stroke:#000000;stroke-width:1.5;fill:none;"/><line style="stroke:#000000;stroke-width:1.5;fill:none;" x1="1344" x2="1394" y1="978.6094" y2="978.6094"/><text fill="#000000" font-family="sans-serif" font-size="14" font-weight="bold" lengthAdjust="spacing" textLength="37" x="1348" y="971.5332">store</text></g><!--MD5=[1969eb49accf14e28bce7c74db8cc840]
cluster mapper--><g id="cluster_mapper"><path d="M2017.5,450 L2071.5,450 A3.75,3.75 0 0 1 2074,452.5 L2081,473.6094 L2480.5,473.6094 A2.5,2.5 0 0 1 2483,476.1094 L2483,581.5 A2.5,2.5 0 0 1 2480.5,584 L2017.5,584 A2.5,2.5 0 0 1 2015,581.5 L2015,452.5 A2.5,2.5 0 0 1 2017.5,450 " style="stroke:#000000;stroke-width:1.5;fill:none;"/><line style="stroke:#000000;stroke-width:1.5;fill:none;" x1="2015" x2="2081" y1="473.6094" y2="473.6094"/><text fill="#000000" font-family="sans-serif" font-size="14" font-weight="bold" lengthAdjust="spacing" textLength="53" x="2019" y="466.5332">mapper</text></g><!--MD5=[e6eced616a98d47334dd1aaaa829ffd5]
cluster dto--><g id="cluster_dto"><path d="M2048.5,911 L2072.5,911 A3.75,3.75 0 0 1 2075,913.5 L2082,934.6094 L2861.5,934.6094 A2.5,2.5 0 0 1 2864,937.1094 L2864,1200.5 A2.5,2.5 0 0 1 2861.5,1203 L2048.5,1203 A2.5,2.5 0 0 1 2046,1200.5 L2046,913.5 A2.5,2.5 0 0 1 2048.5,911 " style="stroke:#000000;stroke-width:1.5;fill:none;"/><line style="stroke:#000000;stroke-width:1.5;fill:none;" x1="2046" x2="2082" y1="934.6094" y2="934.6094"/><text fill="#000000" font-family="sans-serif" font-size="14" font-weight="bold" lengthAdjust="spacing" textLength="23" x="2050" y="927.5332">dto</text></g><!--MD5=[10ea673caf457862023e152271927b45]
cluster controller--><g id="cluster_controller"><path d="M2017.5,215 L2087.5,215 A3.75,3.75 0 0 1 2090,217.5 L2097,238.6094 L2339.5,238.6094 A2.5,2.5 0 0 1 2342,241.1094 L2342,398.5 A2.5,2.5 0 0 1 2339.5,401 L2017.5,401 A2.5,2.5 0 0 1 2015,398.5 L2015,217.5 A2.5,2.5 0 0 1 2017.5,215 " style="stroke:#000000;stroke-width:1.5;fill:none;"/><line style="stroke:#000000;stroke-width:1.5;fill:none;" x1="2015" x2="2097" y1="238.6094" y2="238.6094"/><text fill="#000000" font-family="sans-serif" font-size="14" font-weight="bold" lengthAdjust="spacing" textLength="69" x="2019" y="231.5332">controller</text></g><!--MD5=[64e2e010ba86d7988e5cd73bd64f61f9]
cluster ui--><g id="cluster_ui"><path d="M2017.5,6 L2031.5,6 A3.75,3.75 0 0 1 2034,8.5 L2041,29.6094 L2273.5,29.6094 A2.5,2.5 0 0 1 2276,32.1094 L2276,119.5 A2.5,2.5 0 0 1 2273.5,122 L2017.5,122 A2.5,2.5 0 0 1 2015,119.5 L2015,8.5 A2.5,2.5 0 0 1 2017.5,6 " style="stroke:#000000;stroke-width:1.5;fill:none;"/><line style="stroke:#000000;stroke-width:1.5;fill:none;" x1="2015" x2="2041" y1="29.6094" y2="29.6094"/><text fill="#000000" font-family="sans-serif" font-size="14" font-weight="bold" lengthAdjust="spacing" textLength="13" x="2019" y="22.5332">ui</text></g><!--MD5=[02e4b9b7573f1156f41e60aa5b4e25a4]
class Company--><g id="elem_Company"><rect codeLine="7" fill="#F1F1F1" height="118.4375" id="Company" rx="2.5" ry="2.5" style="stroke:#181818;stroke-width:0.5;" width="216" x="1080" y="721"/><ellipse cx="1153.75" cy="737" fill="#ADD1B2" rx="11" ry="11" style="stroke:#181818;stroke-width:1.0;"/><path d="M1155.75,733.5 Q1155.9531,733 1156.1875,732.75 Q1156.4219,732.5 1156.6875,732.5 Q1157.1563,732.5 1157.4531,732.7813 Q1157.75,733.0625 1157.75,733.7188 L1157.75,735.2813 Q1157.75,735.9375 1157.4688,736.2188 Q1157.1875,736.5 1156.75,736.5 Q1156.3594,736.5 1156.1094,736.3281 Q1155.8594,736.1563 1155.75,735.7031 Q1155.7031,735.3906 1155.5313,735.2188 Q1155.2188,734.8906 1154.6563,734.7031 Q1154.0938,734.5 1153.5313,734.5 Q1152.8281,734.5 1152.2344,734.7813 Q1151.6563,735.0625 1151.2031,735.6875 Q1150.75,736.3125 1150.75,737.1719 L1150.75,738.0938 Q1150.75,739.125 1151.5938,739.8125 Q1152.4375,740.5 1153.9375,740.5 Q1154.8281,740.5 1155.4531,740.2969 Q1155.8125,740.1875 1156.2188,739.8281 Q1156.4844,739.625 1156.625,739.5625 Q1156.7656,739.5 1156.9375,739.5 Q1157.2656,739.5 1157.5,739.7656 Q1157.75,740.0156 1157.75,740.375 Q1157.75,740.7188 1157.4063,741.125 Q1156.9063,741.7188 1156.1094,742.0469 Q1155.0625,742.5 1153.7813,742.5 Q1152.2813,742.5 1151.0781,741.9063 Q1150.1094,741.4375 1149.4219,740.4219 Q1148.75,739.4063 1148.75,738.2031 L1148.75,737.1094 Q1148.75,735.8594 1149.3438,734.7656 Q1149.9531,733.6719 1151,733.0938 Q1152.0625,732.5 1153.25,732.5 Q1153.9688,732.5 1154.5938,732.75 Q1155.2188,733 1155.75,733.5 Z " fill="#000000"/><text fill="#000000" font-family="sans-serif" font-size="14" lengthAdjust="spacing" textLength="60" x="1174.25" y="742.7285">Company</text><line style="stroke:#181818;stroke-width:0.5;" x1="1081" x2="1295" y1="753" y2="753"/><line style="stroke:#181818;stroke-width:0.5;" x1="1081" x2="1295" y1="761" y2="761"/><text fill="#000000" font-family="sans-serif" font-size="14" lengthAdjust="spacing" textLength="188" x="1086" y="779.5332">+getVaccinationCenterStore()</text><text fill="#000000" font-family="sans-serif" font-size="14" lengthAdjust="spacing" textLength="128" x="1086" y="797.1426">+getSNSUserStore()</text><text fill="#000000" font-family="sans-serif" font-size="14" lengthAdjust="spacing" textLength="204" x="1086" y="814.752">+getVaccinationScheduleStore()</text><text fill="#000000" font-family="sans-serif" font-size="14" lengthAdjust="spacing" textLength="168" x="1086" y="832.3613">+getArrivalSNSUserStore()</text></g><!--MD5=[e083d63eedcc0b42302f10a27278e39e]
class ArrivalSNSUser--><g id="elem_ArrivalSNSUser"><rect codeLine="14" fill="#F1F1F1" height="83.2188" id="ArrivalSNSUser" rx="2.5" ry="2.5" style="stroke:#181818;stroke-width:0.5;" width="454" x="591" y="738.5"/><ellipse cx="765.75" cy="754.5" fill="#ADD1B2" rx="11" ry="11" style="stroke:#181818;stroke-width:1.0;"/><path d="M767.75,751 Q767.9531,750.5 768.1875,750.25 Q768.4219,750 768.6875,750 Q769.1563,750 769.4531,750.2813 Q769.75,750.5625 769.75,751.2188 L769.75,752.7813 Q769.75,753.4375 769.4688,753.7188 Q769.1875,754 768.75,754 Q768.3594,754 768.1094,753.8281 Q767.8594,753.6563 767.75,753.2031 Q767.7031,752.8906 767.5313,752.7188 Q767.2188,752.3906 766.6563,752.2031 Q766.0938,752 765.5313,752 Q764.8281,752 764.2344,752.2813 Q763.6563,752.5625 763.2031,753.1875 Q762.75,753.8125 762.75,754.6719 L762.75,755.5938 Q762.75,756.625 763.5938,757.3125 Q764.4375,758 765.9375,758 Q766.8281,758 767.4531,757.7969 Q767.8125,757.6875 768.2188,757.3281 Q768.4844,757.125 768.625,757.0625 Q768.7656,757 768.9375,757 Q769.2656,757 769.5,757.2656 Q769.75,757.5156 769.75,757.875 Q769.75,758.2188 769.4063,758.625 Q768.9063,759.2188 768.1094,759.5469 Q767.0625,760 765.7813,760 Q764.2813,760 763.0781,759.4063 Q762.1094,758.9375 761.4219,757.9219 Q760.75,756.9063 760.75,755.7031 L760.75,754.6094 Q760.75,753.3594 761.3438,752.2656 Q761.9531,751.1719 763,750.5938 Q764.0625,750 765.25,750 Q765.9688,750 766.5938,750.25 Q767.2188,750.5 767.75,751 Z " fill="#000000"/><text fill="#000000" font-family="sans-serif" font-size="14" lengthAdjust="spacing" textLength="96" x="786.25" y="760.2285">ArrivalSNSUser</text><line style="stroke:#181818;stroke-width:0.5;" x1="592" x2="1044" y1="770.5" y2="770.5"/><text fill="#000000" font-family="sans-serif" font-size="14" lengthAdjust="spacing" textLength="85" x="597" y="789.0332">-waitingRoom</text><line style="stroke:#181818;stroke-width:0.5;" x1="592" x2="1044" y1="796.1094" y2="796.1094"/><text fill="#000000" font-family="sans-serif" font-size="14" lengthAdjust="spacing" textLength="442" x="597" y="814.6426">+ArrivalSNSUser(snsUser, arrivalDate, arrivalTime, vaccinationCenter)</text></g><!--MD5=[72be06cc7ae02ccc98efe28a50e62246]
class SNSUser--><g id="elem_SNSUser"><rect codeLine="19" fill="#F1F1F1" height="224.0938" id="SNSUser" rx="2.5" ry="2.5" style="stroke:#181818;stroke-width:0.5;" width="350" x="435" y="955"/><ellipse cx="577.75" cy="971" fill="#ADD1B2" rx="11" ry="11" style="stroke:#181818;stroke-width:1.0;"/><path d="M579.75,967.5 Q579.9531,967 580.1875,966.75 Q580.4219,966.5 580.6875,966.5 Q581.1563,966.5 581.4531,966.7813 Q581.75,967.0625 581.75,967.7188 L581.75,969.2813 Q581.75,969.9375 581.4688,970.2188 Q581.1875,970.5 580.75,970.5 Q580.3594,970.5 580.1094,970.3281 Q579.8594,970.1563 579.75,969.7031 Q579.7031,969.3906 579.5313,969.2188 Q579.2188,968.8906 578.6563,968.7031 Q578.0938,968.5 577.5313,968.5 Q576.8281,968.5 576.2344,968.7813 Q575.6563,969.0625 575.2031,969.6875 Q574.75,970.3125 574.75,971.1719 L574.75,972.0938 Q574.75,973.125 575.5938,973.8125 Q576.4375,974.5 577.9375,974.5 Q578.8281,974.5 579.4531,974.2969 Q579.8125,974.1875 580.2188,973.8281 Q580.4844,973.625 580.625,973.5625 Q580.7656,973.5 580.9375,973.5 Q581.2656,973.5 581.5,973.7656 Q581.75,974.0156 581.75,974.375 Q581.75,974.7188 581.4063,975.125 Q580.9063,975.7188 580.1094,976.0469 Q579.0625,976.5 577.7813,976.5 Q576.2813,976.5 575.0781,975.9063 Q574.1094,975.4375 573.4219,974.4219 Q572.75,973.4063 572.75,972.2031 L572.75,971.1094 Q572.75,969.8594 573.3438,968.7656 Q573.9531,967.6719 575,967.0938 Q576.0625,966.5 577.25,966.5 Q577.9688,966.5 578.5938,966.75 Q579.2188,967 579.75,967.5 Z " fill="#000000"/><text fill="#000000" font-family="sans-serif" font-size="14" lengthAdjust="spacing" textLength="56" x="598.25" y="976.7285">SNSUser</text><line style="stroke:#181818;stroke-width:0.5;" x1="436" x2="784" y1="987" y2="987"/><text fill="#000000" font-family="sans-serif" font-size="14" lengthAdjust="spacing" textLength="40" x="441" y="1005.5332">-name</text><text fill="#000000" font-family="sans-serif" font-size="14" lengthAdjust="spacing" textLength="56" x="441" y="1023.1426">-address</text><text fill="#000000" font-family="sans-serif" font-size="14" lengthAdjust="spacing" textLength="26" x="441" y="1040.752">-sex</text><text fill="#000000" font-family="sans-serif" font-size="14" lengthAdjust="spacing" textLength="94" x="441" y="1058.3613">-phoneNumber</text><text fill="#000000" font-family="sans-serif" font-size="14" lengthAdjust="spacing" textLength="38" x="441" y="1075.9707">-email</text><text fill="#000000" font-family="sans-serif" font-size="14" lengthAdjust="spacing" textLength="63" x="441" y="1093.5801">-birthDate</text><text fill="#000000" font-family="sans-serif" font-size="14" lengthAdjust="spacing" textLength="105" x="441" y="1111.1895">-snsUserNumber</text><text fill="#000000" font-family="sans-serif" font-size="14" lengthAdjust="spacing" textLength="124" x="441" y="1128.7988">-citizenCardNumber</text><line style="stroke:#181818;stroke-width:0.5;" x1="436" x2="784" y1="1135.875" y2="1135.875"/><text fill="#000000" font-family="sans-serif" font-size="14" lengthAdjust="spacing" textLength="334" x="441" y="1154.4082">+SNSUser(name, address, sex, phoneNumber, email,</text><text fill="#000000" font-family="sans-serif" font-size="14" lengthAdjust="spacing" textLength="298" x="441" y="1172.0176">birthDate, snsUserNumber, citizenCardNumber)</text></g><!--MD5=[de60e6d4f424ae4d0522096f76a59010]
class VaccinationCenter--><g id="elem_VaccinationCenter"><rect codeLine="31" fill="#F1F1F1" height="294.5313" id="VaccinationCenter" rx="2.5" ry="2.5" style="stroke:#181818;stroke-width:0.5;" width="313" x="86.5" y="919.5"/><ellipse cx="180.75" cy="935.5" fill="#ADD1B2" rx="11" ry="11" style="stroke:#181818;stroke-width:1.0;"/><path d="M182.75,932 Q182.9531,931.5 183.1875,931.25 Q183.4219,931 183.6875,931 Q184.1563,931 184.4531,931.2813 Q184.75,931.5625 184.75,932.2188 L184.75,933.7813 Q184.75,934.4375 184.4688,934.7188 Q184.1875,935 183.75,935 Q183.3594,935 183.1094,934.8281 Q182.8594,934.6563 182.75,934.2031 Q182.7031,933.8906 182.5313,933.7188 Q182.2188,933.3906 181.6563,933.2031 Q181.0938,933 180.5313,933 Q179.8281,933 179.2344,933.2813 Q178.6563,933.5625 178.2031,934.1875 Q177.75,934.8125 177.75,935.6719 L177.75,936.5938 Q177.75,937.625 178.5938,938.3125 Q179.4375,939 180.9375,939 Q181.8281,939 182.4531,938.7969 Q182.8125,938.6875 183.2188,938.3281 Q183.4844,938.125 183.625,938.0625 Q183.7656,938 183.9375,938 Q184.2656,938 184.5,938.2656 Q184.75,938.5156 184.75,938.875 Q184.75,939.2188 184.4063,939.625 Q183.9063,940.2188 183.1094,940.5469 Q182.0625,941 180.7813,941 Q179.2813,941 178.0781,940.4063 Q177.1094,939.9375 176.4219,938.9219 Q175.75,937.9063 175.75,936.7031 L175.75,935.6094 Q175.75,934.3594 176.3438,933.2656 Q176.9531,932.1719 178,931.5938 Q179.0625,931 180.25,931 Q180.9688,931 181.5938,931.25 Q182.2188,931.5 182.75,932 Z " fill="#000000"/><text fill="#000000" font-family="sans-serif" font-size="14" lengthAdjust="spacing" textLength="116" x="201.25" y="941.2285">VaccinationCenter</text><line style="stroke:#181818;stroke-width:0.5;" x1="87.5" x2="398.5" y1="951.5" y2="951.5"/><text fill="#000000" font-family="sans-serif" font-size="14" lengthAdjust="spacing" textLength="40" x="92.5" y="970.0332">-name</text><text fill="#000000" font-family="sans-serif" font-size="14" lengthAdjust="spacing" textLength="56" x="92.5" y="987.6426">-address</text><text fill="#000000" font-family="sans-serif" font-size="14" lengthAdjust="spacing" textLength="94" x="92.5" y="1005.252">-phoneNumber</text><text fill="#000000" font-family="sans-serif" font-size="14" lengthAdjust="spacing" textLength="38" x="92.5" y="1022.8613">-email</text><text fill="#000000" font-family="sans-serif" font-size="14" lengthAdjust="spacing" textLength="72" x="92.5" y="1040.4707">-faxNumber</text><text fill="#000000" font-family="sans-serif" font-size="14" lengthAdjust="spacing" textLength="52" x="92.5" y="1058.0801">-website</text><text fill="#000000" font-family="sans-serif" font-size="14" lengthAdjust="spacing" textLength="93" x="92.5" y="1075.6895">-openingHours</text><text fill="#000000" font-family="sans-serif" font-size="14" lengthAdjust="spacing" textLength="86" x="92.5" y="1093.2988">-closingHours</text><text fill="#000000" font-family="sans-serif" font-size="14" lengthAdjust="spacing" textLength="81" x="92.5" y="1110.9082">-slotDuration</text><text fill="#000000" font-family="sans-serif" font-size="14" lengthAdjust="spacing" textLength="106" x="92.5" y="1128.5176">-slotVaccineLimit</text><text fill="#000000" font-family="sans-serif" font-size="14" lengthAdjust="spacing" text-decoration="underline" textLength="176" x="92.5" y="1146.127">-numberVaccinationCenters</text><line style="stroke:#181818;stroke-width:0.5;" x1="87.5" x2="398.5" y1="1153.2031" y2="1153.2031"/><text fill="#000000" font-family="sans-serif" font-size="14" lengthAdjust="spacing" textLength="301" x="92.5" y="1171.7363">+VaccineCenter(name, address, phoneNumber,</text><text fill="#000000" font-family="sans-serif" font-size="14" lengthAdjust="spacing" textLength="263" x="96.5" y="1189.3457">email, faxNumber, website, openingHours,</text><text fill="#000000" font-family="sans-serif" font-size="14" lengthAdjust="spacing" textLength="279" x="96.5" y="1206.9551">closingHours, slotDuration, slotVaccineLimit)</text></g><!--MD5=[7829b64950ce38e0487c4015ea331f97]
class Date--><g id="elem_Date"><rect codeLine="46" fill="#F1F1F1" height="136.0469" id="Date" rx="2.5" ry="2.5" style="stroke:#181818;stroke-width:0.5;" width="166" x="1071" y="999"/><ellipse cx="1134.75" cy="1015" fill="#ADD1B2" rx="11" ry="11" style="stroke:#181818;stroke-width:1.0;"/><path d="M1136.75,1011.5 Q1136.9531,1011 1137.1875,1010.75 Q1137.4219,1010.5 1137.6875,1010.5 Q1138.1563,1010.5 1138.4531,1010.7813 Q1138.75,1011.0625 1138.75,1011.7188 L1138.75,1013.2813 Q1138.75,1013.9375 1138.4688,1014.2188 Q1138.1875,1014.5 1137.75,1014.5 Q1137.3594,1014.5 1137.1094,1014.3281 Q1136.8594,1014.1563 1136.75,1013.7031 Q1136.7031,1013.3906 1136.5313,1013.2188 Q1136.2188,1012.8906 1135.6563,1012.7031 Q1135.0938,1012.5 1134.5313,1012.5 Q1133.8281,1012.5 1133.2344,1012.7813 Q1132.6563,1013.0625 1132.2031,1013.6875 Q1131.75,1014.3125 1131.75,1015.1719 L1131.75,1016.0938 Q1131.75,1017.125 1132.5938,1017.8125 Q1133.4375,1018.5 1134.9375,1018.5 Q1135.8281,1018.5 1136.4531,1018.2969 Q1136.8125,1018.1875 1137.2188,1017.8281 Q1137.4844,1017.625 1137.625,1017.5625 Q1137.7656,1017.5 1137.9375,1017.5 Q1138.2656,1017.5 1138.5,1017.7656 Q1138.75,1018.0156 1138.75,1018.375 Q1138.75,1018.7188 1138.4063,1019.125 Q1137.9063,1019.7188 1137.1094,1020.0469 Q1136.0625,1020.5 1134.7813,1020.5 Q1133.2813,1020.5 1132.0781,1019.9063 Q1131.1094,1019.4375 1130.4219,1018.4219 Q1129.75,1017.4063 1129.75,1016.2031 L1129.75,1015.1094 Q1129.75,1013.8594 1130.3438,1012.7656 Q1130.9531,1011.6719 1132,1011.0938 Q1133.0625,1010.5 1134.25,1010.5 Q1134.9688,1010.5 1135.5938,1010.75 Q1136.2188,1011 1136.75,1011.5 Z " fill="#000000"/><text fill="#000000" font-family="sans-serif" font-size="14" lengthAdjust="spacing" textLength="30" x="1155.25" y="1020.7285">Date</text><line style="stroke:#181818;stroke-width:0.5;" x1="1072" x2="1236" y1="1031" y2="1031"/><text fill="#000000" font-family="sans-serif" font-size="14" lengthAdjust="spacing" textLength="33" x="1077" y="1049.5332">-year</text><text fill="#000000" font-family="sans-serif" font-size="14" lengthAdjust="spacing" textLength="44" x="1077" y="1067.1426">-month</text><text fill="#000000" font-family="sans-serif" font-size="14" lengthAdjust="spacing" textLength="28" x="1077" y="1084.752">-day</text><line style="stroke:#181818;stroke-width:0.5;" x1="1072" x2="1236" y1="1091.8281" y2="1091.8281"/><text fill="#000000" font-family="sans-serif" font-size="14" lengthAdjust="spacing" textLength="154" x="1077" y="1110.3613">+Date(year, month, day)</text><text fill="#000000" font-family="sans-serif" font-size="14" lengthAdjust="spacing" text-decoration="underline" textLength="93" x="1077" y="1127.9707">+currentDate()</text></g><!--MD5=[2e42295458bb0bec21c9622a623eb29e]
class Time--><g id="elem_Time"><rect codeLine="54" fill="#F1F1F1" height="188.875" id="Time" rx="2.5" ry="2.5" style="stroke:#181818;stroke-width:0.5;" width="215" x="820.5" y="972.5"/><ellipse cx="908.25" cy="988.5" fill="#ADD1B2" rx="11" ry="11" style="stroke:#181818;stroke-width:1.0;"/><path d="M910.25,985 Q910.4531,984.5 910.6875,984.25 Q910.9219,984 911.1875,984 Q911.6563,984 911.9531,984.2813 Q912.25,984.5625 912.25,985.2188 L912.25,986.7813 Q912.25,987.4375 911.9688,987.7188 Q911.6875,988 911.25,988 Q910.8594,988 910.6094,987.8281 Q910.3594,987.6563 910.25,987.2031 Q910.2031,986.8906 910.0313,986.7188 Q909.7188,986.3906 909.1563,986.2031 Q908.5938,986 908.0313,986 Q907.3281,986 906.7344,986.2813 Q906.1563,986.5625 905.7031,987.1875 Q905.25,987.8125 905.25,988.6719 L905.25,989.5938 Q905.25,990.625 906.0938,991.3125 Q906.9375,992 908.4375,992 Q909.3281,992 909.9531,991.7969 Q910.3125,991.6875 910.7188,991.3281 Q910.9844,991.125 911.125,991.0625 Q911.2656,991 911.4375,991 Q911.7656,991 912,991.2656 Q912.25,991.5156 912.25,991.875 Q912.25,992.2188 911.9063,992.625 Q911.4063,993.2188 910.6094,993.5469 Q909.5625,994 908.2813,994 Q906.7813,994 905.5781,993.4063 Q904.6094,992.9375 903.9219,991.9219 Q903.25,990.9063 903.25,989.7031 L903.25,988.6094 Q903.25,987.3594 903.8438,986.2656 Q904.4531,985.1719 905.5,984.5938 Q906.5625,984 907.75,984 Q908.4688,984 909.0938,984.25 Q909.7188,984.5 910.25,985 Z " fill="#000000"/><text fill="#000000" font-family="sans-serif" font-size="14" lengthAdjust="spacing" textLength="31" x="928.75" y="994.2285">Time</text><line style="stroke:#181818;stroke-width:0.5;" x1="821.5" x2="1034.5" y1="1004.5" y2="1004.5"/><text fill="#000000" font-family="sans-serif" font-size="14" lengthAdjust="spacing" textLength="41" x="826.5" y="1023.0332">-hours</text><text fill="#000000" font-family="sans-serif" font-size="14" lengthAdjust="spacing" textLength="54" x="826.5" y="1040.6426">-minutes</text><text fill="#000000" font-family="sans-serif" font-size="14" lengthAdjust="spacing" textLength="58" x="826.5" y="1058.252">-seconds</text><line style="stroke:#181818;stroke-width:0.5;" x1="821.5" x2="1034.5" y1="1065.3281" y2="1065.3281"/><text fill="#000000" font-family="sans-serif" font-size="14" lengthAdjust="spacing" textLength="203" x="826.5" y="1083.8613">+Time(hours, minutes, seconds)</text><text fill="#000000" font-family="sans-serif" font-size="14" lengthAdjust="spacing" textLength="125" x="826.5" y="1101.4707">-checkHours(hours)</text><text fill="#000000" font-family="sans-serif" font-size="14" lengthAdjust="spacing" textLength="150" x="826.5" y="1119.0801">-checkMinutes(minutes)</text><text fill="#000000" font-family="sans-serif" font-size="14" lengthAdjust="spacing" textLength="160" x="826.5" y="1136.6895">-checkSeconds(seconds)</text><text fill="#000000" font-family="sans-serif" font-size="14" lengthAdjust="spacing" text-decoration="underline" textLength="94" x="826.5" y="1154.2988">+currentTime()</text></g><!--MD5=[8d21a970f1bd1e0e0584d0ecf91221be]
class ScheduleVaccine--><g id="elem_ScheduleVaccine"><rect codeLine="66" fill="#F1F1F1" height="100.8281" id="ScheduleVaccine" rx="2.5" ry="2.5" style="stroke:#181818;stroke-width:0.5;" width="470" x="86" y="729.5"/><ellipse cx="262.25" cy="745.5" fill="#ADD1B2" rx="11" ry="11" style="stroke:#181818;stroke-width:1.0;"/><path d="M264.25,742 Q264.4531,741.5 264.6875,741.25 Q264.9219,741 265.1875,741 Q265.6563,741 265.9531,741.2813 Q266.25,741.5625 266.25,742.2188 L266.25,743.7813 Q266.25,744.4375 265.9688,744.7188 Q265.6875,745 265.25,745 Q264.8594,745 264.6094,744.8281 Q264.3594,744.6563 264.25,744.2031 Q264.2031,743.8906 264.0313,743.7188 Q263.7188,743.3906 263.1563,743.2031 Q262.5938,743 262.0313,743 Q261.3281,743 260.7344,743.2813 Q260.1563,743.5625 259.7031,744.1875 Q259.25,744.8125 259.25,745.6719 L259.25,746.5938 Q259.25,747.625 260.0938,748.3125 Q260.9375,749 262.4375,749 Q263.3281,749 263.9531,748.7969 Q264.3125,748.6875 264.7188,748.3281 Q264.9844,748.125 265.125,748.0625 Q265.2656,748 265.4375,748 Q265.7656,748 266,748.2656 Q266.25,748.5156 266.25,748.875 Q266.25,749.2188 265.9063,749.625 Q265.4063,750.2188 264.6094,750.5469 Q263.5625,751 262.2813,751 Q260.7813,751 259.5781,750.4063 Q258.6094,749.9375 257.9219,748.9219 Q257.25,747.9063 257.25,746.7031 L257.25,745.6094 Q257.25,744.3594 257.8438,743.2656 Q258.4531,742.1719 259.5,741.5938 Q260.5625,741 261.75,741 Q262.4688,741 263.0938,741.25 Q263.7188,741.5 264.25,742 Z " fill="#000000"/><text fill="#000000" font-family="sans-serif" font-size="14" lengthAdjust="spacing" textLength="109" x="282.75" y="751.2285">ScheduleVaccine</text><line style="stroke:#181818;stroke-width:0.5;" x1="87" x2="555" y1="761.5" y2="761.5"/><line style="stroke:#181818;stroke-width:0.5;" x1="87" x2="555" y1="769.5" y2="769.5"/><text fill="#000000" font-family="sans-serif" font-size="14" lengthAdjust="spacing" textLength="458" x="92" y="788.0332">+ScheduleVaccine(snsUser, vaccinationCenter, date, time, vaccineType)</text><text fill="#000000" font-family="sans-serif" font-size="14" lengthAdjust="spacing" textLength="68" x="92" y="805.6426">+getDate()</text><text fill="#000000" font-family="sans-serif" font-size="14" lengthAdjust="spacing" textLength="69" x="92" y="823.252">+getTime()</text></g><!--MD5=[2965067e0e5c3954f679be6aab4265ff]
class ArrivalSNSUserStore--><g id="elem_ArrivalSNSUserStore"><rect codeLine="74" fill="#F1F1F1" height="136.0469" id="ArrivalSNSUserStore" rx="2.5" ry="2.5" style="stroke:#181818;stroke-width:0.5;" width="204" x="1387" y="999"/><ellipse cx="1420.9" cy="1015" fill="#ADD1B2" rx="11" ry="11" style="stroke:#181818;stroke-width:1.0;"/><path d="M1422.9,1011.5 Q1423.1031,1011 1423.3375,1010.75 Q1423.5719,1010.5 1423.8375,1010.5 Q1424.3063,1010.5 1424.6031,1010.7813 Q1424.9,1011.0625 1424.9,1011.7188 L1424.9,1013.2813 Q1424.9,1013.9375 1424.6188,1014.2188 Q1424.3375,1014.5 1423.9,1014.5 Q1423.5094,1014.5 1423.2594,1014.3281 Q1423.0094,1014.1563 1422.9,1013.7031 Q1422.8531,1013.3906 1422.6813,1013.2188 Q1422.3688,1012.8906 1421.8063,1012.7031 Q1421.2438,1012.5 1420.6813,1012.5 Q1419.9781,1012.5 1419.3844,1012.7813 Q1418.8063,1013.0625 1418.3531,1013.6875 Q1417.9,1014.3125 1417.9,1015.1719 L1417.9,1016.0938 Q1417.9,1017.125 1418.7438,1017.8125 Q1419.5875,1018.5 1421.0875,1018.5 Q1421.9781,1018.5 1422.6031,1018.2969 Q1422.9625,1018.1875 1423.3688,1017.8281 Q1423.6344,1017.625 1423.775,1017.5625 Q1423.9156,1017.5 1424.0875,1017.5 Q1424.4156,1017.5 1424.65,1017.7656 Q1424.9,1018.0156 1424.9,1018.375 Q1424.9,1018.7188 1424.5563,1019.125 Q1424.0563,1019.7188 1423.2594,1020.0469 Q1422.2125,1020.5 1420.9313,1020.5 Q1419.4313,1020.5 1418.2281,1019.9063 Q1417.2594,1019.4375 1416.5719,1018.4219 Q1415.9,1017.4063 1415.9,1016.2031 L1415.9,1015.1094 Q1415.9,1013.8594 1416.4938,1012.7656 Q1417.1031,1011.6719 1418.15,1011.0938 Q1419.2125,1010.5 1420.4,1010.5 Q1421.1188,1010.5 1421.7438,1010.75 Q1422.3688,1011 1422.9,1011.5 Z " fill="#000000"/><text fill="#000000" font-family="sans-serif" font-size="14" lengthAdjust="spacing" textLength="130" x="1439.1" y="1020.7285">ArrivalSNSUserStore</text><line style="stroke:#181818;stroke-width:0.5;" x1="1388" x2="1590" y1="1031" y2="1031"/><line style="stroke:#181818;stroke-width:0.5;" x1="1388" x2="1590" y1="1039" y2="1039"/><text fill="#000000" font-family="sans-serif" font-size="14" lengthAdjust="spacing" textLength="192" x="1393" y="1057.5332">+createArrivalSNSUser(auDto)</text><text fill="#000000" font-family="sans-serif" font-size="14" lengthAdjust="spacing" textLength="179" x="1393" y="1075.1426">+validateArrivalSNSUser(au)</text><text fill="#000000" font-family="sans-serif" font-size="14" lengthAdjust="spacing" textLength="137" x="1393" y="1092.752">+checkDuplicates(au)</text><text fill="#000000" font-family="sans-serif" font-size="14" lengthAdjust="spacing" textLength="160" x="1393" y="1110.3613">+saveArrivalSNSUser(au)</text><text fill="#000000" font-family="sans-serif" font-size="14" lengthAdjust="spacing" textLength="151" x="1393" y="1127.9707">-addArrivalSNSUser(au)</text></g><!--MD5=[a5ad3856b0c65e07b10297b4477b22bb]
class SNSUserStore--><g id="elem_SNSUserStore"><rect codeLine="82" fill="#F1F1F1" height="65.6094" id="SNSUserStore" rx="2.5" ry="2.5" style="stroke:#181818;stroke-width:0.5;" width="206" x="1626" y="1034"/><ellipse cx="1679.75" cy="1050" fill="#ADD1B2" rx="11" ry="11" style="stroke:#181818;stroke-width:1.0;"/><path d="M1681.75,1046.5 Q1681.9531,1046 1682.1875,1045.75 Q1682.4219,1045.5 1682.6875,1045.5 Q1683.1563,1045.5 1683.4531,1045.7813 Q1683.75,1046.0625 1683.75,1046.7188 L1683.75,1048.2813 Q1683.75,1048.9375 1683.4688,1049.2188 Q1683.1875,1049.5 1682.75,1049.5 Q1682.3594,1049.5 1682.1094,1049.3281 Q1681.8594,1049.1563 1681.75,1048.7031 Q1681.7031,1048.3906 1681.5313,1048.2188 Q1681.2188,1047.8906 1680.6563,1047.7031 Q1680.0938,1047.5 1679.5313,1047.5 Q1678.8281,1047.5 1678.2344,1047.7813 Q1677.6563,1048.0625 1677.2031,1048.6875 Q1676.75,1049.3125 1676.75,1050.1719 L1676.75,1051.0938 Q1676.75,1052.125 1677.5938,1052.8125 Q1678.4375,1053.5 1679.9375,1053.5 Q1680.8281,1053.5 1681.4531,1053.2969 Q1681.8125,1053.1875 1682.2188,1052.8281 Q1682.4844,1052.625 1682.625,1052.5625 Q1682.7656,1052.5 1682.9375,1052.5 Q1683.2656,1052.5 1683.5,1052.7656 Q1683.75,1053.0156 1683.75,1053.375 Q1683.75,1053.7188 1683.4063,1054.125 Q1682.9063,1054.7188 1682.1094,1055.0469 Q1681.0625,1055.5 1679.7813,1055.5 Q1678.2813,1055.5 1677.0781,1054.9063 Q1676.1094,1054.4375 1675.4219,1053.4219 Q1674.75,1052.4063 1674.75,1051.2031 L1674.75,1050.1094 Q1674.75,1048.8594 1675.3438,1047.7656 Q1675.9531,1046.6719 1677,1046.0938 Q1678.0625,1045.5 1679.25,1045.5 Q1679.9688,1045.5 1680.5938,1045.75 Q1681.2188,1046 1681.75,1046.5 Z " fill="#000000"/><text fill="#000000" font-family="sans-serif" font-size="14" lengthAdjust="spacing" textLength="90" x="1700.25" y="1055.7285">SNSUserStore</text><line style="stroke:#181818;stroke-width:0.5;" x1="1627" x2="1831" y1="1066" y2="1066"/><line style="stroke:#181818;stroke-width:0.5;" x1="1627" x2="1831" y1="1074" y2="1074"/><text fill="#000000" font-family="sans-serif" font-size="14" lengthAdjust="spacing" textLength="194" x="1632" y="1092.5332">+getSNSUser(snsUserNumber)</text></g><!--MD5=[a29876ea2f21a6ca48ea477740122fd8]
class VaccinationCenterStore--><g id="elem_VaccinationCenterStore"><rect codeLine="86" fill="#F1F1F1" height="65.6094" id="VaccinationCenterStore" rx="2.5" ry="2.5" style="stroke:#181818;stroke-width:0.5;" width="225" x="1376.5" y="1277.5"/><ellipse cx="1410.85" cy="1293.5" fill="#ADD1B2" rx="11" ry="11" style="stroke:#181818;stroke-width:1.0;"/><path d="M1412.85,1290 Q1413.0531,1289.5 1413.2875,1289.25 Q1413.5219,1289 1413.7875,1289 Q1414.2563,1289 1414.5531,1289.2813 Q1414.85,1289.5625 1414.85,1290.2188 L1414.85,1291.7813 Q1414.85,1292.4375 1414.5688,1292.7188 Q1414.2875,1293 1413.85,1293 Q1413.4594,1293 1413.2094,1292.8281 Q1412.9594,1292.6563 1412.85,1292.2031 Q1412.8031,1291.8906 1412.6313,1291.7188 Q1412.3188,1291.3906 1411.7563,1291.2031 Q1411.1938,1291 1410.6313,1291 Q1409.9281,1291 1409.3344,1291.2813 Q1408.7563,1291.5625 1408.3031,1292.1875 Q1407.85,1292.8125 1407.85,1293.6719 L1407.85,1294.5938 Q1407.85,1295.625 1408.6938,1296.3125 Q1409.5375,1297 1411.0375,1297 Q1411.9281,1297 1412.5531,1296.7969 Q1412.9125,1296.6875 1413.3188,1296.3281 Q1413.5844,1296.125 1413.725,1296.0625 Q1413.8656,1296 1414.0375,1296 Q1414.3656,1296 1414.6,1296.2656 Q1414.85,1296.5156 1414.85,1296.875 Q1414.85,1297.2188 1414.5063,1297.625 Q1414.0063,1298.2188 1413.2094,1298.5469 Q1412.1625,1299 1410.8813,1299 Q1409.3813,1299 1408.1781,1298.4063 Q1407.2094,1297.9375 1406.5219,1296.9219 Q1405.85,1295.9063 1405.85,1294.7031 L1405.85,1293.6094 Q1405.85,1292.3594 1406.4438,1291.2656 Q1407.0531,1290.1719 1408.1,1289.5938 Q1409.1625,1289 1410.35,1289 Q1411.0688,1289 1411.6938,1289.25 Q1412.3188,1289.5 1412.85,1290 Z " fill="#000000"/><text fill="#000000" font-family="sans-serif" font-size="14" lengthAdjust="spacing" textLength="150" x="1429.15" y="1299.2285">VaccinationCenterStore</text><line style="stroke:#181818;stroke-width:0.5;" x1="1377.5" x2="1600.5" y1="1309.5" y2="1309.5"/><line style="stroke:#181818;stroke-width:0.5;" x1="1377.5" x2="1600.5" y1="1317.5" y2="1317.5"/><text fill="#000000" font-family="sans-serif" font-size="14" lengthAdjust="spacing" textLength="213" x="1382.5" y="1336.0332">+getVaccinationCenterStore(vcId)</text></g><!--MD5=[dddfbbf04cd811976a8d1b68c187d8cc]
class ScheduleVaccineStore--><g id="elem_ScheduleVaccineStore"><rect codeLine="90" fill="#F1F1F1" height="65.6094" id="ScheduleVaccineStore" rx="2.5" ry="2.5" style="stroke:#181818;stroke-width:0.5;" width="297" x="1636.5" y="1277.5"/><ellipse cx="1709.25" cy="1293.5" fill="#ADD1B2" rx="11" ry="11" style="stroke:#181818;stroke-width:1.0;"/><path d="M1711.25,1290 Q1711.4531,1289.5 1711.6875,1289.25 Q1711.9219,1289 1712.1875,1289 Q1712.6563,1289 1712.9531,1289.2813 Q1713.25,1289.5625 1713.25,1290.2188 L1713.25,1291.7813 Q1713.25,1292.4375 1712.9688,1292.7188 Q1712.6875,1293 1712.25,1293 Q1711.8594,1293 1711.6094,1292.8281 Q1711.3594,1292.6563 1711.25,1292.2031 Q1711.2031,1291.8906 1711.0313,1291.7188 Q1710.7188,1291.3906 1710.1563,1291.2031 Q1709.5938,1291 1709.0313,1291 Q1708.3281,1291 1707.7344,1291.2813 Q1707.1563,1291.5625 1706.7031,1292.1875 Q1706.25,1292.8125 1706.25,1293.6719 L1706.25,1294.5938 Q1706.25,1295.625 1707.0938,1296.3125 Q1707.9375,1297 1709.4375,1297 Q1710.3281,1297 1710.9531,1296.7969 Q1711.3125,1296.6875 1711.7188,1296.3281 Q1711.9844,1296.125 1712.125,1296.0625 Q1712.2656,1296 1712.4375,1296 Q1712.7656,1296 1713,1296.2656 Q1713.25,1296.5156 1713.25,1296.875 Q1713.25,1297.2188 1712.9063,1297.625 Q1712.4063,1298.2188 1711.6094,1298.5469 Q1710.5625,1299 1709.2813,1299 Q1707.7813,1299 1706.5781,1298.4063 Q1705.6094,1297.9375 1704.9219,1296.9219 Q1704.25,1295.9063 1704.25,1294.7031 L1704.25,1293.6094 Q1704.25,1292.3594 1704.8438,1291.2656 Q1705.4531,1290.1719 1706.5,1289.5938 Q1707.5625,1289 1708.75,1289 Q1709.4688,1289 1710.0938,1289.25 Q1710.7188,1289.5 1711.25,1290 Z " fill="#000000"/><text fill="#000000" font-family="sans-serif" font-size="14" lengthAdjust="spacing" textLength="143" x="1729.75" y="1299.2285">ScheduleVaccineStore</text><line style="stroke:#181818;stroke-width:0.5;" x1="1637.5" x2="1932.5" y1="1309.5" y2="1309.5"/><line style="stroke:#181818;stroke-width:0.5;" x1="1637.5" x2="1932.5" y1="1317.5" y2="1317.5"/><text fill="#000000" font-family="sans-serif" font-size="14" lengthAdjust="spacing" textLength="285" x="1642.5" y="1336.0332">+getVaccinationScheduleListSNSUser(su, vc)</text></g><!--MD5=[a0510edac9754851a6d71633f28061d1]
class ArrivalSNSUserMapper--><g id="elem_ArrivalSNSUserMapper"><rect codeLine="97" fill="#F1F1F1" height="65.6094" id="ArrivalSNSUserMapper" rx="2.5" ry="2.5" style="stroke:#181818;stroke-width:0.5;" width="176" x="2283" y="494"/><ellipse cx="2298" cy="510" fill="#ADD1B2" rx="11" ry="11" style="stroke:#181818;stroke-width:1.0;"/><path d="M2300,506.5 Q2300.2031,506 2300.4375,505.75 Q2300.6719,505.5 2300.9375,505.5 Q2301.4063,505.5 2301.7031,505.7813 Q2302,506.0625 2302,506.7188 L2302,508.2813 Q2302,508.9375 2301.7188,509.2188 Q2301.4375,509.5 2301,509.5 Q2300.6094,509.5 2300.3594,509.3281 Q2300.1094,509.1563 2300,508.7031 Q2299.9531,508.3906 2299.7813,508.2188 Q2299.4688,507.8906 2298.9063,507.7031 Q2298.3438,507.5 2297.7813,507.5 Q2297.0781,507.5 2296.4844,507.7813 Q2295.9063,508.0625 2295.4531,508.6875 Q2295,509.3125 2295,510.1719 L2295,511.0938 Q2295,512.125 2295.8438,512.8125 Q2296.6875,513.5 2298.1875,513.5 Q2299.0781,513.5 2299.7031,513.2969 Q2300.0625,513.1875 2300.4688,512.8281 Q2300.7344,512.625 2300.875,512.5625 Q2301.0156,512.5 2301.1875,512.5 Q2301.5156,512.5 2301.75,512.7656 Q2302,513.0156 2302,513.375 Q2302,513.7188 2301.6563,514.125 Q2301.1563,514.7188 2300.3594,515.0469 Q2299.3125,515.5 2298.0313,515.5 Q2296.5313,515.5 2295.3281,514.9063 Q2294.3594,514.4375 2293.6719,513.4219 Q2293,512.4063 2293,511.2031 L2293,510.1094 Q2293,508.8594 2293.5938,507.7656 Q2294.2031,506.6719 2295.25,506.0938 Q2296.3125,505.5 2297.5,505.5 Q2298.2188,505.5 2298.8438,505.75 Q2299.4688,506 2300,506.5 Z " fill="#000000"/><text fill="#000000" font-family="sans-serif" font-size="14" lengthAdjust="spacing" textLength="144" x="2312" y="515.7285">ArrivalSNSUserMapper</text><line style="stroke:#181818;stroke-width:0.5;" x1="2284" x2="2458" y1="526" y2="526"/><line style="stroke:#181818;stroke-width:0.5;" x1="2284" x2="2458" y1="534" y2="534"/><text fill="#000000" font-family="sans-serif" font-size="14" lengthAdjust="spacing" textLength="114" x="2289" y="552.5332">+toModel(auDTO)</text></g><!--MD5=[1dfe61191ae65b8fa9d989a910888a1b]
class ScheduleVaccineMapper--><g id="elem_ScheduleVaccineMapper"><rect codeLine="101" fill="#F1F1F1" height="65.6094" id="ScheduleVaccineMapper" rx="2.5" ry="2.5" style="stroke:#181818;stroke-width:0.5;" width="189" x="2058.5" y="494"/><ellipse cx="2073.5" cy="510" fill="#ADD1B2" rx="11" ry="11" style="stroke:#181818;stroke-width:1.0;"/><path d="M2075.5,506.5 Q2075.7031,506 2075.9375,505.75 Q2076.1719,505.5 2076.4375,505.5 Q2076.9063,505.5 2077.2031,505.7813 Q2077.5,506.0625 2077.5,506.7188 L2077.5,508.2813 Q2077.5,508.9375 2077.2188,509.2188 Q2076.9375,509.5 2076.5,509.5 Q2076.1094,509.5 2075.8594,509.3281 Q2075.6094,509.1563 2075.5,508.7031 Q2075.4531,508.3906 2075.2813,508.2188 Q2074.9688,507.8906 2074.4063,507.7031 Q2073.8438,507.5 2073.2813,507.5 Q2072.5781,507.5 2071.9844,507.7813 Q2071.4063,508.0625 2070.9531,508.6875 Q2070.5,509.3125 2070.5,510.1719 L2070.5,511.0938 Q2070.5,512.125 2071.3438,512.8125 Q2072.1875,513.5 2073.6875,513.5 Q2074.5781,513.5 2075.2031,513.2969 Q2075.5625,513.1875 2075.9688,512.8281 Q2076.2344,512.625 2076.375,512.5625 Q2076.5156,512.5 2076.6875,512.5 Q2077.0156,512.5 2077.25,512.7656 Q2077.5,513.0156 2077.5,513.375 Q2077.5,513.7188 2077.1563,514.125 Q2076.6563,514.7188 2075.8594,515.0469 Q2074.8125,515.5 2073.5313,515.5 Q2072.0313,515.5 2070.8281,514.9063 Q2069.8594,514.4375 2069.1719,513.4219 Q2068.5,512.4063 2068.5,511.2031 L2068.5,510.1094 Q2068.5,508.8594 2069.0938,507.7656 Q2069.7031,506.6719 2070.75,506.0938 Q2071.8125,505.5 2073,505.5 Q2073.7188,505.5 2074.3438,505.75 Q2074.9688,506 2075.5,506.5 Z " fill="#000000"/><text fill="#000000" font-family="sans-serif" font-size="14" lengthAdjust="spacing" textLength="157" x="2087.5" y="515.7285">ScheduleVaccineMapper</text><line style="stroke:#181818;stroke-width:0.5;" x1="2059.5" x2="2246.5" y1="526" y2="526"/><line style="stroke:#181818;stroke-width:0.5;" x1="2059.5" x2="2246.5" y1="534" y2="534"/><text fill="#000000" font-family="sans-serif" font-size="14" lengthAdjust="spacing" textLength="117" x="2064.5" y="552.5332">+toListDTO(listSV)</text></g><!--MD5=[ea40358ed8f6b35423f60076336c7c8e]
class ArrivalSNSUserDTO--><g id="elem_ArrivalSNSUserDTO"><rect codeLine="107" fill="#F1F1F1" height="224.0938" id="ArrivalSNSUserDTO" rx="2.5" ry="2.5" style="stroke:#181818;stroke-width:0.5;" width="484" x="2356" y="955"/><ellipse cx="2530.75" cy="971" fill="#ADD1B2" rx="11" ry="11" style="stroke:#181818;stroke-width:1.0;"/><path d="M2532.75,967.5 Q2532.9531,967 2533.1875,966.75 Q2533.4219,966.5 2533.6875,966.5 Q2534.1563,966.5 2534.4531,966.7813 Q2534.75,967.0625 2534.75,967.7188 L2534.75,969.2813 Q2534.75,969.9375 2534.4688,970.2188 Q2534.1875,970.5 2533.75,970.5 Q2533.3594,970.5 2533.1094,970.3281 Q2532.8594,970.1563 2532.75,969.7031 Q2532.7031,969.3906 2532.5313,969.2188 Q2532.2188,968.8906 2531.6563,968.7031 Q2531.0938,968.5 2530.5313,968.5 Q2529.8281,968.5 2529.2344,968.7813 Q2528.6563,969.0625 2528.2031,969.6875 Q2527.75,970.3125 2527.75,971.1719 L2527.75,972.0938 Q2527.75,973.125 2528.5938,973.8125 Q2529.4375,974.5 2530.9375,974.5 Q2531.8281,974.5 2532.4531,974.2969 Q2532.8125,974.1875 2533.2188,973.8281 Q2533.4844,973.625 2533.625,973.5625 Q2533.7656,973.5 2533.9375,973.5 Q2534.2656,973.5 2534.5,973.7656 Q2534.75,974.0156 2534.75,974.375 Q2534.75,974.7188 2534.4063,975.125 Q2533.9063,975.7188 2533.1094,976.0469 Q2532.0625,976.5 2530.7813,976.5 Q2529.2813,976.5 2528.0781,975.9063 Q2527.1094,975.4375 2526.4219,974.4219 Q2525.75,973.4063 2525.75,972.2031 L2525.75,971.1094 Q2525.75,969.8594 2526.3438,968.7656 Q2526.9531,967.6719 2528,967.0938 Q2529.0625,966.5 2530.25,966.5 Q2530.9688,966.5 2531.5938,966.75 Q2532.2188,967 2532.75,967.5 Z " fill="#000000"/><text fill="#000000" font-family="sans-serif" font-size="14" lengthAdjust="spacing" textLength="126" x="2551.25" y="976.7285">ArrivalSNSUserDTO</text><line style="stroke:#181818;stroke-width:0.5;" x1="2357" x2="2839" y1="987" y2="987"/><text fill="#000000" font-family="sans-serif" font-size="14" lengthAdjust="spacing" textLength="56" x="2362" y="1005.5332">-snsUser</text><text fill="#000000" font-family="sans-serif" font-size="14" lengthAdjust="spacing" textLength="74" x="2362" y="1023.1426">-arrivalDate</text><text fill="#000000" font-family="sans-serif" font-size="14" lengthAdjust="spacing" textLength="75" x="2362" y="1040.752">-arrivalTime</text><text fill="#000000" font-family="sans-serif" font-size="14" lengthAdjust="spacing" textLength="119" x="2362" y="1058.3613">-vaccinationCenter</text><text fill="#000000" font-family="sans-serif" font-size="14" lengthAdjust="spacing" textLength="85" x="2362" y="1075.9707">-waitingRoom</text><line style="stroke:#181818;stroke-width:0.5;" x1="2357" x2="2839" y1="1083.0469" y2="1083.0469"/><text fill="#000000" font-family="sans-serif" font-size="14" lengthAdjust="spacing" textLength="472" x="2362" y="1101.5801">+ArrivalSNSUserDTO(snsUser, arrivalDate, arrivalTime, vaccinationCenter)</text><text fill="#000000" font-family="sans-serif" font-size="14" lengthAdjust="spacing" textLength="91" x="2362" y="1119.1895">+getSnsUser()</text><text fill="#000000" font-family="sans-serif" font-size="14" lengthAdjust="spacing" textLength="108" x="2362" y="1136.7988">+getArrivalDate()</text><text fill="#000000" font-family="sans-serif" font-size="14" lengthAdjust="spacing" textLength="109" x="2362" y="1154.4082">+getArrivalTime()</text><text fill="#000000" font-family="sans-serif" font-size="14" lengthAdjust="spacing" textLength="154" x="2362" y="1172.0176">+getVaccinationCenter()</text></g><!--MD5=[eeddcd52079be367b57321b6d447262c]
class ScheduleVaccineDTO--><g id="elem_ScheduleVaccineDTO"><rect codeLine="120" fill="#F1F1F1" height="153.6563" id="ScheduleVaccineDTO" rx="2.5" ry="2.5" style="stroke:#181818;stroke-width:0.5;" width="231" x="2089.5" y="990"/><ellipse cx="2131.5" cy="1006" fill="#ADD1B2" rx="11" ry="11" style="stroke:#181818;stroke-width:1.0;"/><path d="M2133.5,1002.5 Q2133.7031,1002 2133.9375,1001.75 Q2134.1719,1001.5 2134.4375,1001.5 Q2134.9063,1001.5 2135.2031,1001.7813 Q2135.5,1002.0625 2135.5,1002.7188 L2135.5,1004.2813 Q2135.5,1004.9375 2135.2188,1005.2188 Q2134.9375,1005.5 2134.5,1005.5 Q2134.1094,1005.5 2133.8594,1005.3281 Q2133.6094,1005.1563 2133.5,1004.7031 Q2133.4531,1004.3906 2133.2813,1004.2188 Q2132.9688,1003.8906 2132.4063,1003.7031 Q2131.8438,1003.5 2131.2813,1003.5 Q2130.5781,1003.5 2129.9844,1003.7813 Q2129.4063,1004.0625 2128.9531,1004.6875 Q2128.5,1005.3125 2128.5,1006.1719 L2128.5,1007.0938 Q2128.5,1008.125 2129.3438,1008.8125 Q2130.1875,1009.5 2131.6875,1009.5 Q2132.5781,1009.5 2133.2031,1009.2969 Q2133.5625,1009.1875 2133.9688,1008.8281 Q2134.2344,1008.625 2134.375,1008.5625 Q2134.5156,1008.5 2134.6875,1008.5 Q2135.0156,1008.5 2135.25,1008.7656 Q2135.5,1009.0156 2135.5,1009.375 Q2135.5,1009.7188 2135.1563,1010.125 Q2134.6563,1010.7188 2133.8594,1011.0469 Q2132.8125,1011.5 2131.5313,1011.5 Q2130.0313,1011.5 2128.8281,1010.9063 Q2127.8594,1010.4375 2127.1719,1009.4219 Q2126.5,1008.4063 2126.5,1007.2031 L2126.5,1006.1094 Q2126.5,1004.8594 2127.0938,1003.7656 Q2127.7031,1002.6719 2128.75,1002.0938 Q2129.8125,1001.5 2131,1001.5 Q2131.7188,1001.5 2132.3438,1001.75 Q2132.9688,1002 2133.5,1002.5 Z " fill="#000000"/><text fill="#000000" font-family="sans-serif" font-size="14" lengthAdjust="spacing" textLength="139" x="2151.5" y="1011.7285">ScheduleVaccineDTO</text><line style="stroke:#181818;stroke-width:0.5;" x1="2090.5" x2="2319.5" y1="1022" y2="1022"/><text fill="#000000" font-family="sans-serif" font-size="14" lengthAdjust="spacing" textLength="56" x="2095.5" y="1040.5332">-snsUser</text><text fill="#000000" font-family="sans-serif" font-size="14" lengthAdjust="spacing" textLength="119" x="2095.5" y="1058.1426">-vaccinationCenter</text><text fill="#000000" font-family="sans-serif" font-size="14" lengthAdjust="spacing" textLength="33" x="2095.5" y="1075.752">-date</text><text fill="#000000" font-family="sans-serif" font-size="14" lengthAdjust="spacing" textLength="31" x="2095.5" y="1093.3613">-time</text><text fill="#000000" font-family="sans-serif" font-size="14" lengthAdjust="spacing" textLength="85" x="2095.5" y="1110.9707">-vaccineType</text><line style="stroke:#181818;stroke-width:0.5;" x1="2090.5" x2="2319.5" y1="1118.0469" y2="1118.0469"/><text fill="#000000" font-family="sans-serif" font-size="14" lengthAdjust="spacing" textLength="219" x="2095.5" y="1136.5801">+ScheduleVaccineDTO(date, time)</text></g><!--MD5=[47a3a541ed9b8337a16c50c306e460e7]
class RegisterArrivalSNSUserController--><g id="elem_RegisterArrivalSNSUserController"><rect codeLine="131" fill="#F1F1F1" height="118.4375" id="RegisterArrivalSNSUserController" rx="2.5" ry="2.5" style="stroke:#181818;stroke-width:0.5;" width="260" x="2058" y="259"/><ellipse cx="2080.65" cy="275" fill="#ADD1B2" rx="11" ry="11" style="stroke:#181818;stroke-width:1.0;"/><path d="M2082.65,271.5 Q2082.8531,271 2083.0875,270.75 Q2083.3219,270.5 2083.5875,270.5 Q2084.0563,270.5 2084.3531,270.7813 Q2084.65,271.0625 2084.65,271.7188 L2084.65,273.2813 Q2084.65,273.9375 2084.3688,274.2188 Q2084.0875,274.5 2083.65,274.5 Q2083.2594,274.5 2083.0094,274.3281 Q2082.7594,274.1563 2082.65,273.7031 Q2082.6031,273.3906 2082.4313,273.2188 Q2082.1188,272.8906 2081.5563,272.7031 Q2080.9938,272.5 2080.4313,272.5 Q2079.7281,272.5 2079.1344,272.7813 Q2078.5563,273.0625 2078.1031,273.6875 Q2077.65,274.3125 2077.65,275.1719 L2077.65,276.0938 Q2077.65,277.125 2078.4938,277.8125 Q2079.3375,278.5 2080.8375,278.5 Q2081.7281,278.5 2082.3531,278.2969 Q2082.7125,278.1875 2083.1188,277.8281 Q2083.3844,277.625 2083.525,277.5625 Q2083.6656,277.5 2083.8375,277.5 Q2084.1656,277.5 2084.4,277.7656 Q2084.65,278.0156 2084.65,278.375 Q2084.65,278.7188 2084.3063,279.125 Q2083.8063,279.7188 2083.0094,280.0469 Q2081.9625,280.5 2080.6813,280.5 Q2079.1813,280.5 2077.9781,279.9063 Q2077.0094,279.4375 2076.3219,278.4219 Q2075.65,277.4063 2075.65,276.2031 L2075.65,275.1094 Q2075.65,273.8594 2076.2438,272.7656 Q2076.8531,271.6719 2077.9,271.0938 Q2078.9625,270.5 2080.15,270.5 Q2080.8688,270.5 2081.4938,270.75 Q2082.1188,271 2082.65,271.5 Z " fill="#000000"/><text fill="#000000" font-family="sans-serif" font-size="14" lengthAdjust="spacing" textLength="211" x="2096.35" y="280.7285">RegisterArrivalSNSUserController</text><line style="stroke:#181818;stroke-width:0.5;" x1="2059" x2="2317" y1="291" y2="291"/><line style="stroke:#181818;stroke-width:0.5;" x1="2059" x2="2317" y1="299" y2="299"/><text fill="#000000" font-family="sans-serif" font-size="14" lengthAdjust="spacing" textLength="154" x="2064" y="317.5332">+createArrivalSNSUser()</text><text fill="#000000" font-family="sans-serif" font-size="14" lengthAdjust="spacing" textLength="144" x="2064" y="335.1426">+saveArrivalSNSUser()</text><text fill="#000000" font-family="sans-serif" font-size="14" lengthAdjust="spacing" textLength="214" x="2064" y="352.752">+createSNSUser(snsUserNumber)</text><text fill="#000000" font-family="sans-serif" font-size="14" lengthAdjust="spacing" textLength="248" x="2064" y="370.3613">+getListSNSUserVaccinationSchedule()</text></g><!--MD5=[c1836a35d5ac317a5d2b46c05d8b3bab]
class RegisterArrivalSNSUserUI--><g id="elem_RegisterArrivalSNSUserUI"><rect codeLine="141" fill="#F1F1F1" height="48" id="RegisterArrivalSNSUserUI" rx="2.5" ry="2.5" style="stroke:#181818;stroke-width:0.5;" width="193" x="2058.5" y="50"/><ellipse cx="2073.5" cy="66" fill="#ADD1B2" rx="11" ry="11" style="stroke:#181818;stroke-width:1.0;"/><path d="M2075.5,62.5 Q2075.7031,62 2075.9375,61.75 Q2076.1719,61.5 2076.4375,61.5 Q2076.9063,61.5 2077.2031,61.7813 Q2077.5,62.0625 2077.5,62.7188 L2077.5,64.2813 Q2077.5,64.9375 2077.2188,65.2188 Q2076.9375,65.5 2076.5,65.5 Q2076.1094,65.5 2075.8594,65.3281 Q2075.6094,65.1563 2075.5,64.7031 Q2075.4531,64.3906 2075.2813,64.2188 Q2074.9688,63.8906 2074.4063,63.7031 Q2073.8438,63.5 2073.2813,63.5 Q2072.5781,63.5 2071.9844,63.7813 Q2071.4063,64.0625 2070.9531,64.6875 Q2070.5,65.3125 2070.5,66.1719 L2070.5,67.0938 Q2070.5,68.125 2071.3438,68.8125 Q2072.1875,69.5 2073.6875,69.5 Q2074.5781,69.5 2075.2031,69.2969 Q2075.5625,69.1875 2075.9688,68.8281 Q2076.2344,68.625 2076.375,68.5625 Q2076.5156,68.5 2076.6875,68.5 Q2077.0156,68.5 2077.25,68.7656 Q2077.5,69.0156 2077.5,69.375 Q2077.5,69.7188 2077.1563,70.125 Q2076.6563,70.7188 2075.8594,71.0469 Q2074.8125,71.5 2073.5313,71.5 Q2072.0313,71.5 2070.8281,70.9063 Q2069.8594,70.4375 2069.1719,69.4219 Q2068.5,68.4063 2068.5,67.2031 L2068.5,66.1094 Q2068.5,64.8594 2069.0938,63.7656 Q2069.7031,62.6719 2070.75,62.0938 Q2071.8125,61.5 2073,61.5 Q2073.7188,61.5 2074.3438,61.75 Q2074.9688,62 2075.5,62.5 Z " fill="#000000"/><text fill="#000000" font-family="sans-serif" font-size="14" lengthAdjust="spacing" textLength="161" x="2087.5" y="71.7285">RegisterArrivalSNSUserUI</text><line style="stroke:#181818;stroke-width:0.5;" x1="2059.5" x2="2250.5" y1="82" y2="82"/><line style="stroke:#181818;stroke-width:0.5;" x1="2059.5" x2="2250.5" y1="90" y2="90"/></g><!--MD5=[c0e03bc0364fb8ddf01d34c59083e167]
reverse link ArrivalSNSUser to SNSUser--><g id="link_ArrivalSNSUser_SNSUser"><path codeLine="145" d="M780.65,832.17 C755.74,866.31 721.99,912.55 691.09,954.89 " fill="none" id="ArrivalSNSUser-backto-SNSUser" style="stroke:#181818;stroke-width:1.0;"/><polygon fill="none" points="788.42,821.53,781.6528,824.021,781.3494,831.2257,788.1166,828.7347,788.42,821.53" style="stroke:#181818;stroke-width:1.0;"/></g><!--MD5=[69e027ad1d69cc97cc86ce244612e97b]
reverse link ArrivalSNSUser to Date--><g id="link_ArrivalSNSUser_Date"><path codeLine="146" d="M946.77,826.97 C983.88,844.37 1022.53,866.93 1053,895 C1084.19,923.74 1108.72,964.33 1125.8,998.76 " fill="none" id="ArrivalSNSUser-backto-Date" style="stroke:#181818;stroke-width:1.0;"/><polygon fill="none" points="934.78,821.5,938.577,827.6305,945.6963,826.4835,941.8993,820.353,934.78,821.5" style="stroke:#181818;stroke-width:1.0;"/></g><!--MD5=[77f3855f13ee0ddb8750769eb45825c3]
reverse link ArrivalSNSUser to Time--><g id="link_ArrivalSNSUser_Time"><path codeLine="147" d="M838.39,833.83 C853.36,872.63 874.11,926.36 891.86,972.37 " fill="none" id="ArrivalSNSUser-backto-Time" style="stroke:#181818;stroke-width:1.0;"/><polygon fill="none" points="833.64,821.53,832.071,828.5683,837.9645,832.7237,839.5335,825.6853,833.64,821.53" style="stroke:#181818;stroke-width:1.0;"/></g><!--MD5=[aa921eabd407654a2f141846f1241880]
reverse link ArrivalSNSUser to VaccinationCenter--><g id="link_ArrivalSNSUser_VaccinationCenter"><path codeLine="148" d="M631.45,824.81 C546.02,846.76 455.54,873.22 418,895 C405.6,902.19 393.43,910.46 381.64,919.4 " fill="none" id="ArrivalSNSUser-backto-VaccinationCenter" style="stroke:#181818;stroke-width:1.0;"/><polygon fill="none" points="644.28,821.54,637.4774,819.1472,632.6524,824.5062,639.4549,826.899,644.28,821.54" style="stroke:#181818;stroke-width:1.0;"/></g><!--MD5=[0a402a282eb9440038026730d6cc3205]
reverse link ScheduleVaccine to SNSUser--><g id="link_ScheduleVaccine_SNSUser"><path codeLine="150" d="M381.01,840.18 C414.64,873.34 457.68,915.79 497.35,954.91 " fill="none" id="ScheduleVaccine-backto-SNSUser" style="stroke:#181818;stroke-width:1.0;"/><polygon fill="none" points="371.34,830.64,372.8036,837.701,379.8844,839.0657,378.4208,832.0047,371.34,830.64" style="stroke:#181818;stroke-width:1.0;"/></g><!--MD5=[d5d433c7883c58947311d1080f91765b]
reverse link ScheduleVaccine to Date--><g id="link_ScheduleVaccine_Date"><path codeLine="151" d="M541.63,833.06 C552.55,835.17 563.39,837.17 574,839 C587.2,841.28 1041.77,887.69 1053,895 C1090.14,919.16 1115.44,962.15 1131.43,998.98 " fill="none" id="ScheduleVaccine-backto-Date" style="stroke:#181818;stroke-width:1.0;"/><polygon fill="none" points="528.77,830.53,533.8888,835.6092,540.546,832.8377,535.4272,827.7585,528.77,830.53" style="stroke:#181818;stroke-width:1.0;"/></g><!--MD5=[4c118736328e1a38035883cfbabcddd2]
reverse link ScheduleVaccine to Time--><g id="link_ScheduleVaccine_Time"><path codeLine="152" d="M529.36,833.7 C602.14,851.47 684.5,870.87 760,887 C779.01,891.06 786.55,884.65 803,895 C833.34,914.1 858.71,943.45 878.48,972.48 " fill="none" id="ScheduleVaccine-backto-Time" style="stroke:#181818;stroke-width:1.0;"/><polygon fill="none" points="516.36,830.52,521.2391,835.8299,528.0171,833.3683,523.138,828.0585,516.36,830.52" style="stroke:#181818;stroke-width:1.0;"/></g><!--MD5=[faf07ee4774a4925a39ce1ea931e3396]
reverse link ScheduleVaccine to VaccinationCenter--><g id="link_ScheduleVaccine_VaccinationCenter"><path codeLine="153" d="M303.91,843.44 C297.73,866.01 290.47,892.54 283.16,919.27 " fill="none" id="ScheduleVaccine-backto-VaccinationCenter" style="stroke:#181818;stroke-width:1.0;"/><polygon fill="none" points="307.41,830.64,301.9695,835.373,304.2459,842.2153,309.6864,837.4824,307.41,830.64" style="stroke:#181818;stroke-width:1.0;"/></g><!--MD5=[6039f7d15f55a216370d1daf26142be4]
link ui to controller--><g id="link_ui_controller"><path d="M2023,122.6714 C2023,125.7036 2023,128.8344 2023,132.0497 C2023,138.4804 2023,145.2491 2023,152.2433 C2023,166.2316 2023,181.1216 2023,196.0113 C2023,199.7337 2023,203.4561 2023,207.1644 C2023,209.0185 2023,210.8692 2023,212.7145 C2023,213.1758 2023,213.6368 2023,214.0975 C2023,214.3278 2023,214.558 2023,214.7882 " fill="none" id="ui-to-controller" style="stroke:#181818;stroke-width:1.0;stroke-dasharray:7.0,7.0;"/><polygon fill="#181818" points="2023,214.7882,2027,205.7882,2023,209.7882,2019,205.7882,2023,214.7882" style="stroke:#181818;stroke-width:1.0;"/></g><!--MD5=[f4db482f32edd77abe30d6b96ed6334c]
link controller to domain--><g id="link_controller_domain"><path d="M2014.9543,367.9505 C2014.8993,368.3208 2014.8443,368.6923 2014.7892,369.0649 C2014.6791,369.8102 2014.5689,370.5601 2014.4586,371.3143 C2014.238,372.8226 2014.0173,374.348 2013.7969,375.8885 C2012.9155,382.0502 2012.0402,388.4514 2011.207,394.9509 C2009.5406,407.95 2008.0425,421.3425 2007,434 C2003.9025,471.62 2001.7844,511.6181 2000.3512,550.5455 C1999.6347,570.0091 1999.0894,589.2051 1998.6785,607.7023 C1998.5758,612.3266 1998.4815,616.9072 1998.395,621.4374 C1998.3518,623.7025 1998.3105,625.955 1998.2711,628.1941 C1998.2514,629.3136 1998.2322,630.4297 1998.2134,631.5424 " fill="none" id="controller-to-domain" style="stroke:#181818;stroke-width:1.0;stroke-dasharray:7.0,7.0;"/><polygon fill="#181818" points="1998.2134,631.5424,2002.3646,622.6112,1998.2977,626.5432,1994.3657,622.4763,1998.2134,631.5424" style="stroke:#181818;stroke-width:1.0;"/></g><!--MD5=[95af60e6d793701562f73311d2ec55eb]
link controller to dto--><g id="link_controller_dto"><path d="M2029.6664,401.2123 C2030.2905,402.4021 2030.9512,403.5697 2031.6503,404.712 C2034.4467,409.2811 2037.8575,413.445 2042,417 C2078.54,448.36 2441.63,399.29 2475,434 C2706.2,674.46 2172,723.76 2073,895 C2070.645,899.0731 2068.5079,903.2923 2066.5707,907.6242 C2066.0864,908.7071 2065.6146,909.7971 2065.155,910.8936 " fill="none" id="controller-to-dto" style="stroke:#181818;stroke-width:1.0;stroke-dasharray:7.0,7.0;"/><polygon fill="#181818" points="2065.155,910.8936,2072.323,904.1394,2067.0877,906.2823,2064.9448,901.047,2065.155,910.8936" style="stroke:#181818;stroke-width:1.0;"/></g><!--MD5=[0debf692dbcdfac11f15bbe1559bdbdf]
link controller to mapper--><g id="link_controller_mapper"><path d="M2023,401.5128 C2023,402.2818 2023,403.0524 2023,403.8245 C2023,410.0011 2023,416.2694 2023,422.5375 C2023,428.8056 2023,435.0736 2023,441.2493 C2023,442.7933 2023,444.3315 2023,445.8624 C2023,446.6279 2023,447.3916 2023,448.1533 C2023,448.5342 2023,448.9146 2023,449.2944 C2023,449.4843 2023,449.6741 2023,449.8638 " fill="none" id="controller-to-mapper" style="stroke:#181818;stroke-width:1.0;stroke-dasharray:7.0,7.0;"/><polygon fill="#181818" points="2023,449.8638,2027,440.8638,2023,444.8638,2019,440.8638,2023,449.8638" style="stroke:#181818;stroke-width:1.0;"/></g><!--MD5=[dd712a83684d45c2d6098647f34cdc3e]
link mapper to domain--><g id="link_mapper_domain"><path d="M2017.3529,584.6895 C2017.271,585.512 2017.1885,586.3402 2017.1054,587.1739 C2016.4408,593.8434 2015.7414,600.8635 2015.0187,608.1175 C2013.5732,622.6254 2012.0347,638.0684 2010.4963,653.5113 C2009.727,661.2327 2008.9578,668.954 2008.2003,676.5584 C2007.8215,680.3606 2007.4457,684.1335 2007.0742,687.8626 C2006.8885,689.7271 2006.7038,691.5807 2006.5204,693.4215 C2006.4287,694.3419 2006.3374,695.2591 2006.2463,696.1728 C2006.2008,696.6297 2006.1554,697.0857 2006.1101,697.5409 C2006.0874,697.7684 2006.0648,697.9958 2006.0421,698.2229 " fill="none" id="mapper-to-domain" style="stroke:#181818;stroke-width:1.0;stroke-dasharray:7.0,7.0;"/><polygon fill="#181818" points="2006.0421,698.2229,2010.9146,689.6637,2006.5378,693.2475,2002.954,688.8707,2006.0421,698.2229" style="stroke:#181818;stroke-width:1.0;"/></g><!--MD5=[868a81ec62f7ffb5c8ad3d4c697bcfae]
link mapper to dto--><g id="link_mapper_dto"><path d="M2026.344,585.9988 C2026.3827,586.6705 2026.4217,587.347 2026.4609,588.0281 C2026.6178,590.7524 2026.779,593.5512 2026.9443,596.4204 C2027.2748,602.1588 2027.6216,608.1792 2027.9828,614.4502 C2030.8725,664.6178 2034.6863,730.8231 2038.5,797.0262 C2040.4069,830.1278 2042.3138,863.2288 2044.1051,894.3243 C2044.553,902.0982 2044.9936,909.7467 2045.4252,917.2386 C2045.5331,919.1115 2045.6404,920.9747 2045.7472,922.8276 C2045.8005,923.754 2045.8538,924.6779 2045.9068,925.5992 C2045.9334,926.0598 2045.9599,926.5197 2045.9863,926.979 " fill="none" id="mapper-to-dto" style="stroke:#181818;stroke-width:1.0;stroke-dasharray:7.0,7.0;"/><polygon fill="#181818" points="2045.9863,926.979,2049.4621,917.7639,2045.6988,921.9873,2041.4753,918.224,2045.9863,926.979" style="stroke:#181818;stroke-width:1.0;"/></g><!--MD5=[7c93149738b86cc6ff2d6206bb3856af]
link domain to dto--><g id="link_domain_dto"><path d="M2006.0369,821.912 C2006.3498,823.5045 2006.6696,825.1323 2006.9959,826.7933 C2012.2175,853.3691 2019.1087,888.4406 2026,923.5113 C2032.8913,958.5819 2039.7825,993.6516 2045.0041,1020.2236 C2045.3304,1021.8843 2045.6502,1023.5119 2045.9631,1025.1042 " fill="none" id="domain-to-dto" style="stroke:#181818;stroke-width:1.0;stroke-dasharray:7.0,7.0;"/><polygon fill="#181818" points="2045.9631,1025.1042,2048.1527,1015.5018,2044.999,1020.198,2040.3028,1017.0444,2045.9631,1025.1042" style="stroke:#181818;stroke-width:1.0;"/></g><!--MD5=[93da0575314f6081770937cf8464bd09]
link Company to store--><g id="link_Company_store"><path codeLine="166" d="M1265.55,839.01 C1283.05,855.39 1299.98,874.42 1312,895 C1321.6875,911.5875 1329.0294,930.3669 1334.5934,949.2547 C1337.3755,958.6986 1339.713,968.1696 1341.6771,977.4073 C1342.1682,979.7167 1342.6359,982.0116 1343.0813,984.2878 C1343.304,985.4259 1343.5212,986.5593 1343.7329,987.6875 C1343.7859,987.9696 1343.8385,988.2514 1343.8907,988.5328 " fill="none" id="Company-store" style="stroke:#181818;stroke-width:1.0;"/><polygon fill="#000000" points="1311.3205,882.6047,1309.7259,873.2288,1304.5194,875.9567,1311.3205,882.6047" style="stroke:#000000;stroke-width:1.0;"/><text fill="#000000" font-family="sans-serif" font-size="13" lengthAdjust="spacing" textLength="28" x="1318" y="883.4951">uses</text><text fill="#000000" font-family="sans-serif" font-size="13" lengthAdjust="spacing" textLength="7" x="1268.0377" y="861.0853">1</text><text fill="#000000" font-family="sans-serif" font-size="13" lengthAdjust="spacing" textLength="7" x="1345" y="1063.4151">1</text></g><!--MD5=[b135eaa56e0a46c962f577722321d4bd]
@startuml
skinparam classAttributeIconSize 0
'left to right direction

package core {
    package domain {
        package model {
            class Company {
                +getVaccinationCenterStore()
                +getSNSUserStore()
                +getVaccinationScheduleStore()
                +getArrivalSNSUserStore()
            }

            class ArrivalSNSUser {
                -waitingRoom
                +ArrivalSNSUser(snsUser, arrivalDate, arrivalTime, vaccinationCenter)
            }

            class SNSUser {
                -name
                -address
                -sex
                -phoneNumber
                -email
                -birthDate
                -snsUserNumber
                -citizenCardNumber
                +SNSUser(name, address, sex, phoneNumber, email, \nbirthDate, snsUserNumber, citizenCardNumber)
            }

            class VaccinationCenter {
                -name
                -address
                -phoneNumber
                -email
                -faxNumber
                -website
                -openingHours
                -closingHours
                -slotDuration
                -slotVaccineLimit
                {static} -numberVaccinationCenters
                +VaccineCenter(name, address, phoneNumber,\n email, faxNumber, website, openingHours,\n closingHours, slotDuration, slotVaccineLimit)
            }

            class Date {
                -year
                -month
                -day
                +Date(year, month, day)
                {static} +currentDate()
            }

            class Time {
                -hours
                -minutes
                -seconds
                +Time(hours, minutes, seconds)
                -checkHours(hours)
                -checkMinutes(minutes)
                -checkSeconds(seconds)
                {static} +currentTime()
            }


            class ScheduleVaccine {
                +ScheduleVaccine(snsUser, vaccinationCenter, date, time, vaccineType)
                +getDate()
                +getTime()
            }
        }

        package store {
            class ArrivalSNSUserStore {
                +createArrivalSNSUser(auDto)
                +validateArrivalSNSUser(au)
                +checkDuplicates(au)
                +saveArrivalSNSUser(au)
                -addArrivalSNSUser(au)
            }

            class SNSUserStore {
                +getSNSUser(snsUserNumber)
            }

            class VaccinationCenterStore {
                +getVaccinationCenterStore(vcId)
            }

            class ScheduleVaccineStore {
                +getVaccinationScheduleListSNSUser(su, vc)
            }
        }
    }

    package mapper {
        class ArrivalSNSUserMapper {
            +toModel(auDTO)
        }

        class ScheduleVaccineMapper {
            +toListDTO(listSV)
        }
    }

    package dto {
        class ArrivalSNSUserDTO {
            -snsUser
            -arrivalDate
            -arrivalTime
            -vaccinationCenter
            -waitingRoom
            +ArrivalSNSUserDTO(snsUser, arrivalDate, arrivalTime, vaccinationCenter)
            +getSnsUser()
            +getArrivalDate()
            +getArrivalTime()
            +getVaccinationCenter()
        }

        class ScheduleVaccineDTO {
            -snsUser
            -vaccinationCenter
            -date
            -time
            -vaccineType
            +ScheduleVaccineDTO(date, time)
        }
    }

    package controller {
        class RegisterArrivalSNSUserController {
            +createArrivalSNSUser()
            +saveArrivalSNSUser()
            +createSNSUser(snsUserNumber)
            +getListSNSUserVaccinationSchedule()
        }
    }
}

package ui {
    class RegisterArrivalSNSUserUI {
    }
}

ArrivalSNSUser o- - SNSUser
ArrivalSNSUser o- - Date
ArrivalSNSUser o- - Time
ArrivalSNSUser o- - VaccinationCenter

ScheduleVaccine o- - SNSUser
ScheduleVaccine o- - Date
ScheduleVaccine o- - Time
ScheduleVaccine o- - VaccinationCenter

ui ..> controller

controller ..> domain
controller ..> dto
controller ..> mapper

mapper ..> domain
mapper ..> dto

domain ..> dto

Company "1" - - "1" store : uses >

@enduml

@startuml
skinparam classAttributeIconSize 0

package core {
    package domain {
        package model {
            class Company {
                +getVaccinationCenterStore()
                +getSNSUserStore()
                +getVaccinationScheduleStore()
                +getArrivalSNSUserStore()
            }

            class ArrivalSNSUser {
                -waitingRoom
                +ArrivalSNSUser(snsUser, arrivalDate, arrivalTime, vaccinationCenter)
            }

            class SNSUser {
                -name
                -address
                -sex
                -phoneNumber
                -email
                -birthDate
                -snsUserNumber
                -citizenCardNumber
                +SNSUser(name, address, sex, phoneNumber, email, \nbirthDate, snsUserNumber, citizenCardNumber)
            }

            class VaccinationCenter {
                -name
                -address
                -phoneNumber
                -email
                -faxNumber
                -website
                -openingHours
                -closingHours
                -slotDuration
                -slotVaccineLimit
                {static} -numberVaccinationCenters
                +VaccineCenter(name, address, phoneNumber,\n email, faxNumber, website, openingHours,\n closingHours, slotDuration, slotVaccineLimit)
            }

            class Date {
                -year
                -month
                -day
                +Date(year, month, day)
                {static} +currentDate()
            }

            class Time {
                -hours
                -minutes
                -seconds
                +Time(hours, minutes, seconds)
                -checkHours(hours)
                -checkMinutes(minutes)
                -checkSeconds(seconds)
                {static} +currentTime()
            }


            class ScheduleVaccine {
                +ScheduleVaccine(snsUser, vaccinationCenter, date, time, vaccineType)
                +getDate()
                +getTime()
            }
        }

        package store {
            class ArrivalSNSUserStore {
                +createArrivalSNSUser(auDto)
                +validateArrivalSNSUser(au)
                +checkDuplicates(au)
                +saveArrivalSNSUser(au)
                -addArrivalSNSUser(au)
            }

            class SNSUserStore {
                +getSNSUser(snsUserNumber)
            }

            class VaccinationCenterStore {
                +getVaccinationCenterStore(vcId)
            }

            class ScheduleVaccineStore {
                +getVaccinationScheduleListSNSUser(su, vc)
            }
        }
    }

    package mapper {
        class ArrivalSNSUserMapper {
            +toModel(auDTO)
        }

        class ScheduleVaccineMapper {
            +toListDTO(listSV)
        }
    }

    package dto {
        class ArrivalSNSUserDTO {
            -snsUser
            -arrivalDate
            -arrivalTime
            -vaccinationCenter
            -waitingRoom
            +ArrivalSNSUserDTO(snsUser, arrivalDate, arrivalTime, vaccinationCenter)
            +getSnsUser()
            +getArrivalDate()
            +getArrivalTime()
            +getVaccinationCenter()
        }

        class ScheduleVaccineDTO {
            -snsUser
            -vaccinationCenter
            -date
            -time
            -vaccineType
            +ScheduleVaccineDTO(date, time)
        }
    }

    package controller {
        class RegisterArrivalSNSUserController {
            +createArrivalSNSUser()
            +saveArrivalSNSUser()
            +createSNSUser(snsUserNumber)
            +getListSNSUserVaccinationSchedule()
        }
    }
}

package ui {
    class RegisterArrivalSNSUserUI {
    }
}

ArrivalSNSUser o- - SNSUser
ArrivalSNSUser o- - Date
ArrivalSNSUser o- - Time
ArrivalSNSUser o- - VaccinationCenter

ScheduleVaccine o- - SNSUser
ScheduleVaccine o- - Date
ScheduleVaccine o- - Time
ScheduleVaccine o- - VaccinationCenter

ui ..> controller

controller ..> domain
controller ..> dto
controller ..> mapper

mapper ..> domain
mapper ..> dto

domain ..> dto

Company "1" - - "1" store : uses >

@enduml

PlantUML version 1.2022.4(Sat Apr 09 14:29:17 BST 2022)
(GPL source distribution)
Java Runtime: OpenJDK Runtime Environment
JVM: OpenJDK 64-Bit Server VM
Default Encoding: Cp1252
Language: pt
Country: PT
--></g></svg>