<?xml version="1.0" encoding="UTF-8" standalone="no"?><svg xmlns="http://www.w3.org/2000/svg" xmlns:xlink="http://www.w3.org/1999/xlink" contentStyleType="text/css" height="341.6px" preserveAspectRatio="none" style="width:369px;height:341px;background:#FFFFFF;" version="1.1" viewBox="0 0 369 341" width="369.6px" zoomAndPan="magnify"><defs/><g><rect fill="#FFFFFF" height="187.85" style="stroke:#181818;stroke-width:0.8000000000000002;" width="8" x="33.6" y="74.0875"/><rect fill="#FFFFFF" height="24.2813" style="stroke:#181818;stroke-width:0.8000000000000002;" width="8" x="335.2" y="91.9688"/><rect fill="#FFFFFF" height="24.2813" style="stroke:#181818;stroke-width:0.8000000000000002;" width="8" x="335.2" y="140.5313"/><rect fill="#FFFFFF" height="24.2813" style="stroke:#181818;stroke-width:0.8000000000000002;" width="8" x="335.2" y="189.0938"/><rect fill="#FFFFFF" height="24.2813" style="stroke:#181818;stroke-width:0.8000000000000002;" width="8" x="335.2" y="237.6563"/><line style="stroke:#181818;stroke-width:0.4000000000000001;stroke-dasharray:5.0,5.0;" x1="37.6" x2="37.6" y1="66.0875" y2="276.3375"/><line style="stroke:#181818;stroke-width:0.4000000000000001;stroke-dasharray:5.0,5.0;" x1="339.2" x2="339.2" y1="66.0875" y2="276.3375"/><text fill="#000000" font-family="sans-serif" font-size="11.2" lengthAdjust="spacing" textLength="62.4" x="4" y="63.6266">Receptionist</text><ellipse cx="37.6" cy="10.8" fill="#E2E2F0" rx="6.4" ry="6.4" style="stroke:#181818;stroke-width:0.4000000000000001;"/><path d="M37.6,17.2 L37.6,38.8 M27.2,23.6 L48,23.6 M37.6,38.8 L27.2,50.8 M37.6,38.8 L48,50.8 " fill="none" style="stroke:#181818;stroke-width:0.4000000000000001;"/><text fill="#000000" font-family="sans-serif" font-size="11.2" lengthAdjust="spacing" textLength="62.4" x="4" y="287.1641">Receptionist</text><ellipse cx="37.6" cy="296.425" fill="#E2E2F0" rx="6.4" ry="6.4" style="stroke:#181818;stroke-width:0.4000000000000001;"/><path d="M37.6,302.825 L37.6,324.425 M27.2,309.225 L48,309.225 M37.6,324.425 L27.2,336.425 M37.6,324.425 L48,336.425 " fill="none" style="stroke:#181818;stroke-width:0.4000000000000001;"/><rect fill="#E2E2F0" height="25.2875" rx="2" ry="2" style="stroke:#181818;stroke-width:0.4000000000000001;" width="51.2" x="313.6" y="40"/><text fill="#000000" font-family="sans-serif" font-size="11.2" lengthAdjust="spacing" textLength="40" x="319.2" y="57.2266">:System</text><rect fill="#E2E2F0" height="25.2875" rx="2" ry="2" style="stroke:#181818;stroke-width:0.4000000000000001;" width="51.2" x="313.6" y="275.5375"/><text fill="#000000" font-family="sans-serif" font-size="11.2" lengthAdjust="spacing" textLength="40" x="319.2" y="292.7641">:System</text><rect fill="#FFFFFF" height="187.85" style="stroke:#181818;stroke-width:0.8000000000000002;" width="8" x="33.6" y="74.0875"/><rect fill="#FFFFFF" height="24.2813" style="stroke:#181818;stroke-width:0.8000000000000002;" width="8" x="335.2" y="91.9688"/><rect fill="#FFFFFF" height="24.2813" style="stroke:#181818;stroke-width:0.8000000000000002;" width="8" x="335.2" y="140.5313"/><rect fill="#FFFFFF" height="24.2813" style="stroke:#181818;stroke-width:0.8000000000000002;" width="8" x="335.2" y="189.0938"/><rect fill="#FFFFFF" height="24.2813" style="stroke:#181818;stroke-width:0.8000000000000002;" width="8" x="335.2" y="237.6563"/><polygon fill="#181818" points="325.6,88.7688,333.6,91.9688,325.6,95.1688,328.8,91.9688" style="stroke:#181818;stroke-width:0.8000000000000002;"/><line style="stroke:#181818;stroke-width:0.8000000000000002;" x1="41.6" x2="330.4" y1="91.9688" y2="91.9688"/><text fill="#000000" font-family="sans-serif" font-size="10.4" font-weight="bold" lengthAdjust="spacing" textLength="5.6" x="47.2" y="88.0836">1</text><text fill="#000000" font-family="sans-serif" font-size="10.4" lengthAdjust="spacing" textLength="269.6" x="56" y="88.0836">starts register the arrival of a SNS user to take the vaccine</text><polygon fill="#181818" points="50.4,113.05,42.4,116.25,50.4,119.45,47.2,116.25" style="stroke:#181818;stroke-width:0.8000000000000002;"/><line style="stroke:#181818;stroke-width:0.8000000000000002;stroke-dasharray:2.0,2.0;" x1="45.6" x2="338.4" y1="116.25" y2="116.25"/><text fill="#000000" font-family="sans-serif" font-size="10.4" font-weight="bold" lengthAdjust="spacing" textLength="5.6" x="55.2" y="112.3648">2</text><text fill="#000000" font-family="sans-serif" font-size="10.4" lengthAdjust="spacing" textLength="216.8" x="64" y="112.3648">requests data for the arrival (SNS user number)</text><polygon fill="#181818" points="325.6,137.3313,333.6,140.5313,325.6,143.7313,328.8,140.5313" style="stroke:#181818;stroke-width:0.8000000000000002;"/><line style="stroke:#181818;stroke-width:0.8000000000000002;" x1="41.6" x2="330.4" y1="140.5313" y2="140.5313"/><text fill="#000000" font-family="sans-serif" font-size="10.4" font-weight="bold" lengthAdjust="spacing" textLength="5.6" x="47.2" y="136.6461">3</text><text fill="#000000" font-family="sans-serif" font-size="10.4" lengthAdjust="spacing" textLength="97.6" x="56" y="136.6461">types requested data</text><polygon fill="#181818" points="50.4,161.6125,42.4,164.8125,50.4,168.0125,47.2,164.8125" style="stroke:#181818;stroke-width:0.8000000000000002;"/><line style="stroke:#181818;stroke-width:0.8000000000000002;stroke-dasharray:2.0,2.0;" x1="45.6" x2="338.4" y1="164.8125" y2="164.8125"/><text fill="#000000" font-family="sans-serif" font-size="10.4" font-weight="bold" lengthAdjust="spacing" textLength="5.6" x="55.2" y="160.9273">4</text><text fill="#000000" font-family="sans-serif" font-size="10.4" lengthAdjust="spacing" textLength="234.4" x="64" y="160.9273">shows list of vaccines scheduled for that SNS user</text><polygon fill="#181818" points="325.6,185.8938,333.6,189.0938,325.6,192.2938,328.8,189.0938" style="stroke:#181818;stroke-width:0.8000000000000002;"/><line style="stroke:#181818;stroke-width:0.8000000000000002;" x1="41.6" x2="330.4" y1="189.0938" y2="189.0938"/><text fill="#000000" font-family="sans-serif" font-size="10.4" font-weight="bold" lengthAdjust="spacing" textLength="5.6" x="47.2" y="185.2086">5</text><text fill="#000000" font-family="sans-serif" font-size="10.4" lengthAdjust="spacing" textLength="155.2" x="56" y="185.2086">accept the arrival of the SNS user</text><polygon fill="#181818" points="50.4,210.175,42.4,213.375,50.4,216.575,47.2,213.375" style="stroke:#181818;stroke-width:0.8000000000000002;"/><line style="stroke:#181818;stroke-width:0.8000000000000002;stroke-dasharray:2.0,2.0;" x1="45.6" x2="338.4" y1="213.375" y2="213.375"/><text fill="#000000" font-family="sans-serif" font-size="10.4" font-weight="bold" lengthAdjust="spacing" textLength="5.6" x="55.2" y="209.4898">6</text><text fill="#000000" font-family="sans-serif" font-size="10.4" lengthAdjust="spacing" textLength="188.8" x="64" y="209.4898">shows all data and requests confirmation</text><polygon fill="#181818" points="325.6,234.4563,333.6,237.6563,325.6,240.8563,328.8,237.6563" style="stroke:#181818;stroke-width:0.8000000000000002;"/><line style="stroke:#181818;stroke-width:0.8000000000000002;" x1="41.6" x2="330.4" y1="237.6563" y2="237.6563"/><text fill="#000000" font-family="sans-serif" font-size="10.4" font-weight="bold" lengthAdjust="spacing" textLength="5.6" x="47.2" y="233.7711">7</text><text fill="#000000" font-family="sans-serif" font-size="10.4" lengthAdjust="spacing" textLength="210.4" x="56" y="233.7711">confirms the user is ready to take the vaccine</text><polygon fill="#181818" points="46.4,258.7375,38.4,261.9375,46.4,265.1375,43.2,261.9375" style="stroke:#181818;stroke-width:0.8000000000000002;"/><line style="stroke:#181818;stroke-width:0.8000000000000002;stroke-dasharray:2.0,2.0;" x1="41.6" x2="338.4" y1="261.9375" y2="261.9375"/><text fill="#000000" font-family="sans-serif" font-size="10.4" font-weight="bold" lengthAdjust="spacing" textLength="5.6" x="51.2" y="258.0523">8</text><text fill="#000000" font-family="sans-serif" font-size="10.4" lengthAdjust="spacing" textLength="121.6" x="60" y="258.0523">informs operation success</text><!--MD5=[26fde057d5433a372476d9e12662e64a]
@startuml
autonumber
actor "Receptionist" as receptionist

activate receptionist
receptionist -> ":System" : starts register the arrival of a SNS user to take the vaccine
activate ":System"
":System" - -> receptionist : requests data for the arrival (SNS user number)
deactivate ":System"
receptionist -> ":System" : types requested data
activate ":System"
":System" - -> receptionist : shows list of vaccines scheduled for that SNS user
deactivate ":System"
receptionist -> ":System" : accept the arrival of the SNS user
activate ":System"
":System" - -> receptionist : shows all data and requests confirmation
deactivate ":System"
receptionist -> ":System" : confirms the user is ready to take the vaccine
activate ":System"
":System" - -> receptionist : informs operation success
deactivate ":System"

deactivate receptionist

@enduml

PlantUML version 1.2022.4(Sat Apr 09 14:29:17 BST 2022)
(GPL source distribution)
Java Runtime: OpenJDK Runtime Environment
JVM: OpenJDK 64-Bit Server VM
Default Encoding: Cp1252
Language: pt
Country: PT
--></g></svg>