<?xml version="1.0" encoding="UTF-8" standalone="no"?><svg xmlns="http://www.w3.org/2000/svg" xmlns:xlink="http://www.w3.org/1999/xlink" contentStyleType="text/css" height="304px" preserveAspectRatio="none" style="width:1000px;height:304px;background:#FFFFFF;" version="1.1" viewBox="0 0 1000 304" width="1000px" zoomAndPan="magnify"><defs/><g><!--MD5=[02e4b9b7573f1156f41e60aa5b4e25a4]
class Company--><g id="elem_Company"><rect codeLine="5" fill="#F1F1F1" height="57.6094" id="Company" rx="2.5" ry="2.5" style="stroke:#181818;stroke-width:0.5;" width="92" x="632" y="8.5"/><ellipse cx="647" cy="24.5" fill="#ADD1B2" rx="11" ry="11" style="stroke:#181818;stroke-width:1.0;"/><path d="M649,21 Q649.2031,20.5 649.4375,20.25 Q649.6719,20 649.9375,20 Q650.4063,20 650.7031,20.2813 Q651,20.5625 651,21.2188 L651,22.7813 Q651,23.4375 650.7188,23.7188 Q650.4375,24 650,24 Q649.6094,24 649.3594,23.8281 Q649.1094,23.6563 649,23.2031 Q648.9531,22.8906 648.7813,22.7188 Q648.4688,22.3906 647.9063,22.2031 Q647.3438,22 646.7813,22 Q646.0781,22 645.4844,22.2813 Q644.9063,22.5625 644.4531,23.1875 Q644,23.8125 644,24.6719 L644,25.5938 Q644,26.625 644.8438,27.3125 Q645.6875,28 647.1875,28 Q648.0781,28 648.7031,27.7969 Q649.0625,27.6875 649.4688,27.3281 Q649.7344,27.125 649.875,27.0625 Q650.0156,27 650.1875,27 Q650.5156,27 650.75,27.2656 Q651,27.5156 651,27.875 Q651,28.2188 650.6563,28.625 Q650.1563,29.2188 649.3594,29.5469 Q648.3125,30 647.0313,30 Q645.5313,30 644.3281,29.4063 Q643.3594,28.9375 642.6719,27.9219 Q642,26.9063 642,25.7031 L642,24.6094 Q642,23.3594 642.5938,22.2656 Q643.2031,21.1719 644.25,20.5938 Q645.3125,20 646.5,20 Q647.2188,20 647.8438,20.25 Q648.4688,20.5 649,21 Z " fill="#000000"/><text fill="#000000" font-family="sans-serif" font-size="14" lengthAdjust="spacing" textLength="60" x="661" y="30.2285">Company</text><line style="stroke:#181818;stroke-width:0.5;" x1="633" x2="723" y1="40.5" y2="40.5"/><text fill="#000000" font-family="sans-serif" font-size="14" lengthAdjust="spacing" textLength="78" x="638" y="59.0332">-designation</text></g><!--MD5=[72be06cc7ae02ccc98efe28a50e62246]
class SNSUser--><g id="elem_SNSUser"><rect codeLine="9" fill="#F1F1F1" height="163.2656" id="SNSUser" rx="2.5" ry="2.5" style="stroke:#181818;stroke-width:0.5;" width="136" x="857" y="7"/><ellipse cx="893.6" cy="23" fill="#ADD1B2" rx="11" ry="11" style="stroke:#181818;stroke-width:1.0;"/><path d="M895.6,19.5 Q895.8031,19 896.0375,18.75 Q896.2719,18.5 896.5375,18.5 Q897.0063,18.5 897.3031,18.7813 Q897.6,19.0625 897.6,19.7188 L897.6,21.2813 Q897.6,21.9375 897.3188,22.2188 Q897.0375,22.5 896.6,22.5 Q896.2094,22.5 895.9594,22.3281 Q895.7094,22.1563 895.6,21.7031 Q895.5531,21.3906 895.3813,21.2188 Q895.0688,20.8906 894.5063,20.7031 Q893.9438,20.5 893.3813,20.5 Q892.6781,20.5 892.0844,20.7813 Q891.5063,21.0625 891.0531,21.6875 Q890.6,22.3125 890.6,23.1719 L890.6,24.0938 Q890.6,25.125 891.4438,25.8125 Q892.2875,26.5 893.7875,26.5 Q894.6781,26.5 895.3031,26.2969 Q895.6625,26.1875 896.0688,25.8281 Q896.3344,25.625 896.475,25.5625 Q896.6156,25.5 896.7875,25.5 Q897.1156,25.5 897.35,25.7656 Q897.6,26.0156 897.6,26.375 Q897.6,26.7188 897.2563,27.125 Q896.7563,27.7188 895.9594,28.0469 Q894.9125,28.5 893.6313,28.5 Q892.1313,28.5 890.9281,27.9063 Q889.9594,27.4375 889.2719,26.4219 Q888.6,25.4063 888.6,24.2031 L888.6,23.1094 Q888.6,21.8594 889.1938,20.7656 Q889.8031,19.6719 890.85,19.0938 Q891.9125,18.5 893.1,18.5 Q893.8188,18.5 894.4438,18.75 Q895.0688,19 895.6,19.5 Z " fill="#000000"/><text fill="#000000" font-family="sans-serif" font-size="14" lengthAdjust="spacing" textLength="56" x="912.4" y="28.7285">SNSUser</text><line style="stroke:#181818;stroke-width:0.5;" x1="858" x2="992" y1="39" y2="39"/><text fill="#000000" font-family="sans-serif" font-size="14" lengthAdjust="spacing" textLength="40" x="863" y="57.5332">-name</text><text fill="#000000" font-family="sans-serif" font-size="14" lengthAdjust="spacing" textLength="26" x="863" y="75.1426">-sex</text><text fill="#000000" font-family="sans-serif" font-size="14" lengthAdjust="spacing" textLength="94" x="863" y="92.752">-phoneNumber</text><text fill="#000000" font-family="sans-serif" font-size="14" lengthAdjust="spacing" textLength="38" x="863" y="110.3613">-email</text><text fill="#000000" font-family="sans-serif" font-size="14" lengthAdjust="spacing" textLength="63" x="863" y="127.9707">-birthDate</text><text fill="#000000" font-family="sans-serif" font-size="14" lengthAdjust="spacing" textLength="81" x="863" y="145.5801">-SNSNumber</text><text fill="#000000" font-family="sans-serif" font-size="14" lengthAdjust="spacing" textLength="124" x="863" y="163.1895">-citizenCardNumber</text></g><!--MD5=[03960189e81aa2c066c762ffabbee709]
class Receptionist--><g id="elem_Receptionist"><rect codeLine="19" fill="#F1F1F1" height="40" id="Receptionist" rx="2.5" ry="2.5" style="stroke:#181818;stroke-width:0.5;" width="110" x="26" y="90.5"/><ellipse cx="41" cy="106.5" fill="#ADD1B2" rx="11" ry="11" style="stroke:#181818;stroke-width:1.0;"/><path d="M43,103 Q43.2031,102.5 43.4375,102.25 Q43.6719,102 43.9375,102 Q44.4063,102 44.7031,102.2813 Q45,102.5625 45,103.2188 L45,104.7813 Q45,105.4375 44.7188,105.7188 Q44.4375,106 44,106 Q43.6094,106 43.3594,105.8281 Q43.1094,105.6563 43,105.2031 Q42.9531,104.8906 42.7813,104.7188 Q42.4688,104.3906 41.9063,104.2031 Q41.3438,104 40.7813,104 Q40.0781,104 39.4844,104.2813 Q38.9063,104.5625 38.4531,105.1875 Q38,105.8125 38,106.6719 L38,107.5938 Q38,108.625 38.8438,109.3125 Q39.6875,110 41.1875,110 Q42.0781,110 42.7031,109.7969 Q43.0625,109.6875 43.4688,109.3281 Q43.7344,109.125 43.875,109.0625 Q44.0156,109 44.1875,109 Q44.5156,109 44.75,109.2656 Q45,109.5156 45,109.875 Q45,110.2188 44.6563,110.625 Q44.1563,111.2188 43.3594,111.5469 Q42.3125,112 41.0313,112 Q39.5313,112 38.3281,111.4063 Q37.3594,110.9375 36.6719,109.9219 Q36,108.9063 36,107.7031 L36,106.6094 Q36,105.3594 36.5938,104.2656 Q37.2031,103.1719 38.25,102.5938 Q39.3125,102 40.5,102 Q41.2188,102 41.8438,102.25 Q42.4688,102.5 43,103 Z " fill="#000000"/><text fill="#000000" font-family="sans-serif" font-size="14" lengthAdjust="spacing" textLength="78" x="55" y="112.2285">Receptionist</text><line style="stroke:#181818;stroke-width:0.5;" x1="27" x2="135" y1="122.5" y2="122.5"/></g><!--MD5=[f037a2adb9b7ded7782c970d443a81c6]
class VaccinationQueue--><g id="elem_VaccinationQueue"><rect codeLine="22" fill="#F1F1F1" height="75.2188" id="VaccinationQueue" rx="2.5" ry="2.5" style="stroke:#181818;stroke-width:0.5;" width="148" x="604" y="102"/><ellipse cx="619" cy="118" fill="#ADD1B2" rx="11" ry="11" style="stroke:#181818;stroke-width:1.0;"/><path d="M621,114.5 Q621.2031,114 621.4375,113.75 Q621.6719,113.5 621.9375,113.5 Q622.4063,113.5 622.7031,113.7813 Q623,114.0625 623,114.7188 L623,116.2813 Q623,116.9375 622.7188,117.2188 Q622.4375,117.5 622,117.5 Q621.6094,117.5 621.3594,117.3281 Q621.1094,117.1563 621,116.7031 Q620.9531,116.3906 620.7813,116.2188 Q620.4688,115.8906 619.9063,115.7031 Q619.3438,115.5 618.7813,115.5 Q618.0781,115.5 617.4844,115.7813 Q616.9063,116.0625 616.4531,116.6875 Q616,117.3125 616,118.1719 L616,119.0938 Q616,120.125 616.8438,120.8125 Q617.6875,121.5 619.1875,121.5 Q620.0781,121.5 620.7031,121.2969 Q621.0625,121.1875 621.4688,120.8281 Q621.7344,120.625 621.875,120.5625 Q622.0156,120.5 622.1875,120.5 Q622.5156,120.5 622.75,120.7656 Q623,121.0156 623,121.375 Q623,121.7188 622.6563,122.125 Q622.1563,122.7188 621.3594,123.0469 Q620.3125,123.5 619.0313,123.5 Q617.5313,123.5 616.3281,122.9063 Q615.3594,122.4375 614.6719,121.4219 Q614,120.4063 614,119.2031 L614,118.1094 Q614,116.8594 614.5938,115.7656 Q615.2031,114.6719 616.25,114.0938 Q617.3125,113.5 618.5,113.5 Q619.2188,113.5 619.8438,113.75 Q620.4688,114 621,114.5 Z " fill="#000000"/><text fill="#000000" font-family="sans-serif" font-size="14" lengthAdjust="spacing" textLength="116" x="633" y="123.7285">VaccinationQueue</text><line style="stroke:#181818;stroke-width:0.5;" x1="605" x2="751" y1="134" y2="134"/><text fill="#000000" font-family="sans-serif" font-size="14" lengthAdjust="spacing" textLength="33" x="610" y="152.5332">-date</text><text fill="#000000" font-family="sans-serif" font-size="14" lengthAdjust="spacing" textLength="31" x="610" y="170.1426">-time</text></g><!--MD5=[56872536300a053cf9fd13853ad6ab1e]
class CommunityMassVaccinationCenter--><g id="elem_CommunityMassVaccinationCenter"><rect codeLine="27" fill="#F1F1F1" height="163.2656" id="CommunityMassVaccinationCenter" rx="2.5" ry="2.5" style="stroke:#181818;stroke-width:0.5;" width="251" x="257" y="134"/><ellipse cx="272" cy="150" fill="#ADD1B2" rx="11" ry="11" style="stroke:#181818;stroke-width:1.0;"/><path d="M274,146.5 Q274.2031,146 274.4375,145.75 Q274.6719,145.5 274.9375,145.5 Q275.4063,145.5 275.7031,145.7813 Q276,146.0625 276,146.7188 L276,148.2813 Q276,148.9375 275.7188,149.2188 Q275.4375,149.5 275,149.5 Q274.6094,149.5 274.3594,149.3281 Q274.1094,149.1563 274,148.7031 Q273.9531,148.3906 273.7813,148.2188 Q273.4688,147.8906 272.9063,147.7031 Q272.3438,147.5 271.7813,147.5 Q271.0781,147.5 270.4844,147.7813 Q269.9063,148.0625 269.4531,148.6875 Q269,149.3125 269,150.1719 L269,151.0938 Q269,152.125 269.8438,152.8125 Q270.6875,153.5 272.1875,153.5 Q273.0781,153.5 273.7031,153.2969 Q274.0625,153.1875 274.4688,152.8281 Q274.7344,152.625 274.875,152.5625 Q275.0156,152.5 275.1875,152.5 Q275.5156,152.5 275.75,152.7656 Q276,153.0156 276,153.375 Q276,153.7188 275.6563,154.125 Q275.1563,154.7188 274.3594,155.0469 Q273.3125,155.5 272.0313,155.5 Q270.5313,155.5 269.3281,154.9063 Q268.3594,154.4375 267.6719,153.4219 Q267,152.4063 267,151.2031 L267,150.1094 Q267,148.8594 267.5938,147.7656 Q268.2031,146.6719 269.25,146.0938 Q270.3125,145.5 271.5,145.5 Q272.2188,145.5 272.8438,145.75 Q273.4688,146 274,146.5 Z " fill="#000000"/><text fill="#000000" font-family="sans-serif" font-size="14" lengthAdjust="spacing" textLength="219" x="286" y="155.7285">CommunityMassVaccinationCenter</text><line style="stroke:#181818;stroke-width:0.5;" x1="258" x2="507" y1="166" y2="166"/><text fill="#000000" font-family="sans-serif" font-size="14" lengthAdjust="spacing" textLength="40" x="263" y="184.5332">-name</text><text fill="#000000" font-family="sans-serif" font-size="14" lengthAdjust="spacing" textLength="94" x="263" y="202.1426">-phoneNumber</text><text fill="#000000" font-family="sans-serif" font-size="14" lengthAdjust="spacing" textLength="38" x="263" y="219.752">-email</text><text fill="#000000" font-family="sans-serif" font-size="14" lengthAdjust="spacing" textLength="72" x="263" y="237.3613">-faxNumber</text><text fill="#000000" font-family="sans-serif" font-size="14" lengthAdjust="spacing" textLength="52" x="263" y="254.9707">-website</text><text fill="#000000" font-family="sans-serif" font-size="14" lengthAdjust="spacing" textLength="81" x="263" y="272.5801">-slotDuration</text><text fill="#000000" font-family="sans-serif" font-size="14" lengthAdjust="spacing" textLength="106" x="263" y="290.1895">-slotVaccineLimit</text></g><!--MD5=[de60e6d4f424ae4d0522096f76a59010]
class VaccinationCenter--><g id="elem_VaccinationCenter"><rect codeLine="37" fill="#F1F1F1" height="40" id="VaccinationCenter" rx="2.5" ry="2.5" style="stroke:#181818;stroke-width:0.5;" width="148" x="7" y="195.5"/><ellipse cx="22" cy="211.5" fill="#ADD1B2" rx="11" ry="11" style="stroke:#181818;stroke-width:1.0;"/><path d="M24,208 Q24.2031,207.5 24.4375,207.25 Q24.6719,207 24.9375,207 Q25.4063,207 25.7031,207.2813 Q26,207.5625 26,208.2188 L26,209.7813 Q26,210.4375 25.7188,210.7188 Q25.4375,211 25,211 Q24.6094,211 24.3594,210.8281 Q24.1094,210.6563 24,210.2031 Q23.9531,209.8906 23.7813,209.7188 Q23.4688,209.3906 22.9063,209.2031 Q22.3438,209 21.7813,209 Q21.0781,209 20.4844,209.2813 Q19.9063,209.5625 19.4531,210.1875 Q19,210.8125 19,211.6719 L19,212.5938 Q19,213.625 19.8438,214.3125 Q20.6875,215 22.1875,215 Q23.0781,215 23.7031,214.7969 Q24.0625,214.6875 24.4688,214.3281 Q24.7344,214.125 24.875,214.0625 Q25.0156,214 25.1875,214 Q25.5156,214 25.75,214.2656 Q26,214.5156 26,214.875 Q26,215.2188 25.6563,215.625 Q25.1563,216.2188 24.3594,216.5469 Q23.3125,217 22.0313,217 Q20.5313,217 19.3281,216.4063 Q18.3594,215.9375 17.6719,214.9219 Q17,213.9063 17,212.7031 L17,211.6094 Q17,210.3594 17.5938,209.2656 Q18.2031,208.1719 19.25,207.5938 Q20.3125,207 21.5,207 Q22.2188,207 22.8438,207.25 Q23.4688,207.5 24,208 Z " fill="#000000"/><text fill="#000000" font-family="sans-serif" font-size="14" lengthAdjust="spacing" textLength="116" x="36" y="217.2285">VaccinationCenter</text><line style="stroke:#181818;stroke-width:0.5;" x1="8" x2="154" y1="227.5" y2="227.5"/></g><!--MD5=[3f29a51da9f639eee0a312cae15defb1]
link CommunityMassVaccinationCenter to VaccinationQueue--><g id="link_CommunityMassVaccinationCenter_VaccinationQueue"><path codeLine="40" d="M508.4,183.16 C540.85,174.76 574.76,165.97 603.59,158.51 " fill="none" id="CommunityMassVaccinationCenter-VaccinationQueue" style="stroke:#181818;stroke-width:1.0;"/><polygon fill="#000000" points="547.8403,155.4223,538.3473,154.8447,539.8208,160.5349,547.8403,155.4223" style="stroke:#000000;stroke-width:1.0;"/><text fill="#000000" font-family="sans-serif" font-size="13" lengthAdjust="spacing" textLength="21" x="552" y="161.9951">has</text><text fill="#000000" font-family="sans-serif" font-size="13" lengthAdjust="spacing" textLength="7" x="515.8809" y="195.2504">1</text><text fill="#000000" font-family="sans-serif" font-size="13" lengthAdjust="spacing" textLength="7" x="588.9207" y="174.6705">1</text></g><!--MD5=[1a8aa2b864b87f860d28abceaa28b7a5]
link Company to SNSUser--><g id="link_Company_SNSUser"><path codeLine="42" d="M724.22,46.91 C761.42,54.66 814.67,65.74 856.85,74.52 " fill="none" id="Company-SNSUser" style="stroke:#181818;stroke-width:1.0;"/><polygon fill="#000000" points="791.8951,52.6948,783.6388,47.9741,782.4408,53.7286,791.8951,52.6948" style="stroke:#000000;stroke-width:1.0;"/><text fill="#000000" font-family="sans-serif" font-size="13" lengthAdjust="spacing" textLength="30" x="796" y="56.9951">owns</text><text fill="#000000" font-family="sans-serif" font-size="13" lengthAdjust="spacing" textLength="7" x="732.1441" y="63.239">1</text><text fill="#000000" font-family="sans-serif" font-size="13" lengthAdjust="spacing" textLength="5" x="844.1227" y="87.3658">*</text></g><!--MD5=[a107f497ebdb6fa60e16f0035ef62d40]
link Receptionist to VaccinationQueue--><g id="link_Receptionist_VaccinationQueue"><path codeLine="44" d="M136.23,109.17 C217.26,107.65 374.68,106.53 508,116.5 C539.45,118.85 573.98,123.23 603.58,127.54 " fill="none" id="Receptionist-VaccinationQueue" style="stroke:#181818;stroke-width:1.0;"/><polygon fill="#000000" points="361.9961,99.8722,353.0735,96.5802,352.8426,102.4536,361.9961,99.8722" style="stroke:#000000;stroke-width:1.0;"/><text fill="#000000" font-family="sans-serif" font-size="13" lengthAdjust="spacing" textLength="46" x="366" y="104.9951">manage</text><text fill="#000000" font-family="sans-serif" font-size="13" lengthAdjust="spacing" textLength="7" x="144.1218" y="123.585">1</text><text fill="#000000" font-family="sans-serif" font-size="13" lengthAdjust="spacing" textLength="7" x="588.9098" y="140.6518">1</text></g><!--MD5=[e891864ca8a226c4e0c61b8ea8caa18b]
link Receptionist to CommunityMassVaccinationCenter--><g id="link_Receptionist_CommunityMassVaccinationCenter"><path codeLine="45" d="M136.24,129.51 C169.95,141.33 214.75,157.04 256.83,171.79 " fill="none" id="Receptionist-CommunityMassVaccinationCenter" style="stroke:#181818;stroke-width:1.0;"/><polygon fill="#000000" points="194.7184,140.3301,187.1551,134.564,185.2104,140.1108,194.7184,140.3301" style="stroke:#000000;stroke-width:1.0;"/><text fill="#000000" font-family="sans-serif" font-size="13" lengthAdjust="spacing" textLength="27" x="199" y="143.9951">work</text><text fill="#000000" font-family="sans-serif" font-size="13" lengthAdjust="spacing" textLength="7" x="143.7919" y="150.6511">1</text><text fill="#000000" font-family="sans-serif" font-size="13" lengthAdjust="spacing" textLength="5" x="244.0196" y="183.1117">*</text></g><!--MD5=[96c98fd8ea72b99bcaa2e061adb16a51]
link VaccinationCenter to CommunityMassVaccinationCenter--><g id="link_VaccinationCenter_CommunityMassVaccinationCenter"><path codeLine="47" d="M155.27,215.5 C179.86,215.5 208.22,215.5 236.36,215.5 " fill="none" id="VaccinationCenter-to-CommunityMassVaccinationCenter" style="stroke:#181818;stroke-width:1.0;"/><polygon fill="none" points="236.76,208.5,256.76,215.5,236.76,222.5,236.76,208.5" style="stroke:#181818;stroke-width:1.0;"/></g><!--MD5=[d9b21ddca7c4cced7d721379358d0d7a]
link VaccinationQueue to SNSUser--><g id="link_VaccinationQueue_SNSUser"><path codeLine="49" d="M752.18,124.27 C785.31,117.37 824.23,109.27 856.64,102.52 " fill="none" id="VaccinationQueue-SNSUser" style="stroke:#181818;stroke-width:1.0;"/><polygon fill="#000000" points="793.895,99.6566,784.4408,98.6231,785.6389,104.3776,793.895,99.6566" style="stroke:#000000;stroke-width:1.0;"/><text fill="#000000" font-family="sans-serif" font-size="13" lengthAdjust="spacing" textLength="26" x="798" y="105.9951">have</text><text fill="#000000" font-family="sans-serif" font-size="13" lengthAdjust="spacing" textLength="7" x="760.1908" y="137.0264">1</text><text fill="#000000" font-family="sans-serif" font-size="13" lengthAdjust="spacing" textLength="5" x="843.8897" y="118.4283">*</text></g><!--MD5=[b89576f528e729de854d63ec33c043af]
@startuml
hide methods
left to right direction
skinparam classAttributeIconSize 0

class Company {
    -designation
}

class SNSUser {
    -name
    -sex
    -phoneNumber
    -email
    -birthDate
    -SNSNumber
    -citizenCardNumber
}

class Receptionist {
}

class VaccinationQueue {
    -date
    -time
}

class CommunityMassVaccinationCenter {
    -name
    -phoneNumber
    -email
    -faxNumber
    -website
    -slotDuration
    -slotVaccineLimit
}

class VaccinationCenter {
}

CommunityMassVaccinationCenter "1" - - "1" VaccinationQueue : has >

Company "1" - - "*" SNSUser : owns >

Receptionist "1" - - "1" VaccinationQueue : manage >
Receptionist "1"- - "*" CommunityMassVaccinationCenter : work >

VaccinationCenter - -|> CommunityMassVaccinationCenter

VaccinationQueue "1" - - "*" SNSUser : have >

@enduml

PlantUML version 1.2022.4(Sat Apr 09 14:29:17 BST 2022)
(GPL source distribution)
Java Runtime: OpenJDK Runtime Environment
JVM: OpenJDK 64-Bit Server VM
Default Encoding: Cp1252
Language: pt
Country: PT
--></g></svg>