<?xml version="1.0" encoding="UTF-8" standalone="no"?><svg xmlns="http://www.w3.org/2000/svg" xmlns:xlink="http://www.w3.org/1999/xlink" contentStyleType="text/css" height="983px" preserveAspectRatio="none" style="width:2459px;height:983px;background:#FFFFFF;" version="1.1" viewBox="0 0 2459 983" width="2459px" zoomAndPan="magnify"><defs/><g><rect fill="#FFFFFF" height="790.8438" style="stroke:#181818;stroke-width:1.0;" width="10" x="64" y="92.6094"/><rect fill="#FFFFFF" height="30.3516" style="stroke:#181818;stroke-width:1.0;" width="10" x="382" y="114.9609"/><rect fill="#FFFFFF" height="30.3516" style="stroke:#181818;stroke-width:1.0;" width="10" x="382" y="175.6641"/><rect fill="#FFFFFF" height="647.0859" style="stroke:#181818;stroke-width:1.0;" width="10" x="382" y="236.3672"/><rect fill="#FFFFFF" height="362.1094" style="stroke:#181818;stroke-width:1.0;" width="10" x="769" y="327.0703"/><rect fill="#FFFFFF" height="30" style="stroke:#181818;stroke-width:1.0;" width="10" x="1176" y="357.4219"/><rect fill="#FFFFFF" height="30" style="stroke:#181818;stroke-width:1.0;" width="10" x="1176" y="478.125"/><rect fill="#FFFFFF" height="30" style="stroke:#181818;stroke-width:1.0;" width="10" x="1176" y="598.8281"/><rect fill="#FFFFFF" height="30" style="stroke:#181818;stroke-width:1.0;" width="10" x="1299.5" y="266.7188"/><rect fill="#FFFFFF" height="116.5703" style="stroke:#181818;stroke-width:1.0;" width="10" x="1454" y="729.5313"/><rect fill="#FFFFFF" height="66.3516" style="stroke:#181818;stroke-width:1.0;" width="10" x="1790" y="779.75"/><rect fill="#FFFFFF" height="28" style="stroke:#181818;stroke-width:1.0;" width="10" x="1795" y="818.1016"/><rect fill="#FFFFFF" height="30" style="stroke:#181818;stroke-width:1.0;" width="10" x="2121" y="659.1797"/><rect fill="#FFFFFF" height="30" style="stroke:#181818;stroke-width:1.0;" width="10" x="2281" y="417.7734"/><rect fill="#FFFFFF" height="30" style="stroke:#181818;stroke-width:1.0;" width="10" x="2396.5" y="538.4766"/><line style="stroke:#181818;stroke-width:0.5;stroke-dasharray:5.0,5.0;" x1="69" x2="69" y1="82.6094" y2="901.4531"/><line style="stroke:#181818;stroke-width:0.5;stroke-dasharray:5.0,5.0;" x1="386.5" x2="386.5" y1="82.6094" y2="901.4531"/><line style="stroke:#181818;stroke-width:0.5;stroke-dasharray:5.0,5.0;" x1="773.5" x2="773.5" y1="82.6094" y2="901.4531"/><line style="stroke:#181818;stroke-width:0.5;stroke-dasharray:5.0,5.0;" x1="1181" x2="1181" y1="82.6094" y2="901.4531"/><line style="stroke:#181818;stroke-width:0.5;stroke-dasharray:5.0,5.0;" x1="1304" x2="1304" y1="82.6094" y2="901.4531"/><line style="stroke:#181818;stroke-width:0.5;stroke-dasharray:5.0,5.0;" x1="1459" x2="1459" y1="737.2891" y2="901.4531"/><line style="stroke:#181818;stroke-width:0.5;stroke-dasharray:5.0,5.0;" x1="1794.5" x2="1794.5" y1="82.6094" y2="901.4531"/><line style="stroke:#181818;stroke-width:0.5;stroke-dasharray:5.0,5.0;" x1="2125.5" x2="2125.5" y1="82.6094" y2="901.4531"/><line style="stroke:#181818;stroke-width:0.5;stroke-dasharray:5.0,5.0;" x1="2285.5" x2="2285.5" y1="82.6094" y2="901.4531"/><line style="stroke:#181818;stroke-width:0.5;stroke-dasharray:5.0,5.0;" x1="2401.5" x2="2401.5" y1="82.6094" y2="901.4531"/><text fill="#000000" font-family="sans-serif" font-size="14" lengthAdjust="spacing" textLength="122" x="5" y="79.5332">Center Coordinator</text><ellipse cx="69" cy="13.5" fill="#E2E2F0" rx="8" ry="8" style="stroke:#181818;stroke-width:0.5;"/><path d="M69,21.5 L69,48.5 M56,29.5 L82,29.5 M69,48.5 L56,63.5 M69,48.5 L82,63.5 " fill="none" style="stroke:#181818;stroke-width:0.5;"/><text fill="#000000" font-family="sans-serif" font-size="14" lengthAdjust="spacing" textLength="122" x="5" y="914.9863">Center Coordinator</text><ellipse cx="69" cy="926.5625" fill="#E2E2F0" rx="8" ry="8" style="stroke:#181818;stroke-width:0.5;"/><path d="M69,934.5625 L69,961.5625 M56,942.5625 L82,942.5625 M69,961.5625 L56,976.5625 M69,961.5625 L82,976.5625 " fill="none" style="stroke:#181818;stroke-width:0.5;"/><rect fill="#E2E2F0" height="49.2188" rx="2.5" ry="2.5" style="stroke:#181818;stroke-width:0.5;" width="159" x="307.5" y="32.3906"/><text fill="#000000" font-family="sans-serif" font-size="14" lengthAdjust="spacing" textLength="4" x="385" y="53.9238">:</text><text fill="#000000" font-family="sans-serif" font-size="14" lengthAdjust="spacing" textLength="141" x="318.5" y="71.5332">VaccinationStatisticsUI</text><rect fill="#E2E2F0" height="49.2188" rx="2.5" ry="2.5" style="stroke:#181818;stroke-width:0.5;" width="159" x="307.5" y="900.4531"/><text fill="#000000" font-family="sans-serif" font-size="14" lengthAdjust="spacing" textLength="4" x="385" y="921.9863">:</text><text fill="#000000" font-family="sans-serif" font-size="14" lengthAdjust="spacing" textLength="141" x="318.5" y="939.5957">VaccinationStatisticsUI</text><rect fill="#E2E2F0" height="49.2188" rx="2.5" ry="2.5" style="stroke:#181818;stroke-width:0.5;" width="209" x="669.5" y="32.3906"/><text fill="#000000" font-family="sans-serif" font-size="14" lengthAdjust="spacing" textLength="4" x="772" y="53.9238">:</text><text fill="#000000" font-family="sans-serif" font-size="14" lengthAdjust="spacing" textLength="191" x="680.5" y="71.5332">VaccinationStatisticsController</text><rect fill="#E2E2F0" height="49.2188" rx="2.5" ry="2.5" style="stroke:#181818;stroke-width:0.5;" width="209" x="669.5" y="900.4531"/><text fill="#000000" font-family="sans-serif" font-size="14" lengthAdjust="spacing" textLength="4" x="772" y="921.9863">:</text><text fill="#000000" font-family="sans-serif" font-size="14" lengthAdjust="spacing" textLength="191" x="680.5" y="939.5957">VaccinationStatisticsController</text><rect fill="#E2E2F0" height="49.2188" rx="2.5" ry="2.5" style="stroke:#181818;stroke-width:0.5;" width="78" x="1142" y="32.3906"/><text fill="#000000" font-family="sans-serif" font-size="14" lengthAdjust="spacing" textLength="4" x="1179" y="53.9238">:</text><text fill="#000000" font-family="sans-serif" font-size="14" lengthAdjust="spacing" textLength="60" x="1153" y="71.5332">Company</text><rect fill="#E2E2F0" height="49.2188" rx="2.5" ry="2.5" style="stroke:#181818;stroke-width:0.5;" width="78" x="1142" y="900.4531"/><text fill="#000000" font-family="sans-serif" font-size="14" lengthAdjust="spacing" textLength="4" x="1179" y="921.9863">:</text><text fill="#000000" font-family="sans-serif" font-size="14" lengthAdjust="spacing" textLength="60" x="1153" y="939.5957">Company</text><rect fill="#E2E2F0" height="49.2188" rx="2.5" ry="2.5" style="stroke:#181818;stroke-width:0.5;" width="149" x="1230" y="32.3906"/><text fill="#000000" font-family="sans-serif" font-size="14" lengthAdjust="spacing" textLength="131" x="1237" y="53.9238">vaccinationStatistics:</text><text fill="#000000" font-family="sans-serif" font-size="14" lengthAdjust="spacing" textLength="129" x="1242" y="71.5332">VaccinationStatistics</text><rect fill="#E2E2F0" height="49.2188" rx="2.5" ry="2.5" style="stroke:#181818;stroke-width:0.5;" width="149" x="1230" y="900.4531"/><text fill="#000000" font-family="sans-serif" font-size="14" lengthAdjust="spacing" textLength="131" x="1237" y="921.9863">vaccinationStatistics:</text><text fill="#000000" font-family="sans-serif" font-size="14" lengthAdjust="spacing" textLength="129" x="1242" y="939.5957">VaccinationStatistics</text><rect fill="#E2E2F0" height="49.2188" rx="2.5" ry="2.5" style="stroke:#181818;stroke-width:0.5;" width="140" x="1389" y="900.4531"/><text fill="#000000" font-family="sans-serif" font-size="14" lengthAdjust="spacing" textLength="70" x="1422" y="921.9863">wtfHandler:</text><text fill="#000000" font-family="sans-serif" font-size="14" lengthAdjust="spacing" textLength="122" x="1400" y="939.5957">WriteToFileHandler</text><rect fill="#E2E2F0" height="49.2188" rx="2.5" ry="2.5" style="stroke:#181818;stroke-width:0.5;" width="91" x="1749.5" y="32.3906"/><text fill="#000000" font-family="sans-serif" font-size="14" lengthAdjust="spacing" textLength="21" x="1782.5" y="53.9238">wtf:</text><text fill="#000000" font-family="sans-serif" font-size="14" lengthAdjust="spacing" textLength="73" x="1760.5" y="71.5332">WriteToFile</text><rect fill="#E2E2F0" height="49.2188" rx="2.5" ry="2.5" style="stroke:#181818;stroke-width:0.5;" width="91" x="1749.5" y="900.4531"/><text fill="#000000" font-family="sans-serif" font-size="14" lengthAdjust="spacing" textLength="21" x="1782.5" y="921.9863">wtf:</text><text fill="#000000" font-family="sans-serif" font-size="14" lengthAdjust="spacing" textLength="73" x="1760.5" y="939.5957">WriteToFile</text><rect fill="#E2E2F0" height="49.2188" rx="2.5" ry="2.5" style="stroke:#181818;stroke-width:0.5;" width="193" x="2029.5" y="32.3906"/><text fill="#000000" font-family="sans-serif" font-size="14" lengthAdjust="spacing" textLength="175" x="2036.5" y="53.9238">vaccineAdministrationStore:</text><text fill="#000000" font-family="sans-serif" font-size="14" lengthAdjust="spacing" textLength="173" x="2041.5" y="71.5332">VaccineAdministrationStore</text><rect fill="#E2E2F0" height="49.2188" rx="2.5" ry="2.5" style="stroke:#181818;stroke-width:0.5;" width="193" x="2029.5" y="900.4531"/><text fill="#000000" font-family="sans-serif" font-size="14" lengthAdjust="spacing" textLength="175" x="2036.5" y="921.9863">vaccineAdministrationStore:</text><text fill="#000000" font-family="sans-serif" font-size="14" lengthAdjust="spacing" textLength="173" x="2041.5" y="939.5957">VaccineAdministrationStore</text><rect fill="#E2E2F0" height="49.2188" rx="2.5" ry="2.5" style="stroke:#181818;stroke-width:0.5;" width="107" x="2232.5" y="32.3906"/><text fill="#000000" font-family="sans-serif" font-size="14" lengthAdjust="spacing" textLength="89" x="2239.5" y="53.9238">snsUserStore:</text><text fill="#000000" font-family="sans-serif" font-size="14" lengthAdjust="spacing" textLength="87" x="2244.5" y="71.5332">SnsUserStore</text><rect fill="#E2E2F0" height="49.2188" rx="2.5" ry="2.5" style="stroke:#181818;stroke-width:0.5;" width="107" x="2232.5" y="900.4531"/><text fill="#000000" font-family="sans-serif" font-size="14" lengthAdjust="spacing" textLength="89" x="2239.5" y="921.9863">snsUserStore:</text><text fill="#000000" font-family="sans-serif" font-size="14" lengthAdjust="spacing" textLength="87" x="2244.5" y="939.5957">SnsUserStore</text><rect fill="#E2E2F0" height="49.2188" rx="2.5" ry="2.5" style="stroke:#181818;stroke-width:0.5;" width="104" x="2349.5" y="32.3906"/><text fill="#000000" font-family="sans-serif" font-size="14" lengthAdjust="spacing" textLength="86" x="2356.5" y="53.9238">vaccineStore:</text><text fill="#000000" font-family="sans-serif" font-size="14" lengthAdjust="spacing" textLength="84" x="2361.5" y="71.5332">VaccineStore</text><rect fill="#E2E2F0" height="49.2188" rx="2.5" ry="2.5" style="stroke:#181818;stroke-width:0.5;" width="104" x="2349.5" y="900.4531"/><text fill="#000000" font-family="sans-serif" font-size="14" lengthAdjust="spacing" textLength="86" x="2356.5" y="921.9863">vaccineStore:</text><text fill="#000000" font-family="sans-serif" font-size="14" lengthAdjust="spacing" textLength="84" x="2361.5" y="939.5957">VaccineStore</text><rect fill="#FFFFFF" height="790.8438" style="stroke:#181818;stroke-width:1.0;" width="10" x="64" y="92.6094"/><rect fill="#FFFFFF" height="30.3516" style="stroke:#181818;stroke-width:1.0;" width="10" x="382" y="114.9609"/><rect fill="#FFFFFF" height="30.3516" style="stroke:#181818;stroke-width:1.0;" width="10" x="382" y="175.6641"/><rect fill="#FFFFFF" height="647.0859" style="stroke:#181818;stroke-width:1.0;" width="10" x="382" y="236.3672"/><rect fill="#FFFFFF" height="362.1094" style="stroke:#181818;stroke-width:1.0;" width="10" x="769" y="327.0703"/><rect fill="#FFFFFF" height="30" style="stroke:#181818;stroke-width:1.0;" width="10" x="1176" y="357.4219"/><rect fill="#FFFFFF" height="30" style="stroke:#181818;stroke-width:1.0;" width="10" x="1176" y="478.125"/><rect fill="#FFFFFF" height="30" style="stroke:#181818;stroke-width:1.0;" width="10" x="1176" y="598.8281"/><rect fill="#FFFFFF" height="30" style="stroke:#181818;stroke-width:1.0;" width="10" x="1299.5" y="266.7188"/><rect fill="#FFFFFF" height="116.5703" style="stroke:#181818;stroke-width:1.0;" width="10" x="1454" y="729.5313"/><rect fill="#FFFFFF" height="66.3516" style="stroke:#181818;stroke-width:1.0;" width="10" x="1790" y="779.75"/><rect fill="#FFFFFF" height="28" style="stroke:#181818;stroke-width:1.0;" width="10" x="1795" y="818.1016"/><rect fill="#FFFFFF" height="30" style="stroke:#181818;stroke-width:1.0;" width="10" x="2121" y="659.1797"/><rect fill="#FFFFFF" height="30" style="stroke:#181818;stroke-width:1.0;" width="10" x="2281" y="417.7734"/><rect fill="#FFFFFF" height="30" style="stroke:#181818;stroke-width:1.0;" width="10" x="2396.5" y="538.4766"/><polygon fill="#181818" points="370,110.9609,380,114.9609,370,118.9609,374,114.9609" style="stroke:#181818;stroke-width:1.0;"/><line style="stroke:#181818;stroke-width:1.0;" x1="74" x2="376" y1="114.9609" y2="114.9609"/><text fill="#000000" font-family="sans-serif" font-size="13" font-weight="bold" lengthAdjust="spacing" textLength="7" x="81" y="110.1045">1</text><text fill="#000000" font-family="sans-serif" font-size="13" lengthAdjust="spacing" textLength="278" x="92" y="110.1045">Asks to check and export vaccination statistics.</text><polygon fill="#181818" points="85,141.3125,75,145.3125,85,149.3125,81,145.3125" style="stroke:#181818;stroke-width:1.0;"/><line style="stroke:#181818;stroke-width:1.0;stroke-dasharray:2.0,2.0;" x1="79" x2="386" y1="145.3125" y2="145.3125"/><text fill="#000000" font-family="sans-serif" font-size="13" font-weight="bold" lengthAdjust="spacing" textLength="7" x="91" y="140.4561">2</text><text fill="#000000" font-family="sans-serif" font-size="13" lengthAdjust="spacing" textLength="226" x="102" y="140.4561">Requests data (fileName, date1, date2)</text><polygon fill="#181818" points="370,171.6641,380,175.6641,370,179.6641,374,175.6641" style="stroke:#181818;stroke-width:1.0;"/><line style="stroke:#181818;stroke-width:1.0;" x1="74" x2="376" y1="175.6641" y2="175.6641"/><text fill="#000000" font-family="sans-serif" font-size="13" font-weight="bold" lengthAdjust="spacing" textLength="7" x="81" y="170.8076">3</text><text fill="#000000" font-family="sans-serif" font-size="13" lengthAdjust="spacing" textLength="125" x="92" y="170.8076">Types requested data</text><polygon fill="#181818" points="85,202.0156,75,206.0156,85,210.0156,81,206.0156" style="stroke:#181818;stroke-width:1.0;"/><line style="stroke:#181818;stroke-width:1.0;stroke-dasharray:2.0,2.0;" x1="79" x2="386" y1="206.0156" y2="206.0156"/><text fill="#000000" font-family="sans-serif" font-size="13" font-weight="bold" lengthAdjust="spacing" textLength="7" x="91" y="201.1592">4</text><text fill="#000000" font-family="sans-serif" font-size="13" lengthAdjust="spacing" textLength="68" x="102" y="201.1592">Shows data</text><polygon fill="#181818" points="370,232.3672,380,236.3672,370,240.3672,374,236.3672" style="stroke:#181818;stroke-width:1.0;"/><line style="stroke:#181818;stroke-width:1.0;" x1="74" x2="376" y1="236.3672" y2="236.3672"/><text fill="#000000" font-family="sans-serif" font-size="13" font-weight="bold" lengthAdjust="spacing" textLength="7" x="81" y="231.5107">5</text><text fill="#000000" font-family="sans-serif" font-size="13" lengthAdjust="spacing" textLength="102" x="92" y="231.5107">Confirms the data</text><polygon fill="#181818" points="1287.5,262.7188,1297.5,266.7188,1287.5,270.7188,1291.5,266.7188" style="stroke:#181818;stroke-width:1.0;"/><line style="stroke:#181818;stroke-width:1.0;" x1="392" x2="1293.5" y1="266.7188" y2="266.7188"/><text fill="#000000" font-family="sans-serif" font-size="13" font-weight="bold" lengthAdjust="spacing" textLength="7" x="399" y="261.8623">6</text><text fill="#000000" font-family="sans-serif" font-size="13" lengthAdjust="spacing" textLength="104" x="410" y="261.8623">verifyDateInterval()</text><polygon fill="#181818" points="757,323.0703,767,327.0703,757,331.0703,761,327.0703" style="stroke:#181818;stroke-width:1.0;"/><line style="stroke:#181818;stroke-width:1.0;" x1="392" x2="763" y1="327.0703" y2="327.0703"/><text fill="#000000" font-family="sans-serif" font-size="13" font-weight="bold" lengthAdjust="spacing" textLength="7" x="399" y="322.2139">7</text><text fill="#000000" font-family="sans-serif" font-size="13" lengthAdjust="spacing" textLength="347" x="410" y="322.2139">totalNumberFullyVaccinatedInInterval(date1Date, date2Date)</text><polygon fill="#181818" points="1164,353.4219,1174,357.4219,1164,361.4219,1168,357.4219" style="stroke:#181818;stroke-width:1.0;"/><line style="stroke:#181818;stroke-width:1.0;" x1="779" x2="1170" y1="357.4219" y2="357.4219"/><text fill="#000000" font-family="sans-serif" font-size="13" font-weight="bold" lengthAdjust="spacing" textLength="7" x="786" y="352.5654">8</text><text fill="#000000" font-family="sans-serif" font-size="13" lengthAdjust="spacing" textLength="206" x="797" y="352.5654">snsUserStore = getSNSUserStore()</text><polygon fill="#181818" points="2269,413.7734,2279,417.7734,2269,421.7734,2273,417.7734" style="stroke:#181818;stroke-width:1.0;"/><line style="stroke:#181818;stroke-width:1.0;" x1="779" x2="2275" y1="417.7734" y2="417.7734"/><text fill="#000000" font-family="sans-serif" font-size="13" font-weight="bold" lengthAdjust="spacing" textLength="7" x="786" y="412.917">9</text><text fill="#000000" font-family="sans-serif" font-size="13" lengthAdjust="spacing" textLength="152" x="797" y="412.917">suList = getSNSUserList()</text><polygon fill="#181818" points="1164,474.125,1174,478.125,1164,482.125,1168,478.125" style="stroke:#181818;stroke-width:1.0;"/><line style="stroke:#181818;stroke-width:1.0;" x1="779" x2="1170" y1="478.125" y2="478.125"/><text fill="#000000" font-family="sans-serif" font-size="13" font-weight="bold" lengthAdjust="spacing" textLength="14" x="786" y="473.2686">10</text><text fill="#000000" font-family="sans-serif" font-size="13" lengthAdjust="spacing" textLength="194" x="804" y="473.2686">vaccineStore = getVaccineStore()</text><polygon fill="#181818" points="2384.5,534.4766,2394.5,538.4766,2384.5,542.4766,2388.5,538.4766" style="stroke:#181818;stroke-width:1.0;"/><line style="stroke:#181818;stroke-width:1.0;" x1="779" x2="2390.5" y1="538.4766" y2="538.4766"/><text fill="#000000" font-family="sans-serif" font-size="13" font-weight="bold" lengthAdjust="spacing" textLength="14" x="786" y="533.6201">11</text><text fill="#000000" font-family="sans-serif" font-size="13" lengthAdjust="spacing" textLength="136" x="804" y="533.6201">vList = getVaccineList()</text><polygon fill="#181818" points="1164,594.8281,1174,598.8281,1164,602.8281,1168,598.8281" style="stroke:#181818;stroke-width:1.0;"/><line style="stroke:#181818;stroke-width:1.0;" x1="779" x2="1170" y1="598.8281" y2="598.8281"/><text fill="#000000" font-family="sans-serif" font-size="13" font-weight="bold" lengthAdjust="spacing" textLength="14" x="786" y="593.9717">12</text><text fill="#000000" font-family="sans-serif" font-size="13" lengthAdjust="spacing" textLength="360" x="804" y="593.9717">vaccineAdministrationStore = getVaccineAdministrationStore()</text><polygon fill="#181818" points="2109,655.1797,2119,659.1797,2109,663.1797,2113,659.1797" style="stroke:#181818;stroke-width:1.0;"/><line style="stroke:#181818;stroke-width:1.0;" x1="779" x2="2115" y1="659.1797" y2="659.1797"/><text fill="#000000" font-family="sans-serif" font-size="13" font-weight="bold" lengthAdjust="spacing" textLength="14" x="786" y="654.3232">13</text><text fill="#000000" font-family="sans-serif" font-size="13" lengthAdjust="spacing" textLength="480" x="804" y="654.3232">totalNumberFullyVaccinatedInInterval(suList, vList, date1, date2, vaccinationCenter)</text><polygon fill="#181818" points="1377,715.5313,1387,719.5313,1377,723.5313,1381,719.5313" style="stroke:#181818;stroke-width:1.0;"/><line style="stroke:#181818;stroke-width:1.0;" x1="392" x2="1383" y1="719.5313" y2="719.5313"/><text fill="#000000" font-family="sans-serif" font-size="13" font-weight="bold" lengthAdjust="spacing" textLength="14" x="399" y="714.6748">14</text><text fill="#000000" font-family="sans-serif" font-size="13" lengthAdjust="spacing" textLength="222" x="417" y="714.6748">wtfHandler = createWriteToFileHandler</text><rect fill="#E2E2F0" height="49.2188" rx="2.5" ry="2.5" style="stroke:#181818;stroke-width:0.5;" width="140" x="1389" y="697.1797"/><text fill="#000000" font-family="sans-serif" font-size="14" lengthAdjust="spacing" textLength="70" x="1422" y="718.7129">wtfHandler:</text><text fill="#000000" font-family="sans-serif" font-size="14" lengthAdjust="spacing" textLength="122" x="1400" y="736.3223">WriteToFileHandler</text><polygon fill="#181818" points="1778,775.75,1788,779.75,1778,783.75,1782,779.75" style="stroke:#181818;stroke-width:1.0;"/><line style="stroke:#181818;stroke-width:1.0;" x1="1464" x2="1784" y1="779.75" y2="779.75"/><text fill="#000000" font-family="sans-serif" font-size="13" font-weight="bold" lengthAdjust="spacing" textLength="14" x="1471" y="774.8936">15</text><text fill="#000000" font-family="sans-serif" font-size="13" lengthAdjust="spacing" textLength="289" x="1489" y="774.8936">writeToFile(date1, fileName, numberOfVaccinated)</text><line style="stroke:#181818;stroke-width:1.0;" x1="1805" x2="1847" y1="810.1016" y2="810.1016"/><line style="stroke:#181818;stroke-width:1.0;" x1="1847" x2="1847" y1="810.1016" y2="823.1016"/><line style="stroke:#181818;stroke-width:1.0;" x1="1806" x2="1847" y1="823.1016" y2="823.1016"/><polygon fill="#181818" points="1816,819.1016,1806,823.1016,1816,827.1016,1812,823.1016" style="stroke:#181818;stroke-width:1.0;"/><text fill="#000000" font-family="sans-serif" font-size="13" font-weight="bold" lengthAdjust="spacing" textLength="14" x="1812" y="805.2451">16</text><text fill="#000000" font-family="sans-serif" font-size="13" lengthAdjust="spacing" textLength="289" x="1830" y="805.2451">writeToFile(date1, fileName, numberOfVaccinated)</text><polygon fill="#181818" points="80,879.4531,70,883.4531,80,887.4531,76,883.4531" style="stroke:#181818;stroke-width:1.0;"/><line style="stroke:#181818;stroke-width:1.0;stroke-dasharray:2.0,2.0;" x1="74" x2="386" y1="883.4531" y2="883.4531"/><text fill="#000000" font-family="sans-serif" font-size="13" font-weight="bold" lengthAdjust="spacing" textLength="14" x="86" y="878.5967">17</text><text fill="#000000" font-family="sans-serif" font-size="13" lengthAdjust="spacing" textLength="193" x="104" y="878.5967">Show graphic and exports csv file</text><!--MD5=[9fa53d228b0383730a7b4ca19559eb7b]
@startuml
autonumber
actor "Center Coordinator" as CC

participant ":\n VaccinationStatisticsUI" as UI
participant ":\n VaccinationStatisticsController" as CTRL
participant ":\n Company" as CMPN
participant "vaccinationStatistics: \n VaccinationStatistics" as VS
participant "wtfHandler: \n WriteToFileHandler" as WTFH
participant "wtf: \n WriteToFile" as WTF
participant "vaccineAdministrationStore: \n VaccineAdministrationStore" as VAS
participant "snsUserStore: \n SnsUserStore" as SUS
participant "vaccineStore: \n VaccineStore" as VST

activate CC

CC -> UI : Asks to check and export vaccination statistics.
activate UI
UI - -> CC : Requests data (fileName, date1, date2)
deactivate UI
CC -> UI : Types requested data
activate UI



UI - -> CC : Shows data
deactivate UI

CC -> UI : Confirms the data
activate UI

UI -> VS : verifyDateInterval()
activate VS
deactivate VS

UI -> CTRL : totalNumberFullyVaccinatedInInterval(date1Date, date2Date)
activate CTRL
CTRL -> CMPN : snsUserStore = getSNSUserStore()
activate CMPN
deactivate CMPN
CTRL -> SUS : suList = getSNSUserList()
activate SUS
deactivate SUS

CTRL -> CMPN : vaccineStore = getVaccineStore()
activate CMPN
deactivate CMPN
CTRL -> VST : vList = getVaccineList()
activate VST
deactivate VST

CTRL -> CMPN : vaccineAdministrationStore = getVaccineAdministrationStore()
activate CMPN
deactivate CMPN
CTRL -> VAS : totalNumberFullyVaccinatedInInterval(suList, vList, date1, date2, vaccinationCenter)
activate VAS
deactivate VAS
deactivate CTRL

UI -> WTFH** : wtfHandler = createWriteToFileHandler
activate WTFH

WTFH -> WTF : writeToFile(date1, fileName, numberOfVaccinated)
activate WTF

WTF -> WTF : writeToFile(date1, fileName, numberOfVaccinated)
activate WTF
deactivate WTF
deactivate WTF
deactivate WTFH


UI - -> CC : Show graphic and exports csv file
deactivate UI

deactivate CC
@enduml

PlantUML version 1.2022.5(Sat Apr 30 11:55:52 BST 2022)
(GPL source distribution)
Java Runtime: OpenJDK Runtime Environment
JVM: OpenJDK 64-Bit Server VM
Default Encoding: Cp1252
Language: pt
Country: PT
--></g></svg>