<?xml version="1.0" encoding="UTF-8" standalone="no"?><svg xmlns="http://www.w3.org/2000/svg" xmlns:xlink="http://www.w3.org/1999/xlink" contentStyleType="text/css" height="289px" preserveAspectRatio="none" style="width:1125px;height:289px;background:#FFFFFF;" version="1.1" viewBox="0 0 1125 289" width="1125px" zoomAndPan="magnify"><defs/><g><!--MD5=[64e2e010ba86d7988e5cd73bd64f61f9]
cluster ui--><g id="cluster_ui"><path d="M8.5,123 L22.5,123 A3.75,3.75 0 0 1 25,125.5 L32,146.6094 L208.5,146.6094 A2.5,2.5 0 0 1 211,149.1094 L211,220.5 A2.5,2.5 0 0 1 208.5,223 L8.5,223 A2.5,2.5 0 0 1 6,220.5 L6,125.5 A2.5,2.5 0 0 1 8.5,123 " style="stroke:#000000;stroke-width:1.5;fill:none;"/><line style="stroke:#000000;stroke-width:1.5;fill:none;" x1="6" x2="32" y1="146.6094" y2="146.6094"/><text fill="#000000" font-family="sans-serif" font-size="14" font-weight="bold" lengthAdjust="spacing" textLength="13" x="10" y="139.5332">ui</text></g><!--MD5=[01435ace8273dc3cae88e7f376e4d373]
cluster core--><g id="cluster_core"><path d="M246.5,6 L279.5,6 A3.75,3.75 0 0 1 282,8.5 L289,29.6094 L1115.5,29.6094 A2.5,2.5 0 0 1 1118,32.1094 L1118,279.5 A2.5,2.5 0 0 1 1115.5,282 L246.5,282 A2.5,2.5 0 0 1 244,279.5 L244,8.5 A2.5,2.5 0 0 1 246.5,6 " style="stroke:#000000;stroke-width:1.5;fill:none;"/><line style="stroke:#000000;stroke-width:1.5;fill:none;" x1="244" x2="289" y1="29.6094" y2="29.6094"/><text fill="#000000" font-family="sans-serif" font-size="14" font-weight="bold" lengthAdjust="spacing" textLength="32" x="248" y="22.5332">core</text></g><!--MD5=[10ea673caf457862023e152271927b45]
cluster controller--><g id="cluster_controller"><path d="M278.5,115 L348.5,115 A3.75,3.75 0 0 1 351,117.5 L358,138.6094 L544.5,138.6094 A2.5,2.5 0 0 1 547,141.1094 L547,247.5 A2.5,2.5 0 0 1 544.5,250 L278.5,250 A2.5,2.5 0 0 1 276,247.5 L276,117.5 A2.5,2.5 0 0 1 278.5,115 " style="stroke:#000000;stroke-width:1.5;fill:none;"/><line style="stroke:#000000;stroke-width:1.5;fill:none;" x1="276" x2="358" y1="138.6094" y2="138.6094"/><text fill="#000000" font-family="sans-serif" font-size="14" font-weight="bold" lengthAdjust="spacing" textLength="69" x="280" y="131.5332">controller</text></g><!--MD5=[27f772719433d509ddbc20ff768eba08]
cluster domain--><g id="cluster_domain"><path d="M598.5,58 L650.5,58 A3.75,3.75 0 0 1 653,60.5 L660,81.6094 L1083.5,81.6094 A2.5,2.5 0 0 1 1086,84.1094 L1086,247.5 A2.5,2.5 0 0 1 1083.5,250 L598.5,250 A2.5,2.5 0 0 1 596,247.5 L596,60.5 A2.5,2.5 0 0 1 598.5,58 " style="stroke:#000000;stroke-width:1.5;fill:none;"/><line style="stroke:#000000;stroke-width:1.5;fill:none;" x1="596" x2="660" y1="81.6094" y2="81.6094"/><text fill="#000000" font-family="sans-serif" font-size="14" font-weight="bold" lengthAdjust="spacing" textLength="51" x="600" y="74.5332">domain</text></g><!--MD5=[c23849cc5f4a85746a20de4317c530fc]
cluster store--><g id="cluster_store"><path d="M829.5,110 L867.5,110 A3.75,3.75 0 0 1 870,112.5 L877,133.6094 L1051.5,133.6094 A2.5,2.5 0 0 1 1054,136.1094 L1054,207.5 A2.5,2.5 0 0 1 1051.5,210 L829.5,210 A2.5,2.5 0 0 1 827,207.5 L827,112.5 A2.5,2.5 0 0 1 829.5,110 " style="stroke:#000000;stroke-width:1.5;fill:none;"/><line style="stroke:#000000;stroke-width:1.5;fill:none;" x1="827" x2="877" y1="133.6094" y2="133.6094"/><text fill="#000000" font-family="sans-serif" font-size="14" font-weight="bold" lengthAdjust="spacing" textLength="37" x="831" y="126.5332">store</text></g><!--MD5=[5d4cd377749310b66bf14896f5cd8d9b]
cluster model--><g id="cluster_model"><path d="M630.5,110 L674.5,110 A3.75,3.75 0 0 1 677,112.5 L684,133.6094 L749.5,133.6094 A2.5,2.5 0 0 1 752,136.1094 L752,207.5 A2.5,2.5 0 0 1 749.5,210 L630.5,210 A2.5,2.5 0 0 1 628,207.5 L628,112.5 A2.5,2.5 0 0 1 630.5,110 " style="stroke:#000000;stroke-width:1.5;fill:none;"/><line style="stroke:#000000;stroke-width:1.5;fill:none;" x1="628" x2="684" y1="133.6094" y2="133.6094"/><text fill="#000000" font-family="sans-serif" font-size="14" font-weight="bold" lengthAdjust="spacing" textLength="43" x="632" y="126.5332">model</text></g><!--MD5=[6855992fd6ae12a2b446eee8924ce71a]
class VaccinationStatisticsUI--><g id="elem_VaccinationStatisticsUI"><rect codeLine="5" fill="#F1F1F1" height="48" id="VaccinationStatisticsUI" rx="2.5" ry="2.5" style="stroke:#181818;stroke-width:0.5;" width="173" x="22" y="159"/><ellipse cx="37" cy="175" fill="#ADD1B2" rx="11" ry="11" style="stroke:#181818;stroke-width:1.0;"/><path d="M39,171.5 Q39.2031,171 39.4375,170.75 Q39.6719,170.5 39.9375,170.5 Q40.4063,170.5 40.7031,170.7813 Q41,171.0625 41,171.7188 L41,173.2813 Q41,173.9375 40.7188,174.2188 Q40.4375,174.5 40,174.5 Q39.6094,174.5 39.3594,174.3281 Q39.1094,174.1563 39,173.7031 Q38.9531,173.3906 38.7813,173.2188 Q38.4688,172.8906 37.9063,172.7031 Q37.3438,172.5 36.7813,172.5 Q36.0781,172.5 35.4844,172.7813 Q34.9063,173.0625 34.4531,173.6875 Q34,174.3125 34,175.1719 L34,176.0938 Q34,177.125 34.8438,177.8125 Q35.6875,178.5 37.1875,178.5 Q38.0781,178.5 38.7031,178.2969 Q39.0625,178.1875 39.4688,177.8281 Q39.7344,177.625 39.875,177.5625 Q40.0156,177.5 40.1875,177.5 Q40.5156,177.5 40.75,177.7656 Q41,178.0156 41,178.375 Q41,178.7188 40.6563,179.125 Q40.1563,179.7188 39.3594,180.0469 Q38.3125,180.5 37.0313,180.5 Q35.5313,180.5 34.3281,179.9063 Q33.3594,179.4375 32.6719,178.4219 Q32,177.4063 32,176.2031 L32,175.1094 Q32,173.8594 32.5938,172.7656 Q33.2031,171.6719 34.25,171.0938 Q35.3125,170.5 36.5,170.5 Q37.2188,170.5 37.8438,170.75 Q38.4688,171 39,171.5 Z " fill="#000000"/><text fill="#000000" font-family="sans-serif" font-size="14" lengthAdjust="spacing" textLength="141" x="51" y="180.7285">VaccinationStatisticsUI</text><line style="stroke:#181818;stroke-width:0.5;" x1="23" x2="194" y1="191" y2="191"/><line style="stroke:#181818;stroke-width:0.5;" x1="23" x2="194" y1="199" y2="199"/></g><!--MD5=[0702d922fa0ae83b7a257de0eaef7b3a]
class VaccinationStatisticsController--><g id="elem_VaccinationStatisticsController"><rect codeLine="12" fill="#F1F1F1" height="48" id="VaccinationStatisticsController" rx="2.5" ry="2.5" style="stroke:#181818;stroke-width:0.5;" width="223" x="300" y="159"/><ellipse cx="315" cy="175" fill="#ADD1B2" rx="11" ry="11" style="stroke:#181818;stroke-width:1.0;"/><path d="M317,171.5 Q317.2031,171 317.4375,170.75 Q317.6719,170.5 317.9375,170.5 Q318.4063,170.5 318.7031,170.7813 Q319,171.0625 319,171.7188 L319,173.2813 Q319,173.9375 318.7188,174.2188 Q318.4375,174.5 318,174.5 Q317.6094,174.5 317.3594,174.3281 Q317.1094,174.1563 317,173.7031 Q316.9531,173.3906 316.7813,173.2188 Q316.4688,172.8906 315.9063,172.7031 Q315.3438,172.5 314.7813,172.5 Q314.0781,172.5 313.4844,172.7813 Q312.9063,173.0625 312.4531,173.6875 Q312,174.3125 312,175.1719 L312,176.0938 Q312,177.125 312.8438,177.8125 Q313.6875,178.5 315.1875,178.5 Q316.0781,178.5 316.7031,178.2969 Q317.0625,178.1875 317.4688,177.8281 Q317.7344,177.625 317.875,177.5625 Q318.0156,177.5 318.1875,177.5 Q318.5156,177.5 318.75,177.7656 Q319,178.0156 319,178.375 Q319,178.7188 318.6563,179.125 Q318.1563,179.7188 317.3594,180.0469 Q316.3125,180.5 315.0313,180.5 Q313.5313,180.5 312.3281,179.9063 Q311.3594,179.4375 310.6719,178.4219 Q310,177.4063 310,176.2031 L310,175.1094 Q310,173.8594 310.5938,172.7656 Q311.2031,171.6719 312.25,171.0938 Q313.3125,170.5 314.5,170.5 Q315.2188,170.5 315.8438,170.75 Q316.4688,171 317,171.5 Z " fill="#000000"/><text fill="#000000" font-family="sans-serif" font-size="14" lengthAdjust="spacing" textLength="191" x="329" y="180.7285">VaccinationStatisticsController</text><line style="stroke:#181818;stroke-width:0.5;" x1="301" x2="522" y1="191" y2="191"/><line style="stroke:#181818;stroke-width:0.5;" x1="301" x2="522" y1="199" y2="199"/></g><!--MD5=[ceaa7654abec6078e87c0335a63a44b1]
class VaccinationStatisticsStore--><g id="elem_VaccinationStatisticsStore"><rect codeLine="19" fill="#F1F1F1" height="48" id="VaccinationStatisticsStore" rx="2.5" ry="2.5" style="stroke:#181818;stroke-width:0.5;" width="195" x="843" y="146"/><ellipse cx="858" cy="162" fill="#ADD1B2" rx="11" ry="11" style="stroke:#181818;stroke-width:1.0;"/><path d="M860,158.5 Q860.2031,158 860.4375,157.75 Q860.6719,157.5 860.9375,157.5 Q861.4063,157.5 861.7031,157.7813 Q862,158.0625 862,158.7188 L862,160.2813 Q862,160.9375 861.7188,161.2188 Q861.4375,161.5 861,161.5 Q860.6094,161.5 860.3594,161.3281 Q860.1094,161.1563 860,160.7031 Q859.9531,160.3906 859.7813,160.2188 Q859.4688,159.8906 858.9063,159.7031 Q858.3438,159.5 857.7813,159.5 Q857.0781,159.5 856.4844,159.7813 Q855.9063,160.0625 855.4531,160.6875 Q855,161.3125 855,162.1719 L855,163.0938 Q855,164.125 855.8438,164.8125 Q856.6875,165.5 858.1875,165.5 Q859.0781,165.5 859.7031,165.2969 Q860.0625,165.1875 860.4688,164.8281 Q860.7344,164.625 860.875,164.5625 Q861.0156,164.5 861.1875,164.5 Q861.5156,164.5 861.75,164.7656 Q862,165.0156 862,165.375 Q862,165.7188 861.6563,166.125 Q861.1563,166.7188 860.3594,167.0469 Q859.3125,167.5 858.0313,167.5 Q856.5313,167.5 855.3281,166.9063 Q854.3594,166.4375 853.6719,165.4219 Q853,164.4063 853,163.2031 L853,162.1094 Q853,160.8594 853.5938,159.7656 Q854.2031,158.6719 855.25,158.0938 Q856.3125,157.5 857.5,157.5 Q858.2188,157.5 858.8438,157.75 Q859.4688,158 860,158.5 Z " fill="#000000"/><text fill="#000000" font-family="sans-serif" font-size="14" lengthAdjust="spacing" textLength="163" x="872" y="167.7285">VaccinationStatisticsStore</text><line style="stroke:#181818;stroke-width:0.5;" x1="844" x2="1037" y1="178" y2="178"/><line style="stroke:#181818;stroke-width:0.5;" x1="844" x2="1037" y1="186" y2="186"/></g><!--MD5=[02e4b9b7573f1156f41e60aa5b4e25a4]
class Company--><g id="elem_Company"><rect codeLine="24" fill="#F1F1F1" height="48" id="Company" rx="2.5" ry="2.5" style="stroke:#181818;stroke-width:0.5;" width="92" x="644" y="146"/><ellipse cx="659" cy="162" fill="#ADD1B2" rx="11" ry="11" style="stroke:#181818;stroke-width:1.0;"/><path d="M661,158.5 Q661.2031,158 661.4375,157.75 Q661.6719,157.5 661.9375,157.5 Q662.4063,157.5 662.7031,157.7813 Q663,158.0625 663,158.7188 L663,160.2813 Q663,160.9375 662.7188,161.2188 Q662.4375,161.5 662,161.5 Q661.6094,161.5 661.3594,161.3281 Q661.1094,161.1563 661,160.7031 Q660.9531,160.3906 660.7813,160.2188 Q660.4688,159.8906 659.9063,159.7031 Q659.3438,159.5 658.7813,159.5 Q658.0781,159.5 657.4844,159.7813 Q656.9063,160.0625 656.4531,160.6875 Q656,161.3125 656,162.1719 L656,163.0938 Q656,164.125 656.8438,164.8125 Q657.6875,165.5 659.1875,165.5 Q660.0781,165.5 660.7031,165.2969 Q661.0625,165.1875 661.4688,164.8281 Q661.7344,164.625 661.875,164.5625 Q662.0156,164.5 662.1875,164.5 Q662.5156,164.5 662.75,164.7656 Q663,165.0156 663,165.375 Q663,165.7188 662.6563,166.125 Q662.1563,166.7188 661.3594,167.0469 Q660.3125,167.5 659.0313,167.5 Q657.5313,167.5 656.3281,166.9063 Q655.3594,166.4375 654.6719,165.4219 Q654,164.4063 654,163.2031 L654,162.1094 Q654,160.8594 654.5938,159.7656 Q655.2031,158.6719 656.25,158.0938 Q657.3125,157.5 658.5,157.5 Q659.2188,157.5 659.8438,157.75 Q660.4688,158 661,158.5 Z " fill="#000000"/><text fill="#000000" font-family="sans-serif" font-size="14" lengthAdjust="spacing" textLength="60" x="673" y="167.7285">Company</text><line style="stroke:#181818;stroke-width:0.5;" x1="645" x2="735" y1="178" y2="178"/><line style="stroke:#181818;stroke-width:0.5;" x1="645" x2="735" y1="186" y2="186"/></g><!--MD5=[0f5167bdc63c312f4c526a8cbbd28b27]
link VaccinationStatisticsUI to VaccinationStatisticsController--><g id="link_VaccinationStatisticsUI_VaccinationStatisticsController"><path codeLine="32" d="M195.35,183 C226.2,183 261.51,183 294.49,183 " fill="none" id="VaccinationStatisticsUI-to-VaccinationStatisticsController" style="stroke:#181818;stroke-width:1.0;stroke-dasharray:7.0,7.0;"/><polygon fill="#181818" points="299.77,183,290.77,179,294.77,183,290.77,187,299.77,183" style="stroke:#181818;stroke-width:1.0;"/></g><!--MD5=[f4db482f32edd77abe30d6b96ed6334c]
link controller to domain--><g id="link_controller_domain"><path d="M547.5717,242 C548.6347,242 549.698,242 550.7613,242 C559.2673,242 567.7734,242 576.1506,242 C580.3391,242 584.4955,242 588.6036,242 C590.6576,242 592.6996,242 594.7274,242 C594.9809,242 595.2342,242 595.4872,242 " fill="none" id="controller-to-domain" style="stroke:#181818;stroke-width:1.0;stroke-dasharray:7.0,7.0;"/><polygon fill="#181818" points="595.4872,242,586.4872,238,590.4872,242,586.4872,246,595.4872,242" style="stroke:#181818;stroke-width:1.0;"/></g><!--MD5=[e80654a34efaa8bbdfe792f82f1435c9]
link Company to VaccinationStatisticsStore--><g id="link_Company_VaccinationStatisticsStore"><path codeLine="35" d="M736,170 C765.79,170 806.02,170 842.84,170 " fill="none" id="Company-VaccinationStatisticsStore" style="stroke:#181818;stroke-width:1.0;"/><polygon fill="#000000" points="778,161.1758,768.9549,158.2369,768.9549,164.1147,778,161.1758" style="stroke:#000000;stroke-width:1.0;"/><text fill="#000000" font-family="sans-serif" font-size="13" lengthAdjust="spacing" textLength="28" x="782" y="166.4951">uses</text><text fill="#000000" font-family="sans-serif" font-size="13" lengthAdjust="spacing" textLength="7" x="743.8891" y="184.7981">1</text><text fill="#000000" font-family="sans-serif" font-size="13" lengthAdjust="spacing" textLength="7" x="828.0949" y="184.1211">1</text></g><!--MD5=[322032f3e366b4655cb0c4d85f46ba18]
@startuml
skinparam classAttributeIconSize 0
left to right direction

package ui{
class VaccinationStatisticsUI{
}
}

package core{

package controller{
class VaccinationStatisticsController{
}
}

package domain{

package store{
class VaccinationStatisticsStore{
}
}

package model{
class Company{
}
}


}


VaccinationStatisticsUI ..> VaccinationStatisticsController
controller ..> domain

Company "1" - - "1" VaccinationStatisticsStore : uses >

@enduml

PlantUML version 1.2022.5(Sat Apr 30 11:55:52 BST 2022)
(GPL source distribution)
Java Runtime: OpenJDK Runtime Environment
JVM: OpenJDK 64-Bit Server VM
Default Encoding: Cp1252
Language: pt
Country: PT
--></g></svg>