<?xml version="1.0" encoding="UTF-8" standalone="no"?><svg xmlns="http://www.w3.org/2000/svg" xmlns:xlink="http://www.w3.org/1999/xlink" contentStyleType="text/css" height="458px" preserveAspectRatio="none" style="width:1768px;height:458px;background:#FFFFFF;" version="1.1" viewBox="0 0 1768 458" width="1768px" zoomAndPan="magnify"><defs/><g><!--MD5=[02e4b9b7573f1156f41e60aa5b4e25a4]
class Company--><g id="elem_Company"><rect codeLine="5" fill="#F1F1F1" height="57.6094" id="Company" rx="2.5" ry="2.5" style="stroke:#181818;stroke-width:0.5;" width="92" x="357.5" y="232"/><ellipse cx="372.5" cy="248" fill="#ADD1B2" rx="11" ry="11" style="stroke:#181818;stroke-width:1.0;"/><path d="M374.5,244.5 Q374.7031,244 374.9375,243.75 Q375.1719,243.5 375.4375,243.5 Q375.9063,243.5 376.2031,243.7813 Q376.5,244.0625 376.5,244.7188 L376.5,246.2813 Q376.5,246.9375 376.2188,247.2188 Q375.9375,247.5 375.5,247.5 Q375.1094,247.5 374.8594,247.3281 Q374.6094,247.1563 374.5,246.7031 Q374.4531,246.3906 374.2813,246.2188 Q373.9688,245.8906 373.4063,245.7031 Q372.8438,245.5 372.2813,245.5 Q371.5781,245.5 370.9844,245.7813 Q370.4063,246.0625 369.9531,246.6875 Q369.5,247.3125 369.5,248.1719 L369.5,249.0938 Q369.5,250.125 370.3438,250.8125 Q371.1875,251.5 372.6875,251.5 Q373.5781,251.5 374.2031,251.2969 Q374.5625,251.1875 374.9688,250.8281 Q375.2344,250.625 375.375,250.5625 Q375.5156,250.5 375.6875,250.5 Q376.0156,250.5 376.25,250.7656 Q376.5,251.0156 376.5,251.375 Q376.5,251.7188 376.1563,252.125 Q375.6563,252.7188 374.8594,253.0469 Q373.8125,253.5 372.5313,253.5 Q371.0313,253.5 369.8281,252.9063 Q368.8594,252.4375 368.1719,251.4219 Q367.5,250.4063 367.5,249.2031 L367.5,248.1094 Q367.5,246.8594 368.0938,245.7656 Q368.7031,244.6719 369.75,244.0938 Q370.8125,243.5 372,243.5 Q372.7188,243.5 373.3438,243.75 Q373.9688,244 374.5,244.5 Z " fill="#000000"/><text fill="#000000" font-family="sans-serif" font-size="14" lengthAdjust="spacing" textLength="60" x="386.5" y="253.7285">Company</text><line style="stroke:#181818;stroke-width:0.5;" x1="358.5" x2="448.5" y1="264" y2="264"/><text fill="#000000" font-family="sans-serif" font-size="14" lengthAdjust="spacing" textLength="78" x="363.5" y="282.5332">-designation</text></g><!--MD5=[7421f545a0d8420c5bec41e74b387d9c]
class Employee--><g id="elem_Employee"><rect codeLine="9" fill="#F1F1F1" height="128.0469" id="Employee" rx="2.5" ry="2.5" style="stroke:#181818;stroke-width:0.5;" width="136" x="656" y="7"/><ellipse cx="689.9" cy="23" fill="#ADD1B2" rx="11" ry="11" style="stroke:#181818;stroke-width:1.0;"/><path d="M691.9,19.5 Q692.1031,19 692.3375,18.75 Q692.5719,18.5 692.8375,18.5 Q693.3063,18.5 693.6031,18.7813 Q693.9,19.0625 693.9,19.7188 L693.9,21.2813 Q693.9,21.9375 693.6188,22.2188 Q693.3375,22.5 692.9,22.5 Q692.5094,22.5 692.2594,22.3281 Q692.0094,22.1563 691.9,21.7031 Q691.8531,21.3906 691.6813,21.2188 Q691.3688,20.8906 690.8063,20.7031 Q690.2438,20.5 689.6813,20.5 Q688.9781,20.5 688.3844,20.7813 Q687.8063,21.0625 687.3531,21.6875 Q686.9,22.3125 686.9,23.1719 L686.9,24.0938 Q686.9,25.125 687.7438,25.8125 Q688.5875,26.5 690.0875,26.5 Q690.9781,26.5 691.6031,26.2969 Q691.9625,26.1875 692.3688,25.8281 Q692.6344,25.625 692.775,25.5625 Q692.9156,25.5 693.0875,25.5 Q693.4156,25.5 693.65,25.7656 Q693.9,26.0156 693.9,26.375 Q693.9,26.7188 693.5563,27.125 Q693.0563,27.7188 692.2594,28.0469 Q691.2125,28.5 689.9313,28.5 Q688.4313,28.5 687.2281,27.9063 Q686.2594,27.4375 685.5719,26.4219 Q684.9,25.4063 684.9,24.2031 L684.9,23.1094 Q684.9,21.8594 685.4938,20.7656 Q686.1031,19.6719 687.15,19.0938 Q688.2125,18.5 689.4,18.5 Q690.1188,18.5 690.7438,18.75 Q691.3688,19 691.9,19.5 Z " fill="#000000"/><text fill="#000000" font-family="sans-serif" font-size="14" lengthAdjust="spacing" textLength="62" x="708.1" y="28.7285">Employee</text><line style="stroke:#181818;stroke-width:0.5;" x1="657" x2="791" y1="39" y2="39"/><text fill="#000000" font-family="sans-serif" font-size="14" lengthAdjust="spacing" textLength="40" x="662" y="57.5332">-name</text><text fill="#000000" font-family="sans-serif" font-size="14" lengthAdjust="spacing" textLength="56" x="662" y="75.1426">-address</text><text fill="#000000" font-family="sans-serif" font-size="14" lengthAdjust="spacing" textLength="94" x="662" y="92.752">-phoneNumber</text><text fill="#000000" font-family="sans-serif" font-size="14" lengthAdjust="spacing" textLength="124" x="662" y="110.3613">-citizenCardNumber</text><text fill="#000000" font-family="sans-serif" font-size="14" lengthAdjust="spacing" textLength="29" x="662" y="127.9707">-role</text></g><!--MD5=[de60e6d4f424ae4d0522096f76a59010]
class VaccinationCenter--><g id="elem_VaccinationCenter"><rect codeLine="17" fill="#F1F1F1" height="180.875" id="VaccinationCenter" rx="2.5" ry="2.5" style="stroke:#181818;stroke-width:0.5;" width="148" x="650" y="170.5"/><ellipse cx="665" cy="186.5" fill="#ADD1B2" rx="11" ry="11" style="stroke:#181818;stroke-width:1.0;"/><path d="M667,183 Q667.2031,182.5 667.4375,182.25 Q667.6719,182 667.9375,182 Q668.4063,182 668.7031,182.2813 Q669,182.5625 669,183.2188 L669,184.7813 Q669,185.4375 668.7188,185.7188 Q668.4375,186 668,186 Q667.6094,186 667.3594,185.8281 Q667.1094,185.6563 667,185.2031 Q666.9531,184.8906 666.7813,184.7188 Q666.4688,184.3906 665.9063,184.2031 Q665.3438,184 664.7813,184 Q664.0781,184 663.4844,184.2813 Q662.9063,184.5625 662.4531,185.1875 Q662,185.8125 662,186.6719 L662,187.5938 Q662,188.625 662.8438,189.3125 Q663.6875,190 665.1875,190 Q666.0781,190 666.7031,189.7969 Q667.0625,189.6875 667.4688,189.3281 Q667.7344,189.125 667.875,189.0625 Q668.0156,189 668.1875,189 Q668.5156,189 668.75,189.2656 Q669,189.5156 669,189.875 Q669,190.2188 668.6563,190.625 Q668.1563,191.2188 667.3594,191.5469 Q666.3125,192 665.0313,192 Q663.5313,192 662.3281,191.4063 Q661.3594,190.9375 660.6719,189.9219 Q660,188.9063 660,187.7031 L660,186.6094 Q660,185.3594 660.5938,184.2656 Q661.2031,183.1719 662.25,182.5938 Q663.3125,182 664.5,182 Q665.2188,182 665.8438,182.25 Q666.4688,182.5 667,183 Z " fill="#000000"/><text fill="#000000" font-family="sans-serif" font-size="14" lengthAdjust="spacing" textLength="116" x="679" y="192.2285">VaccinationCenter</text><line style="stroke:#181818;stroke-width:0.5;" x1="651" x2="797" y1="202.5" y2="202.5"/><text fill="#000000" font-family="sans-serif" font-size="14" lengthAdjust="spacing" textLength="40" x="656" y="221.0332">-name</text><text fill="#000000" font-family="sans-serif" font-size="14" lengthAdjust="spacing" textLength="94" x="656" y="238.6426">-phoneNumber</text><text fill="#000000" font-family="sans-serif" font-size="14" lengthAdjust="spacing" textLength="38" x="656" y="256.252">-email</text><text fill="#000000" font-family="sans-serif" font-size="14" lengthAdjust="spacing" textLength="56" x="656" y="273.8613">-address</text><text fill="#000000" font-family="sans-serif" font-size="14" lengthAdjust="spacing" textLength="72" x="656" y="291.4707">-faxNumber</text><text fill="#000000" font-family="sans-serif" font-size="14" lengthAdjust="spacing" textLength="52" x="656" y="309.0801">-website</text><text fill="#000000" font-family="sans-serif" font-size="14" lengthAdjust="spacing" textLength="81" x="656" y="326.6895">-slotDuration</text><text fill="#000000" font-family="sans-serif" font-size="14" lengthAdjust="spacing" textLength="106" x="656" y="344.2988">-slotVaccineLimit</text></g><!--MD5=[2d935fd2dd068a13da1ae531f9857c4f]
class CenterCoordinator--><g id="elem_CenterCoordinator"><rect codeLine="28" fill="#F1F1F1" height="40" id="CenterCoordinator" rx="2.5" ry="2.5" style="stroke:#181818;stroke-width:0.5;" width="150" x="7" y="94"/><ellipse cx="22" cy="110" fill="#ADD1B2" rx="11" ry="11" style="stroke:#181818;stroke-width:1.0;"/><path d="M24,106.5 Q24.2031,106 24.4375,105.75 Q24.6719,105.5 24.9375,105.5 Q25.4063,105.5 25.7031,105.7813 Q26,106.0625 26,106.7188 L26,108.2813 Q26,108.9375 25.7188,109.2188 Q25.4375,109.5 25,109.5 Q24.6094,109.5 24.3594,109.3281 Q24.1094,109.1563 24,108.7031 Q23.9531,108.3906 23.7813,108.2188 Q23.4688,107.8906 22.9063,107.7031 Q22.3438,107.5 21.7813,107.5 Q21.0781,107.5 20.4844,107.7813 Q19.9063,108.0625 19.4531,108.6875 Q19,109.3125 19,110.1719 L19,111.0938 Q19,112.125 19.8438,112.8125 Q20.6875,113.5 22.1875,113.5 Q23.0781,113.5 23.7031,113.2969 Q24.0625,113.1875 24.4688,112.8281 Q24.7344,112.625 24.875,112.5625 Q25.0156,112.5 25.1875,112.5 Q25.5156,112.5 25.75,112.7656 Q26,113.0156 26,113.375 Q26,113.7188 25.6563,114.125 Q25.1563,114.7188 24.3594,115.0469 Q23.3125,115.5 22.0313,115.5 Q20.5313,115.5 19.3281,114.9063 Q18.3594,114.4375 17.6719,113.4219 Q17,112.4063 17,111.2031 L17,110.1094 Q17,108.8594 17.5938,107.7656 Q18.2031,106.6719 19.25,106.0938 Q20.3125,105.5 21.5,105.5 Q22.2188,105.5 22.8438,105.75 Q23.4688,106 24,106.5 Z " fill="#000000"/><text fill="#000000" font-family="sans-serif" font-size="14" lengthAdjust="spacing" textLength="118" x="36" y="115.7285">CenterCoordinator</text><line style="stroke:#181818;stroke-width:0.5;" x1="8" x2="156" y1="126" y2="126"/></g><!--MD5=[56872536300a053cf9fd13853ad6ab1e]
class CommunityMassVaccinationCenter--><g id="elem_CommunityMassVaccinationCenter"><rect codeLine="31" fill="#F1F1F1" height="40" id="CommunityMassVaccinationCenter" rx="2.5" ry="2.5" style="stroke:#181818;stroke-width:0.5;" width="251" x="278" y="135"/><ellipse cx="293" cy="151" fill="#ADD1B2" rx="11" ry="11" style="stroke:#181818;stroke-width:1.0;"/><path d="M295,147.5 Q295.2031,147 295.4375,146.75 Q295.6719,146.5 295.9375,146.5 Q296.4063,146.5 296.7031,146.7813 Q297,147.0625 297,147.7188 L297,149.2813 Q297,149.9375 296.7188,150.2188 Q296.4375,150.5 296,150.5 Q295.6094,150.5 295.3594,150.3281 Q295.1094,150.1563 295,149.7031 Q294.9531,149.3906 294.7813,149.2188 Q294.4688,148.8906 293.9063,148.7031 Q293.3438,148.5 292.7813,148.5 Q292.0781,148.5 291.4844,148.7813 Q290.9063,149.0625 290.4531,149.6875 Q290,150.3125 290,151.1719 L290,152.0938 Q290,153.125 290.8438,153.8125 Q291.6875,154.5 293.1875,154.5 Q294.0781,154.5 294.7031,154.2969 Q295.0625,154.1875 295.4688,153.8281 Q295.7344,153.625 295.875,153.5625 Q296.0156,153.5 296.1875,153.5 Q296.5156,153.5 296.75,153.7656 Q297,154.0156 297,154.375 Q297,154.7188 296.6563,155.125 Q296.1563,155.7188 295.3594,156.0469 Q294.3125,156.5 293.0313,156.5 Q291.5313,156.5 290.3281,155.9063 Q289.3594,155.4375 288.6719,154.4219 Q288,153.4063 288,152.2031 L288,151.1094 Q288,149.8594 288.5938,148.7656 Q289.2031,147.6719 290.25,147.0938 Q291.3125,146.5 292.5,146.5 Q293.2188,146.5 293.8438,146.75 Q294.4688,147 295,147.5 Z " fill="#000000"/><text fill="#000000" font-family="sans-serif" font-size="14" lengthAdjust="spacing" textLength="219" x="307" y="156.7285">CommunityMassVaccinationCenter</text><line style="stroke:#181818;stroke-width:0.5;" x1="279" x2="528" y1="167" y2="167"/></g><!--MD5=[6ea91c1482e11d5ab58156f1589eb8b8]
class VaccinationStatistics--><g id="elem_VaccinationStatistics"><rect codeLine="34" fill="#F1F1F1" height="75.2188" id="VaccinationStatistics" rx="2.5" ry="2.5" style="stroke:#181818;stroke-width:0.5;" width="161" x="894" y="223.5"/><ellipse cx="909" cy="239.5" fill="#ADD1B2" rx="11" ry="11" style="stroke:#181818;stroke-width:1.0;"/><path d="M911,236 Q911.2031,235.5 911.4375,235.25 Q911.6719,235 911.9375,235 Q912.4063,235 912.7031,235.2813 Q913,235.5625 913,236.2188 L913,237.7813 Q913,238.4375 912.7188,238.7188 Q912.4375,239 912,239 Q911.6094,239 911.3594,238.8281 Q911.1094,238.6563 911,238.2031 Q910.9531,237.8906 910.7813,237.7188 Q910.4688,237.3906 909.9063,237.2031 Q909.3438,237 908.7813,237 Q908.0781,237 907.4844,237.2813 Q906.9063,237.5625 906.4531,238.1875 Q906,238.8125 906,239.6719 L906,240.5938 Q906,241.625 906.8438,242.3125 Q907.6875,243 909.1875,243 Q910.0781,243 910.7031,242.7969 Q911.0625,242.6875 911.4688,242.3281 Q911.7344,242.125 911.875,242.0625 Q912.0156,242 912.1875,242 Q912.5156,242 912.75,242.2656 Q913,242.5156 913,242.875 Q913,243.2188 912.6563,243.625 Q912.1563,244.2188 911.3594,244.5469 Q910.3125,245 909.0313,245 Q907.5313,245 906.3281,244.4063 Q905.3594,243.9375 904.6719,242.9219 Q904,241.9063 904,240.7031 L904,239.6094 Q904,238.3594 904.5938,237.2656 Q905.2031,236.1719 906.25,235.5938 Q907.3125,235 908.5,235 Q909.2188,235 909.8438,235.25 Q910.4688,235.5 911,236 Z " fill="#000000"/><text fill="#000000" font-family="sans-serif" font-size="14" lengthAdjust="spacing" textLength="129" x="923" y="245.2285">VaccinationStatistics</text><line style="stroke:#181818;stroke-width:0.5;" x1="895" x2="1054" y1="255.5" y2="255.5"/><text fill="#000000" font-family="sans-serif" font-size="14" lengthAdjust="spacing" textLength="41" x="900" y="274.0332">-date1</text><text fill="#000000" font-family="sans-serif" font-size="14" lengthAdjust="spacing" textLength="41" x="900" y="291.6426">-date2</text></g><!--MD5=[72be06cc7ae02ccc98efe28a50e62246]
class SNSUser--><g id="elem_SNSUser"><rect codeLine="39" fill="#F1F1F1" height="180.875" id="SNSUser" rx="2.5" ry="2.5" style="stroke:#181818;stroke-width:0.5;" width="136" x="1625" y="142.5"/><ellipse cx="1661.6" cy="158.5" fill="#ADD1B2" rx="11" ry="11" style="stroke:#181818;stroke-width:1.0;"/><path d="M1663.6,155 Q1663.8031,154.5 1664.0375,154.25 Q1664.2719,154 1664.5375,154 Q1665.0063,154 1665.3031,154.2813 Q1665.6,154.5625 1665.6,155.2188 L1665.6,156.7813 Q1665.6,157.4375 1665.3188,157.7188 Q1665.0375,158 1664.6,158 Q1664.2094,158 1663.9594,157.8281 Q1663.7094,157.6563 1663.6,157.2031 Q1663.5531,156.8906 1663.3813,156.7188 Q1663.0688,156.3906 1662.5063,156.2031 Q1661.9438,156 1661.3813,156 Q1660.6781,156 1660.0844,156.2813 Q1659.5063,156.5625 1659.0531,157.1875 Q1658.6,157.8125 1658.6,158.6719 L1658.6,159.5938 Q1658.6,160.625 1659.4438,161.3125 Q1660.2875,162 1661.7875,162 Q1662.6781,162 1663.3031,161.7969 Q1663.6625,161.6875 1664.0688,161.3281 Q1664.3344,161.125 1664.475,161.0625 Q1664.6156,161 1664.7875,161 Q1665.1156,161 1665.35,161.2656 Q1665.6,161.5156 1665.6,161.875 Q1665.6,162.2188 1665.2563,162.625 Q1664.7563,163.2188 1663.9594,163.5469 Q1662.9125,164 1661.6313,164 Q1660.1313,164 1658.9281,163.4063 Q1657.9594,162.9375 1657.2719,161.9219 Q1656.6,160.9063 1656.6,159.7031 L1656.6,158.6094 Q1656.6,157.3594 1657.1938,156.2656 Q1657.8031,155.1719 1658.85,154.5938 Q1659.9125,154 1661.1,154 Q1661.8188,154 1662.4438,154.25 Q1663.0688,154.5 1663.6,155 Z " fill="#000000"/><text fill="#000000" font-family="sans-serif" font-size="14" lengthAdjust="spacing" textLength="56" x="1680.4" y="164.2285">SNSUser</text><line style="stroke:#181818;stroke-width:0.5;" x1="1626" x2="1760" y1="174.5" y2="174.5"/><text fill="#000000" font-family="sans-serif" font-size="14" lengthAdjust="spacing" textLength="40" x="1631" y="193.0332">-name</text><text fill="#000000" font-family="sans-serif" font-size="14" lengthAdjust="spacing" textLength="26" x="1631" y="210.6426">-sex</text><text fill="#000000" font-family="sans-serif" font-size="14" lengthAdjust="spacing" textLength="94" x="1631" y="228.252">-phoneNumber</text><text fill="#000000" font-family="sans-serif" font-size="14" lengthAdjust="spacing" textLength="38" x="1631" y="245.8613">-email</text><text fill="#000000" font-family="sans-serif" font-size="14" lengthAdjust="spacing" textLength="56" x="1631" y="263.4707">-address</text><text fill="#000000" font-family="sans-serif" font-size="14" lengthAdjust="spacing" textLength="63" x="1631" y="281.0801">-birthDate</text><text fill="#000000" font-family="sans-serif" font-size="14" lengthAdjust="spacing" textLength="81" x="1631" y="298.6895">-SNSNumber</text><text fill="#000000" font-family="sans-serif" font-size="14" lengthAdjust="spacing" textLength="124" x="1631" y="316.2988">-citizenCardNumber</text></g><!--MD5=[107cfa23aa516ff83d0cf17a6f9fe7ba]
class VaccineAdministration--><g id="elem_VaccineAdministration"><rect codeLine="50" fill="#F1F1F1" height="128.0469" id="VaccineAdministration" rx="2.5" ry="2.5" style="stroke:#181818;stroke-width:0.5;" width="171" x="1287" y="197"/><ellipse cx="1302" cy="213" fill="#ADD1B2" rx="11" ry="11" style="stroke:#181818;stroke-width:1.0;"/><path d="M1304,209.5 Q1304.2031,209 1304.4375,208.75 Q1304.6719,208.5 1304.9375,208.5 Q1305.4063,208.5 1305.7031,208.7813 Q1306,209.0625 1306,209.7188 L1306,211.2813 Q1306,211.9375 1305.7188,212.2188 Q1305.4375,212.5 1305,212.5 Q1304.6094,212.5 1304.3594,212.3281 Q1304.1094,212.1563 1304,211.7031 Q1303.9531,211.3906 1303.7813,211.2188 Q1303.4688,210.8906 1302.9063,210.7031 Q1302.3438,210.5 1301.7813,210.5 Q1301.0781,210.5 1300.4844,210.7813 Q1299.9063,211.0625 1299.4531,211.6875 Q1299,212.3125 1299,213.1719 L1299,214.0938 Q1299,215.125 1299.8438,215.8125 Q1300.6875,216.5 1302.1875,216.5 Q1303.0781,216.5 1303.7031,216.2969 Q1304.0625,216.1875 1304.4688,215.8281 Q1304.7344,215.625 1304.875,215.5625 Q1305.0156,215.5 1305.1875,215.5 Q1305.5156,215.5 1305.75,215.7656 Q1306,216.0156 1306,216.375 Q1306,216.7188 1305.6563,217.125 Q1305.1563,217.7188 1304.3594,218.0469 Q1303.3125,218.5 1302.0313,218.5 Q1300.5313,218.5 1299.3281,217.9063 Q1298.3594,217.4375 1297.6719,216.4219 Q1297,215.4063 1297,214.2031 L1297,213.1094 Q1297,211.8594 1297.5938,210.7656 Q1298.2031,209.6719 1299.25,209.0938 Q1300.3125,208.5 1301.5,208.5 Q1302.2188,208.5 1302.8438,208.75 Q1303.4688,209 1304,209.5 Z " fill="#000000"/><text fill="#000000" font-family="sans-serif" font-size="14" lengthAdjust="spacing" textLength="139" x="1316" y="218.7285">VaccineAdministration</text><line style="stroke:#181818;stroke-width:0.5;" x1="1288" x2="1457" y1="229" y2="229"/><text fill="#000000" font-family="sans-serif" font-size="14" lengthAdjust="spacing" textLength="69" x="1293" y="247.5332">-lotNumber</text><text fill="#000000" font-family="sans-serif" font-size="14" lengthAdjust="spacing" textLength="123" x="1293" y="265.1426">-administrationDate</text><text fill="#000000" font-family="sans-serif" font-size="14" lengthAdjust="spacing" textLength="124" x="1293" y="282.752">-administrationTime</text><text fill="#000000" font-family="sans-serif" font-size="14" lengthAdjust="spacing" textLength="80" x="1293" y="300.3613">-leavingDate</text><text fill="#000000" font-family="sans-serif" font-size="14" lengthAdjust="spacing" textLength="81" x="1293" y="317.9707">-leavingTime</text></g><!--MD5=[19e445fc4d3b48519cbe33da05496394]
class Vaccine--><g id="elem_Vaccine"><rect codeLine="58" fill="#F1F1F1" height="92.8281" id="Vaccine" rx="2.5" ry="2.5" style="stroke:#181818;stroke-width:0.5;" width="82" x="1652" y="358.5"/><ellipse cx="1667" cy="374.5" fill="#ADD1B2" rx="11" ry="11" style="stroke:#181818;stroke-width:1.0;"/><path d="M1669,371 Q1669.2031,370.5 1669.4375,370.25 Q1669.6719,370 1669.9375,370 Q1670.4063,370 1670.7031,370.2813 Q1671,370.5625 1671,371.2188 L1671,372.7813 Q1671,373.4375 1670.7188,373.7188 Q1670.4375,374 1670,374 Q1669.6094,374 1669.3594,373.8281 Q1669.1094,373.6563 1669,373.2031 Q1668.9531,372.8906 1668.7813,372.7188 Q1668.4688,372.3906 1667.9063,372.2031 Q1667.3438,372 1666.7813,372 Q1666.0781,372 1665.4844,372.2813 Q1664.9063,372.5625 1664.4531,373.1875 Q1664,373.8125 1664,374.6719 L1664,375.5938 Q1664,376.625 1664.8438,377.3125 Q1665.6875,378 1667.1875,378 Q1668.0781,378 1668.7031,377.7969 Q1669.0625,377.6875 1669.4688,377.3281 Q1669.7344,377.125 1669.875,377.0625 Q1670.0156,377 1670.1875,377 Q1670.5156,377 1670.75,377.2656 Q1671,377.5156 1671,377.875 Q1671,378.2188 1670.6563,378.625 Q1670.1563,379.2188 1669.3594,379.5469 Q1668.3125,380 1667.0313,380 Q1665.5313,380 1664.3281,379.4063 Q1663.3594,378.9375 1662.6719,377.9219 Q1662,376.9063 1662,375.7031 L1662,374.6094 Q1662,373.3594 1662.5938,372.2656 Q1663.2031,371.1719 1664.25,370.5938 Q1665.3125,370 1666.5,370 Q1667.2188,370 1667.8438,370.25 Q1668.4688,370.5 1669,371 Z " fill="#000000"/><text fill="#000000" font-family="sans-serif" font-size="14" lengthAdjust="spacing" textLength="50" x="1681" y="380.2285">Vaccine</text><line style="stroke:#181818;stroke-width:0.5;" x1="1653" x2="1733" y1="390.5" y2="390.5"/><text fill="#000000" font-family="sans-serif" font-size="14" lengthAdjust="spacing" textLength="16" x="1658" y="409.0332">-id</text><text fill="#000000" font-family="sans-serif" font-size="14" lengthAdjust="spacing" textLength="40" x="1658" y="426.6426">-name</text><text fill="#000000" font-family="sans-serif" font-size="14" lengthAdjust="spacing" textLength="42" x="1658" y="444.252">-brand</text></g><!--MD5=[738a6f70211648d778fec4b79664b2f5]
link CenterCoordinator to Employee--><g id="link_CenterCoordinator_Employee"><path codeLine="66" d="M157.1,105.74 C167.14,104.75 177.32,103.8 187,103 C344.86,89.95 529.31,80.12 635.5,74.99 " fill="none" id="CenterCoordinator-to-Employee" style="stroke:#181818;stroke-width:1.0;"/><polygon fill="none" points="635.35,67.99,655.66,74.03,636.02,81.98,635.35,67.99" style="stroke:#181818;stroke-width:1.0;"/></g><!--MD5=[09366576ee87d48d594df10cacc83f45]
link Company to Employee--><g id="link_Company_Employee"><path codeLine="67" d="M449.77,236.64 C473.52,223.68 503.02,207.29 529,192 C571.59,166.94 618.64,137.63 655.74,114.14 " fill="none" id="Company-Employee" style="stroke:#181818;stroke-width:1.0;"/><polygon fill="#000000" points="572.7974,125.6199,563.521,127.7176,566.5256,132.7695,572.7974,125.6199" style="stroke:#000000;stroke-width:1.0;"/><text fill="#000000" font-family="sans-serif" font-size="13" lengthAdjust="spacing" textLength="37" x="577.5" y="133.4951">knows</text><text fill="#000000" font-family="sans-serif" font-size="13" lengthAdjust="spacing" textLength="7" x="457.391" y="247.6868">1</text><text fill="#000000" font-family="sans-serif" font-size="13" lengthAdjust="spacing" textLength="5" x="643.0006" y="133.2452">*</text></g><!--MD5=[8333063a69905134c8a7f249aa9d629e]
link CommunityMassVaccinationCenter to VaccinationCenter--><g id="link_CommunityMassVaccinationCenter_VaccinationCenter"><path codeLine="68" d="M529.17,156.18 C559.73,159.73 591.75,166.31 620,178 C624.18,179.73 628.33,181.69 632.42,183.82 " fill="none" id="CommunityMassVaccinationCenter-to-VaccinationCenter" style="stroke:#181818;stroke-width:1.0;"/><polygon fill="none" points="636.32,178,649.98,194.2,629.2,190.05,636.32,178" style="stroke:#181818;stroke-width:1.0;"/></g><!--MD5=[eebe9b198877275d05dd12630ed9e401]
link Company to VaccinationCenter--><g id="link_Company_VaccinationCenter"><path codeLine="69" d="M449.8,261 C501.92,261 588.25,261 649.91,261 " fill="none" id="Company-VaccinationCenter" style="stroke:#181818;stroke-width:1.0;"/><polygon fill="#000000" points="569,252.1758,559.9549,249.2369,559.9549,255.1147,569,252.1758" style="stroke:#000000;stroke-width:1.0;"/><text fill="#000000" font-family="sans-serif" font-size="13" lengthAdjust="spacing" textLength="46" x="573" y="257.4951">manage</text><text fill="#000000" font-family="sans-serif" font-size="13" lengthAdjust="spacing" textLength="7" x="457.4256" y="275.7769">1</text><text fill="#000000" font-family="sans-serif" font-size="13" lengthAdjust="spacing" textLength="5" x="637.0117" y="275.3447">*</text></g><!--MD5=[d3df84ca029fbacbbd2123c2919c54f0]
link CenterCoordinator to CommunityMassVaccinationCenter--><g id="link_CenterCoordinator_CommunityMassVaccinationCenter"><path codeLine="70" d="M157.1,123.51 C192.96,128.11 236.98,133.76 277.8,139 " fill="none" id="CenterCoordinator-CommunityMassVaccinationCenter" style="stroke:#181818;stroke-width:1.0;"/><polygon fill="#000000" points="196.9593,120.8122,188.3619,116.7459,187.6137,122.5759,196.9593,120.8122" style="stroke:#000000;stroke-width:1.0;"/><text fill="#000000" font-family="sans-serif" font-size="13" lengthAdjust="spacing" textLength="46" x="201" y="125.4951">manage</text><text fill="#000000" font-family="sans-serif" font-size="13" lengthAdjust="spacing" textLength="7" x="165.2056" y="138.829">1</text><text fill="#000000" font-family="sans-serif" font-size="13" lengthAdjust="spacing" textLength="7" x="262.9269" y="152.0183">1</text></g><!--MD5=[ae7b80322deb13d48dceea2bfaa8a523]
link VaccinationCenter to VaccinationStatistics--><g id="link_VaccinationCenter_VaccinationStatistics"><path codeLine="71" d="M798.21,261 C828.28,261 863.17,261 893.87,261 " fill="none" id="VaccinationCenter-VaccinationStatistics" style="stroke:#181818;stroke-width:1.0;"/><polygon fill="#000000" points="838,252.1758,828.9549,249.2369,828.9549,255.1147,838,252.1758" style="stroke:#000000;stroke-width:1.0;"/><text fill="#000000" font-family="sans-serif" font-size="13" lengthAdjust="spacing" textLength="21" x="842" y="257.4951">has</text><text fill="#000000" font-family="sans-serif" font-size="13" lengthAdjust="spacing" textLength="7" x="806.2238" y="275.3447">1</text><text fill="#000000" font-family="sans-serif" font-size="13" lengthAdjust="spacing" textLength="5" x="880.9467" y="275.2639">*</text></g><!--MD5=[951a07871a6512bd4f8e62baa1d062ce]
link VaccineAdministration to SNSUser--><g id="link_VaccineAdministration_SNSUser"><path codeLine="72" d="M1458.02,253.57 C1510.17,248.99 1576.16,243.18 1624.75,238.91 " fill="none" id="VaccineAdministration-SNSUser" style="stroke:#181818;stroke-width:1.0;"/><polygon fill="#000000" points="1497.9808,233.7378,1488.713,231.6025,1489.2279,237.4577,1497.9808,233.7378" style="stroke:#000000;stroke-width:1.0;"/><text fill="#000000" font-family="sans-serif" font-size="13" lengthAdjust="spacing" textLength="92" x="1502" y="239.4951">administered on</text><text fill="#000000" font-family="sans-serif" font-size="13" lengthAdjust="spacing" textLength="5" x="1466.1343" y="267.1317">*</text><text fill="#000000" font-family="sans-serif" font-size="13" lengthAdjust="spacing" textLength="7" x="1609.9023" y="253.9526">1</text></g><!--MD5=[d96ee281cdb1021d3c4ed227c45512e2]
link VaccineAdministration to Vaccine--><g id="link_VaccineAdministration_Vaccine"><path codeLine="73" d="M1458.02,299.21 C1520.68,327.54 1603.3,364.9 1651.74,386.8 " fill="none" id="VaccineAdministration-Vaccine" style="stroke:#181818;stroke-width:1.0;"/><polygon fill="#000000" points="1488.4441,305.1158,1495.475,311.5202,1497.8966,306.1644,1488.4441,305.1158" style="stroke:#000000;stroke-width:1.0;"/><text fill="#000000" font-family="sans-serif" font-size="13" lengthAdjust="spacing" textLength="92" x="1502" y="312.4951">is administrated</text><text fill="#000000" font-family="sans-serif" font-size="13" lengthAdjust="spacing" textLength="5" x="1466.1343" y="316.9791">*</text><text fill="#000000" font-family="sans-serif" font-size="13" lengthAdjust="spacing" textLength="7" x="1637.0469" y="398.587">1</text></g><!--MD5=[c29c8d42883934cbaf5793c72a334947]
link Company to Vaccine--><g id="link_Company_Vaccine"><path codeLine="74" d="M441.27,290.14 C498.17,332.22 612.56,405 723,405 C723,405 723,405 1373.5,405 C1473.58,405 1591.36,405 1651.78,405 " fill="none" id="Company-Vaccine" style="stroke:#181818;stroke-width:1.0;"/><polygon fill="#000000" points="956.4776,396.6481,947.7506,392.8679,947.1954,398.7195,956.4776,396.6481" style="stroke:#000000;stroke-width:1.0;"/><text fill="#000000" font-family="sans-serif" font-size="13" lengthAdjust="spacing" textLength="41" x="960.5" y="401.4951">applies</text><text fill="#000000" font-family="sans-serif" font-size="13" lengthAdjust="spacing" textLength="7" x="441.0169" y="311.0201">1</text><text fill="#000000" font-family="sans-serif" font-size="13" lengthAdjust="spacing" textLength="5" x="1638.9924" y="419.9667">*</text></g><!--MD5=[87e30c0ef3ea2106fe7cea11b471097a]
link VaccinationStatistics to VaccineAdministration--><g id="link_VaccinationStatistics_VaccineAdministration"><path codeLine="75" d="M1055.16,261 C1122.35,261 1218.26,261 1286.83,261 " fill="none" id="VaccinationStatistics-VaccineAdministration" style="stroke:#181818;stroke-width:1.0;"/><polygon fill="#000000" points="1085,252.1758,1094.0451,255.1147,1094.0451,249.2369,1085,252.1758" style="stroke:#000000;stroke-width:1.0;"/><text fill="#000000" font-family="sans-serif" font-size="13" lengthAdjust="spacing" textLength="157" x="1099" y="257.4951">based on data acuired from</text><text fill="#000000" font-family="sans-serif" font-size="13" lengthAdjust="spacing" textLength="7" x="1062.9185" y="275.2387">1</text><text fill="#000000" font-family="sans-serif" font-size="13" lengthAdjust="spacing" textLength="5" x="1273.9774" y="275.2212">*</text></g><!--MD5=[8c2a615489681b70eb261a2596e05962]
@startuml
hide methods
left to right direction
skinparam classAttributeIconSize 0

class Company {
    -designation
}

class Employee {
    -name
    -address
    -phoneNumber
    -citizenCardNumber
    -role
}

class VaccinationCenter {
    -name
    -phoneNumber
    -email
    -address
    -faxNumber
    -website
    -slotDuration
    -slotVaccineLimit
}

class CenterCoordinator {
}

class CommunityMassVaccinationCenter {
}

class VaccinationStatistics {
    -date1
    -date2
}

class SNSUser {
    -name
    -sex
    -phoneNumber
    -email
    -address
    -birthDate
    -SNSNumber
    -citizenCardNumber
}

class VaccineAdministration {
    -lotNumber
    -administrationDate
    -administrationTime
    -leavingDate
    -leavingTime
}

class Vaccine {
    -id
    -name
    -brand
}



CenterCoordinator - -|> Employee
Company "1" - - "*" Employee : knows >
CommunityMassVaccinationCenter - -|> VaccinationCenter
Company "1" - - "*" VaccinationCenter : manage >
CenterCoordinator "1" - - "1" CommunityMassVaccinationCenter : manage >
VaccinationCenter "1" - - "*" VaccinationStatistics : has >
VaccineAdministration "*" - - "1" SNSUser : administered on >
VaccineAdministration "*" - - "1" Vaccine : is administrated <
Company "1" - - "*" Vaccine : applies >
VaccinationStatistics "1" - - "*" VaccineAdministration : based on data acuired from <


@enduml

PlantUML version 1.2022.5(Sat Apr 30 11:55:52 BST 2022)
(GPL source distribution)
Java Runtime: OpenJDK Runtime Environment
JVM: OpenJDK 64-Bit Server VM
Default Encoding: Cp1252
Language: pt
Country: PT
--></g></svg>