<?xml version="1.0" encoding="UTF-8" standalone="no"?><svg xmlns="http://www.w3.org/2000/svg" xmlns:xlink="http://www.w3.org/1999/xlink" contentStyleType="text/css" height="750px" preserveAspectRatio="none" style="width:1309px;height:750px;background:#FFFFFF;" version="1.1" viewBox="0 0 1309 750" width="1309px" zoomAndPan="magnify"><defs/><g><!--MD5=[02e4b9b7573f1156f41e60aa5b4e25a4]
class Company--><g id="elem_Company"><rect codeLine="5" fill="#F1F1F1" height="57.6094" id="Company" rx="2.5" ry="2.5" style="stroke:#181818;stroke-width:0.5;" width="92" x="36" y="116"/><ellipse cx="51" cy="132" fill="#ADD1B2" rx="11" ry="11" style="stroke:#181818;stroke-width:1.0;"/><path d="M53,128.5 Q53.2031,128 53.4375,127.75 Q53.6719,127.5 53.9375,127.5 Q54.4063,127.5 54.7031,127.7813 Q55,128.0625 55,128.7188 L55,130.2813 Q55,130.9375 54.7188,131.2188 Q54.4375,131.5 54,131.5 Q53.6094,131.5 53.3594,131.3281 Q53.1094,131.1563 53,130.7031 Q52.9531,130.3906 52.7813,130.2188 Q52.4688,129.8906 51.9063,129.7031 Q51.3438,129.5 50.7813,129.5 Q50.0781,129.5 49.4844,129.7813 Q48.9063,130.0625 48.4531,130.6875 Q48,131.3125 48,132.1719 L48,133.0938 Q48,134.125 48.8438,134.8125 Q49.6875,135.5 51.1875,135.5 Q52.0781,135.5 52.7031,135.2969 Q53.0625,135.1875 53.4688,134.8281 Q53.7344,134.625 53.875,134.5625 Q54.0156,134.5 54.1875,134.5 Q54.5156,134.5 54.75,134.7656 Q55,135.0156 55,135.375 Q55,135.7188 54.6563,136.125 Q54.1563,136.7188 53.3594,137.0469 Q52.3125,137.5 51.0313,137.5 Q49.5313,137.5 48.3281,136.9063 Q47.3594,136.4375 46.6719,135.4219 Q46,134.4063 46,133.2031 L46,132.1094 Q46,130.8594 46.5938,129.7656 Q47.2031,128.6719 48.25,128.0938 Q49.3125,127.5 50.5,127.5 Q51.2188,127.5 51.8438,127.75 Q52.4688,128 53,128.5 Z " fill="#000000"/><text fill="#000000" font-family="sans-serif" font-size="14" lengthAdjust="spacing" textLength="60" x="65" y="137.7285">Company</text><line style="stroke:#181818;stroke-width:0.5;" x1="37" x2="127" y1="148" y2="148"/><text fill="#000000" font-family="sans-serif" font-size="14" lengthAdjust="spacing" textLength="78" x="42" y="166.5332">-designation</text></g><!--MD5=[7421f545a0d8420c5bec41e74b387d9c]
class Employee--><g id="elem_Employee"><rect codeLine="9" fill="#F1F1F1" height="128.0469" id="Employee" rx="2.5" ry="2.5" style="stroke:#181818;stroke-width:0.5;" width="136" x="284" y="7"/><ellipse cx="317.9" cy="23" fill="#ADD1B2" rx="11" ry="11" style="stroke:#181818;stroke-width:1.0;"/><path d="M319.9,19.5 Q320.1031,19 320.3375,18.75 Q320.5719,18.5 320.8375,18.5 Q321.3063,18.5 321.6031,18.7813 Q321.9,19.0625 321.9,19.7188 L321.9,21.2813 Q321.9,21.9375 321.6188,22.2188 Q321.3375,22.5 320.9,22.5 Q320.5094,22.5 320.2594,22.3281 Q320.0094,22.1563 319.9,21.7031 Q319.8531,21.3906 319.6813,21.2188 Q319.3688,20.8906 318.8063,20.7031 Q318.2438,20.5 317.6813,20.5 Q316.9781,20.5 316.3844,20.7813 Q315.8063,21.0625 315.3531,21.6875 Q314.9,22.3125 314.9,23.1719 L314.9,24.0938 Q314.9,25.125 315.7438,25.8125 Q316.5875,26.5 318.0875,26.5 Q318.9781,26.5 319.6031,26.2969 Q319.9625,26.1875 320.3688,25.8281 Q320.6344,25.625 320.775,25.5625 Q320.9156,25.5 321.0875,25.5 Q321.4156,25.5 321.65,25.7656 Q321.9,26.0156 321.9,26.375 Q321.9,26.7188 321.5563,27.125 Q321.0563,27.7188 320.2594,28.0469 Q319.2125,28.5 317.9313,28.5 Q316.4313,28.5 315.2281,27.9063 Q314.2594,27.4375 313.5719,26.4219 Q312.9,25.4063 312.9,24.2031 L312.9,23.1094 Q312.9,21.8594 313.4938,20.7656 Q314.1031,19.6719 315.15,19.0938 Q316.2125,18.5 317.4,18.5 Q318.1188,18.5 318.7438,18.75 Q319.3688,19 319.9,19.5 Z " fill="#000000"/><text fill="#000000" font-family="sans-serif" font-size="14" lengthAdjust="spacing" textLength="62" x="336.1" y="28.7285">Employee</text><line style="stroke:#181818;stroke-width:0.5;" x1="285" x2="419" y1="39" y2="39"/><text fill="#000000" font-family="sans-serif" font-size="14" lengthAdjust="spacing" textLength="40" x="290" y="57.5332">-name</text><text fill="#000000" font-family="sans-serif" font-size="14" lengthAdjust="spacing" textLength="56" x="290" y="75.1426">-address</text><text fill="#000000" font-family="sans-serif" font-size="14" lengthAdjust="spacing" textLength="94" x="290" y="92.752">-phoneNumber</text><text fill="#000000" font-family="sans-serif" font-size="14" lengthAdjust="spacing" textLength="124" x="290" y="110.3613">-citizenCardNumber</text><text fill="#000000" font-family="sans-serif" font-size="14" lengthAdjust="spacing" textLength="29" x="290" y="127.9707">-role</text></g><!--MD5=[56872536300a053cf9fd13853ad6ab1e]
class CommunityMassVaccinationCenter--><g id="elem_CommunityMassVaccinationCenter"><rect codeLine="17" fill="#F1F1F1" height="180.875" id="CommunityMassVaccinationCenter" rx="2.5" ry="2.5" style="stroke:#181818;stroke-width:0.5;" width="251" x="487" y="363.5"/><ellipse cx="502" cy="379.5" fill="#ADD1B2" rx="11" ry="11" style="stroke:#181818;stroke-width:1.0;"/><path d="M504,376 Q504.2031,375.5 504.4375,375.25 Q504.6719,375 504.9375,375 Q505.4063,375 505.7031,375.2813 Q506,375.5625 506,376.2188 L506,377.7813 Q506,378.4375 505.7188,378.7188 Q505.4375,379 505,379 Q504.6094,379 504.3594,378.8281 Q504.1094,378.6563 504,378.2031 Q503.9531,377.8906 503.7813,377.7188 Q503.4688,377.3906 502.9063,377.2031 Q502.3438,377 501.7813,377 Q501.0781,377 500.4844,377.2813 Q499.9063,377.5625 499.4531,378.1875 Q499,378.8125 499,379.6719 L499,380.5938 Q499,381.625 499.8438,382.3125 Q500.6875,383 502.1875,383 Q503.0781,383 503.7031,382.7969 Q504.0625,382.6875 504.4688,382.3281 Q504.7344,382.125 504.875,382.0625 Q505.0156,382 505.1875,382 Q505.5156,382 505.75,382.2656 Q506,382.5156 506,382.875 Q506,383.2188 505.6563,383.625 Q505.1563,384.2188 504.3594,384.5469 Q503.3125,385 502.0313,385 Q500.5313,385 499.3281,384.4063 Q498.3594,383.9375 497.6719,382.9219 Q497,381.9063 497,380.7031 L497,379.6094 Q497,378.3594 497.5938,377.2656 Q498.2031,376.1719 499.25,375.5938 Q500.3125,375 501.5,375 Q502.2188,375 502.8438,375.25 Q503.4688,375.5 504,376 Z " fill="#000000"/><text fill="#000000" font-family="sans-serif" font-size="14" lengthAdjust="spacing" textLength="219" x="516" y="385.2285">CommunityMassVaccinationCenter</text><line style="stroke:#181818;stroke-width:0.5;" x1="488" x2="737" y1="395.5" y2="395.5"/><text fill="#000000" font-family="sans-serif" font-size="14" lengthAdjust="spacing" textLength="40" x="493" y="414.0332">-name</text><text fill="#000000" font-family="sans-serif" font-size="14" lengthAdjust="spacing" textLength="94" x="493" y="431.6426">-phoneNumber</text><text fill="#000000" font-family="sans-serif" font-size="14" lengthAdjust="spacing" textLength="38" x="493" y="449.252">-email</text><text fill="#000000" font-family="sans-serif" font-size="14" lengthAdjust="spacing" textLength="56" x="493" y="466.8613">-address</text><text fill="#000000" font-family="sans-serif" font-size="14" lengthAdjust="spacing" textLength="72" x="493" y="484.4707">-faxNumber</text><text fill="#000000" font-family="sans-serif" font-size="14" lengthAdjust="spacing" textLength="52" x="493" y="502.0801">-website</text><text fill="#000000" font-family="sans-serif" font-size="14" lengthAdjust="spacing" textLength="81" x="493" y="519.6895">-slotDuration</text><text fill="#000000" font-family="sans-serif" font-size="14" lengthAdjust="spacing" textLength="106" x="493" y="537.2988">-slotVaccineLimit</text></g><!--MD5=[2d935fd2dd068a13da1ae531f9857c4f]
class CenterCoordinator--><g id="elem_CenterCoordinator"><rect codeLine="28" fill="#F1F1F1" height="40" id="CenterCoordinator" rx="2.5" ry="2.5" style="stroke:#181818;stroke-width:0.5;" width="150" x="7" y="292"/><ellipse cx="22" cy="308" fill="#ADD1B2" rx="11" ry="11" style="stroke:#181818;stroke-width:1.0;"/><path d="M24,304.5 Q24.2031,304 24.4375,303.75 Q24.6719,303.5 24.9375,303.5 Q25.4063,303.5 25.7031,303.7813 Q26,304.0625 26,304.7188 L26,306.2813 Q26,306.9375 25.7188,307.2188 Q25.4375,307.5 25,307.5 Q24.6094,307.5 24.3594,307.3281 Q24.1094,307.1563 24,306.7031 Q23.9531,306.3906 23.7813,306.2188 Q23.4688,305.8906 22.9063,305.7031 Q22.3438,305.5 21.7813,305.5 Q21.0781,305.5 20.4844,305.7813 Q19.9063,306.0625 19.4531,306.6875 Q19,307.3125 19,308.1719 L19,309.0938 Q19,310.125 19.8438,310.8125 Q20.6875,311.5 22.1875,311.5 Q23.0781,311.5 23.7031,311.2969 Q24.0625,311.1875 24.4688,310.8281 Q24.7344,310.625 24.875,310.5625 Q25.0156,310.5 25.1875,310.5 Q25.5156,310.5 25.75,310.7656 Q26,311.0156 26,311.375 Q26,311.7188 25.6563,312.125 Q25.1563,312.7188 24.3594,313.0469 Q23.3125,313.5 22.0313,313.5 Q20.5313,313.5 19.3281,312.9063 Q18.3594,312.4375 17.6719,311.4219 Q17,310.4063 17,309.2031 L17,308.1094 Q17,306.8594 17.5938,305.7656 Q18.2031,304.6719 19.25,304.0938 Q20.3125,303.5 21.5,303.5 Q22.2188,303.5 22.8438,303.75 Q23.4688,304 24,304.5 Z " fill="#000000"/><text fill="#000000" font-family="sans-serif" font-size="14" lengthAdjust="spacing" textLength="118" x="36" y="313.7285">CenterCoordinator</text><line style="stroke:#181818;stroke-width:0.5;" x1="8" x2="156" y1="324" y2="324"/></g><!--MD5=[3fd616f346a44cd59a91eb10b19e157c]
class User--><g id="elem_User"><rect codeLine="31" fill="#F1F1F1" height="75.2188" id="User" rx="2.5" ry="2.5" style="stroke:#181818;stroke-width:0.5;" width="77" x="574" y="33.5"/><ellipse cx="596.2" cy="49.5" fill="#ADD1B2" rx="11" ry="11" style="stroke:#181818;stroke-width:1.0;"/><path d="M598.2,46 Q598.4031,45.5 598.6375,45.25 Q598.8719,45 599.1375,45 Q599.6063,45 599.9031,45.2813 Q600.2,45.5625 600.2,46.2188 L600.2,47.7813 Q600.2,48.4375 599.9188,48.7188 Q599.6375,49 599.2,49 Q598.8094,49 598.5594,48.8281 Q598.3094,48.6563 598.2,48.2031 Q598.1531,47.8906 597.9813,47.7188 Q597.6688,47.3906 597.1063,47.2031 Q596.5438,47 595.9813,47 Q595.2781,47 594.6844,47.2813 Q594.1063,47.5625 593.6531,48.1875 Q593.2,48.8125 593.2,49.6719 L593.2,50.5938 Q593.2,51.625 594.0438,52.3125 Q594.8875,53 596.3875,53 Q597.2781,53 597.9031,52.7969 Q598.2625,52.6875 598.6688,52.3281 Q598.9344,52.125 599.075,52.0625 Q599.2156,52 599.3875,52 Q599.7156,52 599.95,52.2656 Q600.2,52.5156 600.2,52.875 Q600.2,53.2188 599.8563,53.625 Q599.3563,54.2188 598.5594,54.5469 Q597.5125,55 596.2313,55 Q594.7313,55 593.5281,54.4063 Q592.5594,53.9375 591.8719,52.9219 Q591.2,51.9063 591.2,50.7031 L591.2,49.6094 Q591.2,48.3594 591.7938,47.2656 Q592.4031,46.1719 593.45,45.5938 Q594.5125,45 595.7,45 Q596.4188,45 597.0438,45.25 Q597.6688,45.5 598.2,46 Z " fill="#000000"/><text fill="#000000" font-family="sans-serif" font-size="14" lengthAdjust="spacing" textLength="29" x="611.8" y="55.2285">User</text><line style="stroke:#181818;stroke-width:0.5;" x1="575" x2="650" y1="65.5" y2="65.5"/><text fill="#000000" font-family="sans-serif" font-size="14" lengthAdjust="spacing" textLength="38" x="580" y="84.0332">-email</text><text fill="#000000" font-family="sans-serif" font-size="14" lengthAdjust="spacing" textLength="65" x="580" y="101.6426">-password</text></g><!--MD5=[de60e6d4f424ae4d0522096f76a59010]
class VaccinationCenter--><g id="elem_VaccinationCenter"><rect codeLine="36" fill="#F1F1F1" height="40" id="VaccinationCenter" rx="2.5" ry="2.5" style="stroke:#181818;stroke-width:0.5;" width="148" x="278" y="381"/><ellipse cx="293" cy="397" fill="#ADD1B2" rx="11" ry="11" style="stroke:#181818;stroke-width:1.0;"/><path d="M295,393.5 Q295.2031,393 295.4375,392.75 Q295.6719,392.5 295.9375,392.5 Q296.4063,392.5 296.7031,392.7813 Q297,393.0625 297,393.7188 L297,395.2813 Q297,395.9375 296.7188,396.2188 Q296.4375,396.5 296,396.5 Q295.6094,396.5 295.3594,396.3281 Q295.1094,396.1563 295,395.7031 Q294.9531,395.3906 294.7813,395.2188 Q294.4688,394.8906 293.9063,394.7031 Q293.3438,394.5 292.7813,394.5 Q292.0781,394.5 291.4844,394.7813 Q290.9063,395.0625 290.4531,395.6875 Q290,396.3125 290,397.1719 L290,398.0938 Q290,399.125 290.8438,399.8125 Q291.6875,400.5 293.1875,400.5 Q294.0781,400.5 294.7031,400.2969 Q295.0625,400.1875 295.4688,399.8281 Q295.7344,399.625 295.875,399.5625 Q296.0156,399.5 296.1875,399.5 Q296.5156,399.5 296.75,399.7656 Q297,400.0156 297,400.375 Q297,400.7188 296.6563,401.125 Q296.1563,401.7188 295.3594,402.0469 Q294.3125,402.5 293.0313,402.5 Q291.5313,402.5 290.3281,401.9063 Q289.3594,401.4375 288.6719,400.4219 Q288,399.4063 288,398.2031 L288,397.1094 Q288,395.8594 288.5938,394.7656 Q289.2031,393.6719 290.25,393.0938 Q291.3125,392.5 292.5,392.5 Q293.2188,392.5 293.8438,392.75 Q294.4688,393 295,393.5 Z " fill="#000000"/><text fill="#000000" font-family="sans-serif" font-size="14" lengthAdjust="spacing" textLength="116" x="307" y="402.7285">VaccinationCenter</text><line style="stroke:#181818;stroke-width:0.5;" x1="279" x2="425" y1="413" y2="413"/></g><!--MD5=[6ea91c1482e11d5ab58156f1589eb8b8]
class VaccinationStatistics--><g id="elem_VaccinationStatistics"><rect codeLine="39" fill="#F1F1F1" height="40" id="VaccinationStatistics" rx="2.5" ry="2.5" style="stroke:#181818;stroke-width:0.5;" width="161" x="834" y="562"/><ellipse cx="849" cy="578" fill="#ADD1B2" rx="11" ry="11" style="stroke:#181818;stroke-width:1.0;"/><path d="M851,574.5 Q851.2031,574 851.4375,573.75 Q851.6719,573.5 851.9375,573.5 Q852.4063,573.5 852.7031,573.7813 Q853,574.0625 853,574.7188 L853,576.2813 Q853,576.9375 852.7188,577.2188 Q852.4375,577.5 852,577.5 Q851.6094,577.5 851.3594,577.3281 Q851.1094,577.1563 851,576.7031 Q850.9531,576.3906 850.7813,576.2188 Q850.4688,575.8906 849.9063,575.7031 Q849.3438,575.5 848.7813,575.5 Q848.0781,575.5 847.4844,575.7813 Q846.9063,576.0625 846.4531,576.6875 Q846,577.3125 846,578.1719 L846,579.0938 Q846,580.125 846.8438,580.8125 Q847.6875,581.5 849.1875,581.5 Q850.0781,581.5 850.7031,581.2969 Q851.0625,581.1875 851.4688,580.8281 Q851.7344,580.625 851.875,580.5625 Q852.0156,580.5 852.1875,580.5 Q852.5156,580.5 852.75,580.7656 Q853,581.0156 853,581.375 Q853,581.7188 852.6563,582.125 Q852.1563,582.7188 851.3594,583.0469 Q850.3125,583.5 849.0313,583.5 Q847.5313,583.5 846.3281,582.9063 Q845.3594,582.4375 844.6719,581.4219 Q844,580.4063 844,579.2031 L844,578.1094 Q844,576.8594 844.5938,575.7656 Q845.2031,574.6719 846.25,574.0938 Q847.3125,573.5 848.5,573.5 Q849.2188,573.5 849.8438,573.75 Q850.4688,574 851,574.5 Z " fill="#000000"/><text fill="#000000" font-family="sans-serif" font-size="14" lengthAdjust="spacing" textLength="129" x="863" y="583.7285">VaccinationStatistics</text><line style="stroke:#181818;stroke-width:0.5;" x1="835" x2="994" y1="594" y2="594"/></g><!--MD5=[c09248da7d83ce2a682491ec6c2c8d5c]
class DailyPerformance--><g id="elem_DailyPerformance"><rect codeLine="42" fill="#F1F1F1" height="57.6094" id="DailyPerformance" rx="2.5" ry="2.5" style="stroke:#181818;stroke-width:0.5;" width="179" x="1123" y="318"/><ellipse cx="1153.75" cy="334" fill="#ADD1B2" rx="11" ry="11" style="stroke:#181818;stroke-width:1.0;"/><path d="M1155.75,330.5 Q1155.9531,330 1156.1875,329.75 Q1156.4219,329.5 1156.6875,329.5 Q1157.1563,329.5 1157.4531,329.7813 Q1157.75,330.0625 1157.75,330.7188 L1157.75,332.2813 Q1157.75,332.9375 1157.4688,333.2188 Q1157.1875,333.5 1156.75,333.5 Q1156.3594,333.5 1156.1094,333.3281 Q1155.8594,333.1563 1155.75,332.7031 Q1155.7031,332.3906 1155.5313,332.2188 Q1155.2188,331.8906 1154.6563,331.7031 Q1154.0938,331.5 1153.5313,331.5 Q1152.8281,331.5 1152.2344,331.7813 Q1151.6563,332.0625 1151.2031,332.6875 Q1150.75,333.3125 1150.75,334.1719 L1150.75,335.0938 Q1150.75,336.125 1151.5938,336.8125 Q1152.4375,337.5 1153.9375,337.5 Q1154.8281,337.5 1155.4531,337.2969 Q1155.8125,337.1875 1156.2188,336.8281 Q1156.4844,336.625 1156.625,336.5625 Q1156.7656,336.5 1156.9375,336.5 Q1157.2656,336.5 1157.5,336.7656 Q1157.75,337.0156 1157.75,337.375 Q1157.75,337.7188 1157.4063,338.125 Q1156.9063,338.7188 1156.1094,339.0469 Q1155.0625,339.5 1153.7813,339.5 Q1152.2813,339.5 1151.0781,338.9063 Q1150.1094,338.4375 1149.4219,337.4219 Q1148.75,336.4063 1148.75,335.2031 L1148.75,334.1094 Q1148.75,332.8594 1149.3438,331.7656 Q1149.9531,330.6719 1151,330.0938 Q1152.0625,329.5 1153.25,329.5 Q1153.9688,329.5 1154.5938,329.75 Q1155.2188,330 1155.75,330.5 Z " fill="#000000"/><text fill="#000000" font-family="sans-serif" font-size="14" lengthAdjust="spacing" textLength="112" x="1171.25" y="339.7285">DailyPerformance</text><line style="stroke:#181818;stroke-width:0.5;" x1="1124" x2="1301" y1="350" y2="350"/><text fill="#000000" font-family="sans-serif" font-size="14" lengthAdjust="spacing" textLength="167" x="1129" y="368.5332">class AnalyzePerformace {</text></g><!--MD5=[f037a2adb9b7ded7782c970d443a81c6]
class VaccinationQueue--><g id="elem_VaccinationQueue"><rect codeLine="45" fill="#F1F1F1" height="110.4375" id="VaccinationQueue" rx="2.5" ry="2.5" style="stroke:#181818;stroke-width:0.5;" width="148" x="840.5" y="417"/><ellipse cx="855.5" cy="433" fill="#ADD1B2" rx="11" ry="11" style="stroke:#181818;stroke-width:1.0;"/><path d="M857.5,429.5 Q857.7031,429 857.9375,428.75 Q858.1719,428.5 858.4375,428.5 Q858.9063,428.5 859.2031,428.7813 Q859.5,429.0625 859.5,429.7188 L859.5,431.2813 Q859.5,431.9375 859.2188,432.2188 Q858.9375,432.5 858.5,432.5 Q858.1094,432.5 857.8594,432.3281 Q857.6094,432.1563 857.5,431.7031 Q857.4531,431.3906 857.2813,431.2188 Q856.9688,430.8906 856.4063,430.7031 Q855.8438,430.5 855.2813,430.5 Q854.5781,430.5 853.9844,430.7813 Q853.4063,431.0625 852.9531,431.6875 Q852.5,432.3125 852.5,433.1719 L852.5,434.0938 Q852.5,435.125 853.3438,435.8125 Q854.1875,436.5 855.6875,436.5 Q856.5781,436.5 857.2031,436.2969 Q857.5625,436.1875 857.9688,435.8281 Q858.2344,435.625 858.375,435.5625 Q858.5156,435.5 858.6875,435.5 Q859.0156,435.5 859.25,435.7656 Q859.5,436.0156 859.5,436.375 Q859.5,436.7188 859.1563,437.125 Q858.6563,437.7188 857.8594,438.0469 Q856.8125,438.5 855.5313,438.5 Q854.0313,438.5 852.8281,437.9063 Q851.8594,437.4375 851.1719,436.4219 Q850.5,435.4063 850.5,434.2031 L850.5,433.1094 Q850.5,431.8594 851.0938,430.7656 Q851.7031,429.6719 852.75,429.0938 Q853.8125,428.5 855,428.5 Q855.7188,428.5 856.3438,428.75 Q856.9688,429 857.5,429.5 Z " fill="#000000"/><text fill="#000000" font-family="sans-serif" font-size="14" lengthAdjust="spacing" textLength="116" x="869.5" y="438.7285">VaccinationQueue</text><line style="stroke:#181818;stroke-width:0.5;" x1="841.5" x2="987.5" y1="449" y2="449"/><text fill="#000000" font-family="sans-serif" font-size="14" lengthAdjust="spacing" textLength="61" x="846.5" y="467.5332">-SNSUser</text><text fill="#000000" font-family="sans-serif" font-size="14" lengthAdjust="spacing" textLength="33" x="846.5" y="485.1426">-date</text><text fill="#000000" font-family="sans-serif" font-size="14" lengthAdjust="spacing" textLength="68" x="846.5" y="502.752">-entryTime</text><text fill="#000000" font-family="sans-serif" font-size="14" lengthAdjust="spacing" textLength="57" x="846.5" y="520.3613">-exitTime</text></g><!--MD5=[6998b8d6afc126d149b458afcbb8008b]
class AnalyzePerformace--><g id="elem_AnalyzePerformace"><rect fill="#F1F1F1" height="40" id="AnalyzePerformace" rx="2.5" ry="2.5" style="stroke:#181818;stroke-width:0.5;" width="154" x="1135.5" y="635"/><ellipse cx="1150.5" cy="651" fill="#ADD1B2" rx="11" ry="11" style="stroke:#181818;stroke-width:1.0;"/><path d="M1152.5,647.5 Q1152.7031,647 1152.9375,646.75 Q1153.1719,646.5 1153.4375,646.5 Q1153.9063,646.5 1154.2031,646.7813 Q1154.5,647.0625 1154.5,647.7188 L1154.5,649.2813 Q1154.5,649.9375 1154.2188,650.2188 Q1153.9375,650.5 1153.5,650.5 Q1153.1094,650.5 1152.8594,650.3281 Q1152.6094,650.1563 1152.5,649.7031 Q1152.4531,649.3906 1152.2813,649.2188 Q1151.9688,648.8906 1151.4063,648.7031 Q1150.8438,648.5 1150.2813,648.5 Q1149.5781,648.5 1148.9844,648.7813 Q1148.4063,649.0625 1147.9531,649.6875 Q1147.5,650.3125 1147.5,651.1719 L1147.5,652.0938 Q1147.5,653.125 1148.3438,653.8125 Q1149.1875,654.5 1150.6875,654.5 Q1151.5781,654.5 1152.2031,654.2969 Q1152.5625,654.1875 1152.9688,653.8281 Q1153.2344,653.625 1153.375,653.5625 Q1153.5156,653.5 1153.6875,653.5 Q1154.0156,653.5 1154.25,653.7656 Q1154.5,654.0156 1154.5,654.375 Q1154.5,654.7188 1154.1563,655.125 Q1153.6563,655.7188 1152.8594,656.0469 Q1151.8125,656.5 1150.5313,656.5 Q1149.0313,656.5 1147.8281,655.9063 Q1146.8594,655.4375 1146.1719,654.4219 Q1145.5,653.4063 1145.5,652.2031 L1145.5,651.1094 Q1145.5,649.8594 1146.0938,648.7656 Q1146.7031,647.6719 1147.75,647.0938 Q1148.8125,646.5 1150,646.5 Q1150.7188,646.5 1151.3438,646.75 Q1151.9688,647 1152.5,647.5 Z " fill="#000000"/><text fill="#000000" font-family="sans-serif" font-size="14" lengthAdjust="spacing" textLength="122" x="1164.5" y="656.7285">AnalyzePerformace</text><line style="stroke:#181818;stroke-width:0.5;" x1="1136.5" x2="1288.5" y1="667" y2="667"/></g><!--MD5=[738a6f70211648d778fec4b79664b2f5]
link CenterCoordinator to Employee--><g id="link_CenterCoordinator_Employee"><path codeLine="53" d="M105.39,291.87 C140.94,259.9 212.07,195.94 268.67,145.03 " fill="none" id="CenterCoordinator-to-Employee" style="stroke:#181818;stroke-width:1.0;"/><polygon fill="none" points="264.28,139.57,283.83,131.4,273.64,149.98,264.28,139.57" style="stroke:#181818;stroke-width:1.0;"/></g><!--MD5=[d5cf03d886352995267197dc535618ec]
link CenterCoordinator to VaccinationCenter--><g id="link_CenterCoordinator_VaccinationCenter"><path codeLine="54" d="M143.48,332.08 C187.48,346.7 246.79,366.39 290.74,380.99 " fill="none" id="CenterCoordinator-VaccinationCenter" style="stroke:#181818;stroke-width:1.0;"/><polygon fill="#000000" points="196.7451,340.7518,189.0875,335.1116,187.2348,340.6899,196.7451,340.7518" style="stroke:#000000;stroke-width:1.0;"/><text fill="#000000" font-family="sans-serif" font-size="13" lengthAdjust="spacing" textLength="46" x="201" y="344.4951">manage</text><text fill="#000000" font-family="sans-serif" font-size="13" lengthAdjust="spacing" textLength="7" x="152.7869" y="353.5221">1</text><text fill="#000000" font-family="sans-serif" font-size="13" lengthAdjust="spacing" textLength="7" x="264.7168" y="370.3088">1</text></g><!--MD5=[96c98fd8ea72b99bcaa2e061adb16a51]
link VaccinationCenter to CommunityMassVaccinationCenter--><g id="link_VaccinationCenter_CommunityMassVaccinationCenter"><path codeLine="55" d="M426.04,415.98 C438.93,418.62 452.74,421.45 466.8,424.33 " fill="none" id="VaccinationCenter-to-CommunityMassVaccinationCenter" style="stroke:#181818;stroke-width:1.0;"/><polygon fill="none" points="468.59,417.55,486.77,428.43,465.78,431.27,468.59,417.55" style="stroke:#181818;stroke-width:1.0;"/></g><!--MD5=[22fb9506fac029fc1d2ae00f0eb8d606]
link Employee to User--><g id="link_Employee_User"><path codeLine="56" d="M420.24,71 C461.61,71 514.09,71 553.61,71 " fill="none" id="Employee-to-User" style="stroke:#181818;stroke-width:1.0;"/><polygon fill="none" points="553.79,64,573.79,71,553.79,78,553.79,64" style="stroke:#181818;stroke-width:1.0;"/></g><!--MD5=[8502a704dc9b381ea58589d3b3323a61]
link Company to CommunityMassVaccinationCenter--><g id="link_Company_CommunityMassVaccinationCenter"><path codeLine="57" d="M128.06,171.35 C206.69,217.32 371.56,313.71 486.79,381.08 " fill="none" id="Company-CommunityMassVaccinationCenter" style="stroke:#181818;stroke-width:1.0;"/><polygon fill="#000000" points="330.8164,252.6994,324.4913,245.597,321.5246,250.6713,330.8164,252.6994" style="stroke:#000000;stroke-width:1.0;"/><text fill="#000000" font-family="sans-serif" font-size="13" lengthAdjust="spacing" textLength="46" x="335.5" y="255.4951">manage</text><text fill="#000000" font-family="sans-serif" font-size="13" lengthAdjust="spacing" textLength="7" x="135.9586" y="190.3788">1</text><text fill="#000000" font-family="sans-serif" font-size="13" lengthAdjust="spacing" textLength="5" x="473.9772" y="390.6336">*</text></g><!--MD5=[3f29a51da9f639eee0a312cae15defb1]
link CommunityMassVaccinationCenter to VaccinationQueue--><g id="link_CommunityMassVaccinationCenter_VaccinationQueue"><path codeLine="58" d="M738.12,461.48 C772.89,463.56 809.54,465.76 840.29,467.61 " fill="none" id="CommunityMassVaccinationCenter-VaccinationQueue" style="stroke:#181818;stroke-width:1.0;"/><polygon fill="#000000" points="777.991,454.4752,769.1382,450.9999,768.7862,456.8672,777.991,454.4752" style="stroke:#000000;stroke-width:1.0;"/><text fill="#000000" font-family="sans-serif" font-size="13" lengthAdjust="spacing" textLength="21" x="782" y="459.4951">has</text><text fill="#000000" font-family="sans-serif" font-size="13" lengthAdjust="spacing" textLength="7" x="745.9883" y="475.9329">1</text><text fill="#000000" font-family="sans-serif" font-size="13" lengthAdjust="spacing" textLength="7" x="825.2762" y="481.473">1</text></g><!--MD5=[a740cdf6d17d62c25305833d1bc79078]
link CommunityMassVaccinationCenter to VaccinationStatistics--><g id="link_CommunityMassVaccinationCenter_VaccinationStatistics"><path codeLine="59" d="M738.12,507.17 C783.52,526.54 832.11,547.27 866.61,561.99 " fill="none" id="CommunityMassVaccinationCenter-VaccinationStatistics" style="stroke:#181818;stroke-width:1.0;"/><polygon fill="#000000" points="777.5989,514.1379,770.4327,507.8852,768.1261,513.2916,777.5989,514.1379" style="stroke:#000000;stroke-width:1.0;"/><text fill="#000000" font-family="sans-serif" font-size="13" lengthAdjust="spacing" textLength="21" x="782" y="517.4951">has</text><text fill="#000000" font-family="sans-serif" font-size="13" lengthAdjust="spacing" textLength="7" x="745.9883" y="524.4072">1</text><text fill="#000000" font-family="sans-serif" font-size="13" lengthAdjust="spacing" textLength="5" x="846.8079" y="551.3088">*</text></g><!--MD5=[d19048e0d201a425b8ba02c142b1ebd0]
link CenterCoordinator to DailyPerformance--><g id="link_CenterCoordinator_DailyPerformance"><path codeLine="60" d="M157.15,296.63 C210.76,286.84 285.04,276 351,276 C351,276 351,276 915.5,276 C991.33,276 1075.16,298.31 1134.19,317.92 " fill="none" id="CenterCoordinator-DailyPerformance" style="stroke:#181818;stroke-width:1.0;"/><polygon fill="#000000" points="591.4988,267.2847,582.5199,264.1494,582.3919,270.0259,591.4988,267.2847" style="stroke:#000000;stroke-width:1.0;"/><text fill="#000000" font-family="sans-serif" font-size="13" lengthAdjust="spacing" textLength="47" x="595.5" y="272.4951">evaluate</text><text fill="#000000" font-family="sans-serif" font-size="13" lengthAdjust="spacing" textLength="7" x="164.8921" y="309.4169">1</text><text fill="#000000" font-family="sans-serif" font-size="13" lengthAdjust="spacing" textLength="20" x="1094.8722" y="307.385">0..*</text></g><!--MD5=[e31506ead07e447928ba83a08bf6c149]
link CommunityMassVaccinationCenter to DailyPerformance--><g id="link_CommunityMassVaccinationCenter_DailyPerformance"><path codeLine="61" d="M738.11,421.31 C769.3,413.72 802.76,406.1 834,400 C918.21,383.56 940.04,383.92 1025,372 C1056.87,367.53 1091.82,362.8 1122.77,358.67 " fill="none" id="CommunityMassVaccinationCenter-DailyPerformance" style="stroke:#181818;stroke-width:1.0;"/><polygon fill="#000000" points="906.435,366.3721,897.0351,364.9252,897.9799,370.7267,906.435,366.3721" style="stroke:#000000;stroke-width:1.0;"/><text fill="#000000" font-family="sans-serif" font-size="13" lengthAdjust="spacing" textLength="21" x="910.5" y="372.4951">has</text><text fill="#000000" font-family="sans-serif" font-size="13" lengthAdjust="spacing" textLength="7" x="745.9776" y="433.3151">1</text><text fill="#000000" font-family="sans-serif" font-size="13" lengthAdjust="spacing" textLength="20" x="1095.1344" y="373.6995">0..*</text></g><!--MD5=[de243bd303a36b6c4c54686b73a54873]
link VaccinationQueue to DailyPerformance--><g id="link_VaccinationQueue_DailyPerformance"><path codeLine="62" d="M988.67,441.1 C1035.75,421.22 1096.54,395.55 1142.73,376.04 " fill="none" id="VaccinationQueue-DailyPerformance" style="stroke:#181818;stroke-width:1.0;"/><polygon fill="#000000" points="1025.3939,391.121,1034.8698,390.3095,1032.5831,384.8947,1025.3939,391.121" style="stroke:#000000;stroke-width:1.0;"/><text fill="#000000" font-family="sans-serif" font-size="13" lengthAdjust="spacing" textLength="53" x="1039" y="394.4951">based on</text><text fill="#000000" font-family="sans-serif" font-size="13" lengthAdjust="spacing" textLength="7" x="996.6797" y="452.2291">1</text><text fill="#000000" font-family="sans-serif" font-size="13" lengthAdjust="spacing" textLength="5" x="1122.8243" y="397.2512">*</text></g><!--MD5=[5c0b2ca68421fe6d821e9a9e89c3c9aa]
link CenterCoordinator to AnalyzePerformace--><g id="link_CenterCoordinator_AnalyzePerformace"><path codeLine="63" d="M85.5,332.21 C97.24,417.42 154.95,743 351,743 C351,743 351,743 915.5,743 C1010.12,743 1114.97,701.17 1170.97,675.19 " fill="none" id="CenterCoordinator-AnalyzePerformace" style="stroke:#181818;stroke-width:1.0;"/><polygon fill="#000000" points="591.2677,735.6822,583.5284,730.1547,581.7574,735.7594,591.2677,735.6822" style="stroke:#000000;stroke-width:1.0;"/><text fill="#000000" font-family="sans-serif" font-size="13" lengthAdjust="spacing" textLength="47" x="595.5" y="739.4951">evaluate</text><text fill="#000000" font-family="sans-serif" font-size="13" lengthAdjust="spacing" textLength="7" x="78.5" y="353.3338">1</text><text fill="#000000" font-family="sans-serif" font-size="13" lengthAdjust="spacing" textLength="20" x="1136.4772" y="696.663">0..*</text></g><!--MD5=[5f9dece9647870e4b199a470c75eda6e]
link CommunityMassVaccinationCenter to AnalyzePerformace--><g id="link_CommunityMassVaccinationCenter_AnalyzePerformace"><path codeLine="64" d="M695.67,544.71 C733.88,580.56 782.29,617.93 834,638 C932.62,676.27 1056.78,673.08 1135.17,665.47 " fill="none" id="CommunityMassVaccinationCenter-AnalyzePerformace" style="stroke:#181818;stroke-width:1.0;"/><polygon fill="#000000" points="906.3213,630.5005,898.3781,625.2701,896.8208,630.9379,906.3213,630.5005" style="stroke:#000000;stroke-width:1.0;"/><text fill="#000000" font-family="sans-serif" font-size="13" lengthAdjust="spacing" textLength="21" x="910.5" y="634.4951">has</text><text fill="#000000" font-family="sans-serif" font-size="13" lengthAdjust="spacing" textLength="7" x="694.7697" y="565.7808">1</text><text fill="#000000" font-family="sans-serif" font-size="13" lengthAdjust="spacing" textLength="20" x="1107.3922" y="680.6258">0..*</text></g><!--MD5=[25bf76f120bd913600db97ec22223cc3]
link VaccinationQueue to AnalyzePerformace--><g id="link_VaccinationQueue_AnalyzePerformace"><path codeLine="65" d="M988.67,517.24 C1049.62,554.92 1133.54,606.8 1179.02,634.92 " fill="none" id="VaccinationQueue-AnalyzePerformace" style="stroke:#181818;stroke-width:1.0;"/><polygon fill="#000000" points="1025.7471,529.5465,1031.8952,536.8027,1034.9861,531.8031,1025.7471,529.5465" style="stroke:#000000;stroke-width:1.0;"/><text fill="#000000" font-family="sans-serif" font-size="13" lengthAdjust="spacing" textLength="53" x="1039" y="537.4951">based on</text><text fill="#000000" font-family="sans-serif" font-size="13" lengthAdjust="spacing" textLength="7" x="996.6797" y="536.2211">1</text><text fill="#000000" font-family="sans-serif" font-size="13" lengthAdjust="spacing" textLength="5" x="1163.4509" y="624.2183">*</text></g><!--MD5=[09366576ee87d48d594df10cacc83f45]
link Company to Employee--><g id="link_Company_Employee"><path codeLine="66" d="M128.16,132.53 C170.75,120.77 235.13,102.99 283.76,89.57 " fill="none" id="Company-Employee" style="stroke:#181818;stroke-width:1.0;"/><polygon fill="#000000" points="201.3197,91.8451,191.8186,91.4194,193.383,97.0853,201.3197,91.8451" style="stroke:#000000;stroke-width:1.0;"/><text fill="#000000" font-family="sans-serif" font-size="13" lengthAdjust="spacing" textLength="37" x="205.5" y="98.4951">knows</text><text fill="#000000" font-family="sans-serif" font-size="13" lengthAdjust="spacing" textLength="7" x="136.0746" y="145.3719">1</text><text fill="#000000" font-family="sans-serif" font-size="13" lengthAdjust="spacing" textLength="5" x="271.0228" y="105.9879">*</text></g><!--MD5=[a63320ee6e80aa81941a08256bf815e1]
@startuml
hide methods
left to right direction
skinparam classAttributeIconSize 0

class Company {
    -designation
}

class Employee {
    -name
    -address
    -phoneNumber
    -citizenCardNumber
    -role
}

class CommunityMassVaccinationCenter {
    -name
    -phoneNumber
    -email
    -address
    -faxNumber
    -website
    -slotDuration
    -slotVaccineLimit
}

class CenterCoordinator {
}

class User {
    -email
    -password
}

class VaccinationCenter {
}

class VaccinationStatistics {
}

class DailyPerformance {
class AnalyzePerformace {
}
class VaccinationQueue {
    -SNSUser
    -date
    -entryTime
    -exitTime
}

'- - - - - - - - - - - - Relations - - - - - - - - - - - -
CenterCoordinator - -|> Employee
CenterCoordinator "1" - - "1" VaccinationCenter : manage >
VaccinationCenter - -|> CommunityMassVaccinationCenter
Employee - -|> User
Company "1" - - "*" CommunityMassVaccinationCenter : manage >
CommunityMassVaccinationCenter "1" - - "1" VaccinationQueue : has >
CommunityMassVaccinationCenter "1" - - "*" VaccinationStatistics : has >
CenterCoordinator "1" - - "0..*" DailyPerformance : evaluate >
CommunityMassVaccinationCenter "1" - - "0..*" DailyPerformance : has >
VaccinationQueue "1" - - "*" DailyPerformance : based on <
CenterCoordinator "1" - - "0..*" AnalyzePerformace : evaluate >
CommunityMassVaccinationCenter "1" - - "0..*" AnalyzePerformace : has >
VaccinationQueue "1" - - "*" AnalyzePerformace : based on <
Company "1" - - "*" Employee : knows >
@enduml

@startuml
hide methods
left to right direction
skinparam classAttributeIconSize 0

class Company {
    -designation
}

class Employee {
    -name
    -address
    -phoneNumber
    -citizenCardNumber
    -role
}

class CommunityMassVaccinationCenter {
    -name
    -phoneNumber
    -email
    -address
    -faxNumber
    -website
    -slotDuration
    -slotVaccineLimit
}

class CenterCoordinator {
}

class User {
    -email
    -password
}

class VaccinationCenter {
}

class VaccinationStatistics {
}

class DailyPerformance {
class AnalyzePerformace {
}
class VaccinationQueue {
    -SNSUser
    -date
    -entryTime
    -exitTime
}

CenterCoordinator - -|> Employee
CenterCoordinator "1" - - "1" VaccinationCenter : manage >
VaccinationCenter - -|> CommunityMassVaccinationCenter
Employee - -|> User
Company "1" - - "*" CommunityMassVaccinationCenter : manage >
CommunityMassVaccinationCenter "1" - - "1" VaccinationQueue : has >
CommunityMassVaccinationCenter "1" - - "*" VaccinationStatistics : has >
CenterCoordinator "1" - - "0..*" DailyPerformance : evaluate >
CommunityMassVaccinationCenter "1" - - "0..*" DailyPerformance : has >
VaccinationQueue "1" - - "*" DailyPerformance : based on <
CenterCoordinator "1" - - "0..*" AnalyzePerformace : evaluate >
CommunityMassVaccinationCenter "1" - - "0..*" AnalyzePerformace : has >
VaccinationQueue "1" - - "*" AnalyzePerformace : based on <
Company "1" - - "*" Employee : knows >
@enduml

PlantUML version 1.2022.5(Sat Apr 30 11:55:52 BST 2022)
(GPL source distribution)
Java Runtime: OpenJDK Runtime Environment
JVM: OpenJDK 64-Bit Server VM
Default Encoding: Cp1252
Language: pt
Country: PT
--></g></svg>